ISO-10303-21;
HEADER;
FILE_DESCRIPTION(('FreeCAD Model'),'2;1');
FILE_NAME('Open CASCADE Shape Model','2026-09-02T21:38:14',('Author'),(
    ''),'Open CASCADE STEP processor 7.8','FreeCAD','Unknown');
FILE_SCHEMA(('AUTOMOTIVE_DESIGN { 1 0 10303 214 1 1 1 1 }'));
ENDSEC;
DATA;
#1 = APPLICATION_PROTOCOL_DEFINITION('international standard',
  'automotive_design',2000,#2);
#2 = APPLICATION_CONTEXT(
  'core data for automotive mechanical design processes');
#3 = SHAPE_DEFINITION_REPRESENTATION(#4,#10);
#4 = PRODUCT_DEFINITION_SHAPE('','',#5);
#5 = PRODUCT_DEFINITION('design','',#6,#9);
#6 = PRODUCT_DEFINITION_FORMATION('','',#7);
#7 = PRODUCT('Sketch','Sketch','',(#8));
#8 = PRODUCT_CONTEXT('',#2,'mechanical');
#9 = PRODUCT_DEFINITION_CONTEXT('part definition',#2,'design');
#10 = SHAPE_REPRESENTATION('',(#11,#15,#17,#26,#69,#78,#87,#96,#105,#114
    ,#123,#132,#141,#150,#159,#168),#177);
#11 = AXIS2_PLACEMENT_3D('',#12,#13,#14);
#12 = CARTESIAN_POINT('',(0.,0.,0.));
#13 = DIRECTION('',(0.,0.,1.));
#14 = DIRECTION('',(1.,0.,-0.));
#15 = GEOMETRIC_CURVE_SET('',(#16));
#16 = CARTESIAN_POINT('',(0.,0.,0.));
#17 = GEOMETRIC_CURVE_SET('',(#18));
#18 = TRIMMED_CURVE('',#19,(#24,PARAMETER_VALUE(0.)),(#25,
    PARAMETER_VALUE(6.28318530718)),.T.,.PARAMETER.);
#19 = CIRCLE('',#20,1.85);
#20 = AXIS2_PLACEMENT_3D('',#21,#22,#23);
#21 = CARTESIAN_POINT('',(0.,0.,0.));
#22 = DIRECTION('',(0.,0.,1.));
#23 = DIRECTION('',(1.,0.,-0.));
#24 = CARTESIAN_POINT('',(1.85,0.,0.));
#25 = CARTESIAN_POINT('',(1.85,0.,0.));
#26 = GEOMETRIC_CURVE_SET('',(#27,#34,#41,#48,#55,#62));
#27 = TRIMMED_CURVE('',#28,(#32,PARAMETER_VALUE(0.)),(#33,
    PARAMETER_VALUE(6.2)),.T.,.PARAMETER.);
#28 = LINE('',#29,#30);
#29 = CARTESIAN_POINT('',(0.,0.,0.));
#30 = VECTOR('',#31,1.);
#31 = DIRECTION('',(1.,0.,0.));
#32 = CARTESIAN_POINT('',(0.,0.,0.));
#33 = CARTESIAN_POINT('',(6.2,0.,0.));
#34 = TRIMMED_CURVE('',#35,(#39,PARAMETER_VALUE(0.)),(#40,
    PARAMETER_VALUE(6.2)),.T.,.PARAMETER.);
#35 = LINE('',#36,#37);
#36 = CARTESIAN_POINT('',(0.,0.,0.));
#37 = VECTOR('',#38,1.);
#38 = DIRECTION('',(-1.,0.,0.));
#39 = CARTESIAN_POINT('',(0.,0.,0.));
#40 = CARTESIAN_POINT('',(-6.2,0.,0.));
#41 = TRIMMED_CURVE('',#42,(#46,PARAMETER_VALUE(0.)),(#47,
    PARAMETER_VALUE(4.9)),.T.,.PARAMETER.);
#42 = LINE('',#43,#44);
#43 = CARTESIAN_POINT('',(-6.2,0.,0.));
#44 = VECTOR('',#45,1.);
#45 = DIRECTION('',(0.,-1.,0.));
#46 = CARTESIAN_POINT('',(-6.2,0.,0.));
#47 = CARTESIAN_POINT('',(-6.2,-4.9,0.));
#48 = TRIMMED_CURVE('',#49,(#53,PARAMETER_VALUE(0.)),(#54,
    PARAMETER_VALUE(8.5)),.T.,.PARAMETER.);
#49 = LINE('',#50,#51);
#50 = CARTESIAN_POINT('',(0.,0.,0.));
#51 = VECTOR('',#52,1.);
#52 = DIRECTION('',(0.,-1.,0.));
#53 = CARTESIAN_POINT('',(0.,0.,0.));
#54 = CARTESIAN_POINT('',(0.,-8.5,0.));
#55 = TRIMMED_CURVE('',#56,(#60,PARAMETER_VALUE(0.)),(#61,
    PARAMETER_VALUE(8.5)),.T.,.PARAMETER.);
#56 = LINE('',#57,#58);
#57 = CARTESIAN_POINT('',(0.,0.,0.));
#58 = VECTOR('',#59,1.);
#59 = DIRECTION('',(0.,1.,0.));
#60 = CARTESIAN_POINT('',(0.,0.,0.));
#61 = CARTESIAN_POINT('',(0.,8.5,0.));
#62 = TRIMMED_CURVE('',#63,(#67,PARAMETER_VALUE(0.)),(#68,
    PARAMETER_VALUE(4.9)),.T.,.PARAMETER.);
#63 = LINE('',#64,#65);
#64 = CARTESIAN_POINT('',(-6.2,0.,0.));
#65 = VECTOR('',#66,1.);
#66 = DIRECTION('',(0.,1.,0.));
#67 = CARTESIAN_POINT('',(-6.2,0.,0.));
#68 = CARTESIAN_POINT('',(-6.2,4.9,0.));
#69 = GEOMETRIC_CURVE_SET('',(#70));
#70 = TRIMMED_CURVE('',#71,(#76,PARAMETER_VALUE(0.)),(#77,
    PARAMETER_VALUE(6.28318530718)),.T.,.PARAMETER.);
#71 = CIRCLE('',#72,0.5);
#72 = AXIS2_PLACEMENT_3D('',#73,#74,#75);
#73 = CARTESIAN_POINT('',(0.,8.5,0.));
#74 = DIRECTION('',(0.,0.,1.));
#75 = DIRECTION('',(1.,0.,-0.));
#76 = CARTESIAN_POINT('',(0.5,8.5,0.));
#77 = CARTESIAN_POINT('',(0.5,8.5,0.));
#78 = GEOMETRIC_CURVE_SET('',(#79));
#79 = TRIMMED_CURVE('',#80,(#85,PARAMETER_VALUE(0.)),(#86,
    PARAMETER_VALUE(6.28318530718)),.T.,.PARAMETER.);
#80 = CIRCLE('',#81,0.5);
#81 = AXIS2_PLACEMENT_3D('',#82,#83,#84);
#82 = CARTESIAN_POINT('',(-6.2,0.,0.));
#83 = DIRECTION('',(0.,0.,1.));
#84 = DIRECTION('',(1.,0.,-0.));
#85 = CARTESIAN_POINT('',(-5.7,0.,0.));
#86 = CARTESIAN_POINT('',(-5.7,0.,0.));
#87 = GEOMETRIC_CURVE_SET('',(#88));
#88 = TRIMMED_CURVE('',#89,(#94,PARAMETER_VALUE(0.)),(#95,
    PARAMETER_VALUE(6.28318530718)),.T.,.PARAMETER.);
#89 = CIRCLE('',#90,0.5);
#90 = AXIS2_PLACEMENT_3D('',#91,#92,#93);
#91 = CARTESIAN_POINT('',(6.2,0.,0.));
#92 = DIRECTION('',(0.,0.,1.));
#93 = DIRECTION('',(1.,0.,-0.));
#94 = CARTESIAN_POINT('',(6.7,0.,0.));
#95 = CARTESIAN_POINT('',(6.7,0.,0.));
#96 = GEOMETRIC_CURVE_SET('',(#97));
#97 = TRIMMED_CURVE('',#98,(#103,PARAMETER_VALUE(0.)),(#104,
    PARAMETER_VALUE(6.28318530718)),.T.,.PARAMETER.);
#98 = CIRCLE('',#99,0.5);
#99 = AXIS2_PLACEMENT_3D('',#100,#101,#102);
#100 = CARTESIAN_POINT('',(0.,-8.5,0.));
#101 = DIRECTION('',(0.,0.,1.));
#102 = DIRECTION('',(1.,0.,-0.));
#103 = CARTESIAN_POINT('',(0.5,-8.5,0.));
#104 = CARTESIAN_POINT('',(0.5,-8.5,0.));
#105 = GEOMETRIC_CURVE_SET('',(#106));
#106 = TRIMMED_CURVE('',#107,(#112,PARAMETER_VALUE(0.)),(#113,
    PARAMETER_VALUE(6.28318530718)),.T.,.PARAMETER.);
#107 = CIRCLE('',#108,0.5);
#108 = AXIS2_PLACEMENT_3D('',#109,#110,#111);
#109 = CARTESIAN_POINT('',(-6.2,4.9,0.));
#110 = DIRECTION('',(0.,0.,1.));
#111 = DIRECTION('',(1.,0.,-0.));
#112 = CARTESIAN_POINT('',(-5.7,4.9,0.));
#113 = CARTESIAN_POINT('',(-5.7,4.9,0.));
#114 = GEOMETRIC_CURVE_SET('',(#115));
#115 = TRIMMED_CURVE('',#116,(#121,PARAMETER_VALUE(0.)),(#122,
    PARAMETER_VALUE(6.28318530718)),.T.,.PARAMETER.);
#116 = CIRCLE('',#117,0.5);
#117 = AXIS2_PLACEMENT_3D('',#118,#119,#120);
#118 = CARTESIAN_POINT('',(-6.2,-4.9,0.));
#119 = DIRECTION('',(0.,0.,1.));
#120 = DIRECTION('',(1.,0.,-0.));
#121 = CARTESIAN_POINT('',(-5.7,-4.9,0.));
#122 = CARTESIAN_POINT('',(-5.7,-4.9,0.));
#123 = GEOMETRIC_CURVE_SET('',(#124));
#124 = TRIMMED_CURVE('',#125,(#130,PARAMETER_VALUE(0.)),(#131,
    PARAMETER_VALUE(6.28318530718)),.T.,.PARAMETER.);
#125 = CIRCLE('',#126,0.5);
#126 = AXIS2_PLACEMENT_3D('',#127,#128,#129);
#127 = CARTESIAN_POINT('',(-4.095188951358,-8.301436527339,0.));
#128 = DIRECTION('',(0.,0.,1.));
#129 = DIRECTION('',(1.,0.,-0.));
#130 = CARTESIAN_POINT('',(-3.595188951358,-8.301436527339,0.));
#131 = CARTESIAN_POINT('',(-3.595188951358,-8.301436527339,0.));
#132 = GEOMETRIC_CURVE_SET('',(#133));
#133 = TRIMMED_CURVE('',#134,(#139,PARAMETER_VALUE(0.)),(#140,
    PARAMETER_VALUE(6.28318530718)),.T.,.PARAMETER.);
#134 = CIRCLE('',#135,0.5);
#135 = AXIS2_PLACEMENT_3D('',#136,#137,#138);
#136 = CARTESIAN_POINT('',(6.2,4.9,0.));
#137 = DIRECTION('',(0.,0.,1.));
#138 = DIRECTION('',(1.,0.,-0.));
#139 = CARTESIAN_POINT('',(6.7,4.9,0.));
#140 = CARTESIAN_POINT('',(6.7,4.9,0.));
#141 = GEOMETRIC_CURVE_SET('',(#142));
#142 = TRIMMED_CURVE('',#143,(#148,PARAMETER_VALUE(0.)),(#149,
    PARAMETER_VALUE(6.28318530718)),.T.,.PARAMETER.);
#143 = CIRCLE('',#144,0.5);
#144 = AXIS2_PLACEMENT_3D('',#145,#146,#147);
#145 = CARTESIAN_POINT('',(6.2,-4.9,0.));
#146 = DIRECTION('',(0.,0.,1.));
#147 = DIRECTION('',(1.,0.,-0.));
#148 = CARTESIAN_POINT('',(6.7,-4.9,0.));
#149 = CARTESIAN_POINT('',(6.7,-4.9,0.));
#150 = GEOMETRIC_CURVE_SET('',(#151));
#151 = TRIMMED_CURVE('',#152,(#157,PARAMETER_VALUE(0.)),(#158,
    PARAMETER_VALUE(6.28318530718)),.T.,.PARAMETER.);
#152 = CIRCLE('',#153,0.5);
#153 = AXIS2_PLACEMENT_3D('',#154,#155,#156);
#154 = CARTESIAN_POINT('',(4.095188951358,-8.301436527339,0.));
#155 = DIRECTION('',(0.,0.,1.));
#156 = DIRECTION('',(1.,0.,-0.));
#157 = CARTESIAN_POINT('',(4.595188951358,-8.301436527339,0.));
#158 = CARTESIAN_POINT('',(4.595188951358,-8.301436527339,0.));
#159 = GEOMETRIC_CURVE_SET('',(#160));
#160 = TRIMMED_CURVE('',#161,(#166,PARAMETER_VALUE(0.)),(#167,
    PARAMETER_VALUE(6.28318530718)),.T.,.PARAMETER.);
#161 = CIRCLE('',#162,0.5);
#162 = AXIS2_PLACEMENT_3D('',#163,#164,#165);
#163 = CARTESIAN_POINT('',(-4.095188951358,8.301436527339,0.));
#164 = DIRECTION('',(0.,0.,1.));
#165 = DIRECTION('',(1.,0.,-0.));
#166 = CARTESIAN_POINT('',(-3.595188951358,8.301436527339,0.));
#167 = CARTESIAN_POINT('',(-3.595188951358,8.301436527339,0.));
#168 = GEOMETRIC_CURVE_SET('',(#169));
#169 = TRIMMED_CURVE('',#170,(#175,PARAMETER_VALUE(0.)),(#176,
    PARAMETER_VALUE(6.28318530718)),.T.,.PARAMETER.);
#170 = CIRCLE('',#171,0.5);
#171 = AXIS2_PLACEMENT_3D('',#172,#173,#174);
#172 = CARTESIAN_POINT('',(4.095188951358,8.301436527339,0.));
#173 = DIRECTION('',(0.,0.,1.));
#174 = DIRECTION('',(1.,0.,-0.));
#175 = CARTESIAN_POINT('',(4.595188951358,8.301436527339,0.));
#176 = CARTESIAN_POINT('',(4.595188951358,8.301436527339,0.));
#177 = ( GEOMETRIC_REPRESENTATION_CONTEXT(3) 
GLOBAL_UNCERTAINTY_ASSIGNED_CONTEXT((#181)) GLOBAL_UNIT_ASSIGNED_CONTEXT
((#178,#179,#180)) REPRESENTATION_CONTEXT('Context #1',
  '3D Context with UNIT and UNCERTAINTY') );
#178 = ( LENGTH_UNIT() NAMED_UNIT(*) SI_UNIT(.MILLI.,.METRE.) );
#179 = ( NAMED_UNIT(*) PLANE_ANGLE_UNIT() SI_UNIT($,.RADIAN.) );
#180 = ( NAMED_UNIT(*) SI_UNIT($,.STERADIAN.) SOLID_ANGLE_UNIT() );
#181 = UNCERTAINTY_MEASURE_WITH_UNIT(LENGTH_MEASURE(1.E-07),#178,
  'distance_accuracy_value','confusion accuracy');
#182 = PRODUCT_RELATED_PRODUCT_CATEGORY('part',$,(#7));
#183 = MECHANICAL_DESIGN_GEOMETRIC_PRESENTATION_REPRESENTATION('',(#184,
    #197,#208,#219,#230,#241,#252,#263,#274,#285,#296,#307,#318,#329),
  #177);
#184 = STYLED_ITEM('color',(#185),#17);
#185 = PRESENTATION_STYLE_ASSIGNMENT((#186,#194));
#186 = SURFACE_STYLE_USAGE(.BOTH.,#187);
#187 = SURFACE_SIDE_STYLE('',(#188,#192));
#188 = SURFACE_STYLE_FILL_AREA(#189);
#189 = FILL_AREA_STYLE('',(#190));
#190 = FILL_AREA_STYLE_COLOUR('',#191);
#191 = COLOUR_RGB('',0.329411773243,0.670588257465,1.);
#192 = SURFACE_STYLE_RENDERING_WITH_PROPERTIES(.NORMAL_SHADING.,#191,(
    #193));
#193 = SURFACE_STYLE_TRANSPARENT(0.749019622803);
#194 = CURVE_STYLE('',#195,POSITIVE_LENGTH_MEASURE(0.1),#196);
#195 = DRAUGHTING_PRE_DEFINED_CURVE_FONT('continuous');
#196 = COLOUR_RGB('',0.945098040599,0.952941189437,0.960784305148);
#197 = STYLED_ITEM('color',(#198),#26);
#198 = PRESENTATION_STYLE_ASSIGNMENT((#199,#206));
#199 = SURFACE_STYLE_USAGE(.BOTH.,#200);
#200 = SURFACE_SIDE_STYLE('',(#201,#204));
#201 = SURFACE_STYLE_FILL_AREA(#202);
#202 = FILL_AREA_STYLE('',(#203));
#203 = FILL_AREA_STYLE_COLOUR('',#191);
#204 = SURFACE_STYLE_RENDERING_WITH_PROPERTIES(.NORMAL_SHADING.,#191,(
    #205));
#205 = SURFACE_STYLE_TRANSPARENT(0.749019622803);
#206 = CURVE_STYLE('',#207,POSITIVE_LENGTH_MEASURE(0.1),#196);
#207 = DRAUGHTING_PRE_DEFINED_CURVE_FONT('continuous');
#208 = STYLED_ITEM('color',(#209),#69);
#209 = PRESENTATION_STYLE_ASSIGNMENT((#210,#217));
#210 = SURFACE_STYLE_USAGE(.BOTH.,#211);
#211 = SURFACE_SIDE_STYLE('',(#212,#215));
#212 = SURFACE_STYLE_FILL_AREA(#213);
#213 = FILL_AREA_STYLE('',(#214));
#214 = FILL_AREA_STYLE_COLOUR('',#191);
#215 = SURFACE_STYLE_RENDERING_WITH_PROPERTIES(.NORMAL_SHADING.,#191,(
    #216));
#216 = SURFACE_STYLE_TRANSPARENT(0.749019622803);
#217 = CURVE_STYLE('',#218,POSITIVE_LENGTH_MEASURE(0.1),#196);
#218 = DRAUGHTING_PRE_DEFINED_CURVE_FONT('continuous');
#219 = STYLED_ITEM('color',(#220),#78);
#220 = PRESENTATION_STYLE_ASSIGNMENT((#221,#228));
#221 = SURFACE_STYLE_USAGE(.BOTH.,#222);
#222 = SURFACE_SIDE_STYLE('',(#223,#226));
#223 = SURFACE_STYLE_FILL_AREA(#224);
#224 = FILL_AREA_STYLE('',(#225));
#225 = FILL_AREA_STYLE_COLOUR('',#191);
#226 = SURFACE_STYLE_RENDERING_WITH_PROPERTIES(.NORMAL_SHADING.,#191,(
    #227));
#227 = SURFACE_STYLE_TRANSPARENT(0.749019622803);
#228 = CURVE_STYLE('',#229,POSITIVE_LENGTH_MEASURE(0.1),#196);
#229 = DRAUGHTING_PRE_DEFINED_CURVE_FONT('continuous');
#230 = STYLED_ITEM('color',(#231),#87);
#231 = PRESENTATION_STYLE_ASSIGNMENT((#232,#239));
#232 = SURFACE_STYLE_USAGE(.BOTH.,#233);
#233 = SURFACE_SIDE_STYLE('',(#234,#237));
#234 = SURFACE_STYLE_FILL_AREA(#235);
#235 = FILL_AREA_STYLE('',(#236));
#236 = FILL_AREA_STYLE_COLOUR('',#191);
#237 = SURFACE_STYLE_RENDERING_WITH_PROPERTIES(.NORMAL_SHADING.,#191,(
    #238));
#238 = SURFACE_STYLE_TRANSPARENT(0.749019622803);
#239 = CURVE_STYLE('',#240,POSITIVE_LENGTH_MEASURE(0.1),#196);
#240 = DRAUGHTING_PRE_DEFINED_CURVE_FONT('continuous');
#241 = STYLED_ITEM('color',(#242),#96);
#242 = PRESENTATION_STYLE_ASSIGNMENT((#243,#250));
#243 = SURFACE_STYLE_USAGE(.BOTH.,#244);
#244 = SURFACE_SIDE_STYLE('',(#245,#248));
#245 = SURFACE_STYLE_FILL_AREA(#246);
#246 = FILL_AREA_STYLE('',(#247));
#247 = FILL_AREA_STYLE_COLOUR('',#191);
#248 = SURFACE_STYLE_RENDERING_WITH_PROPERTIES(.NORMAL_SHADING.,#191,(
    #249));
#249 = SURFACE_STYLE_TRANSPARENT(0.749019622803);
#250 = CURVE_STYLE('',#251,POSITIVE_LENGTH_MEASURE(0.1),#196);
#251 = DRAUGHTING_PRE_DEFINED_CURVE_FONT('continuous');
#252 = STYLED_ITEM('color',(#253),#105);
#253 = PRESENTATION_STYLE_ASSIGNMENT((#254,#261));
#254 = SURFACE_STYLE_USAGE(.BOTH.,#255);
#255 = SURFACE_SIDE_STYLE('',(#256,#259));
#256 = SURFACE_STYLE_FILL_AREA(#257);
#257 = FILL_AREA_STYLE('',(#258));
#258 = FILL_AREA_STYLE_COLOUR('',#191);
#259 = SURFACE_STYLE_RENDERING_WITH_PROPERTIES(.NORMAL_SHADING.,#191,(
    #260));
#260 = SURFACE_STYLE_TRANSPARENT(0.749019622803);
#261 = CURVE_STYLE('',#262,POSITIVE_LENGTH_MEASURE(0.1),#196);
#262 = DRAUGHTING_PRE_DEFINED_CURVE_FONT('continuous');
#263 = STYLED_ITEM('color',(#264),#114);
#264 = PRESENTATION_STYLE_ASSIGNMENT((#265,#272));
#265 = SURFACE_STYLE_USAGE(.BOTH.,#266);
#266 = SURFACE_SIDE_STYLE('',(#267,#270));
#267 = SURFACE_STYLE_FILL_AREA(#268);
#268 = FILL_AREA_STYLE('',(#269));
#269 = FILL_AREA_STYLE_COLOUR('',#191);
#270 = SURFACE_STYLE_RENDERING_WITH_PROPERTIES(.NORMAL_SHADING.,#191,(
    #271));
#271 = SURFACE_STYLE_TRANSPARENT(0.749019622803);
#272 = CURVE_STYLE('',#273,POSITIVE_LENGTH_MEASURE(0.1),#196);
#273 = DRAUGHTING_PRE_DEFINED_CURVE_FONT('continuous');
#274 = STYLED_ITEM('color',(#275),#123);
#275 = PRESENTATION_STYLE_ASSIGNMENT((#276,#283));
#276 = SURFACE_STYLE_USAGE(.BOTH.,#277);
#277 = SURFACE_SIDE_STYLE('',(#278,#281));
#278 = SURFACE_STYLE_FILL_AREA(#279);
#279 = FILL_AREA_STYLE('',(#280));
#280 = FILL_AREA_STYLE_COLOUR('',#191);
#281 = SURFACE_STYLE_RENDERING_WITH_PROPERTIES(.NORMAL_SHADING.,#191,(
    #282));
#282 = SURFACE_STYLE_TRANSPARENT(0.749019622803);
#283 = CURVE_STYLE('',#284,POSITIVE_LENGTH_MEASURE(0.1),#196);
#284 = DRAUGHTING_PRE_DEFINED_CURVE_FONT('continuous');
#285 = STYLED_ITEM('color',(#286),#132);
#286 = PRESENTATION_STYLE_ASSIGNMENT((#287,#294));
#287 = SURFACE_STYLE_USAGE(.BOTH.,#288);
#288 = SURFACE_SIDE_STYLE('',(#289,#292));
#289 = SURFACE_STYLE_FILL_AREA(#290);
#290 = FILL_AREA_STYLE('',(#291));
#291 = FILL_AREA_STYLE_COLOUR('',#191);
#292 = SURFACE_STYLE_RENDERING_WITH_PROPERTIES(.NORMAL_SHADING.,#191,(
    #293));
#293 = SURFACE_STYLE_TRANSPARENT(0.749019622803);
#294 = CURVE_STYLE('',#295,POSITIVE_LENGTH_MEASURE(0.1),#196);
#295 = DRAUGHTING_PRE_DEFINED_CURVE_FONT('continuous');
#296 = STYLED_ITEM('color',(#297),#141);
#297 = PRESENTATION_STYLE_ASSIGNMENT((#298,#305));
#298 = SURFACE_STYLE_USAGE(.BOTH.,#299);
#299 = SURFACE_SIDE_STYLE('',(#300,#303));
#300 = SURFACE_STYLE_FILL_AREA(#301);
#301 = FILL_AREA_STYLE('',(#302));
#302 = FILL_AREA_STYLE_COLOUR('',#191);
#303 = SURFACE_STYLE_RENDERING_WITH_PROPERTIES(.NORMAL_SHADING.,#191,(
    #304));
#304 = SURFACE_STYLE_TRANSPARENT(0.749019622803);
#305 = CURVE_STYLE('',#306,POSITIVE_LENGTH_MEASURE(0.1),#196);
#306 = DRAUGHTING_PRE_DEFINED_CURVE_FONT('continuous');
#307 = STYLED_ITEM('color',(#308),#150);
#308 = PRESENTATION_STYLE_ASSIGNMENT((#309,#316));
#309 = SURFACE_STYLE_USAGE(.BOTH.,#310);
#310 = SURFACE_SIDE_STYLE('',(#311,#314));
#311 = SURFACE_STYLE_FILL_AREA(#312);
#312 = FILL_AREA_STYLE('',(#313));
#313 = FILL_AREA_STYLE_COLOUR('',#191);
#314 = SURFACE_STYLE_RENDERING_WITH_PROPERTIES(.NORMAL_SHADING.,#191,(
    #315));
#315 = SURFACE_STYLE_TRANSPARENT(0.749019622803);
#316 = CURVE_STYLE('',#317,POSITIVE_LENGTH_MEASURE(0.1),#196);
#317 = DRAUGHTING_PRE_DEFINED_CURVE_FONT('continuous');
#318 = STYLED_ITEM('color',(#319),#159);
#319 = PRESENTATION_STYLE_ASSIGNMENT((#320,#327));
#320 = SURFACE_STYLE_USAGE(.BOTH.,#321);
#321 = SURFACE_SIDE_STYLE('',(#322,#325));
#322 = SURFACE_STYLE_FILL_AREA(#323);
#323 = FILL_AREA_STYLE('',(#324));
#324 = FILL_AREA_STYLE_COLOUR('',#191);
#325 = SURFACE_STYLE_RENDERING_WITH_PROPERTIES(.NORMAL_SHADING.,#191,(
    #326));
#326 = SURFACE_STYLE_TRANSPARENT(0.749019622803);
#327 = CURVE_STYLE('',#328,POSITIVE_LENGTH_MEASURE(0.1),#196);
#328 = DRAUGHTING_PRE_DEFINED_CURVE_FONT('continuous');
#329 = STYLED_ITEM('color',(#330),#168);
#330 = PRESENTATION_STYLE_ASSIGNMENT((#331,#338));
#331 = SURFACE_STYLE_USAGE(.BOTH.,#332);
#332 = SURFACE_SIDE_STYLE('',(#333,#336));
#333 = SURFACE_STYLE_FILL_AREA(#334);
#334 = FILL_AREA_STYLE('',(#335));
#335 = FILL_AREA_STYLE_COLOUR('',#191);
#336 = SURFACE_STYLE_RENDERING_WITH_PROPERTIES(.NORMAL_SHADING.,#191,(
    #337));
#337 = SURFACE_STYLE_TRANSPARENT(0.749019622803);
#338 = CURVE_STYLE('',#339,POSITIVE_LENGTH_MEASURE(0.1),#196);
#339 = DRAUGHTING_PRE_DEFINED_CURVE_FONT('continuous');
ENDSEC;
END-ISO-10303-21;
