ISO-10303-21;
HEADER;
FILE_DESCRIPTION(('FreeCAD Model'),'2;1');
FILE_NAME('Open CASCADE Shape Model','2026-09-01T14:53:38',('Author'),(
    ''),'Open CASCADE STEP processor 7.8','FreeCAD','Unknown');
FILE_SCHEMA(('AUTOMOTIVE_DESIGN { 1 0 10303 214 1 1 1 1 }'));
ENDSEC;
DATA;
#1 = APPLICATION_PROTOCOL_DEFINITION('international standard',
  'automotive_design',2000,#2);
#2 = APPLICATION_CONTEXT(
  'core data for automotive mechanical design processes');
#3 = SHAPE_DEFINITION_REPRESENTATION(#4,#10);
#4 = PRODUCT_DEFINITION_SHAPE('','',#5);
#5 = PRODUCT_DEFINITION('design','',#6,#9);
#6 = PRODUCT_DEFINITION_FORMATION('','',#7);
#7 = PRODUCT('Pad005','Pad005','',(#8));
#8 = PRODUCT_CONTEXT('',#2,'mechanical');
#9 = PRODUCT_DEFINITION_CONTEXT('part definition',#2,'design');
#10 = ADVANCED_BREP_SHAPE_REPRESENTATION('',(#11,#15),#862);
#11 = AXIS2_PLACEMENT_3D('',#12,#13,#14);
#12 = CARTESIAN_POINT('',(0.,0.,0.));
#13 = DIRECTION('',(0.,0.,1.));
#14 = DIRECTION('',(1.,0.,-0.));
#15 = MANIFOLD_SOLID_BREP('',#16);
#16 = CLOSED_SHELL('',(#17,#57,#96,#129,#208,#232,#354,#402,#426,#450,
    #475,#499,#516,#541,#566,#581,#607,#668,#679,#751,#823,#835,#844,
    #853));
#17 = ADVANCED_FACE('',(#18),#52,.F.);
#18 = FACE_BOUND('',#19,.F.);
#19 = EDGE_LOOP('',(#20,#30,#38,#46));
#20 = ORIENTED_EDGE('',*,*,#21,.F.);
#21 = EDGE_CURVE('',#22,#24,#26,.T.);
#22 = VERTEX_POINT('',#23);
#23 = CARTESIAN_POINT('',(0.,0.,0.));
#24 = VERTEX_POINT('',#25);
#25 = CARTESIAN_POINT('',(0.,2.115261757587,1.054711873394E-14));
#26 = LINE('',#27,#28);
#27 = CARTESIAN_POINT('',(0.,0.,0.));
#28 = VECTOR('',#29,1.);
#29 = DIRECTION('',(0.,1.,0.));
#30 = ORIENTED_EDGE('',*,*,#31,.T.);
#31 = EDGE_CURVE('',#22,#32,#34,.T.);
#32 = VERTEX_POINT('',#33);
#33 = CARTESIAN_POINT('',(6.,0.,0.));
#34 = LINE('',#35,#36);
#35 = CARTESIAN_POINT('',(0.,0.,0.));
#36 = VECTOR('',#37,1.);
#37 = DIRECTION('',(1.,0.,0.));
#38 = ORIENTED_EDGE('',*,*,#39,.T.);
#39 = EDGE_CURVE('',#32,#40,#42,.T.);
#40 = VERTEX_POINT('',#41);
#41 = CARTESIAN_POINT('',(6.,2.115261757587,1.054711873394E-14));
#42 = LINE('',#43,#44);
#43 = CARTESIAN_POINT('',(6.,0.,0.));
#44 = VECTOR('',#45,1.);
#45 = DIRECTION('',(0.,1.,0.));
#46 = ORIENTED_EDGE('',*,*,#47,.F.);
#47 = EDGE_CURVE('',#24,#40,#48,.T.);
#48 = LINE('',#49,#50);
#49 = CARTESIAN_POINT('',(6.,2.115261757587,0.));
#50 = VECTOR('',#51,1.);
#51 = DIRECTION('',(1.,0.,0.));
#52 = PLANE('',#53);
#53 = AXIS2_PLACEMENT_3D('',#54,#55,#56);
#54 = CARTESIAN_POINT('',(0.,0.,0.));
#55 = DIRECTION('',(0.,0.,1.));
#56 = DIRECTION('',(1.,0.,0.));
#57 = ADVANCED_FACE('',(#58),#91,.T.);
#58 = FACE_BOUND('',#59,.T.);
#59 = EDGE_LOOP('',(#60,#61,#68));
#60 = ORIENTED_EDGE('',*,*,#21,.F.);
#61 = ORIENTED_EDGE('',*,*,#62,.T.);
#62 = EDGE_CURVE('',#22,#63,#65,.T.);
#63 = VERTEX_POINT('',#64);
#64 = CARTESIAN_POINT('',(-3.469995156726,0.242645698769,0.242645698769)
  );
#65 = B_SPLINE_CURVE_WITH_KNOTS('',1,(#66,#67),.UNSPECIFIED.,.F.,.F.,(2,
    2),(0.,1.),.PIECEWISE_BEZIER_KNOTS.);
#66 = CARTESIAN_POINT('',(0.,0.,0.));
#67 = CARTESIAN_POINT('',(-4.,0.279707247774,0.279707247774));
#68 = ORIENTED_EDGE('',*,*,#69,.F.);
#69 = EDGE_CURVE('',#24,#63,#70,.T.);
#70 = B_SPLINE_CURVE_WITH_KNOTS('',7,(#71,#72,#73,#74,#75,#76,#77,#78,
    #79,#80,#81,#82,#83,#84,#85,#86,#87,#88,#89,#90),.UNSPECIFIED.,.F.,
  .F.,(8,6,6,8),(0.,0.370901381857,0.71464253358,1.),.UNSPECIFIED.);
#71 = CARTESIAN_POINT('',(0.,2.115261757587,1.110223024625E-16));
#72 = CARTESIAN_POINT('',(-0.181556119531,1.997165943775,
    1.269564062766E-02));
#73 = CARTESIAN_POINT('',(-0.365408361347,1.883693709315,
    2.555184176652E-02));
#74 = CARTESIAN_POINT('',(-0.550582681131,1.773574975676,
    3.85004916028E-02));
#75 = CARTESIAN_POINT('',(-0.736556703784,1.666234752839,
    5.15050621112E-02));
#76 = CARTESIAN_POINT('',(-0.922929692998,1.56121300956,
    6.453753107938E-02));
#77 = CARTESIAN_POINT('',(-1.109445215482,1.458206538858,
    7.757996694467E-02));
#78 = CARTESIAN_POINT('',(-1.468747489375,1.263128583392,0.102704829482)
  );
#79 = CARTESIAN_POINT('',(-1.641500847464,1.170830124588,0.114784921066)
  );
#80 = CARTESIAN_POINT('',(-1.814004641121,1.079886369122,0.126847561404)
  );
#81 = CARTESIAN_POINT('',(-1.986100078805,0.990186356769,0.138881646712)
  );
#82 = CARTESIAN_POINT('',(-2.157634830502,0.901660096787,0.150876525035)
  );
#83 = CARTESIAN_POINT('',(-2.328455484756,0.81426382501,0.162821468801)
  );
#84 = CARTESIAN_POINT('',(-2.639492066667,0.656346540271,0.184571265372)
  );
#85 = CARTESIAN_POINT('',(-2.779975405446,0.585481806149,0.194394817384)
  );
#86 = CARTESIAN_POINT('',(-2.919766683988,0.515372204721,0.20416997583)
  );
#87 = CARTESIAN_POINT('',(-3.058769693314,0.446018764398,0.213890013123)
  );
#88 = CARTESIAN_POINT('',(-3.19688208463,0.377432615779,0.223547772337)
  );
#89 = CARTESIAN_POINT('',(-3.333995408951,0.309633070282,0.233135669982)
  );
#90 = CARTESIAN_POINT('',(-3.469995156726,0.242645698769,0.242645698769)
  );
#91 = B_SPLINE_SURFACE_WITH_KNOTS('',1,1,(
    (#92,#93)
    ,(#94,#95
    )),.UNSPECIFIED.,.F.,.F.,.F.,(2,2),(2,2),(-2.115261757587,0.),(0.,1.
    ),.PIECEWISE_BEZIER_KNOTS.);
#92 = CARTESIAN_POINT('',(0.,2.115261757587,0.));
#93 = CARTESIAN_POINT('',(-4.,1.611145118897,0.279707247774));
#94 = CARTESIAN_POINT('',(0.,0.,0.));
#95 = CARTESIAN_POINT('',(-4.,0.279707247774,0.279707247774));
#96 = ADVANCED_FACE('',(#97),#124,.T.);
#97 = FACE_BOUND('',#98,.T.);
#98 = EDGE_LOOP('',(#99,#109,#116,#117));
#99 = ORIENTED_EDGE('',*,*,#100,.T.);
#100 = EDGE_CURVE('',#101,#103,#105,.T.);
#101 = VERTEX_POINT('',#102);
#102 = CARTESIAN_POINT('',(0.,4.884738242413,-2.142730437527E-14));
#103 = VERTEX_POINT('',#104);
#104 = CARTESIAN_POINT('',(6.,4.884738242413,-2.142730437527E-14));
#105 = LINE('',#106,#107);
#106 = CARTESIAN_POINT('',(6.,4.884738242413,0.));
#107 = VECTOR('',#108,1.);
#108 = DIRECTION('',(1.,0.,0.));
#109 = ORIENTED_EDGE('',*,*,#110,.F.);
#110 = EDGE_CURVE('',#40,#103,#111,.T.);
#111 = CIRCLE('',#112,1.8);
#112 = AXIS2_PLACEMENT_3D('',#113,#114,#115);
#113 = CARTESIAN_POINT('',(6.,3.5,1.15));
#114 = DIRECTION('',(1.,0.,0.));
#115 = DIRECTION('',(0.,1.,0.));
#116 = ORIENTED_EDGE('',*,*,#47,.F.);
#117 = ORIENTED_EDGE('',*,*,#118,.T.);
#118 = EDGE_CURVE('',#24,#101,#119,.T.);
#119 = CIRCLE('',#120,1.8);
#120 = AXIS2_PLACEMENT_3D('',#121,#122,#123);
#121 = CARTESIAN_POINT('',(0.,3.5,1.15));
#122 = DIRECTION('',(1.,0.,0.));
#123 = DIRECTION('',(0.,1.,0.));
#124 = CYLINDRICAL_SURFACE('',#125,1.8);
#125 = AXIS2_PLACEMENT_3D('',#126,#127,#128);
#126 = CARTESIAN_POINT('',(6.,3.5,1.15));
#127 = DIRECTION('',(1.,0.,0.));
#128 = DIRECTION('',(0.,1.,0.));
#129 = ADVANCED_FACE('',(#130,#181,#192),#203,.T.);
#130 = FACE_BOUND('',#131,.T.);
#131 = EDGE_LOOP('',(#132,#142,#148,#149,#150,#158,#166,#174));
#132 = ORIENTED_EDGE('',*,*,#133,.F.);
#133 = EDGE_CURVE('',#134,#136,#138,.T.);
#134 = VERTEX_POINT('',#135);
#135 = CARTESIAN_POINT('',(6.,0.,2.4));
#136 = VERTEX_POINT('',#137);
#137 = CARTESIAN_POINT('',(6.,2.204816615301,2.4));
#138 = LINE('',#139,#140);
#139 = CARTESIAN_POINT('',(6.,0.,2.4));
#140 = VECTOR('',#141,1.);
#141 = DIRECTION('',(0.,1.,0.));
#142 = ORIENTED_EDGE('',*,*,#143,.F.);
#143 = EDGE_CURVE('',#32,#134,#144,.T.);
#144 = LINE('',#145,#146);
#145 = CARTESIAN_POINT('',(6.,0.,0.));
#146 = VECTOR('',#147,1.);
#147 = DIRECTION('',(0.,0.,1.));
#148 = ORIENTED_EDGE('',*,*,#39,.T.);
#149 = ORIENTED_EDGE('',*,*,#110,.T.);
#150 = ORIENTED_EDGE('',*,*,#151,.T.);
#151 = EDGE_CURVE('',#103,#152,#154,.T.);
#152 = VERTEX_POINT('',#153);
#153 = CARTESIAN_POINT('',(6.,7.,0.));
#154 = LINE('',#155,#156);
#155 = CARTESIAN_POINT('',(6.,0.,0.));
#156 = VECTOR('',#157,1.);
#157 = DIRECTION('',(0.,1.,0.));
#158 = ORIENTED_EDGE('',*,*,#159,.T.);
#159 = EDGE_CURVE('',#152,#160,#162,.T.);
#160 = VERTEX_POINT('',#161);
#161 = CARTESIAN_POINT('',(6.,7.,2.4));
#162 = LINE('',#163,#164);
#163 = CARTESIAN_POINT('',(6.,7.,0.));
#164 = VECTOR('',#165,1.);
#165 = DIRECTION('',(0.,0.,1.));
#166 = ORIENTED_EDGE('',*,*,#167,.F.);
#167 = EDGE_CURVE('',#168,#160,#170,.T.);
#168 = VERTEX_POINT('',#169);
#169 = CARTESIAN_POINT('',(6.,4.795183384699,2.4));
#170 = LINE('',#171,#172);
#171 = CARTESIAN_POINT('',(6.,0.,2.4));
#172 = VECTOR('',#173,1.);
#173 = DIRECTION('',(0.,1.,0.));
#174 = ORIENTED_EDGE('',*,*,#175,.T.);
#175 = EDGE_CURVE('',#168,#136,#176,.T.);
#176 = CIRCLE('',#177,1.8);
#177 = AXIS2_PLACEMENT_3D('',#178,#179,#180);
#178 = CARTESIAN_POINT('',(6.,3.5,1.15));
#179 = DIRECTION('',(1.,0.,0.));
#180 = DIRECTION('',(0.,1.,0.));
#181 = FACE_BOUND('',#182,.T.);
#182 = EDGE_LOOP('',(#183));
#183 = ORIENTED_EDGE('',*,*,#184,.F.);
#184 = EDGE_CURVE('',#185,#185,#187,.T.);
#185 = VERTEX_POINT('',#186);
#186 = CARTESIAN_POINT('',(6.,6.06,1.15));
#187 = CIRCLE('',#188,0.16);
#188 = AXIS2_PLACEMENT_3D('',#189,#190,#191);
#189 = CARTESIAN_POINT('',(6.,5.9,1.15));
#190 = DIRECTION('',(1.,0.,0.));
#191 = DIRECTION('',(0.,1.,0.));
#192 = FACE_BOUND('',#193,.T.);
#193 = EDGE_LOOP('',(#194));
#194 = ORIENTED_EDGE('',*,*,#195,.F.);
#195 = EDGE_CURVE('',#196,#196,#198,.T.);
#196 = VERTEX_POINT('',#197);
#197 = CARTESIAN_POINT('',(6.,1.26,1.15));
#198 = CIRCLE('',#199,0.16);
#199 = AXIS2_PLACEMENT_3D('',#200,#201,#202);
#200 = CARTESIAN_POINT('',(6.,1.1,1.15));
#201 = DIRECTION('',(1.,0.,0.));
#202 = DIRECTION('',(0.,1.,0.));
#203 = PLANE('',#204);
#204 = AXIS2_PLACEMENT_3D('',#205,#206,#207);
#205 = CARTESIAN_POINT('',(6.,3.5,1.181439131384));
#206 = DIRECTION('',(1.,0.,0.));
#207 = DIRECTION('',(0.,0.,1.));
#208 = ADVANCED_FACE('',(#209),#227,.F.);
#209 = FACE_BOUND('',#210,.F.);
#210 = EDGE_LOOP('',(#211,#212,#220,#226));
#211 = ORIENTED_EDGE('',*,*,#31,.F.);
#212 = ORIENTED_EDGE('',*,*,#213,.T.);
#213 = EDGE_CURVE('',#22,#214,#216,.T.);
#214 = VERTEX_POINT('',#215);
#215 = CARTESIAN_POINT('',(0.,0.,2.4));
#216 = LINE('',#217,#218);
#217 = CARTESIAN_POINT('',(0.,0.,0.));
#218 = VECTOR('',#219,1.);
#219 = DIRECTION('',(0.,0.,1.));
#220 = ORIENTED_EDGE('',*,*,#221,.T.);
#221 = EDGE_CURVE('',#214,#134,#222,.T.);
#222 = LINE('',#223,#224);
#223 = CARTESIAN_POINT('',(0.,0.,2.4));
#224 = VECTOR('',#225,1.);
#225 = DIRECTION('',(1.,0.,0.));
#226 = ORIENTED_EDGE('',*,*,#143,.F.);
#227 = PLANE('',#228);
#228 = AXIS2_PLACEMENT_3D('',#229,#230,#231);
#229 = CARTESIAN_POINT('',(0.,0.,0.));
#230 = DIRECTION('',(0.,1.,0.));
#231 = DIRECTION('',(0.,0.,1.));
#232 = ADVANCED_FACE('',(#233),#349,.T.);
#233 = FACE_BOUND('',#234,.T.);
#234 = EDGE_LOOP('',(#235,#236,#237,#254,#261,#270,#326));
#235 = ORIENTED_EDGE('',*,*,#118,.F.);
#236 = ORIENTED_EDGE('',*,*,#69,.T.);
#237 = ORIENTED_EDGE('',*,*,#238,.F.);
#238 = EDGE_CURVE('',#239,#63,#241,.T.);
#239 = VERTEX_POINT('',#240);
#240 = CARTESIAN_POINT('',(-3.234072252565,0.226148362217,1.15));
#241 = B_SPLINE_CURVE_WITH_KNOTS('',6,(#242,#243,#244,#245,#246,#247,
    #248,#249,#250,#251,#252,#253),.UNSPECIFIED.,.F.,.F.,(7,5,7),(0.,
    0.491156787336,1.),.UNSPECIFIED.);
#242 = CARTESIAN_POINT('',(-3.234072252565,0.226148362217,1.15));
#243 = CARTESIAN_POINT('',(-3.234072252565,0.226148362217,1.072221887188
    ));
#244 = CARTESIAN_POINT('',(-3.238290356405,0.226443320771,0.994442801445
    ));
#245 = CARTESIAN_POINT('',(-3.246727788039,0.227033323466,0.916994578042
    ));
#246 = CARTESIAN_POINT('',(-3.259246707401,0.227908731586,0.840161395525
    ));
#247 = CARTESIAN_POINT('',(-3.275611780693,0.229053088988,0.764180230788
    ));
#248 = CARTESIAN_POINT('',(-3.316169033425,0.231889128373,0.61160386707)
  );
#249 = CARTESIAN_POINT('',(-3.340624516085,0.23359922231,0.53507566542)
  );
#250 = CARTESIAN_POINT('',(-3.368584159749,0.235554351055,0.459840699817
    ));
#251 = CARTESIAN_POINT('',(-3.399688249355,0.237729360879,0.386002619116
    ));
#252 = CARTESIAN_POINT('',(-3.433593458688,0.240100244076,0.313605486284
    ));
#253 = CARTESIAN_POINT('',(-3.469995156726,0.242645698769,0.242645698769
    ));
#254 = ORIENTED_EDGE('',*,*,#255,.T.);
#255 = EDGE_CURVE('',#239,#256,#258,.T.);
#256 = VERTEX_POINT('',#257);
#257 = CARTESIAN_POINT('',(-3.5,0.104958105636,1.15));
#258 = B_SPLINE_CURVE_WITH_KNOTS('',1,(#259,#260),.UNSPECIFIED.,.F.,.F.,
  (2,2),(0.,1.),.PIECEWISE_BEZIER_KNOTS.);
#259 = CARTESIAN_POINT('',(0.,1.7,1.15));
#260 = CARTESIAN_POINT('',(-3.5,0.104958105636,1.15));
#261 = ORIENTED_EDGE('',*,*,#262,.F.);
#262 = EDGE_CURVE('',#263,#256,#265,.T.);
#263 = VERTEX_POINT('',#264);
#264 = CARTESIAN_POINT('',(-3.5,6.755256158198,2.114166380353));
#265 = CIRCLE('',#266,3.395041894364);
#266 = AXIS2_PLACEMENT_3D('',#267,#268,#269);
#267 = CARTESIAN_POINT('',(-3.5,3.5,1.15));
#268 = DIRECTION('',(-1.,0.,0.));
#269 = DIRECTION('',(0.,-1.,0.));
#270 = ORIENTED_EDGE('',*,*,#271,.F.);
#271 = EDGE_CURVE('',#272,#263,#274,.T.);
#272 = VERTEX_POINT('',#273);
#273 = CARTESIAN_POINT('',(-3.469995156726,6.757354301231,0.242645698769
    ));
#274 = B_SPLINE_CURVE_WITH_KNOTS('',8,(#275,#276,#277,#278,#279,#280,
    #281,#282,#283,#284,#285,#286,#287,#288,#289,#290,#291,#292,#293,
    #294,#295,#296,#297,#298,#299,#300,#301,#302,#303,#304,#305,#306,
    #307,#308,#309,#310,#311,#312,#313,#314,#315,#316,#317,#318,#319,
    #320,#321,#322,#323,#324,#325),.UNSPECIFIED.,.F.,.F.,(9,7,7,7,7,7,7,
    9),(0.,0.183283117876,0.484794909131,0.695281910751,0.800426799631,
    0.96748964516,0.983578339034,1.),.UNSPECIFIED.);
#275 = CARTESIAN_POINT('',(-3.469995156726,6.757354301231,0.242645698769
    ));
#276 = CARTESIAN_POINT('',(-3.449667500309,6.758775749438,0.282271492558
    ));
#277 = CARTESIAN_POINT('',(-3.430081383331,6.760145344157,0.322324076935
    ));
#278 = CARTESIAN_POINT('',(-3.411281564872,6.761459955527,0.362803870217
    ));
#279 = CARTESIAN_POINT('',(-3.393315615568,6.762716257085,0.403708304543
    ));
#280 = CARTESIAN_POINT('',(-3.376233026584,6.763910788073,0.445031442362
    ));
#281 = CARTESIAN_POINT('',(-3.360084318579,6.76504001574,0.486763592915)
  );
#282 = CARTESIAN_POINT('',(-3.344920150674,6.766100397658,0.528890928728
    ));
#283 = CARTESIAN_POINT('',(-3.307546185153,6.768713839916,0.641317032678
    ));
#284 = CARTESIAN_POINT('',(-3.287095572064,6.770143886092,0.712275784428
    ));
#285 = CARTESIAN_POINT('',(-3.269669676409,6.77136242342,0.784168095702)
  );
#286 = CARTESIAN_POINT('',(-3.25548492306,6.772354318,0.856863658879));
#287 = CARTESIAN_POINT('',(-3.244727018547,6.773106583966,0.93020404322)
  );
#288 = CARTESIAN_POINT('',(-3.237534894091,6.7736095063,1.004001617715)
  );
#289 = CARTESIAN_POINT('',(-3.233984648646,6.773857763646,1.078038473948
    ));
#290 = CARTESIAN_POINT('',(-3.234135513901,6.77384721412,1.203743908163)
  );
#291 = CARTESIAN_POINT('',(-3.235971066795,6.773718859758,1.255427077324
    ));
#292 = CARTESIAN_POINT('',(-3.239580785895,6.773466443609,1.307033499208
    ));
#293 = CARTESIAN_POINT('',(-3.244947163604,6.773091189924,1.358487417034
    ));
#294 = CARTESIAN_POINT('',(-3.252036795394,6.772595434575,1.409718729502
    ));
#295 = CARTESIAN_POINT('',(-3.260802625761,6.771982468004,1.460663045844
    ));
#296 = CARTESIAN_POINT('',(-3.271186194172,6.771256378168,1.51126174087)
  );
#297 = CARTESIAN_POINT('',(-3.289081133586,6.770005042105,1.586538626053
    ));
#298 = CARTESIAN_POINT('',(-3.295429519416,6.769561119723,1.611516727513
    ));
#299 = CARTESIAN_POINT('',(-3.302156624472,6.769090714713,1.636390329171
    ));
#300 = CARTESIAN_POINT('',(-3.30925378264,6.768594433068,1.661153996027)
  );
#301 = CARTESIAN_POINT('',(-3.316712075725,6.76807289841,1.685802843305)
  );
#302 = CARTESIAN_POINT('',(-3.324522333459,6.767526751986,1.710332536451
    ));
#303 = CARTESIAN_POINT('',(-3.332675133495,6.766956652671,1.734739291136
    ));
#304 = CARTESIAN_POINT('',(-3.354643528372,6.765420472854,1.797598858716
    ));
#305 = CARTESIAN_POINT('',(-3.368966783186,6.764418893308,1.83585904196)
  );
#306 = CARTESIAN_POINT('',(-3.384092542241,6.763361197199,1.873787799949
    ));
#307 = CARTESIAN_POINT('',(-3.399982486901,6.762250064027,1.911375537196
    ));
#308 = CARTESIAN_POINT('',(-3.416598547053,6.761088155914,1.948615445917
    ));
#309 = CARTESIAN_POINT('',(-3.433903444659,6.759878079593,1.985503266187
    ));
#310 = CARTESIAN_POINT('',(-3.451861237312,6.758622348403,2.022037046091
    ));
#311 = CARTESIAN_POINT('',(-3.472226850971,6.757198245967,2.061701139338
    ));
#312 = CARTESIAN_POINT('',(-3.474021578352,6.757072746403,2.065182092942
    ));
#313 = CARTESIAN_POINT('',(-3.475822013267,6.756946847729,2.068659762556
    ));
#314 = CARTESIAN_POINT('',(-3.47762812519,6.75682055208,2.072134148186)
  );
#315 = CARTESIAN_POINT('',(-3.479439883728,6.756693861582,2.075605249987
    ));
#316 = CARTESIAN_POINT('',(-3.481257258622,6.756566778349,2.079073068262
    ));
#317 = CARTESIAN_POINT('',(-3.483080219745,6.75643930449,2.082537603457)
  );
#318 = CARTESIAN_POINT('',(-3.486775096943,6.756180933507,2.089531741993
    ));
#319 = CARTESIAN_POINT('',(-3.488647123438,6.756050028662,2.093060983725
    ));
#320 = CARTESIAN_POINT('',(-3.490525640879,6.755918669926,2.096588157533
    ));
#321 = CARTESIAN_POINT('',(-3.49240789234,6.755787050082,2.100108248672)
  );
#322 = CARTESIAN_POINT('',(-3.494299012963,6.755654810046,2.103630767652
    ));
#323 = CARTESIAN_POINT('',(-3.496192599582,6.755522397571,2.107143987782
    ));
#324 = CARTESIAN_POINT('',(-3.498093782679,6.755389453898,2.11065741118)
  );
#325 = CARTESIAN_POINT('',(-3.5,6.755256158198,2.114166380353));
#326 = ORIENTED_EDGE('',*,*,#327,.F.);
#327 = EDGE_CURVE('',#101,#272,#328,.T.);
#328 = B_SPLINE_CURVE_WITH_KNOTS('',7,(#329,#330,#331,#332,#333,#334,
    #335,#336,#337,#338,#339,#340,#341,#342,#343,#344,#345,#346,#347,
    #348),.UNSPECIFIED.,.F.,.F.,(8,6,6,8),(0.,0.370901381858,
    0.71464253358,1.),.UNSPECIFIED.);
#329 = CARTESIAN_POINT('',(0.,4.884738242413,1.110223024625E-16));
#330 = CARTESIAN_POINT('',(-0.181556119532,5.002834056226,
    1.269564062768E-02));
#331 = CARTESIAN_POINT('',(-0.365408361346,5.116306290684,
    2.555184176644E-02));
#332 = CARTESIAN_POINT('',(-0.550582681133,5.226425024325,
    3.850049160294E-02));
#333 = CARTESIAN_POINT('',(-0.736556703781,5.33376524716,
    5.150506211105E-02));
#334 = CARTESIAN_POINT('',(-0.922929693,5.438786990441,
    6.453753107946E-02));
#335 = CARTESIAN_POINT('',(-1.109445215482,5.541793461142,
    7.757996694464E-02));
#336 = CARTESIAN_POINT('',(-1.468747489375,5.736871416608,0.102704829482
    ));
#337 = CARTESIAN_POINT('',(-1.641500847464,5.829169875412,0.114784921066
    ));
#338 = CARTESIAN_POINT('',(-1.814004641121,5.920113630878,0.126847561404
    ));
#339 = CARTESIAN_POINT('',(-1.986100078805,6.009813643231,0.138881646712
    ));
#340 = CARTESIAN_POINT('',(-2.157634830502,6.098339903213,0.150876525035
    ));
#341 = CARTESIAN_POINT('',(-2.328455484756,6.185736174989,0.162821468801
    ));
#342 = CARTESIAN_POINT('',(-2.639492066667,6.343653459729,0.184571265372
    ));
#343 = CARTESIAN_POINT('',(-2.779975405446,6.414518193851,0.194394817384
    ));
#344 = CARTESIAN_POINT('',(-2.919766683988,6.484627795279,0.20416997583)
  );
#345 = CARTESIAN_POINT('',(-3.058769693314,6.553981235602,0.213890013123
    ));
#346 = CARTESIAN_POINT('',(-3.19688208463,6.622567384221,0.223547772337)
  );
#347 = CARTESIAN_POINT('',(-3.333995408951,6.690366929718,0.233135669982
    ));
#348 = CARTESIAN_POINT('',(-3.469995156726,6.757354301231,0.242645698769
    ));
#349 = CONICAL_SURFACE('',#350,1.8,0.427605666739);
#350 = AXIS2_PLACEMENT_3D('',#351,#352,#353);
#351 = CARTESIAN_POINT('',(0.,3.5,1.15));
#352 = DIRECTION('',(-1.,0.,0.));
#353 = DIRECTION('',(0.,-1.,0.));
#354 = ADVANCED_FACE('',(#355),#397,.T.);
#355 = FACE_BOUND('',#356,.T.);
#356 = EDGE_LOOP('',(#357,#358,#359,#366,#376,#396));
#357 = ORIENTED_EDGE('',*,*,#62,.F.);
#358 = ORIENTED_EDGE('',*,*,#213,.T.);
#359 = ORIENTED_EDGE('',*,*,#360,.T.);
#360 = EDGE_CURVE('',#214,#361,#363,.T.);
#361 = VERTEX_POINT('',#362);
#362 = CARTESIAN_POINT('',(-3.636115775844,0.254261984062,2.145738015938
    ));
#363 = B_SPLINE_CURVE_WITH_KNOTS('',1,(#364,#365),.UNSPECIFIED.,.F.,.F.,
  (2,2),(0.,1.),.PIECEWISE_BEZIER_KNOTS.);
#364 = CARTESIAN_POINT('',(0.,0.,2.4));
#365 = CARTESIAN_POINT('',(-4.,0.279707247774,2.120292752226));
#366 = ORIENTED_EDGE('',*,*,#367,.T.);
#367 = EDGE_CURVE('',#361,#368,#370,.T.);
#368 = VERTEX_POINT('',#369);
#369 = CARTESIAN_POINT('',(-3.5,0.244743841802,2.114166380353));
#370 = B_SPLINE_CURVE_WITH_KNOTS('',4,(#371,#372,#373,#374,#375),
  .UNSPECIFIED.,.F.,.F.,(5,5),(0.,1.),.PIECEWISE_BEZIER_KNOTS.);
#371 = CARTESIAN_POINT('',(-3.636115775844,0.254261984062,2.145738015938
    ));
#372 = CARTESIAN_POINT('',(-3.602051328446,0.251879965855,2.137973516716
    ));
#373 = CARTESIAN_POINT('',(-3.568000799194,0.2494989209,2.130123862602)
  );
#374 = CARTESIAN_POINT('',(-3.533965592182,0.247118947379,2.122185417066
    ));
#375 = CARTESIAN_POINT('',(-3.499947343599,0.244740159708,2.114153948636
    ));
#376 = ORIENTED_EDGE('',*,*,#377,.T.);
#377 = EDGE_CURVE('',#368,#239,#378,.T.);
#378 = B_SPLINE_CURVE_WITH_KNOTS('',6,(#379,#380,#381,#382,#383,#384,
    #385,#386,#387,#388,#389,#390,#391,#392,#393,#394,#395),
  .UNSPECIFIED.,.F.,.F.,(7,5,5,7),(0.,1.355325658162E-02,0.512127334152,
    1.),.UNSPECIFIED.);
#379 = CARTESIAN_POINT('',(-3.5,0.244743841802,2.114166380353));
#380 = CARTESIAN_POINT('',(-3.498917096417,0.244668117807,2.112172968892
    ));
#381 = CARTESIAN_POINT('',(-3.497836002576,0.244592520361,2.110178239173
    ));
#382 = CARTESIAN_POINT('',(-3.49675683728,0.244517057773,2.108182397152)
  );
#383 = CARTESIAN_POINT('',(-3.495679651182,0.244441733583,2.10618552333)
  );
#384 = CARTESIAN_POINT('',(-3.494604426784,0.244366546569,2.104187572751
    ));
#385 = CARTESIAN_POINT('',(-3.454046570849,0.241530465004,2.02864529947)
  );
#386 = CARTESIAN_POINT('',(-3.417167070589,0.238951599125,1.953536559269
    ));
#387 = CARTESIAN_POINT('',(-3.383228800079,0.236578404065,1.876845337216
    ));
#388 = CARTESIAN_POINT('',(-3.352617942057,0.234437884353,1.798607856191
    ));
#389 = CARTESIAN_POINT('',(-3.325747397431,0.232558912832,1.718927100501
    ));
#390 = CARTESIAN_POINT('',(-3.280708020882,0.229409452818,1.558807562476
    ));
#391 = CARTESIAN_POINT('',(-3.262361474427,0.228126537314,1.478410654957
    ));
#392 = CARTESIAN_POINT('',(-3.248299184117,0.227143206184,1.397024847079
    ));
#393 = CARTESIAN_POINT('',(-3.238812503231,0.226479832834,1.314926359104
    ));
#394 = CARTESIAN_POINT('',(-3.234072252565,0.226148362217,1.232451950348
    ));
#395 = CARTESIAN_POINT('',(-3.234072252565,0.226148362217,1.15));
#396 = ORIENTED_EDGE('',*,*,#238,.T.);
#397 = B_SPLINE_SURFACE_WITH_KNOTS('',1,1,(
    (#398,#399)
    ,(#400,#401
  )),.UNSPECIFIED.,.F.,.F.,.F.,(2,2),(2,2),(0.,2.4),(0.,1.),
  .PIECEWISE_BEZIER_KNOTS.);
#398 = CARTESIAN_POINT('',(0.,0.,0.));
#399 = CARTESIAN_POINT('',(-4.,0.279707247774,0.279707247774));
#400 = CARTESIAN_POINT('',(0.,0.,2.4));
#401 = CARTESIAN_POINT('',(-4.,0.279707247774,2.120292752226));
#402 = ADVANCED_FACE('',(#403),#421,.F.);
#403 = FACE_BOUND('',#404,.F.);
#404 = EDGE_LOOP('',(#405,#413,#414,#415));
#405 = ORIENTED_EDGE('',*,*,#406,.F.);
#406 = EDGE_CURVE('',#101,#407,#409,.T.);
#407 = VERTEX_POINT('',#408);
#408 = CARTESIAN_POINT('',(0.,7.,0.));
#409 = LINE('',#410,#411);
#410 = CARTESIAN_POINT('',(0.,0.,0.));
#411 = VECTOR('',#412,1.);
#412 = DIRECTION('',(0.,1.,0.));
#413 = ORIENTED_EDGE('',*,*,#100,.T.);
#414 = ORIENTED_EDGE('',*,*,#151,.T.);
#415 = ORIENTED_EDGE('',*,*,#416,.F.);
#416 = EDGE_CURVE('',#407,#152,#417,.T.);
#417 = LINE('',#418,#419);
#418 = CARTESIAN_POINT('',(0.,7.,0.));
#419 = VECTOR('',#420,1.);
#420 = DIRECTION('',(1.,0.,0.));
#421 = PLANE('',#422);
#422 = AXIS2_PLACEMENT_3D('',#423,#424,#425);
#423 = CARTESIAN_POINT('',(0.,0.,0.));
#424 = DIRECTION('',(0.,0.,1.));
#425 = DIRECTION('',(1.,0.,0.));
#426 = ADVANCED_FACE('',(#427),#445,.T.);
#427 = FACE_BOUND('',#428,.T.);
#428 = EDGE_LOOP('',(#429,#437,#438,#439));
#429 = ORIENTED_EDGE('',*,*,#430,.F.);
#430 = EDGE_CURVE('',#214,#431,#433,.T.);
#431 = VERTEX_POINT('',#432);
#432 = CARTESIAN_POINT('',(0.,2.204816615301,2.4));
#433 = LINE('',#434,#435);
#434 = CARTESIAN_POINT('',(0.,0.,2.4));
#435 = VECTOR('',#436,1.);
#436 = DIRECTION('',(0.,1.,0.));
#437 = ORIENTED_EDGE('',*,*,#221,.T.);
#438 = ORIENTED_EDGE('',*,*,#133,.T.);
#439 = ORIENTED_EDGE('',*,*,#440,.F.);
#440 = EDGE_CURVE('',#431,#136,#441,.T.);
#441 = LINE('',#442,#443);
#442 = CARTESIAN_POINT('',(6.,2.204816615301,2.4));
#443 = VECTOR('',#444,1.);
#444 = DIRECTION('',(1.,0.,0.));
#445 = PLANE('',#446);
#446 = AXIS2_PLACEMENT_3D('',#447,#448,#449);
#447 = CARTESIAN_POINT('',(0.,0.,2.4));
#448 = DIRECTION('',(0.,0.,1.));
#449 = DIRECTION('',(1.,0.,0.));
#450 = ADVANCED_FACE('',(#451),#470,.T.);
#451 = FACE_BOUND('',#452,.T.);
#452 = EDGE_LOOP('',(#453,#454,#462,#469));
#453 = ORIENTED_EDGE('',*,*,#175,.F.);
#454 = ORIENTED_EDGE('',*,*,#455,.F.);
#455 = EDGE_CURVE('',#456,#168,#458,.T.);
#456 = VERTEX_POINT('',#457);
#457 = CARTESIAN_POINT('',(0.,4.795183384699,2.4));
#458 = LINE('',#459,#460);
#459 = CARTESIAN_POINT('',(6.,4.795183384699,2.4));
#460 = VECTOR('',#461,1.);
#461 = DIRECTION('',(1.,0.,0.));
#462 = ORIENTED_EDGE('',*,*,#463,.T.);
#463 = EDGE_CURVE('',#456,#431,#464,.T.);
#464 = CIRCLE('',#465,1.8);
#465 = AXIS2_PLACEMENT_3D('',#466,#467,#468);
#466 = CARTESIAN_POINT('',(0.,3.5,1.15));
#467 = DIRECTION('',(1.,0.,0.));
#468 = DIRECTION('',(0.,1.,0.));
#469 = ORIENTED_EDGE('',*,*,#440,.T.);
#470 = CYLINDRICAL_SURFACE('',#471,1.8);
#471 = AXIS2_PLACEMENT_3D('',#472,#473,#474);
#472 = CARTESIAN_POINT('',(6.,3.5,1.15));
#473 = DIRECTION('',(1.,0.,0.));
#474 = DIRECTION('',(0.,1.,0.));
#475 = ADVANCED_FACE('',(#476),#494,.T.);
#476 = FACE_BOUND('',#477,.T.);
#477 = EDGE_LOOP('',(#478,#486,#487,#488));
#478 = ORIENTED_EDGE('',*,*,#479,.F.);
#479 = EDGE_CURVE('',#456,#480,#482,.T.);
#480 = VERTEX_POINT('',#481);
#481 = CARTESIAN_POINT('',(0.,7.,2.4));
#482 = LINE('',#483,#484);
#483 = CARTESIAN_POINT('',(0.,0.,2.4));
#484 = VECTOR('',#485,1.);
#485 = DIRECTION('',(0.,1.,0.));
#486 = ORIENTED_EDGE('',*,*,#455,.T.);
#487 = ORIENTED_EDGE('',*,*,#167,.T.);
#488 = ORIENTED_EDGE('',*,*,#489,.F.);
#489 = EDGE_CURVE('',#480,#160,#490,.T.);
#490 = LINE('',#491,#492);
#491 = CARTESIAN_POINT('',(0.,7.,2.4));
#492 = VECTOR('',#493,1.);
#493 = DIRECTION('',(1.,0.,0.));
#494 = PLANE('',#495);
#495 = AXIS2_PLACEMENT_3D('',#496,#497,#498);
#496 = CARTESIAN_POINT('',(0.,0.,2.4));
#497 = DIRECTION('',(0.,0.,1.));
#498 = DIRECTION('',(1.,0.,0.));
#499 = ADVANCED_FACE('',(#500),#511,.T.);
#500 = FACE_BOUND('',#501,.T.);
#501 = EDGE_LOOP('',(#502,#503,#509,#510));
#502 = ORIENTED_EDGE('',*,*,#416,.F.);
#503 = ORIENTED_EDGE('',*,*,#504,.T.);
#504 = EDGE_CURVE('',#407,#480,#505,.T.);
#505 = LINE('',#506,#507);
#506 = CARTESIAN_POINT('',(0.,7.,0.));
#507 = VECTOR('',#508,1.);
#508 = DIRECTION('',(0.,0.,1.));
#509 = ORIENTED_EDGE('',*,*,#489,.T.);
#510 = ORIENTED_EDGE('',*,*,#159,.F.);
#511 = PLANE('',#512);
#512 = AXIS2_PLACEMENT_3D('',#513,#514,#515);
#513 = CARTESIAN_POINT('',(0.,7.,0.));
#514 = DIRECTION('',(0.,1.,0.));
#515 = DIRECTION('',(0.,0.,1.));
#516 = ADVANCED_FACE('',(#517),#536,.T.);
#517 = FACE_BOUND('',#518,.F.);
#518 = EDGE_LOOP('',(#519,#527,#534,#535));
#519 = ORIENTED_EDGE('',*,*,#520,.T.);
#520 = EDGE_CURVE('',#185,#521,#523,.T.);
#521 = VERTEX_POINT('',#522);
#522 = CARTESIAN_POINT('',(16.,6.06,1.15));
#523 = LINE('',#524,#525);
#524 = CARTESIAN_POINT('',(6.,6.06,1.15));
#525 = VECTOR('',#526,1.);
#526 = DIRECTION('',(1.,0.,0.));
#527 = ORIENTED_EDGE('',*,*,#528,.T.);
#528 = EDGE_CURVE('',#521,#521,#529,.T.);
#529 = CIRCLE('',#530,0.16);
#530 = AXIS2_PLACEMENT_3D('',#531,#532,#533);
#531 = CARTESIAN_POINT('',(16.,5.9,1.15));
#532 = DIRECTION('',(1.,0.,0.));
#533 = DIRECTION('',(0.,1.,0.));
#534 = ORIENTED_EDGE('',*,*,#520,.F.);
#535 = ORIENTED_EDGE('',*,*,#184,.F.);
#536 = CYLINDRICAL_SURFACE('',#537,0.16);
#537 = AXIS2_PLACEMENT_3D('',#538,#539,#540);
#538 = CARTESIAN_POINT('',(6.,5.9,1.15));
#539 = DIRECTION('',(-1.,-0.,-0.));
#540 = DIRECTION('',(0.,1.,0.));
#541 = ADVANCED_FACE('',(#542),#561,.T.);
#542 = FACE_BOUND('',#543,.F.);
#543 = EDGE_LOOP('',(#544,#552,#559,#560));
#544 = ORIENTED_EDGE('',*,*,#545,.T.);
#545 = EDGE_CURVE('',#196,#546,#548,.T.);
#546 = VERTEX_POINT('',#547);
#547 = CARTESIAN_POINT('',(16.,1.26,1.15));
#548 = LINE('',#549,#550);
#549 = CARTESIAN_POINT('',(6.,1.26,1.15));
#550 = VECTOR('',#551,1.);
#551 = DIRECTION('',(1.,0.,0.));
#552 = ORIENTED_EDGE('',*,*,#553,.T.);
#553 = EDGE_CURVE('',#546,#546,#554,.T.);
#554 = CIRCLE('',#555,0.16);
#555 = AXIS2_PLACEMENT_3D('',#556,#557,#558);
#556 = CARTESIAN_POINT('',(16.,1.1,1.15));
#557 = DIRECTION('',(1.,0.,0.));
#558 = DIRECTION('',(0.,1.,0.));
#559 = ORIENTED_EDGE('',*,*,#545,.F.);
#560 = ORIENTED_EDGE('',*,*,#195,.F.);
#561 = CYLINDRICAL_SURFACE('',#562,0.16);
#562 = AXIS2_PLACEMENT_3D('',#563,#564,#565);
#563 = CARTESIAN_POINT('',(6.,1.1,1.15));
#564 = DIRECTION('',(-1.,-0.,-0.));
#565 = DIRECTION('',(0.,1.,0.));
#566 = ADVANCED_FACE('',(#567),#576,.T.);
#567 = FACE_BOUND('',#568,.T.);
#568 = EDGE_LOOP('',(#569,#570,#571));
#569 = ORIENTED_EDGE('',*,*,#406,.F.);
#570 = ORIENTED_EDGE('',*,*,#327,.T.);
#571 = ORIENTED_EDGE('',*,*,#572,.F.);
#572 = EDGE_CURVE('',#407,#272,#573,.T.);
#573 = B_SPLINE_CURVE_WITH_KNOTS('',1,(#574,#575),.UNSPECIFIED.,.F.,.F.,
  (2,2),(0.,1.),.PIECEWISE_BEZIER_KNOTS.);
#574 = CARTESIAN_POINT('',(0.,7.,0.));
#575 = CARTESIAN_POINT('',(-4.,6.720292752226,0.279707247774));
#576 = B_SPLINE_SURFACE_WITH_KNOTS('',1,1,(
    (#577,#578)
    ,(#579,#580
    )),.UNSPECIFIED.,.F.,.F.,.F.,(2,2),(2,2),(-7.,-4.884738242413),(0.,
    1.),.PIECEWISE_BEZIER_KNOTS.);
#577 = CARTESIAN_POINT('',(0.,7.,0.));
#578 = CARTESIAN_POINT('',(-4.,6.720292752226,0.279707247774));
#579 = CARTESIAN_POINT('',(0.,4.884738242413,0.));
#580 = CARTESIAN_POINT('',(-4.,5.388854881103,0.279707247774));
#581 = ADVANCED_FACE('',(#582),#602,.T.);
#582 = FACE_BOUND('',#583,.T.);
#583 = EDGE_LOOP('',(#584,#585,#586,#587,#597));
#584 = ORIENTED_EDGE('',*,*,#504,.F.);
#585 = ORIENTED_EDGE('',*,*,#572,.T.);
#586 = ORIENTED_EDGE('',*,*,#271,.T.);
#587 = ORIENTED_EDGE('',*,*,#588,.T.);
#588 = EDGE_CURVE('',#263,#589,#591,.T.);
#589 = VERTEX_POINT('',#590);
#590 = CARTESIAN_POINT('',(-3.636115775844,6.745738015938,2.145738015938
    ));
#591 = B_SPLINE_CURVE_WITH_KNOTS('',4,(#592,#593,#594,#595,#596),
  .UNSPECIFIED.,.F.,.F.,(5,5),(0.,1.),.PIECEWISE_BEZIER_KNOTS.);
#592 = CARTESIAN_POINT('',(-3.499947163159,6.75525985291,2.114153906035)
  );
#593 = CARTESIAN_POINT('',(-3.533965457201,6.752881062059,2.122185385615
    ));
#594 = CARTESIAN_POINT('',(-3.568000706035,6.750501085615,2.130123841091
    ));
#595 = CARTESIAN_POINT('',(-3.602051282915,6.748120037329,2.137973506338
    ));
#596 = CARTESIAN_POINT('',(-3.636115775844,6.745738015938,2.145738015938
    ));
#597 = ORIENTED_EDGE('',*,*,#598,.F.);
#598 = EDGE_CURVE('',#480,#589,#599,.T.);
#599 = B_SPLINE_CURVE_WITH_KNOTS('',1,(#600,#601),.UNSPECIFIED.,.F.,.F.,
  (2,2),(0.,1.),.PIECEWISE_BEZIER_KNOTS.);
#600 = CARTESIAN_POINT('',(0.,7.,2.4));
#601 = CARTESIAN_POINT('',(-4.,6.720292752226,2.120292752226));
#602 = B_SPLINE_SURFACE_WITH_KNOTS('',1,1,(
    (#603,#604)
    ,(#605,#606
    )),.UNSPECIFIED.,.F.,.F.,.F.,(2,2),(2,2),(-2.4,0.),(0.,1.),
  .PIECEWISE_BEZIER_KNOTS.);
#603 = CARTESIAN_POINT('',(0.,7.,2.4));
#604 = CARTESIAN_POINT('',(-4.,6.720292752226,2.120292752226));
#605 = CARTESIAN_POINT('',(0.,7.,0.));
#606 = CARTESIAN_POINT('',(-4.,6.720292752226,0.279707247774));
#607 = ADVANCED_FACE('',(#608),#663,.T.);
#608 = FACE_BOUND('',#609,.F.);
#609 = EDGE_LOOP('',(#610,#618,#619,#620,#630,#639,#647,#648,#655,#656)
  );
#610 = ORIENTED_EDGE('',*,*,#611,.F.);
#611 = EDGE_CURVE('',#256,#612,#614,.T.);
#612 = VERTEX_POINT('',#613);
#613 = CARTESIAN_POINT('',(-18.24,0.104958105636,1.15));
#614 = LINE('',#615,#616);
#615 = CARTESIAN_POINT('',(-3.5,0.104958105636,1.15));
#616 = VECTOR('',#617,1.);
#617 = DIRECTION('',(-1.,-0.,-0.));
#618 = ORIENTED_EDGE('',*,*,#262,.F.);
#619 = ORIENTED_EDGE('',*,*,#588,.T.);
#620 = ORIENTED_EDGE('',*,*,#621,.F.);
#621 = EDGE_CURVE('',#622,#589,#624,.T.);
#622 = VERTEX_POINT('',#623);
#623 = CARTESIAN_POINT('',(-3.5,6.742802726176,2.155256158198));
#624 = B_SPLINE_CURVE_WITH_KNOTS('',4,(#625,#626,#627,#628,#629),
  .UNSPECIFIED.,.F.,.F.,(5,5),(0.,1.),.PIECEWISE_BEZIER_KNOTS.);
#625 = CARTESIAN_POINT('',(-3.499947163159,6.742801580827,2.15525985291)
  );
#626 = CARTESIAN_POINT('',(-3.533994572369,6.743539630787,2.152879026129
    ));
#627 = CARTESIAN_POINT('',(-3.568038585531,6.74427505253,2.150498436822)
  );
#628 = CARTESIAN_POINT('',(-3.602079044012,6.745007847246,2.148118096084
    ));
#629 = CARTESIAN_POINT('',(-3.636115775844,6.745738015938,2.145738015938
    ));
#630 = ORIENTED_EDGE('',*,*,#631,.F.);
#631 = EDGE_CURVE('',#632,#622,#634,.T.);
#632 = VERTEX_POINT('',#633);
#633 = CARTESIAN_POINT('',(-3.5,0.257197273824,2.155256158198));
#634 = CIRCLE('',#635,3.395041894364);
#635 = AXIS2_PLACEMENT_3D('',#636,#637,#638);
#636 = CARTESIAN_POINT('',(-3.5,3.5,1.15));
#637 = DIRECTION('',(-1.,0.,0.));
#638 = DIRECTION('',(0.,-1.,0.));
#639 = ORIENTED_EDGE('',*,*,#640,.T.);
#640 = EDGE_CURVE('',#632,#361,#641,.T.);
#641 = B_SPLINE_CURVE_WITH_KNOTS('',4,(#642,#643,#644,#645,#646),
  .UNSPECIFIED.,.F.,.F.,(5,5),(0.,1.),.PIECEWISE_BEZIER_KNOTS.);
#642 = CARTESIAN_POINT('',(-3.499947343599,0.257198415261,2.155259840292
    ));
#643 = CARTESIAN_POINT('',(-3.533994707686,0.25646036629,2.152879016666)
  );
#644 = CARTESIAN_POINT('',(-3.568038675734,0.255724945528,2.150498430515
    ));
#645 = CARTESIAN_POINT('',(-3.602079089108,0.254992151787,2.14811809293)
  );
#646 = CARTESIAN_POINT('',(-3.636115775844,0.254261984062,2.145738015938
    ));
#647 = ORIENTED_EDGE('',*,*,#367,.T.);
#648 = ORIENTED_EDGE('',*,*,#649,.F.);
#649 = EDGE_CURVE('',#256,#368,#650,.T.);
#650 = CIRCLE('',#651,3.395041894364);
#651 = AXIS2_PLACEMENT_3D('',#652,#653,#654);
#652 = CARTESIAN_POINT('',(-3.5,3.5,1.15));
#653 = DIRECTION('',(-1.,0.,0.));
#654 = DIRECTION('',(0.,-1.,0.));
#655 = ORIENTED_EDGE('',*,*,#611,.T.);
#656 = ORIENTED_EDGE('',*,*,#657,.T.);
#657 = EDGE_CURVE('',#612,#612,#658,.T.);
#658 = CIRCLE('',#659,3.395041894364);
#659 = AXIS2_PLACEMENT_3D('',#660,#661,#662);
#660 = CARTESIAN_POINT('',(-18.24,3.5,1.15));
#661 = DIRECTION('',(-1.,0.,0.));
#662 = DIRECTION('',(0.,-1.,0.));
#663 = CYLINDRICAL_SURFACE('',#664,3.395041894364);
#664 = AXIS2_PLACEMENT_3D('',#665,#666,#667);
#665 = CARTESIAN_POINT('',(-3.5,3.5,1.15));
#666 = DIRECTION('',(1.,0.,0.));
#667 = DIRECTION('',(0.,-1.,0.));
#668 = ADVANCED_FACE('',(#669),#674,.T.);
#669 = FACE_BOUND('',#670,.T.);
#670 = EDGE_LOOP('',(#671,#672,#673));
#671 = ORIENTED_EDGE('',*,*,#649,.F.);
#672 = ORIENTED_EDGE('',*,*,#255,.F.);
#673 = ORIENTED_EDGE('',*,*,#377,.F.);
#674 = CONICAL_SURFACE('',#675,1.8,0.427605666739);
#675 = AXIS2_PLACEMENT_3D('',#676,#677,#678);
#676 = CARTESIAN_POINT('',(0.,3.5,1.15));
#677 = DIRECTION('',(-1.,0.,0.));
#678 = DIRECTION('',(0.,-1.,0.));
#679 = ADVANCED_FACE('',(#680),#746,.T.);
#680 = FACE_BOUND('',#681,.T.);
#681 = EDGE_LOOP('',(#682,#683,#684,#745));
#682 = ORIENTED_EDGE('',*,*,#360,.F.);
#683 = ORIENTED_EDGE('',*,*,#430,.T.);
#684 = ORIENTED_EDGE('',*,*,#685,.T.);
#685 = EDGE_CURVE('',#431,#632,#686,.T.);
#686 = B_SPLINE_CURVE_WITH_KNOTS('',8,(#687,#688,#689,#690,#691,#692,
    #693,#694,#695,#696,#697,#698,#699,#700,#701,#702,#703,#704,#705,
    #706,#707,#708,#709,#710,#711,#712,#713,#714,#715,#716,#717,#718,
    #719,#720,#721,#722,#723,#724,#725,#726,#727,#728,#729,#730,#731,
    #732,#733,#734,#735,#736,#737,#738,#739,#740,#741,#742,#743,#744),
  .UNSPECIFIED.,.F.,.F.,(9,7,7,7,7,7,7,7,9),(0.,0.405979778478,
    0.728469739506,0.86988256587,0.936001761771,0.96800122084,
    0.983746935795,0.991578240622,1.),.UNSPECIFIED.);
#687 = CARTESIAN_POINT('',(0.,2.204816615301,2.4));
#688 = CARTESIAN_POINT('',(-0.173032832382,2.083548358333,2.38790036567)
  );
#689 = CARTESIAN_POINT('',(-0.349143682241,1.967740918045,2.375585495391
    ));
#690 = CARTESIAN_POINT('',(-0.527122997435,1.855869060159,2.363139969287
    ));
#691 = CARTESIAN_POINT('',(-0.706316472323,1.747232916241,2.350609540867
    ));
#692 = CARTESIAN_POINT('',(-0.886221714116,1.641277290572,2.338029340857
    ));
#693 = CARTESIAN_POINT('',(-1.06651861146,1.537643225426,2.325421753622)
  );
#694 = CARTESIAN_POINT('',(-1.246977535431,1.436021500687,2.312802836382
    ));
#695 = CARTESIAN_POINT('',(-1.570832440185,1.256840139719,2.29015669536)
  );
#696 = CARTESIAN_POINT('',(-1.714168934888,1.17865694362,2.280133631251)
  );
#697 = CARTESIAN_POINT('',(-1.857365995547,1.101507570959,2.270120317319
    ));
#698 = CARTESIAN_POINT('',(-2.000326526591,1.025316916704,2.260123543149
    ));
#699 = CARTESIAN_POINT('',(-2.142958529813,0.95003163888,2.250149741883)
  );
#700 = CARTESIAN_POINT('',(-2.28517180822,0.87561393813,2.240205220708)
  );
#701 = CARTESIAN_POINT('',(-2.4268761404,0.80203793401,2.23029628852));
#702 = CARTESIAN_POINT('',(-2.629855801734,0.697387851035,2.216102567914
    ));
#703 = CARTESIAN_POINT('',(-2.691615005152,0.665646176142,2.21178394371)
  );
#704 = CARTESIAN_POINT('',(-2.753250717124,0.63406248603,2.20747395487)
  );
#705 = CARTESIAN_POINT('',(-2.814754958102,0.602636017116,2.203173159378
    ));
#706 = CARTESIAN_POINT('',(-2.876119587522,0.571366369574,2.198882126476
    ));
#707 = CARTESIAN_POINT('',(-2.937336303799,0.540253507331,2.194601436669
    ));
#708 = CARTESIAN_POINT('',(-2.998396644327,0.509297758067,2.19033168172)
  );
#709 = CARTESIAN_POINT('',(-3.087764303692,0.464099879338,2.18408248621)
  );
#710 = CARTESIAN_POINT('',(-3.11620054409,0.449734439236,2.182094030575)
  );
#711 = CARTESIAN_POINT('',(-3.144599821305,0.435403559959,2.180108159658
    ));
#712 = CARTESIAN_POINT('',(-3.172961240009,0.421107323032,2.178124936066
    ));
#713 = CARTESIAN_POINT('',(-3.201283894916,0.406845824451,2.176144423102
    ));
#714 = CARTESIAN_POINT('',(-3.229566870781,0.392619174681,2.174166684768
    ));
#715 = CARTESIAN_POINT('',(-3.2578092424,0.378427498663,2.172191785759)
  );
#716 = CARTESIAN_POINT('',(-3.299658325525,0.357419637214,2.169265412793
    ));
#717 = CARTESIAN_POINT('',(-3.313296846852,0.35057656286,2.168311714477)
  );
#718 = CARTESIAN_POINT('',(-3.326925532535,0.343741728479,2.167358703936
    ));
#719 = CARTESIAN_POINT('',(-3.340544275954,0.336915150534,2.166406388626
    ));
#720 = CARTESIAN_POINT('',(-3.354152969913,0.330096846221,2.165454776043
    ));
#721 = CARTESIAN_POINT('',(-3.367751506651,0.323286833459,2.164503873722
    ));
#722 = CARTESIAN_POINT('',(-3.381339777831,0.316485130901,2.163553689238
    ));
#723 = CARTESIAN_POINT('',(-3.401598840346,0.306348997844,2.162137037584
    ));
#724 = CARTESIAN_POINT('',(-3.408277494225,0.303008254559,2.16167002061)
  );
#725 = CARTESIAN_POINT('',(-3.414953623211,0.299669530378,2.161203180194
    ));
#726 = CARTESIAN_POINT('',(-3.421627214296,0.29633282765,2.160736517245)
  );
#727 = CARTESIAN_POINT('',(-3.428298254436,0.292998148763,2.160270032676
    ));
#728 = CARTESIAN_POINT('',(-3.434966730555,0.289665496148,2.1598037274)
  );
#729 = CARTESIAN_POINT('',(-3.441632629543,0.286334872274,2.159337602335
    ));
#730 = CARTESIAN_POINT('',(-3.451610008266,0.281350767439,2.15863991605)
  );
#731 = CARTESIAN_POINT('',(-3.45492094119,0.279697004711,2.158408393066)
  );
#732 = CARTESIAN_POINT('',(-3.458228741024,0.278044988493,2.158177089169
    ));
#733 = CARTESIAN_POINT('',(-3.461533411764,0.276394715819,2.157946004079
    ));
#734 = CARTESIAN_POINT('',(-3.464834957403,0.274746183724,2.157715137518
    ));
#735 = CARTESIAN_POINT('',(-3.468133381934,0.273099389255,2.157484489207
    ));
#736 = CARTESIAN_POINT('',(-3.471428689349,0.27145432946,2.157254058865)
  );
#737 = CARTESIAN_POINT('',(-3.478261298523,0.268043771822,2.156776276288
    ));
#738 = CARTESIAN_POINT('',(-3.481294617491,0.266529871784,2.156564165963
    ));
#739 = CARTESIAN_POINT('',(-3.484331692796,0.265014194702,2.156351792969
    ));
#740 = CARTESIAN_POINT('',(-3.487637285091,0.263364658063,2.156120643438
    ));
#741 = CARTESIAN_POINT('',(-3.491225936567,0.261574102678,2.155869700481
    ));
#742 = CARTESIAN_POINT('',(-3.494857996695,0.259762149337,2.155615722096
    ));
#743 = CARTESIAN_POINT('',(-3.498035800593,0.258177012906,2.1553935084)
  );
#744 = CARTESIAN_POINT('',(-3.5,0.257197273824,2.155256158198));
#745 = ORIENTED_EDGE('',*,*,#640,.T.);
#746 = B_SPLINE_SURFACE_WITH_KNOTS('',1,1,(
    (#747,#748)
    ,(#749,#750
    )),.UNSPECIFIED.,.F.,.F.,.F.,(2,2),(2,2),(0.,2.204816615301),(0.,1.)
  ,.PIECEWISE_BEZIER_KNOTS.);
#747 = CARTESIAN_POINT('',(0.,0.,2.4));
#748 = CARTESIAN_POINT('',(-4.,0.279707247774,2.120292752226));
#749 = CARTESIAN_POINT('',(0.,2.204816615301,2.4));
#750 = CARTESIAN_POINT('',(-4.,1.660512513926,2.120292752226));
#751 = ADVANCED_FACE('',(#752),#818,.T.);
#752 = FACE_BOUND('',#753,.T.);
#753 = EDGE_LOOP('',(#754,#755,#756,#817));
#754 = ORIENTED_EDGE('',*,*,#685,.F.);
#755 = ORIENTED_EDGE('',*,*,#463,.F.);
#756 = ORIENTED_EDGE('',*,*,#757,.T.);
#757 = EDGE_CURVE('',#456,#622,#758,.T.);
#758 = B_SPLINE_CURVE_WITH_KNOTS('',8,(#759,#760,#761,#762,#763,#764,
    #765,#766,#767,#768,#769,#770,#771,#772,#773,#774,#775,#776,#777,
    #778,#779,#780,#781,#782,#783,#784,#785,#786,#787,#788,#789,#790,
    #791,#792,#793,#794,#795,#796,#797,#798,#799,#800,#801,#802,#803,
    #804,#805,#806,#807,#808,#809,#810,#811,#812,#813,#814,#815,#816),
  .UNSPECIFIED.,.F.,.F.,(9,7,7,7,7,7,7,7,9),(0.,0.405979778479,
    0.728469739506,0.86988256587,0.936001761771,0.96800122084,
    0.983746935795,0.991578240621,1.),.UNSPECIFIED.);
#759 = CARTESIAN_POINT('',(0.,4.795183384699,2.4));
#760 = CARTESIAN_POINT('',(-0.173032832382,4.916451641667,2.38790036567)
  );
#761 = CARTESIAN_POINT('',(-0.349143682243,5.032259081956,2.375585495391
    ));
#762 = CARTESIAN_POINT('',(-0.527122997431,5.144130939839,2.363139969287
    ));
#763 = CARTESIAN_POINT('',(-0.706316472328,5.252767083761,2.350609540867
    ));
#764 = CARTESIAN_POINT('',(-0.886221714111,5.358722709427,2.338029340857
    ));
#765 = CARTESIAN_POINT('',(-1.066518611462,5.462356774575,2.325421753622
    ));
#766 = CARTESIAN_POINT('',(-1.246977535431,5.563978499313,2.312802836382
    ));
#767 = CARTESIAN_POINT('',(-1.570832440185,5.743159860281,2.29015669536)
  );
#768 = CARTESIAN_POINT('',(-1.714168934888,5.821343056381,2.280133631251
    ));
#769 = CARTESIAN_POINT('',(-1.857365995547,5.898492429041,2.270120317319
    ));
#770 = CARTESIAN_POINT('',(-2.000326526591,5.974683083296,2.260123543149
    ));
#771 = CARTESIAN_POINT('',(-2.142958529813,6.04996836112,2.250149741883)
  );
#772 = CARTESIAN_POINT('',(-2.285171808221,6.124386061871,2.240205220708
    ));
#773 = CARTESIAN_POINT('',(-2.4268761404,6.19796206599,2.23029628852));
#774 = CARTESIAN_POINT('',(-2.629855801734,6.302612148965,2.216102567914
    ));
#775 = CARTESIAN_POINT('',(-2.691615005152,6.334353823858,2.21178394371)
  );
#776 = CARTESIAN_POINT('',(-2.753250717124,6.36593751397,2.20747395487)
  );
#777 = CARTESIAN_POINT('',(-2.814754958102,6.397363982884,2.203173159378
    ));
#778 = CARTESIAN_POINT('',(-2.876119587523,6.428633630426,2.198882126476
    ));
#779 = CARTESIAN_POINT('',(-2.937336303799,6.459746492669,2.194601436669
    ));
#780 = CARTESIAN_POINT('',(-2.998396644327,6.490702241934,2.19033168172)
  );
#781 = CARTESIAN_POINT('',(-3.087764303692,6.535900120662,2.18408248621)
  );
#782 = CARTESIAN_POINT('',(-3.11620054409,6.550265560765,2.182094030575)
  );
#783 = CARTESIAN_POINT('',(-3.144599821305,6.564596440041,2.180108159658
    ));
#784 = CARTESIAN_POINT('',(-3.172961240009,6.578892676968,2.178124936066
    ));
#785 = CARTESIAN_POINT('',(-3.201283894917,6.593154175549,2.176144423102
    ));
#786 = CARTESIAN_POINT('',(-3.229566870781,6.607380825319,2.174166684768
    ));
#787 = CARTESIAN_POINT('',(-3.2578092424,6.621572501337,2.172191785759)
  );
#788 = CARTESIAN_POINT('',(-3.299658325526,6.642580362786,2.169265412793
    ));
#789 = CARTESIAN_POINT('',(-3.313296846852,6.64942343714,2.168311714477)
  );
#790 = CARTESIAN_POINT('',(-3.326925532535,6.656258271521,2.167358703936
    ));
#791 = CARTESIAN_POINT('',(-3.340544275954,6.663084849466,2.166406388626
    ));
#792 = CARTESIAN_POINT('',(-3.354152969914,6.66990315378,2.165454776043)
  );
#793 = CARTESIAN_POINT('',(-3.367751506651,6.676713166541,2.164503873722
    ));
#794 = CARTESIAN_POINT('',(-3.381339777831,6.683514869099,2.163553689238
    ));
#795 = CARTESIAN_POINT('',(-3.401598840346,6.693651002156,2.162137037584
    ));
#796 = CARTESIAN_POINT('',(-3.408277494225,6.696991745441,2.16167002061)
  );
#797 = CARTESIAN_POINT('',(-3.414953623211,6.700330469622,2.161203180194
    ));
#798 = CARTESIAN_POINT('',(-3.421627214296,6.70366717235,2.160736517245)
  );
#799 = CARTESIAN_POINT('',(-3.428298254436,6.707001851237,2.160270032676
    ));
#800 = CARTESIAN_POINT('',(-3.434966730555,6.710334503852,2.1598037274)
  );
#801 = CARTESIAN_POINT('',(-3.441632629543,6.713665127726,2.159337602335
    ));
#802 = CARTESIAN_POINT('',(-3.451610008266,6.718649232561,2.15863991605)
  );
#803 = CARTESIAN_POINT('',(-3.45492094119,6.72030299529,2.158408393066)
  );
#804 = CARTESIAN_POINT('',(-3.458228741025,6.721955011507,2.158177089169
    ));
#805 = CARTESIAN_POINT('',(-3.461533411764,6.723605284181,2.157946004079
    ));
#806 = CARTESIAN_POINT('',(-3.464834957403,6.725253816276,2.157715137518
    ));
#807 = CARTESIAN_POINT('',(-3.468133381934,6.726900610745,2.157484489207
    ));
#808 = CARTESIAN_POINT('',(-3.471428689349,6.72854567054,2.157254058865)
  );
#809 = CARTESIAN_POINT('',(-3.478261298523,6.731956228178,2.156776276288
    ));
#810 = CARTESIAN_POINT('',(-3.481294617491,6.733470128216,2.156564165963
    ));
#811 = CARTESIAN_POINT('',(-3.484331692796,6.734985805298,2.156351792969
    ));
#812 = CARTESIAN_POINT('',(-3.487637285091,6.736635341937,2.156120643438
    ));
#813 = CARTESIAN_POINT('',(-3.491225936567,6.738425897323,2.155869700481
    ));
#814 = CARTESIAN_POINT('',(-3.494857996695,6.740237850663,2.155615722096
    ));
#815 = CARTESIAN_POINT('',(-3.498035800593,6.741822987094,2.1553935084)
  );
#816 = CARTESIAN_POINT('',(-3.5,6.742802726176,2.155256158198));
#817 = ORIENTED_EDGE('',*,*,#631,.F.);
#818 = CONICAL_SURFACE('',#819,1.8,0.427605666739);
#819 = AXIS2_PLACEMENT_3D('',#820,#821,#822);
#820 = CARTESIAN_POINT('',(0.,3.5,1.15));
#821 = DIRECTION('',(-1.,0.,0.));
#822 = DIRECTION('',(0.,-1.,0.));
#823 = ADVANCED_FACE('',(#824),#830,.T.);
#824 = FACE_BOUND('',#825,.T.);
#825 = EDGE_LOOP('',(#826,#827,#828,#829));
#826 = ORIENTED_EDGE('',*,*,#757,.F.);
#827 = ORIENTED_EDGE('',*,*,#479,.T.);
#828 = ORIENTED_EDGE('',*,*,#598,.T.);
#829 = ORIENTED_EDGE('',*,*,#621,.F.);
#830 = B_SPLINE_SURFACE_WITH_KNOTS('',1,1,(
    (#831,#832)
    ,(#833,#834
    )),.UNSPECIFIED.,.F.,.F.,.F.,(2,2),(2,2),(4.795183384699,7.),(0.,1.)
  ,.PIECEWISE_BEZIER_KNOTS.);
#831 = CARTESIAN_POINT('',(0.,4.795183384699,2.4));
#832 = CARTESIAN_POINT('',(-4.,5.339487486074,2.120292752226));
#833 = CARTESIAN_POINT('',(0.,7.,2.4));
#834 = CARTESIAN_POINT('',(-4.,6.720292752226,2.120292752226));
#835 = ADVANCED_FACE('',(#836),#839,.T.);
#836 = FACE_BOUND('',#837,.T.);
#837 = EDGE_LOOP('',(#838));
#838 = ORIENTED_EDGE('',*,*,#528,.T.);
#839 = PLANE('',#840);
#840 = AXIS2_PLACEMENT_3D('',#841,#842,#843);
#841 = CARTESIAN_POINT('',(16.,3.5,1.15));
#842 = DIRECTION('',(1.,0.,0.));
#843 = DIRECTION('',(0.,0.,1.));
#844 = ADVANCED_FACE('',(#845),#848,.T.);
#845 = FACE_BOUND('',#846,.T.);
#846 = EDGE_LOOP('',(#847));
#847 = ORIENTED_EDGE('',*,*,#553,.T.);
#848 = PLANE('',#849);
#849 = AXIS2_PLACEMENT_3D('',#850,#851,#852);
#850 = CARTESIAN_POINT('',(16.,3.5,1.15));
#851 = DIRECTION('',(1.,0.,0.));
#852 = DIRECTION('',(0.,0.,1.));
#853 = ADVANCED_FACE('',(#854),#857,.F.);
#854 = FACE_BOUND('',#855,.F.);
#855 = EDGE_LOOP('',(#856));
#856 = ORIENTED_EDGE('',*,*,#657,.F.);
#857 = PLANE('',#858);
#858 = AXIS2_PLACEMENT_3D('',#859,#860,#861);
#859 = CARTESIAN_POINT('',(-18.24,3.5,1.15));
#860 = DIRECTION('',(1.,0.,0.));
#861 = DIRECTION('',(0.,0.,1.));
#862 = ( GEOMETRIC_REPRESENTATION_CONTEXT(3) 
GLOBAL_UNCERTAINTY_ASSIGNED_CONTEXT((#866)) GLOBAL_UNIT_ASSIGNED_CONTEXT
((#863,#864,#865)) REPRESENTATION_CONTEXT('Context #1',
  '3D Context with UNIT and UNCERTAINTY') );
#863 = ( LENGTH_UNIT() NAMED_UNIT(*) SI_UNIT(.MILLI.,.METRE.) );
#864 = ( NAMED_UNIT(*) PLANE_ANGLE_UNIT() SI_UNIT($,.RADIAN.) );
#865 = ( NAMED_UNIT(*) SI_UNIT($,.STERADIAN.) SOLID_ANGLE_UNIT() );
#866 = UNCERTAINTY_MEASURE_WITH_UNIT(LENGTH_MEASURE(2.E-06),#863,
  'distance_accuracy_value','confusion accuracy');
#867 = PRODUCT_RELATED_PRODUCT_CATEGORY('part',$,(#7));
#868 = MECHANICAL_DESIGN_GEOMETRIC_PRESENTATION_REPRESENTATION('',(#869)
  ,#862);
#869 = STYLED_ITEM('color',(#870),#15);
#870 = PRESENTATION_STYLE_ASSIGNMENT((#871,#877));
#871 = SURFACE_STYLE_USAGE(.BOTH.,#872);
#872 = SURFACE_SIDE_STYLE('',(#873));
#873 = SURFACE_STYLE_FILL_AREA(#874);
#874 = FILL_AREA_STYLE('',(#875));
#875 = FILL_AREA_STYLE_COLOUR('',#876);
#876 = COLOUR_RGB('',0.447058818107,0.474509808674,0.501960817233);
#877 = CURVE_STYLE('',#878,POSITIVE_LENGTH_MEASURE(0.1),#879);
#878 = DRAUGHTING_PRE_DEFINED_CURVE_FONT('continuous');
#879 = COLOUR_RGB('',9.803921802644E-02,9.803921802644E-02,
  9.803921802644E-02);
ENDSEC;
END-ISO-10303-21;
