ISO-10303-21;
HEADER;
FILE_DESCRIPTION(('KiCad electronic assembly'),'2;1');
FILE_NAME('TS06-COLON.step','2026-09-12T17:19:43',('Pcbnew'),('Kicad'),
  'Open CASCADE STEP processor 7.9','KiCad to STEP converter','Unknown'
  );
FILE_SCHEMA(('AUTOMOTIVE_DESIGN { 1 0 10303 214 1 1 1 1 }'));
ENDSEC;
DATA;
#1 = APPLICATION_PROTOCOL_DEFINITION('international standard',
  'automotive_design',2000,#2);
#2 = APPLICATION_CONTEXT(
  'core data for automotive mechanical design processes');
#3 = SHAPE_DEFINITION_REPRESENTATION(#4,#10);
#4 = PRODUCT_DEFINITION_SHAPE('','',#5);
#5 = PRODUCT_DEFINITION('design','',#6,#9);
#6 = PRODUCT_DEFINITION_FORMATION('','',#7);
#7 = PRODUCT('TS06-COLON 1','TS06-COLON 1','',(#8));
#8 = PRODUCT_CONTEXT('',#2,'mechanical');
#9 = PRODUCT_DEFINITION_CONTEXT('part definition',#2,'design');
#10 = SHAPE_REPRESENTATION('',(#11,#15,#19),#23);
#11 = AXIS2_PLACEMENT_3D('',#12,#13,#14);
#12 = CARTESIAN_POINT('',(0.,0.,0.));
#13 = DIRECTION('',(0.,0.,1.));
#14 = DIRECTION('',(1.,0.,-0.));
#15 = AXIS2_PLACEMENT_3D('',#16,#17,#18);
#16 = CARTESIAN_POINT('',(0.,0.,0.));
#17 = DIRECTION('',(0.,0.,1.));
#18 = DIRECTION('',(1.,0.,-0.));
#19 = AXIS2_PLACEMENT_3D('',#20,#21,#22);
#20 = CARTESIAN_POINT('',(0.,0.,0.));
#21 = DIRECTION('',(0.,0.,1.));
#22 = DIRECTION('',(1.,0.,-0.));
#23 = ( GEOMETRIC_REPRESENTATION_CONTEXT(3) 
GLOBAL_UNCERTAINTY_ASSIGNED_CONTEXT((#27)) GLOBAL_UNIT_ASSIGNED_CONTEXT(
(#24,#25,#26)) REPRESENTATION_CONTEXT('Context #1',
  '3D Context with UNIT and UNCERTAINTY') );
#24 = ( LENGTH_UNIT() NAMED_UNIT(*) SI_UNIT(.MILLI.,.METRE.) );
#25 = ( NAMED_UNIT(*) PLANE_ANGLE_UNIT() SI_UNIT($,.RADIAN.) );
#26 = ( NAMED_UNIT(*) SI_UNIT($,.STERADIAN.) SOLID_ANGLE_UNIT() );
#27 = UNCERTAINTY_MEASURE_WITH_UNIT(LENGTH_MEASURE(1.E-07),#24,
  'distance_accuracy_value','confusion accuracy');
#28 = PRODUCT_RELATED_PRODUCT_CATEGORY('part',$,(#7));
#29 = SHAPE_DEFINITION_REPRESENTATION(#30,#36);
#30 = PRODUCT_DEFINITION_SHAPE('','',#31);
#31 = PRODUCT_DEFINITION('design','',#32,#35);
#32 = PRODUCT_DEFINITION_FORMATION('','',#33);
#33 = PRODUCT('TS06-COLON_silkscreen','TS06-COLON_silkscreen','',(#34));
#34 = PRODUCT_CONTEXT('',#2,'mechanical');
#35 = PRODUCT_DEFINITION_CONTEXT('part definition',#2,'design');
#36 = SHAPE_REPRESENTATION('',(#11,#37,#89,#141,#185,#229,#305,#381,#425
    ,#469,#545),#621);
#37 = SHELL_BASED_SURFACE_MODEL('',(#38));
#38 = OPEN_SHELL('',(#39));
#39 = ADVANCED_FACE('',(#40),#84,.T.);
#40 = FACE_BOUND('',#41,.F.);
#41 = EDGE_LOOP('',(#42,#53,#61,#70,#78));
#42 = ORIENTED_EDGE('',*,*,#43,.T.);
#43 = EDGE_CURVE('',#44,#46,#48,.T.);
#44 = VERTEX_POINT('',#45);
#45 = CARTESIAN_POINT('',(0.694567,-32.595039,1.585));
#46 = VERTEX_POINT('',#47);
#47 = CARTESIAN_POINT('',(0.81,-32.618,1.585));
#48 = CIRCLE('',#49,6.000007318647E-02);
#49 = AXIS2_PLACEMENT_3D('',#50,#51,#52);
#50 = CARTESIAN_POINT('',(0.749999926814,-32.61799982331,1.585));
#51 = DIRECTION('',(0.,0.,-1.));
#52 = DIRECTION('',(-0.923880986637,0.382679921777,0.));
#53 = ORIENTED_EDGE('',*,*,#54,.T.);
#54 = EDGE_CURVE('',#46,#55,#57,.T.);
#55 = VERTEX_POINT('',#56);
#56 = CARTESIAN_POINT('',(0.81,-35.618,1.585));
#57 = LINE('',#58,#59);
#58 = CARTESIAN_POINT('',(0.81,-32.618,1.585));
#59 = VECTOR('',#60,1.);
#60 = DIRECTION('',(0.,-1.,0.));
#61 = ORIENTED_EDGE('',*,*,#62,.T.);
#62 = EDGE_CURVE('',#55,#63,#65,.T.);
#63 = VERTEX_POINT('',#64);
#64 = CARTESIAN_POINT('',(0.69,-35.618,1.585));
#65 = CIRCLE('',#66,6.000000000042E-02);
#66 = AXIS2_PLACEMENT_3D('',#67,#68,#69);
#67 = CARTESIAN_POINT('',(0.75,-35.61800022558,1.585));
#68 = DIRECTION('',(0.,0.,-1.));
#69 = DIRECTION('',(0.999999999993,3.75979413526E-06,0.));
#70 = ORIENTED_EDGE('',*,*,#71,.T.);
#71 = EDGE_CURVE('',#63,#72,#74,.T.);
#72 = VERTEX_POINT('',#73);
#73 = CARTESIAN_POINT('',(0.69,-32.618,1.585));
#74 = LINE('',#75,#76);
#75 = CARTESIAN_POINT('',(0.69,-35.618,1.585));
#76 = VECTOR('',#77,1.);
#77 = DIRECTION('',(0.,1.,0.));
#78 = ORIENTED_EDGE('',*,*,#79,.T.);
#79 = EDGE_CURVE('',#72,#44,#80,.T.);
#80 = LINE('',#81,#82);
#81 = CARTESIAN_POINT('',(0.69,-32.618,1.585));
#82 = VECTOR('',#83,1.);
#83 = DIRECTION('',(0.195081000118,0.980787134598,0.));
#84 = PLANE('',#85);
#85 = AXIS2_PLACEMENT_3D('',#86,#87,#88);
#86 = CARTESIAN_POINT('',(0.,0.,1.585));
#87 = DIRECTION('',(0.,0.,1.));
#88 = DIRECTION('',(1.,0.,-0.));
#89 = SHELL_BASED_SURFACE_MODEL('',(#90));
#90 = OPEN_SHELL('',(#91));
#91 = ADVANCED_FACE('',(#92),#136,.T.);
#92 = FACE_BOUND('',#93,.F.);
#93 = EDGE_LOOP('',(#94,#105,#113,#122,#130));
#94 = ORIENTED_EDGE('',*,*,#95,.T.);
#95 = EDGE_CURVE('',#96,#98,#100,.T.);
#96 = VERTEX_POINT('',#97);
#97 = CARTESIAN_POINT('',(5.694567,-32.595039,1.585));
#98 = VERTEX_POINT('',#99);
#99 = CARTESIAN_POINT('',(5.81,-32.618,1.585));
#100 = CIRCLE('',#101,6.000007318647E-02);
#101 = AXIS2_PLACEMENT_3D('',#102,#103,#104);
#102 = CARTESIAN_POINT('',(5.749999926814,-32.61799982331,1.585));
#103 = DIRECTION('',(0.,0.,-1.));
#104 = DIRECTION('',(-0.923880986637,0.382679921777,0.));
#105 = ORIENTED_EDGE('',*,*,#106,.T.);
#106 = EDGE_CURVE('',#98,#107,#109,.T.);
#107 = VERTEX_POINT('',#108);
#108 = CARTESIAN_POINT('',(5.81,-35.618,1.585));
#109 = LINE('',#110,#111);
#110 = CARTESIAN_POINT('',(5.81,-32.618,1.585));
#111 = VECTOR('',#112,1.);
#112 = DIRECTION('',(0.,-1.,0.));
#113 = ORIENTED_EDGE('',*,*,#114,.T.);
#114 = EDGE_CURVE('',#107,#115,#117,.T.);
#115 = VERTEX_POINT('',#116);
#116 = CARTESIAN_POINT('',(5.69,-35.618,1.585));
#117 = CIRCLE('',#118,6.000000000042E-02);
#118 = AXIS2_PLACEMENT_3D('',#119,#120,#121);
#119 = CARTESIAN_POINT('',(5.75,-35.61800022558,1.585));
#120 = DIRECTION('',(0.,0.,-1.));
#121 = DIRECTION('',(0.999999999993,3.75979413526E-06,0.));
#122 = ORIENTED_EDGE('',*,*,#123,.T.);
#123 = EDGE_CURVE('',#115,#124,#126,.T.);
#124 = VERTEX_POINT('',#125);
#125 = CARTESIAN_POINT('',(5.69,-32.618,1.585));
#126 = LINE('',#127,#128);
#127 = CARTESIAN_POINT('',(5.69,-35.618,1.585));
#128 = VECTOR('',#129,1.);
#129 = DIRECTION('',(0.,1.,0.));
#130 = ORIENTED_EDGE('',*,*,#131,.T.);
#131 = EDGE_CURVE('',#124,#96,#132,.T.);
#132 = LINE('',#133,#134);
#133 = CARTESIAN_POINT('',(5.69,-32.618,1.585));
#134 = VECTOR('',#135,1.);
#135 = DIRECTION('',(0.195081000118,0.980787134598,0.));
#136 = PLANE('',#137);
#137 = AXIS2_PLACEMENT_3D('',#138,#139,#140);
#138 = CARTESIAN_POINT('',(0.,0.,1.585));
#139 = DIRECTION('',(0.,0.,1.));
#140 = DIRECTION('',(1.,0.,-0.));
#141 = SHELL_BASED_SURFACE_MODEL('',(#142));
#142 = OPEN_SHELL('',(#143));
#143 = ADVANCED_FACE('',(#144),#180,.T.);
#144 = FACE_BOUND('',#145,.F.);
#145 = EDGE_LOOP('',(#146,#157,#165,#174));
#146 = ORIENTED_EDGE('',*,*,#147,.T.);
#147 = EDGE_CURVE('',#148,#150,#152,.T.);
#148 = VERTEX_POINT('',#149);
#149 = CARTESIAN_POINT('',(0.25,-27.595,1.585));
#150 = VERTEX_POINT('',#151);
#151 = CARTESIAN_POINT('',(0.25,-27.475,1.585));
#152 = CIRCLE('',#153,6.000000000042E-02);
#153 = AXIS2_PLACEMENT_3D('',#154,#155,#156);
#154 = CARTESIAN_POINT('',(0.249999774412,-27.535,1.585));
#155 = DIRECTION('',(0.,0.,-1.));
#156 = DIRECTION('',(3.759794119532E-06,-0.999999999993,0.));
#157 = ORIENTED_EDGE('',*,*,#158,.T.);
#158 = EDGE_CURVE('',#150,#159,#161,.T.);
#159 = VERTEX_POINT('',#160);
#160 = CARTESIAN_POINT('',(6.25,-27.475,1.585));
#161 = LINE('',#162,#163);
#162 = CARTESIAN_POINT('',(0.25,-27.475,1.585));
#163 = VECTOR('',#164,1.);
#164 = DIRECTION('',(1.,0.,0.));
#165 = ORIENTED_EDGE('',*,*,#166,.T.);
#166 = EDGE_CURVE('',#159,#167,#169,.T.);
#167 = VERTEX_POINT('',#168);
#168 = CARTESIAN_POINT('',(6.25,-27.595,1.585));
#169 = CIRCLE('',#170,6.000000000042E-02);
#170 = AXIS2_PLACEMENT_3D('',#171,#172,#173);
#171 = CARTESIAN_POINT('',(6.250000225588,-27.535,1.585));
#172 = DIRECTION('',(0.,0.,-1.));
#173 = DIRECTION('',(-3.759794120457E-06,0.999999999993,-0.));
#174 = ORIENTED_EDGE('',*,*,#175,.T.);
#175 = EDGE_CURVE('',#167,#148,#176,.T.);
#176 = LINE('',#177,#178);
#177 = CARTESIAN_POINT('',(6.25,-27.595,1.585));
#178 = VECTOR('',#179,1.);
#179 = DIRECTION('',(-1.,0.,0.));
#180 = PLANE('',#181);
#181 = AXIS2_PLACEMENT_3D('',#182,#183,#184);
#182 = CARTESIAN_POINT('',(0.,0.,1.585));
#183 = DIRECTION('',(0.,0.,1.));
#184 = DIRECTION('',(1.,0.,-0.));
#185 = SHELL_BASED_SURFACE_MODEL('',(#186));
#186 = OPEN_SHELL('',(#187));
#187 = ADVANCED_FACE('',(#188),#224,.T.);
#188 = FACE_BOUND('',#189,.F.);
#189 = EDGE_LOOP('',(#190,#201,#209,#218));
#190 = ORIENTED_EDGE('',*,*,#191,.T.);
#191 = EDGE_CURVE('',#192,#194,#196,.T.);
#192 = VERTEX_POINT('',#193);
#193 = CARTESIAN_POINT('',(0.25,-25.195,1.585));
#194 = VERTEX_POINT('',#195);
#195 = CARTESIAN_POINT('',(0.25,-25.075,1.585));
#196 = CIRCLE('',#197,6.000000000042E-02);
#197 = AXIS2_PLACEMENT_3D('',#198,#199,#200);
#198 = CARTESIAN_POINT('',(0.249999774412,-25.135,1.585));
#199 = DIRECTION('',(0.,0.,-1.));
#200 = DIRECTION('',(3.759794113518E-06,-0.999999999993,0.));
#201 = ORIENTED_EDGE('',*,*,#202,.T.);
#202 = EDGE_CURVE('',#194,#203,#205,.T.);
#203 = VERTEX_POINT('',#204);
#204 = CARTESIAN_POINT('',(6.25,-25.075,1.585));
#205 = LINE('',#206,#207);
#206 = CARTESIAN_POINT('',(0.25,-25.075,1.585));
#207 = VECTOR('',#208,1.);
#208 = DIRECTION('',(1.,0.,0.));
#209 = ORIENTED_EDGE('',*,*,#210,.T.);
#210 = EDGE_CURVE('',#203,#211,#213,.T.);
#211 = VERTEX_POINT('',#212);
#212 = CARTESIAN_POINT('',(6.25,-25.195,1.585));
#213 = CIRCLE('',#214,6.000000000042E-02);
#214 = AXIS2_PLACEMENT_3D('',#215,#216,#217);
#215 = CARTESIAN_POINT('',(6.250000225588,-25.135,1.585));
#216 = DIRECTION('',(0.,0.,-1.));
#217 = DIRECTION('',(-3.759794090851E-06,0.999999999993,-0.));
#218 = ORIENTED_EDGE('',*,*,#219,.T.);
#219 = EDGE_CURVE('',#211,#192,#220,.T.);
#220 = LINE('',#221,#222);
#221 = CARTESIAN_POINT('',(6.25,-25.195,1.585));
#222 = VECTOR('',#223,1.);
#223 = DIRECTION('',(-1.,0.,0.));
#224 = PLANE('',#225);
#225 = AXIS2_PLACEMENT_3D('',#226,#227,#228);
#226 = CARTESIAN_POINT('',(0.,0.,1.585));
#227 = DIRECTION('',(0.,0.,1.));
#228 = DIRECTION('',(1.,0.,-0.));
#229 = SHELL_BASED_SURFACE_MODEL('',(#230));
#230 = OPEN_SHELL('',(#231));
#231 = ADVANCED_FACE('',(#232),#300,.T.);
#232 = FACE_BOUND('',#233,.F.);
#233 = EDGE_LOOP('',(#234,#245,#253,#261,#269,#278,#286,#294));
#234 = ORIENTED_EDGE('',*,*,#235,.T.);
#235 = EDGE_CURVE('',#236,#238,#240,.T.);
#236 = VERTEX_POINT('',#237);
#237 = CARTESIAN_POINT('',(7.182E-03,-21.362299,1.585));
#238 = VERTEX_POINT('',#239);
#239 = CARTESIAN_POINT('',(6.492818,-21.362299,1.585));
#240 = CIRCLE('',#241,3.444149202056);
#241 = AXIS2_PLACEMENT_3D('',#242,#243,#244);
#242 = CARTESIAN_POINT('',(3.25,-20.20199940726,1.585));
#243 = DIRECTION('',(0.,0.,1.));
#244 = DIRECTION('',(-0.941543995267,-0.336890048794,0.));
#245 = ORIENTED_EDGE('',*,*,#246,.T.);
#246 = EDGE_CURVE('',#238,#247,#249,.T.);
#247 = VERTEX_POINT('',#248);
#248 = CARTESIAN_POINT('',(6.5,-21.338623,1.585));
#249 = LINE('',#250,#251);
#250 = CARTESIAN_POINT('',(6.492818,-21.362299,1.585));
#251 = VECTOR('',#252,1.);
#252 = DIRECTION('',(0.290283341809,0.956940740834,0.));
#253 = ORIENTED_EDGE('',*,*,#254,.T.);
#254 = EDGE_CURVE('',#247,#255,#257,.T.);
#255 = VERTEX_POINT('',#256);
#256 = CARTESIAN_POINT('',(6.5,-21.647328,1.585));
#257 = LINE('',#258,#259);
#258 = CARTESIAN_POINT('',(6.5,-21.338623,1.585));
#259 = VECTOR('',#260,1.);
#260 = DIRECTION('',(0.,-1.,0.));
#261 = ORIENTED_EDGE('',*,*,#262,.T.);
#262 = EDGE_CURVE('',#255,#263,#265,.T.);
#263 = VERTEX_POINT('',#264);
#264 = CARTESIAN_POINT('',(6.468202,-21.724096,1.585));
#265 = LINE('',#266,#267);
#266 = CARTESIAN_POINT('',(6.5,-21.647328,1.585));
#267 = VECTOR('',#268,1.);
#268 = DIRECTION('',(-0.382679870388,-0.923881007923,0.));
#269 = ORIENTED_EDGE('',*,*,#270,.T.);
#270 = EDGE_CURVE('',#263,#271,#273,.T.);
#271 = VERTEX_POINT('',#272);
#272 = CARTESIAN_POINT('',(3.1798E-02,-21.724096,1.585));
#273 = CIRCLE('',#274,3.559999950553);
#274 = AXIS2_PLACEMENT_3D('',#275,#276,#277);
#275 = CARTESIAN_POINT('',(3.25,-20.20200022931,1.585));
#276 = DIRECTION('',(-0.,0.,-1.));
#277 = DIRECTION('',(0.903989338399,-0.427554997704,-0.));
#278 = ORIENTED_EDGE('',*,*,#279,.T.);
#279 = EDGE_CURVE('',#271,#280,#282,.T.);
#280 = VERTEX_POINT('',#281);
#281 = CARTESIAN_POINT('',(0.,-21.647328,1.585));
#282 = LINE('',#283,#284);
#283 = CARTESIAN_POINT('',(3.1798E-02,-21.724096,1.585));
#284 = VECTOR('',#285,1.);
#285 = DIRECTION('',(-0.382679870388,0.923881007923,0.));
#286 = ORIENTED_EDGE('',*,*,#287,.T.);
#287 = EDGE_CURVE('',#280,#288,#290,.T.);
#288 = VERTEX_POINT('',#289);
#289 = CARTESIAN_POINT('',(0.,-21.338623,1.585));
#290 = LINE('',#291,#292);
#291 = CARTESIAN_POINT('',(0.,-21.647328,1.585));
#292 = VECTOR('',#293,1.);
#293 = DIRECTION('',(0.,1.,0.));
#294 = ORIENTED_EDGE('',*,*,#295,.T.);
#295 = EDGE_CURVE('',#288,#236,#296,.T.);
#296 = LINE('',#297,#298);
#297 = CARTESIAN_POINT('',(0.,-21.338623,1.585));
#298 = VECTOR('',#299,1.);
#299 = DIRECTION('',(0.290283341809,-0.956940740834,0.));
#300 = PLANE('',#301);
#301 = AXIS2_PLACEMENT_3D('',#302,#303,#304);
#302 = CARTESIAN_POINT('',(0.,0.,1.585));
#303 = DIRECTION('',(0.,0.,1.));
#304 = DIRECTION('',(1.,0.,-0.));
#305 = SHELL_BASED_SURFACE_MODEL('',(#306));
#306 = OPEN_SHELL('',(#307));
#307 = ADVANCED_FACE('',(#308),#376,.T.);
#308 = FACE_BOUND('',#309,.F.);
#309 = EDGE_LOOP('',(#310,#320,#328,#337,#345,#353,#361,#370));
#310 = ORIENTED_EDGE('',*,*,#311,.T.);
#311 = EDGE_CURVE('',#312,#314,#316,.T.);
#312 = VERTEX_POINT('',#313);
#313 = CARTESIAN_POINT('',(6.5,-18.756671,1.585));
#314 = VERTEX_POINT('',#315);
#315 = CARTESIAN_POINT('',(6.5,-19.065376,1.585));
#316 = LINE('',#317,#318);
#317 = CARTESIAN_POINT('',(6.5,-18.756671,1.585));
#318 = VECTOR('',#319,1.);
#319 = DIRECTION('',(0.,-1.,0.));
#320 = ORIENTED_EDGE('',*,*,#321,.T.);
#321 = EDGE_CURVE('',#314,#322,#324,.T.);
#322 = VERTEX_POINT('',#323);
#323 = CARTESIAN_POINT('',(6.492818,-19.041701,1.585));
#324 = LINE('',#325,#326);
#325 = CARTESIAN_POINT('',(6.5,-19.065376,1.585));
#326 = VECTOR('',#327,1.);
#327 = DIRECTION('',(-0.290294569744,0.956937334822,0.));
#328 = ORIENTED_EDGE('',*,*,#329,.T.);
#329 = EDGE_CURVE('',#322,#330,#332,.T.);
#330 = VERTEX_POINT('',#331);
#331 = CARTESIAN_POINT('',(7.182E-03,-19.041701,1.585));
#332 = CIRCLE('',#333,3.444149202056);
#333 = AXIS2_PLACEMENT_3D('',#334,#335,#336);
#334 = CARTESIAN_POINT('',(3.25,-20.20200059273,1.585));
#335 = DIRECTION('',(0.,0.,1.));
#336 = DIRECTION('',(0.941543995267,0.336890048794,-0.));
#337 = ORIENTED_EDGE('',*,*,#338,.T.);
#338 = EDGE_CURVE('',#330,#339,#341,.T.);
#339 = VERTEX_POINT('',#340);
#340 = CARTESIAN_POINT('',(0.,-19.065376,1.585));
#341 = LINE('',#342,#343);
#342 = CARTESIAN_POINT('',(7.182E-03,-19.041701,1.585));
#343 = VECTOR('',#344,1.);
#344 = DIRECTION('',(-0.290294569744,-0.956937334822,0.));
#345 = ORIENTED_EDGE('',*,*,#346,.T.);
#346 = EDGE_CURVE('',#339,#347,#349,.T.);
#347 = VERTEX_POINT('',#348);
#348 = CARTESIAN_POINT('',(0.,-18.756671,1.585));
#349 = LINE('',#350,#351);
#350 = CARTESIAN_POINT('',(0.,-19.065376,1.585));
#351 = VECTOR('',#352,1.);
#352 = DIRECTION('',(0.,1.,0.));
#353 = ORIENTED_EDGE('',*,*,#354,.T.);
#354 = EDGE_CURVE('',#347,#355,#357,.T.);
#355 = VERTEX_POINT('',#356);
#356 = CARTESIAN_POINT('',(3.1798E-02,-18.679904,1.585));
#357 = LINE('',#358,#359);
#358 = CARTESIAN_POINT('',(0.,-18.756671,1.585));
#359 = VECTOR('',#360,1.);
#360 = DIRECTION('',(0.382684125312,0.923879245483,0.));
#361 = ORIENTED_EDGE('',*,*,#362,.T.);
#362 = EDGE_CURVE('',#355,#363,#365,.T.);
#363 = VERTEX_POINT('',#364);
#364 = CARTESIAN_POINT('',(6.468202,-18.679904,1.585));
#365 = CIRCLE('',#366,3.559999609375);
#366 = AXIS2_PLACEMENT_3D('',#367,#368,#369);
#367 = CARTESIAN_POINT('',(3.25,-20.2019989727,1.585));
#368 = DIRECTION('',(0.,0.,-1.));
#369 = DIRECTION('',(-0.903989425034,0.427554814529,0.));
#370 = ORIENTED_EDGE('',*,*,#371,.T.);
#371 = EDGE_CURVE('',#363,#312,#372,.T.);
#372 = LINE('',#373,#374);
#373 = CARTESIAN_POINT('',(6.468202,-18.679904,1.585));
#374 = VECTOR('',#375,1.);
#375 = DIRECTION('',(0.382684125312,-0.923879245483,0.));
#376 = PLANE('',#377);
#377 = AXIS2_PLACEMENT_3D('',#378,#379,#380);
#378 = CARTESIAN_POINT('',(0.,0.,1.585));
#379 = DIRECTION('',(0.,0.,1.));
#380 = DIRECTION('',(1.,0.,-0.));
#381 = SHELL_BASED_SURFACE_MODEL('',(#382));
#382 = OPEN_SHELL('',(#383));
#383 = ADVANCED_FACE('',(#384),#420,.T.);
#384 = FACE_BOUND('',#385,.F.);
#385 = EDGE_LOOP('',(#386,#397,#405,#414));
#386 = ORIENTED_EDGE('',*,*,#387,.T.);
#387 = EDGE_CURVE('',#388,#390,#392,.T.);
#388 = VERTEX_POINT('',#389);
#389 = CARTESIAN_POINT('',(0.25,-14.361,1.585));
#390 = VERTEX_POINT('',#391);
#391 = CARTESIAN_POINT('',(0.25,-14.241,1.585));
#392 = CIRCLE('',#393,6.000000000042E-02);
#393 = AXIS2_PLACEMENT_3D('',#394,#395,#396);
#394 = CARTESIAN_POINT('',(0.249999774412,-14.301,1.585));
#395 = DIRECTION('',(0.,0.,-1.));
#396 = DIRECTION('',(3.759794100103E-06,-0.999999999993,0.));
#397 = ORIENTED_EDGE('',*,*,#398,.T.);
#398 = EDGE_CURVE('',#390,#399,#401,.T.);
#399 = VERTEX_POINT('',#400);
#400 = CARTESIAN_POINT('',(6.25,-14.241,1.585));
#401 = LINE('',#402,#403);
#402 = CARTESIAN_POINT('',(0.25,-14.241,1.585));
#403 = VECTOR('',#404,1.);
#404 = DIRECTION('',(1.,0.,0.));
#405 = ORIENTED_EDGE('',*,*,#406,.T.);
#406 = EDGE_CURVE('',#399,#407,#409,.T.);
#407 = VERTEX_POINT('',#408);
#408 = CARTESIAN_POINT('',(6.25,-14.361,1.585));
#409 = CIRCLE('',#410,6.000000000042E-02);
#410 = AXIS2_PLACEMENT_3D('',#411,#412,#413);
#411 = CARTESIAN_POINT('',(6.250000225588,-14.301,1.585));
#412 = DIRECTION('',(0.,0.,-1.));
#413 = DIRECTION('',(-3.759794105654E-06,0.999999999993,-0.));
#414 = ORIENTED_EDGE('',*,*,#415,.T.);
#415 = EDGE_CURVE('',#407,#388,#416,.T.);
#416 = LINE('',#417,#418);
#417 = CARTESIAN_POINT('',(6.25,-14.361,1.585));
#418 = VECTOR('',#419,1.);
#419 = DIRECTION('',(-1.,0.,0.));
#420 = PLANE('',#421);
#421 = AXIS2_PLACEMENT_3D('',#422,#423,#424);
#422 = CARTESIAN_POINT('',(0.,0.,1.585));
#423 = DIRECTION('',(0.,0.,1.));
#424 = DIRECTION('',(1.,0.,-0.));
#425 = SHELL_BASED_SURFACE_MODEL('',(#426));
#426 = OPEN_SHELL('',(#427));
#427 = ADVANCED_FACE('',(#428),#464,.T.);
#428 = FACE_BOUND('',#429,.F.);
#429 = EDGE_LOOP('',(#430,#441,#449,#458));
#430 = ORIENTED_EDGE('',*,*,#431,.T.);
#431 = EDGE_CURVE('',#432,#434,#436,.T.);
#432 = VERTEX_POINT('',#433);
#433 = CARTESIAN_POINT('',(0.25,-11.961,1.585));
#434 = VERTEX_POINT('',#435);
#435 = CARTESIAN_POINT('',(0.25,-11.841,1.585));
#436 = CIRCLE('',#437,6.000000000042E-02);
#437 = AXIS2_PLACEMENT_3D('',#438,#439,#440);
#438 = CARTESIAN_POINT('',(0.249999774412,-11.901,1.585));
#439 = DIRECTION('',(0.,0.,-1.));
#440 = DIRECTION('',(3.759794100103E-06,-0.999999999993,0.));
#441 = ORIENTED_EDGE('',*,*,#442,.T.);
#442 = EDGE_CURVE('',#434,#443,#445,.T.);
#443 = VERTEX_POINT('',#444);
#444 = CARTESIAN_POINT('',(6.25,-11.841,1.585));
#445 = LINE('',#446,#447);
#446 = CARTESIAN_POINT('',(0.25,-11.841,1.585));
#447 = VECTOR('',#448,1.);
#448 = DIRECTION('',(1.,0.,0.));
#449 = ORIENTED_EDGE('',*,*,#450,.T.);
#450 = EDGE_CURVE('',#443,#451,#453,.T.);
#451 = VERTEX_POINT('',#452);
#452 = CARTESIAN_POINT('',(6.25,-11.961,1.585));
#453 = CIRCLE('',#454,6.000000000042E-02);
#454 = AXIS2_PLACEMENT_3D('',#455,#456,#457);
#455 = CARTESIAN_POINT('',(6.250000225588,-11.901,1.585));
#456 = DIRECTION('',(0.,0.,-1.));
#457 = DIRECTION('',(-3.759794105654E-06,0.999999999993,-0.));
#458 = ORIENTED_EDGE('',*,*,#459,.T.);
#459 = EDGE_CURVE('',#451,#432,#460,.T.);
#460 = LINE('',#461,#462);
#461 = CARTESIAN_POINT('',(6.25,-11.961,1.585));
#462 = VECTOR('',#463,1.);
#463 = DIRECTION('',(-1.,0.,0.));
#464 = PLANE('',#465);
#465 = AXIS2_PLACEMENT_3D('',#466,#467,#468);
#466 = CARTESIAN_POINT('',(0.,0.,1.585));
#467 = DIRECTION('',(0.,0.,1.));
#468 = DIRECTION('',(1.,0.,-0.));
#469 = SHELL_BASED_SURFACE_MODEL('',(#470));
#470 = OPEN_SHELL('',(#471));
#471 = ADVANCED_FACE('',(#472),#540,.T.);
#472 = FACE_BOUND('',#473,.F.);
#473 = EDGE_LOOP('',(#474,#485,#493,#501,#509,#518,#526,#534));
#474 = ORIENTED_EDGE('',*,*,#475,.T.);
#475 = EDGE_CURVE('',#476,#478,#480,.T.);
#476 = VERTEX_POINT('',#477);
#477 = CARTESIAN_POINT('',(7.182E-03,-7.160299,1.585));
#478 = VERTEX_POINT('',#479);
#479 = CARTESIAN_POINT('',(6.492818,-7.160299,1.585));
#480 = CIRCLE('',#481,3.444149202056);
#481 = AXIS2_PLACEMENT_3D('',#482,#483,#484);
#482 = CARTESIAN_POINT('',(3.25,-5.999999407267,1.585));
#483 = DIRECTION('',(0.,0.,1.));
#484 = DIRECTION('',(-0.941543995267,-0.336890048794,0.));
#485 = ORIENTED_EDGE('',*,*,#486,.T.);
#486 = EDGE_CURVE('',#478,#487,#489,.T.);
#487 = VERTEX_POINT('',#488);
#488 = CARTESIAN_POINT('',(6.5,-7.136623,1.585));
#489 = LINE('',#490,#491);
#490 = CARTESIAN_POINT('',(6.492818,-7.160299,1.585));
#491 = VECTOR('',#492,1.);
#492 = DIRECTION('',(0.290283341809,0.956940740834,0.));
#493 = ORIENTED_EDGE('',*,*,#494,.T.);
#494 = EDGE_CURVE('',#487,#495,#497,.T.);
#495 = VERTEX_POINT('',#496);
#496 = CARTESIAN_POINT('',(6.5,-7.445328,1.585));
#497 = LINE('',#498,#499);
#498 = CARTESIAN_POINT('',(6.5,-7.136623,1.585));
#499 = VECTOR('',#500,1.);
#500 = DIRECTION('',(0.,-1.,0.));
#501 = ORIENTED_EDGE('',*,*,#502,.T.);
#502 = EDGE_CURVE('',#495,#503,#505,.T.);
#503 = VERTEX_POINT('',#504);
#504 = CARTESIAN_POINT('',(6.468202,-7.522096,1.585));
#505 = LINE('',#506,#507);
#506 = CARTESIAN_POINT('',(6.5,-7.445328,1.585));
#507 = VECTOR('',#508,1.);
#508 = DIRECTION('',(-0.382679870388,-0.923881007923,0.));
#509 = ORIENTED_EDGE('',*,*,#510,.T.);
#510 = EDGE_CURVE('',#503,#511,#513,.T.);
#511 = VERTEX_POINT('',#512);
#512 = CARTESIAN_POINT('',(3.1798E-02,-7.522096,1.585));
#513 = CIRCLE('',#514,3.559999950553);
#514 = AXIS2_PLACEMENT_3D('',#515,#516,#517);
#515 = CARTESIAN_POINT('',(3.25,-6.000000229317,1.585));
#516 = DIRECTION('',(-0.,0.,-1.));
#517 = DIRECTION('',(0.903989338399,-0.427554997704,-0.));
#518 = ORIENTED_EDGE('',*,*,#519,.T.);
#519 = EDGE_CURVE('',#511,#520,#522,.T.);
#520 = VERTEX_POINT('',#521);
#521 = CARTESIAN_POINT('',(0.,-7.445328,1.585));
#522 = LINE('',#523,#524);
#523 = CARTESIAN_POINT('',(3.1798E-02,-7.522096,1.585));
#524 = VECTOR('',#525,1.);
#525 = DIRECTION('',(-0.382679870388,0.923881007923,0.));
#526 = ORIENTED_EDGE('',*,*,#527,.T.);
#527 = EDGE_CURVE('',#520,#528,#530,.T.);
#528 = VERTEX_POINT('',#529);
#529 = CARTESIAN_POINT('',(0.,-7.136623,1.585));
#530 = LINE('',#531,#532);
#531 = CARTESIAN_POINT('',(0.,-7.445328,1.585));
#532 = VECTOR('',#533,1.);
#533 = DIRECTION('',(0.,1.,0.));
#534 = ORIENTED_EDGE('',*,*,#535,.T.);
#535 = EDGE_CURVE('',#528,#476,#536,.T.);
#536 = LINE('',#537,#538);
#537 = CARTESIAN_POINT('',(0.,-7.136623,1.585));
#538 = VECTOR('',#539,1.);
#539 = DIRECTION('',(0.290283341809,-0.956940740834,0.));
#540 = PLANE('',#541);
#541 = AXIS2_PLACEMENT_3D('',#542,#543,#544);
#542 = CARTESIAN_POINT('',(0.,0.,1.585));
#543 = DIRECTION('',(0.,0.,1.));
#544 = DIRECTION('',(1.,0.,-0.));
#545 = SHELL_BASED_SURFACE_MODEL('',(#546));
#546 = OPEN_SHELL('',(#547));
#547 = ADVANCED_FACE('',(#548),#616,.T.);
#548 = FACE_BOUND('',#549,.F.);
#549 = EDGE_LOOP('',(#550,#560,#568,#577,#585,#593,#601,#610));
#550 = ORIENTED_EDGE('',*,*,#551,.T.);
#551 = EDGE_CURVE('',#552,#554,#556,.T.);
#552 = VERTEX_POINT('',#553);
#553 = CARTESIAN_POINT('',(6.5,-4.554671,1.585));
#554 = VERTEX_POINT('',#555);
#555 = CARTESIAN_POINT('',(6.5,-4.863376,1.585));
#556 = LINE('',#557,#558);
#557 = CARTESIAN_POINT('',(6.5,-4.554671,1.585));
#558 = VECTOR('',#559,1.);
#559 = DIRECTION('',(0.,-1.,0.));
#560 = ORIENTED_EDGE('',*,*,#561,.T.);
#561 = EDGE_CURVE('',#554,#562,#564,.T.);
#562 = VERTEX_POINT('',#563);
#563 = CARTESIAN_POINT('',(6.492818,-4.839701,1.585));
#564 = LINE('',#565,#566);
#565 = CARTESIAN_POINT('',(6.5,-4.863376,1.585));
#566 = VECTOR('',#567,1.);
#567 = DIRECTION('',(-0.290294569744,0.956937334822,0.));
#568 = ORIENTED_EDGE('',*,*,#569,.T.);
#569 = EDGE_CURVE('',#562,#570,#572,.T.);
#570 = VERTEX_POINT('',#571);
#571 = CARTESIAN_POINT('',(7.182E-03,-4.839701,1.585));
#572 = CIRCLE('',#573,3.444149202056);
#573 = AXIS2_PLACEMENT_3D('',#574,#575,#576);
#574 = CARTESIAN_POINT('',(3.25,-6.000000592733,1.585));
#575 = DIRECTION('',(0.,0.,1.));
#576 = DIRECTION('',(0.941543995267,0.336890048794,-0.));
#577 = ORIENTED_EDGE('',*,*,#578,.T.);
#578 = EDGE_CURVE('',#570,#579,#581,.T.);
#579 = VERTEX_POINT('',#580);
#580 = CARTESIAN_POINT('',(0.,-4.863376,1.585));
#581 = LINE('',#582,#583);
#582 = CARTESIAN_POINT('',(7.182E-03,-4.839701,1.585));
#583 = VECTOR('',#584,1.);
#584 = DIRECTION('',(-0.290294569744,-0.956937334822,0.));
#585 = ORIENTED_EDGE('',*,*,#586,.T.);
#586 = EDGE_CURVE('',#579,#587,#589,.T.);
#587 = VERTEX_POINT('',#588);
#588 = CARTESIAN_POINT('',(0.,-4.554671,1.585));
#589 = LINE('',#590,#591);
#590 = CARTESIAN_POINT('',(0.,-4.863376,1.585));
#591 = VECTOR('',#592,1.);
#592 = DIRECTION('',(0.,1.,0.));
#593 = ORIENTED_EDGE('',*,*,#594,.T.);
#594 = EDGE_CURVE('',#587,#595,#597,.T.);
#595 = VERTEX_POINT('',#596);
#596 = CARTESIAN_POINT('',(3.1798E-02,-4.477904,1.585));
#597 = LINE('',#598,#599);
#598 = CARTESIAN_POINT('',(0.,-4.554671,1.585));
#599 = VECTOR('',#600,1.);
#600 = DIRECTION('',(0.382684125312,0.923879245483,0.));
#601 = ORIENTED_EDGE('',*,*,#602,.T.);
#602 = EDGE_CURVE('',#595,#603,#605,.T.);
#603 = VERTEX_POINT('',#604);
#604 = CARTESIAN_POINT('',(6.468202,-4.477904,1.585));
#605 = CIRCLE('',#606,3.559999609375);
#606 = AXIS2_PLACEMENT_3D('',#607,#608,#609);
#607 = CARTESIAN_POINT('',(3.25,-5.999998972709,1.585));
#608 = DIRECTION('',(0.,0.,-1.));
#609 = DIRECTION('',(-0.903989425034,0.427554814529,0.));
#610 = ORIENTED_EDGE('',*,*,#611,.T.);
#611 = EDGE_CURVE('',#603,#552,#612,.T.);
#612 = LINE('',#613,#614);
#613 = CARTESIAN_POINT('',(6.468202,-4.477904,1.585));
#614 = VECTOR('',#615,1.);
#615 = DIRECTION('',(0.382684125312,-0.923879245483,0.));
#616 = PLANE('',#617);
#617 = AXIS2_PLACEMENT_3D('',#618,#619,#620);
#618 = CARTESIAN_POINT('',(0.,0.,1.585));
#619 = DIRECTION('',(0.,0.,1.));
#620 = DIRECTION('',(1.,0.,-0.));
#621 = ( GEOMETRIC_REPRESENTATION_CONTEXT(3) 
GLOBAL_UNCERTAINTY_ASSIGNED_CONTEXT((#625)) GLOBAL_UNIT_ASSIGNED_CONTEXT
((#622,#623,#624)) REPRESENTATION_CONTEXT('Context #1',
  '3D Context with UNIT and UNCERTAINTY') );
#622 = ( LENGTH_UNIT() NAMED_UNIT(*) SI_UNIT(.MILLI.,.METRE.) );
#623 = ( NAMED_UNIT(*) PLANE_ANGLE_UNIT() SI_UNIT($,.RADIAN.) );
#624 = ( NAMED_UNIT(*) SI_UNIT($,.STERADIAN.) SOLID_ANGLE_UNIT() );
#625 = UNCERTAINTY_MEASURE_WITH_UNIT(LENGTH_MEASURE(1.E-07),#622,
  'distance_accuracy_value','confusion accuracy');
#626 = CONTEXT_DEPENDENT_SHAPE_REPRESENTATION(#627,#629);
#627 = ( REPRESENTATION_RELATIONSHIP('','',#36,#10) 
REPRESENTATION_RELATIONSHIP_WITH_TRANSFORMATION(#628) 
SHAPE_REPRESENTATION_RELATIONSHIP() );
#628 = ITEM_DEFINED_TRANSFORMATION('','',#11,#15);
#629 = PRODUCT_DEFINITION_SHAPE('Placement','Placement of an item',#630
  );
#630 = NEXT_ASSEMBLY_USAGE_OCCURRENCE('1','=>[0:1:1:2]','',#5,#31,$);
#631 = PRODUCT_RELATED_PRODUCT_CATEGORY('part',$,(#33));
#632 = SHAPE_DEFINITION_REPRESENTATION(#633,#639);
#633 = PRODUCT_DEFINITION_SHAPE('','',#634);
#634 = PRODUCT_DEFINITION('design','',#635,#638);
#635 = PRODUCT_DEFINITION_FORMATION('','',#636);
#636 = PRODUCT('TS06-COLON_PCB','TS06-COLON_PCB','',(#637));
#637 = PRODUCT_CONTEXT('',#2,'mechanical');
#638 = PRODUCT_DEFINITION_CONTEXT('part definition',#2,'design');
#639 = ADVANCED_BREP_SHAPE_REPRESENTATION('',(#11,#640),#1258);
#640 = MANIFOLD_SOLID_BREP('',#641);
#641 = CLOSED_SHELL('',(#642,#682,#713,#744,#893,#1042,#1054,#1071,#1088
    ,#1105,#1122,#1139,#1156,#1173,#1190,#1207,#1224,#1241));
#642 = ADVANCED_FACE('',(#643),#677,.T.);
#643 = FACE_BOUND('',#644,.T.);
#644 = EDGE_LOOP('',(#645,#655,#663,#671));
#645 = ORIENTED_EDGE('',*,*,#646,.T.);
#646 = EDGE_CURVE('',#647,#649,#651,.T.);
#647 = VERTEX_POINT('',#648);
#648 = CARTESIAN_POINT('',(6.5,-38.768,0.));
#649 = VERTEX_POINT('',#650);
#650 = CARTESIAN_POINT('',(6.5,-38.768,1.51));
#651 = LINE('',#652,#653);
#652 = CARTESIAN_POINT('',(6.5,-38.768,0.));
#653 = VECTOR('',#654,1.);
#654 = DIRECTION('',(0.,0.,1.));
#655 = ORIENTED_EDGE('',*,*,#656,.T.);
#656 = EDGE_CURVE('',#649,#657,#659,.T.);
#657 = VERTEX_POINT('',#658);
#658 = CARTESIAN_POINT('',(0.,-38.768,1.51));
#659 = LINE('',#660,#661);
#660 = CARTESIAN_POINT('',(6.5,-38.768,1.51));
#661 = VECTOR('',#662,1.);
#662 = DIRECTION('',(-1.,0.,0.));
#663 = ORIENTED_EDGE('',*,*,#664,.F.);
#664 = EDGE_CURVE('',#665,#657,#667,.T.);
#665 = VERTEX_POINT('',#666);
#666 = CARTESIAN_POINT('',(0.,-38.768,0.));
#667 = LINE('',#668,#669);
#668 = CARTESIAN_POINT('',(0.,-38.768,0.));
#669 = VECTOR('',#670,1.);
#670 = DIRECTION('',(0.,0.,1.));
#671 = ORIENTED_EDGE('',*,*,#672,.F.);
#672 = EDGE_CURVE('',#647,#665,#673,.T.);
#673 = LINE('',#674,#675);
#674 = CARTESIAN_POINT('',(6.5,-38.768,0.));
#675 = VECTOR('',#676,1.);
#676 = DIRECTION('',(-1.,0.,0.));
#677 = PLANE('',#678);
#678 = AXIS2_PLACEMENT_3D('',#679,#680,#681);
#679 = CARTESIAN_POINT('',(6.5,-38.768,0.));
#680 = DIRECTION('',(0.,-1.,0.));
#681 = DIRECTION('',(-1.,0.,0.));
#682 = ADVANCED_FACE('',(#683),#708,.T.);
#683 = FACE_BOUND('',#684,.T.);
#684 = EDGE_LOOP('',(#685,#695,#701,#702));
#685 = ORIENTED_EDGE('',*,*,#686,.T.);
#686 = EDGE_CURVE('',#687,#689,#691,.T.);
#687 = VERTEX_POINT('',#688);
#688 = CARTESIAN_POINT('',(6.5,-0.,0.));
#689 = VERTEX_POINT('',#690);
#690 = CARTESIAN_POINT('',(6.5,0.,1.51));
#691 = LINE('',#692,#693);
#692 = CARTESIAN_POINT('',(6.5,-0.,0.));
#693 = VECTOR('',#694,1.);
#694 = DIRECTION('',(0.,0.,1.));
#695 = ORIENTED_EDGE('',*,*,#696,.T.);
#696 = EDGE_CURVE('',#689,#649,#697,.T.);
#697 = LINE('',#698,#699);
#698 = CARTESIAN_POINT('',(6.5,0.,1.51));
#699 = VECTOR('',#700,1.);
#700 = DIRECTION('',(0.,-1.,0.));
#701 = ORIENTED_EDGE('',*,*,#646,.F.);
#702 = ORIENTED_EDGE('',*,*,#703,.F.);
#703 = EDGE_CURVE('',#687,#647,#704,.T.);
#704 = LINE('',#705,#706);
#705 = CARTESIAN_POINT('',(6.5,-0.,0.));
#706 = VECTOR('',#707,1.);
#707 = DIRECTION('',(0.,-1.,0.));
#708 = PLANE('',#709);
#709 = AXIS2_PLACEMENT_3D('',#710,#711,#712);
#710 = CARTESIAN_POINT('',(6.5,-0.,0.));
#711 = DIRECTION('',(1.,0.,-0.));
#712 = DIRECTION('',(0.,-1.,0.));
#713 = ADVANCED_FACE('',(#714),#739,.T.);
#714 = FACE_BOUND('',#715,.T.);
#715 = EDGE_LOOP('',(#716,#717,#725,#733));
#716 = ORIENTED_EDGE('',*,*,#664,.T.);
#717 = ORIENTED_EDGE('',*,*,#718,.T.);
#718 = EDGE_CURVE('',#657,#719,#721,.T.);
#719 = VERTEX_POINT('',#720);
#720 = CARTESIAN_POINT('',(0.,0.,1.51));
#721 = LINE('',#722,#723);
#722 = CARTESIAN_POINT('',(0.,-38.768,1.51));
#723 = VECTOR('',#724,1.);
#724 = DIRECTION('',(0.,1.,0.));
#725 = ORIENTED_EDGE('',*,*,#726,.F.);
#726 = EDGE_CURVE('',#727,#719,#729,.T.);
#727 = VERTEX_POINT('',#728);
#728 = CARTESIAN_POINT('',(0.,-0.,0.));
#729 = LINE('',#730,#731);
#730 = CARTESIAN_POINT('',(0.,-0.,0.));
#731 = VECTOR('',#732,1.);
#732 = DIRECTION('',(0.,0.,1.));
#733 = ORIENTED_EDGE('',*,*,#734,.F.);
#734 = EDGE_CURVE('',#665,#727,#735,.T.);
#735 = LINE('',#736,#737);
#736 = CARTESIAN_POINT('',(0.,-38.768,0.));
#737 = VECTOR('',#738,1.);
#738 = DIRECTION('',(0.,1.,0.));
#739 = PLANE('',#740);
#740 = AXIS2_PLACEMENT_3D('',#741,#742,#743);
#741 = CARTESIAN_POINT('',(0.,-38.768,0.));
#742 = DIRECTION('',(-1.,0.,0.));
#743 = DIRECTION('',(0.,1.,0.));
#744 = ADVANCED_FACE('',(#745,#756,#767,#778,#789,#800,#811,#822,#833,
    #844,#855,#866,#877),#888,.F.);
#745 = FACE_BOUND('',#746,.F.);
#746 = EDGE_LOOP('',(#747,#748,#749,#755));
#747 = ORIENTED_EDGE('',*,*,#672,.F.);
#748 = ORIENTED_EDGE('',*,*,#703,.F.);
#749 = ORIENTED_EDGE('',*,*,#750,.F.);
#750 = EDGE_CURVE('',#727,#687,#751,.T.);
#751 = LINE('',#752,#753);
#752 = CARTESIAN_POINT('',(0.,-0.,0.));
#753 = VECTOR('',#754,1.);
#754 = DIRECTION('',(1.,0.,0.));
#755 = ORIENTED_EDGE('',*,*,#734,.F.);
#756 = FACE_BOUND('',#757,.F.);
#757 = EDGE_LOOP('',(#758));
#758 = ORIENTED_EDGE('',*,*,#759,.T.);
#759 = EDGE_CURVE('',#760,#760,#762,.T.);
#760 = VERTEX_POINT('',#761);
#761 = CARTESIAN_POINT('',(1.227,-29.918,0.));
#762 = CIRCLE('',#763,0.45);
#763 = AXIS2_PLACEMENT_3D('',#764,#765,#766);
#764 = CARTESIAN_POINT('',(1.227,-29.468,0.));
#765 = DIRECTION('',(-0.,0.,-1.));
#766 = DIRECTION('',(-0.,-1.,0.));
#767 = FACE_BOUND('',#768,.F.);
#768 = EDGE_LOOP('',(#769));
#769 = ORIENTED_EDGE('',*,*,#770,.T.);
#770 = EDGE_CURVE('',#771,#771,#773,.T.);
#771 = VERTEX_POINT('',#772);
#772 = CARTESIAN_POINT('',(2.,-34.518,0.));
#773 = CIRCLE('',#774,0.4);
#774 = AXIS2_PLACEMENT_3D('',#775,#776,#777);
#775 = CARTESIAN_POINT('',(2.,-34.118,0.));
#776 = DIRECTION('',(-0.,0.,-1.));
#777 = DIRECTION('',(-0.,-1.,0.));
#778 = FACE_BOUND('',#779,.F.);
#779 = EDGE_LOOP('',(#780));
#780 = ORIENTED_EDGE('',*,*,#781,.T.);
#781 = EDGE_CURVE('',#782,#782,#784,.T.);
#782 = VERTEX_POINT('',#783);
#783 = CARTESIAN_POINT('',(0.65,-26.635,0.));
#784 = CIRCLE('',#785,0.3);
#785 = AXIS2_PLACEMENT_3D('',#786,#787,#788);
#786 = CARTESIAN_POINT('',(0.65,-26.335,0.));
#787 = DIRECTION('',(-0.,0.,-1.));
#788 = DIRECTION('',(3.700743415417E-16,-1.,-0.));
#789 = FACE_BOUND('',#790,.F.);
#790 = EDGE_LOOP('',(#791));
#791 = ORIENTED_EDGE('',*,*,#792,.T.);
#792 = EDGE_CURVE('',#793,#793,#795,.T.);
#793 = VERTEX_POINT('',#794);
#794 = CARTESIAN_POINT('',(3.25,-23.202,0.));
#795 = CIRCLE('',#796,0.5);
#796 = AXIS2_PLACEMENT_3D('',#797,#798,#799);
#797 = CARTESIAN_POINT('',(3.25,-22.702,0.));
#798 = DIRECTION('',(-0.,0.,-1.));
#799 = DIRECTION('',(-0.,-1.,0.));
#800 = FACE_BOUND('',#801,.F.);
#801 = EDGE_LOOP('',(#802));
#802 = ORIENTED_EDGE('',*,*,#803,.T.);
#803 = EDGE_CURVE('',#804,#804,#806,.T.);
#804 = VERTEX_POINT('',#805);
#805 = CARTESIAN_POINT('',(4.5,-34.518,0.));
#806 = CIRCLE('',#807,0.4);
#807 = AXIS2_PLACEMENT_3D('',#808,#809,#810);
#808 = CARTESIAN_POINT('',(4.5,-34.118,0.));
#809 = DIRECTION('',(-0.,0.,-1.));
#810 = DIRECTION('',(-0.,-1.,0.));
#811 = FACE_BOUND('',#812,.F.);
#812 = EDGE_LOOP('',(#813));
#813 = ORIENTED_EDGE('',*,*,#814,.T.);
#814 = EDGE_CURVE('',#815,#815,#817,.T.);
#815 = VERTEX_POINT('',#816);
#816 = CARTESIAN_POINT('',(3.767,-29.918,0.));
#817 = CIRCLE('',#818,0.45);
#818 = AXIS2_PLACEMENT_3D('',#819,#820,#821);
#819 = CARTESIAN_POINT('',(3.767,-29.468,0.));
#820 = DIRECTION('',(-0.,0.,-1.));
#821 = DIRECTION('',(-0.,-1.,0.));
#822 = FACE_BOUND('',#823,.F.);
#823 = EDGE_LOOP('',(#824));
#824 = ORIENTED_EDGE('',*,*,#825,.T.);
#825 = EDGE_CURVE('',#826,#826,#828,.T.);
#826 = VERTEX_POINT('',#827);
#827 = CARTESIAN_POINT('',(5.85,-26.635,0.));
#828 = CIRCLE('',#829,0.3);
#829 = AXIS2_PLACEMENT_3D('',#830,#831,#832);
#830 = CARTESIAN_POINT('',(5.85,-26.335,0.));
#831 = DIRECTION('',(-0.,0.,-1.));
#832 = DIRECTION('',(-0.,-1.,0.));
#833 = FACE_BOUND('',#834,.F.);
#834 = EDGE_LOOP('',(#835));
#835 = ORIENTED_EDGE('',*,*,#836,.T.);
#836 = EDGE_CURVE('',#837,#837,#839,.T.);
#837 = VERTEX_POINT('',#838);
#838 = CARTESIAN_POINT('',(0.65,-13.401,0.));
#839 = CIRCLE('',#840,0.3);
#840 = AXIS2_PLACEMENT_3D('',#841,#842,#843);
#841 = CARTESIAN_POINT('',(0.65,-13.101,0.));
#842 = DIRECTION('',(-0.,0.,-1.));
#843 = DIRECTION('',(3.700743415417E-16,-1.,-0.));
#844 = FACE_BOUND('',#845,.F.);
#845 = EDGE_LOOP('',(#846));
#846 = ORIENTED_EDGE('',*,*,#847,.T.);
#847 = EDGE_CURVE('',#848,#848,#850,.T.);
#848 = VERTEX_POINT('',#849);
#849 = CARTESIAN_POINT('',(3.25,-18.202,0.));
#850 = CIRCLE('',#851,0.5);
#851 = AXIS2_PLACEMENT_3D('',#852,#853,#854);
#852 = CARTESIAN_POINT('',(3.25,-17.702,0.));
#853 = DIRECTION('',(-0.,0.,-1.));
#854 = DIRECTION('',(-0.,-1.,0.));
#855 = FACE_BOUND('',#856,.F.);
#856 = EDGE_LOOP('',(#857));
#857 = ORIENTED_EDGE('',*,*,#858,.T.);
#858 = EDGE_CURVE('',#859,#859,#861,.T.);
#859 = VERTEX_POINT('',#860);
#860 = CARTESIAN_POINT('',(3.25,-9.,0.));
#861 = CIRCLE('',#862,0.5);
#862 = AXIS2_PLACEMENT_3D('',#863,#864,#865);
#863 = CARTESIAN_POINT('',(3.25,-8.5,0.));
#864 = DIRECTION('',(-0.,0.,-1.));
#865 = DIRECTION('',(-0.,-1.,0.));
#866 = FACE_BOUND('',#867,.F.);
#867 = EDGE_LOOP('',(#868));
#868 = ORIENTED_EDGE('',*,*,#869,.T.);
#869 = EDGE_CURVE('',#870,#870,#872,.T.);
#870 = VERTEX_POINT('',#871);
#871 = CARTESIAN_POINT('',(3.25,-4.,0.));
#872 = CIRCLE('',#873,0.5);
#873 = AXIS2_PLACEMENT_3D('',#874,#875,#876);
#874 = CARTESIAN_POINT('',(3.25,-3.5,0.));
#875 = DIRECTION('',(-0.,0.,-1.));
#876 = DIRECTION('',(-0.,-1.,0.));
#877 = FACE_BOUND('',#878,.F.);
#878 = EDGE_LOOP('',(#879));
#879 = ORIENTED_EDGE('',*,*,#880,.T.);
#880 = EDGE_CURVE('',#881,#881,#883,.T.);
#881 = VERTEX_POINT('',#882);
#882 = CARTESIAN_POINT('',(5.85,-13.401,0.));
#883 = CIRCLE('',#884,0.3);
#884 = AXIS2_PLACEMENT_3D('',#885,#886,#887);
#885 = CARTESIAN_POINT('',(5.85,-13.101,0.));
#886 = DIRECTION('',(-0.,0.,-1.));
#887 = DIRECTION('',(-0.,-1.,0.));
#888 = PLANE('',#889);
#889 = AXIS2_PLACEMENT_3D('',#890,#891,#892);
#890 = CARTESIAN_POINT('',(0.,0.,0.));
#891 = DIRECTION('',(0.,0.,1.));
#892 = DIRECTION('',(1.,0.,-0.));
#893 = ADVANCED_FACE('',(#894,#905,#916,#927,#938,#949,#960,#971,#982,
    #993,#1004,#1015,#1026),#1037,.T.);
#894 = FACE_BOUND('',#895,.T.);
#895 = EDGE_LOOP('',(#896,#897,#898,#904));
#896 = ORIENTED_EDGE('',*,*,#656,.F.);
#897 = ORIENTED_EDGE('',*,*,#696,.F.);
#898 = ORIENTED_EDGE('',*,*,#899,.F.);
#899 = EDGE_CURVE('',#719,#689,#900,.T.);
#900 = LINE('',#901,#902);
#901 = CARTESIAN_POINT('',(0.,0.,1.51));
#902 = VECTOR('',#903,1.);
#903 = DIRECTION('',(1.,0.,0.));
#904 = ORIENTED_EDGE('',*,*,#718,.F.);
#905 = FACE_BOUND('',#906,.T.);
#906 = EDGE_LOOP('',(#907));
#907 = ORIENTED_EDGE('',*,*,#908,.T.);
#908 = EDGE_CURVE('',#909,#909,#911,.T.);
#909 = VERTEX_POINT('',#910);
#910 = CARTESIAN_POINT('',(1.227,-29.918,1.51));
#911 = CIRCLE('',#912,0.45);
#912 = AXIS2_PLACEMENT_3D('',#913,#914,#915);
#913 = CARTESIAN_POINT('',(1.227,-29.468,1.51));
#914 = DIRECTION('',(-0.,0.,-1.));
#915 = DIRECTION('',(-0.,-1.,0.));
#916 = FACE_BOUND('',#917,.T.);
#917 = EDGE_LOOP('',(#918));
#918 = ORIENTED_EDGE('',*,*,#919,.T.);
#919 = EDGE_CURVE('',#920,#920,#922,.T.);
#920 = VERTEX_POINT('',#921);
#921 = CARTESIAN_POINT('',(2.,-34.518,1.51));
#922 = CIRCLE('',#923,0.4);
#923 = AXIS2_PLACEMENT_3D('',#924,#925,#926);
#924 = CARTESIAN_POINT('',(2.,-34.118,1.51));
#925 = DIRECTION('',(-0.,0.,-1.));
#926 = DIRECTION('',(-0.,-1.,0.));
#927 = FACE_BOUND('',#928,.T.);
#928 = EDGE_LOOP('',(#929));
#929 = ORIENTED_EDGE('',*,*,#930,.T.);
#930 = EDGE_CURVE('',#931,#931,#933,.T.);
#931 = VERTEX_POINT('',#932);
#932 = CARTESIAN_POINT('',(0.65,-26.635,1.51));
#933 = CIRCLE('',#934,0.3);
#934 = AXIS2_PLACEMENT_3D('',#935,#936,#937);
#935 = CARTESIAN_POINT('',(0.65,-26.335,1.51));
#936 = DIRECTION('',(-0.,0.,-1.));
#937 = DIRECTION('',(3.700743415417E-16,-1.,-0.));
#938 = FACE_BOUND('',#939,.T.);
#939 = EDGE_LOOP('',(#940));
#940 = ORIENTED_EDGE('',*,*,#941,.T.);
#941 = EDGE_CURVE('',#942,#942,#944,.T.);
#942 = VERTEX_POINT('',#943);
#943 = CARTESIAN_POINT('',(3.25,-23.202,1.51));
#944 = CIRCLE('',#945,0.5);
#945 = AXIS2_PLACEMENT_3D('',#946,#947,#948);
#946 = CARTESIAN_POINT('',(3.25,-22.702,1.51));
#947 = DIRECTION('',(-0.,0.,-1.));
#948 = DIRECTION('',(-0.,-1.,0.));
#949 = FACE_BOUND('',#950,.T.);
#950 = EDGE_LOOP('',(#951));
#951 = ORIENTED_EDGE('',*,*,#952,.T.);
#952 = EDGE_CURVE('',#953,#953,#955,.T.);
#953 = VERTEX_POINT('',#954);
#954 = CARTESIAN_POINT('',(4.5,-34.518,1.51));
#955 = CIRCLE('',#956,0.4);
#956 = AXIS2_PLACEMENT_3D('',#957,#958,#959);
#957 = CARTESIAN_POINT('',(4.5,-34.118,1.51));
#958 = DIRECTION('',(-0.,0.,-1.));
#959 = DIRECTION('',(-0.,-1.,0.));
#960 = FACE_BOUND('',#961,.T.);
#961 = EDGE_LOOP('',(#962));
#962 = ORIENTED_EDGE('',*,*,#963,.T.);
#963 = EDGE_CURVE('',#964,#964,#966,.T.);
#964 = VERTEX_POINT('',#965);
#965 = CARTESIAN_POINT('',(3.767,-29.918,1.51));
#966 = CIRCLE('',#967,0.45);
#967 = AXIS2_PLACEMENT_3D('',#968,#969,#970);
#968 = CARTESIAN_POINT('',(3.767,-29.468,1.51));
#969 = DIRECTION('',(-0.,0.,-1.));
#970 = DIRECTION('',(-0.,-1.,0.));
#971 = FACE_BOUND('',#972,.T.);
#972 = EDGE_LOOP('',(#973));
#973 = ORIENTED_EDGE('',*,*,#974,.T.);
#974 = EDGE_CURVE('',#975,#975,#977,.T.);
#975 = VERTEX_POINT('',#976);
#976 = CARTESIAN_POINT('',(5.85,-26.635,1.51));
#977 = CIRCLE('',#978,0.3);
#978 = AXIS2_PLACEMENT_3D('',#979,#980,#981);
#979 = CARTESIAN_POINT('',(5.85,-26.335,1.51));
#980 = DIRECTION('',(-0.,0.,-1.));
#981 = DIRECTION('',(-0.,-1.,0.));
#982 = FACE_BOUND('',#983,.T.);
#983 = EDGE_LOOP('',(#984));
#984 = ORIENTED_EDGE('',*,*,#985,.T.);
#985 = EDGE_CURVE('',#986,#986,#988,.T.);
#986 = VERTEX_POINT('',#987);
#987 = CARTESIAN_POINT('',(0.65,-13.401,1.51));
#988 = CIRCLE('',#989,0.3);
#989 = AXIS2_PLACEMENT_3D('',#990,#991,#992);
#990 = CARTESIAN_POINT('',(0.65,-13.101,1.51));
#991 = DIRECTION('',(-0.,0.,-1.));
#992 = DIRECTION('',(3.700743415417E-16,-1.,-0.));
#993 = FACE_BOUND('',#994,.T.);
#994 = EDGE_LOOP('',(#995));
#995 = ORIENTED_EDGE('',*,*,#996,.T.);
#996 = EDGE_CURVE('',#997,#997,#999,.T.);
#997 = VERTEX_POINT('',#998);
#998 = CARTESIAN_POINT('',(3.25,-18.202,1.51));
#999 = CIRCLE('',#1000,0.5);
#1000 = AXIS2_PLACEMENT_3D('',#1001,#1002,#1003);
#1001 = CARTESIAN_POINT('',(3.25,-17.702,1.51));
#1002 = DIRECTION('',(-0.,0.,-1.));
#1003 = DIRECTION('',(-0.,-1.,0.));
#1004 = FACE_BOUND('',#1005,.T.);
#1005 = EDGE_LOOP('',(#1006));
#1006 = ORIENTED_EDGE('',*,*,#1007,.T.);
#1007 = EDGE_CURVE('',#1008,#1008,#1010,.T.);
#1008 = VERTEX_POINT('',#1009);
#1009 = CARTESIAN_POINT('',(3.25,-9.,1.51));
#1010 = CIRCLE('',#1011,0.5);
#1011 = AXIS2_PLACEMENT_3D('',#1012,#1013,#1014);
#1012 = CARTESIAN_POINT('',(3.25,-8.5,1.51));
#1013 = DIRECTION('',(-0.,0.,-1.));
#1014 = DIRECTION('',(-0.,-1.,0.));
#1015 = FACE_BOUND('',#1016,.T.);
#1016 = EDGE_LOOP('',(#1017));
#1017 = ORIENTED_EDGE('',*,*,#1018,.T.);
#1018 = EDGE_CURVE('',#1019,#1019,#1021,.T.);
#1019 = VERTEX_POINT('',#1020);
#1020 = CARTESIAN_POINT('',(3.25,-4.,1.51));
#1021 = CIRCLE('',#1022,0.5);
#1022 = AXIS2_PLACEMENT_3D('',#1023,#1024,#1025);
#1023 = CARTESIAN_POINT('',(3.25,-3.5,1.51));
#1024 = DIRECTION('',(-0.,0.,-1.));
#1025 = DIRECTION('',(-0.,-1.,0.));
#1026 = FACE_BOUND('',#1027,.T.);
#1027 = EDGE_LOOP('',(#1028));
#1028 = ORIENTED_EDGE('',*,*,#1029,.T.);
#1029 = EDGE_CURVE('',#1030,#1030,#1032,.T.);
#1030 = VERTEX_POINT('',#1031);
#1031 = CARTESIAN_POINT('',(5.85,-13.401,1.51));
#1032 = CIRCLE('',#1033,0.3);
#1033 = AXIS2_PLACEMENT_3D('',#1034,#1035,#1036);
#1034 = CARTESIAN_POINT('',(5.85,-13.101,1.51));
#1035 = DIRECTION('',(-0.,0.,-1.));
#1036 = DIRECTION('',(-0.,-1.,0.));
#1037 = PLANE('',#1038);
#1038 = AXIS2_PLACEMENT_3D('',#1039,#1040,#1041);
#1039 = CARTESIAN_POINT('',(0.,0.,1.51));
#1040 = DIRECTION('',(0.,0.,1.));
#1041 = DIRECTION('',(1.,0.,-0.));
#1042 = ADVANCED_FACE('',(#1043),#1049,.T.);
#1043 = FACE_BOUND('',#1044,.T.);
#1044 = EDGE_LOOP('',(#1045,#1046,#1047,#1048));
#1045 = ORIENTED_EDGE('',*,*,#726,.T.);
#1046 = ORIENTED_EDGE('',*,*,#899,.T.);
#1047 = ORIENTED_EDGE('',*,*,#686,.F.);
#1048 = ORIENTED_EDGE('',*,*,#750,.F.);
#1049 = PLANE('',#1050);
#1050 = AXIS2_PLACEMENT_3D('',#1051,#1052,#1053);
#1051 = CARTESIAN_POINT('',(0.,0.,0.));
#1052 = DIRECTION('',(0.,1.,0.));
#1053 = DIRECTION('',(1.,0.,0.));
#1054 = ADVANCED_FACE('',(#1055),#1066,.F.);
#1055 = FACE_BOUND('',#1056,.T.);
#1056 = EDGE_LOOP('',(#1057,#1058,#1064,#1065));
#1057 = ORIENTED_EDGE('',*,*,#759,.T.);
#1058 = ORIENTED_EDGE('',*,*,#1059,.T.);
#1059 = EDGE_CURVE('',#760,#909,#1060,.T.);
#1060 = LINE('',#1061,#1062);
#1061 = CARTESIAN_POINT('',(1.227,-29.918,-4.6E-02));
#1062 = VECTOR('',#1063,1.);
#1063 = DIRECTION('',(0.,0.,1.));
#1064 = ORIENTED_EDGE('',*,*,#908,.F.);
#1065 = ORIENTED_EDGE('',*,*,#1059,.F.);
#1066 = CYLINDRICAL_SURFACE('',#1067,0.45);
#1067 = AXIS2_PLACEMENT_3D('',#1068,#1069,#1070);
#1068 = CARTESIAN_POINT('',(1.227,-29.468,-4.6E-02));
#1069 = DIRECTION('',(-0.,-0.,-1.));
#1070 = DIRECTION('',(-0.,-1.,0.));
#1071 = ADVANCED_FACE('',(#1072),#1083,.F.);
#1072 = FACE_BOUND('',#1073,.T.);
#1073 = EDGE_LOOP('',(#1074,#1075,#1081,#1082));
#1074 = ORIENTED_EDGE('',*,*,#770,.T.);
#1075 = ORIENTED_EDGE('',*,*,#1076,.T.);
#1076 = EDGE_CURVE('',#771,#920,#1077,.T.);
#1077 = LINE('',#1078,#1079);
#1078 = CARTESIAN_POINT('',(2.,-34.518,-4.6E-02));
#1079 = VECTOR('',#1080,1.);
#1080 = DIRECTION('',(0.,0.,1.));
#1081 = ORIENTED_EDGE('',*,*,#919,.F.);
#1082 = ORIENTED_EDGE('',*,*,#1076,.F.);
#1083 = CYLINDRICAL_SURFACE('',#1084,0.4);
#1084 = AXIS2_PLACEMENT_3D('',#1085,#1086,#1087);
#1085 = CARTESIAN_POINT('',(2.,-34.118,-4.6E-02));
#1086 = DIRECTION('',(-0.,-0.,-1.));
#1087 = DIRECTION('',(-0.,-1.,0.));
#1088 = ADVANCED_FACE('',(#1089),#1100,.F.);
#1089 = FACE_BOUND('',#1090,.T.);
#1090 = EDGE_LOOP('',(#1091,#1092,#1098,#1099));
#1091 = ORIENTED_EDGE('',*,*,#781,.T.);
#1092 = ORIENTED_EDGE('',*,*,#1093,.T.);
#1093 = EDGE_CURVE('',#782,#931,#1094,.T.);
#1094 = LINE('',#1095,#1096);
#1095 = CARTESIAN_POINT('',(0.65,-26.635,-4.6E-02));
#1096 = VECTOR('',#1097,1.);
#1097 = DIRECTION('',(0.,0.,1.));
#1098 = ORIENTED_EDGE('',*,*,#930,.F.);
#1099 = ORIENTED_EDGE('',*,*,#1093,.F.);
#1100 = CYLINDRICAL_SURFACE('',#1101,0.3);
#1101 = AXIS2_PLACEMENT_3D('',#1102,#1103,#1104);
#1102 = CARTESIAN_POINT('',(0.65,-26.335,-4.6E-02));
#1103 = DIRECTION('',(-0.,0.,-1.));
#1104 = DIRECTION('',(3.700743415417E-16,-1.,-0.));
#1105 = ADVANCED_FACE('',(#1106),#1117,.F.);
#1106 = FACE_BOUND('',#1107,.T.);
#1107 = EDGE_LOOP('',(#1108,#1109,#1115,#1116));
#1108 = ORIENTED_EDGE('',*,*,#792,.T.);
#1109 = ORIENTED_EDGE('',*,*,#1110,.T.);
#1110 = EDGE_CURVE('',#793,#942,#1111,.T.);
#1111 = LINE('',#1112,#1113);
#1112 = CARTESIAN_POINT('',(3.25,-23.202,-4.6E-02));
#1113 = VECTOR('',#1114,1.);
#1114 = DIRECTION('',(0.,0.,1.));
#1115 = ORIENTED_EDGE('',*,*,#941,.F.);
#1116 = ORIENTED_EDGE('',*,*,#1110,.F.);
#1117 = CYLINDRICAL_SURFACE('',#1118,0.5);
#1118 = AXIS2_PLACEMENT_3D('',#1119,#1120,#1121);
#1119 = CARTESIAN_POINT('',(3.25,-22.702,-4.6E-02));
#1120 = DIRECTION('',(-0.,-0.,-1.));
#1121 = DIRECTION('',(-0.,-1.,0.));
#1122 = ADVANCED_FACE('',(#1123),#1134,.F.);
#1123 = FACE_BOUND('',#1124,.T.);
#1124 = EDGE_LOOP('',(#1125,#1126,#1132,#1133));
#1125 = ORIENTED_EDGE('',*,*,#803,.T.);
#1126 = ORIENTED_EDGE('',*,*,#1127,.T.);
#1127 = EDGE_CURVE('',#804,#953,#1128,.T.);
#1128 = LINE('',#1129,#1130);
#1129 = CARTESIAN_POINT('',(4.5,-34.518,-4.6E-02));
#1130 = VECTOR('',#1131,1.);
#1131 = DIRECTION('',(0.,0.,1.));
#1132 = ORIENTED_EDGE('',*,*,#952,.F.);
#1133 = ORIENTED_EDGE('',*,*,#1127,.F.);
#1134 = CYLINDRICAL_SURFACE('',#1135,0.4);
#1135 = AXIS2_PLACEMENT_3D('',#1136,#1137,#1138);
#1136 = CARTESIAN_POINT('',(4.5,-34.118,-4.6E-02));
#1137 = DIRECTION('',(-0.,-0.,-1.));
#1138 = DIRECTION('',(-0.,-1.,0.));
#1139 = ADVANCED_FACE('',(#1140),#1151,.F.);
#1140 = FACE_BOUND('',#1141,.T.);
#1141 = EDGE_LOOP('',(#1142,#1143,#1149,#1150));
#1142 = ORIENTED_EDGE('',*,*,#814,.T.);
#1143 = ORIENTED_EDGE('',*,*,#1144,.T.);
#1144 = EDGE_CURVE('',#815,#964,#1145,.T.);
#1145 = LINE('',#1146,#1147);
#1146 = CARTESIAN_POINT('',(3.767,-29.918,-4.6E-02));
#1147 = VECTOR('',#1148,1.);
#1148 = DIRECTION('',(0.,0.,1.));
#1149 = ORIENTED_EDGE('',*,*,#963,.F.);
#1150 = ORIENTED_EDGE('',*,*,#1144,.F.);
#1151 = CYLINDRICAL_SURFACE('',#1152,0.45);
#1152 = AXIS2_PLACEMENT_3D('',#1153,#1154,#1155);
#1153 = CARTESIAN_POINT('',(3.767,-29.468,-4.6E-02));
#1154 = DIRECTION('',(-0.,-0.,-1.));
#1155 = DIRECTION('',(-0.,-1.,0.));
#1156 = ADVANCED_FACE('',(#1157),#1168,.F.);
#1157 = FACE_BOUND('',#1158,.T.);
#1158 = EDGE_LOOP('',(#1159,#1160,#1166,#1167));
#1159 = ORIENTED_EDGE('',*,*,#825,.T.);
#1160 = ORIENTED_EDGE('',*,*,#1161,.T.);
#1161 = EDGE_CURVE('',#826,#975,#1162,.T.);
#1162 = LINE('',#1163,#1164);
#1163 = CARTESIAN_POINT('',(5.85,-26.635,-4.6E-02));
#1164 = VECTOR('',#1165,1.);
#1165 = DIRECTION('',(0.,0.,1.));
#1166 = ORIENTED_EDGE('',*,*,#974,.F.);
#1167 = ORIENTED_EDGE('',*,*,#1161,.F.);
#1168 = CYLINDRICAL_SURFACE('',#1169,0.3);
#1169 = AXIS2_PLACEMENT_3D('',#1170,#1171,#1172);
#1170 = CARTESIAN_POINT('',(5.85,-26.335,-4.6E-02));
#1171 = DIRECTION('',(-0.,-0.,-1.));
#1172 = DIRECTION('',(-0.,-1.,0.));
#1173 = ADVANCED_FACE('',(#1174),#1185,.F.);
#1174 = FACE_BOUND('',#1175,.T.);
#1175 = EDGE_LOOP('',(#1176,#1177,#1183,#1184));
#1176 = ORIENTED_EDGE('',*,*,#836,.T.);
#1177 = ORIENTED_EDGE('',*,*,#1178,.T.);
#1178 = EDGE_CURVE('',#837,#986,#1179,.T.);
#1179 = LINE('',#1180,#1181);
#1180 = CARTESIAN_POINT('',(0.65,-13.401,-4.6E-02));
#1181 = VECTOR('',#1182,1.);
#1182 = DIRECTION('',(0.,0.,1.));
#1183 = ORIENTED_EDGE('',*,*,#985,.F.);
#1184 = ORIENTED_EDGE('',*,*,#1178,.F.);
#1185 = CYLINDRICAL_SURFACE('',#1186,0.3);
#1186 = AXIS2_PLACEMENT_3D('',#1187,#1188,#1189);
#1187 = CARTESIAN_POINT('',(0.65,-13.101,-4.6E-02));
#1188 = DIRECTION('',(-0.,0.,-1.));
#1189 = DIRECTION('',(3.700743415417E-16,-1.,-0.));
#1190 = ADVANCED_FACE('',(#1191),#1202,.F.);
#1191 = FACE_BOUND('',#1192,.T.);
#1192 = EDGE_LOOP('',(#1193,#1194,#1200,#1201));
#1193 = ORIENTED_EDGE('',*,*,#847,.T.);
#1194 = ORIENTED_EDGE('',*,*,#1195,.T.);
#1195 = EDGE_CURVE('',#848,#997,#1196,.T.);
#1196 = LINE('',#1197,#1198);
#1197 = CARTESIAN_POINT('',(3.25,-18.202,-4.6E-02));
#1198 = VECTOR('',#1199,1.);
#1199 = DIRECTION('',(0.,0.,1.));
#1200 = ORIENTED_EDGE('',*,*,#996,.F.);
#1201 = ORIENTED_EDGE('',*,*,#1195,.F.);
#1202 = CYLINDRICAL_SURFACE('',#1203,0.5);
#1203 = AXIS2_PLACEMENT_3D('',#1204,#1205,#1206);
#1204 = CARTESIAN_POINT('',(3.25,-17.702,-4.6E-02));
#1205 = DIRECTION('',(-0.,-0.,-1.));
#1206 = DIRECTION('',(-0.,-1.,0.));
#1207 = ADVANCED_FACE('',(#1208),#1219,.F.);
#1208 = FACE_BOUND('',#1209,.T.);
#1209 = EDGE_LOOP('',(#1210,#1211,#1217,#1218));
#1210 = ORIENTED_EDGE('',*,*,#858,.T.);
#1211 = ORIENTED_EDGE('',*,*,#1212,.T.);
#1212 = EDGE_CURVE('',#859,#1008,#1213,.T.);
#1213 = LINE('',#1214,#1215);
#1214 = CARTESIAN_POINT('',(3.25,-9.,-4.6E-02));
#1215 = VECTOR('',#1216,1.);
#1216 = DIRECTION('',(0.,0.,1.));
#1217 = ORIENTED_EDGE('',*,*,#1007,.F.);
#1218 = ORIENTED_EDGE('',*,*,#1212,.F.);
#1219 = CYLINDRICAL_SURFACE('',#1220,0.5);
#1220 = AXIS2_PLACEMENT_3D('',#1221,#1222,#1223);
#1221 = CARTESIAN_POINT('',(3.25,-8.5,-4.6E-02));
#1222 = DIRECTION('',(-0.,-0.,-1.));
#1223 = DIRECTION('',(-0.,-1.,0.));
#1224 = ADVANCED_FACE('',(#1225),#1236,.F.);
#1225 = FACE_BOUND('',#1226,.T.);
#1226 = EDGE_LOOP('',(#1227,#1228,#1234,#1235));
#1227 = ORIENTED_EDGE('',*,*,#869,.T.);
#1228 = ORIENTED_EDGE('',*,*,#1229,.T.);
#1229 = EDGE_CURVE('',#870,#1019,#1230,.T.);
#1230 = LINE('',#1231,#1232);
#1231 = CARTESIAN_POINT('',(3.25,-4.,-4.6E-02));
#1232 = VECTOR('',#1233,1.);
#1233 = DIRECTION('',(0.,0.,1.));
#1234 = ORIENTED_EDGE('',*,*,#1018,.F.);
#1235 = ORIENTED_EDGE('',*,*,#1229,.F.);
#1236 = CYLINDRICAL_SURFACE('',#1237,0.5);
#1237 = AXIS2_PLACEMENT_3D('',#1238,#1239,#1240);
#1238 = CARTESIAN_POINT('',(3.25,-3.5,-4.6E-02));
#1239 = DIRECTION('',(-0.,-0.,-1.));
#1240 = DIRECTION('',(-0.,-1.,0.));
#1241 = ADVANCED_FACE('',(#1242),#1253,.F.);
#1242 = FACE_BOUND('',#1243,.T.);
#1243 = EDGE_LOOP('',(#1244,#1245,#1251,#1252));
#1244 = ORIENTED_EDGE('',*,*,#880,.T.);
#1245 = ORIENTED_EDGE('',*,*,#1246,.T.);
#1246 = EDGE_CURVE('',#881,#1030,#1247,.T.);
#1247 = LINE('',#1248,#1249);
#1248 = CARTESIAN_POINT('',(5.85,-13.401,-4.6E-02));
#1249 = VECTOR('',#1250,1.);
#1250 = DIRECTION('',(0.,0.,1.));
#1251 = ORIENTED_EDGE('',*,*,#1029,.F.);
#1252 = ORIENTED_EDGE('',*,*,#1246,.F.);
#1253 = CYLINDRICAL_SURFACE('',#1254,0.3);
#1254 = AXIS2_PLACEMENT_3D('',#1255,#1256,#1257);
#1255 = CARTESIAN_POINT('',(5.85,-13.101,-4.6E-02));
#1256 = DIRECTION('',(-0.,-0.,-1.));
#1257 = DIRECTION('',(-0.,-1.,0.));
#1258 = ( GEOMETRIC_REPRESENTATION_CONTEXT(3) 
GLOBAL_UNCERTAINTY_ASSIGNED_CONTEXT((#1262)) 
GLOBAL_UNIT_ASSIGNED_CONTEXT((#1259,#1260,#1261)) REPRESENTATION_CONTEXT
('Context #1','3D Context with UNIT and UNCERTAINTY') );
#1259 = ( LENGTH_UNIT() NAMED_UNIT(*) SI_UNIT(.MILLI.,.METRE.) );
#1260 = ( NAMED_UNIT(*) PLANE_ANGLE_UNIT() SI_UNIT($,.RADIAN.) );
#1261 = ( NAMED_UNIT(*) SI_UNIT($,.STERADIAN.) SOLID_ANGLE_UNIT() );
#1262 = UNCERTAINTY_MEASURE_WITH_UNIT(LENGTH_MEASURE(1.E-07),#1259,
  'distance_accuracy_value','confusion accuracy');
#1263 = CONTEXT_DEPENDENT_SHAPE_REPRESENTATION(#1264,#1266);
#1264 = ( REPRESENTATION_RELATIONSHIP('','',#639,#10) 
REPRESENTATION_RELATIONSHIP_WITH_TRANSFORMATION(#1265) 
SHAPE_REPRESENTATION_RELATIONSHIP() );
#1265 = ITEM_DEFINED_TRANSFORMATION('','',#11,#19);
#1266 = PRODUCT_DEFINITION_SHAPE('Placement','Placement of an item',
  #1267);
#1267 = NEXT_ASSEMBLY_USAGE_OCCURRENCE('2','=>[0:1:1:3]','',#5,#634,$);
#1268 = PRODUCT_RELATED_PRODUCT_CATEGORY('part',$,(#636));
#1269 = MECHANICAL_DESIGN_GEOMETRIC_PRESENTATION_REPRESENTATION('',(
    #1270,#1280,#1289,#1298,#1307,#1316,#1325,#1334,#1343,#1352),#621);
#1270 = STYLED_ITEM('color',(#1271),#39);
#1271 = PRESENTATION_STYLE_ASSIGNMENT((#1272));
#1272 = SURFACE_STYLE_USAGE(.BOTH.,#1273);
#1273 = SURFACE_SIDE_STYLE('',(#1274,#1278));
#1274 = SURFACE_STYLE_FILL_AREA(#1275);
#1275 = FILL_AREA_STYLE('',(#1276));
#1276 = FILL_AREA_STYLE_COLOUR('',#1277);
#1277 = DRAUGHTING_PRE_DEFINED_COLOUR('white');
#1278 = SURFACE_STYLE_RENDERING_WITH_PROPERTIES(.NORMAL_SHADING.,#1277,(
    #1279));
#1279 = SURFACE_STYLE_TRANSPARENT(0.100000023842);
#1280 = STYLED_ITEM('color',(#1281),#91);
#1281 = PRESENTATION_STYLE_ASSIGNMENT((#1282));
#1282 = SURFACE_STYLE_USAGE(.BOTH.,#1283);
#1283 = SURFACE_SIDE_STYLE('',(#1284,#1287));
#1284 = SURFACE_STYLE_FILL_AREA(#1285);
#1285 = FILL_AREA_STYLE('',(#1286));
#1286 = FILL_AREA_STYLE_COLOUR('',#1277);
#1287 = SURFACE_STYLE_RENDERING_WITH_PROPERTIES(.NORMAL_SHADING.,#1277,(
    #1288));
#1288 = SURFACE_STYLE_TRANSPARENT(0.100000023842);
#1289 = STYLED_ITEM('color',(#1290),#143);
#1290 = PRESENTATION_STYLE_ASSIGNMENT((#1291));
#1291 = SURFACE_STYLE_USAGE(.BOTH.,#1292);
#1292 = SURFACE_SIDE_STYLE('',(#1293,#1296));
#1293 = SURFACE_STYLE_FILL_AREA(#1294);
#1294 = FILL_AREA_STYLE('',(#1295));
#1295 = FILL_AREA_STYLE_COLOUR('',#1277);
#1296 = SURFACE_STYLE_RENDERING_WITH_PROPERTIES(.NORMAL_SHADING.,#1277,(
    #1297));
#1297 = SURFACE_STYLE_TRANSPARENT(0.100000023842);
#1298 = STYLED_ITEM('color',(#1299),#187);
#1299 = PRESENTATION_STYLE_ASSIGNMENT((#1300));
#1300 = SURFACE_STYLE_USAGE(.BOTH.,#1301);
#1301 = SURFACE_SIDE_STYLE('',(#1302,#1305));
#1302 = SURFACE_STYLE_FILL_AREA(#1303);
#1303 = FILL_AREA_STYLE('',(#1304));
#1304 = FILL_AREA_STYLE_COLOUR('',#1277);
#1305 = SURFACE_STYLE_RENDERING_WITH_PROPERTIES(.NORMAL_SHADING.,#1277,(
    #1306));
#1306 = SURFACE_STYLE_TRANSPARENT(0.100000023842);
#1307 = STYLED_ITEM('color',(#1308),#231);
#1308 = PRESENTATION_STYLE_ASSIGNMENT((#1309));
#1309 = SURFACE_STYLE_USAGE(.BOTH.,#1310);
#1310 = SURFACE_SIDE_STYLE('',(#1311,#1314));
#1311 = SURFACE_STYLE_FILL_AREA(#1312);
#1312 = FILL_AREA_STYLE('',(#1313));
#1313 = FILL_AREA_STYLE_COLOUR('',#1277);
#1314 = SURFACE_STYLE_RENDERING_WITH_PROPERTIES(.NORMAL_SHADING.,#1277,(
    #1315));
#1315 = SURFACE_STYLE_TRANSPARENT(0.100000023842);
#1316 = STYLED_ITEM('color',(#1317),#307);
#1317 = PRESENTATION_STYLE_ASSIGNMENT((#1318));
#1318 = SURFACE_STYLE_USAGE(.BOTH.,#1319);
#1319 = SURFACE_SIDE_STYLE('',(#1320,#1323));
#1320 = SURFACE_STYLE_FILL_AREA(#1321);
#1321 = FILL_AREA_STYLE('',(#1322));
#1322 = FILL_AREA_STYLE_COLOUR('',#1277);
#1323 = SURFACE_STYLE_RENDERING_WITH_PROPERTIES(.NORMAL_SHADING.,#1277,(
    #1324));
#1324 = SURFACE_STYLE_TRANSPARENT(0.100000023842);
#1325 = STYLED_ITEM('color',(#1326),#383);
#1326 = PRESENTATION_STYLE_ASSIGNMENT((#1327));
#1327 = SURFACE_STYLE_USAGE(.BOTH.,#1328);
#1328 = SURFACE_SIDE_STYLE('',(#1329,#1332));
#1329 = SURFACE_STYLE_FILL_AREA(#1330);
#1330 = FILL_AREA_STYLE('',(#1331));
#1331 = FILL_AREA_STYLE_COLOUR('',#1277);
#1332 = SURFACE_STYLE_RENDERING_WITH_PROPERTIES(.NORMAL_SHADING.,#1277,(
    #1333));
#1333 = SURFACE_STYLE_TRANSPARENT(0.100000023842);
#1334 = STYLED_ITEM('color',(#1335),#427);
#1335 = PRESENTATION_STYLE_ASSIGNMENT((#1336));
#1336 = SURFACE_STYLE_USAGE(.BOTH.,#1337);
#1337 = SURFACE_SIDE_STYLE('',(#1338,#1341));
#1338 = SURFACE_STYLE_FILL_AREA(#1339);
#1339 = FILL_AREA_STYLE('',(#1340));
#1340 = FILL_AREA_STYLE_COLOUR('',#1277);
#1341 = SURFACE_STYLE_RENDERING_WITH_PROPERTIES(.NORMAL_SHADING.,#1277,(
    #1342));
#1342 = SURFACE_STYLE_TRANSPARENT(0.100000023842);
#1343 = STYLED_ITEM('color',(#1344),#471);
#1344 = PRESENTATION_STYLE_ASSIGNMENT((#1345));
#1345 = SURFACE_STYLE_USAGE(.BOTH.,#1346);
#1346 = SURFACE_SIDE_STYLE('',(#1347,#1350));
#1347 = SURFACE_STYLE_FILL_AREA(#1348);
#1348 = FILL_AREA_STYLE('',(#1349));
#1349 = FILL_AREA_STYLE_COLOUR('',#1277);
#1350 = SURFACE_STYLE_RENDERING_WITH_PROPERTIES(.NORMAL_SHADING.,#1277,(
    #1351));
#1351 = SURFACE_STYLE_TRANSPARENT(0.100000023842);
#1352 = STYLED_ITEM('color',(#1353),#547);
#1353 = PRESENTATION_STYLE_ASSIGNMENT((#1354));
#1354 = SURFACE_STYLE_USAGE(.BOTH.,#1355);
#1355 = SURFACE_SIDE_STYLE('',(#1356,#1359));
#1356 = SURFACE_STYLE_FILL_AREA(#1357);
#1357 = FILL_AREA_STYLE('',(#1358));
#1358 = FILL_AREA_STYLE_COLOUR('',#1277);
#1359 = SURFACE_STYLE_RENDERING_WITH_PROPERTIES(.NORMAL_SHADING.,#1277,(
    #1360));
#1360 = SURFACE_STYLE_TRANSPARENT(0.100000023842);
#1361 = MECHANICAL_DESIGN_GEOMETRIC_PRESENTATION_REPRESENTATION('',(
    #1362),#1258);
#1362 = STYLED_ITEM('color',(#1363),#640);
#1363 = PRESENTATION_STYLE_ASSIGNMENT((#1364));
#1364 = SURFACE_STYLE_USAGE(.BOTH.,#1365);
#1365 = SURFACE_SIDE_STYLE('',(#1366));
#1366 = SURFACE_STYLE_FILL_AREA(#1367);
#1367 = FILL_AREA_STYLE('',(#1368));
#1368 = FILL_AREA_STYLE_COLOUR('',#1369);
#1369 = COLOUR_RGB('',0.313304153717,0.484529207832,0.410020903123);
ENDSEC;
END-ISO-10303-21;
