<svg xmlns="http://www.w3.org/2000/svg" viewBox="0 0 269.6 190.3" width="1079" height="761">
<rect x="0" y="0" width="269.6" height="190.3" fill="#FFFFFF"/>
<text x="8" y="10" font-family="DejaVu Sans, Arial, Helvetica, sans-serif" font-size="5" font-weight="700" fill="#1F2328">SECTION A-A AT X = 63.99 (M10), LOOKING AT THE LEFT CHEEK  1:1</text>
<text x="8" y="16" font-family="DejaVu Sans, Arial, Helvetica, sans-serif" font-size="2.8" fill="#6E7781">the stack front to back · cut parts filled · beyond / phantom dashed · sight lines at ±10°</text>
<polygon points="58.00,146.30 140.04,146.30 140.04,26.00 75.20,26.00 67.84,60.60 67.84,97.00 58.00,143.30" fill="#F3F5F7" stroke="#6E7781" stroke-width="0.25" stroke-linejoin="round"/>
<polygon points="123.14,47.65 140.04,47.65 140.04,35.65 123.14,35.65" fill="#FFFFFF" stroke="#CF222E" stroke-width="0.25" stroke-linejoin="round" stroke-dasharray="0.8 0.5"/>
<text x="123.54" y="38.05" font-family="DejaVu Sans, Arial, Helvetica, sans-serif" font-size="2.00" fill="#CF222E" text-anchor="start" font-weight="400">USB slot</text>
<polygon points="101.44,132.50 111.44,132.50 111.44,124.50 101.44,124.50" fill="#E3E8ED" stroke="#6E7781" stroke-width="0.25" stroke-linejoin="round"/>
<text x="101.94" y="123.50" font-family="DejaVu Sans, Arial, Helvetica, sans-serif" font-size="1.80" fill="#6E7781" text-anchor="start" font-weight="400">boss H6</text>
<polygon points="101.44,57.50 111.44,57.50 111.44,50.50 101.44,50.50" fill="#E3E8ED" stroke="#6E7781" stroke-width="0.25" stroke-linejoin="round"/>
<text x="101.94" y="49.50" font-family="DejaVu Sans, Arial, Helvetica, sans-serif" font-size="1.80" fill="#6E7781" text-anchor="start" font-weight="400">boss H8</text>
<polygon points="58.00,146.30 140.04,146.30 140.04,143.30 60.04,143.30 61.48,136.54 59.52,136.13 58.00,143.30" fill="#8C959F" stroke="#1F2328" stroke-width="0.30" stroke-linejoin="round"/>
<polygon points="67.84,97.00 59.52,136.13 61.48,136.54 69.80,97.42" fill="#2D333B" stroke="#57606A" stroke-width="0.30" stroke-linejoin="round"/>
<polygon points="70.09,99.00 96.34,99.00 96.34,97.00 70.09,97.00" fill="#8C959F" stroke="#1F2328" stroke-width="0.30" stroke-linejoin="round"/>
<polygon points="67.84,60.60 75.20,26.00 140.04,26.00 140.04,29.00 77.63,29.00 71.33,58.60 96.34,58.60 96.34,60.60" fill="#F59E42" stroke="#1F2328" stroke-width="0.30" stroke-linejoin="round"/>
<polygon points="140.04,146.30 141.64,146.30 141.64,26.00 140.04,26.00" fill="#2D333B" stroke="#57606A" stroke-width="0.30" stroke-linejoin="round"/>
<polygon points="98.84,102.00 100.44,102.00 100.44,58.00 98.84,58.00" fill="#2E7D5B" stroke="#1F2328" stroke-width="0.25" stroke-linejoin="round"/>
<polygon points="111.44,132.00 113.04,132.00 113.04,32.00 111.44,32.00" fill="#2E7D5B" stroke="#1F2328" stroke-width="0.25" stroke-linejoin="round"/>
<polygon points="68.84,90.26 94.34,90.26 94.34,61.40 68.84,61.40" fill="#FFE3C2" stroke="#D9822B" stroke-width="0.35" stroke-linejoin="round"/>
<polygon points="94.34,84.33 98.84,84.33 98.84,67.33 94.34,67.33" fill="none" stroke="#D9822B" stroke-width="0.20" stroke-linejoin="round" stroke-dasharray="0.6 0.4"/>
<polygon points="69.84,85.15 93.34,85.15 93.34,66.52 69.84,66.52" fill="none" stroke="#E8590C" stroke-width="0.20" stroke-linejoin="round" stroke-dasharray="0.5 0.5"/>
<text x="81.59" y="83.65" font-family="DejaVu Sans, Arial, Helvetica, sans-serif" font-size="1.80" fill="#E8590C" text-anchor="middle" font-weight="400">digits 18.63</text>
<polyline points="113.04,127.14 121.54,127.14 121.54,116.48 113.04,116.48 113.04,115.52 121.54,115.52 121.54,115.02 123.04,115.02 123.04,112.02 121.54,112.02 121.54,111.35 124.04,111.35 124.04,108.35 121.54,108.35 121.54,108.04 135.04,108.04 135.04,107.54 135.04,107.54 135.04,104.86 135.04,104.86 135.04,104.54 135.04,104.54 135.04,104.50 113.04,104.50 113.04,97.71 121.04,97.71 121.04,97.45 124.04,97.45 124.04,97.09 124.04,97.09 124.04,97.00 124.04,97.00 124.04,96.85 124.04,96.85 124.04,96.35 124.04,96.35 124.04,94.45 124.04,94.45 124.04,94.27 124.04,94.27 124.04,93.75 124.04,93.75 124.04,93.65 124.04,93.65 124.04,93.15 124.04,93.15 124.04,93.05 124.04,93.05 124.04,92.52 124.04,92.52 124.04,91.91 124.04,91.91 124.04,91.27 124.04,91.27 124.04,90.70 124.04,90.70 124.04,90.61 124.04,90.61 124.04,89.99 124.04,89.99 124.04,89.95 124.04,89.95 124.04,89.82 124.04,89.82 124.04,89.60 124.04,89.60 124.04,89.38 124.04,89.38 124.04,89.35 124.04,89.35 124.04,87.44 124.04,87.44 124.04,87.00 124.04,87.00 124.04,86.84 124.04,86.84 124.04,86.66 124.04,86.66 124.04,86.60 124.04,86.60 124.04,86.55 124.04,86.55 124.04,84.29 124.04,84.29 124.04,83.66 124.04,83.66 124.04,83.60 123.04,83.60 123.04,83.55 123.04,83.55 123.04,83.34 123.04,83.34 123.04,83.03 123.04,83.03 123.04,81.55 123.04,81.55 123.04,81.45 123.04,81.45 123.04,81.05 123.04,81.05 123.04,80.34 123.04,80.34 123.04,80.03 123.04,80.03 123.04,79.45 121.54,79.45 121.54,79.16 121.54,79.16 121.54,78.95 121.54,78.95 121.54,78.51 121.54,78.51 121.54,77.49 124.04,77.49 124.04,75.14 124.04,75.14 124.04,72.40 121.54,72.40 121.54,66.25 121.54,66.25 121.54,65.90 121.54,65.90 121.54,64.48 113.04,64.48 113.04,59.59 124.04,59.59 124.04,54.50 113.04,54.50 113.04,54.28 121.54,54.28 121.54,53.75 123.54,53.75 123.54,53.28 123.54,53.28 123.54,52.94 123.54,52.94 123.54,52.67 123.54,52.67 123.54,52.50 132.04,52.50 132.04,51.75 132.04,51.75 132.04,51.67 132.04,51.67 132.04,51.58 132.04,51.58 132.04,51.25 132.04,51.25 132.04,50.80 132.04,50.80 132.04,50.28 132.04,50.28 132.04,49.76 132.04,49.76 132.04,48.05 132.04,48.05 132.04,47.60 129.64,47.60 129.64,47.34 129.64,47.34 129.64,47.10 129.64,47.10 129.64,46.58 129.64,46.58 129.64,45.83 129.64,45.83 129.64,45.50 129.64,45.50 129.64,44.75 129.64,44.75 129.64,44.56 129.64,44.56 129.64,44.10 129.64,44.10 129.64,43.85 129.64,43.85 129.64,43.60 129.64,43.60 129.64,43.50 129.64,43.50 129.64,43.25 133.04,43.25 133.04,42.66 133.04,42.66 133.04,42.50 133.04,42.50 133.04,40.80 133.04,40.80 133.04,40.40 133.04,40.40 133.04,39.94 133.04,39.94 133.04,39.75 133.04,39.75 133.04,39.48 133.04,39.48 133.04,39.25 133.04,39.25 133.04,39.20 133.04,39.20 133.04,38.15 133.04,38.15 133.04,37.50 133.04,37.50 133.04,37.05 133.04,37.05 133.04,36.94 133.04,36.94 133.04,36.20 133.04,36.20 133.04,36.15 133.04,36.15 133.04,35.79 133.04,35.79 133.04,34.50 133.04,34.50 133.04,33.55 133.04,33.55 133.04,33.25 133.04,33.25 133.04,32.75 129.64,32.75 129.64,32.52 125.54,32.52 125.54,32.45 125.54,32.45 125.54,32.40 113.04,32.40" fill="none" stroke="#AFC2D5" stroke-width="0.35" stroke-linejoin="round" stroke-dasharray="1 0.6"/>
<polygon points="113.04,53.28 123.04,53.28 123.04,50.28 113.04,50.28" fill="#AFC2D5" stroke="#1F2328" stroke-width="0.20" stroke-linejoin="round"/>
<polygon points="113.04,97.45 117.54,97.45 117.54,93.75 113.04,93.75" fill="#AFC2D5" stroke="#1F2328" stroke-width="0.20" stroke-linejoin="round"/>
<polygon points="113.04,93.65 117.54,93.65 117.54,89.95 113.04,89.95" fill="#AFC2D5" stroke="#1F2328" stroke-width="0.20" stroke-linejoin="round"/>
<polygon points="113.04,48.05 117.54,48.05 117.54,33.25 113.04,33.25" fill="#AFC2D5" stroke="#1F2328" stroke-width="0.20" stroke-linejoin="round"/>
<polygon points="113.04,108.04 135.04,108.04 135.04,104.50 113.04,104.50" fill="#AFC2D5" stroke="#1F2328" stroke-width="0.20" stroke-linejoin="round"/>
<text x="135.84" y="106.87" font-family="DejaVu Sans, Arial, Helvetica, sans-serif" font-size="2.00" fill="#1F2328" text-anchor="start" font-weight="400">U13 22.0</text>
<text x="133.84" y="38.60" font-family="DejaVu Sans, Arial, Helvetica, sans-serif" font-size="2.00" fill="#1F2328" text-anchor="start" font-weight="400">C7 20.0</text>
<text x="132.84" y="50.65" font-family="DejaVu Sans, Arial, Helvetica, sans-serif" font-size="2.00" fill="#1F2328" text-anchor="start" font-weight="400">VT21 19.0</text>
<text x="130.44" y="42.26" font-family="DejaVu Sans, Arial, Helvetica, sans-serif" font-size="2.00" fill="#1F2328" text-anchor="start" font-weight="400">U1 16.6</text>
<text x="129.84" y="46.10" font-family="DejaVu Sans, Arial, Helvetica, sans-serif" font-size="2.00" fill="#1F2328" text-anchor="start" font-weight="400">L1 16.0</text>
<polygon points="101.94,129.20 111.44,129.20 111.44,123.70 101.94,123.70" fill="none" stroke="#1F2328" stroke-width="0.25" stroke-linejoin="round" stroke-dasharray="0.8 0.5"/>
<text x="101.14" y="122.10" font-family="DejaVu Sans, Arial, Helvetica, sans-serif" font-size="1.90" fill="#1F2328" text-anchor="end" font-weight="400">DRV J1 + plug (X 44-54)</text>
<polygon points="100.44,64.05 111.44,64.05 111.44,58.55 100.44,58.55" fill="none" stroke="#1F2328" stroke-width="0.20" stroke-linejoin="round" stroke-dasharray="0.8 0.5"/>
<polygon points="68.84,91.21 90.84,91.21 90.84,71.21 68.84,71.21" fill="none" stroke="#8250DF" stroke-width="0.25" stroke-linejoin="round" stroke-dasharray="1.2 0.6"/>
<text x="79.84" y="89.71" font-family="DejaVu Sans, Arial, Helvetica, sans-serif" font-size="1.80" fill="#8250DF" text-anchor="middle" font-weight="400">ИН-17 (phantom)</text>
<polyline points="101.94,127.00 98.94,127.00 98.94,139.65 95.94,142.65 66.45,142.65 63.52,138.51" fill="none" stroke="#8250DF" stroke-width="0.45" stroke-linejoin="round" stroke-dasharray="2 0.8 0.4 0.8"/>
<text x="83.84" y="141.30" font-family="DejaVu Sans, Arial, Helvetica, sans-serif" font-size="1.90" fill="#8250DF" text-anchor="start" font-weight="400">fascia lead 135 mm (phantom)</text>
<polyline points="46.00,56.75 98.84,66.07" fill="none" stroke="#B35900" stroke-width="0.30" stroke-linejoin="round" stroke-dasharray="2 1"/>
<polyline points="46.00,100.85 98.84,91.53" fill="none" stroke="#B35900" stroke-width="0.30" stroke-linejoin="round" stroke-dasharray="2 1"/>
<text x="46.00" y="55.25" font-family="DejaVu Sans, Arial, Helvetica, sans-serif" font-size="2.00" fill="#B35900" text-anchor="start" font-weight="400">eye 10° above</text>
<text x="46.00" y="102.05" font-family="DejaVu Sans, Arial, Helvetica, sans-serif" font-size="2.00" fill="#B35900" text-anchor="start" font-weight="400">eye 10° below</text>
<polyline points="70.84,67.40 46.84,72.00" fill="none" stroke="#1F2328" stroke-width="0.2"/>
<circle cx="70.84" cy="67.40" r="0.5" fill="#1F2328"/>
<text x="45.84" y="72.73" font-family="DejaVu Sans, Arial, Helvetica, sans-serif" font-size="2.10" fill="#1F2328" text-anchor="end" font-weight="400">ИН-12 M10, glass 25.50 x 28.86</text>
<polyline points="99.64,100.00 74.84,105.00" fill="none" stroke="#1F2328" stroke-width="0.2"/>
<circle cx="99.64" cy="100.00" r="0.5" fill="#1F2328"/>
<text x="75.84" y="105.73" font-family="DejaVu Sans, Arial, Helvetica, sans-serif" font-size="2.10" fill="#1F2328" text-anchor="start" font-weight="400">TS06-DISP</text>
<polyline points="112.24,114.00 74.84,112.00" fill="none" stroke="#1F2328" stroke-width="0.2"/>
<circle cx="112.24" cy="114.00" r="0.5" fill="#1F2328"/>
<text x="75.84" y="112.73" font-family="DejaVu Sans, Arial, Helvetica, sans-serif" font-size="2.10" fill="#1F2328" text-anchor="start" font-weight="400">TS06-DRV</text>
<polyline points="140.84,32.00 118.84,22.00" fill="none" stroke="#1F2328" stroke-width="0.2"/>
<circle cx="140.84" cy="32.00" r="0.5" fill="#1F2328"/>
<text x="119.84" y="22.73" font-family="DejaVu Sans, Arial, Helvetica, sans-serif" font-size="2.10" fill="#1F2328" text-anchor="start" font-weight="400">rear panel, FR4 blank</text>
<polyline points="73.51,41.00 46.84,36.00" fill="none" stroke="#1F2328" stroke-width="0.2"/>
<circle cx="73.51" cy="41.00" r="0.5" fill="#1F2328"/>
<text x="45.84" y="36.77" font-family="DejaVu Sans, Arial, Helvetica, sans-serif" font-size="2.20" fill="#1F2328" text-anchor="end" font-weight="400">brow + top bar</text>
<polyline points="78.84,98.00 50.84,117.00" fill="none" stroke="#1F2328" stroke-width="0.2"/>
<circle cx="78.84" cy="98.00" r="0.5" fill="#1F2328"/>
<text x="49.84" y="117.77" font-family="DejaVu Sans, Arial, Helvetica, sans-serif" font-size="2.20" fill="#1F2328" text-anchor="end" font-weight="400">sill / trench floor</text>
<polyline points="63.84,116.00 44.84,110.00" fill="none" stroke="#1F2328" stroke-width="0.2"/>
<circle cx="63.84" cy="116.00" r="0.5" fill="#1F2328"/>
<text x="43.84" y="110.77" font-family="DejaVu Sans, Arial, Helvetica, sans-serif" font-size="2.20" fill="#1F2328" text-anchor="end" font-weight="400">TS06-FASCIA, 12°</text>
<polyline points="64.84,141.30 44.84,139.30" fill="none" stroke="#1F2328" stroke-width="0.2"/>
<circle cx="64.84" cy="141.30" r="0.5" fill="#1F2328"/>
<text x="43.84" y="140.07" font-family="DejaVu Sans, Arial, Helvetica, sans-serif" font-size="2.20" fill="#1F2328" text-anchor="end" font-weight="400">kick + base</text>
<line x1="58.00" y1="146.30" x2="58.00" y2="154.30" stroke="#2F6DB5" stroke-width="0.20" stroke-dasharray="0.6 0.6"/>
<line x1="67.84" y1="146.30" x2="67.84" y2="154.30" stroke="#2F6DB5" stroke-width="0.20" stroke-dasharray="0.6 0.6"/>
<line x1="58.00" y1="154.30" x2="67.84" y2="154.30" stroke="#2F6DB5" stroke-width="0.25"/>
<circle cx="58.00" cy="154.30" r="0.45" fill="#2F6DB5"/>
<circle cx="67.84" cy="154.30" r="0.45" fill="#2F6DB5"/>
<text x="62.92" y="153.50" font-family="DejaVu Sans, Arial, Helvetica, sans-serif" font-size="2.00" fill="#2F6DB5" text-anchor="middle" font-weight="400">9.8</text>
<line x1="67.84" y1="146.30" x2="67.84" y2="158.80" stroke="#2F6DB5" stroke-width="0.20" stroke-dasharray="0.6 0.6"/>
<line x1="68.84" y1="146.30" x2="68.84" y2="158.80" stroke="#2F6DB5" stroke-width="0.20" stroke-dasharray="0.6 0.6"/>
<line x1="67.84" y1="158.80" x2="68.84" y2="158.80" stroke="#2F6DB5" stroke-width="0.25"/>
<circle cx="67.84" cy="158.80" r="0.45" fill="#2F6DB5"/>
<circle cx="68.84" cy="158.80" r="0.45" fill="#2F6DB5"/>
<text x="68.34" y="158.00" font-family="DejaVu Sans, Arial, Helvetica, sans-serif" font-size="2.00" fill="#2F6DB5" text-anchor="middle" font-weight="400">1.0</text>
<line x1="68.84" y1="146.30" x2="68.84" y2="154.30" stroke="#2F6DB5" stroke-width="0.20" stroke-dasharray="0.6 0.6"/>
<line x1="98.84" y1="146.30" x2="98.84" y2="154.30" stroke="#2F6DB5" stroke-width="0.20" stroke-dasharray="0.6 0.6"/>
<line x1="68.84" y1="154.30" x2="98.84" y2="154.30" stroke="#2F6DB5" stroke-width="0.25"/>
<circle cx="68.84" cy="154.30" r="0.45" fill="#2F6DB5"/>
<circle cx="98.84" cy="154.30" r="0.45" fill="#2F6DB5"/>
<text x="83.84" y="153.50" font-family="DejaVu Sans, Arial, Helvetica, sans-serif" font-size="2.00" fill="#2F6DB5" text-anchor="middle" font-weight="400">30.0</text>
<line x1="98.84" y1="146.30" x2="98.84" y2="158.80" stroke="#2F6DB5" stroke-width="0.20" stroke-dasharray="0.6 0.6"/>
<line x1="100.44" y1="146.30" x2="100.44" y2="158.80" stroke="#2F6DB5" stroke-width="0.20" stroke-dasharray="0.6 0.6"/>
<line x1="98.84" y1="158.80" x2="100.44" y2="158.80" stroke="#2F6DB5" stroke-width="0.25"/>
<circle cx="98.84" cy="158.80" r="0.45" fill="#2F6DB5"/>
<circle cx="100.44" cy="158.80" r="0.45" fill="#2F6DB5"/>
<text x="99.64" y="158.00" font-family="DejaVu Sans, Arial, Helvetica, sans-serif" font-size="2.00" fill="#2F6DB5" text-anchor="middle" font-weight="400">1.6</text>
<line x1="100.44" y1="146.30" x2="100.44" y2="154.30" stroke="#2F6DB5" stroke-width="0.20" stroke-dasharray="0.6 0.6"/>
<line x1="111.44" y1="146.30" x2="111.44" y2="154.30" stroke="#2F6DB5" stroke-width="0.20" stroke-dasharray="0.6 0.6"/>
<line x1="100.44" y1="154.30" x2="111.44" y2="154.30" stroke="#2F6DB5" stroke-width="0.25"/>
<circle cx="100.44" cy="154.30" r="0.45" fill="#2F6DB5"/>
<circle cx="111.44" cy="154.30" r="0.45" fill="#2F6DB5"/>
<text x="105.94" y="153.50" font-family="DejaVu Sans, Arial, Helvetica, sans-serif" font-size="2.00" fill="#2F6DB5" text-anchor="middle" font-weight="400">11.0</text>
<line x1="111.44" y1="146.30" x2="111.44" y2="158.80" stroke="#2F6DB5" stroke-width="0.20" stroke-dasharray="0.6 0.6"/>
<line x1="113.04" y1="146.30" x2="113.04" y2="158.80" stroke="#2F6DB5" stroke-width="0.20" stroke-dasharray="0.6 0.6"/>
<line x1="111.44" y1="158.80" x2="113.04" y2="158.80" stroke="#2F6DB5" stroke-width="0.25"/>
<circle cx="111.44" cy="158.80" r="0.45" fill="#2F6DB5"/>
<circle cx="113.04" cy="158.80" r="0.45" fill="#2F6DB5"/>
<text x="112.24" y="158.00" font-family="DejaVu Sans, Arial, Helvetica, sans-serif" font-size="2.00" fill="#2F6DB5" text-anchor="middle" font-weight="400">1.6</text>
<line x1="113.04" y1="146.30" x2="113.04" y2="154.30" stroke="#2F6DB5" stroke-width="0.20" stroke-dasharray="0.6 0.6"/>
<line x1="135.04" y1="146.30" x2="135.04" y2="154.30" stroke="#2F6DB5" stroke-width="0.20" stroke-dasharray="0.6 0.6"/>
<line x1="113.04" y1="154.30" x2="135.04" y2="154.30" stroke="#2F6DB5" stroke-width="0.25"/>
<circle cx="113.04" cy="154.30" r="0.45" fill="#2F6DB5"/>
<circle cx="135.04" cy="154.30" r="0.45" fill="#2F6DB5"/>
<text x="124.04" y="153.50" font-family="DejaVu Sans, Arial, Helvetica, sans-serif" font-size="2.00" fill="#2F6DB5" text-anchor="middle" font-weight="400">22.0</text>
<line x1="135.04" y1="146.30" x2="135.04" y2="158.80" stroke="#2F6DB5" stroke-width="0.20" stroke-dasharray="0.6 0.6"/>
<line x1="140.04" y1="146.30" x2="140.04" y2="158.80" stroke="#2F6DB5" stroke-width="0.20" stroke-dasharray="0.6 0.6"/>
<line x1="135.04" y1="158.80" x2="140.04" y2="158.80" stroke="#2F6DB5" stroke-width="0.25"/>
<circle cx="135.04" cy="158.80" r="0.45" fill="#2F6DB5"/>
<circle cx="140.04" cy="158.80" r="0.45" fill="#2F6DB5"/>
<text x="137.54" y="158.00" font-family="DejaVu Sans, Arial, Helvetica, sans-serif" font-size="2.00" fill="#2F6DB5" text-anchor="middle" font-weight="400">5.0</text>
<line x1="140.04" y1="146.30" x2="140.04" y2="154.30" stroke="#2F6DB5" stroke-width="0.20" stroke-dasharray="0.6 0.6"/>
<line x1="141.64" y1="146.30" x2="141.64" y2="154.30" stroke="#2F6DB5" stroke-width="0.20" stroke-dasharray="0.6 0.6"/>
<line x1="140.04" y1="154.30" x2="141.64" y2="154.30" stroke="#2F6DB5" stroke-width="0.25"/>
<circle cx="140.04" cy="154.30" r="0.45" fill="#2F6DB5"/>
<circle cx="141.64" cy="154.30" r="0.45" fill="#2F6DB5"/>
<text x="140.84" y="153.50" font-family="DejaVu Sans, Arial, Helvetica, sans-serif" font-size="2.00" fill="#2F6DB5" text-anchor="middle" font-weight="400">1.6</text>
<line x1="58.00" y1="146.30" x2="58.00" y2="168.30" stroke="#2F6DB5" stroke-width="0.20" stroke-dasharray="0.6 0.6"/>
<line x1="141.64" y1="146.30" x2="141.64" y2="168.30" stroke="#2F6DB5" stroke-width="0.20" stroke-dasharray="0.6 0.6"/>
<line x1="58.00" y1="168.30" x2="141.64" y2="168.30" stroke="#2F6DB5" stroke-width="0.25"/>
<circle cx="58.00" cy="168.30" r="0.45" fill="#2F6DB5"/>
<circle cx="141.64" cy="168.30" r="0.45" fill="#2F6DB5"/>
<text x="99.82" y="167.50" font-family="DejaVu Sans, Arial, Helvetica, sans-serif" font-size="2.40" fill="#2F6DB5" text-anchor="middle" font-weight="400">83.6 outside depth</text>
<line x1="68.84" y1="146.30" x2="68.84" y2="175.30" stroke="#2F6DB5" stroke-width="0.20" stroke-dasharray="0.6 0.6"/>
<line x1="140.04" y1="146.30" x2="140.04" y2="175.30" stroke="#2F6DB5" stroke-width="0.20" stroke-dasharray="0.6 0.6"/>
<line x1="68.84" y1="175.30" x2="140.04" y2="175.30" stroke="#2F6DB5" stroke-width="0.25"/>
<circle cx="68.84" cy="175.30" r="0.45" fill="#2F6DB5"/>
<circle cx="140.04" cy="175.30" r="0.45" fill="#2F6DB5"/>
<text x="104.44" y="174.50" font-family="DejaVu Sans, Arial, Helvetica, sans-serif" font-size="2.40" fill="#2F6DB5" text-anchor="middle" font-weight="400">71.2 glass front to rear panel (review: 65-72)</text>
<line x1="141.64" y1="146.30" x2="149.64" y2="146.30" stroke="#2F6DB5" stroke-width="0.20" stroke-dasharray="0.6 0.6"/>
<line x1="141.64" y1="143.30" x2="149.64" y2="143.30" stroke="#2F6DB5" stroke-width="0.20" stroke-dasharray="0.6 0.6"/>
<line x1="149.64" y1="146.30" x2="149.64" y2="143.30" stroke="#2F6DB5" stroke-width="0.25"/>
<circle cx="149.64" cy="146.30" r="0.45" fill="#2F6DB5"/>
<circle cx="149.64" cy="143.30" r="0.45" fill="#2F6DB5"/>
<text x="148.84" y="144.80" font-family="DejaVu Sans, Arial, Helvetica, sans-serif" font-size="2.00" fill="#2F6DB5" text-anchor="middle" font-weight="400" transform="rotate(-90 148.84 144.80)">3.0</text>
<line x1="141.64" y1="143.30" x2="154.64" y2="143.30" stroke="#2F6DB5" stroke-width="0.20" stroke-dasharray="0.6 0.6"/>
<line x1="141.64" y1="132.00" x2="154.64" y2="132.00" stroke="#2F6DB5" stroke-width="0.20" stroke-dasharray="0.6 0.6"/>
<line x1="154.64" y1="143.30" x2="154.64" y2="132.00" stroke="#2F6DB5" stroke-width="0.25"/>
<circle cx="154.64" cy="143.30" r="0.45" fill="#2F6DB5"/>
<circle cx="154.64" cy="132.00" r="0.45" fill="#2F6DB5"/>
<text x="153.84" y="137.65" font-family="DejaVu Sans, Arial, Helvetica, sans-serif" font-size="2.00" fill="#2F6DB5" text-anchor="middle" font-weight="400" transform="rotate(-90 153.84 137.65)">11.3</text>
<line x1="141.64" y1="132.00" x2="149.64" y2="132.00" stroke="#2F6DB5" stroke-width="0.20" stroke-dasharray="0.6 0.6"/>
<line x1="141.64" y1="97.00" x2="149.64" y2="97.00" stroke="#2F6DB5" stroke-width="0.20" stroke-dasharray="0.6 0.6"/>
<line x1="149.64" y1="132.00" x2="149.64" y2="97.00" stroke="#2F6DB5" stroke-width="0.25"/>
<circle cx="149.64" cy="132.00" r="0.45" fill="#2F6DB5"/>
<circle cx="149.64" cy="97.00" r="0.45" fill="#2F6DB5"/>
<text x="148.84" y="114.50" font-family="DejaVu Sans, Arial, Helvetica, sans-serif" font-size="2.00" fill="#2F6DB5" text-anchor="middle" font-weight="400" transform="rotate(-90 148.84 114.50)">35.0</text>
<line x1="141.64" y1="97.00" x2="154.64" y2="97.00" stroke="#2F6DB5" stroke-width="0.20" stroke-dasharray="0.6 0.6"/>
<line x1="141.64" y1="60.60" x2="154.64" y2="60.60" stroke="#2F6DB5" stroke-width="0.20" stroke-dasharray="0.6 0.6"/>
<line x1="154.64" y1="97.00" x2="154.64" y2="60.60" stroke="#2F6DB5" stroke-width="0.25"/>
<circle cx="154.64" cy="97.00" r="0.45" fill="#2F6DB5"/>
<circle cx="154.64" cy="60.60" r="0.45" fill="#2F6DB5"/>
<text x="153.84" y="78.80" font-family="DejaVu Sans, Arial, Helvetica, sans-serif" font-size="2.00" fill="#2F6DB5" text-anchor="middle" font-weight="400" transform="rotate(-90 153.84 78.80)">36.4</text>
<line x1="141.64" y1="60.60" x2="149.64" y2="60.60" stroke="#2F6DB5" stroke-width="0.20" stroke-dasharray="0.6 0.6"/>
<line x1="141.64" y1="32.00" x2="149.64" y2="32.00" stroke="#2F6DB5" stroke-width="0.20" stroke-dasharray="0.6 0.6"/>
<line x1="149.64" y1="60.60" x2="149.64" y2="32.00" stroke="#2F6DB5" stroke-width="0.25"/>
<circle cx="149.64" cy="60.60" r="0.45" fill="#2F6DB5"/>
<circle cx="149.64" cy="32.00" r="0.45" fill="#2F6DB5"/>
<text x="148.84" y="46.30" font-family="DejaVu Sans, Arial, Helvetica, sans-serif" font-size="2.00" fill="#2F6DB5" text-anchor="middle" font-weight="400" transform="rotate(-90 148.84 46.30)">28.6</text>
<line x1="141.64" y1="32.00" x2="154.64" y2="32.00" stroke="#2F6DB5" stroke-width="0.20" stroke-dasharray="0.6 0.6"/>
<line x1="141.64" y1="29.00" x2="154.64" y2="29.00" stroke="#2F6DB5" stroke-width="0.20" stroke-dasharray="0.6 0.6"/>
<line x1="154.64" y1="32.00" x2="154.64" y2="29.00" stroke="#2F6DB5" stroke-width="0.25"/>
<circle cx="154.64" cy="32.00" r="0.45" fill="#2F6DB5"/>
<circle cx="154.64" cy="29.00" r="0.45" fill="#2F6DB5"/>
<text x="153.84" y="30.50" font-family="DejaVu Sans, Arial, Helvetica, sans-serif" font-size="2.00" fill="#2F6DB5" text-anchor="middle" font-weight="400" transform="rotate(-90 153.84 30.50)">3.0</text>
<line x1="141.64" y1="29.00" x2="149.64" y2="29.00" stroke="#2F6DB5" stroke-width="0.20" stroke-dasharray="0.6 0.6"/>
<line x1="141.64" y1="26.00" x2="149.64" y2="26.00" stroke="#2F6DB5" stroke-width="0.20" stroke-dasharray="0.6 0.6"/>
<line x1="149.64" y1="29.00" x2="149.64" y2="26.00" stroke="#2F6DB5" stroke-width="0.25"/>
<circle cx="149.64" cy="29.00" r="0.45" fill="#2F6DB5"/>
<circle cx="149.64" cy="26.00" r="0.45" fill="#2F6DB5"/>
<text x="148.84" y="27.50" font-family="DejaVu Sans, Arial, Helvetica, sans-serif" font-size="2.00" fill="#2F6DB5" text-anchor="middle" font-weight="400" transform="rotate(-90 148.84 27.50)">3.0</text>
<line x1="141.64" y1="146.30" x2="163.64" y2="146.30" stroke="#2F6DB5" stroke-width="0.20" stroke-dasharray="0.6 0.6"/>
<line x1="141.64" y1="26.00" x2="163.64" y2="26.00" stroke="#2F6DB5" stroke-width="0.20" stroke-dasharray="0.6 0.6"/>
<line x1="163.64" y1="146.30" x2="163.64" y2="26.00" stroke="#2F6DB5" stroke-width="0.25"/>
<circle cx="163.64" cy="146.30" r="0.45" fill="#2F6DB5"/>
<circle cx="163.64" cy="26.00" r="0.45" fill="#2F6DB5"/>
<text x="162.84" y="86.15" font-family="DejaVu Sans, Arial, Helvetica, sans-serif" font-size="2.40" fill="#2F6DB5" text-anchor="middle" font-weight="400" transform="rotate(-90 162.84 86.15)">120.3 outside height</text>
<text x="8" y="182.9" font-family="DejaVu Sans, Arial, Helvetica, sans-serif" font-size="2.4" fill="#6E7781">Chain along the bottom: toe to face 9.8 · recess 1.0 · glass to TS06-DISP 30.0 (25.5 + 4.5 socket seat, assumed) · board · stack 11.0 · board · tallest part 22.0 (U13) · air 5.0 · panel 1.6.</text>
<text x="8" y="186.3" font-family="DejaVu Sans, Arial, Helvetica, sans-serif" font-size="2.4" fill="#6E7781">Blue-grey dashed skyline: every part on TS06-DRV's rear face, all X. The floor is 7.3 below the FreeCAD Y 0 so the fascia lead can leave its side-entry J1 (checks.md, 8).</text>
</svg>
