<svg xmlns="http://www.w3.org/2000/svg" viewBox="0 0 267.0 190.0" width="1068" height="760">
<rect x="0" y="0" width="267.0" height="190.0" fill="#FFFFFF"/>
<text x="8" y="10" font-family="DejaVu Sans, Arial, Helvetica, sans-serif" font-size="5" font-weight="700" fill="#1F2328">SECTION A-A AT X = 63.99 (M10), LOOKING AT THE LEFT CHEEK  1:1</text>
<text x="8" y="16" font-family="DejaVu Sans, Arial, Helvetica, sans-serif" font-size="2.8" fill="#6E7781">the stack front to back · cut parts filled · beyond / phantom dashed · sight lines at ±10°</text>
<polygon points="58.00,146.00 137.45,146.00 137.45,26.00 75.13,26.00 67.25,63.10 67.25,99.50 58.00,143.00" fill="#F3F5F7" stroke="#6E7781" stroke-width="0.25" stroke-linejoin="round"/>
<polygon points="122.55,50.15 137.45,50.15 137.45,38.15 122.55,38.15" fill="#FFFFFF" stroke="#CF222E" stroke-width="0.25" stroke-linejoin="round" stroke-dasharray="0.8 0.5"/>
<text x="122.95" y="40.55" font-family="DejaVu Sans, Arial, Helvetica, sans-serif" font-size="2.00" fill="#CF222E" text-anchor="start" font-weight="400">USB slot</text>
<polygon points="100.85,135.00 110.85,135.00 110.85,127.00 100.85,127.00" fill="#E3E8ED" stroke="#6E7781" stroke-width="0.25" stroke-linejoin="round"/>
<text x="101.35" y="126.00" font-family="DejaVu Sans, Arial, Helvetica, sans-serif" font-size="1.80" fill="#6E7781" text-anchor="start" font-weight="400">boss H6</text>
<polygon points="100.85,60.00 110.85,60.00 110.85,53.00 100.85,53.00" fill="#E3E8ED" stroke="#6E7781" stroke-width="0.25" stroke-linejoin="round"/>
<text x="101.35" y="52.00" font-family="DejaVu Sans, Arial, Helvetica, sans-serif" font-size="1.80" fill="#6E7781" text-anchor="start" font-weight="400">boss H8</text>
<polygon points="74.25,146.00 82.25,146.00 82.25,135.00 74.25,135.00" fill="#E3E8ED" stroke="#6E7781" stroke-width="0.20" stroke-linejoin="round" stroke-dasharray="0.8 0.5"/>
<polygon points="121.45,146.00 137.45,146.00 137.45,135.00 121.45,135.00" fill="#E3E8ED" stroke="#6E7781" stroke-width="0.20" stroke-linejoin="round" stroke-dasharray="0.8 0.5"/>
<polygon points="80.25,101.76 91.25,101.76 91.25,93.76 80.25,93.76" fill="#E3E8ED" stroke="#6E7781" stroke-width="0.20" stroke-linejoin="round" stroke-dasharray="0.8 0.5"/>
<polygon points="71.08,49.05 82.15,49.05 82.15,41.05 71.08,41.05" fill="#E3E8ED" stroke="#6E7781" stroke-width="0.20" stroke-linejoin="round" stroke-dasharray="0.8 0.5"/>
<polygon points="84.25,34.00 92.25,34.00 92.25,26.00 84.25,26.00" fill="#E3E8ED" stroke="#6E7781" stroke-width="0.20" stroke-linejoin="round" stroke-dasharray="0.8 0.5"/>
<polygon points="121.45,34.00 137.45,34.00 137.45,26.00 121.45,26.00" fill="#E3E8ED" stroke="#6E7781" stroke-width="0.20" stroke-linejoin="round" stroke-dasharray="0.8 0.5"/>
<circle cx="78.25" cy="140.50" r="3.10" fill="none" stroke="#CF222E" stroke-width="0.25"/>
<circle cx="78.25" cy="140.50" r="1.70" fill="#FFFFFF" stroke="#CF222E" stroke-width="0.25"/>
<circle cx="125.45" cy="140.50" r="3.10" fill="none" stroke="#CF222E" stroke-width="0.25"/>
<circle cx="125.45" cy="140.50" r="1.70" fill="#FFFFFF" stroke="#CF222E" stroke-width="0.25"/>
<circle cx="84.25" cy="97.76" r="3.10" fill="none" stroke="#CF222E" stroke-width="0.25"/>
<circle cx="84.25" cy="97.76" r="1.70" fill="#FFFFFF" stroke="#CF222E" stroke-width="0.25"/>
<circle cx="78.15" cy="45.05" r="3.10" fill="none" stroke="#CF222E" stroke-width="0.25"/>
<circle cx="78.15" cy="45.05" r="1.70" fill="#FFFFFF" stroke="#CF222E" stroke-width="0.25"/>
<circle cx="88.25" cy="30.00" r="3.10" fill="none" stroke="#CF222E" stroke-width="0.25"/>
<circle cx="88.25" cy="30.00" r="1.70" fill="#FFFFFF" stroke="#CF222E" stroke-width="0.25"/>
<circle cx="125.45" cy="30.00" r="3.10" fill="none" stroke="#CF222E" stroke-width="0.25"/>
<circle cx="125.45" cy="30.00" r="1.70" fill="#FFFFFF" stroke="#CF222E" stroke-width="0.25"/>
<text x="78.25" y="136.20" font-family="DejaVu Sans, Arial, Helvetica, sans-serif" font-size="1.80" fill="#CF222E" text-anchor="middle" font-weight="400">M3 x 8</text>
<text x="125.45" y="136.20" font-family="DejaVu Sans, Arial, Helvetica, sans-serif" font-size="1.80" fill="#CF222E" text-anchor="middle" font-weight="400">M3 x 8</text>
<text x="84.25" y="103.26" font-family="DejaVu Sans, Arial, Helvetica, sans-serif" font-size="1.80" fill="#CF222E" text-anchor="middle" font-weight="400">M3 x 8</text>
<text x="78.15" y="50.55" font-family="DejaVu Sans, Arial, Helvetica, sans-serif" font-size="1.80" fill="#CF222E" text-anchor="middle" font-weight="400">M3 x 8</text>
<text x="88.25" y="35.50" font-family="DejaVu Sans, Arial, Helvetica, sans-serif" font-size="1.80" fill="#CF222E" text-anchor="middle" font-weight="400">M3 x 8</text>
<text x="121.35" y="30.70" font-family="DejaVu Sans, Arial, Helvetica, sans-serif" font-size="1.80" fill="#CF222E" text-anchor="end" font-weight="400">M3 x 8</text>
<polygon points="58.00,146.00 137.45,146.00 137.45,143.00 60.04,143.00 60.89,139.04 58.93,138.63 58.00,143.00" fill="#8C959F" stroke="#1F2328" stroke-width="0.30" stroke-linejoin="round"/>
<polygon points="129.45,146.00 137.45,146.00 137.45,135.00 129.45,135.00" fill="#8C959F" stroke="#1F2328" stroke-width="0.30" stroke-linejoin="round"/>
<polygon points="129.45,34.00 137.45,34.00 137.45,26.00 129.45,26.00" fill="#57606A" stroke="#1F2328" stroke-width="0.30" stroke-linejoin="round"/>
<polygon points="67.25,99.50 58.93,138.63 60.89,139.04 69.20,99.92" fill="#2D333B" stroke="#57606A" stroke-width="0.30" stroke-linejoin="round"/>
<polygon points="69.49,101.50 95.75,101.50 95.75,99.50 69.49,99.50" fill="#8C959F" stroke="#1F2328" stroke-width="0.30" stroke-linejoin="round"/>
<polygon points="67.25,63.10 75.13,26.00 78.20,26.00 70.74,61.10 90.75,61.10 90.75,58.10 95.75,58.10 95.75,60.10 92.75,63.10" fill="#F59E42" stroke="#1F2328" stroke-width="0.30" stroke-linejoin="round"/>
<polygon points="77.56,29.00 78.20,26.00 137.45,26.00 137.45,29.00" fill="#57606A" stroke="#1F2328" stroke-width="0.30" stroke-linejoin="round"/>
<polygon points="137.45,146.00 139.05,146.00 139.05,26.00 137.45,26.00" fill="#2D333B" stroke="#57606A" stroke-width="0.30" stroke-linejoin="round"/>
<polygon points="133.05,141.75 139.05,141.75 139.05,139.25 133.05,139.25" fill="none" stroke="#CF222E" stroke-width="0.25" stroke-linejoin="round" stroke-dasharray="0.6 0.4"/>
<text x="138.05" y="149.20" font-family="DejaVu Sans, Arial, Helvetica, sans-serif" font-size="1.80" fill="#CF222E" text-anchor="end" font-weight="400">rear panel: 3 x M2.5 x 6 along this edge</text>
<polygon points="133.05,31.25 139.05,31.25 139.05,28.75 133.05,28.75" fill="none" stroke="#CF222E" stroke-width="0.25" stroke-linejoin="round" stroke-dasharray="0.6 0.4"/>
<text x="138.05" y="24.50" font-family="DejaVu Sans, Arial, Helvetica, sans-serif" font-size="1.80" fill="#CF222E" text-anchor="end" font-weight="400">rear panel: 3 x M2.5 x 6 along this edge</text>
<polygon points="98.25,104.50 99.85,104.50 99.85,60.50 98.25,60.50" fill="#2E7D5B" stroke="#1F2328" stroke-width="0.25" stroke-linejoin="round"/>
<polygon points="110.85,134.50 112.45,134.50 112.45,34.50 110.85,34.50" fill="#2E7D5B" stroke="#1F2328" stroke-width="0.25" stroke-linejoin="round"/>
<polygon points="68.25,92.76 93.75,92.76 93.75,63.90 68.25,63.90" fill="#FFE3C2" stroke="#D9822B" stroke-width="0.35" stroke-linejoin="round"/>
<polygon points="93.75,86.83 98.25,86.83 98.25,69.83 93.75,69.83" fill="none" stroke="#D9822B" stroke-width="0.20" stroke-linejoin="round" stroke-dasharray="0.6 0.4"/>
<polygon points="69.25,87.65 92.75,87.65 92.75,69.02 69.25,69.02" fill="none" stroke="#E8590C" stroke-width="0.20" stroke-linejoin="round" stroke-dasharray="0.5 0.5"/>
<text x="81.00" y="86.15" font-family="DejaVu Sans, Arial, Helvetica, sans-serif" font-size="1.80" fill="#E8590C" text-anchor="middle" font-weight="400">digits 18.63</text>
<polyline points="112.45,129.64 120.95,129.64 120.95,125.82 127.45,125.82 127.45,124.05 127.45,124.05 127.45,121.05 127.45,121.05 127.45,119.45 127.45,119.45 127.45,119.00 127.45,119.00 127.45,118.98 127.45,118.98 127.45,118.02 127.45,118.02 127.45,117.52 127.45,117.52 127.45,116.45 127.45,116.45 127.45,116.00 127.45,116.00 127.45,114.52 127.45,114.52 127.45,113.85 127.45,113.85 127.45,113.00 127.45,113.00 127.45,110.85 127.45,110.85 127.45,110.04 127.45,110.04 127.45,110.00 127.45,110.00 127.45,107.36 127.45,107.36 127.45,107.04 127.45,107.04 127.45,107.00 112.45,107.00 112.45,100.75 117.15,100.75 117.15,100.45 117.15,100.45 117.15,100.21 120.45,100.21 120.45,99.95 123.45,99.95 123.45,99.59 123.45,99.59 123.45,99.31 123.45,99.31 123.45,98.84 123.45,98.84 123.45,96.95 123.45,96.95 123.45,96.31 120.45,96.31 120.45,96.05 120.45,96.05 120.45,95.75 120.45,95.75 120.45,95.05 123.45,95.05 123.45,95.02 123.45,95.02 123.45,94.87 123.45,94.87 123.45,93.11 123.45,93.11 123.45,92.49 123.45,92.49 123.45,92.32 123.45,92.32 123.45,92.10 123.45,92.10 123.45,91.87 123.45,91.87 123.45,91.05 123.45,91.05 123.45,90.95 123.45,90.95 123.45,90.92 123.45,90.92 123.45,89.97 123.45,89.97 123.45,89.94 123.45,89.94 123.45,89.34 123.45,89.34 123.45,89.16 123.45,89.16 123.45,89.10 123.45,89.10 123.45,89.05 123.45,89.05 123.45,86.25 123.45,86.25 123.45,86.16 123.45,86.16 123.45,86.10 123.45,86.10 123.45,86.05 123.45,86.05 123.45,85.95 123.45,85.95 123.45,85.84 123.45,85.84 123.45,85.53 123.45,85.53 123.45,84.25 122.45,84.25 122.45,83.95 122.45,83.95 122.45,83.55 122.45,83.55 122.45,82.84 122.45,82.84 122.45,82.53 122.45,82.53 122.45,81.95 120.95,81.95 120.95,81.66 120.95,81.66 120.95,81.45 120.95,81.45 120.95,81.40 120.95,81.40 120.95,81.25 120.95,81.25 120.95,80.26 120.95,80.26 120.95,79.99 123.45,79.99 123.45,79.71 123.45,79.71 123.45,77.64 123.45,77.64 123.45,74.90 120.95,74.90 120.95,68.40 120.95,68.40 120.95,67.45 120.95,67.45 120.95,66.98 112.45,66.98 112.45,62.09 123.45,62.09 123.45,61.05 123.45,61.05 123.45,59.60 123.45,59.60 123.45,59.25 123.45,59.25 123.45,58.58 123.45,58.58 123.45,58.50 123.45,58.50 123.45,58.17 123.45,58.17 123.45,58.00 123.45,58.00 123.45,57.60 123.45,57.60 123.45,57.00 122.45,57.00 122.45,56.40 122.45,56.40 122.45,56.25 122.95,56.25 122.95,56.02 123.45,56.02 123.45,55.35 123.45,55.35 123.45,55.17 123.45,55.17 123.45,55.00 123.45,55.00 123.45,54.93 123.45,54.93 123.45,54.87 123.45,54.87 123.45,54.80 123.45,54.80 123.45,54.55 123.45,54.55 123.45,54.51 123.45,54.51 123.45,54.40 123.45,54.40 123.45,53.75 123.45,53.75 123.45,53.44 123.45,53.44 123.45,53.30 129.05,53.30 129.05,53.25 132.45,53.25 132.45,53.02 132.45,53.02 132.45,52.50 132.45,52.50 132.45,52.14 132.45,52.14 132.45,51.51 132.45,51.51 132.45,50.80 132.45,50.80 132.45,49.84 132.45,49.84 132.45,49.54 132.45,49.54 132.45,49.46 132.45,49.46 132.45,49.27 132.45,49.27 132.45,48.83 132.45,48.83 132.45,48.65 132.45,48.65 132.45,47.80 132.45,47.80 132.45,47.72 132.45,47.72 132.45,47.70 132.45,47.70 132.45,47.60 132.45,47.60 132.45,47.38 132.45,47.38 132.45,47.30 132.45,47.30 132.45,47.25 132.45,47.25 132.45,46.90 132.45,46.90 132.45,46.35 132.45,46.35 132.45,45.65 132.45,45.65 132.45,44.84 132.45,44.84 132.45,44.53 132.45,44.53 132.45,44.38 132.45,44.38 132.45,43.75 132.45,43.75 132.45,43.72 132.45,43.72 132.45,43.70 132.45,43.70 132.45,42.90 132.45,42.90 132.45,42.75 129.05,42.75 129.05,42.25 129.05,42.25 129.05,41.84 129.05,41.84 129.05,41.70 129.05,41.70 129.05,40.72 129.05,40.72 129.05,40.65 129.05,40.65 129.05,39.70 129.05,39.70 129.05,39.55 129.05,39.55 129.05,39.45 129.05,39.45 129.05,38.90 129.05,38.90 129.05,36.05 129.05,36.05 129.05,36.00 129.05,36.00 129.05,35.70 129.05,35.70 129.05,35.02 124.95,35.02 124.95,34.90 117.15,34.90 117.15,34.75 112.45,34.75" fill="none" stroke="#AFC2D5" stroke-width="0.35" stroke-linejoin="round" stroke-dasharray="1 0.6"/>
<polygon points="112.45,94.87 123.45,94.87 123.45,91.87 112.45,91.87" fill="#AFC2D5" stroke="#1F2328" stroke-width="0.20" stroke-linejoin="round"/>
<polygon points="112.45,99.31 123.45,99.31 123.45,96.31 112.45,96.31" fill="#AFC2D5" stroke="#1F2328" stroke-width="0.20" stroke-linejoin="round"/>
<polygon points="112.45,85.95 117.15,85.95 117.15,81.25 112.45,81.25" fill="#AFC2D5" stroke="#1F2328" stroke-width="0.20" stroke-linejoin="round"/>
<polygon points="112.45,90.95 117.15,90.95 117.15,86.25 112.45,86.25" fill="#AFC2D5" stroke="#1F2328" stroke-width="0.20" stroke-linejoin="round"/>
<polygon points="112.45,50.80 115.95,50.80 115.95,47.80 112.45,47.80" fill="#AFC2D5" stroke="#1F2328" stroke-width="0.20" stroke-linejoin="round"/>
<polygon points="112.45,125.82 127.45,125.82 127.45,107.00 112.45,107.00" fill="#AFC2D5" stroke="#1F2328" stroke-width="0.20" stroke-linejoin="round"/>
<polygon points="112.45,38.90 115.95,38.90 115.95,35.70 112.45,35.70" fill="#AFC2D5" stroke="#1F2328" stroke-width="0.20" stroke-linejoin="round"/>
<polygon points="112.45,42.90 115.95,42.90 115.95,39.70 112.45,39.70" fill="#AFC2D5" stroke="#1F2328" stroke-width="0.20" stroke-linejoin="round"/>
<polygon points="112.45,46.90 115.95,46.90 115.95,43.70 112.45,43.70" fill="#AFC2D5" stroke="#1F2328" stroke-width="0.20" stroke-linejoin="round"/>
<text x="128.25" y="117.01" font-family="DejaVu Sans, Arial, Helvetica, sans-serif" font-size="2.00" fill="#1F2328" text-anchor="start" font-weight="400">U13 15.0</text>
<text x="133.25" y="48.60" font-family="DejaVu Sans, Arial, Helvetica, sans-serif" font-size="2.00" fill="#1F2328" text-anchor="start" font-weight="400">C7 20.0</text>
<text x="132.25" y="50.65" font-family="DejaVu Sans, Arial, Helvetica, sans-serif" font-size="2.00" fill="#1F2328" text-anchor="start" font-weight="400">VT21 19.0</text>
<text x="129.85" y="44.76" font-family="DejaVu Sans, Arial, Helvetica, sans-serif" font-size="2.00" fill="#1F2328" text-anchor="start" font-weight="400">U1 16.6</text>
<text x="125.25" y="41.50" font-family="DejaVu Sans, Arial, Helvetica, sans-serif" font-size="2.00" fill="#1F2328" text-anchor="start" font-weight="400">L1 12.0</text>
<polygon points="101.35,131.70 110.85,131.70 110.85,126.20 101.35,126.20" fill="none" stroke="#1F2328" stroke-width="0.25" stroke-linejoin="round" stroke-dasharray="0.8 0.5"/>
<text x="100.55" y="124.60" font-family="DejaVu Sans, Arial, Helvetica, sans-serif" font-size="1.90" fill="#1F2328" text-anchor="end" font-weight="400">DRV J1 + plug (X 44-54)</text>
<polygon points="99.85,66.55 110.85,66.55 110.85,61.05 99.85,61.05" fill="none" stroke="#1F2328" stroke-width="0.20" stroke-linejoin="round" stroke-dasharray="0.8 0.5"/>
<polygon points="68.25,93.71 87.97,93.71 87.97,73.71 68.25,73.71" fill="none" stroke="#8250DF" stroke-width="0.25" stroke-linejoin="round" stroke-dasharray="1.2 0.6"/>
<text x="79.25" y="92.21" font-family="DejaVu Sans, Arial, Helvetica, sans-serif" font-size="1.80" fill="#8250DF" text-anchor="middle" font-weight="400">ИН-17 (phantom)</text>
<polyline points="101.35,129.50 98.35,129.50 98.35,139.35 95.35,142.35 84.71,142.35 83.93,142.25 83.21,141.95 82.58,141.47 73.65,132.54 73.21,132.17 72.70,131.90 72.15,131.72" fill="none" stroke="#8250DF" stroke-width="0.45" stroke-linejoin="round" stroke-dasharray="2 0.8 0.4 0.8"/>
<polygon points="63.23,128.04 69.09,129.29 68.05,134.18 62.19,132.93" fill="none" stroke="#8250DF" stroke-width="0.30" stroke-linejoin="round" stroke-dasharray="1 0.6"/>
<polygon points="63.23,128.04 72.52,130.01 71.48,134.90 62.19,132.93" fill="none" stroke="#8250DF" stroke-width="0.30" stroke-linejoin="round" stroke-dasharray="1 0.6"/>
<text x="85.25" y="137.30" font-family="DejaVu Sans, Arial, Helvetica, sans-serif" font-size="1.90" fill="#8250DF" text-anchor="start" font-weight="400">fascia lead 143 mm (phantom)</text>
<polyline points="46.00,59.35 98.25,68.57" fill="none" stroke="#B35900" stroke-width="0.30" stroke-linejoin="round" stroke-dasharray="2 1"/>
<polyline points="46.00,103.25 98.25,94.03" fill="none" stroke="#B35900" stroke-width="0.30" stroke-linejoin="round" stroke-dasharray="2 1"/>
<text x="46.00" y="57.85" font-family="DejaVu Sans, Arial, Helvetica, sans-serif" font-size="2.00" fill="#B35900" text-anchor="start" font-weight="400">eye 10° above</text>
<text x="46.00" y="104.45" font-family="DejaVu Sans, Arial, Helvetica, sans-serif" font-size="2.00" fill="#B35900" text-anchor="start" font-weight="400">eye 10° below</text>
<polyline points="70.25,69.90 46.25,74.50" fill="none" stroke="#1F2328" stroke-width="0.2"/>
<circle cx="70.25" cy="69.90" r="0.5" fill="#1F2328"/>
<text x="45.25" y="75.23" font-family="DejaVu Sans, Arial, Helvetica, sans-serif" font-size="2.10" fill="#1F2328" text-anchor="end" font-weight="400">ИН-12 M10, glass 25.50 x 28.86</text>
<polyline points="99.05,102.50 74.25,107.50" fill="none" stroke="#1F2328" stroke-width="0.2"/>
<circle cx="99.05" cy="102.50" r="0.5" fill="#1F2328"/>
<text x="75.25" y="108.23" font-family="DejaVu Sans, Arial, Helvetica, sans-serif" font-size="2.10" fill="#1F2328" text-anchor="start" font-weight="400">TS06-DISP</text>
<polyline points="111.65,116.50 74.25,114.50" fill="none" stroke="#1F2328" stroke-width="0.2"/>
<circle cx="111.65" cy="116.50" r="0.5" fill="#1F2328"/>
<text x="75.25" y="115.23" font-family="DejaVu Sans, Arial, Helvetica, sans-serif" font-size="2.10" fill="#1F2328" text-anchor="start" font-weight="400">TS06-DRV</text>
<polyline points="138.25,34.50 118.25,22.00" fill="none" stroke="#1F2328" stroke-width="0.2"/>
<circle cx="138.25" cy="34.50" r="0.5" fill="#1F2328"/>
<text x="119.25" y="22.73" font-family="DejaVu Sans, Arial, Helvetica, sans-serif" font-size="2.10" fill="#1F2328" text-anchor="start" font-weight="400">rear panel, FR4 blank</text>
<polyline points="72.91,43.50 46.25,38.50" fill="none" stroke="#1F2328" stroke-width="0.2"/>
<circle cx="72.91" cy="43.50" r="0.5" fill="#1F2328"/>
<text x="45.25" y="39.27" font-family="DejaVu Sans, Arial, Helvetica, sans-serif" font-size="2.20" fill="#1F2328" text-anchor="end" font-weight="400">brow (orange) + top plate (black)</text>
<polyline points="78.25,100.50 50.25,119.50" fill="none" stroke="#1F2328" stroke-width="0.2"/>
<circle cx="78.25" cy="100.50" r="0.5" fill="#1F2328"/>
<text x="49.25" y="120.27" font-family="DejaVu Sans, Arial, Helvetica, sans-serif" font-size="2.20" fill="#1F2328" text-anchor="end" font-weight="400">sill / trench floor</text>
<polyline points="63.25,118.50 44.25,112.50" fill="none" stroke="#1F2328" stroke-width="0.2"/>
<circle cx="63.25" cy="118.50" r="0.5" fill="#1F2328"/>
<text x="43.25" y="113.27" font-family="DejaVu Sans, Arial, Helvetica, sans-serif" font-size="2.20" fill="#1F2328" text-anchor="end" font-weight="400">TS06-FASCIA, 12°</text>
<polyline points="64.25,141.00 44.25,139.00" fill="none" stroke="#1F2328" stroke-width="0.2"/>
<circle cx="64.25" cy="141.00" r="0.5" fill="#1F2328"/>
<text x="43.25" y="139.77" font-family="DejaVu Sans, Arial, Helvetica, sans-serif" font-size="2.20" fill="#1F2328" text-anchor="end" font-weight="400">kick + base</text>
<line x1="58.00" y1="146.00" x2="58.00" y2="154.00" stroke="#2F6DB5" stroke-width="0.20" stroke-dasharray="0.6 0.6"/>
<line x1="67.25" y1="146.00" x2="67.25" y2="154.00" stroke="#2F6DB5" stroke-width="0.20" stroke-dasharray="0.6 0.6"/>
<line x1="58.00" y1="154.00" x2="67.25" y2="154.00" stroke="#2F6DB5" stroke-width="0.25"/>
<circle cx="58.00" cy="154.00" r="0.45" fill="#2F6DB5"/>
<circle cx="67.25" cy="154.00" r="0.45" fill="#2F6DB5"/>
<text x="62.62" y="153.20" font-family="DejaVu Sans, Arial, Helvetica, sans-serif" font-size="2.00" fill="#2F6DB5" text-anchor="middle" font-weight="400">9.2</text>
<line x1="67.25" y1="146.00" x2="67.25" y2="158.50" stroke="#2F6DB5" stroke-width="0.20" stroke-dasharray="0.6 0.6"/>
<line x1="68.25" y1="146.00" x2="68.25" y2="158.50" stroke="#2F6DB5" stroke-width="0.20" stroke-dasharray="0.6 0.6"/>
<line x1="67.25" y1="158.50" x2="68.25" y2="158.50" stroke="#2F6DB5" stroke-width="0.25"/>
<circle cx="67.25" cy="158.50" r="0.45" fill="#2F6DB5"/>
<circle cx="68.25" cy="158.50" r="0.45" fill="#2F6DB5"/>
<text x="67.75" y="157.70" font-family="DejaVu Sans, Arial, Helvetica, sans-serif" font-size="2.00" fill="#2F6DB5" text-anchor="middle" font-weight="400">1.0</text>
<line x1="68.25" y1="146.00" x2="68.25" y2="154.00" stroke="#2F6DB5" stroke-width="0.20" stroke-dasharray="0.6 0.6"/>
<line x1="98.25" y1="146.00" x2="98.25" y2="154.00" stroke="#2F6DB5" stroke-width="0.20" stroke-dasharray="0.6 0.6"/>
<line x1="68.25" y1="154.00" x2="98.25" y2="154.00" stroke="#2F6DB5" stroke-width="0.25"/>
<circle cx="68.25" cy="154.00" r="0.45" fill="#2F6DB5"/>
<circle cx="98.25" cy="154.00" r="0.45" fill="#2F6DB5"/>
<text x="83.25" y="153.20" font-family="DejaVu Sans, Arial, Helvetica, sans-serif" font-size="2.00" fill="#2F6DB5" text-anchor="middle" font-weight="400">30.0</text>
<line x1="98.25" y1="146.00" x2="98.25" y2="158.50" stroke="#2F6DB5" stroke-width="0.20" stroke-dasharray="0.6 0.6"/>
<line x1="99.85" y1="146.00" x2="99.85" y2="158.50" stroke="#2F6DB5" stroke-width="0.20" stroke-dasharray="0.6 0.6"/>
<line x1="98.25" y1="158.50" x2="99.85" y2="158.50" stroke="#2F6DB5" stroke-width="0.25"/>
<circle cx="98.25" cy="158.50" r="0.45" fill="#2F6DB5"/>
<circle cx="99.85" cy="158.50" r="0.45" fill="#2F6DB5"/>
<text x="99.05" y="157.70" font-family="DejaVu Sans, Arial, Helvetica, sans-serif" font-size="2.00" fill="#2F6DB5" text-anchor="middle" font-weight="400">1.6</text>
<line x1="99.85" y1="146.00" x2="99.85" y2="154.00" stroke="#2F6DB5" stroke-width="0.20" stroke-dasharray="0.6 0.6"/>
<line x1="110.85" y1="146.00" x2="110.85" y2="154.00" stroke="#2F6DB5" stroke-width="0.20" stroke-dasharray="0.6 0.6"/>
<line x1="99.85" y1="154.00" x2="110.85" y2="154.00" stroke="#2F6DB5" stroke-width="0.25"/>
<circle cx="99.85" cy="154.00" r="0.45" fill="#2F6DB5"/>
<circle cx="110.85" cy="154.00" r="0.45" fill="#2F6DB5"/>
<text x="105.35" y="153.20" font-family="DejaVu Sans, Arial, Helvetica, sans-serif" font-size="2.00" fill="#2F6DB5" text-anchor="middle" font-weight="400">11.0</text>
<line x1="110.85" y1="146.00" x2="110.85" y2="158.50" stroke="#2F6DB5" stroke-width="0.20" stroke-dasharray="0.6 0.6"/>
<line x1="112.45" y1="146.00" x2="112.45" y2="158.50" stroke="#2F6DB5" stroke-width="0.20" stroke-dasharray="0.6 0.6"/>
<line x1="110.85" y1="158.50" x2="112.45" y2="158.50" stroke="#2F6DB5" stroke-width="0.25"/>
<circle cx="110.85" cy="158.50" r="0.45" fill="#2F6DB5"/>
<circle cx="112.45" cy="158.50" r="0.45" fill="#2F6DB5"/>
<text x="111.65" y="157.70" font-family="DejaVu Sans, Arial, Helvetica, sans-serif" font-size="2.00" fill="#2F6DB5" text-anchor="middle" font-weight="400">1.6</text>
<line x1="112.45" y1="146.00" x2="112.45" y2="154.00" stroke="#2F6DB5" stroke-width="0.20" stroke-dasharray="0.6 0.6"/>
<line x1="132.45" y1="146.00" x2="132.45" y2="154.00" stroke="#2F6DB5" stroke-width="0.20" stroke-dasharray="0.6 0.6"/>
<line x1="112.45" y1="154.00" x2="132.45" y2="154.00" stroke="#2F6DB5" stroke-width="0.25"/>
<circle cx="112.45" cy="154.00" r="0.45" fill="#2F6DB5"/>
<circle cx="132.45" cy="154.00" r="0.45" fill="#2F6DB5"/>
<text x="122.45" y="153.20" font-family="DejaVu Sans, Arial, Helvetica, sans-serif" font-size="2.00" fill="#2F6DB5" text-anchor="middle" font-weight="400">20.0</text>
<line x1="132.45" y1="146.00" x2="132.45" y2="158.50" stroke="#2F6DB5" stroke-width="0.20" stroke-dasharray="0.6 0.6"/>
<line x1="137.45" y1="146.00" x2="137.45" y2="158.50" stroke="#2F6DB5" stroke-width="0.20" stroke-dasharray="0.6 0.6"/>
<line x1="132.45" y1="158.50" x2="137.45" y2="158.50" stroke="#2F6DB5" stroke-width="0.25"/>
<circle cx="132.45" cy="158.50" r="0.45" fill="#2F6DB5"/>
<circle cx="137.45" cy="158.50" r="0.45" fill="#2F6DB5"/>
<text x="134.95" y="157.70" font-family="DejaVu Sans, Arial, Helvetica, sans-serif" font-size="2.00" fill="#2F6DB5" text-anchor="middle" font-weight="400">5.0</text>
<line x1="137.45" y1="146.00" x2="137.45" y2="154.00" stroke="#2F6DB5" stroke-width="0.20" stroke-dasharray="0.6 0.6"/>
<line x1="139.05" y1="146.00" x2="139.05" y2="154.00" stroke="#2F6DB5" stroke-width="0.20" stroke-dasharray="0.6 0.6"/>
<line x1="137.45" y1="154.00" x2="139.05" y2="154.00" stroke="#2F6DB5" stroke-width="0.25"/>
<circle cx="137.45" cy="154.00" r="0.45" fill="#2F6DB5"/>
<circle cx="139.05" cy="154.00" r="0.45" fill="#2F6DB5"/>
<text x="138.25" y="153.20" font-family="DejaVu Sans, Arial, Helvetica, sans-serif" font-size="2.00" fill="#2F6DB5" text-anchor="middle" font-weight="400">1.6</text>
<line x1="58.00" y1="146.00" x2="58.00" y2="168.00" stroke="#2F6DB5" stroke-width="0.20" stroke-dasharray="0.6 0.6"/>
<line x1="139.05" y1="146.00" x2="139.05" y2="168.00" stroke="#2F6DB5" stroke-width="0.20" stroke-dasharray="0.6 0.6"/>
<line x1="58.00" y1="168.00" x2="139.05" y2="168.00" stroke="#2F6DB5" stroke-width="0.25"/>
<circle cx="58.00" cy="168.00" r="0.45" fill="#2F6DB5"/>
<circle cx="139.05" cy="168.00" r="0.45" fill="#2F6DB5"/>
<text x="98.52" y="167.20" font-family="DejaVu Sans, Arial, Helvetica, sans-serif" font-size="2.40" fill="#2F6DB5" text-anchor="middle" font-weight="400">81.0 outside depth</text>
<line x1="68.25" y1="146.00" x2="68.25" y2="175.00" stroke="#2F6DB5" stroke-width="0.20" stroke-dasharray="0.6 0.6"/>
<line x1="137.45" y1="146.00" x2="137.45" y2="175.00" stroke="#2F6DB5" stroke-width="0.20" stroke-dasharray="0.6 0.6"/>
<line x1="68.25" y1="175.00" x2="137.45" y2="175.00" stroke="#2F6DB5" stroke-width="0.25"/>
<circle cx="68.25" cy="175.00" r="0.45" fill="#2F6DB5"/>
<circle cx="137.45" cy="175.00" r="0.45" fill="#2F6DB5"/>
<text x="102.85" y="174.20" font-family="DejaVu Sans, Arial, Helvetica, sans-serif" font-size="2.40" fill="#2F6DB5" text-anchor="middle" font-weight="400">69.2 glass front to rear panel (review: 65-72)</text>
<line x1="139.05" y1="146.00" x2="147.05" y2="146.00" stroke="#2F6DB5" stroke-width="0.20" stroke-dasharray="0.6 0.6"/>
<line x1="139.05" y1="143.00" x2="147.05" y2="143.00" stroke="#2F6DB5" stroke-width="0.20" stroke-dasharray="0.6 0.6"/>
<line x1="147.05" y1="146.00" x2="147.05" y2="143.00" stroke="#2F6DB5" stroke-width="0.25"/>
<circle cx="147.05" cy="146.00" r="0.45" fill="#2F6DB5"/>
<circle cx="147.05" cy="143.00" r="0.45" fill="#2F6DB5"/>
<text x="146.25" y="144.50" font-family="DejaVu Sans, Arial, Helvetica, sans-serif" font-size="2.00" fill="#2F6DB5" text-anchor="middle" font-weight="400" transform="rotate(-90 146.25 144.50)">3.0</text>
<line x1="139.05" y1="143.00" x2="152.05" y2="143.00" stroke="#2F6DB5" stroke-width="0.20" stroke-dasharray="0.6 0.6"/>
<line x1="139.05" y1="134.50" x2="152.05" y2="134.50" stroke="#2F6DB5" stroke-width="0.20" stroke-dasharray="0.6 0.6"/>
<line x1="152.05" y1="143.00" x2="152.05" y2="134.50" stroke="#2F6DB5" stroke-width="0.25"/>
<circle cx="152.05" cy="143.00" r="0.45" fill="#2F6DB5"/>
<circle cx="152.05" cy="134.50" r="0.45" fill="#2F6DB5"/>
<text x="151.25" y="138.75" font-family="DejaVu Sans, Arial, Helvetica, sans-serif" font-size="2.00" fill="#2F6DB5" text-anchor="middle" font-weight="400" transform="rotate(-90 151.25 138.75)">8.5</text>
<line x1="139.05" y1="134.50" x2="147.05" y2="134.50" stroke="#2F6DB5" stroke-width="0.20" stroke-dasharray="0.6 0.6"/>
<line x1="139.05" y1="99.50" x2="147.05" y2="99.50" stroke="#2F6DB5" stroke-width="0.20" stroke-dasharray="0.6 0.6"/>
<line x1="147.05" y1="134.50" x2="147.05" y2="99.50" stroke="#2F6DB5" stroke-width="0.25"/>
<circle cx="147.05" cy="134.50" r="0.45" fill="#2F6DB5"/>
<circle cx="147.05" cy="99.50" r="0.45" fill="#2F6DB5"/>
<text x="146.25" y="117.00" font-family="DejaVu Sans, Arial, Helvetica, sans-serif" font-size="2.00" fill="#2F6DB5" text-anchor="middle" font-weight="400" transform="rotate(-90 146.25 117.00)">35.0</text>
<line x1="139.05" y1="99.50" x2="152.05" y2="99.50" stroke="#2F6DB5" stroke-width="0.20" stroke-dasharray="0.6 0.6"/>
<line x1="139.05" y1="63.10" x2="152.05" y2="63.10" stroke="#2F6DB5" stroke-width="0.20" stroke-dasharray="0.6 0.6"/>
<line x1="152.05" y1="99.50" x2="152.05" y2="63.10" stroke="#2F6DB5" stroke-width="0.25"/>
<circle cx="152.05" cy="99.50" r="0.45" fill="#2F6DB5"/>
<circle cx="152.05" cy="63.10" r="0.45" fill="#2F6DB5"/>
<text x="151.25" y="81.30" font-family="DejaVu Sans, Arial, Helvetica, sans-serif" font-size="2.00" fill="#2F6DB5" text-anchor="middle" font-weight="400" transform="rotate(-90 151.25 81.30)">36.4</text>
<line x1="139.05" y1="63.10" x2="147.05" y2="63.10" stroke="#2F6DB5" stroke-width="0.20" stroke-dasharray="0.6 0.6"/>
<line x1="139.05" y1="34.50" x2="147.05" y2="34.50" stroke="#2F6DB5" stroke-width="0.20" stroke-dasharray="0.6 0.6"/>
<line x1="147.05" y1="63.10" x2="147.05" y2="34.50" stroke="#2F6DB5" stroke-width="0.25"/>
<circle cx="147.05" cy="63.10" r="0.45" fill="#2F6DB5"/>
<circle cx="147.05" cy="34.50" r="0.45" fill="#2F6DB5"/>
<text x="146.25" y="48.80" font-family="DejaVu Sans, Arial, Helvetica, sans-serif" font-size="2.00" fill="#2F6DB5" text-anchor="middle" font-weight="400" transform="rotate(-90 146.25 48.80)">28.6</text>
<line x1="139.05" y1="34.50" x2="152.05" y2="34.50" stroke="#2F6DB5" stroke-width="0.20" stroke-dasharray="0.6 0.6"/>
<line x1="139.05" y1="29.00" x2="152.05" y2="29.00" stroke="#2F6DB5" stroke-width="0.20" stroke-dasharray="0.6 0.6"/>
<line x1="152.05" y1="34.50" x2="152.05" y2="29.00" stroke="#2F6DB5" stroke-width="0.25"/>
<circle cx="152.05" cy="34.50" r="0.45" fill="#2F6DB5"/>
<circle cx="152.05" cy="29.00" r="0.45" fill="#2F6DB5"/>
<text x="151.25" y="31.75" font-family="DejaVu Sans, Arial, Helvetica, sans-serif" font-size="2.00" fill="#2F6DB5" text-anchor="middle" font-weight="400" transform="rotate(-90 151.25 31.75)">5.5</text>
<line x1="139.05" y1="29.00" x2="147.05" y2="29.00" stroke="#2F6DB5" stroke-width="0.20" stroke-dasharray="0.6 0.6"/>
<line x1="139.05" y1="26.00" x2="147.05" y2="26.00" stroke="#2F6DB5" stroke-width="0.20" stroke-dasharray="0.6 0.6"/>
<line x1="147.05" y1="29.00" x2="147.05" y2="26.00" stroke="#2F6DB5" stroke-width="0.25"/>
<circle cx="147.05" cy="29.00" r="0.45" fill="#2F6DB5"/>
<circle cx="147.05" cy="26.00" r="0.45" fill="#2F6DB5"/>
<text x="146.25" y="27.50" font-family="DejaVu Sans, Arial, Helvetica, sans-serif" font-size="2.00" fill="#2F6DB5" text-anchor="middle" font-weight="400" transform="rotate(-90 146.25 27.50)">3.0</text>
<line x1="139.05" y1="146.00" x2="161.05" y2="146.00" stroke="#2F6DB5" stroke-width="0.20" stroke-dasharray="0.6 0.6"/>
<line x1="139.05" y1="26.00" x2="161.05" y2="26.00" stroke="#2F6DB5" stroke-width="0.20" stroke-dasharray="0.6 0.6"/>
<line x1="161.05" y1="146.00" x2="161.05" y2="26.00" stroke="#2F6DB5" stroke-width="0.25"/>
<circle cx="161.05" cy="146.00" r="0.45" fill="#2F6DB5"/>
<circle cx="161.05" cy="26.00" r="0.45" fill="#2F6DB5"/>
<text x="160.25" y="86.00" font-family="DejaVu Sans, Arial, Helvetica, sans-serif" font-size="2.40" fill="#2F6DB5" text-anchor="middle" font-weight="400" transform="rotate(-90 160.25 86.00)">120.0 outside height</text>
<text x="8" y="182.6" font-family="DejaVu Sans, Arial, Helvetica, sans-serif" font-size="2.4" fill="#6E7781">Chain along the bottom: toe to face 9.2 · recess 1.0 · glass to TS06-DISP 30.0 (25.5 + 4.5 socket seat, assumed) · board · stack 11.0 · board · tallest part 20.0 (U13) · air 5.0 · panel 1.6.</text>
<text x="8" y="186.0" font-family="DejaVu Sans, Arial, Helvetica, sans-serif" font-size="2.4" fill="#6E7781">Blue-grey dashed skyline: every part on TS06-DRV's rear face, all X. The floor is 4.5 below the FreeCAD Y 0: the base's end blocks have to clear TS06-DRV's bottom edge (checks.md, 7 and 8); the fascia's J1 is upright and no longer sets it.</text>
</svg>
