solid OpenSCAD_Model
  facet normal 1 0 0
    outer loop
      vertex 191.9 27.5 75.4
      vertex 191.9 1.24468 39
      vertex 191.9 27.5 37
    endloop
  endfacet
  facet normal 1 -0 0
    outer loop
      vertex 191.9 -1 75.4
      vertex 191.9 1.24468 39
      vertex 191.9 27.5 75.4
    endloop
  endfacet
  facet normal 1 0 0
    outer loop
      vertex 191.9 1.24468 39
      vertex 191.9 -1 75.4
      vertex 191.9 -1 39
    endloop
  endfacet
  facet normal 1 0 0
    outer loop
      vertex 191.9 27.5 37
      vertex 191.9 1.24468 39
      vertex 191.9 1.24468 37
    endloop
  endfacet
  facet normal 0 0 -1
    outer loop
      vertex -0.5 -1 39
      vertex 3 1.24468 39
      vertex 3 -1 39
    endloop
  endfacet
  facet normal -0 0 -1
    outer loop
      vertex 3 1.24468 39
      vertex -0.5 -1 39
      vertex -0.5 1.24468 39
    endloop
  endfacet
  facet normal 0 0 -1
    outer loop
      vertex 182.035 -1 39
      vertex 191.9 1.24468 39
      vertex 191.9 -1 39
    endloop
  endfacet
  facet normal -0 0 -1
    outer loop
      vertex 191.9 1.24468 39
      vertex 182.035 -1 39
      vertex 182.035 1.24468 39
    endloop
  endfacet
  facet normal 0 0 1
    outer loop
      vertex 182.035 27.5 39
      vertex 48.775 8.21 39
      vertex 182.035 1.24468 39
    endloop
  endfacet
  facet normal -0 0 1
    outer loop
      vertex 3 27.5 39
      vertex 48.775 8.21 39
      vertex 182.035 27.5 39
    endloop
  endfacet
  facet normal 0 0 1
    outer loop
      vertex 48.775 8.21 39
      vertex 3 27.5 39
      vertex 19.835 8.21 39
    endloop
  endfacet
  facet normal 0 0 1
    outer loop
      vertex 3 1.24468 39
      vertex 19.835 8.21 39
      vertex 3 27.5 39
    endloop
  endfacet
  facet normal 0 0 1
    outer loop
      vertex 19.835 8.21 39
      vertex 3 1.24468 39
      vertex 19.835 1.24468 39
    endloop
  endfacet
  facet normal 0 0 1
    outer loop
      vertex 182.035 1.24468 39
      vertex 48.775 8.21 39
      vertex 48.775 1.24468 39
    endloop
  endfacet
  facet normal 0 0 -1
    outer loop
      vertex 19.835 1.24468 37
      vertex -0.5 1.24468 37
      vertex 19.835 8.21 37
    endloop
  endfacet
  facet normal 0 0 -1
    outer loop
      vertex 48.775 8.21 37
      vertex 191.9 1.24468 37
      vertex 48.775 1.24468 37
    endloop
  endfacet
  facet normal 0 0 -1
    outer loop
      vertex 191.9 1.24468 37
      vertex 48.775 8.21 37
      vertex 191.9 27.5 37
    endloop
  endfacet
  facet normal 0 0 -1
    outer loop
      vertex -0.5 27.5 37
      vertex 48.775 8.21 37
      vertex 19.835 8.21 37
    endloop
  endfacet
  facet normal 0 0 -1
    outer loop
      vertex 48.775 8.21 37
      vertex -0.5 27.5 37
      vertex 191.9 27.5 37
    endloop
  endfacet
  facet normal 0 0 -1
    outer loop
      vertex -0.5 27.5 37
      vertex 19.835 8.21 37
      vertex -0.5 1.24468 37
    endloop
  endfacet
  facet normal -1 0 0
    outer loop
      vertex -0.5 1.24468 39
      vertex -0.5 27.5 37
      vertex -0.5 1.24468 37
    endloop
  endfacet
  facet normal -1 0 0
    outer loop
      vertex -0.5 27.5 37
      vertex -0.5 1.24468 39
      vertex -0.5 27.5 75.4
    endloop
  endfacet
  facet normal -1 0 0
    outer loop
      vertex -0.5 -1 75.4
      vertex -0.5 1.24468 39
      vertex -0.5 -1 39
    endloop
  endfacet
  facet normal -1 0 0
    outer loop
      vertex -0.5 1.24468 39
      vertex -0.5 -1 75.4
      vertex -0.5 27.5 75.4
    endloop
  endfacet
  facet normal 0 1 0
    outer loop
      vertex 191.9 27.5 75.4
      vertex 182.035 27.5 39
      vertex 182.035 27.5 75.4
    endloop
  endfacet
  facet normal 0 1 0
    outer loop
      vertex -0.5 27.5 37
      vertex 182.035 27.5 39
      vertex 191.9 27.5 37
    endloop
  endfacet
  facet normal 0 1 -0
    outer loop
      vertex 191.9 27.5 37
      vertex 182.035 27.5 39
      vertex 191.9 27.5 75.4
    endloop
  endfacet
  facet normal 0 1 -0
    outer loop
      vertex 3 27.5 39
      vertex -0.5 27.5 75.4
      vertex 3 27.5 75.4
    endloop
  endfacet
  facet normal 0 1 0
    outer loop
      vertex 3 27.5 39
      vertex -0.5 27.5 37
      vertex -0.5 27.5 75.4
    endloop
  endfacet
  facet normal 0 1 0
    outer loop
      vertex 182.035 27.5 39
      vertex -0.5 27.5 37
      vertex 3 27.5 39
    endloop
  endfacet
  facet normal 0 -1 0
    outer loop
      vertex -0.5 1.24468 37
      vertex 3 1.24468 39
      vertex -0.5 1.24468 39
    endloop
  endfacet
  facet normal 0 -1 0
    outer loop
      vertex 19.835 1.24468 37
      vertex 3 1.24468 39
      vertex -0.5 1.24468 37
    endloop
  endfacet
  facet normal 0 -1 0
    outer loop
      vertex 3 1.24468 39
      vertex 19.835 1.24468 37
      vertex 19.835 1.24468 39
    endloop
  endfacet
  facet normal 0 -1 0
    outer loop
      vertex 48.775 1.24468 37
      vertex 182.035 1.24468 39
      vertex 48.775 1.24468 39
    endloop
  endfacet
  facet normal 0 -1 0
    outer loop
      vertex 191.9 1.24468 37
      vertex 182.035 1.24468 39
      vertex 48.775 1.24468 37
    endloop
  endfacet
  facet normal 0 -1 0
    outer loop
      vertex 182.035 1.24468 39
      vertex 191.9 1.24468 37
      vertex 191.9 1.24468 39
    endloop
  endfacet
  facet normal -1 0 0
    outer loop
      vertex 48.775 1.24468 37
      vertex 48.775 8.21 39
      vertex 48.775 8.21 37
    endloop
  endfacet
  facet normal -1 -0 0
    outer loop
      vertex 48.775 8.21 39
      vertex 48.775 1.24468 37
      vertex 48.775 1.24468 39
    endloop
  endfacet
  facet normal 1 -0 0
    outer loop
      vertex 19.835 1.24468 39
      vertex 19.835 8.21 37
      vertex 19.835 8.21 39
    endloop
  endfacet
  facet normal 1 0 0
    outer loop
      vertex 19.835 8.21 37
      vertex 19.835 1.24468 39
      vertex 19.835 1.24468 37
    endloop
  endfacet
  facet normal 0 -1 0
    outer loop
      vertex 19.835 8.21 37
      vertex 48.775 8.21 39
      vertex 19.835 8.21 39
    endloop
  endfacet
  facet normal 0 -1 -0
    outer loop
      vertex 48.775 8.21 39
      vertex 19.835 8.21 37
      vertex 48.775 8.21 37
    endloop
  endfacet
  facet normal 1 0 0
    outer loop
      vertex 3 27.5 75.4
      vertex 3 1.24468 39
      vertex 3 27.5 39
    endloop
  endfacet
  facet normal 1 -0 0
    outer loop
      vertex 3 -1 75.4
      vertex 3 1.24468 39
      vertex 3 27.5 75.4
    endloop
  endfacet
  facet normal 1 0 0
    outer loop
      vertex 3 1.24468 39
      vertex 3 -1 75.4
      vertex 3 -1 39
    endloop
  endfacet
  facet normal -0 0 1
    outer loop
      vertex -0.5 27.5 75.4
      vertex 3 -1 75.4
      vertex 3 27.5 75.4
    endloop
  endfacet
  facet normal 0 0 1
    outer loop
      vertex 3 -1 75.4
      vertex -0.5 27.5 75.4
      vertex -0.5 -1 75.4
    endloop
  endfacet
  facet normal 0 -1 0
    outer loop
      vertex -0.5 -1 39
      vertex 3 -1 75.4
      vertex -0.5 -1 75.4
    endloop
  endfacet
  facet normal 0 -1 -0
    outer loop
      vertex 3 -1 75.4
      vertex -0.5 -1 39
      vertex 3 -1 39
    endloop
  endfacet
  facet normal -0 0 1
    outer loop
      vertex 182.035 27.5 75.4
      vertex 191.9 -1 75.4
      vertex 191.9 27.5 75.4
    endloop
  endfacet
  facet normal 0 0 1
    outer loop
      vertex 191.9 -1 75.4
      vertex 182.035 27.5 75.4
      vertex 182.035 -1 75.4
    endloop
  endfacet
  facet normal -1 0 0
    outer loop
      vertex 182.035 1.24468 39
      vertex 182.035 27.5 75.4
      vertex 182.035 27.5 39
    endloop
  endfacet
  facet normal -1 0 0
    outer loop
      vertex 182.035 -1 75.4
      vertex 182.035 1.24468 39
      vertex 182.035 -1 39
    endloop
  endfacet
  facet normal -1 0 0
    outer loop
      vertex 182.035 1.24468 39
      vertex 182.035 -1 75.4
      vertex 182.035 27.5 75.4
    endloop
  endfacet
  facet normal 0 -1 0
    outer loop
      vertex 182.035 -1 39
      vertex 191.9 -1 75.4
      vertex 182.035 -1 75.4
    endloop
  endfacet
  facet normal 0 -1 -0
    outer loop
      vertex 191.9 -1 75.4
      vertex 182.035 -1 39
      vertex 191.9 -1 39
    endloop
  endfacet
endsolid OpenSCAD_Model
