#VRML V2.0 utf8
# dip_chip_28: written by tools/build_models3d.py from 3d/populated/models/dip_chip.scad; layers body #1c1c1e, leads #bcc0c4, mark #8e8e93
Shape {
 appearance Appearance { material Material {
  diffuseColor 0.1098 0.1098 0.1176
  specularColor 0.250 0.250 0.250
  ambientIntensity 0.4
  shininess 0.30
 } }
 geometry IndexedFaceSet {
  creaseAngle 0.5
  coord Coordinate { point [
   -5.19291 -7.76181 3.34646,
   8.19291 -5.23819 3.34646,
   -5.19291 -5.23819 3.34646,
   -5.33071 -5.10039 1.57480,
   -5.33071 -5.10039 2.54921,
   8.33071 -5.10039 1.57480,
   8.33071 -7.89961 1.57480,
   8.33071 -7.89961 2.54921,
   8.19291 -7.76181 3.34646,
   -5.33071 -7.89961 2.54921,
   8.33071 -5.10039 2.54921,
   -5.33071 -7.89961 1.57480
  ] }
  coordIndex [
   0, 1, 2, -1,
   3, 4, 5, -1,
   6, 5, 7, -1,
   7, 8, 9, -1,
   5, 4, 10, -1,
   1, 4, 2, -1,
   11, 5, 6, -1,
   3, 5, 11, -1,
   10, 1, 7, -1,
   9, 8, 0, -1,
   0, 4, 9, -1,
   2, 4, 0, -1,
   7, 11, 6, -1,
   9, 11, 7, -1,
   10, 4, 1, -1,
   7, 5, 10, -1,
   8, 1, 0, -1,
   7, 1, 8, -1,
   11, 4, 3, -1,
   9, 4, 11, -1
  ]
 }
}
Shape {
 appearance Appearance { material Material {
  diffuseColor 0.7373 0.7529 0.7686
  specularColor 0.250 0.250 0.250
  ambientIntensity 0.4
  shininess 0.30
 } }
 geometry IndexedFaceSet {
  creaseAngle 0.5
  coord Coordinate { point [
   0.17913 -0.09843 1.96850,
   0.05906 0.09843 0.19685,
   0.17913 0.09843 1.96850,
   0.05906 -0.09843 0.19685,
   -0.05906 -0.09843 0.19685,
   -0.05906 0.09843 0.23622,
   -0.05906 0.09843 0.19685,
   -0.05906 -0.09843 0.23622,
   0.06102 0.09843 2.08661,
   0.06102 -0.09843 2.08661,
   0.17913 -0.09843 2.08661,
   0.17913 0.09843 2.08661,
   2.93898 -0.09843 2.08661,
   3.05906 0.09843 0.23622,
   2.93898 0.09843 2.08661,
   3.05906 -0.09843 0.23622,
   2.82087 -0.09843 1.96850,
   2.82087 0.09843 2.08661,
   2.82087 0.09843 1.96850,
   2.82087 -0.09843 2.08661,
   2.94094 -0.09843 0.19685,
   2.94094 0.09843 0.19685,
   3.05906 -0.09843 0.19685,
   3.05906 0.09843 0.19685,
   0.17913 -1.09843 1.96850,
   0.05906 -0.90157 0.19685,
   0.17913 -0.90157 1.96850,
   0.05906 -1.09843 0.19685,
   -0.05906 -1.09843 0.19685,
   -0.05906 -0.90157 0.23622,
   -0.05906 -0.90157 0.19685,
   -0.05906 -1.09843 0.23622,
   0.06102 -0.90157 2.08661,
   0.06102 -1.09843 2.08661,
   0.17913 -1.09843 2.08661,
   0.17913 -0.90157 2.08661,
   2.93898 -1.09843 2.08661,
   3.05906 -0.90157 0.23622,
   2.93898 -0.90157 2.08661,
   3.05906 -1.09843 0.23622,
   2.82087 -1.09843 1.96850,
   2.82087 -0.90157 2.08661,
   2.82087 -0.90157 1.96850,
   2.82087 -1.09843 2.08661,
   2.94094 -1.09843 0.19685,
   2.94094 -0.90157 0.19685,
   3.05906 -0.90157 0.19685,
   3.05906 -1.09843 0.19685,
   0.17913 -2.09843 1.96850,
   0.05906 -1.90157 0.19685,
   0.17913 -1.90157 1.96850,
   0.05906 -2.09843 0.19685,
   -0.05906 -2.09843 0.19685,
   -0.05906 -1.90157 0.23622,
   -0.05906 -1.90157 0.19685,
   -0.05906 -2.09843 0.23622,
   0.06102 -1.90157 2.08661,
   0.06102 -2.09843 2.08661,
   0.17913 -2.09843 2.08661,
   0.17913 -1.90157 2.08661,
   2.93898 -2.09843 2.08661,
   3.05906 -1.90157 0.23622,
   2.93898 -1.90157 2.08661,
   3.05906 -2.09843 0.23622,
   2.82087 -2.09843 1.96850,
   2.82087 -1.90157 2.08661,
   2.82087 -1.90157 1.96850,
   2.82087 -2.09843 2.08661,
   2.94094 -2.09843 0.19685,
   2.94094 -1.90157 0.19685,
   3.05906 -1.90157 0.19685,
   3.05906 -2.09843 0.19685,
   0.17913 -3.09843 1.96850,
   0.05906 -2.90157 0.19685,
   0.17913 -2.90157 1.96850,
   0.05906 -3.09843 0.19685,
   -0.05906 -3.09843 0.19685,
   -0.05906 -2.90157 0.23622,
   -0.05906 -2.90157 0.19685,
   -0.05906 -3.09843 0.23622,
   0.06102 -2.90157 2.08661,
   0.06102 -3.09843 2.08661,
   0.17913 -3.09843 2.08661,
   0.17913 -2.90157 2.08661,
   2.93898 -3.09843 2.08661,
   3.05906 -2.90157 0.23622,
   2.93898 -2.90157 2.08661,
   3.05906 -3.09843 0.23622,
   2.82087 -3.09843 1.96850,
   2.82087 -2.90157 2.08661,
   2.82087 -2.90157 1.96850,
   2.82087 -3.09843 2.08661,
   2.94094 -3.09843 0.19685,
   2.94094 -2.90157 0.19685,
   3.05906 -3.09843 0.19685,
   3.05906 -2.90157 0.19685,
   0.17913 -4.09843 1.96850,
   0.05906 -3.90157 0.19685,
   0.17913 -3.90157 1.96850,
   0.05906 -4.09843 0.19685,
   -0.05906 -4.09843 0.19685,
   -0.05906 -3.90157 0.23622,
   -0.05906 -3.90157 0.19685,
   -0.05906 -4.09843 0.23622,
   0.06102 -3.90157 2.08661,
   0.06102 -4.09843 2.08661,
   0.17913 -4.09843 2.08661,
   0.17913 -3.90157 2.08661,
   2.93898 -4.09843 2.08661,
   3.05906 -3.90157 0.23622,
   2.93898 -3.90157 2.08661,
   3.05906 -4.09843 0.23622,
   2.82087 -4.09843 1.96850,
   2.82087 -3.90157 2.08661,
   2.82087 -3.90157 1.96850,
   2.82087 -4.09843 2.08661,
   2.94094 -4.09843 0.19685,
   2.94094 -3.90157 0.19685,
   3.05906 -4.09843 0.19685,
   3.05906 -3.90157 0.19685,
   0.17913 -5.09843 1.96850,
   0.05906 -4.90157 0.19685,
   0.17913 -4.90157 1.96850,
   0.05906 -5.09843 0.19685,
   -0.05906 -5.09843 0.19685,
   -0.05906 -4.90157 0.23622,
   -0.05906 -4.90157 0.19685,
   -0.05906 -5.09843 0.23622,
   0.06102 -4.90157 2.08661,
   0.06102 -5.09843 2.08661,
   0.17913 -5.09843 2.08661,
   0.17913 -4.90157 2.08661,
   2.93898 -5.09843 2.08661,
   3.05906 -4.90157 0.23622,
   2.93898 -4.90157 2.08661,
   3.05906 -5.09843 0.23622,
   2.82087 -5.09843 1.96850,
   2.82087 -4.90157 2.08661,
   2.82087 -4.90157 1.96850,
   2.82087 -5.09843 2.08661,
   2.94094 -5.09843 0.19685,
   2.94094 -4.90157 0.19685,
   3.05906 -5.09843 0.19685,
   3.05906 -4.90157 0.19685,
   0.17913 -6.09843 1.96850,
   0.05906 -5.90157 0.19685,
   0.17913 -5.90157 1.96850,
   0.05906 -6.09843 0.19685,
   -0.05906 -6.09843 0.19685,
   -0.05906 -5.90157 0.23622,
   -0.05906 -5.90157 0.19685,
   -0.05906 -6.09843 0.23622,
   0.06102 -5.90157 2.08661,
   0.06102 -6.09843 2.08661,
   0.17913 -6.09843 2.08661,
   0.17913 -5.90157 2.08661,
   2.93898 -6.09843 2.08661,
   3.05906 -5.90157 0.23622,
   2.93898 -5.90157 2.08661,
   3.05906 -6.09843 0.23622,
   2.82087 -6.09843 1.96850,
   2.82087 -5.90157 2.08661,
   2.82087 -5.90157 1.96850,
   2.82087 -6.09843 2.08661,
   2.94094 -6.09843 0.19685,
   2.94094 -5.90157 0.19685,
   3.05906 -5.90157 0.19685,
   3.05906 -6.09843 0.19685,
   0.17913 -7.09843 1.96850,
   0.05906 -6.90157 0.19685,
   0.17913 -6.90157 1.96850,
   0.05906 -7.09843 0.19685,
   -0.05906 -7.09843 0.19685,
   -0.05906 -6.90157 0.23622,
   -0.05906 -6.90157 0.19685,
   -0.05906 -7.09843 0.23622,
   0.06102 -6.90157 2.08661,
   0.06102 -7.09843 2.08661,
   0.17913 -7.09843 2.08661,
   0.17913 -6.90157 2.08661,
   2.93898 -7.09843 2.08661,
   3.05906 -6.90157 0.23622,
   2.93898 -6.90157 2.08661,
   3.05906 -7.09843 0.23622,
   2.82087 -7.09843 1.96850,
   2.82087 -6.90157 2.08661,
   2.82087 -6.90157 1.96850,
   2.82087 -7.09843 2.08661,
   2.94094 -7.09843 0.19685,
   2.94094 -6.90157 0.19685,
   3.05906 -7.09843 0.19685,
   3.05906 -6.90157 0.19685,
   0.17913 -8.09843 1.96850,
   0.05906 -7.90157 0.19685,
   0.17913 -7.90157 1.96850,
   0.05906 -8.09843 0.19685,
   -0.05906 -8.09843 0.19685,
   -0.05906 -7.90157 0.23622,
   -0.05906 -7.90157 0.19685,
   -0.05906 -8.09843 0.23622,
   0.06102 -7.90157 2.08661,
   0.06102 -8.09843 2.08661,
   0.17913 -8.09843 2.08661,
   0.17913 -7.90157 2.08661,
   2.93898 -8.09843 2.08661,
   3.05906 -7.90157 0.23622,
   2.93898 -7.90157 2.08661,
   3.05906 -8.09843 0.23622,
   2.82087 -8.09843 1.96850,
   2.82087 -7.90157 2.08661,
   2.82087 -7.90157 1.96850,
   2.82087 -8.09843 2.08661,
   2.94094 -8.09843 0.19685,
   2.94094 -7.90157 0.19685,
   3.05906 -8.09843 0.19685,
   3.05906 -7.90157 0.19685,
   0.17913 -9.09843 1.96850,
   0.05906 -8.90157 0.19685,
   0.17913 -8.90157 1.96850,
   0.05906 -9.09843 0.19685,
   -0.05906 -9.09843 0.19685,
   -0.05906 -8.90157 0.23622,
   -0.05906 -8.90157 0.19685,
   -0.05906 -9.09843 0.23622,
   0.06102 -8.90157 2.08661,
   0.06102 -9.09843 2.08661,
   0.17913 -9.09843 2.08661,
   0.17913 -8.90157 2.08661,
   2.93898 -9.09843 2.08661,
   3.05906 -8.90157 0.23622,
   2.93898 -8.90157 2.08661,
   3.05906 -9.09843 0.23622,
   2.82087 -9.09843 1.96850,
   2.82087 -8.90157 2.08661,
   2.82087 -8.90157 1.96850,
   2.82087 -9.09843 2.08661,
   2.94094 -9.09843 0.19685,
   2.94094 -8.90157 0.19685,
   3.05906 -9.09843 0.19685,
   3.05906 -8.90157 0.19685,
   0.17913 -10.09843 1.96850,
   0.05906 -9.90157 0.19685,
   0.17913 -9.90157 1.96850,
   0.05906 -10.09843 0.19685,
   -0.05906 -10.09843 0.19685,
   -0.05906 -9.90157 0.23622,
   -0.05906 -9.90157 0.19685,
   -0.05906 -10.09843 0.23622,
   0.06102 -9.90157 2.08661,
   0.06102 -10.09843 2.08661,
   0.17913 -10.09843 2.08661,
   0.17913 -9.90157 2.08661,
   2.93898 -10.09843 2.08661,
   3.05906 -9.90157 0.23622,
   2.93898 -9.90157 2.08661,
   3.05906 -10.09843 0.23622,
   2.82087 -10.09843 1.96850,
   2.82087 -9.90157 2.08661,
   2.82087 -9.90157 1.96850,
   2.82087 -10.09843 2.08661,
   2.94094 -10.09843 0.19685,
   2.94094 -9.90157 0.19685,
   3.05906 -10.09843 0.19685,
   3.05906 -9.90157 0.19685,
   0.17913 -11.09843 1.96850,
   0.05906 -10.90157 0.19685,
   0.17913 -10.90157 1.96850,
   0.05906 -11.09843 0.19685,
   -0.05906 -11.09843 0.19685,
   -0.05906 -10.90157 0.23622,
   -0.05906 -10.90157 0.19685,
   -0.05906 -11.09843 0.23622,
   0.06102 -10.90157 2.08661,
   0.06102 -11.09843 2.08661,
   0.17913 -11.09843 2.08661,
   0.17913 -10.90157 2.08661,
   2.93898 -11.09843 2.08661,
   3.05906 -10.90157 0.23622,
   2.93898 -10.90157 2.08661,
   3.05906 -11.09843 0.23622,
   2.82087 -11.09843 1.96850,
   2.82087 -10.90157 2.08661,
   2.82087 -10.90157 1.96850,
   2.82087 -11.09843 2.08661,
   2.94094 -11.09843 0.19685,
   2.94094 -10.90157 0.19685,
   3.05906 -11.09843 0.19685,
   3.05906 -10.90157 0.19685,
   0.17913 -12.09843 1.96850,
   0.05906 -11.90157 0.19685,
   0.17913 -11.90157 1.96850,
   0.05906 -12.09843 0.19685,
   -0.05906 -12.09843 0.19685,
   -0.05906 -11.90157 0.23622,
   -0.05906 -11.90157 0.19685,
   -0.05906 -12.09843 0.23622,
   0.06102 -11.90157 2.08661,
   0.06102 -12.09843 2.08661,
   0.17913 -12.09843 2.08661,
   0.17913 -11.90157 2.08661,
   2.93898 -12.09843 2.08661,
   3.05906 -11.90157 0.23622,
   2.93898 -11.90157 2.08661,
   3.05906 -12.09843 0.23622,
   2.82087 -12.09843 1.96850,
   2.82087 -11.90157 2.08661,
   2.82087 -11.90157 1.96850,
   2.82087 -12.09843 2.08661,
   2.94094 -12.09843 0.19685,
   2.94094 -11.90157 0.19685,
   3.05906 -12.09843 0.19685,
   3.05906 -11.90157 0.19685,
   0.17913 -13.09843 1.96850,
   0.05906 -12.90157 0.19685,
   0.17913 -12.90157 1.96850,
   0.05906 -13.09843 0.19685,
   -0.05906 -13.09843 0.19685,
   -0.05906 -12.90157 0.23622,
   -0.05906 -12.90157 0.19685,
   -0.05906 -13.09843 0.23622,
   0.06102 -12.90157 2.08661,
   0.06102 -13.09843 2.08661,
   0.17913 -13.09843 2.08661,
   0.17913 -12.90157 2.08661,
   2.93898 -13.09843 2.08661,
   3.05906 -12.90157 0.23622,
   2.93898 -12.90157 2.08661,
   3.05906 -13.09843 0.23622,
   2.82087 -13.09843 1.96850,
   2.82087 -12.90157 2.08661,
   2.82087 -12.90157 1.96850,
   2.82087 -13.09843 2.08661,
   2.94094 -13.09843 0.19685,
   2.94094 -12.90157 0.19685,
   3.05906 -12.90157 0.19685,
   3.05906 -13.09843 0.19685
  ] }
  coordIndex [
   0, 1, 2, -1,
   1, 0, 3, -1,
   4, 5, 6, -1,
   5, 4, 7, -1,
   7, 8, 5, -1,
   8, 7, 9, -1,
   8, 10, 11, -1,
   10, 8, 9, -1,
   4, 1, 3, -1,
   1, 4, 6, -1,
   9, 0, 10, -1,
   7, 0, 9, -1,
   3, 7, 4, -1,
   7, 3, 0, -1,
   2, 8, 11, -1,
   2, 5, 8, -1,
   1, 5, 2, -1,
   5, 1, 6, -1,
   10, 2, 11, -1,
   2, 10, 0, -1,
   12, 13, 14, -1,
   13, 12, 15, -1,
   16, 17, 18, -1,
   17, 16, 19, -1,
   20, 18, 21, -1,
   18, 20, 16, -1,
   17, 12, 14, -1,
   12, 17, 19, -1,
   16, 12, 19, -1,
   16, 15, 12, -1,
   20, 15, 16, -1,
   15, 20, 22, -1,
   15, 23, 13, -1,
   23, 15, 22, -1,
   20, 23, 22, -1,
   23, 20, 21, -1,
   14, 18, 17, -1,
   13, 18, 14, -1,
   21, 13, 23, -1,
   13, 21, 18, -1,
   24, 25, 26, -1,
   25, 24, 27, -1,
   28, 29, 30, -1,
   29, 28, 31, -1,
   31, 32, 29, -1,
   32, 31, 33, -1,
   32, 34, 35, -1,
   34, 32, 33, -1,
   28, 25, 27, -1,
   25, 28, 30, -1,
   33, 24, 34, -1,
   31, 24, 33, -1,
   27, 31, 28, -1,
   31, 27, 24, -1,
   26, 32, 35, -1,
   26, 29, 32, -1,
   25, 29, 26, -1,
   29, 25, 30, -1,
   34, 26, 35, -1,
   26, 34, 24, -1,
   36, 37, 38, -1,
   37, 36, 39, -1,
   40, 41, 42, -1,
   41, 40, 43, -1,
   44, 42, 45, -1,
   42, 44, 40, -1,
   41, 36, 38, -1,
   36, 41, 43, -1,
   38, 42, 41, -1,
   37, 42, 38, -1,
   45, 37, 46, -1,
   37, 45, 42, -1,
   40, 36, 43, -1,
   40, 39, 36, -1,
   44, 39, 40, -1,
   39, 44, 47, -1,
   39, 46, 37, -1,
   46, 39, 47, -1,
   44, 46, 47, -1,
   46, 44, 45, -1,
   48, 49, 50, -1,
   49, 48, 51, -1,
   52, 53, 54, -1,
   53, 52, 55, -1,
   55, 56, 53, -1,
   56, 55, 57, -1,
   56, 58, 59, -1,
   58, 56, 57, -1,
   52, 49, 51, -1,
   49, 52, 54, -1,
   57, 48, 58, -1,
   55, 48, 57, -1,
   51, 55, 52, -1,
   55, 51, 48, -1,
   50, 56, 59, -1,
   50, 53, 56, -1,
   49, 53, 50, -1,
   53, 49, 54, -1,
   58, 50, 59, -1,
   50, 58, 48, -1,
   60, 61, 62, -1,
   61, 60, 63, -1,
   64, 65, 66, -1,
   65, 64, 67, -1,
   68, 66, 69, -1,
   66, 68, 64, -1,
   65, 60, 62, -1,
   60, 65, 67, -1,
   62, 66, 65, -1,
   61, 66, 62, -1,
   69, 61, 70, -1,
   61, 69, 66, -1,
   64, 60, 67, -1,
   64, 63, 60, -1,
   68, 63, 64, -1,
   63, 68, 71, -1,
   63, 70, 61, -1,
   70, 63, 71, -1,
   68, 70, 71, -1,
   70, 68, 69, -1,
   72, 73, 74, -1,
   73, 72, 75, -1,
   76, 77, 78, -1,
   77, 76, 79, -1,
   79, 80, 77, -1,
   80, 79, 81, -1,
   80, 82, 83, -1,
   82, 80, 81, -1,
   76, 73, 75, -1,
   73, 76, 78, -1,
   81, 72, 82, -1,
   79, 72, 81, -1,
   75, 79, 76, -1,
   79, 75, 72, -1,
   74, 80, 83, -1,
   74, 77, 80, -1,
   73, 77, 74, -1,
   77, 73, 78, -1,
   82, 74, 83, -1,
   74, 82, 72, -1,
   84, 85, 86, -1,
   85, 84, 87, -1,
   88, 89, 90, -1,
   89, 88, 91, -1,
   92, 90, 93, -1,
   90, 92, 88, -1,
   89, 84, 86, -1,
   84, 89, 91, -1,
   88, 84, 91, -1,
   88, 87, 84, -1,
   92, 87, 88, -1,
   87, 92, 94, -1,
   87, 95, 85, -1,
   95, 87, 94, -1,
   92, 95, 94, -1,
   95, 92, 93, -1,
   86, 90, 89, -1,
   85, 90, 86, -1,
   93, 85, 95, -1,
   85, 93, 90, -1,
   96, 97, 98, -1,
   97, 96, 99, -1,
   100, 101, 102, -1,
   101, 100, 103, -1,
   103, 104, 101, -1,
   104, 103, 105, -1,
   104, 106, 107, -1,
   106, 104, 105, -1,
   100, 97, 99, -1,
   97, 100, 102, -1,
   105, 96, 106, -1,
   103, 96, 105, -1,
   99, 103, 100, -1,
   103, 99, 96, -1,
   98, 104, 107, -1,
   98, 101, 104, -1,
   97, 101, 98, -1,
   101, 97, 102, -1,
   106, 98, 107, -1,
   98, 106, 96, -1,
   108, 109, 110, -1,
   109, 108, 111, -1,
   112, 113, 114, -1,
   113, 112, 115, -1,
   116, 114, 117, -1,
   114, 116, 112, -1,
   113, 108, 110, -1,
   108, 113, 115, -1,
   112, 108, 115, -1,
   112, 111, 108, -1,
   116, 111, 112, -1,
   111, 116, 118, -1,
   111, 119, 109, -1,
   119, 111, 118, -1,
   116, 119, 118, -1,
   119, 116, 117, -1,
   110, 114, 113, -1,
   109, 114, 110, -1,
   117, 109, 119, -1,
   109, 117, 114, -1,
   120, 121, 122, -1,
   121, 120, 123, -1,
   124, 125, 126, -1,
   125, 124, 127, -1,
   127, 128, 125, -1,
   128, 127, 129, -1,
   128, 130, 131, -1,
   130, 128, 129, -1,
   124, 121, 123, -1,
   121, 124, 126, -1,
   129, 120, 130, -1,
   127, 120, 129, -1,
   123, 127, 124, -1,
   127, 123, 120, -1,
   122, 128, 131, -1,
   122, 125, 128, -1,
   121, 125, 122, -1,
   125, 121, 126, -1,
   130, 122, 131, -1,
   122, 130, 120, -1,
   132, 133, 134, -1,
   133, 132, 135, -1,
   136, 137, 138, -1,
   137, 136, 139, -1,
   140, 138, 141, -1,
   138, 140, 136, -1,
   137, 132, 134, -1,
   132, 137, 139, -1,
   136, 132, 139, -1,
   136, 135, 132, -1,
   140, 135, 136, -1,
   135, 140, 142, -1,
   135, 143, 133, -1,
   143, 135, 142, -1,
   140, 143, 142, -1,
   143, 140, 141, -1,
   134, 138, 137, -1,
   133, 138, 134, -1,
   141, 133, 143, -1,
   133, 141, 138, -1,
   144, 145, 146, -1,
   145, 144, 147, -1,
   148, 149, 150, -1,
   149, 148, 151, -1,
   151, 152, 149, -1,
   152, 151, 153, -1,
   152, 154, 155, -1,
   154, 152, 153, -1,
   148, 145, 147, -1,
   145, 148, 150, -1,
   153, 144, 154, -1,
   151, 144, 153, -1,
   147, 151, 148, -1,
   151, 147, 144, -1,
   146, 152, 155, -1,
   146, 149, 152, -1,
   145, 149, 146, -1,
   149, 145, 150, -1,
   154, 146, 155, -1,
   146, 154, 144, -1,
   156, 157, 158, -1,
   157, 156, 159, -1,
   160, 161, 162, -1,
   161, 160, 163, -1,
   164, 162, 165, -1,
   162, 164, 160, -1,
   161, 156, 158, -1,
   156, 161, 163, -1,
   158, 162, 161, -1,
   157, 162, 158, -1,
   165, 157, 166, -1,
   157, 165, 162, -1,
   160, 156, 163, -1,
   160, 159, 156, -1,
   164, 159, 160, -1,
   159, 164, 167, -1,
   159, 166, 157, -1,
   166, 159, 167, -1,
   164, 166, 167, -1,
   166, 164, 165, -1,
   168, 169, 170, -1,
   169, 168, 171, -1,
   172, 173, 174, -1,
   173, 172, 175, -1,
   175, 176, 173, -1,
   176, 175, 177, -1,
   176, 178, 179, -1,
   178, 176, 177, -1,
   172, 169, 171, -1,
   169, 172, 174, -1,
   177, 168, 178, -1,
   175, 168, 177, -1,
   171, 175, 172, -1,
   175, 171, 168, -1,
   170, 176, 179, -1,
   170, 173, 176, -1,
   169, 173, 170, -1,
   173, 169, 174, -1,
   178, 170, 179, -1,
   170, 178, 168, -1,
   180, 181, 182, -1,
   181, 180, 183, -1,
   184, 185, 186, -1,
   185, 184, 187, -1,
   188, 186, 189, -1,
   186, 188, 184, -1,
   185, 180, 182, -1,
   180, 185, 187, -1,
   184, 180, 187, -1,
   184, 183, 180, -1,
   188, 183, 184, -1,
   183, 188, 190, -1,
   183, 191, 181, -1,
   191, 183, 190, -1,
   188, 191, 190, -1,
   191, 188, 189, -1,
   182, 186, 185, -1,
   181, 186, 182, -1,
   189, 181, 191, -1,
   181, 189, 186, -1,
   192, 193, 194, -1,
   193, 192, 195, -1,
   196, 197, 198, -1,
   197, 196, 199, -1,
   199, 200, 197, -1,
   200, 199, 201, -1,
   200, 202, 203, -1,
   202, 200, 201, -1,
   196, 193, 195, -1,
   193, 196, 198, -1,
   201, 192, 202, -1,
   199, 192, 201, -1,
   195, 199, 196, -1,
   199, 195, 192, -1,
   194, 200, 203, -1,
   194, 197, 200, -1,
   193, 197, 194, -1,
   197, 193, 198, -1,
   202, 194, 203, -1,
   194, 202, 192, -1,
   204, 205, 206, -1,
   205, 204, 207, -1,
   208, 209, 210, -1,
   209, 208, 211, -1,
   212, 210, 213, -1,
   210, 212, 208, -1,
   209, 204, 206, -1,
   204, 209, 211, -1,
   208, 204, 211, -1,
   208, 207, 204, -1,
   212, 207, 208, -1,
   207, 212, 214, -1,
   207, 215, 205, -1,
   215, 207, 214, -1,
   212, 215, 214, -1,
   215, 212, 213, -1,
   206, 210, 209, -1,
   205, 210, 206, -1,
   213, 205, 215, -1,
   205, 213, 210, -1,
   216, 217, 218, -1,
   217, 216, 219, -1,
   220, 221, 222, -1,
   221, 220, 223, -1,
   223, 224, 221, -1,
   224, 223, 225, -1,
   224, 226, 227, -1,
   226, 224, 225, -1,
   220, 217, 219, -1,
   217, 220, 222, -1,
   225, 216, 226, -1,
   223, 216, 225, -1,
   219, 223, 220, -1,
   223, 219, 216, -1,
   218, 224, 227, -1,
   218, 221, 224, -1,
   217, 221, 218, -1,
   221, 217, 222, -1,
   226, 218, 227, -1,
   218, 226, 216, -1,
   228, 229, 230, -1,
   229, 228, 231, -1,
   232, 233, 234, -1,
   233, 232, 235, -1,
   236, 234, 237, -1,
   234, 236, 232, -1,
   233, 228, 230, -1,
   228, 233, 235, -1,
   232, 228, 235, -1,
   232, 231, 228, -1,
   236, 231, 232, -1,
   231, 236, 238, -1,
   231, 239, 229, -1,
   239, 231, 238, -1,
   236, 239, 238, -1,
   239, 236, 237, -1,
   230, 234, 233, -1,
   229, 234, 230, -1,
   237, 229, 239, -1,
   229, 237, 234, -1,
   240, 241, 242, -1,
   241, 240, 243, -1,
   244, 245, 246, -1,
   245, 244, 247, -1,
   247, 248, 245, -1,
   248, 247, 249, -1,
   248, 250, 251, -1,
   250, 248, 249, -1,
   244, 241, 243, -1,
   241, 244, 246, -1,
   249, 240, 250, -1,
   247, 240, 249, -1,
   243, 247, 244, -1,
   247, 243, 240, -1,
   242, 248, 251, -1,
   242, 245, 248, -1,
   241, 245, 242, -1,
   245, 241, 246, -1,
   250, 242, 251, -1,
   242, 250, 240, -1,
   252, 253, 254, -1,
   253, 252, 255, -1,
   256, 257, 258, -1,
   257, 256, 259, -1,
   260, 258, 261, -1,
   258, 260, 256, -1,
   257, 252, 254, -1,
   252, 257, 259, -1,
   256, 252, 259, -1,
   256, 255, 252, -1,
   260, 255, 256, -1,
   255, 260, 262, -1,
   255, 263, 253, -1,
   263, 255, 262, -1,
   260, 263, 262, -1,
   263, 260, 261, -1,
   254, 258, 257, -1,
   253, 258, 254, -1,
   261, 253, 263, -1,
   253, 261, 258, -1,
   264, 265, 266, -1,
   265, 264, 267, -1,
   268, 269, 270, -1,
   269, 268, 271, -1,
   271, 272, 269, -1,
   272, 271, 273, -1,
   272, 274, 275, -1,
   274, 272, 273, -1,
   268, 265, 267, -1,
   265, 268, 270, -1,
   273, 264, 274, -1,
   271, 264, 273, -1,
   267, 271, 268, -1,
   271, 267, 264, -1,
   266, 272, 275, -1,
   266, 269, 272, -1,
   265, 269, 266, -1,
   269, 265, 270, -1,
   274, 266, 275, -1,
   266, 274, 264, -1,
   276, 277, 278, -1,
   277, 276, 279, -1,
   280, 281, 282, -1,
   281, 280, 283, -1,
   284, 282, 285, -1,
   282, 284, 280, -1,
   281, 276, 278, -1,
   276, 281, 283, -1,
   280, 276, 283, -1,
   280, 279, 276, -1,
   284, 279, 280, -1,
   279, 284, 286, -1,
   279, 287, 277, -1,
   287, 279, 286, -1,
   284, 287, 286, -1,
   287, 284, 285, -1,
   278, 282, 281, -1,
   277, 282, 278, -1,
   285, 277, 287, -1,
   277, 285, 282, -1,
   288, 289, 290, -1,
   289, 288, 291, -1,
   292, 293, 294, -1,
   293, 292, 295, -1,
   295, 296, 293, -1,
   296, 295, 297, -1,
   296, 298, 299, -1,
   298, 296, 297, -1,
   292, 289, 291, -1,
   289, 292, 294, -1,
   297, 288, 298, -1,
   295, 288, 297, -1,
   291, 295, 292, -1,
   295, 291, 288, -1,
   290, 296, 299, -1,
   290, 293, 296, -1,
   289, 293, 290, -1,
   293, 289, 294, -1,
   298, 290, 299, -1,
   290, 298, 288, -1,
   300, 301, 302, -1,
   301, 300, 303, -1,
   304, 305, 306, -1,
   305, 304, 307, -1,
   308, 306, 309, -1,
   306, 308, 304, -1,
   305, 300, 302, -1,
   300, 305, 307, -1,
   304, 300, 307, -1,
   304, 303, 300, -1,
   308, 303, 304, -1,
   303, 308, 310, -1,
   303, 311, 301, -1,
   311, 303, 310, -1,
   308, 311, 310, -1,
   311, 308, 309, -1,
   302, 306, 305, -1,
   301, 306, 302, -1,
   309, 301, 311, -1,
   301, 309, 306, -1,
   312, 313, 314, -1,
   313, 312, 315, -1,
   316, 317, 318, -1,
   317, 316, 319, -1,
   319, 320, 317, -1,
   320, 319, 321, -1,
   320, 322, 323, -1,
   322, 320, 321, -1,
   316, 313, 315, -1,
   313, 316, 318, -1,
   321, 312, 322, -1,
   319, 312, 321, -1,
   315, 319, 316, -1,
   319, 315, 312, -1,
   314, 320, 323, -1,
   314, 317, 320, -1,
   313, 317, 314, -1,
   317, 313, 318, -1,
   322, 314, 323, -1,
   314, 322, 312, -1,
   324, 325, 326, -1,
   325, 324, 327, -1,
   328, 329, 330, -1,
   329, 328, 331, -1,
   332, 330, 333, -1,
   330, 332, 328, -1,
   329, 324, 326, -1,
   324, 329, 331, -1,
   326, 330, 329, -1,
   325, 330, 326, -1,
   333, 325, 334, -1,
   325, 333, 330, -1,
   328, 324, 331, -1,
   328, 327, 324, -1,
   332, 327, 328, -1,
   327, 332, 335, -1,
   327, 334, 325, -1,
   334, 327, 335, -1,
   332, 334, 335, -1,
   334, 332, 333, -1
  ]
 }
}
Shape {
 appearance Appearance { material Material {
  diffuseColor 0.5569 0.5569 0.5765
  specularColor 0.250 0.250 0.250
  ambientIntensity 0.4
  shininess 0.30
 } }
 geometry IndexedFaceSet {
  creaseAngle 0.5
  coord Coordinate { point [
   0.71063 -0.10236 3.36220,
   0.69717 -0.03457 3.33858,
   0.69717 -0.03457 3.36220,
   0.71063 -0.10236 3.33858,
   0.65874 0.02291 3.33858,
   0.65874 0.02291 3.36220,
   0.60126 0.06130 3.36220,
   0.60126 0.06130 3.33858,
   0.53346 0.07480 3.36220,
   0.53346 0.07480 3.33858,
   0.46567 0.06130 3.36220,
   0.46567 0.06130 3.33858,
   0.40819 0.02291 3.36220,
   0.40819 0.02291 3.33858,
   0.36980 -0.03457 3.33858,
   0.36980 -0.03457 3.36220,
   0.35630 -0.10236 3.33858,
   0.35630 -0.10236 3.36220,
   0.36980 -0.17016 3.33858,
   0.36980 -0.17016 3.36220,
   0.40819 -0.22764 3.33858,
   0.40819 -0.22764 3.36220,
   0.46567 -0.26602 3.36220,
   0.46567 -0.26602 3.33858,
   0.53346 -0.27953 3.36220,
   0.53346 -0.27953 3.33858,
   0.60126 -0.26602 3.36220,
   0.60126 -0.26602 3.33858,
   0.65874 -0.22764 3.36220,
   0.65874 -0.22764 3.33858,
   0.69717 -0.17016 3.33858,
   0.69717 -0.17016 3.36220
  ] }
  coordIndex [
   0, 1, 2, -1,
   1, 0, 3, -1,
   2, 4, 5, -1,
   4, 2, 1, -1,
   4, 6, 5, -1,
   6, 4, 7, -1,
   7, 8, 6, -1,
   8, 7, 9, -1,
   9, 10, 8, -1,
   10, 9, 11, -1,
   11, 12, 10, -1,
   12, 11, 13, -1,
   14, 12, 13, -1,
   12, 14, 15, -1,
   16, 15, 14, -1,
   15, 16, 17, -1,
   18, 17, 16, -1,
   17, 18, 19, -1,
   20, 19, 18, -1,
   19, 20, 21, -1,
   20, 22, 21, -1,
   22, 20, 23, -1,
   23, 24, 22, -1,
   24, 23, 25, -1,
   25, 26, 24, -1,
   26, 25, 27, -1,
   27, 28, 26, -1,
   28, 27, 29, -1,
   28, 30, 31, -1,
   30, 28, 29, -1,
   31, 3, 0, -1,
   3, 31, 30, -1,
   30, 1, 3, -1,
   29, 1, 30, -1,
   29, 4, 1, -1,
   27, 4, 29, -1,
   27, 7, 4, -1,
   25, 7, 27, -1,
   25, 9, 7, -1,
   23, 9, 25, -1,
   23, 11, 9, -1,
   20, 11, 23, -1,
   20, 13, 11, -1,
   18, 13, 20, -1,
   18, 14, 13, -1,
   14, 18, 16, -1,
   2, 31, 0, -1,
   5, 31, 2, -1,
   5, 28, 31, -1,
   6, 28, 5, -1,
   6, 26, 28, -1,
   8, 26, 6, -1,
   8, 24, 26, -1,
   10, 24, 8, -1,
   10, 22, 24, -1,
   12, 22, 10, -1,
   12, 21, 22, -1,
   15, 21, 12, -1,
   15, 19, 21, -1,
   19, 15, 17, -1
  ]
 }
}
