#VRML V2.0 utf8
# dip_chip_8: written by tools/build_models3d.py from 3d/populated/models/dip_chip.scad; layers body #1c1c1e, leads #bcc0c4, mark #8e8e93
Shape {
 appearance Appearance { material Material {
  diffuseColor 0.1098 0.1098 0.1176
  specularColor 0.250 0.250 0.250
  ambientIntensity 0.4
  shininess 0.30
 } }
 geometry IndexedFaceSet {
  creaseAngle 0.5
  coord Coordinate { point [
   -0.19291 -2.61220 3.34646,
   3.19291 -0.38780 3.34646,
   -0.19291 -0.38780 3.34646,
   -0.33071 -0.25000 1.57480,
   -0.33071 -0.25000 2.54921,
   3.33071 -0.25000 1.57480,
   3.33071 -2.75000 1.57480,
   3.33071 -2.75000 2.54921,
   3.19291 -2.61220 3.34646,
   -0.33071 -2.75000 2.54921,
   3.33071 -0.25000 2.54921,
   -0.33071 -2.75000 1.57480
  ] }
  coordIndex [
   0, 1, 2, -1,
   3, 4, 5, -1,
   6, 5, 7, -1,
   7, 8, 9, -1,
   5, 4, 10, -1,
   1, 4, 2, -1,
   11, 5, 6, -1,
   3, 5, 11, -1,
   10, 1, 7, -1,
   9, 8, 0, -1,
   0, 4, 9, -1,
   2, 4, 0, -1,
   7, 11, 6, -1,
   9, 11, 7, -1,
   10, 4, 1, -1,
   7, 5, 10, -1,
   8, 1, 0, -1,
   7, 1, 8, -1,
   11, 4, 3, -1,
   9, 4, 11, -1
  ]
 }
}
Shape {
 appearance Appearance { material Material {
  diffuseColor 0.7373 0.7529 0.7686
  specularColor 0.250 0.250 0.250
  ambientIntensity 0.4
  shininess 0.30
 } }
 geometry IndexedFaceSet {
  creaseAngle 0.5
  coord Coordinate { point [
   0.32874 -0.09843 1.96850,
   0.05906 0.09843 0.19685,
   0.32874 0.09843 1.96850,
   0.05906 -0.09843 0.19685,
   -0.05906 -0.09843 0.19685,
   -0.05906 0.09843 0.23622,
   -0.05906 0.09843 0.19685,
   -0.05906 -0.09843 0.23622,
   0.21063 0.09843 2.08661,
   0.21063 -0.09843 2.08661,
   0.32874 -0.09843 2.08661,
   0.32874 0.09843 2.08661,
   2.78937 -0.09843 2.08661,
   3.05906 0.09843 0.23622,
   2.78937 0.09843 2.08661,
   3.05906 -0.09843 0.23622,
   2.67126 -0.09843 1.96850,
   2.67126 0.09843 2.08661,
   2.67126 0.09843 1.96850,
   2.67126 -0.09843 2.08661,
   2.94094 -0.09843 0.19685,
   2.94094 0.09843 0.19685,
   3.05906 -0.09843 0.19685,
   3.05906 0.09843 0.19685,
   0.32874 -1.09843 1.96850,
   0.05906 -0.90157 0.19685,
   0.32874 -0.90157 1.96850,
   0.05906 -1.09843 0.19685,
   -0.05906 -1.09843 0.19685,
   -0.05906 -0.90157 0.23622,
   -0.05906 -0.90157 0.19685,
   -0.05906 -1.09843 0.23622,
   0.21063 -0.90157 2.08661,
   0.21063 -1.09843 2.08661,
   0.32874 -1.09843 2.08661,
   0.32874 -0.90157 2.08661,
   2.78937 -1.09843 2.08661,
   3.05906 -0.90157 0.23622,
   2.78937 -0.90157 2.08661,
   3.05906 -1.09843 0.23622,
   2.67126 -1.09843 1.96850,
   2.67126 -0.90157 2.08661,
   2.67126 -0.90157 1.96850,
   2.67126 -1.09843 2.08661,
   2.94094 -1.09843 0.19685,
   2.94094 -0.90157 0.19685,
   3.05906 -1.09843 0.19685,
   3.05906 -0.90157 0.19685,
   0.32874 -2.09843 1.96850,
   0.05906 -1.90157 0.19685,
   0.32874 -1.90157 1.96850,
   0.05906 -2.09843 0.19685,
   -0.05906 -2.09843 0.19685,
   -0.05906 -1.90157 0.23622,
   -0.05906 -1.90157 0.19685,
   -0.05906 -2.09843 0.23622,
   0.21063 -1.90157 2.08661,
   0.21063 -2.09843 2.08661,
   0.32874 -2.09843 2.08661,
   0.32874 -1.90157 2.08661,
   2.78937 -2.09843 2.08661,
   3.05906 -1.90157 0.23622,
   2.78937 -1.90157 2.08661,
   3.05906 -2.09843 0.23622,
   2.67126 -2.09843 1.96850,
   2.67126 -1.90157 2.08661,
   2.67126 -1.90157 1.96850,
   2.67126 -2.09843 2.08661,
   2.94094 -2.09843 0.19685,
   2.94094 -1.90157 0.19685,
   3.05906 -1.90157 0.19685,
   3.05906 -2.09843 0.19685,
   0.32874 -3.09843 1.96850,
   0.05906 -2.90157 0.19685,
   0.32874 -2.90157 1.96850,
   0.05906 -3.09843 0.19685,
   -0.05906 -3.09843 0.19685,
   -0.05906 -2.90157 0.23622,
   -0.05906 -2.90157 0.19685,
   -0.05906 -3.09843 0.23622,
   0.21063 -2.90157 2.08661,
   0.21063 -3.09843 2.08661,
   0.32874 -3.09843 2.08661,
   0.32874 -2.90157 2.08661,
   2.78937 -3.09843 2.08661,
   3.05906 -2.90157 0.23622,
   2.78937 -2.90157 2.08661,
   3.05906 -3.09843 0.23622,
   2.67126 -3.09843 1.96850,
   2.67126 -2.90157 2.08661,
   2.67126 -2.90157 1.96850,
   2.67126 -3.09843 2.08661,
   2.94094 -3.09843 0.19685,
   2.94094 -2.90157 0.19685,
   3.05906 -2.90157 0.19685,
   3.05906 -3.09843 0.19685
  ] }
  coordIndex [
   0, 1, 2, -1,
   1, 0, 3, -1,
   4, 5, 6, -1,
   5, 4, 7, -1,
   7, 8, 5, -1,
   8, 7, 9, -1,
   8, 10, 11, -1,
   10, 8, 9, -1,
   4, 1, 3, -1,
   1, 4, 6, -1,
   9, 0, 10, -1,
   7, 0, 9, -1,
   3, 7, 4, -1,
   7, 3, 0, -1,
   2, 8, 11, -1,
   2, 5, 8, -1,
   1, 5, 2, -1,
   5, 1, 6, -1,
   10, 2, 11, -1,
   2, 10, 0, -1,
   12, 13, 14, -1,
   13, 12, 15, -1,
   16, 17, 18, -1,
   17, 16, 19, -1,
   20, 18, 21, -1,
   18, 20, 16, -1,
   17, 12, 14, -1,
   12, 17, 19, -1,
   16, 12, 19, -1,
   16, 15, 12, -1,
   20, 15, 16, -1,
   15, 20, 22, -1,
   15, 23, 13, -1,
   23, 15, 22, -1,
   20, 23, 22, -1,
   23, 20, 21, -1,
   14, 18, 17, -1,
   13, 18, 14, -1,
   21, 13, 23, -1,
   13, 21, 18, -1,
   24, 25, 26, -1,
   25, 24, 27, -1,
   28, 29, 30, -1,
   29, 28, 31, -1,
   31, 32, 29, -1,
   32, 31, 33, -1,
   32, 34, 35, -1,
   34, 32, 33, -1,
   28, 25, 27, -1,
   25, 28, 30, -1,
   33, 24, 34, -1,
   31, 24, 33, -1,
   27, 31, 28, -1,
   31, 27, 24, -1,
   26, 32, 35, -1,
   26, 29, 32, -1,
   25, 29, 26, -1,
   29, 25, 30, -1,
   34, 26, 35, -1,
   26, 34, 24, -1,
   36, 37, 38, -1,
   37, 36, 39, -1,
   40, 41, 42, -1,
   41, 40, 43, -1,
   44, 42, 45, -1,
   42, 44, 40, -1,
   41, 36, 38, -1,
   36, 41, 43, -1,
   40, 36, 43, -1,
   40, 39, 36, -1,
   44, 39, 40, -1,
   39, 44, 46, -1,
   39, 47, 37, -1,
   47, 39, 46, -1,
   44, 47, 46, -1,
   47, 44, 45, -1,
   38, 42, 41, -1,
   37, 42, 38, -1,
   45, 37, 47, -1,
   37, 45, 42, -1,
   48, 49, 50, -1,
   49, 48, 51, -1,
   52, 53, 54, -1,
   53, 52, 55, -1,
   55, 56, 53, -1,
   56, 55, 57, -1,
   56, 58, 59, -1,
   58, 56, 57, -1,
   52, 49, 51, -1,
   49, 52, 54, -1,
   57, 48, 58, -1,
   55, 48, 57, -1,
   51, 55, 52, -1,
   55, 51, 48, -1,
   50, 56, 59, -1,
   50, 53, 56, -1,
   49, 53, 50, -1,
   53, 49, 54, -1,
   58, 50, 59, -1,
   50, 58, 48, -1,
   60, 61, 62, -1,
   61, 60, 63, -1,
   64, 65, 66, -1,
   65, 64, 67, -1,
   68, 66, 69, -1,
   66, 68, 64, -1,
   65, 60, 62, -1,
   60, 65, 67, -1,
   62, 66, 65, -1,
   61, 66, 62, -1,
   69, 61, 70, -1,
   61, 69, 66, -1,
   64, 60, 67, -1,
   64, 63, 60, -1,
   68, 63, 64, -1,
   63, 68, 71, -1,
   63, 70, 61, -1,
   70, 63, 71, -1,
   68, 70, 71, -1,
   70, 68, 69, -1,
   72, 73, 74, -1,
   73, 72, 75, -1,
   76, 77, 78, -1,
   77, 76, 79, -1,
   79, 80, 77, -1,
   80, 79, 81, -1,
   80, 82, 83, -1,
   82, 80, 81, -1,
   76, 73, 75, -1,
   73, 76, 78, -1,
   81, 72, 82, -1,
   79, 72, 81, -1,
   75, 79, 76, -1,
   79, 75, 72, -1,
   74, 80, 83, -1,
   74, 77, 80, -1,
   73, 77, 74, -1,
   77, 73, 78, -1,
   82, 74, 83, -1,
   74, 82, 72, -1,
   84, 85, 86, -1,
   85, 84, 87, -1,
   88, 89, 90, -1,
   89, 88, 91, -1,
   92, 90, 93, -1,
   90, 92, 88, -1,
   89, 84, 86, -1,
   84, 89, 91, -1,
   86, 90, 89, -1,
   85, 90, 86, -1,
   93, 85, 94, -1,
   85, 93, 90, -1,
   88, 84, 91, -1,
   88, 87, 84, -1,
   92, 87, 88, -1,
   87, 92, 95, -1,
   87, 94, 85, -1,
   94, 87, 95, -1,
   92, 94, 95, -1,
   94, 92, 93, -1
  ]
 }
}
Shape {
 appearance Appearance { material Material {
  diffuseColor 0.5569 0.5569 0.5765
  specularColor 0.250 0.250 0.250
  ambientIntensity 0.4
  shininess 0.30
 } }
 geometry IndexedFaceSet {
  creaseAngle 0.5
  coord Coordinate { point [
   0.86024 -0.10236 3.36220,
   0.84673 -0.03457 3.33858,
   0.84673 -0.03457 3.36220,
   0.86024 -0.10236 3.33858,
   0.80835 0.02291 3.33858,
   0.80835 0.02291 3.36220,
   0.75087 0.06130 3.36220,
   0.75087 0.06130 3.33858,
   0.68307 0.07480 3.36220,
   0.68307 0.07480 3.33858,
   0.61528 0.06130 3.36220,
   0.61528 0.06130 3.33858,
   0.55780 0.02291 3.36220,
   0.55780 0.02291 3.33858,
   0.51941 -0.03457 3.33858,
   0.51941 -0.03457 3.36220,
   0.50591 -0.10236 3.33858,
   0.50591 -0.10236 3.36220,
   0.51941 -0.17016 3.33858,
   0.51941 -0.17016 3.36220,
   0.55780 -0.22764 3.33858,
   0.55780 -0.22764 3.36220,
   0.61528 -0.26602 3.36220,
   0.61528 -0.26602 3.33858,
   0.68307 -0.27953 3.36220,
   0.68307 -0.27953 3.33858,
   0.75087 -0.26602 3.36220,
   0.75087 -0.26602 3.33858,
   0.80835 -0.22764 3.36220,
   0.80835 -0.22764 3.33858,
   0.84673 -0.17016 3.33858,
   0.84673 -0.17016 3.36220
  ] }
  coordIndex [
   0, 1, 2, -1,
   1, 0, 3, -1,
   2, 4, 5, -1,
   4, 2, 1, -1,
   4, 6, 5, -1,
   6, 4, 7, -1,
   7, 8, 6, -1,
   8, 7, 9, -1,
   9, 10, 8, -1,
   10, 9, 11, -1,
   11, 12, 10, -1,
   12, 11, 13, -1,
   14, 12, 13, -1,
   12, 14, 15, -1,
   16, 15, 14, -1,
   15, 16, 17, -1,
   18, 17, 16, -1,
   17, 18, 19, -1,
   20, 19, 18, -1,
   19, 20, 21, -1,
   20, 22, 21, -1,
   22, 20, 23, -1,
   23, 24, 22, -1,
   24, 23, 25, -1,
   25, 26, 24, -1,
   26, 25, 27, -1,
   27, 28, 26, -1,
   28, 27, 29, -1,
   28, 30, 31, -1,
   30, 28, 29, -1,
   31, 3, 0, -1,
   3, 31, 30, -1,
   30, 1, 3, -1,
   29, 1, 30, -1,
   29, 4, 1, -1,
   27, 4, 29, -1,
   27, 7, 4, -1,
   25, 7, 27, -1,
   25, 9, 7, -1,
   23, 9, 25, -1,
   23, 11, 9, -1,
   20, 11, 23, -1,
   20, 13, 11, -1,
   18, 13, 20, -1,
   18, 14, 13, -1,
   14, 18, 16, -1,
   2, 31, 0, -1,
   5, 31, 2, -1,
   5, 28, 31, -1,
   6, 28, 5, -1,
   6, 26, 28, -1,
   8, 26, 6, -1,
   8, 24, 26, -1,
   10, 24, 8, -1,
   10, 22, 24, -1,
   12, 22, 10, -1,
   12, 21, 22, -1,
   15, 21, 12, -1,
   15, 19, 21, -1,
   19, 15, 17, -1
  ]
 }
}
