#VRML V2.0 utf8
# ds3231_module: written by tools/build_models3d.py from 3d/populated/models/ds3231_module.scad; layers socket #1d1d1f, pcb #1c4f9c, ic #202022, gold #d1ad45, cap #b99a5a
Shape {
 appearance Appearance { material Material {
  diffuseColor 0.1137 0.1137 0.1216
  specularColor 0.250 0.250 0.250
  ambientIntensity 0.4
  shininess 0.30
 } }
 geometry IndexedFaceSet {
  creaseAngle 0.5
  coord Coordinate { point [
   -0.50000 0.50000 4.34646,
   0.50000 -4.50000 4.34646,
   0.50000 0.50000 4.34646,
   -0.50000 -4.50000 4.34646,
   -0.50000 -4.50000 1.00000,
   0.50000 0.50000 1.00000,
   0.50000 -4.50000 1.00000,
   -0.50000 0.50000 1.00000
  ] }
  coordIndex [
   0, 1, 2, -1,
   1, 0, 3, -1,
   4, 5, 6, -1,
   5, 4, 7, -1,
   4, 1, 3, -1,
   1, 4, 6, -1,
   1, 5, 2, -1,
   5, 1, 6, -1,
   5, 0, 2, -1,
   0, 5, 7, -1,
   4, 0, 7, -1,
   0, 4, 3, -1
  ]
 }
}
Shape {
 appearance Appearance { material Material {
  diffuseColor 0.1098 0.3098 0.6118
  specularColor 0.250 0.250 0.250
  ambientIntensity 0.4
  shininess 0.30
 } }
 geometry IndexedFaceSet {
  creaseAngle 0.5
  coord Coordinate { point [
   -0.27559 0.75591 4.81890,
   6.61417 -4.75591 4.81890,
   6.61417 0.75591 4.81890,
   -0.27559 -4.75591 4.81890,
   -0.27559 -4.75591 4.34646,
   6.61417 0.75591 4.34646,
   6.61417 -4.75591 4.34646,
   -0.27559 0.75591 4.34646
  ] }
  coordIndex [
   0, 1, 2, -1,
   1, 0, 3, -1,
   4, 5, 6, -1,
   5, 4, 7, -1,
   4, 1, 3, -1,
   1, 4, 6, -1,
   1, 5, 2, -1,
   5, 1, 6, -1,
   5, 0, 2, -1,
   0, 5, 7, -1,
   4, 0, 7, -1,
   0, 4, 3, -1
  ]
 }
}
Shape {
 appearance Appearance { material Material {
  diffuseColor 0.1255 0.1255 0.1333
  specularColor 0.250 0.250 0.250
  ambientIntensity 0.4
  shininess 0.30
 } }
 geometry IndexedFaceSet {
  creaseAngle 0.5
  coord Coordinate { point [
   6.02362 -3.47638 5.86220,
   6.02362 -0.52362 4.81890,
   6.02362 -0.52362 5.86220,
   6.02362 -3.47638 4.81890,
   1.96850 -0.52362 5.86220,
   1.96850 -3.47638 5.86220,
   1.96850 -3.47638 4.81890,
   1.96850 -0.52362 4.81890,
   6.37795 0.36220 5.21260,
   6.37795 1.93701 4.81890,
   6.37795 1.93701 5.21260,
   6.37795 0.36220 4.81890,
   5.59055 1.93701 5.21260,
   5.59055 0.36220 5.21260,
   5.59055 0.36220 4.81890,
   5.59055 1.93701 4.81890,
   1.85039 -2.98425 5.50787,
   1.85039 -1.01575 4.81890,
   1.85039 -1.01575 5.50787,
   1.85039 -2.98425 4.81890,
   0.86614 -1.01575 5.50787,
   0.86614 -2.98425 5.50787,
   0.86614 -2.98425 4.81890,
   0.86614 -1.01575 4.81890
  ] }
  coordIndex [
   0, 1, 2, -1,
   1, 0, 3, -1,
   4, 0, 2, -1,
   0, 4, 5, -1,
   6, 1, 3, -1,
   1, 6, 7, -1,
   6, 4, 7, -1,
   4, 6, 5, -1,
   1, 4, 2, -1,
   4, 1, 7, -1,
   6, 0, 5, -1,
   0, 6, 3, -1,
   8, 9, 10, -1,
   9, 8, 11, -1,
   12, 8, 10, -1,
   8, 12, 13, -1,
   14, 9, 11, -1,
   9, 14, 15, -1,
   14, 12, 15, -1,
   12, 14, 13, -1,
   9, 12, 10, -1,
   12, 9, 15, -1,
   14, 8, 13, -1,
   8, 14, 11, -1,
   16, 17, 18, -1,
   17, 16, 19, -1,
   20, 16, 18, -1,
   16, 20, 21, -1,
   22, 17, 19, -1,
   17, 22, 23, -1,
   22, 20, 23, -1,
   20, 22, 21, -1,
   17, 20, 18, -1,
   20, 17, 23, -1,
   22, 16, 21, -1,
   16, 22, 19, -1
  ]
 }
}
Shape {
 appearance Appearance { material Material {
  diffuseColor 0.8196 0.6784 0.2706
  specularColor 0.250 0.250 0.250
  ambientIntensity 0.4
  shininess 0.30
 } }
 geometry IndexedFaceSet {
  creaseAngle 0.5
  coord Coordinate { point [
   -0.31496 0.00000 4.82283,
   -0.29598 0.10772 4.84252,
   -0.29598 0.10772 4.82283,
   -0.31496 0.00000 4.84252,
   0.29598 0.10772 4.84252,
   0.24126 0.20244 4.82283,
   0.24126 0.20244 4.84252,
   0.29598 0.10772 4.82283,
   0.31496 0.00000 4.84252,
   0.31496 0.00000 4.82283,
   0.15748 0.27276 4.84252,
   0.15748 0.27276 4.82283,
   0.24126 -0.20244 4.84252,
   0.29598 -0.10772 4.82283,
   0.29598 -0.10772 4.84252,
   0.24126 -0.20244 4.82283,
   -0.15748 0.27276 4.82283,
   -0.24126 0.20244 4.84252,
   -0.15748 0.27276 4.84252,
   -0.24126 0.20244 4.82283,
   0.05469 -0.31016 4.82283,
   0.15748 -0.27276 4.84252,
   0.05469 -0.31016 4.84252,
   0.15748 -0.27276 4.82283,
   -0.15748 -0.27276 4.82283,
   -0.05469 -0.31016 4.84252,
   -0.15748 -0.27276 4.84252,
   -0.05469 -0.31016 4.82283,
   0.05469 0.31016 4.82283,
   -0.05469 0.31016 4.84252,
   0.05469 0.31016 4.84252,
   -0.05469 0.31016 4.82283,
   -0.24126 -0.20244 4.84252,
   -0.29598 -0.10772 4.84252,
   -0.29598 -0.10772 4.82283,
   -0.24126 -0.20244 4.82283,
   -0.31496 -1.00000 4.82283,
   -0.29598 -0.89228 4.84252,
   -0.29598 -0.89228 4.82283,
   -0.31496 -1.00000 4.84252,
   0.29598 -0.89228 4.84252,
   0.24126 -0.79756 4.82283,
   0.24126 -0.79756 4.84252,
   0.29598 -0.89228 4.82283,
   0.31496 -1.00000 4.84252,
   0.31496 -1.00000 4.82283,
   0.15748 -0.72724 4.84252,
   0.15748 -0.72724 4.82283,
   0.24126 -1.20244 4.84252,
   0.29598 -1.10772 4.82283,
   0.29598 -1.10772 4.84252,
   0.24126 -1.20244 4.82283,
   -0.15748 -0.72724 4.82283,
   -0.24126 -0.79756 4.84252,
   -0.15748 -0.72724 4.84252,
   -0.24126 -0.79756 4.82283,
   0.05469 -1.31020 4.82283,
   0.15748 -1.27276 4.84252,
   0.05469 -1.31020 4.84252,
   0.15748 -1.27276 4.82283,
   -0.15748 -1.27276 4.82283,
   -0.05469 -1.31020 4.84252,
   -0.15748 -1.27276 4.84252,
   -0.05469 -1.31020 4.82283,
   0.05469 -0.68984 4.82283,
   -0.05469 -0.68984 4.84252,
   0.05469 -0.68984 4.84252,
   -0.05469 -0.68984 4.82283,
   -0.24126 -1.20244 4.84252,
   -0.29598 -1.10772 4.84252,
   -0.29598 -1.10772 4.82283,
   -0.24126 -1.20244 4.82283,
   -0.31496 -2.00000 4.82283,
   -0.29598 -1.89228 4.84252,
   -0.29598 -1.89228 4.82283,
   -0.31496 -2.00000 4.84252,
   0.29598 -1.89228 4.84252,
   0.24126 -1.79756 4.82283,
   0.24126 -1.79756 4.84252,
   0.29598 -1.89228 4.82283,
   0.31496 -2.00000 4.84252,
   0.31496 -2.00000 4.82283,
   0.15748 -1.72724 4.84252,
   0.15748 -1.72724 4.82283,
   0.24126 -2.20244 4.84252,
   0.29598 -2.10772 4.82283,
   0.29598 -2.10772 4.84252,
   0.24126 -2.20244 4.82283,
   -0.15748 -1.72724 4.82283,
   -0.24126 -1.79756 4.84252,
   -0.15748 -1.72724 4.84252,
   -0.24126 -1.79756 4.82283,
   0.05469 -2.31016 4.82283,
   0.15748 -2.27276 4.84252,
   0.05469 -2.31016 4.84252,
   0.15748 -2.27276 4.82283,
   -0.15748 -2.27276 4.82283,
   -0.05469 -2.31016 4.84252,
   -0.15748 -2.27276 4.84252,
   -0.05469 -2.31016 4.82283,
   0.05469 -1.68984 4.82283,
   -0.05469 -1.68984 4.84252,
   0.05469 -1.68984 4.84252,
   -0.05469 -1.68984 4.82283,
   -0.24126 -2.20244 4.84252,
   -0.29598 -2.10772 4.84252,
   -0.29598 -2.10772 4.82283,
   -0.24126 -2.20244 4.82283,
   -0.31496 -3.00000 4.82283,
   -0.29598 -2.89228 4.84252,
   -0.29598 -2.89228 4.82283,
   -0.31496 -3.00000 4.84252,
   0.29598 -2.89228 4.84252,
   0.24126 -2.79756 4.82283,
   0.24126 -2.79756 4.84252,
   0.29598 -2.89228 4.82283,
   0.31496 -3.00000 4.84252,
   0.31496 -3.00000 4.82283,
   0.15748 -2.72724 4.84252,
   0.15748 -2.72724 4.82283,
   0.24126 -3.20244 4.84252,
   0.29598 -3.10772 4.82283,
   0.29598 -3.10772 4.84252,
   0.24126 -3.20244 4.82283,
   -0.15748 -2.72724 4.82283,
   -0.24126 -2.79756 4.84252,
   -0.15748 -2.72724 4.84252,
   -0.24126 -2.79756 4.82283,
   0.05469 -3.31016 4.82283,
   0.15748 -3.27276 4.84252,
   0.05469 -3.31016 4.84252,
   0.15748 -3.27276 4.82283,
   -0.15748 -3.27276 4.82283,
   -0.05469 -3.31016 4.84252,
   -0.15748 -3.27276 4.84252,
   -0.05469 -3.31016 4.82283,
   0.05469 -2.68984 4.82283,
   -0.05469 -2.68984 4.84252,
   0.05469 -2.68984 4.84252,
   -0.05469 -2.68984 4.82283,
   -0.24126 -3.20244 4.84252,
   -0.29598 -3.10772 4.84252,
   -0.29598 -3.10772 4.82283,
   -0.24126 -3.20244 4.82283,
   -0.31496 -4.00000 4.82283,
   -0.29598 -3.89228 4.84252,
   -0.29598 -3.89228 4.82283,
   -0.31496 -4.00000 4.84252,
   0.29598 -3.89228 4.84252,
   0.24126 -3.79756 4.82283,
   0.24126 -3.79756 4.84252,
   0.29598 -3.89228 4.82283,
   0.31496 -4.00000 4.84252,
   0.31496 -4.00000 4.82283,
   0.15748 -3.72724 4.84252,
   0.15748 -3.72724 4.82283,
   0.24126 -4.20244 4.84252,
   0.29598 -4.10772 4.82283,
   0.29598 -4.10772 4.84252,
   0.24126 -4.20244 4.82283,
   -0.15748 -3.72724 4.82283,
   -0.24126 -3.79756 4.84252,
   -0.15748 -3.72724 4.84252,
   -0.24126 -3.79756 4.82283,
   0.05469 -4.31016 4.82283,
   0.15748 -4.27276 4.84252,
   0.05469 -4.31016 4.84252,
   0.15748 -4.27276 4.82283,
   -0.15748 -4.27276 4.82283,
   -0.05469 -4.31016 4.84252,
   -0.15748 -4.27276 4.84252,
   -0.05469 -4.31016 4.82283,
   0.05469 -3.68980 4.82283,
   -0.05469 -3.68980 4.84252,
   0.05469 -3.68980 4.84252,
   -0.05469 -3.68980 4.82283,
   -0.29598 -4.10772 4.82283,
   -0.29598 -4.10772 4.84252,
   -0.24126 -4.20244 4.84252,
   -0.24126 -4.20244 4.82283
  ] }
  coordIndex [
   0, 1, 2, -1,
   1, 0, 3, -1,
   4, 5, 6, -1,
   5, 4, 7, -1,
   8, 7, 4, -1,
   7, 8, 9, -1,
   5, 10, 6, -1,
   10, 5, 11, -1,
   12, 13, 14, -1,
   13, 12, 15, -1,
   16, 17, 18, -1,
   17, 16, 19, -1,
   20, 21, 22, -1,
   21, 20, 23, -1,
   23, 12, 21, -1,
   12, 23, 15, -1,
   14, 9, 8, -1,
   9, 14, 13, -1,
   24, 25, 26, -1,
   25, 24, 27, -1,
   28, 29, 30, -1,
   29, 28, 31, -1,
   31, 18, 29, -1,
   18, 31, 16, -1,
   2, 17, 19, -1,
   17, 2, 1, -1,
   4, 14, 8, -1,
   6, 14, 4, -1,
   6, 12, 14, -1,
   10, 12, 6, -1,
   10, 21, 12, -1,
   30, 21, 10, -1,
   30, 22, 21, -1,
   29, 22, 30, -1,
   29, 25, 22, -1,
   18, 25, 29, -1,
   18, 26, 25, -1,
   17, 26, 18, -1,
   17, 32, 26, -1,
   1, 32, 17, -1,
   1, 33, 32, -1,
   33, 1, 3, -1,
   34, 3, 0, -1,
   3, 34, 33, -1,
   11, 30, 10, -1,
   30, 11, 28, -1,
   27, 22, 25, -1,
   22, 27, 20, -1,
   35, 33, 34, -1,
   33, 35, 32, -1,
   13, 7, 9, -1,
   15, 7, 13, -1,
   15, 5, 7, -1,
   23, 5, 15, -1,
   23, 11, 5, -1,
   20, 11, 23, -1,
   20, 28, 11, -1,
   27, 28, 20, -1,
   27, 31, 28, -1,
   24, 31, 27, -1,
   24, 16, 31, -1,
   35, 16, 24, -1,
   35, 19, 16, -1,
   34, 19, 35, -1,
   34, 2, 19, -1,
   2, 34, 0, -1,
   35, 26, 32, -1,
   26, 35, 24, -1,
   36, 37, 38, -1,
   37, 36, 39, -1,
   40, 41, 42, -1,
   41, 40, 43, -1,
   44, 43, 40, -1,
   43, 44, 45, -1,
   41, 46, 42, -1,
   46, 41, 47, -1,
   48, 49, 50, -1,
   49, 48, 51, -1,
   52, 53, 54, -1,
   53, 52, 55, -1,
   56, 57, 58, -1,
   57, 56, 59, -1,
   59, 48, 57, -1,
   48, 59, 51, -1,
   50, 45, 44, -1,
   45, 50, 49, -1,
   60, 61, 62, -1,
   61, 60, 63, -1,
   64, 65, 66, -1,
   65, 64, 67, -1,
   67, 54, 65, -1,
   54, 67, 52, -1,
   38, 53, 55, -1,
   53, 38, 37, -1,
   40, 50, 44, -1,
   42, 50, 40, -1,
   42, 48, 50, -1,
   46, 48, 42, -1,
   46, 57, 48, -1,
   66, 57, 46, -1,
   66, 58, 57, -1,
   65, 58, 66, -1,
   65, 61, 58, -1,
   54, 61, 65, -1,
   54, 62, 61, -1,
   53, 62, 54, -1,
   53, 68, 62, -1,
   37, 68, 53, -1,
   37, 69, 68, -1,
   69, 37, 39, -1,
   70, 39, 36, -1,
   39, 70, 69, -1,
   47, 66, 46, -1,
   66, 47, 64, -1,
   63, 58, 61, -1,
   58, 63, 56, -1,
   71, 69, 70, -1,
   69, 71, 68, -1,
   49, 43, 45, -1,
   51, 43, 49, -1,
   51, 41, 43, -1,
   59, 41, 51, -1,
   59, 47, 41, -1,
   56, 47, 59, -1,
   56, 64, 47, -1,
   63, 64, 56, -1,
   63, 67, 64, -1,
   60, 67, 63, -1,
   60, 52, 67, -1,
   71, 52, 60, -1,
   71, 55, 52, -1,
   70, 55, 71, -1,
   70, 38, 55, -1,
   38, 70, 36, -1,
   71, 62, 68, -1,
   62, 71, 60, -1,
   72, 73, 74, -1,
   73, 72, 75, -1,
   76, 77, 78, -1,
   77, 76, 79, -1,
   80, 79, 76, -1,
   79, 80, 81, -1,
   77, 82, 78, -1,
   82, 77, 83, -1,
   84, 85, 86, -1,
   85, 84, 87, -1,
   88, 89, 90, -1,
   89, 88, 91, -1,
   92, 93, 94, -1,
   93, 92, 95, -1,
   95, 84, 93, -1,
   84, 95, 87, -1,
   86, 81, 80, -1,
   81, 86, 85, -1,
   96, 97, 98, -1,
   97, 96, 99, -1,
   100, 101, 102, -1,
   101, 100, 103, -1,
   103, 90, 101, -1,
   90, 103, 88, -1,
   74, 89, 91, -1,
   89, 74, 73, -1,
   76, 86, 80, -1,
   78, 86, 76, -1,
   78, 84, 86, -1,
   82, 84, 78, -1,
   82, 93, 84, -1,
   102, 93, 82, -1,
   102, 94, 93, -1,
   101, 94, 102, -1,
   101, 97, 94, -1,
   90, 97, 101, -1,
   90, 98, 97, -1,
   89, 98, 90, -1,
   89, 104, 98, -1,
   73, 104, 89, -1,
   73, 105, 104, -1,
   105, 73, 75, -1,
   106, 75, 72, -1,
   75, 106, 105, -1,
   83, 102, 82, -1,
   102, 83, 100, -1,
   99, 94, 97, -1,
   94, 99, 92, -1,
   107, 105, 106, -1,
   105, 107, 104, -1,
   85, 79, 81, -1,
   87, 79, 85, -1,
   87, 77, 79, -1,
   95, 77, 87, -1,
   95, 83, 77, -1,
   92, 83, 95, -1,
   92, 100, 83, -1,
   99, 100, 92, -1,
   99, 103, 100, -1,
   96, 103, 99, -1,
   96, 88, 103, -1,
   107, 88, 96, -1,
   107, 91, 88, -1,
   106, 91, 107, -1,
   106, 74, 91, -1,
   74, 106, 72, -1,
   107, 98, 104, -1,
   98, 107, 96, -1,
   108, 109, 110, -1,
   109, 108, 111, -1,
   112, 113, 114, -1,
   113, 112, 115, -1,
   116, 115, 112, -1,
   115, 116, 117, -1,
   113, 118, 114, -1,
   118, 113, 119, -1,
   120, 121, 122, -1,
   121, 120, 123, -1,
   124, 125, 126, -1,
   125, 124, 127, -1,
   128, 129, 130, -1,
   129, 128, 131, -1,
   131, 120, 129, -1,
   120, 131, 123, -1,
   122, 117, 116, -1,
   117, 122, 121, -1,
   132, 133, 134, -1,
   133, 132, 135, -1,
   136, 137, 138, -1,
   137, 136, 139, -1,
   139, 126, 137, -1,
   126, 139, 124, -1,
   110, 125, 127, -1,
   125, 110, 109, -1,
   112, 122, 116, -1,
   114, 122, 112, -1,
   114, 120, 122, -1,
   118, 120, 114, -1,
   118, 129, 120, -1,
   138, 129, 118, -1,
   138, 130, 129, -1,
   137, 130, 138, -1,
   137, 133, 130, -1,
   126, 133, 137, -1,
   126, 134, 133, -1,
   125, 134, 126, -1,
   125, 140, 134, -1,
   109, 140, 125, -1,
   109, 141, 140, -1,
   141, 109, 111, -1,
   142, 111, 108, -1,
   111, 142, 141, -1,
   119, 138, 118, -1,
   138, 119, 136, -1,
   135, 130, 133, -1,
   130, 135, 128, -1,
   143, 141, 142, -1,
   141, 143, 140, -1,
   121, 115, 117, -1,
   123, 115, 121, -1,
   123, 113, 115, -1,
   131, 113, 123, -1,
   131, 119, 113, -1,
   128, 119, 131, -1,
   128, 136, 119, -1,
   135, 136, 128, -1,
   135, 139, 136, -1,
   132, 139, 135, -1,
   132, 124, 139, -1,
   143, 124, 132, -1,
   143, 127, 124, -1,
   142, 127, 143, -1,
   142, 110, 127, -1,
   110, 142, 108, -1,
   143, 134, 140, -1,
   134, 143, 132, -1,
   144, 145, 146, -1,
   145, 144, 147, -1,
   148, 149, 150, -1,
   149, 148, 151, -1,
   152, 151, 148, -1,
   151, 152, 153, -1,
   149, 154, 150, -1,
   154, 149, 155, -1,
   156, 157, 158, -1,
   157, 156, 159, -1,
   160, 161, 162, -1,
   161, 160, 163, -1,
   164, 165, 166, -1,
   165, 164, 167, -1,
   167, 156, 165, -1,
   156, 167, 159, -1,
   158, 153, 152, -1,
   153, 158, 157, -1,
   168, 169, 170, -1,
   169, 168, 171, -1,
   172, 173, 174, -1,
   173, 172, 175, -1,
   175, 162, 173, -1,
   162, 175, 160, -1,
   146, 161, 163, -1,
   161, 146, 145, -1,
   176, 147, 144, -1,
   147, 176, 177, -1,
   155, 174, 154, -1,
   174, 155, 172, -1,
   148, 158, 152, -1,
   150, 158, 148, -1,
   150, 156, 158, -1,
   154, 156, 150, -1,
   154, 165, 156, -1,
   174, 165, 154, -1,
   174, 166, 165, -1,
   173, 166, 174, -1,
   173, 169, 166, -1,
   162, 169, 173, -1,
   162, 170, 169, -1,
   161, 170, 162, -1,
   161, 178, 170, -1,
   145, 178, 161, -1,
   145, 177, 178, -1,
   177, 145, 147, -1,
   171, 166, 169, -1,
   166, 171, 164, -1,
   179, 177, 176, -1,
   177, 179, 178, -1,
   157, 151, 153, -1,
   159, 151, 157, -1,
   159, 149, 151, -1,
   167, 149, 159, -1,
   167, 155, 149, -1,
   164, 155, 167, -1,
   164, 172, 155, -1,
   171, 172, 164, -1,
   171, 175, 172, -1,
   168, 175, 171, -1,
   168, 160, 175, -1,
   179, 160, 168, -1,
   179, 163, 160, -1,
   176, 163, 179, -1,
   176, 146, 163, -1,
   146, 176, 144, -1,
   179, 170, 178, -1,
   170, 179, 168, -1
  ]
 }
}
Shape {
 appearance Appearance { material Material {
  diffuseColor 0.7255 0.6039 0.3529
  specularColor 0.250 0.250 0.250
  ambientIntensity 0.4
  shininess 0.30
 } }
 geometry IndexedFaceSet {
  creaseAngle 0.5
  coord Coordinate { point [
   3.14961 0.79528 5.21260,
   4.40945 0.16535 5.21260,
   4.40945 0.79528 5.21260,
   3.14961 0.16535 5.21260,
   3.14961 0.16535 4.81890,
   4.40945 0.79528 4.81890,
   4.40945 0.16535 4.81890,
   3.14961 0.79528 4.81890
  ] }
  coordIndex [
   0, 1, 2, -1,
   1, 0, 3, -1,
   4, 5, 6, -1,
   5, 4, 7, -1,
   4, 1, 3, -1,
   1, 4, 6, -1,
   1, 5, 2, -1,
   5, 1, 6, -1,
   5, 0, 2, -1,
   0, 5, 7, -1,
   4, 0, 7, -1,
   0, 4, 3, -1
  ]
 }
}
