#VRML V2.0 utf8
# fuse_ptc: written by tools/build_models3d.py from 3d/populated/models/fuse_ptc.scad; layers body #d8a31f, leads #c9c9c9
Shape {
 appearance Appearance { material Material {
  diffuseColor 0.8471 0.6392 0.1216
  specularColor 0.250 0.250 0.250
  ambientIntensity 0.4
  shininess 0.30
 } }
 geometry IndexedFaceSet {
  creaseAngle 0.5
  coord Coordinate { point [
   4.44882 -0.82677 0.39370,
   4.44882 0.35433 0.39370,
   4.44882 -0.82677 3.46457,
   4.44882 0.35433 3.46457,
   -2.44094 0.35433 3.46457,
   3.74016 0.35433 5.51181,
   -2.44094 -0.82677 0.39370,
   -2.44094 0.35433 0.39370,
   -1.73228 0.35433 5.51181,
   -1.73228 -0.82677 5.51181,
   3.74016 -0.82677 5.51181,
   -2.44094 -0.82677 3.46457
  ] }
  coordIndex [
   0, 1, 2, -1,
   3, 4, 5, -1,
   6, 1, 0, -1,
   7, 1, 6, -1,
   8, 4, 9, -1,
   1, 4, 3, -1,
   2, 6, 0, -1,
   5, 4, 8, -1,
   3, 5, 2, -1,
   10, 6, 2, -1,
   9, 5, 8, -1,
   9, 4, 11, -1,
   9, 6, 10, -1,
   11, 6, 9, -1,
   7, 4, 1, -1,
   2, 1, 3, -1,
   10, 5, 9, -1,
   2, 5, 10, -1,
   6, 4, 7, -1,
   11, 4, 6, -1
  ]
 }
}
Shape {
 appearance Appearance { material Material {
  diffuseColor 0.7882 0.7882 0.7882
  specularColor 0.250 0.250 0.250
  ambientIntensity 0.4
  shininess 0.30
 } }
 geometry IndexedFaceSet {
  creaseAngle 0.5
  coord Coordinate { point [
   -0.17047 -0.09843 -0.98425,
   -0.19685 0.00000 0.59055,
   -0.19685 0.00000 -0.98425,
   -0.17047 -0.09843 0.59055,
   0.17047 0.09843 0.59055,
   0.09843 0.17047 -0.98425,
   0.09843 0.17047 0.59055,
   0.17047 0.09843 -0.98425,
   0.19685 0.00000 0.59055,
   0.19685 0.00000 -0.98425,
   0.00000 0.19685 0.59055,
   0.00000 0.19685 -0.98425,
   0.00000 -0.19685 -0.98425,
   0.09843 -0.17047 0.59055,
   0.00000 -0.19685 0.59055,
   0.09843 -0.17047 -0.98425,
   0.17047 -0.09843 0.59055,
   0.17047 -0.09843 -0.98425,
   -0.17047 0.09843 -0.98425,
   -0.09843 0.17047 0.59055,
   -0.09843 0.17047 -0.98425,
   -0.17047 0.09843 0.59055,
   -0.09843 -0.17047 0.59055,
   -0.09843 -0.17047 -0.98425,
   1.83740 -0.57087 -0.98425,
   1.81102 -0.47244 0.59055,
   1.81102 -0.47244 -0.98425,
   1.83740 -0.57087 0.59055,
   2.17835 -0.37402 0.59055,
   2.10630 -0.30197 -0.98425,
   2.10630 -0.30197 0.59055,
   2.17835 -0.37402 -0.98425,
   2.20472 -0.47244 0.59055,
   2.20472 -0.47244 -0.98425,
   2.17835 -0.57087 0.59055,
   2.10630 -0.64291 0.59055,
   2.00787 -0.27559 0.59055,
   2.00787 -0.66929 0.59055,
   1.90945 -0.30197 0.59055,
   1.90945 -0.64291 0.59055,
   1.83740 -0.37402 0.59055,
   2.00787 -0.66929 -0.98425,
   2.10630 -0.64291 -0.98425,
   2.17835 -0.57087 -0.98425,
   1.83740 -0.37402 -0.98425,
   1.90945 -0.30197 -0.98425,
   2.00787 -0.27559 -0.98425,
   1.90945 -0.64291 -0.98425
  ] }
  coordIndex [
   0, 1, 2, -1,
   1, 0, 3, -1,
   4, 5, 6, -1,
   5, 4, 7, -1,
   8, 7, 4, -1,
   7, 8, 9, -1,
   5, 10, 6, -1,
   10, 5, 11, -1,
   12, 13, 14, -1,
   13, 12, 15, -1,
   16, 9, 8, -1,
   9, 16, 17, -1,
   18, 19, 20, -1,
   19, 18, 21, -1,
   11, 19, 10, -1,
   19, 11, 20, -1,
   2, 21, 18, -1,
   21, 2, 1, -1,
   13, 17, 16, -1,
   17, 13, 15, -1,
   4, 16, 8, -1,
   6, 16, 4, -1,
   6, 13, 16, -1,
   10, 13, 6, -1,
   10, 14, 13, -1,
   19, 14, 10, -1,
   19, 22, 14, -1,
   21, 22, 19, -1,
   21, 3, 22, -1,
   3, 21, 1, -1,
   23, 3, 0, -1,
   3, 23, 22, -1,
   17, 7, 9, -1,
   15, 7, 17, -1,
   15, 5, 7, -1,
   12, 5, 15, -1,
   12, 11, 5, -1,
   23, 11, 12, -1,
   23, 20, 11, -1,
   0, 20, 23, -1,
   0, 18, 20, -1,
   18, 0, 2, -1,
   23, 14, 22, -1,
   14, 23, 12, -1,
   24, 25, 26, -1,
   25, 24, 27, -1,
   28, 29, 30, -1,
   29, 28, 31, -1,
   32, 31, 28, -1,
   31, 32, 33, -1,
   28, 34, 32, -1,
   30, 34, 28, -1,
   30, 35, 34, -1,
   36, 35, 30, -1,
   36, 37, 35, -1,
   38, 37, 36, -1,
   38, 39, 37, -1,
   40, 39, 38, -1,
   40, 27, 39, -1,
   27, 40, 25, -1,
   41, 35, 37, -1,
   35, 41, 42, -1,
   34, 33, 32, -1,
   33, 34, 43, -1,
   44, 38, 45, -1,
   38, 44, 40, -1,
   46, 38, 36, -1,
   38, 46, 45, -1,
   47, 37, 39, -1,
   37, 47, 41, -1,
   26, 40, 44, -1,
   40, 26, 25, -1,
   42, 34, 35, -1,
   34, 42, 43, -1,
   24, 39, 27, -1,
   39, 24, 47, -1,
   43, 31, 33, -1,
   42, 31, 43, -1,
   42, 29, 31, -1,
   41, 29, 42, -1,
   41, 46, 29, -1,
   47, 46, 41, -1,
   47, 45, 46, -1,
   24, 45, 47, -1,
   24, 44, 45, -1,
   44, 24, 26, -1,
   29, 36, 30, -1,
   36, 29, 46, -1
  ]
 }
}
