#VRML V2.0 utf8
# in12_contacts: written by tools/build_models3d.py from 3d/populated/models/tube_pins.scad; layers sleeve #d1ad45, wire #c9cdd1
Shape {
 appearance Appearance { material Material {
  diffuseColor 0.8196 0.6784 0.2706
  specularColor 0.250 0.250 0.250
  ambientIntensity 0.4
  shininess 0.30
 } }
 geometry IndexedFaceSet {
  creaseAngle 0.5
  coord Coordinate { point [
   -1.74469 3.23579 -1.02362,
   -1.69004 3.30429 0.00000,
   -1.69004 3.30429 -1.02362,
   -1.74469 3.23579 0.00000,
   -1.38996 3.23579 0.00000,
   -1.44457 3.30429 -1.02362,
   -1.44457 3.30429 0.00000,
   -1.38996 3.23579 -1.02362,
   -1.37047 3.15039 0.00000,
   -1.37047 3.15039 -1.02362,
   -1.76417 3.15039 -1.02362,
   -1.76417 3.15039 0.00000,
   -1.38996 3.06500 0.00000,
   -1.38996 3.06500 -1.02362,
   -1.52350 2.95846 -1.02362,
   -1.44457 2.99650 0.00000,
   -1.52350 2.95846 0.00000,
   -1.44457 2.99650 -1.02362,
   -1.69004 2.99650 -1.02362,
   -1.61114 2.95846 0.00000,
   -1.69004 2.99650 0.00000,
   -1.61114 2.95846 -1.02362,
   -1.52350 3.34232 -1.02362,
   -1.61114 3.34232 -1.02362,
   -1.74469 3.06500 -1.02362,
   -1.61114 3.34232 0.00000,
   -1.52350 3.34232 0.00000,
   -1.74469 3.06500 0.00000,
   -1.73465 2.86059 0.00000,
   -1.62543 2.82083 1.77165,
   -1.73465 2.86059 1.77165,
   -1.62543 2.82083 0.00000,
   -1.25287 3.26484 1.77165,
   -1.31098 3.36551 0.00000,
   -1.31098 3.36551 1.77165,
   -1.25287 3.26484 0.00000,
   -1.23268 3.15039 1.77165,
   -1.23268 3.15039 0.00000,
   -1.40000 3.44020 1.77165,
   -1.40000 3.44020 0.00000,
   -1.50921 2.82083 0.00000,
   -1.40000 2.86059 1.77165,
   -1.50921 2.82083 1.77165,
   -1.40000 2.86059 0.00000,
   -1.73465 3.44020 0.00000,
   -1.82366 3.36551 1.77165,
   -1.73465 3.44020 1.77165,
   -1.82366 3.36551 0.00000,
   -1.25287 3.03594 1.77165,
   -1.25287 3.03594 0.00000,
   -1.50921 3.47996 0.00000,
   -1.62543 3.47996 1.77165,
   -1.50921 3.47996 1.77165,
   -1.62543 3.47996 0.00000,
   -1.31098 2.93528 1.77165,
   -1.82366 2.93528 1.77165,
   -1.88177 3.26484 1.77165,
   -1.88177 3.03594 1.77165,
   -1.90197 3.15039 1.77165,
   -1.88177 3.26484 0.00000,
   -1.90197 3.15039 0.00000,
   -1.31098 2.93528 0.00000,
   -1.82366 2.93528 0.00000,
   -1.88177 3.03594 0.00000,
   0.17736 3.62476 0.00000,
   0.12272 3.69327 -1.02362,
   0.12272 3.69327 0.00000,
   0.17736 3.62476 -1.02362,
   0.19685 3.53937 0.00000,
   0.19685 3.53937 -1.02362,
   0.04382 3.34744 -1.02362,
   0.12272 3.38547 0.00000,
   0.04382 3.34744 0.00000,
   0.12272 3.38547 -1.02362,
   0.17736 3.45398 -1.02362,
   0.04382 3.73130 -1.02362,
   -0.04382 3.34744 -1.02362,
   -0.04382 3.73130 -1.02362,
   -0.12272 3.38547 -1.02362,
   -0.12272 3.69327 -1.02362,
   -0.17736 3.45398 -1.02362,
   -0.17736 3.62476 -1.02362,
   -0.19685 3.53937 -1.02362,
   0.17736 3.45398 0.00000,
   -0.17736 3.45398 0.00000,
   -0.12272 3.38547 0.00000,
   -0.12272 3.69327 0.00000,
   -0.04382 3.73130 0.00000,
   -0.17736 3.62476 0.00000,
   -0.19685 3.53937 0.00000,
   0.04382 3.73130 0.00000,
   -0.04382 3.34744 0.00000,
   0.31445 3.65382 1.77165,
   0.25634 3.75449 0.00000,
   0.25634 3.75449 1.77165,
   0.31445 3.65382 0.00000,
   0.33465 3.53937 1.77165,
   0.33465 3.53937 0.00000,
   0.16732 3.82917 1.77165,
   0.16732 3.82917 0.00000,
   0.05811 3.20980 0.00000,
   0.16732 3.24957 1.77165,
   0.05811 3.20980 1.77165,
   0.16732 3.24957 0.00000,
   0.31445 3.42492 0.00000,
   0.25634 3.32425 0.00000,
   -0.05811 3.20980 0.00000,
   -0.16732 3.24957 0.00000,
   -0.25634 3.32425 0.00000,
   -0.31445 3.42492 0.00000,
   0.05811 3.86894 0.00000,
   -0.05811 3.86894 0.00000,
   -0.16732 3.82917 0.00000,
   -0.25634 3.75449 0.00000,
   -0.31445 3.65382 0.00000,
   -0.33465 3.53937 0.00000,
   -0.25634 3.75449 1.77165,
   -0.16732 3.82917 1.77165,
   0.25634 3.32425 1.77165,
   0.31445 3.42492 1.77165,
   -0.05811 3.20980 1.77165,
   -0.16732 3.24957 1.77165,
   -0.05811 3.86894 1.77165,
   0.05811 3.86894 1.77165,
   -0.31445 3.65382 1.77165,
   -0.33465 3.53937 1.77165,
   -0.31445 3.42492 1.77165,
   -0.25634 3.32425 1.77165,
   1.74705 3.23579 0.00000,
   1.69240 3.30429 -1.02362,
   1.69240 3.30429 0.00000,
   1.74705 3.23579 -1.02362,
   1.76654 3.15039 0.00000,
   1.76654 3.15039 -1.02362,
   1.61350 3.34232 0.00000,
   1.61350 3.34232 -1.02362,
   1.61350 2.95846 -1.02362,
   1.69240 2.99650 0.00000,
   1.61350 2.95846 0.00000,
   1.69240 2.99650 -1.02362,
   1.74705 3.06500 -1.02362,
   1.52587 2.95846 -1.02362,
   1.52587 3.34232 -1.02362,
   1.44697 2.99650 -1.02362,
   1.44697 3.30429 -1.02362,
   1.39232 3.06500 -1.02362,
   1.39232 3.23579 -1.02362,
   1.37283 3.15039 -1.02362,
   1.74705 3.06500 0.00000,
   1.39232 3.06500 0.00000,
   1.44697 2.99650 0.00000,
   1.44697 3.30429 0.00000,
   1.52587 3.34232 0.00000,
   1.39232 3.23579 0.00000,
   1.37283 3.15039 0.00000,
   1.52587 2.95846 0.00000,
   1.82602 2.93528 1.77165,
   1.88413 3.03594 0.00000,
   1.88413 3.03594 1.77165,
   1.82602 2.93528 0.00000,
   1.88413 3.26484 1.77165,
   1.82602 3.36551 0.00000,
   1.82602 3.36551 1.77165,
   1.88413 3.26484 0.00000,
   1.90433 3.15039 1.77165,
   1.90433 3.15039 0.00000,
   1.73701 3.44020 1.77165,
   1.73701 3.44020 0.00000,
   1.62780 2.82083 0.00000,
   1.73701 2.86059 1.77165,
   1.62780 2.82083 1.77165,
   1.73701 2.86059 0.00000,
   1.31335 2.93528 0.00000,
   1.25524 3.03594 1.77165,
   1.25524 3.03594 0.00000,
   1.31335 2.93528 1.77165,
   1.25524 3.26484 0.00000,
   1.31335 3.36551 1.77165,
   1.31335 3.36551 0.00000,
   1.25524 3.26484 1.77165,
   1.23504 3.15039 0.00000,
   1.23504 3.15039 1.77165,
   1.51157 3.47996 0.00000,
   1.40236 3.44020 1.77165,
   1.51157 3.47996 1.77165,
   1.40236 3.44020 0.00000,
   1.62780 3.47996 0.00000,
   1.62780 3.47996 1.77165,
   1.40236 2.86059 0.00000,
   1.51157 2.82083 1.77165,
   1.40236 2.86059 1.77165,
   1.51157 2.82083 0.00000,
   2.38295 1.92319 -1.02362,
   2.30406 1.96122 0.00000,
   2.38295 1.92319 0.00000,
   2.30406 1.96122 -1.02362,
   2.43760 1.85469 0.00000,
   2.43760 1.85469 -1.02362,
   2.45709 1.76929 0.00000,
   2.45709 1.76929 -1.02362,
   2.43760 1.68390 0.00000,
   2.43760 1.68390 -1.02362,
   2.21642 1.96122 0.00000,
   2.21642 1.96122 -1.02362,
   2.06339 1.76929 -1.02362,
   2.08287 1.85469 0.00000,
   2.08287 1.85469 -1.02362,
   2.06339 1.76929 0.00000,
   2.13748 1.61539 -1.02362,
   2.21642 1.57736 0.00000,
   2.13748 1.61539 0.00000,
   2.21642 1.57736 -1.02362,
   2.30406 1.57736 0.00000,
   2.30406 1.57736 -1.02362,
   2.08287 1.68390 0.00000,
   2.08287 1.68390 -1.02362,
   2.13748 1.92319 0.00000,
   2.13748 1.92319 -1.02362,
   2.38295 1.61539 0.00000,
   2.38295 1.61539 -1.02362,
   2.57469 1.88374 1.77165,
   2.51657 1.98441 0.00000,
   2.51657 1.98441 1.77165,
   2.57469 1.88374 0.00000,
   2.59488 1.76929 1.77165,
   2.59488 1.76929 0.00000,
   2.42756 2.05909 1.77165,
   2.42756 2.05909 0.00000,
   2.42756 1.47949 0.00000,
   2.51657 1.55417 1.77165,
   2.42756 1.47949 1.77165,
   2.51657 1.55417 0.00000,
   2.57469 1.65484 0.00000,
   2.57469 1.65484 1.77165,
   2.09291 2.05909 0.00000,
   2.00390 1.98441 1.77165,
   2.09291 2.05909 1.77165,
   2.00390 1.98441 0.00000,
   2.20213 1.43972 0.00000,
   2.31835 1.43972 1.77165,
   2.20213 1.43972 1.77165,
   2.31835 1.43972 0.00000,
   2.09291 1.47949 0.00000,
   2.09291 1.47949 1.77165,
   2.31835 2.09886 0.00000,
   2.20213 2.09886 1.77165,
   2.31835 2.09886 1.77165,
   2.20213 2.09886 0.00000,
   1.94579 1.65484 0.00000,
   1.92559 1.76929 1.77165,
   1.92559 1.76929 0.00000,
   1.94579 1.65484 1.77165,
   1.94579 1.88374 1.77165,
   1.94579 1.88374 0.00000,
   2.00390 1.55417 0.00000,
   2.00390 1.55417 1.77165,
   2.43760 -0.08539 0.00000,
   2.45709 0.00000 -1.02362,
   2.45709 0.00000 0.00000,
   2.43760 -0.08539 -1.02362,
   2.43760 0.08539 0.00000,
   2.38295 0.15390 -1.02362,
   2.38295 0.15390 0.00000,
   2.43760 0.08539 -1.02362,
   2.30406 0.19193 0.00000,
   2.30406 0.19193 -1.02362,
   2.21642 0.19193 0.00000,
   2.21642 0.19193 -1.02362,
   2.08287 0.08539 -1.02362,
   2.13748 0.15390 0.00000,
   2.13748 0.15390 -1.02362,
   2.08287 0.08539 0.00000,
   2.38295 -0.15390 -1.02362,
   2.30406 -0.19193 -1.02362,
   2.21642 -0.19193 -1.02362,
   2.13748 -0.15390 -1.02362,
   2.08287 -0.08539 -1.02362,
   2.06339 0.00000 -1.02362,
   2.08287 -0.08539 0.00000,
   2.13748 -0.15390 0.00000,
   2.38295 -0.15390 0.00000,
   2.30406 -0.19193 0.00000,
   2.21642 -0.19193 0.00000,
   2.06339 0.00000 0.00000,
   2.57469 0.11445 1.77165,
   2.51657 0.21512 0.00000,
   2.51657 0.21512 1.77165,
   2.57469 0.11445 0.00000,
   2.59488 0.00000 1.77165,
   2.59488 0.00000 0.00000,
   2.42756 0.28980 1.77165,
   2.42756 0.28980 0.00000,
   2.57469 -0.11445 1.77165,
   2.57469 -0.11445 0.00000,
   2.31835 -0.32957 0.00000,
   2.42756 -0.28980 1.77165,
   2.31835 -0.32957 1.77165,
   2.42756 -0.28980 0.00000,
   2.09291 0.28980 0.00000,
   2.00390 0.21512 1.77165,
   2.09291 0.28980 1.77165,
   2.00390 0.21512 0.00000,
   2.00390 -0.21512 0.00000,
   1.94579 -0.11445 1.77165,
   1.94579 -0.11445 0.00000,
   2.00390 -0.21512 1.77165,
   2.20213 0.32957 0.00000,
   2.20213 0.32957 1.77165,
   2.51657 -0.21512 1.77165,
   2.51657 -0.21512 0.00000,
   1.92559 0.00000 1.77165,
   1.92559 0.00000 0.00000,
   2.31835 0.32957 1.77165,
   2.20213 -0.32957 1.77165,
   2.09291 -0.28980 1.77165,
   1.94579 0.11445 1.77165,
   2.09291 -0.28980 0.00000,
   2.20213 -0.32957 0.00000,
   2.31835 0.32957 0.00000,
   1.94579 0.11445 0.00000,
   2.30406 -1.57776 -1.02362,
   2.21642 -1.57776 0.00000,
   2.30406 -1.57776 0.00000,
   2.21642 -1.57776 -1.02362,
   2.13748 -1.92358 -1.02362,
   2.21642 -1.96161 0.00000,
   2.13748 -1.92358 0.00000,
   2.21642 -1.96161 -1.02362,
   2.43760 -1.68429 0.00000,
   2.38295 -1.61579 -1.02362,
   2.38295 -1.61579 0.00000,
   2.43760 -1.68429 -1.02362,
   2.45709 -1.76969 0.00000,
   2.45709 -1.76969 -1.02362,
   2.30406 -1.96161 0.00000,
   2.30406 -1.96161 -1.02362,
   2.08287 -1.68429 -1.02362,
   2.13748 -1.61579 0.00000,
   2.13748 -1.61579 -1.02362,
   2.08287 -1.68429 0.00000,
   2.06339 -1.76969 -1.02362,
   2.06339 -1.76969 0.00000,
   2.08287 -1.85508 0.00000,
   2.08287 -1.85508 -1.02362,
   2.38295 -1.92358 0.00000,
   2.38295 -1.92358 -1.02362,
   2.43760 -1.85508 0.00000,
   2.43760 -1.85508 -1.02362,
   2.57469 -1.65524 1.77165,
   2.51657 -1.55457 0.00000,
   2.51657 -1.55457 1.77165,
   2.57469 -1.65524 0.00000,
   2.59488 -1.76969 1.77165,
   2.59488 -1.76969 0.00000,
   2.42756 -1.47988 1.77165,
   2.42756 -1.47988 0.00000,
   2.42756 -2.05949 0.00000,
   2.51657 -1.98480 1.77165,
   2.42756 -2.05949 1.77165,
   2.51657 -1.98480 0.00000,
   2.57469 -1.88413 0.00000,
   2.57469 -1.88413 1.77165,
   2.09291 -1.47988 0.00000,
   2.00390 -1.55457 1.77165,
   2.09291 -1.47988 1.77165,
   2.00390 -1.55457 0.00000,
   2.20213 -2.09925 0.00000,
   2.31835 -2.09925 1.77165,
   2.20213 -2.09925 1.77165,
   2.31835 -2.09925 0.00000,
   2.09291 -2.05949 0.00000,
   2.09291 -2.05949 1.77165,
   2.31835 -1.44012 0.00000,
   2.20213 -1.44012 1.77165,
   2.31835 -1.44012 1.77165,
   2.20213 -1.44012 0.00000,
   1.94579 -1.88413 0.00000,
   1.92559 -1.76969 1.77165,
   1.92559 -1.76969 0.00000,
   1.94579 -1.88413 1.77165,
   1.94579 -1.65524 1.77165,
   1.94579 -1.65524 0.00000,
   2.00390 -1.98480 0.00000,
   2.00390 -1.98480 1.77165,
   1.74705 -3.23500 -1.02362,
   1.74705 -3.06421 -1.02362,
   1.76654 -3.14961 -1.02362,
   1.69240 -3.30350 -1.02362,
   1.69240 -2.99571 -1.02362,
   1.61350 -3.34154 -1.02362,
   1.61350 -2.95768 -1.02362,
   1.52587 -3.34154 -1.02362,
   1.52587 -2.95768 -1.02362,
   1.44697 -3.30350 -1.02362,
   1.44697 -2.99571 -1.02362,
   1.39232 -3.23500 -1.02362,
   1.39232 -3.06421 -1.02362,
   1.37283 -3.14961 -1.02362,
   1.61350 -3.34154 0.00000,
   1.52587 -3.34154 0.00000,
   1.74705 -3.06421 0.00000,
   1.69240 -2.99571 0.00000,
   1.76654 -3.14961 0.00000,
   1.61350 -2.95768 0.00000,
   1.52587 -2.95768 0.00000,
   1.44697 -2.99571 0.00000,
   1.74705 -3.23500 0.00000,
   1.39232 -3.23500 0.00000,
   1.44697 -3.30350 0.00000,
   1.69240 -3.30350 0.00000,
   1.37283 -3.14961 0.00000,
   1.39232 -3.06421 0.00000,
   1.82602 -3.36472 1.77165,
   1.88413 -3.26406 0.00000,
   1.88413 -3.26406 1.77165,
   1.82602 -3.36472 0.00000,
   1.88413 -3.03516 1.77165,
   1.82602 -2.93449 0.00000,
   1.82602 -2.93449 1.77165,
   1.88413 -3.03516 0.00000,
   1.90433 -3.14961 1.77165,
   1.90433 -3.14961 0.00000,
   1.73701 -2.85980 1.77165,
   1.73701 -2.85980 0.00000,
   1.51157 -3.47917 0.00000,
   1.62780 -3.47917 1.77165,
   1.51157 -3.47917 1.77165,
   1.62780 -3.47917 0.00000,
   1.62780 -2.82004 1.77165,
   1.62780 -2.82004 0.00000,
   1.73701 -3.43941 1.77165,
   1.73701 -3.43941 0.00000,
   1.25524 -3.03516 0.00000,
   1.31335 -2.93449 1.77165,
   1.31335 -2.93449 0.00000,
   1.25524 -3.03516 1.77165,
   1.31335 -3.36472 0.00000,
   1.25524 -3.26406 1.77165,
   1.25524 -3.26406 0.00000,
   1.31335 -3.36472 1.77165,
   1.23504 -3.14961 0.00000,
   1.23504 -3.14961 1.77165,
   1.51157 -2.82004 0.00000,
   1.40236 -2.85980 1.77165,
   1.51157 -2.82004 1.77165,
   1.40236 -2.85980 0.00000,
   1.40236 -3.43941 0.00000,
   1.40236 -3.43941 1.77165,
   0.17736 -3.45437 0.00000,
   0.12272 -3.38587 -1.02362,
   0.12272 -3.38587 0.00000,
   0.17736 -3.45437 -1.02362,
   0.19685 -3.53976 0.00000,
   0.19685 -3.53976 -1.02362,
   0.04382 -3.34783 0.00000,
   0.04382 -3.34783 -1.02362,
   0.04382 -3.73169 -1.02362,
   0.12272 -3.69366 0.00000,
   0.04382 -3.73169 0.00000,
   0.12272 -3.69366 -1.02362,
   0.17736 -3.62516 -1.02362,
   -0.04382 -3.73169 -1.02362,
   -0.04382 -3.34783 -1.02362,
   -0.12272 -3.69366 -1.02362,
   -0.12272 -3.38587 -1.02362,
   -0.17736 -3.62516 -1.02362,
   -0.17736 -3.45437 -1.02362,
   -0.19685 -3.53976 -1.02362,
   0.17736 -3.62516 0.00000,
   -0.17736 -3.62516 0.00000,
   -0.12272 -3.69366 0.00000,
   -0.12272 -3.38587 0.00000,
   -0.04382 -3.34783 0.00000,
   -0.17736 -3.45437 0.00000,
   -0.19685 -3.53976 0.00000,
   -0.04382 -3.73169 0.00000,
   0.31445 -3.42531 1.77165,
   0.25634 -3.32465 0.00000,
   0.25634 -3.32465 1.77165,
   0.31445 -3.42531 0.00000,
   0.33465 -3.53976 1.77165,
   0.33465 -3.53976 0.00000,
   0.16732 -3.24996 1.77165,
   0.16732 -3.24996 0.00000,
   0.05811 -3.86933 0.00000,
   0.16732 -3.82957 1.77165,
   0.05811 -3.86933 1.77165,
   0.16732 -3.82957 0.00000,
   0.31445 -3.65421 0.00000,
   0.25634 -3.75488 0.00000,
   -0.05811 -3.86933 0.00000,
   -0.16732 -3.82957 0.00000,
   -0.25634 -3.75488 0.00000,
   -0.31445 -3.65421 0.00000,
   0.05811 -3.21020 0.00000,
   -0.05811 -3.21020 0.00000,
   -0.16732 -3.24996 0.00000,
   -0.25634 -3.32465 0.00000,
   -0.31445 -3.42531 0.00000,
   -0.33465 -3.53976 0.00000,
   -0.25634 -3.32465 1.77165,
   -0.16732 -3.24996 1.77165,
   0.25634 -3.75488 1.77165,
   0.31445 -3.65421 1.77165,
   -0.05811 -3.86933 1.77165,
   -0.16732 -3.82957 1.77165,
   -0.05811 -3.21020 1.77165,
   0.05811 -3.21020 1.77165,
   -0.31445 -3.42531 1.77165,
   -0.33465 -3.53976 1.77165,
   -0.31445 -3.65421 1.77165,
   -0.25634 -3.75488 1.77165,
   -1.38996 -3.06421 0.00000,
   -1.44457 -2.99571 -1.02362,
   -1.44457 -2.99571 0.00000,
   -1.38996 -3.06421 -1.02362,
   -1.37047 -3.14961 0.00000,
   -1.37047 -3.14961 -1.02362,
   -1.52350 -2.95768 0.00000,
   -1.52350 -2.95768 -1.02362,
   -1.38996 -3.23500 0.00000,
   -1.38996 -3.23500 -1.02362,
   -1.61114 -2.95768 0.00000,
   -1.61114 -2.95768 -1.02362,
   -1.69004 -2.99571 0.00000,
   -1.69004 -2.99571 -1.02362,
   -1.69004 -3.30350 -1.02362,
   -1.74469 -3.23500 0.00000,
   -1.74469 -3.23500 -1.02362,
   -1.69004 -3.30350 0.00000,
   -1.76417 -3.14961 0.00000,
   -1.76417 -3.14961 -1.02362,
   -1.44457 -3.30350 0.00000,
   -1.44457 -3.30350 -1.02362,
   -1.52350 -3.34154 -1.02362,
   -1.52350 -3.34154 0.00000,
   -1.74469 -3.06421 0.00000,
   -1.74469 -3.06421 -1.02362,
   -1.61114 -3.34154 -1.02362,
   -1.61114 -3.34154 0.00000,
   -1.25287 -3.03516 1.77165,
   -1.31098 -2.93449 0.00000,
   -1.31098 -2.93449 1.77165,
   -1.25287 -3.03516 0.00000,
   -1.23268 -3.14961 1.77165,
   -1.23268 -3.14961 0.00000,
   -1.40000 -2.85980 1.77165,
   -1.40000 -2.85980 0.00000,
   -1.25287 -3.26406 1.77165,
   -1.25287 -3.26406 0.00000,
   -1.50921 -3.47917 0.00000,
   -1.40000 -3.43941 1.77165,
   -1.50921 -3.47917 1.77165,
   -1.40000 -3.43941 0.00000,
   -1.73465 -2.85980 0.00000,
   -1.82366 -2.93449 1.77165,
   -1.73465 -2.85980 1.77165,
   -1.82366 -2.93449 0.00000,
   -1.82366 -3.36472 0.00000,
   -1.88177 -3.26406 1.77165,
   -1.88177 -3.26406 0.00000,
   -1.82366 -3.36472 1.77165,
   -1.62543 -2.82004 0.00000,
   -1.62543 -2.82004 1.77165,
   -1.31098 -3.36472 1.77165,
   -1.31098 -3.36472 0.00000,
   -1.90197 -3.14961 1.77165,
   -1.90197 -3.14961 0.00000,
   -1.50921 -2.82004 1.77165,
   -1.62543 -3.47917 1.77165,
   -1.73465 -3.43941 1.77165,
   -1.88177 -3.03516 1.77165,
   -1.73465 -3.43941 0.00000,
   -1.62543 -3.47917 0.00000,
   -1.50921 -2.82004 0.00000,
   -1.88177 -3.03516 0.00000,
   -2.13791 -1.61579 -1.02362,
   -2.21681 -1.57776 0.00000,
   -2.13791 -1.61579 0.00000,
   -2.21681 -1.57776 -1.02362,
   -2.43799 -1.85508 -1.02362,
   -2.45748 -1.76969 0.00000,
   -2.45748 -1.76969 -1.02362,
   -2.43799 -1.85508 0.00000,
   -2.08327 -1.68429 0.00000,
   -2.08327 -1.68429 -1.02362,
   -2.06378 -1.76969 0.00000,
   -2.06378 -1.76969 -1.02362,
   -2.30445 -1.57776 -1.02362,
   -2.38335 -1.61579 0.00000,
   -2.30445 -1.57776 0.00000,
   -2.38335 -1.61579 -1.02362,
   -2.08327 -1.85508 0.00000,
   -2.08327 -1.85508 -1.02362,
   -2.21681 -1.96161 -1.02362,
   -2.13791 -1.92358 0.00000,
   -2.21681 -1.96161 0.00000,
   -2.13791 -1.92358 -1.02362,
   -2.38335 -1.92358 -1.02362,
   -2.38335 -1.92358 0.00000,
   -2.43799 -1.68429 0.00000,
   -2.43799 -1.68429 -1.02362,
   -2.30445 -1.96161 -1.02362,
   -2.30445 -1.96161 0.00000,
   -1.94618 -1.65524 1.77165,
   -2.00429 -1.55457 0.00000,
   -2.00429 -1.55457 1.77165,
   -1.94618 -1.65524 0.00000,
   -1.92598 -1.76969 1.77165,
   -1.92598 -1.76969 0.00000,
   -2.09331 -1.47988 1.77165,
   -2.09331 -1.47988 0.00000,
   -2.57508 -1.88413 0.00000,
   -2.59528 -1.76969 1.77165,
   -2.59528 -1.76969 0.00000,
   -2.57508 -1.88413 1.77165,
   -2.20252 -2.09925 0.00000,
   -2.09331 -2.05949 1.77165,
   -2.20252 -2.09925 1.77165,
   -2.09331 -2.05949 0.00000,
   -2.20252 -1.44012 1.77165,
   -2.20252 -1.44012 0.00000,
   -1.94618 -1.88413 1.77165,
   -2.00429 -1.98480 1.77165,
   -2.31874 -1.44012 1.77165,
   -2.31874 -2.09925 1.77165,
   -2.42795 -1.47988 1.77165,
   -2.42795 -2.05949 1.77165,
   -2.51697 -1.55457 1.77165,
   -2.51697 -1.98480 1.77165,
   -2.57508 -1.65524 1.77165,
   -2.57508 -1.65524 0.00000,
   -2.51697 -1.55457 0.00000,
   -2.00429 -1.98480 0.00000,
   -2.42795 -1.47988 0.00000,
   -2.31874 -2.09925 0.00000,
   -1.94618 -1.88413 0.00000,
   -2.51697 -1.98480 0.00000,
   -2.42795 -2.05949 0.00000,
   -2.31874 -1.44012 0.00000,
   -2.30445 -0.19193 -1.02362,
   -2.21681 -0.19193 0.00000,
   -2.30445 -0.19193 0.00000,
   -2.21681 -0.19193 -1.02362,
   -2.08327 0.08539 0.00000,
   -2.13791 0.15390 -1.02362,
   -2.13791 0.15390 0.00000,
   -2.08327 0.08539 -1.02362,
   -2.06378 0.00000 0.00000,
   -2.06378 0.00000 -1.02362,
   -2.21681 0.19193 0.00000,
   -2.21681 0.19193 -1.02362,
   -2.30445 0.19193 0.00000,
   -2.30445 0.19193 -1.02362,
   -2.38335 0.15390 0.00000,
   -2.38335 0.15390 -1.02362,
   -2.08327 -0.08539 0.00000,
   -2.08327 -0.08539 -1.02362,
   -2.38335 -0.15390 -1.02362,
   -2.43799 -0.08539 0.00000,
   -2.43799 -0.08539 -1.02362,
   -2.38335 -0.15390 0.00000,
   -2.13791 -0.15390 0.00000,
   -2.13791 -0.15390 -1.02362,
   -2.45748 0.00000 0.00000,
   -2.45748 0.00000 -1.02362,
   -2.43799 0.08539 0.00000,
   -2.43799 0.08539 -1.02362,
   -2.09331 -0.28980 0.00000,
   -2.00429 -0.21512 1.77165,
   -2.09331 -0.28980 1.77165,
   -2.00429 -0.21512 0.00000,
   -1.94618 0.11445 1.77165,
   -2.00429 0.21512 0.00000,
   -2.00429 0.21512 1.77165,
   -1.94618 0.11445 0.00000,
   -1.92598 0.00000 1.77165,
   -1.92598 0.00000 0.00000,
   -2.09331 0.28980 1.77165,
   -2.09331 0.28980 0.00000,
   -2.20252 0.32957 1.77165,
   -2.20252 0.32957 0.00000,
   -1.94618 -0.11445 1.77165,
   -1.94618 -0.11445 0.00000,
   -2.20252 -0.32957 1.77165,
   -2.31874 0.32957 1.77165,
   -2.31874 -0.32957 1.77165,
   -2.42795 0.28980 1.77165,
   -2.42795 -0.28980 1.77165,
   -2.51697 0.21512 1.77165,
   -2.51697 -0.21512 1.77165,
   -2.57508 0.11445 1.77165,
   -2.57508 -0.11445 1.77165,
   -2.59528 0.00000 1.77165,
   -2.31874 0.32957 0.00000,
   -2.31874 -0.32957 0.00000,
   -2.20252 -0.32957 0.00000,
   -2.57508 -0.11445 0.00000,
   -2.59528 0.00000 0.00000,
   -2.42795 0.28980 0.00000,
   -2.51697 0.21512 0.00000,
   -2.57508 0.11445 0.00000,
   -2.51697 -0.21512 0.00000,
   -2.42795 -0.28980 0.00000,
   -2.08327 1.85469 0.00000,
   -2.13791 1.92319 -1.02362,
   -2.13791 1.92319 0.00000,
   -2.08327 1.85469 -1.02362,
   -2.06378 1.76929 0.00000,
   -2.06378 1.76929 -1.02362,
   -2.21681 1.96122 0.00000,
   -2.21681 1.96122 -1.02362,
   -2.21681 1.57736 -1.02362,
   -2.13791 1.61539 0.00000,
   -2.21681 1.57736 0.00000,
   -2.13791 1.61539 -1.02362,
   -2.08327 1.68390 -1.02362,
   -2.30445 1.57736 -1.02362,
   -2.30445 1.96122 -1.02362,
   -2.38335 1.61539 -1.02362,
   -2.38335 1.92319 -1.02362,
   -2.43799 1.68390 -1.02362,
   -2.43799 1.85469 -1.02362,
   -2.45748 1.76929 -1.02362,
   -2.08327 1.68390 0.00000,
   -2.43799 1.68390 0.00000,
   -2.38335 1.61539 0.00000,
   -2.38335 1.92319 0.00000,
   -2.30445 1.96122 0.00000,
   -2.43799 1.85469 0.00000,
   -2.45748 1.76929 0.00000,
   -2.30445 1.57736 0.00000,
   -1.94618 1.88374 1.77165,
   -2.00429 1.98441 0.00000,
   -2.00429 1.98441 1.77165,
   -1.94618 1.88374 0.00000,
   -1.92598 1.76929 1.77165,
   -1.92598 1.76929 0.00000,
   -2.09331 2.05909 1.77165,
   -2.09331 2.05909 0.00000,
   -2.59528 1.76929 0.00000,
   -2.57508 1.88374 1.77165,
   -2.57508 1.88374 0.00000,
   -2.59528 1.76929 1.77165,
   -2.20252 1.43972 0.00000,
   -2.09331 1.47949 1.77165,
   -2.20252 1.43972 1.77165,
   -2.09331 1.47949 0.00000,
   -2.20252 2.09886 1.77165,
   -2.20252 2.09886 0.00000,
   -2.51697 1.98441 1.77165,
   -2.51697 1.98441 0.00000,
   -2.31874 2.09886 0.00000,
   -2.42795 2.05909 1.77165,
   -2.31874 2.09886 1.77165,
   -2.42795 2.05909 0.00000,
   -2.00429 1.55417 1.77165,
   -2.00429 1.55417 0.00000,
   -2.42795 1.47949 0.00000,
   -2.31874 1.43972 1.77165,
   -2.42795 1.47949 1.77165,
   -2.31874 1.43972 0.00000,
   -1.94618 1.65484 1.77165,
   -2.51697 1.55417 1.77165,
   -2.57508 1.65484 1.77165,
   -1.94618 1.65484 0.00000,
   -2.51697 1.55417 0.00000,
   -2.57508 1.65484 0.00000
  ] }
  coordIndex [
   0, 1, 2, -1,
   1, 0, 3, -1,
   4, 5, 6, -1,
   5, 4, 7, -1,
   8, 7, 4, -1,
   7, 8, 9, -1,
   10, 3, 0, -1,
   3, 10, 11, -1,
   12, 9, 8, -1,
   9, 12, 13, -1,
   14, 15, 16, -1,
   15, 14, 17, -1,
   18, 19, 20, -1,
   19, 18, 21, -1,
   13, 7, 9, -1,
   17, 7, 13, -1,
   17, 5, 7, -1,
   14, 5, 17, -1,
   14, 22, 5, -1,
   21, 22, 14, -1,
   21, 23, 22, -1,
   18, 23, 21, -1,
   18, 2, 23, -1,
   24, 2, 18, -1,
   24, 0, 2, -1,
   0, 24, 10, -1,
   22, 25, 26, -1,
   25, 22, 23, -1,
   23, 1, 25, -1,
   1, 23, 2, -1,
   18, 27, 24, -1,
   27, 18, 20, -1,
   15, 13, 12, -1,
   13, 15, 17, -1,
   21, 16, 19, -1,
   16, 21, 14, -1,
   5, 26, 6, -1,
   26, 5, 22, -1,
   24, 11, 10, -1,
   11, 24, 27, -1,
   28, 29, 30, -1,
   29, 28, 31, -1,
   32, 33, 34, -1,
   33, 32, 35, -1,
   36, 35, 32, -1,
   35, 36, 37, -1,
   33, 38, 34, -1,
   38, 33, 39, -1,
   40, 41, 42, -1,
   41, 40, 43, -1,
   44, 45, 46, -1,
   45, 44, 47, -1,
   48, 37, 36, -1,
   37, 48, 49, -1,
   50, 51, 52, -1,
   51, 50, 53, -1,
   32, 48, 36, -1,
   34, 48, 32, -1,
   34, 54, 48, -1,
   38, 54, 34, -1,
   38, 41, 54, -1,
   52, 41, 38, -1,
   52, 42, 41, -1,
   51, 42, 52, -1,
   51, 29, 42, -1,
   46, 29, 51, -1,
   46, 30, 29, -1,
   45, 30, 46, -1,
   45, 55, 30, -1,
   56, 55, 45, -1,
   56, 57, 55, -1,
   57, 56, 58, -1,
   53, 46, 51, -1,
   46, 53, 44, -1,
   59, 45, 47, -1,
   45, 59, 56, -1,
   60, 56, 59, -1,
   56, 60, 58, -1,
   39, 52, 38, -1,
   52, 39, 50, -1,
   54, 49, 48, -1,
   49, 54, 61, -1,
   62, 57, 63, -1,
   57, 62, 55, -1,
   31, 42, 29, -1,
   42, 31, 40, -1,
   62, 30, 55, -1,
   30, 62, 28, -1,
   43, 54, 41, -1,
   54, 43, 61, -1,
   63, 58, 60, -1,
   58, 63, 57, -1,
   8, 37, 49, -1,
   12, 49, 61, -1,
   37, 8, 35, -1,
   4, 35, 8, -1,
   49, 12, 8, -1,
   15, 61, 43, -1,
   61, 15, 12, -1,
   16, 43, 40, -1,
   43, 16, 15, -1,
   40, 19, 16, -1,
   31, 19, 40, -1,
   28, 19, 31, -1,
   19, 28, 20, -1,
   62, 20, 28, -1,
   20, 62, 27, -1,
   63, 27, 62, -1,
   35, 4, 33, -1,
   6, 33, 4, -1,
   33, 6, 39, -1,
   26, 39, 6, -1,
   39, 26, 50, -1,
   25, 50, 26, -1,
   25, 53, 50, -1,
   44, 25, 1, -1,
   25, 44, 53, -1,
   47, 1, 3, -1,
   59, 3, 11, -1,
   27, 63, 11, -1,
   1, 47, 44, -1,
   60, 11, 63, -1,
   3, 59, 47, -1,
   11, 60, 59, -1,
   64, 65, 66, -1,
   65, 64, 67, -1,
   68, 67, 64, -1,
   67, 68, 69, -1,
   70, 71, 72, -1,
   71, 70, 73, -1,
   74, 67, 69, -1,
   73, 67, 74, -1,
   73, 65, 67, -1,
   70, 65, 73, -1,
   70, 75, 65, -1,
   76, 75, 70, -1,
   76, 77, 75, -1,
   78, 77, 76, -1,
   78, 79, 77, -1,
   80, 79, 78, -1,
   80, 81, 79, -1,
   81, 80, 82, -1,
   83, 69, 68, -1,
   69, 83, 74, -1,
   78, 84, 80, -1,
   84, 78, 85, -1,
   77, 86, 87, -1,
   86, 77, 79, -1,
   82, 88, 81, -1,
   88, 82, 89, -1,
   81, 86, 79, -1,
   86, 81, 88, -1,
   71, 74, 83, -1,
   74, 71, 73, -1,
   75, 87, 90, -1,
   87, 75, 77, -1,
   65, 90, 66, -1,
   90, 65, 75, -1,
   78, 91, 85, -1,
   91, 78, 76, -1,
   76, 72, 91, -1,
   72, 76, 70, -1,
   80, 89, 82, -1,
   89, 80, 84, -1,
   92, 93, 94, -1,
   93, 92, 95, -1,
   96, 95, 92, -1,
   95, 96, 97, -1,
   93, 98, 94, -1,
   98, 93, 99, -1,
   100, 101, 102, -1,
   101, 100, 103, -1,
   68, 97, 104, -1,
   83, 104, 105, -1,
   97, 68, 95, -1,
   64, 95, 68, -1,
   104, 83, 68, -1,
   71, 105, 103, -1,
   105, 71, 83, -1,
   72, 103, 100, -1,
   103, 72, 71, -1,
   100, 91, 72, -1,
   106, 91, 100, -1,
   107, 91, 106, -1,
   91, 107, 85, -1,
   108, 85, 107, -1,
   85, 108, 84, -1,
   109, 84, 108, -1,
   95, 64, 93, -1,
   66, 93, 64, -1,
   93, 66, 99, -1,
   90, 99, 66, -1,
   99, 90, 110, -1,
   87, 110, 90, -1,
   87, 111, 110, -1,
   112, 87, 86, -1,
   87, 112, 111, -1,
   113, 86, 88, -1,
   114, 88, 89, -1,
   84, 109, 89, -1,
   86, 113, 112, -1,
   115, 89, 109, -1,
   88, 114, 113, -1,
   89, 115, 114, -1,
   112, 116, 117, -1,
   116, 112, 113, -1,
   103, 118, 101, -1,
   118, 103, 105, -1,
   119, 97, 96, -1,
   97, 119, 104, -1,
   107, 120, 121, -1,
   120, 107, 106, -1,
   106, 102, 120, -1,
   102, 106, 100, -1,
   110, 122, 123, -1,
   122, 110, 111, -1,
   115, 124, 114, -1,
   124, 115, 125, -1,
   111, 117, 122, -1,
   117, 111, 112, -1,
   118, 104, 119, -1,
   104, 118, 105, -1,
   109, 125, 115, -1,
   125, 109, 126, -1,
   114, 116, 113, -1,
   116, 114, 124, -1,
   99, 123, 98, -1,
   123, 99, 110, -1,
   108, 126, 109, -1,
   126, 108, 127, -1,
   92, 119, 96, -1,
   94, 119, 92, -1,
   94, 118, 119, -1,
   98, 118, 94, -1,
   98, 101, 118, -1,
   123, 101, 98, -1,
   123, 102, 101, -1,
   122, 102, 123, -1,
   122, 120, 102, -1,
   117, 120, 122, -1,
   117, 121, 120, -1,
   116, 121, 117, -1,
   116, 127, 121, -1,
   124, 127, 116, -1,
   124, 126, 127, -1,
   126, 124, 125, -1,
   108, 121, 127, -1,
   121, 108, 107, -1,
   128, 129, 130, -1,
   129, 128, 131, -1,
   132, 131, 128, -1,
   131, 132, 133, -1,
   129, 134, 130, -1,
   134, 129, 135, -1,
   136, 137, 138, -1,
   137, 136, 139, -1,
   140, 131, 133, -1,
   139, 131, 140, -1,
   139, 129, 131, -1,
   136, 129, 139, -1,
   136, 135, 129, -1,
   141, 135, 136, -1,
   141, 142, 135, -1,
   143, 142, 141, -1,
   143, 144, 142, -1,
   145, 144, 143, -1,
   145, 146, 144, -1,
   146, 145, 147, -1,
   148, 133, 132, -1,
   133, 148, 140, -1,
   143, 149, 145, -1,
   149, 143, 150, -1,
   142, 151, 152, -1,
   151, 142, 144, -1,
   147, 153, 146, -1,
   153, 147, 154, -1,
   146, 151, 144, -1,
   151, 146, 153, -1,
   137, 140, 148, -1,
   140, 137, 139, -1,
   135, 152, 134, -1,
   152, 135, 142, -1,
   143, 155, 150, -1,
   155, 143, 141, -1,
   141, 138, 155, -1,
   138, 141, 136, -1,
   145, 154, 147, -1,
   154, 145, 149, -1,
   156, 157, 158, -1,
   157, 156, 159, -1,
   160, 161, 162, -1,
   161, 160, 163, -1,
   164, 163, 160, -1,
   163, 164, 165, -1,
   161, 166, 162, -1,
   166, 161, 167, -1,
   168, 169, 170, -1,
   169, 168, 171, -1,
   171, 156, 169, -1,
   156, 171, 159, -1,
   172, 173, 174, -1,
   173, 172, 175, -1,
   176, 177, 178, -1,
   177, 176, 179, -1,
   158, 165, 164, -1,
   165, 158, 157, -1,
   180, 179, 176, -1,
   179, 180, 181, -1,
   182, 183, 184, -1,
   183, 182, 185, -1,
   186, 184, 187, -1,
   184, 186, 182, -1,
   188, 189, 190, -1,
   189, 188, 191, -1,
   167, 187, 166, -1,
   187, 167, 186, -1,
   174, 181, 180, -1,
   181, 174, 173, -1,
   160, 158, 164, -1,
   162, 158, 160, -1,
   162, 156, 158, -1,
   166, 156, 162, -1,
   166, 169, 156, -1,
   187, 169, 166, -1,
   187, 170, 169, -1,
   184, 170, 187, -1,
   184, 189, 170, -1,
   183, 189, 184, -1,
   183, 190, 189, -1,
   177, 190, 183, -1,
   177, 175, 190, -1,
   179, 175, 177, -1,
   179, 173, 175, -1,
   173, 179, 181, -1,
   185, 177, 183, -1,
   177, 185, 178, -1,
   191, 170, 189, -1,
   170, 191, 168, -1,
   172, 190, 175, -1,
   190, 172, 188, -1,
   132, 165, 157, -1,
   148, 157, 159, -1,
   165, 132, 163, -1,
   128, 163, 132, -1,
   157, 148, 132, -1,
   137, 159, 171, -1,
   159, 137, 148, -1,
   138, 171, 168, -1,
   171, 138, 137, -1,
   168, 155, 138, -1,
   191, 155, 168, -1,
   188, 155, 191, -1,
   155, 188, 150, -1,
   172, 150, 188, -1,
   150, 172, 149, -1,
   174, 149, 172, -1,
   163, 128, 161, -1,
   130, 161, 128, -1,
   161, 130, 167, -1,
   134, 167, 130, -1,
   167, 134, 186, -1,
   152, 186, 134, -1,
   152, 182, 186, -1,
   185, 152, 151, -1,
   152, 185, 182, -1,
   178, 151, 153, -1,
   176, 153, 154, -1,
   149, 174, 154, -1,
   151, 178, 185, -1,
   180, 154, 174, -1,
   153, 176, 178, -1,
   154, 180, 176, -1,
   192, 193, 194, -1,
   193, 192, 195, -1,
   196, 192, 194, -1,
   192, 196, 197, -1,
   198, 197, 196, -1,
   197, 198, 199, -1,
   200, 199, 198, -1,
   199, 200, 201, -1,
   195, 202, 193, -1,
   202, 195, 203, -1,
   204, 205, 206, -1,
   205, 204, 207, -1,
   208, 209, 210, -1,
   209, 208, 211, -1,
   211, 212, 209, -1,
   212, 211, 213, -1,
   208, 214, 215, -1,
   214, 208, 210, -1,
   203, 216, 202, -1,
   216, 203, 217, -1,
   213, 218, 212, -1,
   218, 213, 219, -1,
   206, 216, 217, -1,
   216, 206, 205, -1,
   218, 201, 200, -1,
   201, 218, 219, -1,
   201, 197, 199, -1,
   219, 197, 201, -1,
   219, 192, 197, -1,
   213, 192, 219, -1,
   213, 195, 192, -1,
   211, 195, 213, -1,
   211, 203, 195, -1,
   208, 203, 211, -1,
   208, 217, 203, -1,
   215, 217, 208, -1,
   215, 206, 217, -1,
   206, 215, 204, -1,
   215, 207, 204, -1,
   207, 215, 214, -1,
   220, 221, 222, -1,
   221, 220, 223, -1,
   224, 223, 220, -1,
   223, 224, 225, -1,
   221, 226, 222, -1,
   226, 221, 227, -1,
   228, 229, 230, -1,
   229, 228, 231, -1,
   229, 232, 233, -1,
   232, 229, 231, -1,
   234, 235, 236, -1,
   235, 234, 237, -1,
   238, 239, 240, -1,
   239, 238, 241, -1,
   242, 240, 243, -1,
   240, 242, 238, -1,
   233, 225, 224, -1,
   225, 233, 232, -1,
   244, 245, 246, -1,
   245, 244, 247, -1,
   247, 236, 245, -1,
   236, 247, 234, -1,
   241, 230, 239, -1,
   230, 241, 228, -1,
   248, 249, 250, -1,
   249, 248, 251, -1,
   250, 252, 253, -1,
   252, 250, 249, -1,
   227, 246, 226, -1,
   246, 227, 244, -1,
   253, 235, 237, -1,
   235, 253, 252, -1,
   254, 243, 255, -1,
   243, 254, 242, -1,
   254, 251, 248, -1,
   251, 254, 255, -1,
   198, 225, 232, -1,
   200, 232, 231, -1,
   225, 198, 223, -1,
   196, 223, 198, -1,
   232, 200, 198, -1,
   218, 231, 228, -1,
   231, 218, 200, -1,
   212, 228, 241, -1,
   228, 212, 218, -1,
   241, 209, 212, -1,
   238, 209, 241, -1,
   242, 209, 238, -1,
   209, 242, 210, -1,
   254, 210, 242, -1,
   210, 254, 214, -1,
   248, 214, 254, -1,
   223, 196, 221, -1,
   194, 221, 196, -1,
   221, 194, 227, -1,
   193, 227, 194, -1,
   227, 193, 244, -1,
   202, 244, 193, -1,
   202, 247, 244, -1,
   234, 202, 216, -1,
   202, 234, 247, -1,
   237, 216, 205, -1,
   253, 205, 207, -1,
   214, 248, 207, -1,
   216, 237, 234, -1,
   250, 207, 248, -1,
   205, 253, 237, -1,
   207, 250, 253, -1,
   220, 233, 224, -1,
   222, 233, 220, -1,
   222, 229, 233, -1,
   226, 229, 222, -1,
   226, 230, 229, -1,
   246, 230, 226, -1,
   246, 239, 230, -1,
   245, 239, 246, -1,
   245, 240, 239, -1,
   236, 240, 245, -1,
   236, 243, 240, -1,
   235, 243, 236, -1,
   235, 255, 243, -1,
   252, 255, 235, -1,
   252, 251, 255, -1,
   251, 252, 249, -1,
   256, 257, 258, -1,
   257, 256, 259, -1,
   260, 261, 262, -1,
   261, 260, 263, -1,
   258, 263, 260, -1,
   263, 258, 257, -1,
   261, 264, 262, -1,
   264, 261, 265, -1,
   265, 266, 264, -1,
   266, 265, 267, -1,
   268, 269, 270, -1,
   269, 268, 271, -1,
   259, 263, 257, -1,
   272, 263, 259, -1,
   272, 261, 263, -1,
   273, 261, 272, -1,
   273, 265, 261, -1,
   274, 265, 273, -1,
   274, 267, 265, -1,
   275, 267, 274, -1,
   275, 270, 267, -1,
   276, 270, 275, -1,
   276, 268, 270, -1,
   268, 276, 277, -1,
   275, 278, 276, -1,
   278, 275, 279, -1,
   267, 269, 266, -1,
   269, 267, 270, -1,
   273, 280, 281, -1,
   280, 273, 272, -1,
   274, 281, 282, -1,
   281, 274, 273, -1,
   277, 271, 268, -1,
   271, 277, 283, -1,
   280, 259, 256, -1,
   259, 280, 272, -1,
   276, 283, 277, -1,
   283, 276, 278, -1,
   275, 282, 279, -1,
   282, 275, 274, -1,
   284, 285, 286, -1,
   285, 284, 287, -1,
   288, 287, 284, -1,
   287, 288, 289, -1,
   285, 290, 286, -1,
   290, 285, 291, -1,
   292, 289, 288, -1,
   289, 292, 293, -1,
   294, 295, 296, -1,
   295, 294, 297, -1,
   298, 299, 300, -1,
   299, 298, 301, -1,
   302, 303, 304, -1,
   303, 302, 305, -1,
   306, 300, 307, -1,
   300, 306, 298, -1,
   297, 308, 295, -1,
   308, 297, 309, -1,
   304, 310, 311, -1,
   310, 304, 303, -1,
   308, 293, 292, -1,
   293, 308, 309, -1,
   284, 292, 288, -1,
   286, 292, 284, -1,
   286, 308, 292, -1,
   290, 308, 286, -1,
   290, 295, 308, -1,
   312, 295, 290, -1,
   312, 296, 295, -1,
   307, 296, 312, -1,
   307, 313, 296, -1,
   300, 313, 307, -1,
   300, 314, 313, -1,
   299, 314, 300, -1,
   299, 305, 314, -1,
   315, 305, 299, -1,
   315, 303, 305, -1,
   303, 315, 310, -1,
   316, 313, 314, -1,
   313, 316, 317, -1,
   317, 296, 313, -1,
   296, 317, 294, -1,
   291, 312, 290, -1,
   312, 291, 318, -1,
   319, 299, 301, -1,
   299, 319, 315, -1,
   311, 315, 319, -1,
   315, 311, 310, -1,
   318, 307, 312, -1,
   307, 318, 306, -1,
   302, 314, 305, -1,
   314, 302, 316, -1,
   258, 289, 293, -1,
   256, 293, 309, -1,
   289, 258, 287, -1,
   260, 287, 258, -1,
   293, 256, 258, -1,
   280, 309, 297, -1,
   309, 280, 256, -1,
   281, 297, 294, -1,
   297, 281, 280, -1,
   294, 282, 281, -1,
   317, 282, 294, -1,
   316, 282, 317, -1,
   282, 316, 279, -1,
   302, 279, 316, -1,
   279, 302, 278, -1,
   304, 278, 302, -1,
   287, 260, 285, -1,
   262, 285, 260, -1,
   285, 262, 291, -1,
   264, 291, 262, -1,
   291, 264, 318, -1,
   266, 318, 264, -1,
   266, 306, 318, -1,
   298, 266, 269, -1,
   266, 298, 306, -1,
   301, 269, 271, -1,
   319, 271, 283, -1,
   278, 304, 283, -1,
   269, 301, 298, -1,
   311, 283, 304, -1,
   271, 319, 301, -1,
   283, 311, 319, -1,
   320, 321, 322, -1,
   321, 320, 323, -1,
   324, 325, 326, -1,
   325, 324, 327, -1,
   328, 329, 330, -1,
   329, 328, 331, -1,
   332, 331, 328, -1,
   331, 332, 333, -1,
   327, 334, 325, -1,
   334, 327, 335, -1,
   336, 337, 338, -1,
   337, 336, 339, -1,
   323, 337, 321, -1,
   337, 323, 338, -1,
   340, 339, 336, -1,
   339, 340, 341, -1,
   324, 342, 343, -1,
   342, 324, 326, -1,
   335, 344, 334, -1,
   344, 335, 345, -1,
   346, 333, 332, -1,
   333, 346, 347, -1,
   347, 331, 333, -1,
   345, 331, 347, -1,
   345, 329, 331, -1,
   335, 329, 345, -1,
   335, 320, 329, -1,
   327, 320, 335, -1,
   327, 323, 320, -1,
   324, 323, 327, -1,
   324, 338, 323, -1,
   343, 338, 324, -1,
   343, 336, 338, -1,
   336, 343, 340, -1,
   344, 347, 346, -1,
   347, 344, 345, -1,
   329, 322, 330, -1,
   322, 329, 320, -1,
   343, 341, 340, -1,
   341, 343, 342, -1,
   348, 349, 350, -1,
   349, 348, 351, -1,
   352, 351, 348, -1,
   351, 352, 353, -1,
   349, 354, 350, -1,
   354, 349, 355, -1,
   356, 357, 358, -1,
   357, 356, 359, -1,
   357, 360, 361, -1,
   360, 357, 359, -1,
   362, 363, 364, -1,
   363, 362, 365, -1,
   366, 367, 368, -1,
   367, 366, 369, -1,
   370, 368, 371, -1,
   368, 370, 366, -1,
   361, 353, 352, -1,
   353, 361, 360, -1,
   372, 373, 374, -1,
   373, 372, 375, -1,
   375, 364, 373, -1,
   364, 375, 362, -1,
   369, 358, 367, -1,
   358, 369, 356, -1,
   376, 377, 378, -1,
   377, 376, 379, -1,
   378, 380, 381, -1,
   380, 378, 377, -1,
   355, 374, 354, -1,
   374, 355, 372, -1,
   381, 363, 365, -1,
   363, 381, 380, -1,
   382, 371, 383, -1,
   371, 382, 370, -1,
   382, 379, 376, -1,
   379, 382, 383, -1,
   332, 353, 360, -1,
   346, 360, 359, -1,
   353, 332, 351, -1,
   328, 351, 332, -1,
   360, 346, 332, -1,
   344, 359, 356, -1,
   359, 344, 346, -1,
   334, 356, 369, -1,
   356, 334, 344, -1,
   369, 325, 334, -1,
   366, 325, 369, -1,
   370, 325, 366, -1,
   325, 370, 326, -1,
   382, 326, 370, -1,
   326, 382, 342, -1,
   376, 342, 382, -1,
   351, 328, 349, -1,
   330, 349, 328, -1,
   349, 330, 355, -1,
   322, 355, 330, -1,
   355, 322, 372, -1,
   321, 372, 322, -1,
   321, 375, 372, -1,
   362, 321, 337, -1,
   321, 362, 375, -1,
   365, 337, 339, -1,
   381, 339, 341, -1,
   342, 376, 341, -1,
   337, 365, 362, -1,
   378, 341, 376, -1,
   339, 381, 365, -1,
   341, 378, 381, -1,
   348, 361, 352, -1,
   350, 361, 348, -1,
   350, 357, 361, -1,
   354, 357, 350, -1,
   354, 358, 357, -1,
   374, 358, 354, -1,
   374, 367, 358, -1,
   373, 367, 374, -1,
   373, 368, 367, -1,
   364, 368, 373, -1,
   364, 371, 368, -1,
   363, 371, 364, -1,
   363, 383, 371, -1,
   380, 383, 363, -1,
   380, 379, 383, -1,
   379, 380, 377, -1,
   384, 385, 386, -1,
   387, 385, 384, -1,
   387, 388, 385, -1,
   389, 388, 387, -1,
   389, 390, 388, -1,
   391, 390, 389, -1,
   391, 392, 390, -1,
   393, 392, 391, -1,
   393, 394, 392, -1,
   395, 394, 393, -1,
   395, 396, 394, -1,
   396, 395, 397, -1,
   391, 398, 399, -1,
   398, 391, 389, -1,
   400, 388, 401, -1,
   388, 400, 385, -1,
   402, 385, 400, -1,
   385, 402, 386, -1,
   388, 403, 401, -1,
   403, 388, 390, -1,
   390, 404, 403, -1,
   404, 390, 392, -1,
   392, 405, 404, -1,
   405, 392, 394, -1,
   406, 386, 402, -1,
   386, 406, 384, -1,
   393, 407, 395, -1,
   407, 393, 408, -1,
   409, 384, 406, -1,
   384, 409, 387, -1,
   395, 410, 397, -1,
   410, 395, 407, -1,
   393, 399, 408, -1,
   399, 393, 391, -1,
   389, 409, 398, -1,
   409, 389, 387, -1,
   397, 411, 396, -1,
   411, 397, 410, -1,
   396, 405, 394, -1,
   405, 396, 411, -1,
   412, 413, 414, -1,
   413, 412, 415, -1,
   416, 417, 418, -1,
   417, 416, 419, -1,
   420, 419, 416, -1,
   419, 420, 421, -1,
   417, 422, 418, -1,
   422, 417, 423, -1,
   424, 425, 426, -1,
   425, 424, 427, -1,
   423, 428, 422, -1,
   428, 423, 429, -1,
   427, 430, 425, -1,
   430, 427, 431, -1,
   432, 433, 434, -1,
   433, 432, 435, -1,
   436, 437, 438, -1,
   437, 436, 439, -1,
   414, 421, 420, -1,
   421, 414, 413, -1,
   440, 435, 432, -1,
   435, 440, 441, -1,
   442, 443, 444, -1,
   443, 442, 445, -1,
   429, 444, 428, -1,
   444, 429, 442, -1,
   446, 426, 447, -1,
   426, 446, 424, -1,
   416, 414, 420, -1,
   418, 414, 416, -1,
   418, 412, 414, -1,
   422, 412, 418, -1,
   422, 430, 412, -1,
   428, 430, 422, -1,
   428, 425, 430, -1,
   444, 425, 428, -1,
   444, 426, 425, -1,
   443, 426, 444, -1,
   443, 447, 426, -1,
   433, 447, 443, -1,
   433, 439, 447, -1,
   435, 439, 433, -1,
   435, 437, 439, -1,
   437, 435, 441, -1,
   431, 412, 430, -1,
   412, 431, 415, -1,
   445, 433, 443, -1,
   433, 445, 434, -1,
   438, 441, 440, -1,
   441, 438, 437, -1,
   436, 447, 439, -1,
   447, 436, 446, -1,
   402, 421, 413, -1,
   406, 413, 415, -1,
   421, 402, 419, -1,
   400, 419, 402, -1,
   413, 406, 402, -1,
   409, 415, 431, -1,
   415, 409, 406, -1,
   398, 431, 427, -1,
   431, 398, 409, -1,
   427, 399, 398, -1,
   424, 399, 427, -1,
   446, 399, 424, -1,
   399, 446, 408, -1,
   436, 408, 446, -1,
   408, 436, 407, -1,
   438, 407, 436, -1,
   419, 400, 417, -1,
   401, 417, 400, -1,
   417, 401, 423, -1,
   403, 423, 401, -1,
   423, 403, 429, -1,
   404, 429, 403, -1,
   404, 442, 429, -1,
   445, 404, 405, -1,
   404, 445, 442, -1,
   434, 405, 411, -1,
   432, 411, 410, -1,
   407, 438, 410, -1,
   405, 434, 445, -1,
   440, 410, 438, -1,
   411, 432, 434, -1,
   410, 440, 432, -1,
   448, 449, 450, -1,
   449, 448, 451, -1,
   452, 451, 448, -1,
   451, 452, 453, -1,
   449, 454, 450, -1,
   454, 449, 455, -1,
   456, 457, 458, -1,
   457, 456, 459, -1,
   460, 451, 453, -1,
   459, 451, 460, -1,
   459, 449, 451, -1,
   456, 449, 459, -1,
   456, 455, 449, -1,
   461, 455, 456, -1,
   461, 462, 455, -1,
   463, 462, 461, -1,
   463, 464, 462, -1,
   465, 464, 463, -1,
   465, 466, 464, -1,
   466, 465, 467, -1,
   468, 453, 452, -1,
   453, 468, 460, -1,
   463, 469, 465, -1,
   469, 463, 470, -1,
   462, 471, 472, -1,
   471, 462, 464, -1,
   467, 473, 466, -1,
   473, 467, 474, -1,
   466, 471, 464, -1,
   471, 466, 473, -1,
   457, 460, 468, -1,
   460, 457, 459, -1,
   455, 472, 454, -1,
   472, 455, 462, -1,
   463, 475, 470, -1,
   475, 463, 461, -1,
   461, 458, 475, -1,
   458, 461, 456, -1,
   465, 474, 467, -1,
   474, 465, 469, -1,
   476, 477, 478, -1,
   477, 476, 479, -1,
   480, 479, 476, -1,
   479, 480, 481, -1,
   477, 482, 478, -1,
   482, 477, 483, -1,
   484, 485, 486, -1,
   485, 484, 487, -1,
   452, 481, 488, -1,
   468, 488, 489, -1,
   481, 452, 479, -1,
   448, 479, 452, -1,
   488, 468, 452, -1,
   457, 489, 487, -1,
   489, 457, 468, -1,
   458, 487, 484, -1,
   487, 458, 457, -1,
   484, 475, 458, -1,
   490, 475, 484, -1,
   491, 475, 490, -1,
   475, 491, 470, -1,
   492, 470, 491, -1,
   470, 492, 469, -1,
   493, 469, 492, -1,
   479, 448, 477, -1,
   450, 477, 448, -1,
   477, 450, 483, -1,
   454, 483, 450, -1,
   483, 454, 494, -1,
   472, 494, 454, -1,
   472, 495, 494, -1,
   496, 472, 471, -1,
   472, 496, 495, -1,
   497, 471, 473, -1,
   498, 473, 474, -1,
   469, 493, 474, -1,
   471, 497, 496, -1,
   499, 474, 493, -1,
   473, 498, 497, -1,
   474, 499, 498, -1,
   496, 500, 501, -1,
   500, 496, 497, -1,
   487, 502, 485, -1,
   502, 487, 489, -1,
   503, 481, 480, -1,
   481, 503, 488, -1,
   491, 504, 505, -1,
   504, 491, 490, -1,
   490, 486, 504, -1,
   486, 490, 484, -1,
   494, 506, 507, -1,
   506, 494, 495, -1,
   499, 508, 498, -1,
   508, 499, 509, -1,
   495, 501, 506, -1,
   501, 495, 496, -1,
   502, 488, 503, -1,
   488, 502, 489, -1,
   493, 509, 499, -1,
   509, 493, 510, -1,
   498, 500, 497, -1,
   500, 498, 508, -1,
   483, 507, 482, -1,
   507, 483, 494, -1,
   492, 510, 493, -1,
   510, 492, 511, -1,
   476, 503, 480, -1,
   478, 503, 476, -1,
   478, 502, 503, -1,
   482, 502, 478, -1,
   482, 485, 502, -1,
   507, 485, 482, -1,
   507, 486, 485, -1,
   506, 486, 507, -1,
   506, 504, 486, -1,
   501, 504, 506, -1,
   501, 505, 504, -1,
   500, 505, 501, -1,
   500, 511, 505, -1,
   508, 511, 500, -1,
   508, 510, 511, -1,
   510, 508, 509, -1,
   492, 505, 511, -1,
   505, 492, 491, -1,
   512, 513, 514, -1,
   513, 512, 515, -1,
   516, 515, 512, -1,
   515, 516, 517, -1,
   513, 518, 514, -1,
   518, 513, 519, -1,
   520, 517, 516, -1,
   517, 520, 521, -1,
   519, 522, 518, -1,
   522, 519, 523, -1,
   523, 524, 522, -1,
   524, 523, 525, -1,
   526, 527, 528, -1,
   527, 526, 529, -1,
   528, 530, 531, -1,
   530, 528, 527, -1,
   532, 521, 520, -1,
   521, 532, 533, -1,
   534, 532, 535, -1,
   532, 534, 533, -1,
   531, 536, 537, -1,
   536, 531, 530, -1,
   538, 535, 539, -1,
   535, 538, 534, -1,
   521, 515, 517, -1,
   533, 515, 521, -1,
   533, 513, 515, -1,
   534, 513, 533, -1,
   534, 519, 513, -1,
   538, 519, 534, -1,
   538, 523, 519, -1,
   526, 523, 538, -1,
   526, 525, 523, -1,
   528, 525, 526, -1,
   528, 537, 525, -1,
   537, 528, 531, -1,
   526, 539, 529, -1,
   539, 526, 538, -1,
   537, 524, 525, -1,
   524, 537, 536, -1,
   540, 541, 542, -1,
   541, 540, 543, -1,
   544, 543, 540, -1,
   543, 544, 545, -1,
   541, 546, 542, -1,
   546, 541, 547, -1,
   548, 545, 544, -1,
   545, 548, 549, -1,
   550, 551, 552, -1,
   551, 550, 553, -1,
   554, 555, 556, -1,
   555, 554, 557, -1,
   558, 559, 560, -1,
   559, 558, 561, -1,
   562, 556, 563, -1,
   556, 562, 554, -1,
   553, 564, 551, -1,
   564, 553, 565, -1,
   560, 566, 567, -1,
   566, 560, 559, -1,
   564, 549, 548, -1,
   549, 564, 565, -1,
   540, 548, 544, -1,
   542, 548, 540, -1,
   542, 564, 548, -1,
   546, 564, 542, -1,
   546, 551, 564, -1,
   568, 551, 546, -1,
   568, 552, 551, -1,
   563, 552, 568, -1,
   563, 569, 552, -1,
   556, 569, 563, -1,
   556, 570, 569, -1,
   555, 570, 556, -1,
   555, 561, 570, -1,
   571, 561, 555, -1,
   571, 559, 561, -1,
   559, 571, 566, -1,
   572, 569, 570, -1,
   569, 572, 573, -1,
   573, 552, 569, -1,
   552, 573, 550, -1,
   547, 568, 546, -1,
   568, 547, 574, -1,
   575, 555, 557, -1,
   555, 575, 571, -1,
   567, 571, 575, -1,
   571, 567, 566, -1,
   574, 563, 568, -1,
   563, 574, 562, -1,
   558, 570, 561, -1,
   570, 558, 572, -1,
   516, 545, 549, -1,
   520, 549, 565, -1,
   545, 516, 543, -1,
   512, 543, 516, -1,
   549, 520, 516, -1,
   532, 565, 553, -1,
   565, 532, 520, -1,
   535, 553, 550, -1,
   553, 535, 532, -1,
   550, 539, 535, -1,
   573, 539, 550, -1,
   572, 539, 573, -1,
   539, 572, 529, -1,
   558, 529, 572, -1,
   529, 558, 527, -1,
   560, 527, 558, -1,
   543, 512, 541, -1,
   514, 541, 512, -1,
   541, 514, 547, -1,
   518, 547, 514, -1,
   547, 518, 574, -1,
   522, 574, 518, -1,
   522, 562, 574, -1,
   554, 522, 524, -1,
   522, 554, 562, -1,
   557, 524, 536, -1,
   575, 536, 530, -1,
   527, 560, 530, -1,
   524, 557, 554, -1,
   567, 530, 560, -1,
   536, 575, 557, -1,
   530, 567, 575, -1,
   576, 577, 578, -1,
   577, 576, 579, -1,
   580, 581, 582, -1,
   581, 580, 583, -1,
   584, 576, 578, -1,
   576, 584, 585, -1,
   586, 585, 584, -1,
   585, 586, 587, -1,
   588, 589, 590, -1,
   589, 588, 591, -1,
   592, 587, 586, -1,
   587, 592, 593, -1,
   594, 595, 596, -1,
   595, 594, 597, -1,
   598, 583, 580, -1,
   583, 598, 599, -1,
   582, 600, 601, -1,
   600, 582, 581, -1,
   602, 596, 603, -1,
   596, 602, 594, -1,
   579, 590, 577, -1,
   590, 579, 588, -1,
   595, 593, 592, -1,
   593, 595, 597, -1,
   598, 603, 599, -1,
   603, 598, 602, -1,
   601, 589, 591, -1,
   589, 601, 600, -1,
   593, 585, 587, -1,
   597, 585, 593, -1,
   597, 576, 585, -1,
   594, 576, 597, -1,
   594, 579, 576, -1,
   602, 579, 594, -1,
   602, 588, 579, -1,
   598, 588, 602, -1,
   598, 591, 588, -1,
   580, 591, 598, -1,
   580, 601, 591, -1,
   601, 580, 582, -1,
   604, 605, 606, -1,
   605, 604, 607, -1,
   608, 607, 604, -1,
   607, 608, 609, -1,
   605, 610, 606, -1,
   610, 605, 611, -1,
   612, 613, 614, -1,
   613, 612, 615, -1,
   616, 617, 618, -1,
   617, 616, 619, -1,
   611, 620, 610, -1,
   620, 611, 621, -1,
   604, 622, 608, -1,
   606, 622, 604, -1,
   606, 623, 622, -1,
   610, 623, 606, -1,
   610, 617, 623, -1,
   620, 617, 610, -1,
   620, 618, 617, -1,
   624, 618, 620, -1,
   624, 625, 618, -1,
   626, 625, 624, -1,
   626, 627, 625, -1,
   628, 627, 626, -1,
   628, 629, 627, -1,
   630, 629, 628, -1,
   630, 615, 629, -1,
   615, 630, 613, -1,
   631, 628, 632, -1,
   628, 631, 630, -1,
   619, 623, 617, -1,
   623, 619, 633, -1,
   634, 628, 626, -1,
   628, 634, 632, -1,
   614, 630, 631, -1,
   630, 614, 613, -1,
   635, 618, 625, -1,
   618, 635, 616, -1,
   622, 609, 608, -1,
   609, 622, 636, -1,
   623, 636, 622, -1,
   636, 623, 633, -1,
   637, 627, 629, -1,
   627, 637, 638, -1,
   621, 624, 620, -1,
   624, 621, 639, -1,
   639, 626, 624, -1,
   626, 639, 634, -1,
   637, 615, 612, -1,
   615, 637, 629, -1,
   586, 609, 636, -1,
   592, 636, 633, -1,
   609, 586, 607, -1,
   584, 607, 586, -1,
   636, 592, 586, -1,
   595, 633, 619, -1,
   633, 595, 592, -1,
   596, 619, 616, -1,
   619, 596, 595, -1,
   616, 603, 596, -1,
   635, 603, 616, -1,
   638, 603, 635, -1,
   603, 638, 599, -1,
   637, 599, 638, -1,
   599, 637, 583, -1,
   612, 583, 637, -1,
   607, 584, 605, -1,
   578, 605, 584, -1,
   605, 578, 611, -1,
   577, 611, 578, -1,
   611, 577, 621, -1,
   590, 621, 577, -1,
   590, 639, 621, -1,
   634, 590, 589, -1,
   590, 634, 639, -1,
   632, 589, 600, -1,
   631, 600, 581, -1,
   583, 612, 581, -1,
   589, 632, 634, -1,
   614, 581, 612, -1,
   600, 631, 632, -1,
   581, 614, 631, -1,
   638, 625, 627, -1,
   625, 638, 635, -1,
   640, 641, 642, -1,
   641, 640, 643, -1,
   644, 645, 646, -1,
   645, 644, 647, -1,
   648, 647, 644, -1,
   647, 648, 649, -1,
   645, 650, 646, -1,
   650, 645, 651, -1,
   651, 652, 650, -1,
   652, 651, 653, -1,
   653, 654, 652, -1,
   654, 653, 655, -1,
   656, 649, 648, -1,
   649, 656, 657, -1,
   658, 659, 660, -1,
   659, 658, 661, -1,
   662, 657, 656, -1,
   657, 662, 663, -1,
   660, 664, 665, -1,
   664, 660, 659, -1,
   658, 642, 661, -1,
   642, 658, 640, -1,
   643, 662, 641, -1,
   662, 643, 663, -1,
   665, 666, 667, -1,
   666, 665, 664, -1,
   667, 654, 655, -1,
   654, 667, 666, -1,
   657, 647, 649, -1,
   663, 647, 657, -1,
   663, 645, 647, -1,
   643, 645, 663, -1,
   643, 651, 645, -1,
   640, 651, 643, -1,
   640, 653, 651, -1,
   658, 653, 640, -1,
   658, 655, 653, -1,
   660, 655, 658, -1,
   660, 667, 655, -1,
   667, 660, 665, -1,
   668, 669, 670, -1,
   669, 668, 671, -1,
   672, 673, 674, -1,
   673, 672, 675, -1,
   676, 675, 672, -1,
   675, 676, 677, -1,
   673, 678, 674, -1,
   678, 673, 679, -1,
   679, 680, 678, -1,
   680, 679, 681, -1,
   682, 677, 676, -1,
   677, 682, 683, -1,
   672, 682, 676, -1,
   674, 682, 672, -1,
   674, 669, 682, -1,
   678, 669, 674, -1,
   678, 670, 669, -1,
   680, 670, 678, -1,
   680, 684, 670, -1,
   685, 684, 680, -1,
   685, 686, 684, -1,
   687, 686, 685, -1,
   687, 688, 686, -1,
   689, 688, 687, -1,
   689, 690, 688, -1,
   691, 690, 689, -1,
   691, 692, 690, -1,
   692, 691, 693, -1,
   681, 685, 680, -1,
   685, 681, 694, -1,
   695, 684, 686, -1,
   684, 695, 696, -1,
   669, 683, 682, -1,
   683, 669, 671, -1,
   697, 693, 698, -1,
   693, 697, 692, -1,
   699, 689, 687, -1,
   689, 699, 700, -1,
   698, 691, 701, -1,
   691, 698, 693, -1,
   702, 692, 697, -1,
   692, 702, 690, -1,
   701, 689, 700, -1,
   689, 701, 691, -1,
   702, 688, 690, -1,
   688, 702, 703, -1,
   648, 677, 683, -1,
   656, 683, 671, -1,
   677, 648, 675, -1,
   644, 675, 648, -1,
   683, 656, 648, -1,
   662, 671, 668, -1,
   671, 662, 656, -1,
   641, 668, 696, -1,
   668, 641, 662, -1,
   696, 642, 641, -1,
   695, 642, 696, -1,
   703, 642, 695, -1,
   642, 703, 661, -1,
   702, 661, 703, -1,
   661, 702, 659, -1,
   697, 659, 702, -1,
   675, 644, 673, -1,
   646, 673, 644, -1,
   673, 646, 679, -1,
   650, 679, 646, -1,
   679, 650, 681, -1,
   652, 681, 650, -1,
   652, 694, 681, -1,
   699, 652, 654, -1,
   652, 699, 694, -1,
   700, 654, 666, -1,
   701, 666, 664, -1,
   659, 697, 664, -1,
   654, 700, 699, -1,
   698, 664, 697, -1,
   666, 701, 700, -1,
   664, 698, 701, -1,
   694, 687, 685, -1,
   687, 694, 699, -1,
   696, 670, 684, -1,
   670, 696, 668, -1,
   703, 686, 688, -1,
   686, 703, 695, -1,
   704, 705, 706, -1,
   705, 704, 707, -1,
   708, 707, 704, -1,
   707, 708, 709, -1,
   705, 710, 706, -1,
   710, 705, 711, -1,
   712, 713, 714, -1,
   713, 712, 715, -1,
   716, 707, 709, -1,
   715, 707, 716, -1,
   715, 705, 707, -1,
   712, 705, 715, -1,
   712, 711, 705, -1,
   717, 711, 712, -1,
   717, 718, 711, -1,
   719, 718, 717, -1,
   719, 720, 718, -1,
   721, 720, 719, -1,
   721, 722, 720, -1,
   722, 721, 723, -1,
   724, 709, 708, -1,
   709, 724, 716, -1,
   719, 725, 721, -1,
   725, 719, 726, -1,
   718, 727, 728, -1,
   727, 718, 720, -1,
   723, 729, 722, -1,
   729, 723, 730, -1,
   722, 727, 720, -1,
   727, 722, 729, -1,
   713, 716, 724, -1,
   716, 713, 715, -1,
   711, 728, 710, -1,
   728, 711, 718, -1,
   719, 731, 726, -1,
   731, 719, 717, -1,
   717, 714, 731, -1,
   714, 717, 712, -1,
   721, 730, 723, -1,
   730, 721, 725, -1,
   732, 733, 734, -1,
   733, 732, 735, -1,
   736, 735, 732, -1,
   735, 736, 737, -1,
   733, 738, 734, -1,
   738, 733, 739, -1,
   740, 741, 742, -1,
   741, 740, 743, -1,
   744, 745, 746, -1,
   745, 744, 747, -1,
   739, 748, 738, -1,
   748, 739, 749, -1,
   742, 750, 751, -1,
   750, 742, 741, -1,
   752, 753, 754, -1,
   753, 752, 755, -1,
   747, 756, 745, -1,
   756, 747, 757, -1,
   758, 759, 760, -1,
   759, 758, 761, -1,
   732, 762, 736, -1,
   734, 762, 732, -1,
   734, 756, 762, -1,
   738, 756, 734, -1,
   738, 745, 756, -1,
   748, 745, 738, -1,
   748, 746, 745, -1,
   754, 746, 748, -1,
   754, 759, 746, -1,
   753, 759, 754, -1,
   753, 760, 759, -1,
   750, 760, 753, -1,
   750, 763, 760, -1,
   741, 763, 750, -1,
   741, 764, 763, -1,
   764, 741, 743, -1,
   755, 750, 753, -1,
   750, 755, 751, -1,
   762, 737, 736, -1,
   737, 762, 765, -1,
   761, 746, 759, -1,
   746, 761, 744, -1,
   756, 765, 762, -1,
   765, 756, 757, -1,
   749, 754, 748, -1,
   754, 749, 752, -1,
   766, 760, 763, -1,
   760, 766, 758, -1,
   767, 743, 740, -1,
   743, 767, 764, -1,
   766, 764, 767, -1,
   764, 766, 763, -1,
   708, 737, 765, -1,
   724, 765, 757, -1,
   737, 708, 735, -1,
   704, 735, 708, -1,
   765, 724, 708, -1,
   713, 757, 747, -1,
   757, 713, 724, -1,
   714, 747, 744, -1,
   747, 714, 713, -1,
   744, 731, 714, -1,
   761, 731, 744, -1,
   758, 731, 761, -1,
   731, 758, 726, -1,
   766, 726, 758, -1,
   726, 766, 725, -1,
   767, 725, 766, -1,
   735, 704, 733, -1,
   706, 733, 704, -1,
   733, 706, 739, -1,
   710, 739, 706, -1,
   739, 710, 749, -1,
   728, 749, 710, -1,
   728, 752, 749, -1,
   755, 728, 727, -1,
   728, 755, 752, -1,
   751, 727, 729, -1,
   742, 729, 730, -1,
   725, 767, 730, -1,
   727, 751, 755, -1,
   740, 730, 767, -1,
   729, 742, 751, -1,
   730, 740, 742, -1
  ]
 }
}
