#VRML V2.0 utf8
# in17_wires: written by tools/build_models3d.py from 3d/populated/models/tube_pins.scad; layers sleeve #d1ad45, wire #c9cdd1, pip #e3e7ea
Shape {
 appearance Appearance { material Material {
  diffuseColor 0.7882 0.8039 0.8196
  specularColor 0.250 0.250 0.250
  ambientIntensity 0.4
  shininess 0.30
 } }
 geometry IndexedFaceSet {
  creaseAngle 0.5
  coord Coordinate { point [
   1.02976 0.54425 -0.94488,
   1.06913 0.51567 2.32937,
   1.02976 0.54425 2.32937,
   1.06913 0.51567 -0.94488,
   1.15717 0.63685 -0.94488,
   1.11780 0.66543 2.32937,
   1.15717 0.63685 2.32937,
   1.11780 0.66543 -0.94488,
   1.17220 0.59055 2.32937,
   1.17220 0.59055 -0.94488,
   1.06913 0.66543 2.32937,
   1.06913 0.66543 -0.94488,
   1.01472 0.59055 2.32937,
   1.01472 0.59055 -0.94488,
   1.02976 0.63685 2.32937,
   1.02976 0.63685 -0.94488,
   1.11780 0.51567 -0.94488,
   1.15717 0.54425 2.32937,
   1.11780 0.51567 2.32937,
   1.15717 0.54425 -0.94488,
   1.02976 1.52850 -0.94488,
   1.06913 1.49992 2.32937,
   1.02976 1.52850 2.32937,
   1.06913 1.49992 -0.94488,
   1.15717 1.62110 -0.94488,
   1.11780 1.64969 2.32937,
   1.15717 1.62110 2.32937,
   1.11780 1.64969 -0.94488,
   1.17220 1.57480 2.32937,
   1.17220 1.57480 -0.94488,
   1.06913 1.64969 2.32937,
   1.06913 1.64969 -0.94488,
   1.01472 1.57480 2.32937,
   1.01472 1.57480 -0.94488,
   1.11780 1.49992 -0.94488,
   1.15717 1.52850 2.32937,
   1.11780 1.49992 2.32937,
   1.15717 1.52850 -0.94488,
   1.02976 1.62110 2.32937,
   1.02976 1.62110 -0.94488,
   0.47366 2.31591 -0.94488,
   0.51303 2.28732 2.32937,
   0.47366 2.31591 2.32937,
   0.51303 2.28732 -0.94488,
   0.60106 2.40850 -0.94488,
   0.56169 2.43709 2.32937,
   0.60106 2.40850 2.32937,
   0.56169 2.43709 -0.94488,
   0.61610 2.36220 2.32937,
   0.61610 2.36220 -0.94488,
   0.51303 2.43709 2.32937,
   0.51303 2.43709 -0.94488,
   0.45862 2.36220 2.32937,
   0.45862 2.36220 -0.94488,
   0.56169 2.28732 -0.94488,
   0.60106 2.31591 2.32937,
   0.56169 2.28732 2.32937,
   0.60106 2.31591 -0.94488,
   0.47366 2.40850 2.32937,
   0.47366 2.40850 -0.94488,
   -0.60114 2.31591 -0.94488,
   -0.56177 2.28732 2.32937,
   -0.60114 2.31591 2.32937,
   -0.56177 2.28732 -0.94488,
   -0.47374 2.40850 -0.94488,
   -0.51311 2.43709 2.32937,
   -0.47374 2.40850 2.32937,
   -0.51311 2.43709 -0.94488,
   -0.45870 2.36220 2.32937,
   -0.45870 2.36220 -0.94488,
   -0.56177 2.43709 2.32937,
   -0.56177 2.43709 -0.94488,
   -0.61618 2.36220 2.32937,
   -0.61618 2.36220 -0.94488,
   -0.51311 2.28732 -0.94488,
   -0.47374 2.31591 2.32937,
   -0.51311 2.28732 2.32937,
   -0.47374 2.31591 -0.94488,
   -0.60114 2.40850 2.32937,
   -0.60114 2.40850 -0.94488,
   -1.15724 1.52850 -0.94488,
   -1.11787 1.49992 2.32937,
   -1.15724 1.52850 2.32937,
   -1.11787 1.49992 -0.94488,
   -1.02984 1.62110 -0.94488,
   -1.06921 1.64969 2.32937,
   -1.02984 1.62110 2.32937,
   -1.06921 1.64969 -0.94488,
   -1.01480 1.57480 2.32937,
   -1.01480 1.57480 -0.94488,
   -1.11787 1.64969 2.32937,
   -1.11787 1.64969 -0.94488,
   -1.17228 1.57480 2.32937,
   -1.17228 1.57480 -0.94488,
   -1.06921 1.49992 -0.94488,
   -1.02984 1.52850 2.32937,
   -1.06921 1.49992 2.32937,
   -1.02984 1.52850 -0.94488,
   -1.15724 1.62110 2.32937,
   -1.15724 1.62110 -0.94488,
   -1.18874 0.54425 -0.94488,
   -1.14937 0.51567 2.32937,
   -1.18874 0.54425 2.32937,
   -1.14937 0.51567 -0.94488,
   -1.06134 0.63685 -0.94488,
   -1.10071 0.66543 2.32937,
   -1.06134 0.63685 2.32937,
   -1.10071 0.66543 -0.94488,
   -1.04630 0.59055 2.32937,
   -1.04630 0.59055 -0.94488,
   -1.14937 0.66543 2.32937,
   -1.14937 0.66543 -0.94488,
   -1.20378 0.59055 2.32937,
   -1.20378 0.59055 -0.94488,
   -1.10071 0.51567 -0.94488,
   -1.06134 0.54425 2.32937,
   -1.10071 0.51567 2.32937,
   -1.06134 0.54425 -0.94488,
   -1.18874 0.63685 2.32937,
   -1.18874 0.63685 -0.94488,
   -1.17299 -0.49610 -0.94488,
   -1.18803 -0.44980 2.32937,
   -1.18803 -0.44980 -0.94488,
   -1.17299 -0.49610 2.32937,
   -1.04559 -0.40350 -0.94488,
   -1.08496 -0.37492 2.32937,
   -1.04559 -0.40350 2.32937,
   -1.08496 -0.37492 -0.94488,
   -1.03055 -0.44980 2.32937,
   -1.03055 -0.44980 -0.94488,
   -1.13362 -0.37492 2.32937,
   -1.13362 -0.37492 -0.94488,
   -1.04559 -0.49610 2.32937,
   -1.08496 -0.52469 2.32937,
   -1.13362 -0.52469 2.32937,
   -1.17299 -0.40350 2.32937,
   -1.13362 -0.52469 -0.94488,
   -1.04559 -0.49610 -0.94488,
   -1.17299 -0.40350 -0.94488,
   -1.08496 -0.52469 -0.94488,
   -1.15724 -1.49610 -0.94488,
   -1.17228 -1.44980 2.32937,
   -1.17228 -1.44980 -0.94488,
   -1.15724 -1.49610 2.32937,
   -1.02984 -1.40350 -0.94488,
   -1.06921 -1.37492 2.32937,
   -1.02984 -1.40350 2.32937,
   -1.06921 -1.37492 -0.94488,
   -1.01480 -1.44980 2.32937,
   -1.01480 -1.44980 -0.94488,
   -1.11787 -1.37492 2.32937,
   -1.11787 -1.37492 -0.94488,
   -1.06921 -1.52469 -0.94488,
   -1.02984 -1.49610 2.32937,
   -1.06921 -1.52469 2.32937,
   -1.02984 -1.49610 -0.94488,
   -1.11787 -1.52469 2.32937,
   -1.15724 -1.40350 2.32937,
   -1.11787 -1.52469 -0.94488,
   -1.15724 -1.40350 -0.94488,
   -0.60114 -2.28350 -0.94488,
   -0.61618 -2.23720 2.32937,
   -0.61618 -2.23720 -0.94488,
   -0.60114 -2.28350 2.32937,
   -0.47374 -2.19091 -0.94488,
   -0.51311 -2.16232 2.32937,
   -0.47374 -2.19091 2.32937,
   -0.51311 -2.16232 -0.94488,
   -0.45870 -2.23720 2.32937,
   -0.45870 -2.23720 -0.94488,
   -0.56177 -2.16232 2.32937,
   -0.56177 -2.16232 -0.94488,
   -0.51311 -2.31209 -0.94488,
   -0.47374 -2.28350 2.32937,
   -0.51311 -2.31209 2.32937,
   -0.47374 -2.28350 -0.94488,
   -0.56177 -2.31209 2.32937,
   -0.60114 -2.19091 2.32937,
   -0.56177 -2.31209 -0.94488,
   -0.60114 -2.19091 -0.94488,
   0.47366 -2.28350 -0.94488,
   0.45862 -2.23720 2.32937,
   0.45862 -2.23720 -0.94488,
   0.47366 -2.28350 2.32937,
   0.60106 -2.19091 -0.94488,
   0.56169 -2.16232 2.32937,
   0.60106 -2.19091 2.32937,
   0.56169 -2.16232 -0.94488,
   0.61610 -2.23720 2.32937,
   0.61610 -2.23720 -0.94488,
   0.51303 -2.16232 2.32937,
   0.51303 -2.16232 -0.94488,
   0.60106 -2.28350 2.32937,
   0.56169 -2.31209 2.32937,
   0.51303 -2.31209 2.32937,
   0.47366 -2.19091 2.32937,
   0.51303 -2.31209 -0.94488,
   0.60106 -2.28350 -0.94488,
   0.47366 -2.19091 -0.94488,
   0.56169 -2.31209 -0.94488,
   1.02976 -1.49610 -0.94488,
   1.01472 -1.44980 2.32937,
   1.01472 -1.44980 -0.94488,
   1.02976 -1.49610 2.32937,
   1.15717 -1.40350 -0.94488,
   1.11780 -1.37492 2.32937,
   1.15717 -1.40350 2.32937,
   1.11780 -1.37492 -0.94488,
   1.17220 -1.44980 2.32937,
   1.17220 -1.44980 -0.94488,
   1.06913 -1.37492 2.32937,
   1.06913 -1.37492 -0.94488,
   1.15717 -1.49610 2.32937,
   1.11780 -1.52469 2.32937,
   1.06913 -1.52469 2.32937,
   1.02976 -1.40350 2.32937,
   1.06913 -1.52469 -0.94488,
   1.15717 -1.49610 -0.94488,
   1.02976 -1.40350 -0.94488,
   1.11780 -1.52469 -0.94488
  ] }
  coordIndex [
   0, 1, 2, -1,
   1, 0, 3, -1,
   4, 5, 6, -1,
   5, 4, 7, -1,
   8, 4, 6, -1,
   4, 8, 9, -1,
   7, 10, 5, -1,
   10, 7, 11, -1,
   0, 12, 13, -1,
   12, 0, 2, -1,
   11, 14, 10, -1,
   14, 11, 15, -1,
   16, 17, 18, -1,
   17, 16, 19, -1,
   17, 9, 8, -1,
   9, 17, 19, -1,
   3, 18, 1, -1,
   18, 3, 16, -1,
   6, 17, 8, -1,
   5, 17, 6, -1,
   5, 18, 17, -1,
   10, 18, 5, -1,
   10, 1, 18, -1,
   14, 1, 10, -1,
   14, 2, 1, -1,
   2, 14, 12, -1,
   19, 4, 9, -1,
   16, 4, 19, -1,
   16, 7, 4, -1,
   3, 7, 16, -1,
   3, 11, 7, -1,
   0, 11, 3, -1,
   0, 15, 11, -1,
   15, 0, 13, -1,
   13, 14, 15, -1,
   14, 13, 12, -1,
   20, 21, 22, -1,
   21, 20, 23, -1,
   24, 25, 26, -1,
   25, 24, 27, -1,
   28, 24, 26, -1,
   24, 28, 29, -1,
   27, 30, 25, -1,
   30, 27, 31, -1,
   20, 32, 33, -1,
   32, 20, 22, -1,
   34, 35, 36, -1,
   35, 34, 37, -1,
   35, 29, 28, -1,
   29, 35, 37, -1,
   31, 38, 30, -1,
   38, 31, 39, -1,
   23, 36, 21, -1,
   36, 23, 34, -1,
   26, 35, 28, -1,
   25, 35, 26, -1,
   25, 36, 35, -1,
   30, 36, 25, -1,
   30, 21, 36, -1,
   38, 21, 30, -1,
   38, 22, 21, -1,
   22, 38, 32, -1,
   37, 24, 29, -1,
   34, 24, 37, -1,
   34, 27, 24, -1,
   23, 27, 34, -1,
   23, 31, 27, -1,
   20, 31, 23, -1,
   20, 39, 31, -1,
   39, 20, 33, -1,
   33, 38, 39, -1,
   38, 33, 32, -1,
   40, 41, 42, -1,
   41, 40, 43, -1,
   44, 45, 46, -1,
   45, 44, 47, -1,
   48, 44, 46, -1,
   44, 48, 49, -1,
   47, 50, 45, -1,
   50, 47, 51, -1,
   40, 52, 53, -1,
   52, 40, 42, -1,
   54, 55, 56, -1,
   55, 54, 57, -1,
   55, 49, 48, -1,
   49, 55, 57, -1,
   51, 58, 50, -1,
   58, 51, 59, -1,
   43, 56, 41, -1,
   56, 43, 54, -1,
   46, 55, 48, -1,
   45, 55, 46, -1,
   45, 56, 55, -1,
   50, 56, 45, -1,
   50, 41, 56, -1,
   58, 41, 50, -1,
   58, 42, 41, -1,
   42, 58, 52, -1,
   57, 44, 49, -1,
   54, 44, 57, -1,
   54, 47, 44, -1,
   43, 47, 54, -1,
   43, 51, 47, -1,
   40, 51, 43, -1,
   40, 59, 51, -1,
   59, 40, 53, -1,
   53, 58, 59, -1,
   58, 53, 52, -1,
   60, 61, 62, -1,
   61, 60, 63, -1,
   64, 65, 66, -1,
   65, 64, 67, -1,
   68, 64, 66, -1,
   64, 68, 69, -1,
   67, 70, 65, -1,
   70, 67, 71, -1,
   60, 72, 73, -1,
   72, 60, 62, -1,
   74, 75, 76, -1,
   75, 74, 77, -1,
   75, 69, 68, -1,
   69, 75, 77, -1,
   71, 78, 70, -1,
   78, 71, 79, -1,
   63, 76, 61, -1,
   76, 63, 74, -1,
   66, 75, 68, -1,
   65, 75, 66, -1,
   65, 76, 75, -1,
   70, 76, 65, -1,
   70, 61, 76, -1,
   78, 61, 70, -1,
   78, 62, 61, -1,
   62, 78, 72, -1,
   77, 64, 69, -1,
   74, 64, 77, -1,
   74, 67, 64, -1,
   63, 67, 74, -1,
   63, 71, 67, -1,
   60, 71, 63, -1,
   60, 79, 71, -1,
   79, 60, 73, -1,
   73, 78, 79, -1,
   78, 73, 72, -1,
   80, 81, 82, -1,
   81, 80, 83, -1,
   84, 85, 86, -1,
   85, 84, 87, -1,
   88, 84, 86, -1,
   84, 88, 89, -1,
   87, 90, 85, -1,
   90, 87, 91, -1,
   80, 92, 93, -1,
   92, 80, 82, -1,
   94, 95, 96, -1,
   95, 94, 97, -1,
   95, 89, 88, -1,
   89, 95, 97, -1,
   91, 98, 90, -1,
   98, 91, 99, -1,
   83, 96, 81, -1,
   96, 83, 94, -1,
   86, 95, 88, -1,
   85, 95, 86, -1,
   85, 96, 95, -1,
   90, 96, 85, -1,
   90, 81, 96, -1,
   98, 81, 90, -1,
   98, 82, 81, -1,
   82, 98, 92, -1,
   97, 84, 89, -1,
   94, 84, 97, -1,
   94, 87, 84, -1,
   83, 87, 94, -1,
   83, 91, 87, -1,
   80, 91, 83, -1,
   80, 99, 91, -1,
   99, 80, 93, -1,
   93, 98, 99, -1,
   98, 93, 92, -1,
   100, 101, 102, -1,
   101, 100, 103, -1,
   104, 105, 106, -1,
   105, 104, 107, -1,
   108, 104, 106, -1,
   104, 108, 109, -1,
   107, 110, 105, -1,
   110, 107, 111, -1,
   100, 112, 113, -1,
   112, 100, 102, -1,
   114, 115, 116, -1,
   115, 114, 117, -1,
   115, 109, 108, -1,
   109, 115, 117, -1,
   111, 118, 110, -1,
   118, 111, 119, -1,
   103, 116, 101, -1,
   116, 103, 114, -1,
   106, 115, 108, -1,
   105, 115, 106, -1,
   105, 116, 115, -1,
   110, 116, 105, -1,
   110, 101, 116, -1,
   118, 101, 110, -1,
   118, 102, 101, -1,
   102, 118, 112, -1,
   117, 104, 109, -1,
   114, 104, 117, -1,
   114, 107, 104, -1,
   103, 107, 114, -1,
   103, 111, 107, -1,
   100, 111, 103, -1,
   100, 119, 111, -1,
   119, 100, 113, -1,
   113, 118, 119, -1,
   118, 113, 112, -1,
   120, 121, 122, -1,
   121, 120, 123, -1,
   124, 125, 126, -1,
   125, 124, 127, -1,
   128, 124, 126, -1,
   124, 128, 129, -1,
   127, 130, 125, -1,
   130, 127, 131, -1,
   126, 132, 128, -1,
   125, 132, 126, -1,
   125, 133, 132, -1,
   130, 133, 125, -1,
   130, 134, 133, -1,
   135, 134, 130, -1,
   135, 123, 134, -1,
   123, 135, 121, -1,
   120, 134, 123, -1,
   134, 120, 136, -1,
   132, 129, 128, -1,
   129, 132, 137, -1,
   131, 135, 130, -1,
   135, 131, 138, -1,
   136, 133, 134, -1,
   133, 136, 139, -1,
   139, 132, 133, -1,
   132, 139, 137, -1,
   122, 135, 138, -1,
   135, 122, 121, -1,
   137, 124, 129, -1,
   139, 124, 137, -1,
   139, 127, 124, -1,
   136, 127, 139, -1,
   136, 131, 127, -1,
   120, 131, 136, -1,
   120, 138, 131, -1,
   138, 120, 122, -1,
   140, 141, 142, -1,
   141, 140, 143, -1,
   144, 145, 146, -1,
   145, 144, 147, -1,
   148, 144, 146, -1,
   144, 148, 149, -1,
   147, 150, 145, -1,
   150, 147, 151, -1,
   152, 153, 154, -1,
   153, 152, 155, -1,
   146, 153, 148, -1,
   145, 153, 146, -1,
   145, 154, 153, -1,
   150, 154, 145, -1,
   150, 156, 154, -1,
   157, 156, 150, -1,
   157, 143, 156, -1,
   143, 157, 141, -1,
   140, 156, 143, -1,
   156, 140, 158, -1,
   153, 149, 148, -1,
   149, 153, 155, -1,
   151, 157, 150, -1,
   157, 151, 159, -1,
   158, 154, 156, -1,
   154, 158, 152, -1,
   142, 157, 159, -1,
   157, 142, 141, -1,
   155, 144, 149, -1,
   152, 144, 155, -1,
   152, 147, 144, -1,
   158, 147, 152, -1,
   158, 151, 147, -1,
   140, 151, 158, -1,
   140, 159, 151, -1,
   159, 140, 142, -1,
   160, 161, 162, -1,
   161, 160, 163, -1,
   164, 165, 166, -1,
   165, 164, 167, -1,
   168, 164, 166, -1,
   164, 168, 169, -1,
   167, 170, 165, -1,
   170, 167, 171, -1,
   172, 173, 174, -1,
   173, 172, 175, -1,
   166, 173, 168, -1,
   165, 173, 166, -1,
   165, 174, 173, -1,
   170, 174, 165, -1,
   170, 176, 174, -1,
   177, 176, 170, -1,
   177, 163, 176, -1,
   163, 177, 161, -1,
   160, 176, 163, -1,
   176, 160, 178, -1,
   173, 169, 168, -1,
   169, 173, 175, -1,
   171, 177, 170, -1,
   177, 171, 179, -1,
   178, 174, 176, -1,
   174, 178, 172, -1,
   162, 177, 179, -1,
   177, 162, 161, -1,
   175, 164, 169, -1,
   172, 164, 175, -1,
   172, 167, 164, -1,
   178, 167, 172, -1,
   178, 171, 167, -1,
   160, 171, 178, -1,
   160, 179, 171, -1,
   179, 160, 162, -1,
   180, 181, 182, -1,
   181, 180, 183, -1,
   184, 185, 186, -1,
   185, 184, 187, -1,
   188, 184, 186, -1,
   184, 188, 189, -1,
   187, 190, 185, -1,
   190, 187, 191, -1,
   186, 192, 188, -1,
   185, 192, 186, -1,
   185, 193, 192, -1,
   190, 193, 185, -1,
   190, 194, 193, -1,
   195, 194, 190, -1,
   195, 183, 194, -1,
   183, 195, 181, -1,
   180, 194, 183, -1,
   194, 180, 196, -1,
   192, 189, 188, -1,
   189, 192, 197, -1,
   191, 195, 190, -1,
   195, 191, 198, -1,
   196, 193, 194, -1,
   193, 196, 199, -1,
   199, 192, 193, -1,
   192, 199, 197, -1,
   182, 195, 198, -1,
   195, 182, 181, -1,
   197, 184, 189, -1,
   199, 184, 197, -1,
   199, 187, 184, -1,
   196, 187, 199, -1,
   196, 191, 187, -1,
   180, 191, 196, -1,
   180, 198, 191, -1,
   198, 180, 182, -1,
   200, 201, 202, -1,
   201, 200, 203, -1,
   204, 205, 206, -1,
   205, 204, 207, -1,
   208, 204, 206, -1,
   204, 208, 209, -1,
   207, 210, 205, -1,
   210, 207, 211, -1,
   206, 212, 208, -1,
   205, 212, 206, -1,
   205, 213, 212, -1,
   210, 213, 205, -1,
   210, 214, 213, -1,
   215, 214, 210, -1,
   215, 203, 214, -1,
   203, 215, 201, -1,
   200, 214, 203, -1,
   214, 200, 216, -1,
   212, 209, 208, -1,
   209, 212, 217, -1,
   211, 215, 210, -1,
   215, 211, 218, -1,
   216, 213, 214, -1,
   213, 216, 219, -1,
   219, 212, 213, -1,
   212, 219, 217, -1,
   202, 215, 218, -1,
   215, 202, 201, -1,
   217, 204, 209, -1,
   219, 204, 217, -1,
   219, 207, 204, -1,
   216, 207, 219, -1,
   216, 211, 207, -1,
   200, 211, 216, -1,
   200, 218, 211, -1,
   218, 200, 202, -1
  ]
 }
}
