#VRML V2.0 utf8
# in17_pip: written by tools/build_models3d.py from 3d/populated/models/tube_pins.scad; layers sleeve #d1ad45, wire #c9cdd1, pip #e3e7ea
Shape {
 appearance Appearance { material Material {
  diffuseColor 0.8902 0.9059 0.9176
  specularColor 0.250 0.250 0.250
  ambientIntensity 0.4
  shininess 0.30
 } }
 geometry IndexedFaceSet {
  creaseAngle 0.5
  coord Coordinate { point [
   -0.43516 0.06299 4.38520,
   -0.42087 0.17154 4.38520,
   -0.56236 0.06299 4.25799,
   -0.48913 -0.21031 4.25799,
   -0.40224 -0.32350 4.25799,
   -0.37898 -0.14673 4.38520,
   0.51224 0.20445 4.25799,
   0.45764 0.33630 4.25799,
   0.38937 0.17154 4.38520,
   0.19398 0.42622 4.38520,
   0.17067 0.24941 4.47512,
   0.28083 0.35957 4.38520,
   0.30252 0.61425 3.57492,
   0.46724 0.54598 3.74866,
   0.43433 0.51307 3.57492,
   0.32874 -0.53366 4.08661,
   0.16256 -0.60252 4.08661,
   0.32874 -0.53366 4.08268,
   0.19398 -0.30024 3.29197,
   0.17067 -0.12343 3.20205,
   0.28083 -0.23358 3.29197,
   0.24791 0.06299 4.47512,
   0.40366 0.06299 4.38520,
   0.23894 0.13122 4.47512,
   0.64406 0.23980 3.74866,
   0.66732 0.06299 3.74866,
   0.59909 0.22776 3.57492,
   0.37075 0.44949 4.25799,
   0.32874 0.65965 4.08661,
   0.25756 0.53638 4.25799,
   0.53087 0.06299 3.41917,
   0.38937 0.17154 3.29197,
   0.51224 0.20445 3.41917,
   0.09280 0.46811 4.38520,
   -0.01575 0.60961 4.25799,
   -0.01575 0.48240 4.38520,
   0.23894 -0.00524 4.47512,
   0.07417 0.06299 4.52165,
   -0.68126 -0.11531 4.08661,
   -0.54374 -0.07846 4.25799,
   0.47142 0.55016 4.08268,
   0.58091 0.40748 4.08268,
   0.16256 -0.60252 4.08268,
   -0.63059 0.22776 3.57492,
   -0.69882 0.06299 3.74866,
   -0.67555 0.23980 3.74866,
   0.47142 0.55016 4.08661,
   -0.24409 -0.06882 4.47512,
   -0.09362 0.01803 4.52165,
   -0.27043 -0.00524 4.47512,
   0.14902 0.67783 3.57492,
   0.16106 0.72280 3.74866,
   0.53551 0.38126 3.57492,
   0.57583 0.40453 3.74866,
   -0.61240 -0.28150 4.08661,
   -0.01575 0.74606 3.74866,
   -0.18051 0.67783 3.57492,
   -0.19256 0.72280 3.74866,
   0.16106 -0.59681 3.74866,
   -0.01575 -0.62598 4.08661,
   -0.01575 -0.48362 4.25799,
   -0.19406 -0.60252 4.08661,
   0.04783 0.12657 4.52165,
   0.06213 0.10795 4.52165,
   0.05248 0.31768 4.47512,
   -0.01575 0.32665 4.47512,
   -0.01575 -0.02693 4.52165,
   0.05248 -0.19169 4.47512,
   0.00752 -0.02386 4.52165,
   -0.06071 0.14087 4.52165,
   -0.10260 0.08626 4.52165,
   -0.03902 0.14984 4.52165,
   0.21260 0.19480 4.47512,
   0.28083 0.35957 3.29197,
   0.19398 0.42622 3.29197,
   0.37075 0.44949 3.41917,
   0.25756 -0.41039 4.25799,
   0.19398 -0.30024 4.38520,
   0.09280 -0.34213 4.38520,
   -0.15720 -0.46500 4.25799,
   -0.28906 -0.41039 4.25799,
   -0.36024 -0.53366 4.08661,
   -0.31232 -0.23358 4.38520,
   -0.20217 -0.12343 4.47512,
   -0.18051 -0.55185 3.57492,
   -0.01575 -0.48362 3.41917,
   -0.01575 -0.57354 3.57492,
   0.34748 -0.14673 3.29197,
   -0.09362 0.10795 3.15551,
   -0.07933 0.12657 3.15551,
   -0.10260 0.08626 3.15551,
   0.67323 0.06299 4.08268,
   0.64976 -0.11531 4.08268,
   0.64406 -0.11382 3.74866,
   0.37075 -0.32350 4.25799,
   0.47142 -0.42417 4.08661,
   0.58091 -0.28150 4.08661,
   -0.70472 0.06299 4.08661,
   -0.70472 0.06299 4.08268,
   -0.56236 0.06299 3.41917,
   -0.54374 0.20445 3.41917,
   0.57583 -0.27854 3.74866,
   0.53551 -0.25528 3.57492,
   0.46724 -0.42004 3.74866,
   0.43433 -0.38709 3.57492,
   0.34748 -0.14673 4.38520,
   0.28083 -0.23358 4.38520,
   -0.68126 0.24130 4.08268,
   -0.61240 0.40748 4.08268,
   -0.42087 -0.04555 4.38520,
   0.34748 0.27272 4.38520,
   0.32579 0.65457 3.74866,
   0.25756 0.53638 3.41917,
   0.32874 0.65965 4.08268,
   0.16256 0.72850 4.08661,
   -0.14756 0.29134 4.47512,
   -0.20217 0.24941 4.47512,
   0.07110 0.03972 4.52165,
   0.06213 0.01803 4.52165,
   -0.42087 -0.04555 3.29197,
   -0.54374 -0.07846 3.41917,
   0.00752 0.14984 4.52165,
   0.02921 0.14087 4.52165,
   -0.19406 -0.60252 4.08268,
   -0.19256 -0.59681 3.74866,
   -0.01575 -0.62598 4.08268,
   -0.63059 -0.10177 3.57492,
   -0.33402 -0.48827 3.57492,
   -0.48913 -0.21031 3.41917,
   -0.37898 -0.14673 3.29197,
   0.45764 0.33630 3.41917,
   0.34748 0.27272 3.29197,
   0.30252 -0.48827 3.57492,
   0.32579 -0.52858 3.74866,
   0.47142 -0.42417 4.08268,
   -0.22547 0.42622 3.29197,
   -0.08398 0.31768 3.20205,
   -0.14756 0.29134 3.20205,
   -0.31232 0.35957 3.29197,
   -0.40224 0.44949 3.41917,
   -0.48913 0.33630 4.25799,
   -0.54374 0.20445 4.25799,
   -0.46583 0.51307 3.57492,
   -0.33402 0.61425 3.57492,
   0.37075 -0.32350 3.41917,
   0.45764 -0.21031 3.41917,
   0.05248 0.31768 3.20205,
   0.02921 0.14087 3.15551,
   0.00752 0.14984 3.15551,
   0.53087 0.06299 4.25799,
   0.64976 -0.11531 4.08661,
   0.67323 0.06299 4.08661,
   -0.40224 -0.32350 3.41917,
   -0.31232 -0.23358 3.29197,
   -0.22547 -0.30024 3.29197,
   0.51224 -0.07846 4.25799,
   0.64976 0.24130 4.08661,
   0.58091 0.40748 4.08661,
   0.17067 -0.12343 4.47512,
   0.07110 0.08626 4.52165,
   -0.49878 0.54598 3.74866,
   -0.50291 0.55016 4.08268,
   -0.14756 -0.16535 4.47512,
   -0.06071 -0.01488 4.52165,
   0.64976 0.24130 4.08268,
   -0.01575 0.69953 3.57492,
   -0.01575 0.48240 3.29197,
   -0.01575 0.60961 3.41917,
   0.09280 0.46811 3.29197,
   -0.01575 0.75197 4.08268,
   0.16256 0.72850 4.08268,
   0.12571 0.59098 4.25799,
   -0.22547 -0.30024 4.38520,
   -0.08398 -0.19169 4.47512,
   -0.50291 -0.42417 4.08661,
   -0.50291 -0.42417 4.08268,
   -0.01575 -0.62008 3.74866,
   -0.22547 0.42622 4.38520,
   -0.12429 0.46811 4.38520,
   -0.28906 0.53638 4.25799,
   -0.36024 -0.53366 4.08268,
   -0.10260 0.03972 4.52165,
   -0.10567 0.06299 4.52165,
   -0.12429 -0.34213 4.38520,
   -0.61240 -0.28150 4.08268,
   -0.42087 0.17154 3.29197,
   -0.60732 0.40453 3.74866,
   -0.40224 0.44949 4.25799,
   -0.31232 0.35957 4.38520,
   -0.49878 -0.42004 3.74866,
   -0.46583 -0.38709 3.57492,
   -0.35728 -0.52858 3.74866,
   -0.01575 -0.20067 4.47512,
   -0.01575 -0.35642 4.38520,
   -0.28906 -0.41039 3.41917,
   0.00752 -0.02386 3.15551,
   0.02921 -0.01488 3.15551,
   0.14902 -0.55185 3.57492,
   -0.08398 -0.19169 3.20205,
   -0.01575 -0.35642 3.29197,
   -0.12429 -0.34213 3.29197,
   -0.20217 0.24941 3.20205,
   -0.03902 0.14984 3.15551,
   -0.06071 0.14087 3.15551,
   0.04783 -0.00059 3.15551,
   -0.65228 0.06299 3.57492,
   -0.01575 0.15291 3.15551,
   -0.01575 0.32665 3.20205,
   0.51224 -0.07846 3.41917,
   0.59909 -0.10177 3.57492,
   0.40366 0.06299 3.29197,
   0.38937 -0.04555 3.29197,
   0.62079 0.06299 3.57492,
   0.58091 -0.28150 4.08268,
   0.38937 -0.04555 4.38520,
   0.12571 -0.46500 4.25799,
   -0.35728 0.65457 3.74866,
   -0.36024 0.65965 4.08268,
   0.11606 0.29134 4.47512,
   -0.19406 0.72850 4.08268,
   -0.15720 0.59098 4.25799,
   -0.19406 0.72850 4.08661,
   -0.36024 0.65965 4.08661,
   -0.01575 0.75197 4.08661,
   0.23894 -0.00524 3.20205,
   0.06213 0.01803 3.15551,
   0.07110 0.03972 3.15551,
   -0.28906 0.53638 3.41917,
   -0.12429 0.46811 3.29197,
   0.11606 -0.16535 4.47512,
   0.02921 -0.01488 4.52165,
   0.04783 -0.00059 4.52165,
   -0.68126 0.24130 4.08661,
   -0.37898 0.27272 4.38520,
   -0.68126 -0.11531 4.08268,
   -0.15720 0.59098 3.41917,
   -0.56701 0.38126 3.57492,
   -0.60732 -0.27854 3.74866,
   -0.56701 -0.25528 3.57492,
   -0.67555 -0.11382 3.74866,
   0.09280 -0.34213 3.29197,
   0.05248 -0.19169 3.20205,
   0.12571 -0.46500 3.41917,
   0.25756 -0.41039 3.41917,
   -0.48913 0.33630 3.41917,
   -0.37898 0.27272 3.29197,
   0.07417 0.06299 3.15551,
   0.07110 0.08626 3.15551,
   0.23894 0.13122 3.20205,
   -0.27043 0.13122 3.20205,
   -0.10567 0.06299 3.15551,
   -0.27941 0.06299 3.20205,
   0.17067 0.24941 3.20205,
   -0.20217 -0.12343 3.20205,
   -0.14756 -0.16535 3.20205,
   0.21260 -0.06882 4.47512,
   0.45764 -0.21031 4.25799,
   -0.09362 0.10795 4.52165,
   -0.07933 0.12657 4.52165,
   0.12571 0.59098 3.41917,
   0.21260 0.19480 3.20205,
   -0.43516 0.06299 3.29197,
   -0.03902 -0.02386 4.52165,
   -0.01575 0.15291 4.52165,
   -0.27043 0.13122 4.47512,
   -0.61240 0.40748 4.08661,
   -0.15720 -0.46500 3.41917,
   0.21260 -0.06882 3.20205,
   -0.27043 -0.00524 3.20205,
   -0.24409 -0.06882 3.20205,
   -0.09362 0.01803 3.15551,
   -0.07933 -0.00059 3.15551,
   -0.01575 -0.02693 3.15551,
   0.11606 0.29134 3.20205,
   0.06213 0.10795 3.15551,
   -0.06071 -0.01488 3.15551,
   -0.10260 0.03972 3.15551,
   -0.27941 0.06299 4.47512,
   -0.24409 0.19480 4.47512,
   -0.07933 -0.00059 4.52165,
   0.11606 -0.16535 3.20205,
   -0.01575 -0.20067 3.20205,
   0.04783 0.12657 3.15551,
   -0.24409 0.19480 3.20205,
   -0.50291 0.55016 4.08661,
   0.24791 0.06299 3.20205,
   -0.08398 0.31768 4.47512,
   -0.03902 -0.02386 3.15551
  ] }
  coordIndex [
   0, 1, 2, -1,
   3, 4, 5, -1,
   6, 7, 8, -1,
   9, 10, 11, -1,
   12, 13, 14, -1,
   15, 16, 17, -1,
   18, 19, 20, -1,
   21, 22, 23, -1,
   24, 25, 26, -1,
   27, 28, 29, -1,
   30, 31, 32, -1,
   33, 34, 35, -1,
   36, 21, 37, -1,
   23, 22, 8, -1,
   2, 38, 39, -1,
   40, 41, 13, -1,
   17, 16, 42, -1,
   43, 44, 45, -1,
   46, 41, 40, -1,
   47, 48, 49, -1,
   12, 50, 51, -1,
   24, 52, 53, -1,
   39, 38, 54, -1,
   55, 56, 57, -1,
   58, 17, 42, -1,
   59, 60, 61, -1,
   10, 62, 63, -1,
   64, 35, 65, -1,
   66, 67, 68, -1,
   69, 70, 71, -1,
   23, 72, 63, -1,
   73, 74, 75, -1,
   76, 77, 78, -1,
   79, 80, 81, -1,
   5, 82, 83, -1,
   84, 85, 86, -1,
   19, 87, 20, -1,
   88, 89, 90, -1,
   91, 92, 93, -1,
   94, 95, 96, -1,
   97, 98, 38, -1,
   99, 43, 100, -1,
   93, 101, 102, -1,
   103, 104, 102, -1,
   94, 105, 106, -1,
   107, 108, 45, -1,
   109, 5, 49, -1,
   10, 110, 11, -1,
   64, 33, 35, -1,
   51, 111, 12, -1,
   75, 112, 12, -1,
   28, 113, 114, -1,
   69, 115, 116, -1,
   83, 47, 5, -1,
   117, 70, 118, -1,
   109, 39, 3, -1,
   99, 119, 120, -1,
   121, 70, 122, -1,
   123, 124, 125, -1,
   126, 99, 120, -1,
   16, 125, 42, -1,
   84, 124, 127, -1,
   128, 119, 129, -1,
   130, 31, 131, -1,
   132, 133, 58, -1,
   103, 134, 17, -1,
   135, 136, 137, -1,
   135, 138, 139, -1,
   1, 140, 141, -1,
   139, 142, 143, -1,
   144, 145, 102, -1,
   146, 147, 148, -1,
   32, 31, 130, -1,
   149, 150, 151, -1,
   152, 153, 154, -1,
   144, 18, 20, -1,
   150, 155, 96, -1,
   6, 156, 157, -1,
   158, 77, 106, -1,
   15, 94, 76, -1,
   159, 23, 63, -1,
   37, 23, 159, -1,
   46, 27, 157, -1,
   11, 27, 9, -1,
   160, 108, 161, -1,
   162, 163, 83, -1,
   52, 13, 53, -1,
   24, 41, 164, -1,
   50, 165, 55, -1,
   166, 167, 168, -1,
   51, 169, 170, -1,
   28, 171, 29, -1,
   3, 5, 109, -1,
   162, 172, 173, -1,
   174, 175, 81, -1,
   176, 124, 84, -1,
   177, 178, 179, -1,
   180, 123, 81, -1,
   17, 134, 15, -1,
   181, 182, 49, -1,
   60, 183, 79, -1,
   54, 184, 174, -1,
   109, 0, 2, -1,
   49, 0, 109, -1,
   120, 119, 128, -1,
   185, 99, 100, -1,
   186, 108, 160, -1,
   187, 188, 177, -1,
   189, 190, 127, -1,
   174, 184, 175, -1,
   191, 180, 189, -1,
   127, 191, 189, -1,
   192, 193, 67, -1,
   3, 39, 54, -1,
   152, 194, 127, -1,
   195, 89, 196, -1,
   58, 176, 197, -1,
   59, 123, 125, -1,
   198, 199, 200, -1,
   30, 32, 26, -1,
   137, 201, 135, -1,
   136, 202, 203, -1,
   103, 133, 132, -1,
   197, 132, 58, -1,
   19, 196, 204, -1,
   152, 128, 129, -1,
   130, 75, 52, -1,
   168, 74, 146, -1,
   205, 43, 99, -1,
   206, 207, 146, -1,
   52, 75, 14, -1,
   131, 75, 130, -1,
   208, 209, 102, -1,
   210, 31, 30, -1,
   148, 89, 206, -1,
   145, 211, 208, -1,
   26, 212, 30, -1,
   151, 92, 91, -1,
   149, 6, 8, -1,
   149, 156, 6, -1,
   101, 213, 103, -1,
   214, 22, 36, -1,
   151, 156, 149, -1,
   93, 25, 91, -1,
   15, 95, 94, -1,
   76, 215, 15, -1,
   36, 22, 21, -1,
   37, 21, 23, -1,
   216, 217, 57, -1,
   218, 10, 9, -1,
   13, 113, 40, -1,
   111, 13, 12, -1,
   27, 110, 7, -1,
   40, 113, 46, -1,
   122, 64, 121, -1,
   11, 110, 27, -1,
   26, 52, 24, -1,
   13, 41, 53, -1,
   53, 41, 24, -1,
   14, 13, 52, -1,
   157, 7, 6, -1,
   41, 156, 164, -1,
   51, 113, 111, -1,
   217, 219, 57, -1,
   220, 221, 222, -1,
   114, 169, 223, -1,
   224, 225, 226, -1,
   166, 168, 146, -1,
   227, 228, 135, -1,
   227, 139, 143, -1,
   229, 230, 67, -1,
   158, 118, 231, -1,
   61, 60, 79, -1,
   180, 124, 123, -1,
   36, 105, 214, -1,
   149, 155, 150, -1,
   78, 215, 76, -1,
   229, 77, 158, -1,
   230, 70, 68, -1,
   158, 230, 229, -1,
   2, 39, 109, -1,
   232, 97, 2, -1,
   233, 187, 140, -1,
   218, 122, 10, -1,
   107, 98, 232, -1,
   38, 98, 234, -1,
   55, 169, 51, -1,
   2, 141, 232, -1,
   56, 235, 143, -1,
   135, 139, 227, -1,
   45, 186, 236, -1,
   57, 143, 216, -1,
   237, 238, 189, -1,
   152, 238, 128, -1,
   239, 238, 237, -1,
   127, 190, 152, -1,
   59, 125, 16, -1,
   125, 124, 176, -1,
   120, 238, 126, -1,
   239, 184, 234, -1,
   189, 184, 237, -1,
   237, 184, 239, -1,
   215, 60, 16, -1,
   81, 61, 79, -1,
   58, 125, 176, -1,
   42, 125, 58, -1,
   191, 124, 180, -1,
   127, 124, 191, -1,
   18, 240, 241, -1,
   242, 132, 197, -1,
   146, 207, 166, -1,
   74, 112, 75, -1,
   15, 134, 95, -1,
   102, 101, 103, -1,
   95, 134, 96, -1,
   93, 213, 101, -1,
   132, 243, 144, -1,
   132, 104, 103, -1,
   244, 245, 185, -1,
   139, 244, 236, -1,
   246, 247, 248, -1,
   208, 211, 30, -1,
   143, 235, 227, -1,
   166, 228, 167, -1,
   249, 250, 251, -1,
   201, 245, 138, -1,
   210, 248, 31, -1,
   252, 73, 131, -1,
   30, 209, 208, -1,
   26, 25, 212, -1,
   52, 32, 130, -1,
   26, 32, 52, -1,
   209, 25, 93, -1,
   212, 209, 30, -1,
   253, 254, 154, -1,
   176, 86, 197, -1,
   137, 203, 201, -1,
   136, 203, 137, -1,
   118, 255, 36, -1,
   106, 105, 158, -1,
   214, 155, 149, -1,
   105, 256, 214, -1,
   91, 25, 24, -1,
   164, 91, 24, -1,
   17, 133, 103, -1,
   58, 133, 17, -1,
   149, 22, 214, -1,
   8, 22, 149, -1,
   157, 27, 7, -1,
   7, 110, 8, -1,
   46, 113, 28, -1,
   46, 28, 27, -1,
   111, 113, 13, -1,
   9, 27, 29, -1,
   231, 70, 230, -1,
   257, 70, 258, -1,
   157, 41, 46, -1,
   157, 156, 41, -1,
   91, 156, 151, -1,
   164, 156, 91, -1,
   167, 259, 168, -1,
   14, 75, 12, -1,
   260, 252, 131, -1,
   249, 251, 261, -1,
   167, 235, 56, -1,
   57, 56, 143, -1,
   167, 165, 50, -1,
   51, 50, 55, -1,
   54, 4, 3, -1,
   5, 47, 49, -1,
   122, 62, 10, -1,
   67, 230, 68, -1,
   16, 60, 59, -1,
   15, 215, 16, -1,
   94, 77, 76, -1,
   106, 77, 94, -1,
   67, 193, 78, -1,
   192, 67, 66, -1,
   66, 70, 262, -1,
   116, 115, 177, -1,
   158, 255, 118, -1,
   64, 263, 121, -1,
   97, 38, 2, -1,
   232, 98, 97, -1,
   264, 1, 0, -1,
   118, 70, 231, -1,
   231, 230, 158, -1,
   262, 173, 66, -1,
   173, 163, 162, -1,
   222, 179, 220, -1,
   233, 140, 1, -1,
   236, 186, 160, -1,
   128, 238, 120, -1,
   175, 184, 189, -1,
   233, 188, 187, -1,
   2, 1, 141, -1,
   205, 44, 43, -1,
   45, 108, 186, -1,
   45, 98, 107, -1,
   141, 265, 232, -1,
   205, 99, 126, -1,
   126, 44, 205, -1,
   126, 238, 239, -1,
   249, 261, 185, -1,
   180, 175, 189, -1,
   81, 175, 180, -1,
   61, 123, 59, -1,
   81, 123, 61, -1,
   84, 86, 176, -1,
   127, 266, 84, -1,
   242, 243, 132, -1,
   243, 18, 144, -1,
   228, 136, 135, -1,
   166, 136, 228, -1,
   213, 92, 96, -1,
   93, 92, 213, -1,
   213, 134, 103, -1,
   96, 134, 213, -1,
   144, 104, 132, -1,
   102, 104, 144, -1,
   236, 142, 139, -1,
   236, 244, 100, -1,
   201, 138, 135, -1,
   138, 245, 139, -1,
   224, 211, 87, -1,
   224, 87, 267, -1,
   228, 235, 167, -1,
   227, 235, 228, -1,
   268, 269, 129, -1,
   206, 202, 136, -1,
   146, 148, 206, -1,
   90, 250, 249, -1,
   267, 87, 19, -1,
   102, 145, 208, -1,
   212, 25, 209, -1,
   102, 209, 93, -1,
   242, 85, 240, -1,
   270, 89, 271, -1,
   272, 195, 241, -1,
   74, 273, 146, -1,
   19, 225, 267, -1,
   87, 211, 145, -1,
   268, 270, 269, -1,
   247, 89, 274, -1,
   94, 256, 105, -1,
   96, 256, 94, -1,
   105, 255, 158, -1,
   36, 255, 105, -1,
   110, 72, 23, -1,
   8, 110, 23, -1,
   10, 72, 110, -1,
   63, 72, 10, -1,
   4, 172, 82, -1,
   193, 173, 183, -1,
   168, 112, 74, -1,
   131, 73, 75, -1,
   254, 275, 198, -1,
   268, 250, 276, -1,
   50, 259, 167, -1,
   12, 259, 50, -1,
   56, 165, 167, -1,
   55, 165, 56, -1,
   174, 4, 54, -1,
   81, 4, 174, -1,
   49, 182, 277, -1,
   277, 182, 264, -1,
   37, 70, 117, -1,
   65, 263, 64, -1,
   78, 60, 215, -1,
   68, 70, 66, -1,
   4, 82, 5, -1,
   183, 80, 79, -1,
   77, 67, 78, -1,
   229, 67, 77, -1,
   233, 278, 116, -1,
   181, 70, 182, -1,
   36, 117, 118, -1,
   37, 117, 36, -1,
   0, 277, 264, -1,
   49, 277, 0, -1,
   279, 48, 83, -1,
   71, 70, 263, -1,
   49, 48, 181, -1,
   83, 48, 47, -1,
   218, 64, 122, -1,
   9, 64, 218, -1,
   169, 221, 223, -1,
   170, 169, 114, -1,
   160, 217, 216, -1,
   160, 161, 217, -1,
   143, 160, 216, -1,
   265, 108, 232, -1,
   264, 233, 1, -1,
   264, 278, 233, -1,
   241, 196, 280, -1,
   129, 119, 268, -1,
   190, 238, 152, -1,
   189, 238, 190, -1,
   38, 184, 54, -1,
   234, 184, 38, -1,
   266, 200, 85, -1,
   127, 194, 266, -1,
   243, 240, 18, -1,
   242, 240, 243, -1,
   197, 85, 242, -1,
   86, 85, 197, -1,
   136, 207, 206, -1,
   166, 207, 136, -1,
   150, 92, 151, -1,
   96, 92, 150, -1,
   236, 43, 45, -1,
   100, 43, 236, -1,
   139, 245, 244, -1,
   100, 244, 185, -1,
   267, 225, 224, -1,
   246, 224, 226, -1,
   260, 248, 274, -1,
   31, 248, 131, -1,
   119, 261, 268, -1,
   90, 89, 250, -1,
   272, 281, 198, -1,
   195, 196, 241, -1,
   204, 225, 19, -1,
   252, 274, 282, -1,
   283, 88, 249, -1,
   282, 147, 252, -1,
   144, 87, 145, -1,
   20, 87, 144, -1,
   280, 196, 19, -1,
   276, 89, 270, -1,
   18, 280, 19, -1,
   241, 280, 18, -1,
   256, 155, 214, -1,
   96, 155, 256, -1,
   170, 113, 51, -1,
   114, 113, 170, -1,
   258, 70, 69, -1,
   262, 163, 173, -1,
   252, 74, 73, -1,
   225, 89, 226, -1,
   252, 273, 74, -1,
   252, 147, 273, -1,
   196, 89, 204, -1,
   272, 89, 195, -1,
   260, 274, 252, -1,
   131, 248, 260, -1,
   259, 112, 168, -1,
   12, 112, 259, -1,
   80, 172, 4, -1,
   81, 80, 4, -1,
   83, 163, 279, -1,
   116, 258, 69, -1,
   279, 70, 48, -1,
   262, 70, 163, -1,
   60, 193, 183, -1,
   78, 193, 60, -1,
   183, 172, 80, -1,
   173, 172, 183, -1,
   62, 70, 63, -1,
   159, 70, 37, -1,
   257, 258, 116, -1,
   63, 70, 159, -1,
   257, 278, 264, -1,
   116, 278, 257, -1,
   122, 70, 62, -1,
   263, 70, 121, -1,
   232, 108, 107, -1,
   223, 221, 34, -1,
   9, 33, 64, -1,
   29, 33, 9, -1,
   223, 34, 114, -1,
   222, 221, 217, -1,
   45, 44, 98, -1,
   234, 98, 239, -1,
   284, 187, 222, -1,
   141, 140, 265, -1,
   99, 261, 119, -1,
   185, 261, 99, -1,
   152, 154, 194, -1,
   129, 153, 152, -1,
   266, 85, 84, -1,
   281, 199, 198, -1,
   222, 161, 284, -1,
   217, 161, 222, -1,
   160, 142, 236, -1,
   143, 142, 160, -1,
   201, 283, 245, -1,
   185, 245, 249, -1,
   210, 285, 248, -1,
   224, 285, 210, -1,
   250, 89, 276, -1,
   129, 269, 253, -1,
   241, 281, 272, -1,
   198, 200, 154, -1,
   282, 89, 147, -1,
   274, 89, 282, -1,
   251, 250, 268, -1,
   261, 251, 268, -1,
   273, 147, 146, -1,
   201, 88, 283, -1,
   210, 211, 224, -1,
   30, 211, 210, -1,
   226, 89, 246, -1,
   204, 89, 225, -1,
   276, 270, 268, -1,
   246, 89, 247, -1,
   192, 173, 193, -1,
   66, 173, 192, -1,
   163, 70, 279, -1,
   48, 70, 181, -1,
   83, 172, 162, -1,
   82, 172, 83, -1,
   264, 70, 257, -1,
   182, 70, 264, -1,
   65, 286, 263, -1,
   35, 286, 65, -1,
   29, 171, 33, -1,
   114, 171, 28, -1,
   284, 108, 265, -1,
   161, 108, 284, -1,
   239, 44, 126, -1,
   98, 44, 239, -1,
   253, 153, 129, -1,
   154, 153, 253, -1,
   201, 89, 88, -1,
   245, 283, 249, -1,
   249, 88, 90, -1,
   248, 247, 274, -1,
   246, 285, 224, -1,
   248, 285, 246, -1,
   253, 275, 254, -1,
   154, 254, 198, -1,
   200, 199, 85, -1,
   241, 199, 281, -1,
   194, 200, 266, -1,
   154, 200, 194, -1,
   253, 270, 271, -1,
   269, 270, 253, -1,
   147, 89, 148, -1,
   198, 287, 272, -1,
   206, 89, 202, -1,
   203, 89, 201, -1,
   57, 169, 55, -1,
   219, 169, 57, -1,
   265, 187, 284, -1,
   140, 187, 265, -1,
   71, 286, 69, -1,
   263, 286, 71, -1,
   114, 34, 171, -1,
   171, 34, 33, -1,
   179, 178, 220, -1,
   34, 178, 35, -1,
   202, 89, 203, -1,
   271, 275, 253, -1,
   240, 199, 241, -1,
   85, 199, 240, -1,
   287, 89, 272, -1,
   198, 275, 287, -1,
   116, 188, 233, -1,
   177, 188, 116, -1,
   286, 115, 69, -1,
   177, 115, 286, -1,
   34, 221, 220, -1,
   220, 178, 34, -1,
   219, 221, 169, -1,
   217, 221, 219, -1,
   187, 179, 222, -1,
   177, 179, 187, -1,
   286, 178, 177, -1,
   35, 178, 286, -1,
   275, 89, 287, -1,
   271, 89, 275, -1
  ]
 }
}
