#VRML V2.0 utf8
# jst_b6b_sm4_back: written by tools/build_models3d.py from 3d/populated/models/smd_fascia.scad; layers body #1b1b1d, term #c9c9c9, housing #e6e1d3, tab #b8bcc0
Shape {
 appearance Appearance { material Material {
  diffuseColor 0.7882 0.7882 0.7882
  specularColor 0.250 0.250 0.250
  ambientIntensity 0.4
  shininess 0.30
 } }
 geometry IndexedFaceSet {
  creaseAngle 0.5
  coord Coordinate { point [
   -1.77165 -0.88583 0.07874,
   -1.77165 1.27953 0.00000,
   -1.77165 1.27953 0.07874,
   -1.77165 -0.88583 0.00000,
   -2.16535 1.27953 0.07874,
   -2.16535 -0.88583 0.07874,
   -2.16535 -0.88583 0.00000,
   -2.16535 1.27953 0.00000,
   -0.98425 -0.88583 0.07874,
   -0.98425 1.27953 0.00000,
   -0.98425 1.27953 0.07874,
   -0.98425 -0.88583 0.00000,
   -1.37795 1.27953 0.07874,
   -1.37795 -0.88583 0.07874,
   -1.37795 -0.88583 0.00000,
   -1.37795 1.27953 0.00000,
   -0.19685 -0.88583 0.07874,
   -0.19685 1.27953 0.00000,
   -0.19685 1.27953 0.07874,
   -0.19685 -0.88583 0.00000,
   -0.59055 1.27953 0.07874,
   -0.59055 -0.88583 0.07874,
   -0.59055 -0.88583 0.00000,
   -0.59055 1.27953 0.00000,
   0.59055 -0.88583 0.07874,
   0.59055 1.27953 0.00000,
   0.59055 1.27953 0.07874,
   0.59055 -0.88583 0.00000,
   0.19685 1.27953 0.07874,
   0.19685 -0.88583 0.07874,
   0.19685 -0.88583 0.00000,
   0.19685 1.27953 0.00000,
   1.37795 -0.88583 0.07874,
   1.37795 1.27953 0.00000,
   1.37795 1.27953 0.07874,
   1.37795 -0.88583 0.00000,
   0.98425 1.27953 0.07874,
   0.98425 -0.88583 0.07874,
   0.98425 -0.88583 0.00000,
   0.98425 1.27953 0.00000,
   2.16535 -0.88583 0.07874,
   2.16535 1.27953 0.00000,
   2.16535 1.27953 0.07874,
   2.16535 -0.88583 0.00000,
   1.77165 1.27953 0.07874,
   1.77165 -0.88583 0.07874,
   1.77165 -0.88583 0.00000,
   1.77165 1.27953 0.00000
  ] }
  coordIndex [
   0, 1, 2, -1,
   1, 0, 3, -1,
   4, 0, 2, -1,
   0, 4, 5, -1,
   6, 1, 3, -1,
   1, 6, 7, -1,
   6, 4, 7, -1,
   4, 6, 5, -1,
   1, 4, 2, -1,
   4, 1, 7, -1,
   6, 0, 5, -1,
   0, 6, 3, -1,
   8, 9, 10, -1,
   9, 8, 11, -1,
   12, 8, 10, -1,
   8, 12, 13, -1,
   14, 9, 11, -1,
   9, 14, 15, -1,
   14, 12, 15, -1,
   12, 14, 13, -1,
   9, 12, 10, -1,
   12, 9, 15, -1,
   14, 8, 13, -1,
   8, 14, 11, -1,
   16, 17, 18, -1,
   17, 16, 19, -1,
   20, 16, 18, -1,
   16, 20, 21, -1,
   22, 17, 19, -1,
   17, 22, 23, -1,
   22, 20, 23, -1,
   20, 22, 21, -1,
   17, 20, 18, -1,
   20, 17, 23, -1,
   22, 16, 21, -1,
   16, 22, 19, -1,
   24, 25, 26, -1,
   25, 24, 27, -1,
   28, 24, 26, -1,
   24, 28, 29, -1,
   30, 25, 27, -1,
   25, 30, 31, -1,
   30, 28, 31, -1,
   28, 30, 29, -1,
   25, 28, 26, -1,
   28, 25, 31, -1,
   30, 24, 29, -1,
   24, 30, 27, -1,
   32, 33, 34, -1,
   33, 32, 35, -1,
   36, 32, 34, -1,
   32, 36, 37, -1,
   38, 33, 35, -1,
   33, 38, 39, -1,
   38, 36, 39, -1,
   36, 38, 37, -1,
   33, 36, 34, -1,
   36, 33, 39, -1,
   38, 32, 37, -1,
   32, 38, 35, -1,
   40, 41, 42, -1,
   41, 40, 43, -1,
   44, 40, 42, -1,
   40, 44, 45, -1,
   46, 41, 43, -1,
   41, 46, 47, -1,
   46, 44, 47, -1,
   44, 46, 45, -1,
   41, 44, 42, -1,
   44, 41, 47, -1,
   46, 40, 45, -1,
   40, 46, 43, -1
  ]
 }
}
Shape {
 appearance Appearance { material Material {
  diffuseColor 0.9020 0.8824 0.8275
  specularColor 0.250 0.250 0.250
  ambientIntensity 0.4
  shininess 0.30
 } }
 geometry IndexedFaceSet {
  creaseAngle 0.5
  coord Coordinate { point [
   -2.73622 0.29528 2.36220,
   2.73622 -1.67323 2.36220,
   2.73622 0.29528 2.36220,
   -2.73622 -1.67323 2.36220,
   -2.73622 -1.67323 0.01969,
   2.73622 0.29528 0.01969,
   2.73622 -1.67323 0.01969,
   -2.73622 0.29528 0.01969
  ] }
  coordIndex [
   0, 1, 2, -1,
   1, 0, 3, -1,
   4, 5, 6, -1,
   5, 4, 7, -1,
   4, 1, 3, -1,
   1, 4, 6, -1,
   1, 5, 2, -1,
   5, 1, 6, -1,
   5, 0, 2, -1,
   0, 5, 7, -1,
   4, 0, 7, -1,
   0, 4, 3, -1
  ]
 }
}
Shape {
 appearance Appearance { material Material {
  diffuseColor 0.7216 0.7373 0.7529
  specularColor 0.250 0.250 0.250
  ambientIntensity 0.4
  shininess 0.30
 } }
 geometry IndexedFaceSet {
  creaseAngle 0.5
  coord Coordinate { point [
   -2.59843 -1.27953 0.09843,
   -2.59843 -0.09843 0.00000,
   -2.59843 -0.09843 0.09843,
   -2.59843 -1.27953 0.00000,
   -3.22835 -0.09843 0.09843,
   -3.22835 -1.27953 0.09843,
   -3.22835 -1.27953 0.00000,
   -3.22835 -0.09843 0.00000,
   3.22835 -1.27953 0.09843,
   3.22835 -0.09843 0.00000,
   3.22835 -0.09843 0.09843,
   3.22835 -1.27953 0.00000,
   2.59843 -0.09843 0.09843,
   2.59843 -1.27953 0.09843,
   2.59843 -1.27953 0.00000,
   2.59843 -0.09843 0.00000
  ] }
  coordIndex [
   0, 1, 2, -1,
   1, 0, 3, -1,
   4, 0, 2, -1,
   0, 4, 5, -1,
   6, 1, 3, -1,
   1, 6, 7, -1,
   6, 4, 7, -1,
   4, 6, 5, -1,
   1, 4, 2, -1,
   4, 1, 7, -1,
   6, 0, 5, -1,
   0, 6, 3, -1,
   8, 9, 10, -1,
   9, 8, 11, -1,
   12, 8, 10, -1,
   8, 12, 13, -1,
   14, 9, 11, -1,
   9, 14, 15, -1,
   14, 12, 15, -1,
   12, 14, 13, -1,
   9, 12, 10, -1,
   12, 9, 15, -1,
   14, 8, 13, -1,
   8, 14, 11, -1
  ]
 }
}
