#VRML V2.0 utf8
# l1_axial: written by tools/build_models3d.py from 3d/populated/models/axial_lying.scad; layers body #2b2d33, band #2b2d33, leads #c9c9c9
Shape {
 appearance Appearance { material Material {
  diffuseColor 0.1686 0.1765 0.2000
  specularColor 0.250 0.250 0.250
  ambientIntensity 0.4
  shininess 0.30
 } }
 geometry IndexedFaceSet {
  creaseAngle 0.5
  coord Coordinate { point [
   0.99213 0.00000 0.09843,
   10.00787 0.44165 0.14193,
   10.00787 0.00000 0.09843,
   0.99213 0.44165 0.14193,
   10.00787 0.86630 0.27075,
   0.99213 0.86630 0.27075,
   10.00787 1.25768 0.47992,
   0.99213 1.25768 0.47992,
   10.00787 1.60075 0.76146,
   0.99213 1.60075 0.76146,
   0.99213 1.88224 1.10453,
   10.00787 1.88224 1.10453,
   0.99213 2.09146 1.49591,
   10.00787 2.09146 1.49591,
   0.99213 2.22028 1.92055,
   10.00787 2.22028 1.92055,
   0.99213 2.26378 2.36220,
   10.00787 2.26378 2.36220,
   0.99213 2.22028 2.80386,
   10.00787 2.22028 2.80386,
   0.99213 2.09146 3.22850,
   10.00787 2.09146 3.22850,
   0.99213 1.88224 3.61988,
   10.00787 1.88224 3.61988,
   0.99213 1.60075 3.96295,
   10.00787 1.60075 3.96295,
   10.00787 1.25768 4.24449,
   0.99213 1.25768 4.24449,
   10.00787 0.86630 4.45366,
   0.99213 0.86630 4.45366,
   10.00787 0.44165 4.58248,
   0.99213 0.44165 4.58248,
   10.00787 0.00000 4.62598,
   0.99213 0.00000 4.62598,
   10.00787 -0.44165 4.58248,
   0.99213 -0.44165 4.58248,
   10.00787 -0.86630 4.45366,
   0.99213 -0.86630 4.45366,
   10.00787 -1.25768 4.24449,
   0.99213 -1.25768 4.24449,
   10.00787 -1.60075 3.96295,
   0.99213 -1.60075 3.96295,
   0.99213 -1.88224 3.61988,
   10.00787 -1.88224 3.61988,
   0.99213 -2.09146 3.22850,
   10.00787 -2.09146 3.22850,
   0.99213 -2.22028 2.80386,
   10.00787 -2.22028 2.80386,
   0.99213 -2.26378 2.36220,
   10.00787 -2.26378 2.36220,
   0.99213 -2.22028 1.92055,
   10.00787 -2.22028 1.92055,
   0.99213 -2.09146 1.49591,
   10.00787 -2.09146 1.49591,
   0.99213 -1.88224 1.10453,
   10.00787 -1.88224 1.10453,
   0.99213 -1.60075 0.76146,
   10.00787 -1.60075 0.76146,
   10.00787 -1.25768 0.47992,
   0.99213 -1.25768 0.47992,
   10.00787 -0.86630 0.27075,
   0.99213 -0.86630 0.27075,
   10.00787 -0.44165 0.14193,
   0.99213 -0.44165 0.14193
  ] }
  coordIndex [
   0, 1, 2, -1,
   1, 0, 3, -1,
   3, 4, 1, -1,
   4, 3, 5, -1,
   5, 6, 4, -1,
   6, 5, 7, -1,
   7, 8, 6, -1,
   8, 7, 9, -1,
   8, 10, 11, -1,
   10, 8, 9, -1,
   11, 12, 13, -1,
   12, 11, 10, -1,
   13, 14, 15, -1,
   14, 13, 12, -1,
   15, 16, 17, -1,
   16, 15, 14, -1,
   17, 18, 19, -1,
   18, 17, 16, -1,
   19, 20, 21, -1,
   20, 19, 18, -1,
   21, 22, 23, -1,
   22, 21, 20, -1,
   23, 24, 25, -1,
   24, 23, 22, -1,
   24, 26, 25, -1,
   26, 24, 27, -1,
   27, 28, 26, -1,
   28, 27, 29, -1,
   29, 30, 28, -1,
   30, 29, 31, -1,
   31, 32, 30, -1,
   32, 31, 33, -1,
   33, 34, 32, -1,
   34, 33, 35, -1,
   35, 36, 34, -1,
   36, 35, 37, -1,
   37, 38, 36, -1,
   38, 37, 39, -1,
   39, 40, 38, -1,
   40, 39, 41, -1,
   42, 40, 41, -1,
   40, 42, 43, -1,
   44, 43, 42, -1,
   43, 44, 45, -1,
   46, 45, 44, -1,
   45, 46, 47, -1,
   48, 47, 46, -1,
   47, 48, 49, -1,
   50, 49, 48, -1,
   49, 50, 51, -1,
   52, 51, 50, -1,
   51, 52, 53, -1,
   54, 53, 52, -1,
   53, 54, 55, -1,
   56, 55, 54, -1,
   55, 56, 57, -1,
   56, 58, 57, -1,
   58, 56, 59, -1,
   59, 60, 58, -1,
   60, 59, 61, -1,
   61, 62, 60, -1,
   62, 61, 63, -1,
   63, 2, 62, -1,
   2, 63, 0, -1,
   14, 18, 16, -1,
   12, 18, 14, -1,
   12, 20, 18, -1,
   10, 20, 12, -1,
   10, 22, 20, -1,
   9, 22, 10, -1,
   9, 24, 22, -1,
   7, 24, 9, -1,
   7, 27, 24, -1,
   5, 27, 7, -1,
   5, 29, 27, -1,
   3, 29, 5, -1,
   3, 31, 29, -1,
   0, 31, 3, -1,
   0, 33, 31, -1,
   63, 33, 0, -1,
   63, 35, 33, -1,
   61, 35, 63, -1,
   61, 37, 35, -1,
   59, 37, 61, -1,
   59, 39, 37, -1,
   56, 39, 59, -1,
   56, 41, 39, -1,
   54, 41, 56, -1,
   54, 42, 41, -1,
   52, 42, 54, -1,
   52, 44, 42, -1,
   50, 44, 52, -1,
   50, 46, 44, -1,
   46, 50, 48, -1,
   19, 15, 17, -1,
   21, 15, 19, -1,
   21, 13, 15, -1,
   23, 13, 21, -1,
   23, 11, 13, -1,
   25, 11, 23, -1,
   25, 8, 11, -1,
   26, 8, 25, -1,
   26, 6, 8, -1,
   28, 6, 26, -1,
   28, 4, 6, -1,
   30, 4, 28, -1,
   30, 1, 4, -1,
   32, 1, 30, -1,
   32, 2, 1, -1,
   34, 2, 32, -1,
   34, 62, 2, -1,
   36, 62, 34, -1,
   36, 60, 62, -1,
   38, 60, 36, -1,
   38, 58, 60, -1,
   40, 58, 38, -1,
   40, 57, 58, -1,
   43, 57, 40, -1,
   43, 55, 57, -1,
   45, 55, 43, -1,
   45, 53, 55, -1,
   47, 53, 45, -1,
   47, 51, 53, -1,
   51, 47, 49, -1
  ]
 }
}
Shape {
 appearance Appearance { material Material {
  diffuseColor 0.7882 0.7882 0.7882
  specularColor 0.250 0.250 0.250
  ambientIntensity 0.4
  shininess 0.30
 } }
 geometry IndexedFaceSet {
  creaseAngle 0.5
  coord Coordinate { point [
   -0.13638 -0.07874 -0.98425,
   -0.15748 0.00000 2.36220,
   -0.15748 0.00000 -0.98425,
   -0.13638 -0.07874 2.36220,
   0.08417 0.13094 2.27472,
   0.07874 0.13638 -0.98425,
   0.07874 0.13638 2.28488,
   0.10378 0.11134 2.25087,
   0.12764 0.08748 2.23126,
   0.13638 0.07874 2.22657,
   0.13638 0.07874 -0.98425,
   0.14134 0.06028 2.21669,
   0.14925 0.03071 2.20776,
   0.15748 0.00000 2.20472,
   0.15748 0.00000 -0.98425,
   0.00000 0.15748 -0.98425,
   0.04472 0.14551 2.30193,
   0.01130 0.15445 2.33150,
   0.00000 0.15748 2.36220,
   0.00000 -0.15748 -0.98425,
   0.01130 -0.15445 2.33150,
   0.00000 -0.15748 2.36220,
   0.04472 -0.14551 2.30193,
   0.07874 -0.13638 2.28488,
   0.07874 -0.13638 -0.98425,
   0.13638 -0.07874 -0.98425,
   0.14925 -0.03071 2.20776,
   0.14134 -0.06028 2.21669,
   0.13638 -0.07874 2.22657,
   -0.13638 0.07874 -0.98425,
   -0.07874 0.13638 2.36220,
   -0.07874 0.13638 -0.98425,
   -0.13638 0.07874 2.36220,
   0.12764 -0.08748 2.23126,
   0.10378 -0.11134 2.25087,
   0.08417 -0.13094 2.27472,
   -0.07606 0.13173 2.36220,
   0.00000 0.15213 2.36220,
   -0.13173 0.07606 2.36220,
   -0.15213 0.00000 2.36220,
   -0.07606 -0.13173 2.36220,
   0.00000 -0.15213 2.36220,
   -0.07874 -0.13638 2.36220,
   -0.13173 -0.07606 2.36220,
   -0.07874 -0.13638 -0.98425,
   10.86362 -0.07874 -0.98425,
   10.84252 0.00000 2.20472,
   10.84252 0.00000 -0.98425,
   10.85075 -0.03071 2.20776,
   10.85866 -0.06028 2.21669,
   10.86362 -0.07874 2.22657,
   11.13638 0.07874 2.36220,
   11.07874 0.13638 -0.98425,
   11.07874 0.13638 2.36220,
   11.13638 0.07874 -0.98425,
   11.15748 0.00000 2.36220,
   11.15748 0.00000 -0.98425,
   11.00000 0.15748 2.36220,
   11.00000 0.15748 -0.98425,
   11.00000 -0.15748 -0.98425,
   11.07874 -0.13638 2.36220,
   11.00000 -0.15748 2.36220,
   11.07874 -0.13638 -0.98425,
   11.13638 -0.07874 2.36220,
   11.13638 -0.07874 -0.98425,
   10.92126 0.13638 -0.98425,
   10.91583 0.13094 2.27472,
   10.92126 0.13638 2.28488,
   10.89622 0.11134 2.25087,
   10.87236 0.08748 2.23126,
   10.86362 0.07874 2.22657,
   10.86362 0.07874 -0.98425,
   10.98870 0.15445 2.33150,
   10.95528 0.14551 2.30193,
   10.85866 0.06028 2.21669,
   10.85075 0.03071 2.20776,
   11.15213 0.00000 2.36220,
   11.13173 0.07606 2.36220,
   11.07606 0.13173 2.36220,
   11.00000 0.15213 2.36220,
   11.13173 -0.07606 2.36220,
   11.07606 -0.13173 2.36220,
   11.00000 -0.15213 2.36220,
   10.92126 -0.13638 -0.98425,
   10.87236 -0.08748 2.23126,
   10.89622 -0.11134 2.25087,
   10.91583 -0.13094 2.27472,
   10.92126 -0.13638 2.28488,
   10.95528 -0.14551 2.30193,
   10.98870 -0.15445 2.33150,
   -0.09642 0.05567 2.47354,
   -0.13173 0.07606 2.40295,
   -0.11134 0.00000 2.47354,
   -0.13173 -0.07606 2.40295,
   -0.05567 -0.09642 2.47354,
   -0.09642 -0.05567 2.47354,
   -0.07606 -0.13173 2.40295,
   0.00264 0.15142 2.40295,
   0.00000 0.15213 2.40063,
   0.00000 0.15213 2.40295,
   -0.03531 0.02039 2.51433,
   -0.04075 0.00000 2.51433,
   0.00000 -0.11134 2.47354,
   0.00000 -0.15063 2.40555,
   0.00000 -0.15213 2.40295,
   0.00264 -0.15142 2.40295,
   0.00000 0.11134 2.47354,
   -0.07606 0.13173 2.40295,
   -0.05567 0.09642 2.47354,
   0.00165 0.04240 2.51311,
   0.00000 0.04075 2.51433,
   0.00866 0.03843 2.51433,
   0.00866 -0.03843 2.51433,
   0.00000 -0.04075 2.51433,
   0.00165 -0.04240 2.51311,
   -0.15213 0.00000 2.40295,
   0.00000 -0.15213 2.40063,
   0.00000 0.04335 2.51283,
   0.00000 0.15063 2.40555,
   -0.02039 -0.03531 2.51433,
   0.00000 -0.04335 2.51283,
   -0.03531 -0.02039 2.51433,
   -0.02039 0.03531 2.51433,
   0.00000 0.03843 2.51433,
   0.00000 -0.03843 2.51433,
   11.05567 0.09642 2.47354,
   11.03531 0.02039 2.51433,
   11.09642 0.05567 2.47354,
   11.07606 -0.13173 2.40295,
   11.00000 -0.15063 2.40555,
   11.00000 -0.15213 2.40295,
   11.00000 -0.11134 2.47354,
   11.15213 0.00000 2.40295,
   11.11134 0.00000 2.47354,
   11.13173 0.07606 2.40295,
   11.07606 0.13173 2.40295,
   11.00000 0.11134 2.47354,
   11.04075 0.00000 2.51433,
   11.00000 0.15213 2.40063,
   10.99736 0.15142 2.40295,
   11.00000 0.15213 2.40295,
   11.00000 -0.15213 2.40063,
   10.99736 -0.15142 2.40295,
   11.00000 0.15063 2.40555,
   11.09642 -0.05567 2.47354,
   11.03531 -0.02039 2.51433,
   11.05567 -0.09642 2.47354,
   11.00000 0.04075 2.51433,
   11.02039 0.03531 2.51433,
   11.00000 0.04335 2.51283,
   11.02039 -0.03531 2.51433,
   11.00000 -0.04075 2.51433,
   11.13173 -0.07606 2.40295,
   10.99835 -0.04240 2.51311,
   11.00000 -0.04335 2.51283,
   10.99134 -0.03843 2.51433,
   10.99835 0.04240 2.51311,
   10.99134 0.03843 2.51433,
   11.00000 0.03843 2.51433,
   11.00000 -0.03843 2.51433,
   1.03150 -0.03071 2.51665,
   1.03150 -0.06028 2.50772,
   0.00000 -0.03071 2.51665,
   0.00000 -0.06028 2.50772,
   1.03150 0.08748 2.23126,
   1.03150 0.06028 2.21669,
   1.03150 0.15748 2.36220,
   0.00000 0.15445 2.39291,
   1.03150 0.15445 2.39291,
   1.03150 -0.03071 2.20776,
   1.03150 0.00000 2.20472,
   1.03150 0.15445 2.33150,
   1.03150 0.14551 2.30193,
   1.03150 0.14551 2.42248,
   1.03150 0.13094 2.44969,
   1.03150 0.13094 2.27472,
   1.03150 0.11134 2.47354,
   1.03150 0.11134 2.25087,
   1.03150 0.08748 2.49315,
   1.03150 0.06028 2.50772,
   1.03150 0.03071 2.51665,
   1.03150 0.03071 2.20776,
   1.03150 0.00000 2.51969,
   1.03150 -0.06028 2.21669,
   1.03150 -0.08748 2.49315,
   1.03150 -0.08748 2.23126,
   1.03150 -0.11134 2.47354,
   1.03150 -0.11134 2.25087,
   1.03150 -0.13094 2.44969,
   1.03150 -0.13094 2.27472,
   1.03150 -0.14551 2.42248,
   1.03150 -0.14551 2.30193,
   1.03150 -0.15445 2.39291,
   1.03150 -0.15445 2.33150,
   1.03150 -0.15748 2.36220,
   0.00000 -0.14551 2.42248,
   0.00000 -0.13094 2.44969,
   0.00000 -0.08748 2.49315,
   0.00000 0.13094 2.44969,
   0.00000 0.14551 2.42248,
   0.00000 -0.15445 2.39291,
   0.00000 0.06028 2.50772,
   0.00000 0.03071 2.51665,
   0.00000 0.08748 2.49315,
   0.00000 0.00000 2.51969,
   11.00000 -0.03071 2.51665,
   9.96850 -0.03071 2.51665,
   11.00000 -0.06028 2.50772,
   9.96850 -0.06028 2.50772,
   9.96850 0.08748 2.23126,
   9.96850 0.06028 2.21669,
   9.96850 0.15445 2.39291,
   11.00000 0.15445 2.39291,
   9.96850 0.15748 2.36220,
   9.96850 -0.03071 2.20776,
   9.96850 0.00000 2.20472,
   9.96850 0.15445 2.33150,
   9.96850 0.14551 2.30193,
   11.00000 -0.08748 2.49315,
   11.00000 -0.13094 2.44969,
   11.00000 -0.14551 2.42248,
   11.00000 0.08748 2.49315,
   11.00000 0.06028 2.50772,
   11.00000 0.13094 2.44969,
   11.00000 0.14551 2.42248,
   11.00000 -0.15445 2.39291,
   11.00000 0.00000 2.51969,
   11.00000 0.03071 2.51665,
   9.96850 0.03071 2.20776,
   9.96850 -0.13094 2.27472,
   9.96850 -0.11134 2.25087,
   9.96850 0.11134 2.25087,
   9.96850 -0.14551 2.42248,
   9.96850 -0.13094 2.44969,
   9.96850 -0.06028 2.21669,
   9.96850 -0.08748 2.49315,
   9.96850 -0.11134 2.47354,
   9.96850 0.11134 2.47354,
   9.96850 0.13094 2.44969,
   9.96850 0.14551 2.42248,
   9.96850 -0.15445 2.39291,
   9.96850 -0.08748 2.23126,
   9.96850 -0.15445 2.33150,
   9.96850 -0.14551 2.30193,
   9.96850 0.06028 2.50772,
   9.96850 0.03071 2.51665,
   9.96850 0.08748 2.49315,
   9.96850 0.13094 2.27472,
   9.96850 0.00000 2.51969,
   9.96850 -0.15748 2.36220
  ] }
  coordIndex [
   0, 1, 2, -1,
   1, 0, 3, -1,
   4, 5, 6, -1,
   7, 5, 4, -1,
   8, 5, 7, -1,
   9, 5, 8, -1,
   5, 9, 10, -1,
   11, 10, 9, -1,
   12, 10, 11, -1,
   13, 10, 12, -1,
   10, 13, 14, -1,
   15, 6, 5, -1,
   6, 15, 16, -1,
   16, 15, 17, -1,
   17, 15, 18, -1,
   19, 20, 21, -1,
   19, 22, 20, -1,
   19, 23, 22, -1,
   23, 19, 24, -1,
   25, 13, 26, -1,
   25, 26, 27, -1,
   25, 27, 28, -1,
   13, 25, 14, -1,
   29, 30, 31, -1,
   30, 29, 32, -1,
   15, 30, 18, -1,
   30, 15, 31, -1,
   2, 32, 29, -1,
   32, 2, 1, -1,
   24, 28, 33, -1,
   24, 33, 34, -1,
   24, 34, 35, -1,
   24, 35, 23, -1,
   28, 24, 25, -1,
   18, 36, 37, -1,
   30, 36, 18, -1,
   30, 38, 36, -1,
   32, 38, 30, -1,
   32, 39, 38, -1,
   39, 32, 1, -1,
   40, 21, 41, -1,
   40, 42, 21, -1,
   43, 42, 40, -1,
   43, 3, 42, -1,
   39, 3, 43, -1,
   3, 39, 1, -1,
   44, 3, 0, -1,
   3, 44, 42, -1,
   25, 10, 14, -1,
   24, 10, 25, -1,
   24, 5, 10, -1,
   19, 5, 24, -1,
   19, 15, 5, -1,
   44, 15, 19, -1,
   44, 31, 15, -1,
   0, 31, 44, -1,
   0, 29, 31, -1,
   29, 0, 2, -1,
   44, 21, 42, -1,
   21, 44, 19, -1,
   45, 46, 47, -1,
   46, 45, 48, -1,
   48, 45, 49, -1,
   49, 45, 50, -1,
   51, 52, 53, -1,
   52, 51, 54, -1,
   55, 54, 51, -1,
   54, 55, 56, -1,
   52, 57, 53, -1,
   57, 52, 58, -1,
   59, 60, 61, -1,
   60, 59, 62, -1,
   63, 56, 55, -1,
   56, 63, 64, -1,
   65, 66, 67, -1,
   65, 68, 66, -1,
   65, 69, 68, -1,
   70, 65, 71, -1,
   65, 70, 69, -1,
   58, 72, 57, -1,
   58, 73, 72, -1,
   58, 67, 73, -1,
   67, 58, 65, -1,
   71, 74, 70, -1,
   71, 75, 74, -1,
   46, 71, 47, -1,
   71, 46, 75, -1,
   60, 64, 63, -1,
   64, 60, 62, -1,
   51, 76, 55, -1,
   51, 77, 76, -1,
   53, 77, 51, -1,
   53, 78, 77, -1,
   57, 78, 53, -1,
   78, 57, 79, -1,
   76, 63, 55, -1,
   80, 63, 76, -1,
   80, 60, 63, -1,
   81, 60, 80, -1,
   82, 60, 81, -1,
   60, 82, 61, -1,
   64, 54, 56, -1,
   62, 54, 64, -1,
   62, 52, 54, -1,
   59, 52, 62, -1,
   59, 58, 52, -1,
   83, 58, 59, -1,
   83, 65, 58, -1,
   45, 65, 83, -1,
   45, 71, 65, -1,
   71, 45, 47, -1,
   83, 50, 45, -1,
   50, 83, 84, -1,
   84, 83, 85, -1,
   85, 83, 86, -1,
   86, 83, 87, -1,
   59, 87, 83, -1,
   87, 59, 88, -1,
   88, 59, 89, -1,
   89, 59, 61, -1,
   90, 91, 92, -1,
   93, 94, 95, -1,
   94, 93, 96, -1,
   92, 93, 95, -1,
   97, 98, 99, -1,
   100, 90, 101, -1,
   94, 96, 102, -1,
   103, 104, 105, -1,
   106, 107, 108, -1,
   109, 110, 111, -1,
   112, 113, 114, -1,
   39, 91, 38, -1,
   91, 39, 115, -1,
   96, 103, 102, -1,
   103, 96, 104, -1,
   98, 107, 99, -1,
   36, 98, 37, -1,
   98, 36, 107, -1,
   104, 116, 105, -1,
   117, 110, 109, -1,
   107, 118, 99, -1,
   118, 107, 106, -1,
   99, 118, 97, -1,
   119, 94, 113, -1,
   94, 120, 113, -1,
   120, 94, 102, -1,
   101, 95, 121, -1,
   40, 93, 43, -1,
   93, 40, 96, -1,
   91, 115, 92, -1,
   96, 116, 104, -1,
   40, 116, 96, -1,
   116, 40, 41, -1,
   91, 108, 107, -1,
   108, 91, 90, -1,
   121, 94, 119, -1,
   94, 121, 95, -1,
   101, 92, 95, -1,
   113, 120, 114, -1,
   38, 107, 36, -1,
   107, 38, 91, -1,
   92, 115, 93, -1,
   43, 115, 39, -1,
   115, 43, 93, -1,
   90, 92, 101, -1,
   108, 100, 122, -1,
   100, 108, 90, -1,
   110, 108, 122, -1,
   108, 117, 106, -1,
   117, 108, 110, -1,
   110, 123, 111, -1,
   122, 123, 110, -1,
   100, 123, 122, -1,
   101, 123, 100, -1,
   124, 119, 113, -1,
   123, 101, 124, -1,
   124, 121, 119, -1,
   124, 101, 121, -1,
   112, 124, 113, -1,
   125, 126, 127, -1,
   128, 129, 130, -1,
   129, 128, 131, -1,
   132, 127, 133, -1,
   134, 127, 132, -1,
   132, 77, 134, -1,
   77, 132, 76, -1,
   135, 136, 125, -1,
   127, 126, 137, -1,
   138, 139, 140, -1,
   141, 128, 130, -1,
   81, 141, 82, -1,
   141, 81, 128, -1,
   129, 142, 130, -1,
   135, 143, 136, -1,
   143, 135, 140, -1,
   144, 145, 146, -1,
   127, 137, 133, -1,
   125, 147, 148, -1,
   149, 125, 136, -1,
   125, 149, 147, -1,
   150, 151, 146, -1,
   152, 76, 132, -1,
   76, 152, 80, -1,
   135, 125, 127, -1,
   134, 135, 127, -1,
   144, 128, 152, -1,
   125, 148, 126, -1,
   140, 139, 143, -1,
   146, 131, 128, -1,
   135, 138, 140, -1,
   78, 138, 135, -1,
   138, 78, 79, -1,
   151, 153, 154, -1,
   132, 144, 152, -1,
   133, 144, 132, -1,
   133, 137, 144, -1,
   128, 80, 152, -1,
   80, 128, 81, -1,
   134, 78, 135, -1,
   78, 134, 77, -1,
   151, 155, 153, -1,
   156, 157, 147, -1,
   144, 146, 128, -1,
   137, 145, 144, -1,
   130, 142, 141, -1,
   149, 156, 147, -1,
   154, 146, 151, -1,
   146, 154, 131, -1,
   145, 150, 146, -1,
   147, 157, 158, -1,
   158, 137, 126, -1,
   158, 126, 148, -1,
   159, 137, 158, -1,
   158, 148, 147, -1,
   137, 159, 145, -1,
   145, 159, 150, -1,
   159, 151, 150, -1,
   151, 159, 155, -1,
   160, 112, 161, -1,
   162, 112, 160, -1,
   112, 162, 124, -1,
   163, 112, 114, -1,
   163, 114, 120, -1,
   112, 163, 161, -1,
   11, 164, 165, -1,
   9, 164, 11, -1,
   164, 9, 8, -1,
   166, 167, 168, -1,
   167, 166, 18, -1,
   169, 13, 170, -1,
   13, 169, 26, -1,
   16, 171, 172, -1,
   171, 16, 17, -1,
   168, 171, 166, -1,
   173, 171, 168, -1,
   173, 172, 171, -1,
   174, 172, 173, -1,
   174, 175, 172, -1,
   176, 175, 174, -1,
   176, 177, 175, -1,
   178, 177, 176, -1,
   178, 164, 177, -1,
   179, 164, 178, -1,
   179, 165, 164, -1,
   180, 165, 179, -1,
   180, 181, 165, -1,
   182, 181, 180, -1,
   182, 170, 181, -1,
   160, 170, 182, -1,
   160, 169, 170, -1,
   161, 169, 160, -1,
   161, 183, 169, -1,
   184, 183, 161, -1,
   184, 185, 183, -1,
   186, 185, 184, -1,
   186, 187, 185, -1,
   188, 187, 186, -1,
   188, 189, 187, -1,
   190, 189, 188, -1,
   190, 191, 189, -1,
   192, 191, 190, -1,
   192, 193, 191, -1,
   193, 192, 194, -1,
   13, 181, 170, -1,
   181, 13, 12, -1,
   34, 189, 35, -1,
   189, 34, 187, -1,
   8, 177, 164, -1,
   177, 8, 7, -1,
   195, 188, 196, -1,
   188, 195, 190, -1,
   183, 26, 169, -1,
   26, 183, 27, -1,
   197, 186, 184, -1,
   186, 197, 102, -1,
   174, 106, 176, -1,
   106, 174, 198, -1,
   173, 198, 174, -1,
   198, 173, 199, -1,
   105, 195, 103, -1,
   195, 105, 190, -1,
   200, 105, 116, -1,
   105, 200, 192, -1,
   105, 192, 190, -1,
   17, 166, 171, -1,
   166, 17, 18, -1,
   97, 199, 173, -1,
   199, 97, 118, -1,
   168, 97, 173, -1,
   167, 97, 168, -1,
   97, 167, 98, -1,
   12, 165, 181, -1,
   165, 12, 11, -1,
   196, 186, 102, -1,
   186, 196, 188, -1,
   187, 33, 185, -1,
   33, 187, 34, -1,
   22, 193, 20, -1,
   193, 22, 191, -1,
   179, 111, 180, -1,
   201, 111, 179, -1,
   111, 201, 109, -1,
   109, 201, 117, -1,
   202, 111, 123, -1,
   111, 202, 180, -1,
   23, 191, 22, -1,
   35, 191, 23, -1,
   191, 35, 189, -1,
   203, 179, 178, -1,
   179, 203, 201, -1,
   185, 27, 183, -1,
   185, 28, 27, -1,
   28, 185, 33, -1,
   7, 175, 177, -1,
   175, 7, 4, -1,
   204, 160, 182, -1,
   160, 204, 162, -1,
   172, 6, 16, -1,
   4, 172, 175, -1,
   172, 4, 6, -1,
   202, 182, 180, -1,
   182, 202, 204, -1,
   20, 194, 21, -1,
   194, 20, 193, -1,
   117, 203, 106, -1,
   203, 117, 201, -1,
   118, 198, 199, -1,
   198, 118, 106, -1,
   120, 197, 163, -1,
   197, 120, 102, -1,
   103, 196, 102, -1,
   196, 103, 195, -1,
   41, 200, 116, -1,
   200, 41, 21, -1,
   37, 167, 18, -1,
   167, 37, 98, -1,
   123, 204, 202, -1,
   124, 204, 123, -1,
   204, 124, 162, -1,
   163, 184, 161, -1,
   184, 163, 197, -1,
   21, 192, 200, -1,
   192, 21, 194, -1,
   106, 178, 176, -1,
   178, 106, 203, -1,
   205, 155, 159, -1,
   155, 205, 206, -1,
   153, 207, 154, -1,
   155, 207, 153, -1,
   208, 155, 206, -1,
   155, 208, 207, -1,
   209, 74, 210, -1,
   74, 209, 70, -1,
   70, 209, 69, -1,
   57, 211, 212, -1,
   211, 57, 213, -1,
   214, 46, 48, -1,
   46, 214, 215, -1,
   73, 216, 72, -1,
   216, 73, 217, -1,
   218, 154, 207, -1,
   154, 218, 131, -1,
   129, 219, 220, -1,
   219, 129, 131, -1,
   149, 221, 222, -1,
   221, 149, 136, -1,
   223, 143, 224, -1,
   143, 223, 136, -1,
   225, 82, 141, -1,
   82, 225, 61, -1,
   79, 212, 138, -1,
   212, 79, 57, -1,
   226, 158, 227, -1,
   159, 226, 205, -1,
   226, 159, 158, -1,
   228, 46, 215, -1,
   46, 228, 75, -1,
   85, 229, 230, -1,
   229, 85, 86, -1,
   231, 69, 209, -1,
   69, 231, 68, -1,
   232, 219, 233, -1,
   219, 232, 220, -1,
   234, 48, 49, -1,
   48, 234, 214, -1,
   235, 131, 218, -1,
   131, 235, 236, -1,
   223, 237, 136, -1,
   237, 223, 238, -1,
   224, 238, 223, -1,
   238, 224, 239, -1,
   142, 220, 232, -1,
   220, 142, 129, -1,
   240, 142, 232, -1,
   225, 142, 240, -1,
   142, 225, 141, -1,
   72, 213, 57, -1,
   213, 72, 216, -1,
   139, 224, 143, -1,
   224, 139, 239, -1,
   212, 139, 138, -1,
   139, 212, 211, -1,
   139, 211, 239, -1,
   208, 218, 207, -1,
   218, 208, 235, -1,
   210, 75, 228, -1,
   75, 210, 74, -1,
   233, 131, 236, -1,
   131, 233, 219, -1,
   230, 84, 85, -1,
   84, 230, 241, -1,
   88, 242, 243, -1,
   242, 88, 89, -1,
   222, 156, 149, -1,
   222, 157, 156, -1,
   157, 222, 244, -1,
   157, 227, 158, -1,
   245, 157, 244, -1,
   157, 245, 227, -1,
   243, 87, 88, -1,
   86, 243, 229, -1,
   243, 86, 87, -1,
   246, 222, 221, -1,
   222, 246, 244, -1,
   241, 50, 84, -1,
   241, 49, 50, -1,
   49, 241, 234, -1,
   68, 247, 66, -1,
   247, 68, 231, -1,
   248, 205, 226, -1,
   205, 248, 206, -1,
   67, 217, 73, -1,
   66, 217, 67, -1,
   217, 66, 247, -1,
   245, 226, 227, -1,
   226, 245, 248, -1,
   89, 249, 242, -1,
   249, 89, 61, -1,
   216, 211, 213, -1,
   217, 211, 216, -1,
   217, 239, 211, -1,
   247, 239, 217, -1,
   247, 238, 239, -1,
   231, 238, 247, -1,
   231, 237, 238, -1,
   209, 237, 231, -1,
   209, 246, 237, -1,
   210, 246, 209, -1,
   210, 244, 246, -1,
   228, 244, 210, -1,
   228, 245, 244, -1,
   215, 245, 228, -1,
   215, 248, 245, -1,
   214, 248, 215, -1,
   214, 206, 248, -1,
   234, 206, 214, -1,
   234, 208, 206, -1,
   241, 208, 234, -1,
   241, 235, 208, -1,
   230, 235, 241, -1,
   230, 236, 235, -1,
   229, 236, 230, -1,
   229, 233, 236, -1,
   243, 233, 229, -1,
   243, 232, 233, -1,
   242, 232, 243, -1,
   242, 240, 232, -1,
   240, 242, 249, -1,
   249, 225, 240, -1,
   225, 249, 61, -1,
   237, 221, 136, -1,
   221, 237, 246, -1
  ]
 }
}
