#VRML V2.0 utf8
# led3: written by tools/build_models3d.py from 3d/populated/models/led3.scad; layers lens #f2a31c, flange #d98a10, leads #c9c9c9
Shape {
 appearance Appearance { material Material {
  diffuseColor 0.9490 0.6392 0.1098
  specularColor 0.250 0.250 0.250
  ambientIntensity 0.4
  shininess 0.30
 } }
 geometry IndexedFaceSet {
  creaseAngle 0.5
  coord Coordinate { point [
   0.58327 0.09240 1.49606,
   0.56165 0.18248 0.23622,
   0.56165 0.18248 1.49606,
   0.58327 0.09240 0.23622,
   0.59055 0.00000 1.49606,
   0.59055 0.00000 0.23622,
   0.52618 0.26811 0.23622,
   0.52618 0.26811 1.49606,
   0.34713 -0.47776 0.23622,
   0.41760 -0.41760 1.49606,
   0.34713 -0.47776 1.49606,
   0.41760 -0.41760 0.23622,
   0.26811 -0.52618 0.23622,
   0.26811 -0.52618 1.49606,
   0.47776 0.34713 1.49606,
   0.41760 0.41760 0.23622,
   0.41760 0.41760 1.49606,
   0.47776 0.34713 0.23622,
   -0.59055 0.00000 0.23622,
   -0.58327 0.09240 1.49606,
   -0.58327 0.09240 0.23622,
   -0.59055 0.00000 1.49606,
   -0.52618 0.26811 0.23622,
   -0.47776 0.34713 1.49606,
   -0.47776 0.34713 0.23622,
   -0.52618 0.26811 1.49606,
   -0.26811 0.52618 0.23622,
   -0.34713 0.47776 1.49606,
   -0.26811 0.52618 1.49606,
   -0.34713 0.47776 0.23622,
   0.52618 -0.26811 1.49606,
   0.56165 -0.18248 0.23622,
   0.56165 -0.18248 1.49606,
   0.52618 -0.26811 0.23622,
   0.47776 -0.34713 1.49606,
   0.47776 -0.34713 0.23622,
   -0.18248 0.56165 0.23622,
   -0.18248 0.56165 1.49606,
   -0.56165 -0.18248 0.23622,
   -0.58327 -0.09240 1.49606,
   -0.58327 -0.09240 0.23622,
   -0.56165 -0.18248 1.49606,
   0.09240 -0.58327 0.23622,
   0.18248 -0.56165 1.49606,
   0.09240 -0.58327 1.49606,
   0.18248 -0.56165 0.23622,
   0.00000 -0.59055 0.23622,
   0.00000 -0.59055 1.49606,
   -0.41760 0.41760 1.49606,
   -0.41760 0.41760 0.23622,
   0.00000 0.59055 0.23622,
   -0.09240 0.58327 1.49606,
   0.00000 0.59055 1.49606,
   -0.09240 0.58327 0.23622,
   0.26811 0.52618 0.23622,
   0.18248 0.56165 1.49606,
   0.26811 0.52618 1.49606,
   0.18248 0.56165 0.23622,
   0.58874 0.00000 1.49606,
   0.58150 0.09209 1.49606,
   0.55992 0.18193 1.49606,
   0.52457 0.26728 1.49606,
   0.47630 0.34606 1.49606,
   0.41630 0.41630 1.49606,
   0.34713 0.47776 1.49606,
   0.34606 0.47630 1.49606,
   0.26728 0.52457 1.49606,
   0.18193 0.55992 1.49606,
   0.09240 0.58327 1.49606,
   0.09209 0.58150 1.49606,
   0.00000 0.58874 1.49606,
   -0.09209 0.58150 1.49606,
   -0.18193 0.55992 1.49606,
   -0.26728 0.52457 1.49606,
   -0.34606 0.47630 1.49606,
   -0.41630 0.41630 1.49606,
   -0.47630 0.34606 1.49606,
   -0.52457 0.26728 1.49606,
   -0.55992 0.18193 1.49606,
   -0.56165 0.18248 1.49606,
   -0.58150 0.09209 1.49606,
   -0.58874 0.00000 1.49606,
   0.58327 -0.09240 1.49606,
   0.58150 -0.09209 1.49606,
   0.55992 -0.18193 1.49606,
   0.52457 -0.26728 1.49606,
   0.47630 -0.34606 1.49606,
   0.41630 -0.41630 1.49606,
   0.34606 -0.47630 1.49606,
   0.26728 -0.52457 1.49606,
   0.18193 -0.55992 1.49606,
   0.09209 -0.58150 1.49606,
   0.00000 -0.58874 1.49606,
   -0.09209 -0.58150 1.49606,
   -0.09240 -0.58327 1.49606,
   -0.18193 -0.55992 1.49606,
   -0.18248 -0.56165 1.49606,
   -0.26728 -0.52457 1.49606,
   -0.26811 -0.52618 1.49606,
   -0.34606 -0.47630 1.49606,
   -0.34713 -0.47776 1.49606,
   -0.41630 -0.41630 1.49606,
   -0.41760 -0.41760 1.49606,
   -0.47630 -0.34606 1.49606,
   -0.47776 -0.34713 1.49606,
   -0.52457 -0.26728 1.49606,
   -0.52618 -0.26811 1.49606,
   -0.55992 -0.18193 1.49606,
   -0.58150 -0.09209 1.49606,
   0.34713 0.47776 0.23622,
   0.09240 0.58327 0.23622,
   -0.34713 -0.47776 0.23622,
   -0.26811 -0.52618 0.23622,
   -0.47776 -0.34713 0.23622,
   -0.52618 -0.26811 0.23622,
   0.58327 -0.09240 0.23622,
   -0.56165 0.18248 0.23622,
   -0.41760 -0.41760 0.23622,
   -0.18248 -0.56165 0.23622,
   -0.09240 -0.58327 0.23622,
   -0.44354 0.07024 1.87961,
   -0.49732 0.07878 1.80465,
   -0.44906 0.00000 1.87961,
   -0.34606 0.47630 1.54240,
   -0.26728 0.52457 1.54240,
   0.06260 0.12283 2.07028,
   0.02102 0.04130 2.08480,
   0.08102 0.11154 2.07028,
   0.18138 -0.24965 1.99961,
   0.13283 -0.18283 2.04165,
   0.14008 -0.27492 1.99961,
   0.00000 -0.04634 2.08480,
   -0.00724 -0.04575 2.08480,
   0.00000 -0.13787 2.07028,
   0.15980 -0.15980 2.04165,
   0.08102 -0.11154 2.07028,
   -0.08535 -0.53890 1.72205,
   -0.08984 -0.56717 1.63394,
   0.00000 -0.57425 1.63394,
   0.31752 0.31752 1.87961,
   0.27118 0.27118 1.94512,
   0.31028 0.22543 1.94512,
   -0.13283 0.18283 2.04165,
   -0.21819 0.21819 1.99961,
   -0.15980 0.15980 2.04165,
   -0.46457 -0.33752 1.63394,
   -0.47630 -0.34606 1.54240,
   -0.40602 -0.40602 1.63394,
   0.52457 -0.26728 1.54240,
   0.55992 -0.18193 1.54240,
   0.49732 0.07878 1.80465,
   0.44906 0.00000 1.87961,
   0.50354 0.00000 1.80465,
   -0.53890 -0.08535 1.72205,
   -0.57425 0.00000 1.63394,
   -0.56717 -0.08984 1.63394,
   -0.22323 -0.03535 2.04165,
   -0.30476 -0.04827 1.99961,
   -0.21492 -0.06984 2.04165,
   -0.56717 0.08984 1.63394,
   -0.53890 0.08535 1.72205,
   -0.26071 -0.51165 1.63394,
   -0.34606 -0.47630 1.54240,
   -0.26728 -0.52457 1.54240,
   0.52457 0.26728 1.54240,
   0.47630 0.34606 1.54240,
   0.30854 0.00000 1.99961,
   0.30476 -0.04827 1.99961,
   0.37882 -0.06000 1.94512,
   -0.48614 0.24768 1.72205,
   -0.54614 0.17744 1.63394,
   -0.51890 0.16858 1.72205,
   -0.37882 -0.06000 1.94512,
   -0.42709 -0.13878 1.87961,
   -0.36476 -0.11850 1.94512,
   0.40602 0.40602 1.63394,
   0.46457 0.33752 1.63394,
   -0.09209 0.58150 1.54240,
   -0.18193 0.55992 1.54240,
   -0.08984 0.56717 1.63394,
   -0.13618 -0.02157 2.07028,
   -0.22598 0.00000 2.04165,
   0.22323 -0.03535 2.04165,
   0.36476 0.11850 1.94512,
   0.29346 0.09535 1.99961,
   0.30476 0.04827 1.99961,
   0.47890 0.15559 1.80465,
   0.42709 0.13878 1.87961,
   0.18193 0.55992 1.54240,
   0.17744 0.54614 1.63394,
   0.26071 0.51165 1.63394,
   0.09209 0.58150 1.54240,
   0.24768 0.48614 1.72205,
   0.16858 0.51890 1.72205,
   0.22858 0.44866 1.80465,
   -0.04634 0.00000 2.08480,
   -0.13787 0.00000 2.07028,
   -0.04575 -0.00724 2.08480,
   0.44354 -0.07024 1.87961,
   0.42709 -0.13878 1.87961,
   0.49732 -0.07878 1.80465,
   -0.49732 -0.07878 1.80465,
   -0.44354 -0.07024 1.87961,
   -0.30854 0.00000 1.99961,
   -0.38354 0.00000 1.94512,
   0.53890 -0.08535 1.72205,
   0.51890 -0.16858 1.72205,
   0.40012 -0.20386 1.87961,
   0.36331 -0.26394 1.87961,
   0.40736 -0.29598 1.80465,
   0.51165 -0.26071 1.63394,
   0.46457 -0.33752 1.63394,
   0.47630 -0.34606 1.54240,
   0.57425 0.00000 1.63394,
   0.56717 -0.08984 1.63394,
   0.58874 0.00000 1.54240,
   0.07024 0.44354 1.87961,
   0.00000 0.44906 1.87961,
   0.06000 0.37882 1.94512,
   0.07878 0.49732 1.80465,
   0.13878 0.42709 1.87961,
   0.16858 -0.51890 1.72205,
   0.07878 -0.49732 1.80465,
   0.08535 -0.53890 1.72205,
   0.08535 0.53890 1.72205,
   -0.51165 0.26071 1.63394,
   -0.55992 0.18193 1.54240,
   0.15559 0.47890 1.80465,
   0.11850 0.36476 1.94512,
   0.04827 0.30476 1.99961,
   0.09535 0.29346 1.99961,
   0.51165 0.26071 1.63394,
   0.53890 0.08535 1.72205,
   0.54559 0.00000 1.72205,
   0.32071 0.44142 1.72205,
   0.29598 0.40736 1.80465,
   0.38579 0.38579 1.72205,
   0.58150 0.09209 1.54240,
   0.55992 0.18193 1.54240,
   0.08984 0.56717 1.63394,
   0.20386 0.40012 1.87961,
   -0.26394 -0.36331 1.87961,
   -0.31752 -0.31752 1.87961,
   -0.29598 -0.40736 1.80465,
   0.24768 -0.48614 1.72205,
   0.17744 -0.54614 1.63394,
   -0.21819 -0.21819 1.99961,
   -0.27118 -0.27118 1.94512,
   -0.18138 -0.24965 1.99961,
   -0.34173 -0.17413 1.94512,
   -0.40012 -0.20386 1.87961,
   -0.51890 -0.16858 1.72205,
   -0.54614 -0.17744 1.63394,
   -0.48614 -0.24768 1.72205,
   -0.40736 -0.29598 1.80465,
   -0.44142 -0.32071 1.72205,
   -0.22323 0.03535 2.04165,
   0.41630 0.41630 1.54240,
   0.58150 -0.09209 1.54240,
   -0.41630 -0.41630 1.54240,
   0.44142 -0.32071 1.72205,
   0.38579 -0.38579 1.72205,
   0.40602 -0.40602 1.63394,
   -0.51165 -0.26071 1.63394,
   -0.52457 -0.26728 1.54240,
   0.32071 -0.44142 1.72205,
   0.48614 0.24768 1.72205,
   0.36476 -0.11850 1.94512,
   0.29346 -0.09535 1.99961,
   0.33752 -0.46457 1.63394,
   0.44866 -0.22858 1.80465,
   0.48614 -0.24768 1.72205,
   0.44866 0.22858 1.80465,
   0.13878 -0.42709 1.87961,
   0.06000 -0.37882 1.94512,
   0.07024 -0.44354 1.87961,
   0.13110 0.04260 2.07028,
   0.04575 0.00724 2.08480,
   0.13618 0.02157 2.07028,
   0.38354 0.00000 1.94512,
   -0.32071 0.44142 1.72205,
   -0.38579 0.38579 1.72205,
   -0.29598 0.40736 1.80465,
   -0.44866 0.22858 1.80465,
   -0.47890 0.15559 1.80465,
   0.22543 0.31028 1.94512,
   0.14008 0.27492 1.99961,
   0.18138 0.24965 1.99961,
   0.54614 0.17744 1.63394,
   0.44142 0.32071 1.72205,
   0.40736 0.29598 1.80465,
   0.35606 0.35606 1.80465,
   -0.26071 0.51165 1.63394,
   -0.17744 0.54614 1.63394,
   0.51890 0.16858 1.72205,
   0.26728 0.52457 1.54240,
   0.34606 0.47630 1.54240,
   0.04260 0.13110 2.07028,
   0.13283 0.18283 2.04165,
   -0.06000 -0.37882 1.94512,
   -0.07024 -0.44354 1.87961,
   0.00000 -0.44906 1.87961,
   -0.18283 -0.13283 2.04165,
   -0.27492 -0.14008 1.99961,
   -0.24965 -0.18138 1.99961,
   0.31028 -0.22543 1.94512,
   0.31752 -0.31752 1.87961,
   0.06984 -0.21492 2.04165,
   0.03535 -0.22323 2.04165,
   0.04827 -0.30476 1.99961,
   -0.58874 0.00000 1.54240,
   -0.58150 -0.09209 1.54240,
   -0.47890 -0.15559 1.80465,
   -0.44866 -0.22858 1.80465,
   0.34606 -0.47630 1.54240,
   0.26728 -0.52457 1.54240,
   -0.17744 -0.54614 1.63394,
   -0.18193 -0.55992 1.54240,
   0.18283 -0.13283 2.04165,
   0.11154 -0.08102 2.07028,
   0.54614 -0.17744 1.63394,
   0.41630 -0.41630 1.54240,
   0.47890 -0.15559 1.80465,
   -0.16858 -0.51890 1.72205,
   -0.24768 -0.48614 1.72205,
   0.09535 -0.29346 1.99961,
   0.35606 -0.35606 1.80465,
   0.26394 -0.36331 1.87961,
   0.20386 -0.40012 1.87961,
   0.29598 -0.40736 1.80465,
   0.27492 0.14008 1.99961,
   0.21492 0.06984 2.04165,
   0.21819 -0.21819 1.99961,
   0.36331 0.26394 1.87961,
   -0.20386 -0.40012 1.87961,
   -0.22858 -0.44866 1.80465,
   -0.36331 -0.26394 1.87961,
   -0.31028 -0.22543 1.94512,
   -0.09209 -0.58150 1.54240,
   0.00000 -0.58874 1.54240,
   -0.36331 0.26394 1.87961,
   -0.40736 0.29598 1.80465,
   -0.40012 0.20386 1.87961,
   -0.58150 0.09209 1.54240,
   0.00000 0.50354 1.80465,
   -0.07878 0.49732 1.80465,
   -0.22543 -0.31028 1.94512,
   -0.17413 -0.34173 1.94512,
   0.44354 0.07024 1.87961,
   0.56717 0.08984 1.63394,
   -0.33752 0.46457 1.63394,
   -0.40602 0.40602 1.63394,
   -0.08535 0.53890 1.72205,
   -0.16858 0.51890 1.72205,
   0.00724 0.04575 2.08480,
   0.01433 0.04406 2.08480,
   -0.31752 0.31752 1.87961,
   -0.24768 0.48614 1.72205,
   0.00000 0.58874 1.54240,
   0.33752 0.46457 1.63394,
   0.26394 0.36331 1.87961,
   0.17413 0.34173 1.94512,
   -0.06984 0.21492 2.04165,
   -0.14008 0.27492 1.99961,
   -0.10260 0.20138 2.04165,
   0.02157 0.13618 2.07028,
   0.00000 0.13787 2.07028,
   -0.02157 0.13618 2.07028,
   -0.04260 0.13110 2.07028,
   -0.24965 0.18138 1.99961,
   -0.18283 0.13283 2.04165,
   -0.38579 -0.38579 1.72205,
   0.22543 -0.31028 1.94512,
   0.04130 -0.02102 2.08480,
   0.03748 -0.02724 2.08480,
   -0.09535 -0.29346 1.99961,
   -0.14008 -0.27492 1.99961,
   -0.11850 -0.36476 1.94512,
   -0.29346 -0.09535 1.99961,
   -0.35606 -0.35606 1.80465,
   -0.15559 -0.47890 1.80465,
   -0.34173 0.17413 1.94512,
   -0.42709 0.13878 1.87961,
   -0.36476 0.11850 1.94512,
   -0.37882 0.06000 1.94512,
   0.26071 -0.51165 1.63394,
   0.18193 -0.55992 1.54240,
   0.08984 -0.56717 1.63394,
   0.37882 0.06000 1.94512,
   0.27492 -0.14008 1.99961,
   0.24965 -0.18138 1.99961,
   0.34173 -0.17413 1.94512,
   -0.08102 -0.11154 2.07028,
   -0.15980 -0.15980 2.04165,
   -0.13283 -0.18283 2.04165,
   -0.02157 -0.13618 2.07028,
   0.00000 -0.22598 2.04165,
   -0.00724 0.04575 2.08480,
   0.18283 0.13283 2.04165,
   0.20138 0.10260 2.04165,
   0.21819 0.21819 1.99961,
   0.24965 0.18138 1.99961,
   0.00000 -0.50354 1.80465,
   0.00000 -0.54559 1.72205,
   -0.54559 0.00000 1.72205,
   -0.22858 0.44866 1.80465,
   -0.47630 0.34606 1.54240,
   -0.52457 0.26728 1.54240,
   -0.41630 0.41630 1.54240,
   -0.06260 0.12283 2.07028,
   -0.08102 0.11154 2.07028,
   -0.02102 0.04130 2.08480,
   0.03535 0.22323 2.04165,
   0.06984 0.21492 2.04165,
   -0.18138 0.24965 1.99961,
   0.00000 0.57425 1.63394,
   -0.13618 0.02157 2.07028,
   -0.31028 0.22543 1.94512,
   -0.27492 0.14008 1.99961,
   -0.12283 0.06260 2.07028,
   -0.21492 0.06984 2.04165,
   -0.13110 0.04260 2.07028,
   0.11154 0.08102 2.07028,
   0.03748 0.02724 2.08480,
   0.04130 0.02102 2.08480,
   -0.13110 -0.04260 2.07028,
   -0.13878 -0.42709 1.87961,
   -0.50354 0.00000 1.80465,
   -0.55992 -0.18193 1.54240,
   -0.12283 -0.06260 2.07028,
   -0.20138 -0.10260 2.04165,
   -0.02724 -0.03748 2.08480,
   -0.02102 -0.04130 2.08480,
   0.00724 -0.04575 2.08480,
   0.02157 -0.13618 2.07028,
   0.12283 0.06260 2.07028,
   0.22598 0.00000 2.04165,
   0.13787 0.00000 2.07028,
   -0.09748 -0.09748 2.07028,
   -0.02724 0.03748 2.08480,
   0.22858 -0.44866 1.80465,
   0.22323 0.03535 2.04165,
   0.02724 0.03748 2.08480,
   0.09748 0.09748 2.07028,
   0.13618 -0.02157 2.07028,
   0.21492 -0.06984 2.04165,
   -0.10260 -0.20138 2.04165,
   0.17413 -0.34173 1.94512,
   0.11850 -0.36476 1.94512,
   -0.03535 -0.22323 2.04165,
   0.00000 -0.30854 1.99961,
   0.00000 -0.38354 1.94512,
   0.15980 0.15980 2.04165,
   0.10260 0.20138 2.04165,
   0.00000 0.30854 1.99961,
   0.09209 -0.58150 1.54240,
   -0.07878 -0.49732 1.80465,
   -0.46457 0.33752 1.63394,
   -0.04827 0.30476 1.99961,
   -0.11850 0.36476 1.94512,
   -0.09535 0.29346 1.99961,
   0.34173 0.17413 1.94512,
   0.40012 0.20386 1.87961,
   -0.27118 0.27118 1.94512,
   -0.15559 0.47890 1.80465,
   -0.04130 0.02102 2.08480,
   -0.04406 0.01433 2.08480,
   -0.06984 -0.21492 2.04165,
   -0.32071 -0.44142 1.72205,
   -0.33752 -0.46457 1.63394,
   0.00000 0.04634 2.08480,
   -0.04130 -0.02102 2.08480,
   -0.30476 0.04827 1.99961,
   -0.20138 0.10260 2.04165,
   -0.03535 0.22323 2.04165,
   0.27118 -0.27118 1.94512,
   0.15559 -0.47890 1.80465,
   0.20138 -0.10260 2.04165,
   -0.04827 -0.30476 1.99961,
   0.04406 -0.01433 2.08480,
   0.13110 -0.04260 2.07028,
   -0.06000 0.37882 1.94512,
   -0.44142 0.32071 1.72205,
   -0.17413 0.34173 1.94512,
   -0.13878 0.42709 1.87961,
   -0.07024 0.44354 1.87961,
   -0.03276 -0.03276 2.08480,
   -0.22543 0.31028 1.94512,
   -0.11154 -0.08102 2.07028,
   0.04575 -0.00724 2.08480,
   0.12283 -0.06260 2.07028,
   0.09748 -0.09748 2.07028,
   0.01433 -0.04406 2.08480,
   0.04260 -0.13110 2.07028,
   -0.09748 0.09748 2.07028,
   -0.03276 0.03276 2.08480,
   0.00000 0.22598 2.04165,
   -0.03748 -0.02724 2.08480,
   -0.29346 0.09535 1.99961,
   -0.26394 0.36331 1.87961,
   0.00000 0.38354 1.94512,
   0.00000 0.54559 1.72205,
   -0.04575 0.00724 2.08480,
   -0.04260 -0.13110 2.07028,
   -0.11154 0.08102 2.07028,
   -0.06260 -0.12283 2.07028,
   -0.03748 0.02724 2.08480,
   0.02724 -0.03748 2.08480,
   0.02102 -0.04130 2.08480,
   0.03276 0.03276 2.08480,
   -0.20386 0.40012 1.87961,
   0.10260 -0.20138 2.04165,
   -0.35606 0.35606 1.80465,
   -0.04406 -0.01433 2.08480,
   0.06260 -0.12283 2.07028,
   0.04406 0.01433 2.08480,
   -0.01433 0.04406 2.08480,
   0.04634 0.00000 2.08480,
   -0.01433 -0.04406 2.08480,
   0.03276 -0.03276 2.08480
  ] }
  coordIndex [
   0, 1, 2, -1,
   1, 0, 3, -1,
   4, 3, 0, -1,
   3, 4, 5, -1,
   2, 6, 7, -1,
   6, 2, 1, -1,
   8, 9, 10, -1,
   9, 8, 11, -1,
   12, 10, 13, -1,
   10, 12, 8, -1,
   14, 15, 16, -1,
   15, 14, 17, -1,
   18, 19, 20, -1,
   19, 18, 21, -1,
   22, 23, 24, -1,
   23, 22, 25, -1,
   26, 27, 28, -1,
   27, 26, 29, -1,
   30, 31, 32, -1,
   31, 30, 33, -1,
   34, 33, 30, -1,
   33, 34, 35, -1,
   36, 28, 37, -1,
   28, 36, 26, -1,
   38, 39, 40, -1,
   39, 38, 41, -1,
   42, 43, 44, -1,
   43, 42, 45, -1,
   46, 44, 47, -1,
   44, 46, 42, -1,
   29, 48, 27, -1,
   48, 29, 49, -1,
   7, 17, 14, -1,
   17, 7, 6, -1,
   50, 51, 52, -1,
   51, 50, 53, -1,
   54, 55, 56, -1,
   55, 54, 57, -1,
   40, 21, 18, -1,
   21, 40, 39, -1,
   53, 37, 51, -1,
   37, 53, 36, -1,
   0, 58, 4, -1,
   0, 59, 58, -1,
   2, 59, 0, -1,
   2, 60, 59, -1,
   7, 60, 2, -1,
   7, 61, 60, -1,
   14, 61, 7, -1,
   14, 62, 61, -1,
   16, 62, 14, -1,
   16, 63, 62, -1,
   64, 63, 16, -1,
   64, 65, 63, -1,
   56, 65, 64, -1,
   56, 66, 65, -1,
   55, 66, 56, -1,
   55, 67, 66, -1,
   68, 67, 55, -1,
   68, 69, 67, -1,
   52, 69, 68, -1,
   52, 70, 69, -1,
   52, 71, 70, -1,
   51, 71, 52, -1,
   51, 72, 71, -1,
   37, 72, 51, -1,
   37, 73, 72, -1,
   28, 73, 37, -1,
   28, 74, 73, -1,
   27, 74, 28, -1,
   27, 75, 74, -1,
   48, 75, 27, -1,
   48, 76, 75, -1,
   23, 76, 48, -1,
   23, 77, 76, -1,
   25, 77, 23, -1,
   25, 78, 77, -1,
   79, 78, 25, -1,
   79, 80, 78, -1,
   19, 80, 79, -1,
   19, 81, 80, -1,
   81, 19, 21, -1,
   58, 82, 4, -1,
   83, 82, 58, -1,
   83, 32, 82, -1,
   84, 32, 83, -1,
   84, 30, 32, -1,
   85, 30, 84, -1,
   85, 34, 30, -1,
   86, 34, 85, -1,
   86, 9, 34, -1,
   87, 9, 86, -1,
   87, 10, 9, -1,
   88, 10, 87, -1,
   88, 13, 10, -1,
   89, 13, 88, -1,
   89, 43, 13, -1,
   90, 43, 89, -1,
   90, 44, 43, -1,
   91, 44, 90, -1,
   92, 44, 91, -1,
   92, 47, 44, -1,
   93, 47, 92, -1,
   93, 94, 47, -1,
   95, 94, 93, -1,
   95, 96, 94, -1,
   97, 96, 95, -1,
   97, 98, 96, -1,
   99, 98, 97, -1,
   99, 100, 98, -1,
   101, 100, 99, -1,
   101, 102, 100, -1,
   103, 102, 101, -1,
   103, 104, 102, -1,
   105, 104, 103, -1,
   105, 106, 104, -1,
   107, 106, 105, -1,
   107, 41, 106, -1,
   108, 41, 107, -1,
   108, 39, 41, -1,
   81, 39, 108, -1,
   39, 81, 21, -1,
   109, 56, 64, -1,
   56, 109, 54, -1,
   110, 52, 68, -1,
   52, 110, 50, -1,
   45, 13, 43, -1,
   13, 45, 12, -1,
   111, 98, 100, -1,
   98, 111, 112, -1,
   113, 106, 114, -1,
   106, 113, 104, -1,
   82, 5, 4, -1,
   5, 82, 115, -1,
   24, 48, 49, -1,
   48, 24, 23, -1,
   32, 115, 82, -1,
   115, 32, 31, -1,
   20, 79, 116, -1,
   79, 20, 19, -1,
   117, 104, 113, -1,
   104, 117, 102, -1,
   118, 94, 96, -1,
   94, 118, 119, -1,
   112, 96, 98, -1,
   96, 112, 118, -1,
   114, 41, 38, -1,
   41, 114, 106, -1,
   57, 68, 55, -1,
   68, 57, 110, -1,
   115, 3, 5, -1,
   31, 3, 115, -1,
   31, 1, 3, -1,
   33, 1, 31, -1,
   33, 6, 1, -1,
   35, 6, 33, -1,
   35, 17, 6, -1,
   11, 17, 35, -1,
   11, 15, 17, -1,
   8, 15, 11, -1,
   8, 109, 15, -1,
   12, 109, 8, -1,
   12, 54, 109, -1,
   45, 54, 12, -1,
   45, 57, 54, -1,
   42, 57, 45, -1,
   42, 110, 57, -1,
   46, 110, 42, -1,
   46, 50, 110, -1,
   119, 50, 46, -1,
   119, 53, 50, -1,
   118, 53, 119, -1,
   118, 36, 53, -1,
   112, 36, 118, -1,
   112, 26, 36, -1,
   111, 26, 112, -1,
   111, 29, 26, -1,
   117, 29, 111, -1,
   117, 49, 29, -1,
   113, 49, 117, -1,
   113, 24, 49, -1,
   114, 24, 113, -1,
   114, 22, 24, -1,
   38, 22, 114, -1,
   38, 116, 22, -1,
   40, 116, 38, -1,
   40, 20, 116, -1,
   20, 40, 18, -1,
   117, 100, 102, -1,
   100, 117, 111, -1,
   119, 47, 94, -1,
   47, 119, 46, -1,
   15, 64, 16, -1,
   64, 15, 109, -1,
   116, 25, 22, -1,
   25, 116, 79, -1,
   9, 35, 34, -1,
   35, 9, 11, -1,
   120, 121, 122, -1,
   73, 123, 124, -1,
   123, 73, 74, -1,
   125, 126, 127, -1,
   128, 129, 130, -1,
   131, 132, 133, -1,
   134, 135, 129, -1,
   136, 137, 138, -1,
   139, 140, 141, -1,
   142, 143, 144, -1,
   145, 146, 147, -1,
   148, 84, 149, -1,
   84, 148, 85, -1,
   150, 151, 152, -1,
   153, 154, 155, -1,
   156, 157, 158, -1,
   159, 154, 160, -1,
   161, 162, 163, -1,
   164, 62, 165, -1,
   62, 164, 61, -1,
   166, 167, 168, -1,
   169, 170, 171, -1,
   172, 173, 174, -1,
   165, 175, 176, -1,
   177, 178, 179, -1,
   180, 181, 156, -1,
   166, 182, 167, -1,
   183, 184, 185, -1,
   186, 187, 150, -1,
   188, 189, 190, -1,
   67, 191, 188, -1,
   191, 67, 69, -1,
   192, 193, 194, -1,
   195, 196, 197, -1,
   198, 199, 200, -1,
   122, 201, 202, -1,
   203, 204, 172, -1,
   205, 200, 206, -1,
   207, 208, 209, -1,
   210, 211, 212, -1,
   213, 214, 215, -1,
   213, 205, 214, -1,
   216, 217, 218, -1,
   219, 216, 220, -1,
   221, 222, 223, -1,
   189, 224, 193, -1,
   225, 226, 170, -1,
   193, 227, 194, -1,
   228, 229, 230, -1,
   165, 176, 231, -1,
   213, 232, 233, -1,
   234, 235, 236, -1,
   237, 60, 238, -1,
   60, 237, 59, -1,
   239, 224, 189, -1,
   194, 240, 235, -1,
   241, 242, 243, -1,
   244, 221, 245, -1,
   246, 247, 248, -1,
   249, 173, 250, -1,
   251, 252, 253, -1,
   254, 253, 255, -1,
   256, 203, 181, -1,
   165, 63, 257, -1,
   63, 165, 62, -1,
   149, 83, 258, -1,
   83, 149, 84, -1,
   101, 162, 259, -1,
   162, 101, 99, -1,
   260, 261, 262, -1,
   263, 264, 146, -1,
   232, 152, 233, -1,
   261, 265, 262, -1,
   233, 152, 205, -1,
   231, 176, 266, -1,
   168, 267, 199, -1,
   167, 268, 267, -1,
   262, 265, 269, -1,
   270, 209, 271, -1,
   272, 187, 186, -1,
   273, 274, 275, -1,
   276, 277, 278, -1,
   279, 166, 168, -1,
   145, 263, 146, -1,
   280, 281, 282, -1,
   283, 171, 284, -1,
   156, 203, 157, -1,
   203, 172, 157, -1,
   197, 196, 180, -1,
   181, 203, 156, -1,
   285, 286, 287, -1,
   279, 168, 151, -1,
   238, 231, 288, -1,
   289, 290, 266, -1,
   164, 231, 238, -1,
   291, 235, 139, -1,
   178, 292, 293, -1,
   231, 266, 288, -1,
   288, 266, 294, -1,
   65, 295, 296, -1,
   295, 65, 66, -1,
   297, 126, 125, -1,
   286, 298, 287, -1,
   299, 300, 301, -1,
   302, 303, 304, -1,
   208, 305, 306, -1,
   307, 308, 309, -1,
   170, 159, 160, -1,
   155, 310, 311, -1,
   172, 122, 202, -1,
   312, 251, 313, -1,
   89, 314, 315, -1,
   314, 89, 88, -1,
   316, 317, 137, -1,
   211, 262, 212, -1,
   233, 205, 213, -1,
   232, 150, 152, -1,
   318, 319, 134, -1,
   271, 211, 210, -1,
   152, 200, 205, -1,
   152, 151, 200, -1,
   205, 206, 320, -1,
   262, 314, 321, -1,
   200, 199, 322, -1,
   323, 324, 316, -1,
   130, 307, 325, -1,
   209, 306, 326, -1,
   327, 328, 329, -1,
   330, 331, 184, -1,
   134, 129, 332, -1,
   175, 234, 236, -1,
   290, 139, 333, -1,
   334, 243, 335, -1,
   249, 250, 336, -1,
   304, 337, 247, -1,
   137, 317, 338, -1,
   147, 146, 259, -1,
   138, 137, 339, -1,
   169, 171, 283, -1,
   340, 341, 342, -1,
   80, 226, 78, -1,
   226, 80, 343, -1,
   344, 345, 217, -1,
   303, 249, 337, -1,
   346, 241, 347, -1,
   294, 186, 150, -1,
   150, 348, 151, -1,
   139, 285, 140, -1,
   294, 272, 186, -1,
   238, 61, 164, -1,
   61, 238, 60, -1,
   294, 150, 232, -1,
   237, 349, 215, -1,
   176, 289, 266, -1,
   176, 175, 289, -1,
   350, 351, 280, -1,
   352, 293, 353, -1,
   297, 354, 355, -1,
   341, 169, 283, -1,
   356, 341, 340, -1,
   357, 350, 280, -1,
   191, 358, 239, -1,
   236, 235, 291, -1,
   236, 291, 290, -1,
   296, 359, 175, -1,
   295, 190, 296, -1,
   66, 188, 295, -1,
   188, 66, 67, -1,
   184, 331, 185, -1,
   360, 361, 285, -1,
   362, 363, 364, -1,
   365, 366, 354, -1,
   367, 362, 368, -1,
   143, 369, 370, -1,
   254, 255, 371, -1,
   250, 313, 254, -1,
   128, 130, 372, -1,
   373, 374, 319, -1,
   375, 376, 377, -1,
   158, 157, 378, -1,
   379, 371, 243, -1,
   380, 335, 323, -1,
   153, 155, 252, -1,
   153, 252, 251, -1,
   81, 343, 80, -1,
   343, 81, 310, -1,
   381, 382, 383, -1,
   384, 204, 203, -1,
   173, 313, 250, -1,
   379, 254, 371, -1,
   237, 238, 349, -1,
   238, 288, 349, -1,
   385, 386, 315, -1,
   138, 339, 387, -1,
   262, 269, 314, -1,
   269, 244, 385, -1,
   329, 244, 265, -1,
   269, 385, 314, -1,
   221, 223, 245, -1,
   88, 321, 314, -1,
   321, 88, 87, -1,
   183, 185, 388, -1,
   270, 207, 209, -1,
   389, 390, 305, -1,
   199, 391, 207, -1,
   320, 210, 149, -1,
   151, 198, 200, -1,
   209, 261, 260, -1,
   260, 262, 211, -1,
   210, 212, 148, -1,
   212, 262, 321, -1,
   271, 260, 211, -1,
   392, 393, 394, -1,
   307, 309, 325, -1,
   244, 245, 385, -1,
   133, 395, 396, -1,
   306, 372, 327, -1,
   391, 305, 208, -1,
   366, 367, 397, -1,
   330, 398, 399, -1,
   291, 139, 290, -1,
   140, 400, 401, -1,
   255, 253, 145, -1,
   402, 136, 403, -1,
   137, 338, 339, -1,
   245, 223, 387, -1,
   245, 387, 386, -1,
   136, 316, 137, -1,
   241, 243, 334, -1,
   101, 146, 103, -1,
   146, 101, 259, -1,
   324, 161, 316, -1,
   335, 243, 324, -1,
   97, 317, 163, -1,
   317, 97, 95, -1,
   404, 154, 153, -1,
   353, 357, 405, -1,
   406, 407, 225, -1,
   74, 408, 123, -1,
   408, 74, 75, -1,
   378, 174, 303, -1,
   174, 173, 249, -1,
   348, 388, 151, -1,
   150, 187, 348, -1,
   164, 165, 231, -1,
   288, 232, 349, -1,
   288, 294, 232, -1,
   266, 290, 272, -1,
   266, 272, 294, -1,
   341, 283, 342, -1,
   409, 410, 411, -1,
   344, 217, 219, -1,
   229, 412, 413, -1,
   69, 358, 191, -1,
   358, 69, 70, -1,
   414, 143, 142, -1,
   358, 179, 415, -1,
   295, 188, 190, -1,
   188, 239, 189, -1,
   63, 296, 257, -1,
   296, 63, 65, -1,
   257, 296, 175, -1,
   192, 194, 235, -1,
   296, 190, 359, -1,
   416, 181, 196, -1,
   196, 181, 180, -1,
   417, 381, 418, -1,
   419, 420, 421, -1,
   422, 423, 424, -1,
   197, 180, 425, -1,
   250, 254, 336, -1,
   255, 145, 147, -1,
   299, 426, 300, -1,
   346, 242, 241, -1,
   160, 404, 427, -1,
   252, 428, 263, -1,
   429, 158, 430, -1,
   431, 392, 432, -1,
   433, 133, 434, -1,
   331, 435, 276, -1,
   436, 278, 437, -1,
   438, 393, 392, -1,
   180, 156, 158, -1,
   202, 201, 173, -1,
   121, 160, 427, -1,
   384, 122, 204, -1,
   204, 122, 172, -1,
   120, 122, 384, -1,
   411, 410, 439, -1,
   173, 312, 313, -1,
   172, 202, 173, -1,
   349, 232, 213, -1,
   215, 349, 213, -1,
   149, 210, 148, -1,
   321, 86, 212, -1,
   86, 321, 87, -1,
   329, 328, 440, -1,
   261, 329, 265, -1,
   90, 315, 386, -1,
   315, 90, 89, -1,
   385, 245, 386, -1,
   265, 244, 269, -1,
   166, 441, 436, -1,
   127, 442, 443, -1,
   182, 444, 445, -1,
   431, 438, 392, -1,
   168, 167, 267, -1,
   207, 391, 208, -1,
   271, 209, 260, -1,
   206, 270, 271, -1,
   320, 271, 210, -1,
   206, 271, 320, -1,
   209, 326, 261, -1,
   306, 327, 329, -1,
   214, 149, 258, -1,
   215, 214, 258, -1,
   394, 376, 446, -1,
   274, 301, 275, -1,
   332, 129, 128, -1,
   447, 448, 273, -1,
   395, 449, 396, -1,
   450, 299, 451, -1,
   267, 391, 199, -1,
   391, 389, 305, -1,
   452, 422, 398, -1,
   331, 276, 278, -1,
   400, 298, 452, -1,
   399, 435, 331, -1,
   286, 413, 453, -1,
   218, 454, 229, -1,
   289, 236, 290, -1,
   175, 236, 289, -1,
   252, 155, 428, -1,
   155, 311, 428, -1,
   105, 428, 107, -1,
   428, 105, 264, -1,
   263, 428, 264, -1,
   103, 264, 105, -1,
   264, 103, 146, -1,
   223, 138, 387, -1,
   91, 386, 455, -1,
   386, 91, 90, -1,
   93, 339, 338, -1,
   339, 93, 92, -1,
   426, 335, 380, -1,
   380, 323, 456, -1,
   403, 138, 223, -1,
   403, 136, 138, -1,
   147, 259, 162, -1,
   99, 163, 162, -1,
   163, 99, 97, -1,
   108, 310, 81, -1,
   310, 108, 311, -1,
   457, 225, 169, -1,
   225, 170, 169, -1,
   406, 225, 457, -1,
   407, 226, 225, -1,
   358, 415, 239, -1,
   178, 124, 292, -1,
   76, 408, 75, -1,
   408, 76, 406, -1,
   458, 459, 460, -1,
   157, 174, 378, -1,
   157, 172, 174, -1,
   187, 388, 348, -1,
   333, 461, 462, -1,
   272, 462, 187, -1,
   290, 462, 272, -1,
   388, 166, 279, -1,
   151, 388, 279, -1,
   284, 171, 121, -1,
   343, 310, 159, -1,
   463, 356, 417, -1,
   409, 364, 410, -1,
   235, 240, 360, -1,
   194, 220, 240, -1,
   190, 192, 359, -1,
   359, 192, 234, -1,
   224, 219, 193, -1,
   224, 344, 219, -1,
   219, 217, 216, -1,
   353, 405, 464, -1,
   240, 220, 361, -1,
   227, 220, 194, -1,
   191, 239, 188, -1,
   257, 175, 165, -1,
   234, 192, 235, -1,
   359, 234, 175, -1,
   190, 189, 192, -1,
   189, 193, 192, -1,
   389, 318, 390, -1,
   465, 421, 466, -1,
   419, 421, 465, -1,
   446, 376, 467, -1,
   368, 362, 409, -1,
   243, 468, 324, -1,
   371, 255, 147, -1,
   371, 147, 468, -1,
   469, 147, 162, -1,
   313, 253, 254, -1,
   313, 251, 253, -1,
   336, 254, 242, -1,
   303, 337, 304, -1,
   334, 335, 426, -1,
   377, 426, 299, -1,
   413, 365, 297, -1,
   430, 303, 302, -1,
   303, 174, 249, -1,
   249, 336, 337, -1,
   302, 304, 246, -1,
   248, 346, 376, -1,
   185, 331, 441, -1,
   185, 441, 166, -1,
   366, 397, 470, -1,
   471, 425, 429, -1,
   160, 154, 404, -1,
   427, 153, 201, -1,
   383, 384, 472, -1,
   472, 384, 203, -1,
   473, 420, 419, -1,
   256, 181, 416, -1,
   458, 362, 474, -1,
   369, 417, 418, -1,
   427, 404, 153, -1,
   201, 153, 251, -1,
   92, 455, 339, -1,
   455, 92, 91, -1,
   212, 85, 148, -1,
   85, 212, 86, -1,
   305, 390, 475, -1,
   208, 306, 209, -1,
   273, 222, 476, -1,
   476, 222, 221, -1,
   314, 385, 315, -1,
   387, 339, 455, -1,
   386, 387, 455, -1,
   258, 58, 215, -1,
   58, 258, 83, -1,
   215, 59, 237, -1,
   59, 215, 58, -1,
   198, 168, 199, -1,
   151, 168, 198, -1,
   267, 389, 391, -1,
   268, 389, 267, -1,
   445, 477, 389, -1,
   268, 445, 389, -1,
   322, 199, 270, -1,
   199, 207, 270, -1,
   214, 320, 149, -1,
   214, 205, 320, -1,
   449, 478, 450, -1,
   451, 299, 301, -1,
   328, 273, 440, -1,
   372, 447, 327, -1,
   475, 128, 372, -1,
   479, 373, 480, -1,
   477, 318, 389, -1,
   478, 377, 299, -1,
   377, 347, 426, -1,
   141, 330, 461, -1,
   287, 298, 400, -1,
   412, 365, 413, -1,
   216, 218, 220, -1,
   454, 481, 458, -1,
   474, 362, 367, -1,
   301, 402, 222, -1,
   300, 456, 301, -1,
   107, 311, 108, -1,
   311, 107, 428, -1,
   457, 169, 482, -1,
   482, 169, 341, -1,
   123, 408, 351, -1,
   77, 406, 76, -1,
   406, 77, 407, -1,
   78, 407, 77, -1,
   407, 78, 226, -1,
   179, 178, 293, -1,
   352, 353, 345, -1,
   72, 124, 178, -1,
   124, 72, 73, -1,
   70, 177, 358, -1,
   177, 70, 71, -1,
   71, 178, 177, -1,
   178, 71, 72, -1,
   462, 461, 187, -1,
   290, 333, 462, -1,
   400, 398, 401, -1,
   187, 183, 388, -1,
   388, 185, 166, -1,
   187, 461, 183, -1,
   283, 284, 382, -1,
   284, 121, 382, -1,
   227, 219, 220, -1,
   193, 219, 227, -1,
   459, 483, 363, -1,
   464, 405, 484, -1,
   415, 179, 352, -1,
   179, 293, 352, -1,
   485, 484, 481, -1,
   217, 485, 481, -1,
   364, 142, 410, -1,
   486, 438, 431, -1,
   367, 368, 397, -1,
   487, 356, 463, -1,
   362, 364, 409, -1,
   469, 162, 161, -1,
   335, 324, 323, -1,
   242, 379, 243, -1,
   242, 254, 379, -1,
   253, 252, 263, -1,
   253, 263, 145, -1,
   337, 336, 242, -1,
   337, 242, 247, -1,
   426, 380, 456, -1,
   300, 426, 456, -1,
   347, 334, 426, -1,
   347, 241, 334, -1,
   429, 430, 488, -1,
   304, 247, 246, -1,
   467, 376, 375, -1,
   392, 394, 446, -1,
   489, 479, 480, -1,
   365, 354, 297, -1,
   490, 373, 319, -1,
   319, 491, 134, -1,
   158, 303, 430, -1,
   158, 378, 303, -1,
   376, 347, 377, -1,
   247, 242, 346, -1,
   375, 377, 478, -1,
   395, 467, 449, -1,
   140, 401, 141, -1,
   400, 452, 398, -1,
   331, 278, 441, -1,
   441, 278, 436, -1,
   452, 127, 443, -1,
   492, 433, 493, -1,
   439, 494, 495, -1,
   286, 453, 298, -1,
   496, 366, 365, -1,
   366, 470, 354, -1,
   497, 488, 438, -1,
   226, 159, 170, -1,
   226, 343, 159, -1,
   418, 498, 420, -1,
   472, 203, 256, -1,
   144, 143, 370, -1,
   473, 418, 420, -1,
   282, 356, 499, -1,
   483, 499, 487, -1,
   454, 458, 474, -1,
   217, 481, 500, -1,
   173, 201, 312, -1,
   201, 251, 312, -1,
   122, 427, 201, -1,
   121, 427, 122, -1,
   440, 273, 476, -1,
   440, 476, 221, -1,
   306, 329, 326, -1,
   326, 329, 261, -1,
   182, 445, 167, -1,
   167, 445, 268, -1,
   322, 270, 206, -1,
   200, 322, 206, -1,
   275, 301, 222, -1,
   273, 275, 222, -1,
   448, 309, 274, -1,
   448, 274, 273, -1,
   327, 447, 328, -1,
   447, 273, 328, -1,
   332, 128, 475, -1,
   390, 332, 475, -1,
   450, 451, 274, -1,
   318, 134, 332, -1,
   390, 318, 332, -1,
   451, 301, 274, -1,
   478, 299, 450, -1,
   140, 287, 400, -1,
   285, 287, 140, -1,
   228, 230, 286, -1,
   240, 361, 360, -1,
   454, 474, 496, -1,
   229, 454, 412, -1,
   95, 338, 317, -1,
   338, 95, 93, -1,
   456, 323, 136, -1,
   323, 316, 136, -1,
   171, 170, 160, -1,
   171, 160, 121, -1,
   357, 282, 405, -1,
   408, 406, 351, -1,
   351, 406, 457, -1,
   351, 457, 482, -1,
   344, 352, 345, -1,
   239, 415, 224, -1,
   124, 123, 292, -1,
   292, 350, 357, -1,
   358, 177, 179, -1,
   235, 360, 139, -1,
   360, 285, 139, -1,
   461, 330, 183, -1,
   183, 330, 184, -1,
   333, 141, 461, -1,
   139, 141, 333, -1,
   382, 120, 384, -1,
   382, 121, 120, -1,
   340, 342, 381, -1,
   383, 382, 384, -1,
   293, 357, 353, -1,
   293, 292, 357, -1,
   357, 280, 282, -1,
   281, 482, 341, -1,
   345, 464, 484, -1,
   345, 353, 464, -1,
   415, 352, 501, -1,
   501, 352, 344, -1,
   217, 345, 485, -1,
   345, 484, 485, -1,
   319, 374, 491, -1,
   466, 421, 502, -1,
   132, 503, 395, -1,
   132, 395, 133, -1,
   416, 196, 502, -1,
   504, 473, 419, -1,
   161, 163, 317, -1,
   316, 161, 317, -1,
   493, 433, 434, -1,
   127, 126, 442, -1,
   488, 302, 393, -1,
   488, 430, 302, -1,
   497, 438, 486, -1,
   488, 393, 438, -1,
   449, 467, 478, -1,
   467, 375, 478, -1,
   393, 246, 394, -1,
   302, 246, 393, -1,
   142, 144, 410, -1,
   396, 450, 308, -1,
   131, 133, 433, -1,
   422, 424, 435, -1,
   505, 446, 467, -1,
   505, 467, 503, -1,
   443, 423, 422, -1,
   368, 409, 411, -1,
   436, 182, 166, -1,
   480, 373, 490, -1,
   376, 346, 347, -1,
   248, 247, 346, -1,
   401, 398, 330, -1,
   141, 401, 330, -1,
   330, 399, 331, -1,
   495, 494, 506, -1,
   452, 443, 422, -1,
   230, 413, 286, -1,
   230, 229, 413, -1,
   412, 496, 365, -1,
   454, 496, 412, -1,
   507, 508, 135, -1,
   443, 442, 509, -1,
   453, 125, 127, -1,
   413, 125, 453, -1,
   159, 310, 154, -1,
   154, 310, 155, -1,
   420, 472, 256, -1,
   420, 256, 416, -1,
   494, 504, 506, -1,
   494, 144, 504, -1,
   356, 340, 417, -1,
   417, 340, 381, -1,
   510, 282, 499, -1,
   499, 356, 487, -1,
   329, 440, 244, -1,
   440, 221, 244, -1,
   305, 475, 306, -1,
   475, 372, 306, -1,
   436, 444, 182, -1,
   444, 480, 445, -1,
   307, 434, 308, -1,
   396, 449, 450, -1,
   130, 448, 447, -1,
   372, 130, 447, -1,
   129, 511, 130, -1,
   432, 505, 503, -1,
   309, 450, 274, -1,
   308, 450, 309, -1,
   453, 127, 298, -1,
   298, 127, 452, -1,
   361, 228, 286, -1,
   361, 286, 285, -1,
   217, 500, 218, -1,
   220, 228, 361, -1,
   218, 229, 228, -1,
   220, 218, 228, -1,
   481, 459, 458, -1,
   459, 363, 460, -1,
   402, 403, 223, -1,
   222, 402, 223, -1,
   512, 341, 356, -1,
   282, 512, 356, -1,
   292, 123, 350, -1,
   123, 351, 350, -1,
   418, 383, 498, -1,
   381, 383, 418, -1,
   342, 283, 382, -1,
   342, 382, 381, -1,
   501, 344, 224, -1,
   415, 501, 224, -1,
   421, 416, 502, -1,
   502, 196, 195, -1,
   506, 504, 465, -1,
   504, 419, 465, -1,
   197, 425, 513, -1,
   135, 508, 514, -1,
   421, 420, 416, -1,
   491, 135, 134, -1,
   364, 363, 142, -1,
   414, 463, 143, -1,
   369, 418, 370, -1,
   370, 418, 473, -1,
   370, 473, 504, -1,
   144, 370, 504, -1,
   243, 371, 468, -1,
   324, 469, 161, -1,
   180, 158, 425, -1,
   425, 158, 429, -1,
   514, 508, 493, -1,
   503, 467, 395, -1,
   392, 446, 505, -1,
   276, 424, 515, -1,
   516, 368, 411, -1,
   517, 489, 437, -1,
   437, 489, 444, -1,
   445, 490, 477, -1,
   480, 490, 445, -1,
   443, 509, 423, -1,
   394, 248, 376, -1,
   394, 246, 248, -1,
   435, 424, 276, -1,
   276, 515, 277, -1,
   398, 422, 399, -1,
   399, 422, 435, -1,
   496, 474, 367, -1,
   496, 367, 366, -1,
   397, 368, 516, -1,
   432, 503, 518, -1,
   277, 489, 517, -1,
   515, 489, 277, -1,
   515, 479, 489, -1,
   424, 479, 515, -1,
   424, 373, 479, -1,
   423, 373, 424, -1,
   423, 374, 373, -1,
   509, 374, 423, -1,
   509, 519, 374, -1,
   442, 519, 509, -1,
   442, 507, 519, -1,
   126, 507, 442, -1,
   126, 508, 507, -1,
   355, 508, 126, -1,
   355, 492, 508, -1,
   354, 492, 355, -1,
   354, 433, 492, -1,
   470, 433, 354, -1,
   470, 131, 433, -1,
   397, 131, 470, -1,
   397, 132, 131, -1,
   516, 132, 397, -1,
   516, 518, 132, -1,
   411, 518, 516, -1,
   411, 432, 518, -1,
   439, 432, 411, -1,
   439, 431, 432, -1,
   495, 431, 439, -1,
   495, 486, 431, -1,
   506, 486, 495, -1,
   506, 497, 486, -1,
   465, 497, 506, -1,
   465, 471, 497, -1,
   466, 471, 465, -1,
   466, 513, 471, -1,
   502, 513, 466, -1,
   502, 197, 513, -1,
   197, 502, 195, -1,
   413, 297, 125, -1,
   498, 383, 472, -1,
   498, 472, 420, -1,
   510, 499, 483, -1,
   484, 510, 483, -1,
   481, 484, 459, -1,
   484, 483, 459, -1,
   434, 396, 308, -1,
   133, 396, 434, -1,
   129, 135, 511, -1,
   135, 514, 511, -1,
   325, 309, 448, -1,
   130, 325, 448, -1,
   432, 392, 505, -1,
   500, 481, 454, -1,
   500, 454, 218, -1,
   301, 456, 402, -1,
   456, 136, 402, -1,
   282, 281, 512, -1,
   281, 341, 512, -1,
   471, 429, 488, -1,
   471, 488, 497, -1,
   410, 144, 494, -1,
   410, 494, 439, -1,
   363, 414, 142, -1,
   487, 463, 414, -1,
   143, 463, 369, -1,
   463, 417, 369, -1,
   468, 147, 469, -1,
   468, 469, 324, -1,
   513, 425, 471, -1,
   491, 507, 135, -1,
   444, 489, 480, -1,
   437, 444, 436, -1,
   278, 277, 437, -1,
   437, 277, 517, -1,
   518, 503, 132, -1,
   477, 319, 318, -1,
   490, 319, 477, -1,
   297, 355, 126, -1,
   363, 487, 414, -1,
   483, 487, 363, -1,
   484, 405, 510, -1,
   405, 282, 510, -1,
   460, 363, 362, -1,
   458, 460, 362, -1,
   511, 514, 307, -1,
   511, 307, 130, -1,
   493, 434, 307, -1,
   514, 493, 307, -1,
   280, 351, 281, -1,
   351, 482, 281, -1,
   508, 492, 493, -1,
   374, 519, 491, -1,
   519, 507, 491, -1
  ]
 }
}
Shape {
 appearance Appearance { material Material {
  diffuseColor 0.8510 0.5412 0.0627
  specularColor 0.250 0.250 0.250
  ambientIntensity 0.4
  shininess 0.30
 } }
 geometry IndexedFaceSet {
  creaseAngle 0.5
  coord Coordinate { point [
   0.73882 0.11701 0.23622,
   0.71142 0.23114 0.00000,
   0.71142 0.23114 0.23622,
   0.73882 0.11701 0.00000,
   0.74803 0.00000 0.23622,
   0.74803 0.00000 0.00000,
   0.33961 -0.66650 0.00000,
   0.43969 -0.60516 0.23622,
   0.33961 -0.66650 0.23622,
   0.43969 -0.60516 0.00000,
   0.00000 -0.74803 0.00000,
   0.11701 -0.73882 0.23622,
   0.00000 -0.74803 0.23622,
   0.11701 -0.73882 0.00000,
   0.23114 -0.71142 0.00000,
   0.23114 -0.71142 0.23622,
   -0.23114 0.71142 0.00000,
   -0.33961 0.66650 0.23622,
   -0.23114 0.71142 0.23622,
   -0.33961 0.66650 0.00000,
   -0.43969 0.60516 0.23622,
   -0.43969 0.60516 0.00000,
   -0.11701 -0.73882 0.00000,
   -0.11701 -0.73882 0.23622,
   -0.11701 0.73882 0.00000,
   -0.11701 0.73882 0.23622,
   0.00000 0.74803 0.00000,
   0.00000 0.74803 0.23622,
   0.66650 -0.33961 0.23622,
   0.71142 -0.23114 0.00000,
   0.71142 -0.23114 0.23622,
   0.66650 -0.33961 0.00000,
   -0.52894 -0.52894 0.00000,
   -0.57087 -0.47984 0.23622,
   -0.57087 -0.47984 0.00000,
   -0.52894 -0.52894 0.23622,
   -0.52894 0.52894 0.23622,
   -0.52894 0.52894 0.00000,
   -0.57087 0.47984 0.00000,
   -0.57087 0.47984 0.23622,
   0.60516 -0.43969 0.23622,
   0.60516 -0.43969 0.00000,
   0.60516 0.43969 0.23622,
   0.52894 0.52894 0.00000,
   0.52894 0.52894 0.23622,
   0.60516 0.43969 0.00000,
   0.73882 -0.11701 0.23622,
   0.73882 -0.11701 0.00000,
   -0.43969 -0.60516 0.00000,
   -0.33961 -0.66650 0.23622,
   -0.43969 -0.60516 0.23622,
   -0.33961 -0.66650 0.00000,
   0.66650 0.33961 0.00000,
   0.52894 -0.52894 0.00000,
   0.43969 0.60516 0.00000,
   0.33961 0.66650 0.00000,
   0.23114 0.71142 0.00000,
   0.11701 0.73882 0.00000,
   -0.23114 -0.71142 0.00000,
   0.66650 0.33961 0.23622,
   0.23114 0.71142 0.23622,
   0.33961 0.66650 0.23622,
   0.43969 0.60516 0.23622,
   0.11701 0.73882 0.23622,
   -0.23114 -0.71142 0.23622,
   0.52894 -0.52894 0.23622
  ] }
  coordIndex [
   0, 1, 2, -1,
   1, 0, 3, -1,
   4, 3, 0, -1,
   3, 4, 5, -1,
   6, 7, 8, -1,
   7, 6, 9, -1,
   10, 11, 12, -1,
   11, 10, 13, -1,
   14, 8, 15, -1,
   8, 14, 6, -1,
   16, 17, 18, -1,
   17, 16, 19, -1,
   19, 20, 17, -1,
   20, 19, 21, -1,
   22, 12, 23, -1,
   12, 22, 10, -1,
   24, 18, 25, -1,
   18, 24, 16, -1,
   26, 25, 27, -1,
   25, 26, 24, -1,
   28, 29, 30, -1,
   29, 28, 31, -1,
   32, 33, 34, -1,
   33, 32, 35, -1,
   21, 36, 20, -1,
   36, 21, 37, -1,
   38, 36, 37, -1,
   36, 38, 39, -1,
   40, 31, 28, -1,
   31, 40, 41, -1,
   42, 43, 44, -1,
   43, 42, 45, -1,
   46, 5, 4, -1,
   5, 46, 47, -1,
   48, 49, 50, -1,
   49, 48, 51, -1,
   47, 3, 5, -1,
   29, 3, 47, -1,
   29, 1, 3, -1,
   31, 1, 29, -1,
   31, 52, 1, -1,
   41, 52, 31, -1,
   41, 45, 52, -1,
   53, 45, 41, -1,
   53, 43, 45, -1,
   9, 43, 53, -1,
   9, 54, 43, -1,
   6, 54, 9, -1,
   6, 55, 54, -1,
   14, 55, 6, -1,
   14, 56, 55, -1,
   13, 56, 14, -1,
   13, 57, 56, -1,
   10, 57, 13, -1,
   10, 26, 57, -1,
   22, 26, 10, -1,
   22, 24, 26, -1,
   58, 24, 22, -1,
   58, 16, 24, -1,
   51, 16, 58, -1,
   51, 19, 16, -1,
   34, 51, 48, -1,
   51, 34, 19, -1,
   34, 48, 32, -1,
   38, 19, 34, -1,
   19, 38, 21, -1,
   21, 38, 37, -1,
   2, 52, 59, -1,
   52, 2, 1, -1,
   32, 50, 35, -1,
   50, 32, 48, -1,
   55, 60, 61, -1,
   60, 55, 56, -1,
   54, 61, 62, -1,
   61, 54, 55, -1,
   43, 62, 44, -1,
   62, 43, 54, -1,
   30, 47, 46, -1,
   47, 30, 29, -1,
   56, 63, 60, -1,
   63, 56, 57, -1,
   59, 45, 42, -1,
   45, 59, 52, -1,
   13, 15, 11, -1,
   15, 13, 14, -1,
   58, 23, 64, -1,
   23, 58, 22, -1,
   57, 27, 63, -1,
   27, 57, 26, -1,
   65, 41, 40, -1,
   41, 65, 53, -1,
   51, 64, 49, -1,
   64, 51, 58, -1,
   0, 46, 4, -1,
   2, 46, 0, -1,
   2, 30, 46, -1,
   59, 30, 2, -1,
   59, 28, 30, -1,
   42, 28, 59, -1,
   42, 40, 28, -1,
   44, 40, 42, -1,
   44, 65, 40, -1,
   62, 65, 44, -1,
   62, 7, 65, -1,
   61, 7, 62, -1,
   61, 8, 7, -1,
   60, 8, 61, -1,
   60, 15, 8, -1,
   63, 15, 60, -1,
   63, 11, 15, -1,
   27, 11, 63, -1,
   27, 12, 11, -1,
   25, 12, 27, -1,
   25, 23, 12, -1,
   18, 23, 25, -1,
   18, 64, 23, -1,
   17, 64, 18, -1,
   17, 49, 64, -1,
   39, 17, 20, -1,
   17, 39, 49, -1,
   39, 20, 36, -1,
   33, 49, 39, -1,
   49, 33, 50, -1,
   50, 33, 35, -1,
   9, 65, 7, -1,
   65, 9, 53, -1,
   34, 39, 38, -1,
   39, 34, 33, -1
  ]
 }
}
Shape {
 appearance Appearance { material Material {
  diffuseColor 0.7882 0.7882 0.7882
  specularColor 0.250 0.250 0.250
  ambientIntensity 0.4
  shininess 0.30
 } }
 geometry IndexedFaceSet {
  creaseAngle 0.5
  coord Coordinate { point [
   -0.42035 0.05783 0.11811,
   -0.42035 -0.05783 0.11811,
   -0.40157 0.00000 0.11811,
   -0.46957 0.09362 0.11811,
   -0.46957 -0.09362 0.11811,
   -0.53043 0.09362 0.11811,
   -0.53043 -0.09362 0.11811,
   -0.57965 0.05783 0.11811,
   -0.57965 -0.05783 0.11811,
   -0.59843 0.00000 0.11811,
   -0.57965 -0.05783 -1.22047,
   -0.59843 0.00000 -1.22047,
   -0.42035 0.05783 -1.22047,
   -0.46957 0.09362 -1.22047,
   -0.40157 0.00000 -1.22047,
   -0.53043 0.09362 -1.22047,
   -0.53043 -0.09362 -1.22047,
   -0.46957 -0.09362 -1.22047,
   -0.42035 -0.05783 -1.22047,
   -0.57965 0.05783 -1.22047,
   0.57965 0.05783 0.11811,
   0.57965 -0.05783 0.11811,
   0.59843 0.00000 0.11811,
   0.53043 0.09362 0.11811,
   0.53043 -0.09362 0.11811,
   0.46957 0.09362 0.11811,
   0.46957 -0.09362 0.11811,
   0.42035 0.05783 0.11811,
   0.42035 -0.05783 0.11811,
   0.40157 0.00000 0.11811,
   0.42035 -0.05783 -1.22047,
   0.40157 0.00000 -1.22047,
   0.57965 0.05783 -1.22047,
   0.53043 0.09362 -1.22047,
   0.59843 0.00000 -1.22047,
   0.46957 0.09362 -1.22047,
   0.46957 -0.09362 -1.22047,
   0.53043 -0.09362 -1.22047,
   0.57965 -0.05783 -1.22047,
   0.42035 0.05783 -1.22047
  ] }
  coordIndex [
   0, 1, 2, -1,
   3, 1, 0, -1,
   3, 4, 1, -1,
   5, 4, 3, -1,
   5, 6, 4, -1,
   7, 6, 5, -1,
   7, 8, 6, -1,
   8, 7, 9, -1,
   10, 9, 11, -1,
   9, 10, 8, -1,
   12, 3, 0, -1,
   3, 12, 13, -1,
   2, 12, 0, -1,
   12, 2, 14, -1,
   13, 5, 3, -1,
   5, 13, 15, -1,
   16, 4, 6, -1,
   4, 16, 17, -1,
   1, 14, 2, -1,
   14, 1, 18, -1,
   15, 7, 5, -1,
   7, 15, 19, -1,
   11, 7, 19, -1,
   7, 11, 9, -1,
   17, 1, 4, -1,
   1, 17, 18, -1,
   18, 12, 14, -1,
   17, 12, 18, -1,
   17, 13, 12, -1,
   16, 13, 17, -1,
   16, 15, 13, -1,
   10, 15, 16, -1,
   10, 19, 15, -1,
   19, 10, 11, -1,
   10, 6, 8, -1,
   6, 10, 16, -1,
   20, 21, 22, -1,
   23, 21, 20, -1,
   23, 24, 21, -1,
   25, 24, 23, -1,
   25, 26, 24, -1,
   27, 26, 25, -1,
   27, 28, 26, -1,
   28, 27, 29, -1,
   30, 29, 31, -1,
   29, 30, 28, -1,
   32, 23, 20, -1,
   23, 32, 33, -1,
   22, 32, 20, -1,
   32, 22, 34, -1,
   33, 25, 23, -1,
   25, 33, 35, -1,
   36, 24, 26, -1,
   24, 36, 37, -1,
   21, 34, 22, -1,
   34, 21, 38, -1,
   35, 27, 25, -1,
   27, 35, 39, -1,
   31, 27, 39, -1,
   27, 31, 29, -1,
   37, 21, 24, -1,
   21, 37, 38, -1,
   38, 32, 34, -1,
   37, 32, 38, -1,
   37, 33, 32, -1,
   36, 33, 37, -1,
   36, 35, 33, -1,
   30, 35, 36, -1,
   30, 39, 35, -1,
   39, 30, 31, -1,
   30, 26, 28, -1,
   26, 30, 36, -1
  ]
 }
}
