#VRML V2.0 utf8
# mlt05_lying: written by tools/build_models3d.py from 3d/populated/models/axial_lying.scad; layers body #7d8140, band #8a2b1d, leads #c9c9c9
Shape {
 appearance Appearance { material Material {
  diffuseColor 0.4902 0.5059 0.2510
  specularColor 0.250 0.250 0.250
  ambientIntensity 0.4
  shininess 0.30
 } }
 geometry IndexedFaceSet {
  creaseAngle 0.5
  coord Coordinate { point [
   0.87402 0.00000 0.19685,
   5.12598 0.16130 0.21276,
   5.12598 0.00000 0.19685,
   0.87402 0.16130 0.21276,
   5.12598 0.31638 0.25980,
   0.87402 0.31638 0.25980,
   5.12598 0.45933 0.33618,
   0.87402 0.45933 0.33618,
   5.12598 0.58461 0.43902,
   0.87402 0.58461 0.43902,
   0.87402 0.68744 0.56429,
   5.12598 0.68744 0.56429,
   0.87402 0.76386 0.70724,
   5.12598 0.76386 0.70724,
   0.87402 0.81087 0.86232,
   5.12598 0.81087 0.86232,
   0.87402 0.82677 1.02362,
   5.12598 0.82677 1.02362,
   0.87402 0.81087 1.18492,
   5.12598 0.81087 1.18492,
   0.87402 0.76386 1.34000,
   5.12598 0.76386 1.34000,
   0.87402 0.68744 1.48295,
   5.12598 0.68744 1.48295,
   0.87402 0.58461 1.60823,
   5.12598 0.58461 1.60823,
   5.12598 0.45933 1.71106,
   0.87402 0.45933 1.71106,
   5.12598 0.31638 1.78744,
   0.87402 0.31638 1.78744,
   5.12598 0.16130 1.83453,
   0.87402 0.16130 1.83453,
   5.12598 0.00000 1.85039,
   0.87402 0.00000 1.85039,
   5.12598 -0.16130 1.83453,
   0.87402 -0.16130 1.83453,
   5.12598 -0.31638 1.78744,
   0.87402 -0.31638 1.78744,
   5.12598 -0.45933 1.71106,
   0.87402 -0.45933 1.71106,
   5.12598 -0.58461 1.60823,
   0.87402 -0.58461 1.60823,
   0.87402 -0.68744 1.48295,
   5.12598 -0.68744 1.48295,
   0.87402 -0.76386 1.34000,
   5.12598 -0.76386 1.34000,
   0.87402 -0.81087 1.18492,
   5.12598 -0.81087 1.18492,
   0.87402 -0.82677 1.02362,
   5.12598 -0.82677 1.02362,
   0.87402 -0.81087 0.86232,
   5.12598 -0.81087 0.86232,
   0.87402 -0.76386 0.70724,
   5.12598 -0.76386 0.70724,
   0.87402 -0.68744 0.56429,
   5.12598 -0.68744 0.56429,
   0.87402 -0.58461 0.43902,
   5.12598 -0.58461 0.43902,
   5.12598 -0.45933 0.33618,
   0.87402 -0.45933 0.33618,
   5.12598 -0.31638 0.25980,
   0.87402 -0.31638 0.25980,
   5.12598 -0.16130 0.21276,
   0.87402 -0.16130 0.21276
  ] }
  coordIndex [
   0, 1, 2, -1,
   1, 0, 3, -1,
   3, 4, 1, -1,
   4, 3, 5, -1,
   5, 6, 4, -1,
   6, 5, 7, -1,
   7, 8, 6, -1,
   8, 7, 9, -1,
   8, 10, 11, -1,
   10, 8, 9, -1,
   11, 12, 13, -1,
   12, 11, 10, -1,
   13, 14, 15, -1,
   14, 13, 12, -1,
   15, 16, 17, -1,
   16, 15, 14, -1,
   17, 18, 19, -1,
   18, 17, 16, -1,
   19, 20, 21, -1,
   20, 19, 18, -1,
   21, 22, 23, -1,
   22, 21, 20, -1,
   23, 24, 25, -1,
   24, 23, 22, -1,
   24, 26, 25, -1,
   26, 24, 27, -1,
   27, 28, 26, -1,
   28, 27, 29, -1,
   29, 30, 28, -1,
   30, 29, 31, -1,
   31, 32, 30, -1,
   32, 31, 33, -1,
   33, 34, 32, -1,
   34, 33, 35, -1,
   35, 36, 34, -1,
   36, 35, 37, -1,
   37, 38, 36, -1,
   38, 37, 39, -1,
   39, 40, 38, -1,
   40, 39, 41, -1,
   42, 40, 41, -1,
   40, 42, 43, -1,
   44, 43, 42, -1,
   43, 44, 45, -1,
   46, 45, 44, -1,
   45, 46, 47, -1,
   48, 47, 46, -1,
   47, 48, 49, -1,
   50, 49, 48, -1,
   49, 50, 51, -1,
   52, 51, 50, -1,
   51, 52, 53, -1,
   54, 53, 52, -1,
   53, 54, 55, -1,
   56, 55, 54, -1,
   55, 56, 57, -1,
   56, 58, 57, -1,
   58, 56, 59, -1,
   59, 60, 58, -1,
   60, 59, 61, -1,
   61, 62, 60, -1,
   62, 61, 63, -1,
   63, 2, 62, -1,
   2, 63, 0, -1,
   14, 18, 16, -1,
   12, 18, 14, -1,
   12, 20, 18, -1,
   10, 20, 12, -1,
   10, 22, 20, -1,
   9, 22, 10, -1,
   9, 24, 22, -1,
   7, 24, 9, -1,
   7, 27, 24, -1,
   5, 27, 7, -1,
   5, 29, 27, -1,
   3, 29, 5, -1,
   3, 31, 29, -1,
   0, 31, 3, -1,
   0, 33, 31, -1,
   63, 33, 0, -1,
   63, 35, 33, -1,
   61, 35, 63, -1,
   61, 37, 35, -1,
   59, 37, 61, -1,
   59, 39, 37, -1,
   56, 39, 59, -1,
   56, 41, 39, -1,
   54, 41, 56, -1,
   54, 42, 41, -1,
   52, 42, 54, -1,
   52, 44, 42, -1,
   50, 44, 52, -1,
   50, 46, 44, -1,
   46, 50, 48, -1,
   19, 15, 17, -1,
   21, 15, 19, -1,
   21, 13, 15, -1,
   23, 13, 21, -1,
   23, 11, 13, -1,
   25, 11, 23, -1,
   25, 8, 11, -1,
   26, 8, 25, -1,
   26, 6, 8, -1,
   28, 6, 26, -1,
   28, 4, 6, -1,
   30, 4, 28, -1,
   30, 1, 4, -1,
   32, 1, 30, -1,
   32, 2, 1, -1,
   34, 2, 32, -1,
   34, 62, 2, -1,
   36, 62, 34, -1,
   36, 60, 62, -1,
   38, 60, 36, -1,
   38, 58, 60, -1,
   40, 58, 38, -1,
   40, 57, 58, -1,
   43, 57, 40, -1,
   43, 55, 57, -1,
   45, 55, 43, -1,
   45, 53, 55, -1,
   47, 53, 45, -1,
   47, 51, 53, -1,
   51, 47, 49, -1
  ]
 }
}
Shape {
 appearance Appearance { material Material {
  diffuseColor 0.5412 0.1686 0.1137
  specularColor 0.250 0.250 0.250
  ambientIntensity 0.4
  shininess 0.30
 } }
 geometry IndexedFaceSet {
  creaseAngle 0.5
  coord Coordinate { point [
   1.50394 0.46370 1.71760,
   1.77953 0.31941 1.79472,
   1.77953 0.46370 1.71760,
   1.50394 0.31941 1.79472,
   1.50394 -0.81862 0.86079,
   1.77953 -0.83465 1.02362,
   1.50394 -0.83465 1.02362,
   1.77953 -0.81862 0.86079,
   1.50394 -0.77110 0.70421,
   1.77953 -0.77110 0.70421,
   1.50394 -0.59020 0.43343,
   1.77953 -0.46370 0.32965,
   1.77953 -0.59020 0.43343,
   1.50394 -0.46370 0.32965,
   1.77953 0.59020 0.43343,
   1.50394 0.69398 0.55992,
   1.77953 0.69398 0.55992,
   1.50394 0.59020 0.43343,
   1.50394 0.00000 0.18898,
   1.77953 0.16283 0.20500,
   1.77953 0.00000 0.18898,
   1.50394 0.16283 0.20500,
   1.50394 -0.31941 1.79472,
   1.77953 -0.46370 1.71760,
   1.77953 -0.31941 1.79472,
   1.50394 -0.46370 1.71760,
   1.77953 0.81862 0.86079,
   1.50394 0.83465 1.02362,
   1.77953 0.83465 1.02362,
   1.50394 0.81862 0.86079,
   1.50394 0.46370 0.32965,
   1.77953 0.46370 0.32965,
   1.77953 0.81862 1.18646,
   1.50394 0.77110 1.34303,
   1.77953 0.77110 1.34303,
   1.50394 0.81862 1.18646,
   1.50394 -0.69398 1.48732,
   1.77953 -0.59020 1.61382,
   1.50394 -0.59020 1.61382,
   1.77953 -0.69398 1.48732,
   1.77953 0.31941 0.25252,
   1.50394 0.31941 0.25252,
   1.50394 0.16283 1.84224,
   1.77953 0.00000 1.85827,
   1.77953 0.16283 1.84224,
   1.50394 0.00000 1.85827,
   1.77953 -0.31941 0.25252,
   1.50394 -0.31941 0.25252,
   1.50394 0.77110 0.70421,
   1.50394 0.69398 1.48732,
   1.50394 0.59020 1.61382,
   1.50394 -0.16283 0.20500,
   1.50394 -0.16283 1.84224,
   1.50394 -0.69398 0.55992,
   1.50394 -0.77110 1.34303,
   1.50394 -0.81862 1.18646,
   1.77953 -0.16283 1.84224,
   1.77953 -0.77110 1.34303,
   1.77953 0.77110 0.70421,
   1.77953 0.69398 1.48732,
   1.77953 0.59020 1.61382,
   1.77953 -0.16283 0.20500,
   1.77953 -0.69398 0.55992,
   1.77953 -0.81862 1.18646,
   2.01575 -0.59020 0.43343,
   2.29134 -0.69398 0.55992,
   2.01575 -0.69398 0.55992,
   2.29134 -0.59020 0.43343,
   2.01575 0.31941 0.25252,
   2.29134 0.46370 0.32965,
   2.29134 0.31941 0.25252,
   2.01575 0.46370 0.32965,
   2.01575 -0.16283 1.84224,
   2.29134 -0.31941 1.79472,
   2.29134 -0.16283 1.84224,
   2.01575 -0.31941 1.79472,
   2.01575 -0.77110 0.70421,
   2.29134 -0.81862 0.86079,
   2.01575 -0.81862 0.86079,
   2.29134 -0.77110 0.70421,
   2.01575 0.16283 0.20500,
   2.29134 0.16283 0.20500,
   2.01575 -0.46370 1.71760,
   2.29134 -0.59020 1.61382,
   2.29134 -0.46370 1.71760,
   2.01575 -0.59020 1.61382,
   2.29134 -0.46370 0.32965,
   2.01575 -0.46370 0.32965,
   2.29134 0.59020 0.43343,
   2.01575 0.69398 0.55992,
   2.29134 0.69398 0.55992,
   2.01575 0.59020 0.43343,
   2.29134 -0.83465 1.02362,
   2.01575 -0.83465 1.02362,
   2.01575 0.59020 1.61382,
   2.29134 0.46370 1.71760,
   2.29134 0.59020 1.61382,
   2.01575 0.46370 1.71760,
   2.01575 -0.77110 1.34303,
   2.29134 -0.69398 1.48732,
   2.01575 -0.69398 1.48732,
   2.29134 -0.77110 1.34303,
   2.29134 0.81862 0.86079,
   2.01575 0.83465 1.02362,
   2.29134 0.83465 1.02362,
   2.01575 0.81862 0.86079,
   2.29134 0.77110 0.70421,
   2.01575 0.77110 0.70421,
   2.29134 0.69398 1.48732,
   2.01575 0.69398 1.48732,
   2.01575 0.00000 0.18898,
   2.29134 0.00000 0.18898,
   2.29134 0.31941 1.79472,
   2.01575 0.31941 1.79472,
   2.01575 0.81862 1.18646,
   2.29134 0.81862 1.18646,
   2.01575 0.16283 1.84224,
   2.29134 0.00000 1.85827,
   2.29134 0.16283 1.84224,
   2.01575 0.00000 1.85827,
   2.01575 0.77110 1.34303,
   2.29134 0.77110 1.34303,
   2.01575 -0.16283 0.20500,
   2.01575 -0.31941 0.25252,
   2.01575 -0.81862 1.18646,
   2.29134 -0.31941 0.25252,
   2.29134 -0.81862 1.18646,
   2.29134 -0.16283 0.20500,
   2.52756 0.46370 1.71760,
   2.80315 0.31941 1.79472,
   2.80315 0.46370 1.71760,
   2.52756 0.31941 1.79472,
   2.52756 -0.81862 0.86079,
   2.80315 -0.83465 1.02362,
   2.52756 -0.83465 1.02362,
   2.80315 -0.81862 0.86079,
   2.52756 -0.77110 0.70421,
   2.80315 -0.77110 0.70421,
   2.52756 -0.59020 0.43343,
   2.80315 -0.46370 0.32965,
   2.80315 -0.59020 0.43343,
   2.52756 -0.46370 0.32965,
   2.80315 0.59020 0.43343,
   2.52756 0.69398 0.55992,
   2.80315 0.69398 0.55992,
   2.52756 0.59020 0.43343,
   2.52756 0.00000 0.18898,
   2.80315 0.16283 0.20500,
   2.80315 0.00000 0.18898,
   2.52756 0.16283 0.20500,
   2.80315 0.77110 0.70421,
   2.52756 0.81862 0.86079,
   2.80315 0.81862 0.86079,
   2.52756 0.77110 0.70421,
   2.52756 -0.31941 1.79472,
   2.80315 -0.46370 1.71760,
   2.80315 -0.31941 1.79472,
   2.52756 -0.46370 1.71760,
   2.52756 0.83465 1.02362,
   2.80315 0.83465 1.02362,
   2.52756 0.46370 0.32965,
   2.80315 0.46370 0.32965,
   2.80315 0.81862 1.18646,
   2.52756 0.77110 1.34303,
   2.80315 0.77110 1.34303,
   2.52756 0.81862 1.18646,
   2.52756 -0.69398 1.48732,
   2.80315 -0.59020 1.61382,
   2.52756 -0.59020 1.61382,
   2.80315 -0.69398 1.48732,
   2.80315 0.31941 0.25252,
   2.52756 0.31941 0.25252,
   2.52756 0.16283 1.84224,
   2.80315 0.00000 1.85827,
   2.80315 0.16283 1.84224,
   2.52756 0.00000 1.85827,
   2.80315 -0.31941 0.25252,
   2.52756 -0.31941 0.25252,
   2.52756 0.69398 1.48732,
   2.52756 0.59020 1.61382,
   2.52756 -0.16283 0.20500,
   2.52756 -0.16283 1.84224,
   2.52756 -0.69398 0.55992,
   2.52756 -0.77110 1.34303,
   2.52756 -0.81862 1.18646,
   2.80315 -0.16283 1.84224,
   2.80315 -0.77110 1.34303,
   2.80315 0.69398 1.48732,
   2.80315 0.59020 1.61382,
   2.80315 -0.16283 0.20500,
   2.80315 -0.69398 0.55992,
   2.80315 -0.81862 1.18646,
   4.57480 0.46370 1.71760,
   4.85039 0.31941 1.79472,
   4.85039 0.46370 1.71760,
   4.57480 0.31941 1.79472,
   4.57480 -0.81862 0.86079,
   4.85039 -0.83465 1.02362,
   4.57480 -0.83465 1.02362,
   4.85039 -0.81862 0.86079,
   4.57480 -0.77110 0.70421,
   4.85039 -0.77110 0.70421,
   4.57480 -0.59020 0.43343,
   4.85039 -0.46370 0.32965,
   4.85039 -0.59020 0.43343,
   4.57480 -0.46370 0.32965,
   4.85039 0.59020 0.43343,
   4.57480 0.69398 0.55992,
   4.85039 0.69398 0.55992,
   4.57480 0.59020 0.43343,
   4.57480 0.00000 0.18898,
   4.85039 0.16283 0.20500,
   4.85039 0.00000 0.18898,
   4.57480 0.16283 0.20500,
   4.57480 -0.31941 1.79472,
   4.85039 -0.46370 1.71760,
   4.85039 -0.31941 1.79472,
   4.57480 -0.46370 1.71760,
   4.85039 0.81862 0.86079,
   4.57480 0.83465 1.02362,
   4.85039 0.83465 1.02362,
   4.57480 0.81862 0.86079,
   4.57480 0.46370 0.32965,
   4.85039 0.46370 0.32965,
   4.85039 0.81862 1.18646,
   4.57480 0.77110 1.34303,
   4.85039 0.77110 1.34303,
   4.57480 0.81862 1.18646,
   4.57480 -0.69398 1.48732,
   4.85039 -0.59020 1.61382,
   4.57480 -0.59020 1.61382,
   4.85039 -0.69398 1.48732,
   4.85039 0.31941 0.25252,
   4.57480 0.31941 0.25252,
   4.57480 0.16283 1.84224,
   4.85039 0.00000 1.85827,
   4.85039 0.16283 1.84224,
   4.57480 0.00000 1.85827,
   4.85039 -0.31941 0.25252,
   4.57480 -0.31941 0.25252,
   4.57480 0.77110 0.70421,
   4.57480 0.69398 1.48732,
   4.57480 0.59020 1.61382,
   4.57480 -0.16283 0.20500,
   4.57480 -0.16283 1.84224,
   4.57480 -0.69398 0.55992,
   4.57480 -0.77110 1.34303,
   4.57480 -0.81862 1.18646,
   4.85039 -0.16283 1.84224,
   4.85039 -0.77110 1.34303,
   4.85039 0.77110 0.70421,
   4.85039 0.69398 1.48732,
   4.85039 0.59020 1.61382,
   4.85039 -0.16283 0.20500,
   4.85039 -0.69398 0.55992,
   4.85039 -0.81862 1.18646
  ] }
  coordIndex [
   0, 1, 2, -1,
   1, 0, 3, -1,
   4, 5, 6, -1,
   5, 4, 7, -1,
   8, 7, 4, -1,
   7, 8, 9, -1,
   10, 11, 12, -1,
   11, 10, 13, -1,
   14, 15, 16, -1,
   15, 14, 17, -1,
   18, 19, 20, -1,
   19, 18, 21, -1,
   22, 23, 24, -1,
   23, 22, 25, -1,
   26, 27, 28, -1,
   27, 26, 29, -1,
   30, 14, 31, -1,
   14, 30, 17, -1,
   32, 33, 34, -1,
   33, 32, 35, -1,
   36, 37, 38, -1,
   37, 36, 39, -1,
   21, 40, 19, -1,
   40, 21, 41, -1,
   42, 43, 44, -1,
   43, 42, 45, -1,
   13, 46, 11, -1,
   46, 13, 47, -1,
   29, 35, 27, -1,
   48, 35, 29, -1,
   48, 33, 35, -1,
   15, 33, 48, -1,
   15, 49, 33, -1,
   17, 49, 15, -1,
   17, 50, 49, -1,
   30, 50, 17, -1,
   30, 0, 50, -1,
   41, 0, 30, -1,
   41, 3, 0, -1,
   21, 3, 41, -1,
   21, 42, 3, -1,
   18, 42, 21, -1,
   18, 45, 42, -1,
   51, 45, 18, -1,
   51, 52, 45, -1,
   47, 52, 51, -1,
   47, 22, 52, -1,
   13, 22, 47, -1,
   13, 25, 22, -1,
   10, 25, 13, -1,
   10, 38, 25, -1,
   53, 38, 10, -1,
   53, 36, 38, -1,
   8, 36, 53, -1,
   8, 54, 36, -1,
   4, 54, 8, -1,
   4, 55, 54, -1,
   55, 4, 6, -1,
   52, 24, 56, -1,
   24, 52, 22, -1,
   54, 39, 36, -1,
   39, 54, 57, -1,
   45, 56, 43, -1,
   56, 45, 52, -1,
   32, 26, 28, -1,
   34, 26, 32, -1,
   34, 58, 26, -1,
   59, 58, 34, -1,
   59, 16, 58, -1,
   60, 16, 59, -1,
   60, 14, 16, -1,
   2, 14, 60, -1,
   2, 31, 14, -1,
   1, 31, 2, -1,
   1, 40, 31, -1,
   44, 40, 1, -1,
   44, 19, 40, -1,
   43, 19, 44, -1,
   43, 20, 19, -1,
   56, 20, 43, -1,
   56, 61, 20, -1,
   24, 61, 56, -1,
   24, 46, 61, -1,
   23, 46, 24, -1,
   23, 11, 46, -1,
   37, 11, 23, -1,
   37, 12, 11, -1,
   39, 12, 37, -1,
   39, 62, 12, -1,
   57, 62, 39, -1,
   57, 9, 62, -1,
   63, 9, 57, -1,
   63, 7, 9, -1,
   7, 63, 5, -1,
   53, 9, 8, -1,
   9, 53, 62, -1,
   16, 48, 58, -1,
   48, 16, 15, -1,
   59, 50, 60, -1,
   50, 59, 49, -1,
   34, 49, 59, -1,
   49, 34, 33, -1,
   3, 44, 1, -1,
   44, 3, 42, -1,
   47, 61, 46, -1,
   61, 47, 51, -1,
   41, 31, 40, -1,
   31, 41, 30, -1,
   28, 35, 32, -1,
   35, 28, 27, -1,
   50, 2, 60, -1,
   2, 50, 0, -1,
   51, 20, 61, -1,
   20, 51, 18, -1,
   25, 37, 23, -1,
   37, 25, 38, -1,
   10, 62, 53, -1,
   62, 10, 12, -1,
   55, 57, 54, -1,
   57, 55, 63, -1,
   58, 29, 26, -1,
   29, 58, 48, -1,
   6, 63, 55, -1,
   63, 6, 5, -1,
   64, 65, 66, -1,
   65, 64, 67, -1,
   68, 69, 70, -1,
   69, 68, 71, -1,
   72, 73, 74, -1,
   73, 72, 75, -1,
   76, 77, 78, -1,
   77, 76, 79, -1,
   80, 70, 81, -1,
   70, 80, 68, -1,
   82, 83, 84, -1,
   83, 82, 85, -1,
   64, 86, 67, -1,
   86, 64, 87, -1,
   88, 89, 90, -1,
   89, 88, 91, -1,
   78, 92, 93, -1,
   92, 78, 77, -1,
   94, 95, 96, -1,
   95, 94, 97, -1,
   98, 99, 100, -1,
   99, 98, 101, -1,
   71, 88, 69, -1,
   88, 71, 91, -1,
   102, 103, 104, -1,
   103, 102, 105, -1,
   106, 105, 102, -1,
   105, 106, 107, -1,
   108, 94, 96, -1,
   94, 108, 109, -1,
   110, 81, 111, -1,
   81, 110, 80, -1,
   97, 112, 95, -1,
   112, 97, 113, -1,
   104, 114, 115, -1,
   114, 104, 103, -1,
   116, 117, 118, -1,
   117, 116, 119, -1,
   115, 120, 121, -1,
   120, 115, 114, -1,
   90, 107, 106, -1,
   107, 90, 89, -1,
   105, 114, 103, -1,
   107, 114, 105, -1,
   107, 120, 114, -1,
   89, 120, 107, -1,
   89, 109, 120, -1,
   91, 109, 89, -1,
   91, 94, 109, -1,
   71, 94, 91, -1,
   71, 97, 94, -1,
   68, 97, 71, -1,
   68, 113, 97, -1,
   80, 113, 68, -1,
   80, 116, 113, -1,
   110, 116, 80, -1,
   110, 119, 116, -1,
   122, 119, 110, -1,
   122, 72, 119, -1,
   123, 72, 122, -1,
   123, 75, 72, -1,
   87, 75, 123, -1,
   87, 82, 75, -1,
   64, 82, 87, -1,
   64, 85, 82, -1,
   66, 85, 64, -1,
   66, 100, 85, -1,
   76, 100, 66, -1,
   76, 98, 100, -1,
   78, 98, 76, -1,
   78, 124, 98, -1,
   124, 78, 93, -1,
   87, 125, 86, -1,
   125, 87, 123, -1,
   113, 118, 112, -1,
   118, 113, 116, -1,
   124, 101, 98, -1,
   101, 124, 126, -1,
   100, 83, 85, -1,
   83, 100, 99, -1,
   121, 109, 108, -1,
   109, 121, 120, -1,
   75, 84, 73, -1,
   84, 75, 82, -1,
   119, 74, 117, -1,
   74, 119, 72, -1,
   122, 111, 127, -1,
   111, 122, 110, -1,
   66, 79, 76, -1,
   79, 66, 65, -1,
   123, 127, 125, -1,
   127, 123, 122, -1,
   115, 102, 104, -1,
   121, 102, 115, -1,
   121, 106, 102, -1,
   108, 106, 121, -1,
   108, 90, 106, -1,
   96, 90, 108, -1,
   96, 88, 90, -1,
   95, 88, 96, -1,
   95, 69, 88, -1,
   112, 69, 95, -1,
   112, 70, 69, -1,
   118, 70, 112, -1,
   118, 81, 70, -1,
   117, 81, 118, -1,
   117, 111, 81, -1,
   74, 111, 117, -1,
   74, 127, 111, -1,
   73, 127, 74, -1,
   73, 125, 127, -1,
   84, 125, 73, -1,
   84, 86, 125, -1,
   83, 86, 84, -1,
   83, 67, 86, -1,
   99, 67, 83, -1,
   99, 65, 67, -1,
   101, 65, 99, -1,
   101, 79, 65, -1,
   126, 79, 101, -1,
   126, 77, 79, -1,
   77, 126, 92, -1,
   93, 126, 124, -1,
   126, 93, 92, -1,
   128, 129, 130, -1,
   129, 128, 131, -1,
   132, 133, 134, -1,
   133, 132, 135, -1,
   136, 135, 132, -1,
   135, 136, 137, -1,
   138, 139, 140, -1,
   139, 138, 141, -1,
   142, 143, 144, -1,
   143, 142, 145, -1,
   146, 147, 148, -1,
   147, 146, 149, -1,
   150, 151, 152, -1,
   151, 150, 153, -1,
   154, 155, 156, -1,
   155, 154, 157, -1,
   152, 158, 159, -1,
   158, 152, 151, -1,
   160, 142, 161, -1,
   142, 160, 145, -1,
   162, 163, 164, -1,
   163, 162, 165, -1,
   166, 167, 168, -1,
   167, 166, 169, -1,
   149, 170, 147, -1,
   170, 149, 171, -1,
   172, 173, 174, -1,
   173, 172, 175, -1,
   141, 176, 139, -1,
   176, 141, 177, -1,
   151, 165, 158, -1,
   153, 165, 151, -1,
   153, 163, 165, -1,
   143, 163, 153, -1,
   143, 178, 163, -1,
   145, 178, 143, -1,
   145, 179, 178, -1,
   160, 179, 145, -1,
   160, 128, 179, -1,
   171, 128, 160, -1,
   171, 131, 128, -1,
   149, 131, 171, -1,
   149, 172, 131, -1,
   146, 172, 149, -1,
   146, 175, 172, -1,
   180, 175, 146, -1,
   180, 181, 175, -1,
   177, 181, 180, -1,
   177, 154, 181, -1,
   141, 154, 177, -1,
   141, 157, 154, -1,
   138, 157, 141, -1,
   138, 168, 157, -1,
   182, 168, 138, -1,
   182, 166, 168, -1,
   136, 166, 182, -1,
   136, 183, 166, -1,
   132, 183, 136, -1,
   132, 184, 183, -1,
   184, 132, 134, -1,
   181, 156, 185, -1,
   156, 181, 154, -1,
   183, 169, 166, -1,
   169, 183, 186, -1,
   175, 185, 173, -1,
   185, 175, 181, -1,
   162, 152, 159, -1,
   164, 152, 162, -1,
   164, 150, 152, -1,
   187, 150, 164, -1,
   187, 144, 150, -1,
   188, 144, 187, -1,
   188, 142, 144, -1,
   130, 142, 188, -1,
   130, 161, 142, -1,
   129, 161, 130, -1,
   129, 170, 161, -1,
   174, 170, 129, -1,
   174, 147, 170, -1,
   173, 147, 174, -1,
   173, 148, 147, -1,
   185, 148, 173, -1,
   185, 189, 148, -1,
   156, 189, 185, -1,
   156, 176, 189, -1,
   155, 176, 156, -1,
   155, 139, 176, -1,
   167, 139, 155, -1,
   167, 140, 139, -1,
   169, 140, 167, -1,
   169, 190, 140, -1,
   186, 190, 169, -1,
   186, 137, 190, -1,
   191, 137, 186, -1,
   191, 135, 137, -1,
   135, 191, 133, -1,
   182, 137, 136, -1,
   137, 182, 190, -1,
   144, 153, 150, -1,
   153, 144, 143, -1,
   187, 179, 188, -1,
   179, 187, 178, -1,
   164, 178, 187, -1,
   178, 164, 163, -1,
   131, 174, 129, -1,
   174, 131, 172, -1,
   177, 189, 176, -1,
   189, 177, 180, -1,
   171, 161, 170, -1,
   161, 171, 160, -1,
   159, 165, 162, -1,
   165, 159, 158, -1,
   179, 130, 188, -1,
   130, 179, 128, -1,
   180, 148, 189, -1,
   148, 180, 146, -1,
   157, 167, 155, -1,
   167, 157, 168, -1,
   138, 190, 182, -1,
   190, 138, 140, -1,
   184, 186, 183, -1,
   186, 184, 191, -1,
   134, 191, 184, -1,
   191, 134, 133, -1,
   192, 193, 194, -1,
   193, 192, 195, -1,
   196, 197, 198, -1,
   197, 196, 199, -1,
   200, 199, 196, -1,
   199, 200, 201, -1,
   202, 203, 204, -1,
   203, 202, 205, -1,
   206, 207, 208, -1,
   207, 206, 209, -1,
   210, 211, 212, -1,
   211, 210, 213, -1,
   214, 215, 216, -1,
   215, 214, 217, -1,
   218, 219, 220, -1,
   219, 218, 221, -1,
   222, 206, 223, -1,
   206, 222, 209, -1,
   224, 225, 226, -1,
   225, 224, 227, -1,
   228, 229, 230, -1,
   229, 228, 231, -1,
   213, 232, 211, -1,
   232, 213, 233, -1,
   234, 235, 236, -1,
   235, 234, 237, -1,
   205, 238, 203, -1,
   238, 205, 239, -1,
   221, 227, 219, -1,
   240, 227, 221, -1,
   240, 225, 227, -1,
   207, 225, 240, -1,
   207, 241, 225, -1,
   209, 241, 207, -1,
   209, 242, 241, -1,
   222, 242, 209, -1,
   222, 192, 242, -1,
   233, 192, 222, -1,
   233, 195, 192, -1,
   213, 195, 233, -1,
   213, 234, 195, -1,
   210, 234, 213, -1,
   210, 237, 234, -1,
   243, 237, 210, -1,
   243, 244, 237, -1,
   239, 244, 243, -1,
   239, 214, 244, -1,
   205, 214, 239, -1,
   205, 217, 214, -1,
   202, 217, 205, -1,
   202, 230, 217, -1,
   245, 230, 202, -1,
   245, 228, 230, -1,
   200, 228, 245, -1,
   200, 246, 228, -1,
   196, 246, 200, -1,
   196, 247, 246, -1,
   247, 196, 198, -1,
   244, 216, 248, -1,
   216, 244, 214, -1,
   246, 231, 228, -1,
   231, 246, 249, -1,
   237, 248, 235, -1,
   248, 237, 244, -1,
   224, 218, 220, -1,
   226, 218, 224, -1,
   226, 250, 218, -1,
   251, 250, 226, -1,
   251, 208, 250, -1,
   252, 208, 251, -1,
   252, 206, 208, -1,
   194, 206, 252, -1,
   194, 223, 206, -1,
   193, 223, 194, -1,
   193, 232, 223, -1,
   236, 232, 193, -1,
   236, 211, 232, -1,
   235, 211, 236, -1,
   235, 212, 211, -1,
   248, 212, 235, -1,
   248, 253, 212, -1,
   216, 253, 248, -1,
   216, 238, 253, -1,
   215, 238, 216, -1,
   215, 203, 238, -1,
   229, 203, 215, -1,
   229, 204, 203, -1,
   231, 204, 229, -1,
   231, 254, 204, -1,
   249, 254, 231, -1,
   249, 201, 254, -1,
   255, 201, 249, -1,
   255, 199, 201, -1,
   199, 255, 197, -1,
   245, 201, 200, -1,
   201, 245, 254, -1,
   208, 240, 250, -1,
   240, 208, 207, -1,
   251, 242, 252, -1,
   242, 251, 241, -1,
   226, 241, 251, -1,
   241, 226, 225, -1,
   195, 236, 193, -1,
   236, 195, 234, -1,
   239, 253, 238, -1,
   253, 239, 243, -1,
   233, 223, 232, -1,
   223, 233, 222, -1,
   220, 227, 224, -1,
   227, 220, 219, -1,
   242, 194, 252, -1,
   194, 242, 192, -1,
   243, 212, 253, -1,
   212, 243, 210, -1,
   217, 229, 215, -1,
   229, 217, 230, -1,
   202, 254, 245, -1,
   254, 202, 204, -1,
   247, 249, 246, -1,
   249, 247, 255, -1,
   250, 221, 218, -1,
   221, 250, 240, -1,
   198, 255, 247, -1,
   255, 198, 197, -1
  ]
 }
}
Shape {
 appearance Appearance { material Material {
  diffuseColor 0.7882 0.7882 0.7882
  specularColor 0.250 0.250 0.250
  ambientIntensity 0.4
  shininess 0.30
 } }
 geometry IndexedFaceSet {
  creaseAngle 0.5
  coord Coordinate { point [
   -0.13638 -0.07874 -0.98425,
   -0.15748 0.00000 1.02362,
   -0.15748 0.00000 -0.98425,
   -0.13638 -0.07874 1.02362,
   0.08417 0.13094 0.93614,
   0.07874 0.13638 -0.98425,
   0.07874 0.13638 0.94630,
   0.10378 0.11134 0.91228,
   0.12764 0.08748 0.89268,
   0.13638 0.07874 0.88799,
   0.13638 0.07874 -0.98425,
   0.14134 0.06028 0.87811,
   0.14925 0.03071 0.86917,
   0.15748 0.00000 0.86614,
   0.15748 0.00000 -0.98425,
   0.00000 0.15748 -0.98425,
   0.04472 0.14551 0.96335,
   0.01130 0.15445 0.99291,
   0.00000 0.15748 1.02362,
   0.00000 -0.15748 -0.98425,
   0.01130 -0.15445 0.99291,
   0.00000 -0.15748 1.02362,
   0.04472 -0.14551 0.96335,
   0.07874 -0.13638 0.94630,
   0.07874 -0.13638 -0.98425,
   0.13638 -0.07874 -0.98425,
   0.14925 -0.03071 0.86917,
   0.14134 -0.06028 0.87811,
   0.13638 -0.07874 0.88799,
   -0.13638 0.07874 -0.98425,
   -0.07874 0.13638 1.02362,
   -0.07874 0.13638 -0.98425,
   -0.13638 0.07874 1.02362,
   0.12764 -0.08748 0.89268,
   0.10378 -0.11134 0.91228,
   0.08417 -0.13094 0.93614,
   -0.07606 0.13173 1.02362,
   0.00000 0.15213 1.02362,
   -0.13173 0.07606 1.02362,
   -0.15213 0.00000 1.02362,
   -0.07606 -0.13173 1.02362,
   0.00000 -0.15213 1.02362,
   -0.07874 -0.13638 1.02362,
   -0.13173 -0.07606 1.02362,
   -0.07874 -0.13638 -0.98425,
   5.86362 -0.07874 -0.98425,
   5.84252 0.00000 0.86614,
   5.84252 0.00000 -0.98425,
   5.85075 -0.03071 0.86917,
   5.85866 -0.06028 0.87811,
   5.86362 -0.07874 0.88799,
   6.13638 0.07874 1.02362,
   6.07874 0.13638 -0.98425,
   6.07874 0.13638 1.02362,
   6.13638 0.07874 -0.98425,
   6.15748 0.00000 1.02362,
   6.15748 0.00000 -0.98425,
   6.00000 0.15748 1.02362,
   6.00000 0.15748 -0.98425,
   6.13638 -0.07874 1.02362,
   6.13638 -0.07874 -0.98425,
   6.00000 -0.15748 -0.98425,
   6.07874 -0.13638 1.02362,
   6.00000 -0.15748 1.02362,
   6.07874 -0.13638 -0.98425,
   5.98870 0.15445 0.99291,
   5.95528 0.14551 0.96335,
   5.92126 0.13638 0.94630,
   5.92126 0.13638 -0.98425,
   5.92126 -0.13638 0.94630,
   5.92126 -0.13638 -0.98425,
   5.95528 -0.14551 0.96335,
   5.98870 -0.15445 0.99291,
   5.86362 0.07874 -0.98425,
   5.85866 0.06028 0.87811,
   5.86362 0.07874 0.88799,
   5.85075 0.03071 0.86917,
   6.15213 0.00000 1.02362,
   6.13173 0.07606 1.02362,
   6.07606 0.13173 1.02362,
   6.00000 0.15213 1.02362,
   6.13173 -0.07606 1.02362,
   6.07606 -0.13173 1.02362,
   6.00000 -0.15213 1.02362,
   5.87236 -0.08748 0.89268,
   5.89622 -0.11134 0.91228,
   5.91583 -0.13094 0.93614,
   5.91583 0.13094 0.93614,
   5.89622 0.11134 0.91228,
   5.87236 0.08748 0.89268,
   -0.13173 0.07606 1.06437,
   -0.05567 0.09642 1.13496,
   -0.07606 0.13173 1.06437,
   -0.09642 0.05567 1.13496,
   -0.13173 -0.07606 1.06437,
   -0.05567 -0.09642 1.13496,
   -0.09642 -0.05567 1.13496,
   -0.07606 -0.13173 1.06437,
   -0.11134 0.00000 1.13496,
   0.00264 0.15142 1.06437,
   0.00000 0.15213 1.06205,
   0.00000 0.15213 1.06437,
   0.00000 -0.11134 1.13496,
   -0.03531 0.02039 1.17575,
   -0.02039 0.03531 1.17575,
   0.00000 -0.15063 1.06697,
   0.00000 -0.15213 1.06437,
   0.00264 -0.15142 1.06437,
   0.00000 0.04335 1.17425,
   0.00000 0.11134 1.13496,
   0.00000 0.04075 1.17575,
   0.00165 0.04240 1.17453,
   0.00866 0.03843 1.17575,
   0.00866 -0.03843 1.17575,
   0.00000 -0.04075 1.17575,
   0.00165 -0.04240 1.17453,
   -0.15213 0.00000 1.06437,
   0.00000 -0.15213 1.06205,
   0.00000 0.15063 1.06697,
   -0.02039 -0.03531 1.17575,
   0.00000 -0.04335 1.17425,
   -0.04075 0.00000 1.17575,
   -0.03531 -0.02039 1.17575,
   0.00000 0.03843 1.17575,
   0.00000 -0.03843 1.17575,
   6.07606 -0.13173 1.06437,
   6.00000 -0.15063 1.06697,
   6.00000 -0.15213 1.06437,
   6.00000 -0.11134 1.13496,
   6.15213 0.00000 1.06437,
   6.11134 0.00000 1.13496,
   6.13173 -0.07606 1.06437,
   6.13173 0.07606 1.06437,
   6.07606 0.13173 1.06437,
   6.00000 0.15213 1.06205,
   6.00000 0.15213 1.06437,
   6.09642 0.05567 1.13496,
   6.03531 0.02039 1.17575,
   6.04075 0.00000 1.17575,
   5.99736 0.15142 1.06437,
   6.00000 0.04335 1.17425,
   6.05567 0.09642 1.13496,
   6.00000 0.11134 1.13496,
   6.00000 0.04075 1.17575,
   6.00000 -0.04335 1.17425,
   6.05567 -0.09642 1.13496,
   6.00000 -0.04075 1.17575,
   6.02039 0.03531 1.17575,
   6.00000 -0.15213 1.06205,
   5.99134 0.03843 1.17575,
   6.00000 0.15063 1.06697,
   6.09642 -0.05567 1.13496,
   5.99736 -0.15142 1.06437,
   5.99134 -0.03843 1.17575,
   6.03531 -0.02039 1.17575,
   6.02039 -0.03531 1.17575,
   6.00000 0.03843 1.17575,
   6.00000 -0.03843 1.17575,
   0.00000 0.14551 1.08390,
   0.91339 0.14551 1.08390,
   0.91339 0.15445 1.05433,
   0.00000 0.15445 1.05433,
   0.91339 0.06028 0.87811,
   0.91339 0.03071 0.86917,
   0.91339 0.08748 0.89268,
   0.91339 0.15445 0.99291,
   0.91339 0.14551 0.96335,
   0.91339 -0.15445 0.99291,
   0.91339 -0.14551 0.96335,
   0.00000 0.08748 1.15457,
   0.00000 0.06028 1.16909,
   0.00000 0.13094 1.11110,
   0.00000 -0.08748 1.15457,
   0.00000 -0.06028 1.16909,
   0.00000 -0.13094 1.11110,
   0.00000 -0.14551 1.08390,
   0.00000 0.00000 1.18110,
   0.00000 0.03071 1.17807,
   0.00000 -0.03071 1.17807,
   0.00000 -0.15445 1.05433,
   0.91339 -0.03071 0.86917,
   0.91339 0.00000 0.86614,
   0.91339 0.11134 0.91228,
   0.91339 -0.15748 1.02362,
   0.91339 0.08748 1.15457,
   0.91339 0.11134 1.13496,
   0.91339 0.15748 1.02362,
   0.91339 -0.13094 0.93614,
   0.91339 -0.11134 0.91228,
   0.91339 -0.08748 0.89268,
   0.91339 -0.06028 0.87811,
   0.91339 0.13094 1.11110,
   0.91339 0.13094 0.93614,
   0.91339 0.06028 1.16909,
   0.91339 0.03071 1.17807,
   0.91339 0.00000 1.18110,
   0.91339 -0.03071 1.17807,
   0.91339 -0.06028 1.16909,
   0.91339 -0.08748 1.15457,
   0.91339 -0.11134 1.13496,
   0.91339 -0.13094 1.11110,
   0.91339 -0.14551 1.08390,
   0.91339 -0.15445 1.05433,
   6.00000 0.14551 1.08390,
   5.08661 0.14551 1.08390,
   6.00000 0.15445 1.05433,
   5.08661 0.15445 1.05433,
   5.08661 0.06028 0.87811,
   5.08661 0.03071 0.86917,
   5.08661 0.08748 0.89268,
   5.08661 0.15445 0.99291,
   5.08661 0.14551 0.96335,
   5.08661 -0.13094 1.11110,
   5.08661 -0.11134 1.13496,
   6.00000 -0.13094 1.11110,
   5.08661 -0.15445 0.99291,
   5.08661 -0.14551 0.96335,
   5.08661 0.15748 1.02362,
   5.08661 0.13094 0.93614,
   5.08661 0.13094 1.11110,
   5.08661 0.11134 0.91228,
   5.08661 0.11134 1.13496,
   5.08661 0.08748 1.15457,
   5.08661 0.06028 1.16909,
   5.08661 0.03071 1.17807,
   5.08661 0.00000 0.86614,
   5.08661 0.00000 1.18110,
   5.08661 -0.03071 0.86917,
   5.08661 -0.03071 1.17807,
   5.08661 -0.06028 0.87811,
   5.08661 -0.06028 1.16909,
   5.08661 -0.08748 0.89268,
   5.08661 -0.08748 1.15457,
   5.08661 -0.11134 0.91228,
   5.08661 -0.13094 0.93614,
   5.08661 -0.14551 1.08390,
   5.08661 -0.15445 1.05433,
   5.08661 -0.15748 1.02362,
   6.00000 0.08748 1.15457,
   6.00000 0.13094 1.11110,
   6.00000 -0.08748 1.15457,
   6.00000 -0.06028 1.16909,
   6.00000 -0.14551 1.08390,
   6.00000 0.06028 1.16909,
   6.00000 -0.15445 1.05433,
   6.00000 0.00000 1.18110,
   6.00000 0.03071 1.17807,
   6.00000 -0.03071 1.17807
  ] }
  coordIndex [
   0, 1, 2, -1,
   1, 0, 3, -1,
   4, 5, 6, -1,
   7, 5, 4, -1,
   8, 5, 7, -1,
   9, 5, 8, -1,
   5, 9, 10, -1,
   11, 10, 9, -1,
   12, 10, 11, -1,
   13, 10, 12, -1,
   10, 13, 14, -1,
   15, 6, 5, -1,
   6, 15, 16, -1,
   16, 15, 17, -1,
   17, 15, 18, -1,
   19, 20, 21, -1,
   19, 22, 20, -1,
   19, 23, 22, -1,
   23, 19, 24, -1,
   25, 13, 26, -1,
   25, 26, 27, -1,
   25, 27, 28, -1,
   13, 25, 14, -1,
   29, 30, 31, -1,
   30, 29, 32, -1,
   15, 30, 18, -1,
   30, 15, 31, -1,
   2, 32, 29, -1,
   32, 2, 1, -1,
   24, 28, 33, -1,
   24, 33, 34, -1,
   24, 34, 35, -1,
   24, 35, 23, -1,
   28, 24, 25, -1,
   18, 36, 37, -1,
   30, 36, 18, -1,
   30, 38, 36, -1,
   32, 38, 30, -1,
   32, 39, 38, -1,
   39, 32, 1, -1,
   40, 21, 41, -1,
   40, 42, 21, -1,
   43, 42, 40, -1,
   43, 3, 42, -1,
   39, 3, 43, -1,
   3, 39, 1, -1,
   44, 3, 0, -1,
   3, 44, 42, -1,
   25, 10, 14, -1,
   24, 10, 25, -1,
   24, 5, 10, -1,
   19, 5, 24, -1,
   19, 15, 5, -1,
   44, 15, 19, -1,
   44, 31, 15, -1,
   0, 31, 44, -1,
   0, 29, 31, -1,
   29, 0, 2, -1,
   44, 21, 42, -1,
   21, 44, 19, -1,
   45, 46, 47, -1,
   46, 45, 48, -1,
   48, 45, 49, -1,
   49, 45, 50, -1,
   51, 52, 53, -1,
   52, 51, 54, -1,
   55, 54, 51, -1,
   54, 55, 56, -1,
   52, 57, 53, -1,
   57, 52, 58, -1,
   59, 56, 55, -1,
   56, 59, 60, -1,
   61, 62, 63, -1,
   62, 61, 64, -1,
   58, 65, 57, -1,
   58, 66, 65, -1,
   58, 67, 66, -1,
   67, 58, 68, -1,
   61, 69, 70, -1,
   69, 61, 71, -1,
   71, 61, 72, -1,
   72, 61, 63, -1,
   73, 74, 75, -1,
   73, 76, 74, -1,
   46, 73, 47, -1,
   73, 46, 76, -1,
   62, 60, 59, -1,
   60, 62, 64, -1,
   51, 77, 55, -1,
   51, 78, 77, -1,
   53, 78, 51, -1,
   53, 79, 78, -1,
   57, 79, 53, -1,
   79, 57, 80, -1,
   77, 59, 55, -1,
   81, 59, 77, -1,
   81, 62, 59, -1,
   82, 62, 81, -1,
   83, 62, 82, -1,
   62, 83, 63, -1,
   70, 50, 45, -1,
   50, 70, 84, -1,
   84, 70, 85, -1,
   85, 70, 86, -1,
   86, 70, 69, -1,
   60, 54, 56, -1,
   64, 54, 60, -1,
   64, 52, 54, -1,
   61, 52, 64, -1,
   61, 58, 52, -1,
   70, 58, 61, -1,
   70, 68, 58, -1,
   45, 68, 70, -1,
   45, 73, 68, -1,
   73, 45, 47, -1,
   68, 87, 67, -1,
   68, 88, 87, -1,
   68, 89, 88, -1,
   68, 75, 89, -1,
   75, 68, 73, -1,
   90, 91, 92, -1,
   91, 90, 93, -1,
   94, 95, 96, -1,
   95, 94, 97, -1,
   98, 94, 96, -1,
   99, 100, 101, -1,
   100, 92, 101, -1,
   36, 100, 37, -1,
   100, 36, 92, -1,
   95, 97, 102, -1,
   91, 103, 104, -1,
   103, 91, 93, -1,
   105, 106, 107, -1,
   91, 108, 109, -1,
   108, 91, 110, -1,
   111, 110, 112, -1,
   113, 114, 115, -1,
   39, 90, 38, -1,
   90, 39, 116, -1,
   97, 105, 102, -1,
   105, 97, 106, -1,
   106, 117, 107, -1,
   108, 110, 111, -1,
   92, 118, 101, -1,
   118, 92, 109, -1,
   101, 118, 99, -1,
   119, 95, 114, -1,
   95, 120, 114, -1,
   120, 95, 102, -1,
   121, 96, 122, -1,
   40, 94, 43, -1,
   94, 40, 97, -1,
   90, 116, 98, -1,
   97, 117, 106, -1,
   40, 117, 97, -1,
   117, 40, 41, -1,
   109, 92, 91, -1,
   122, 95, 119, -1,
   95, 122, 96, -1,
   121, 98, 96, -1,
   114, 120, 115, -1,
   38, 92, 36, -1,
   92, 38, 90, -1,
   98, 116, 94, -1,
   43, 116, 39, -1,
   116, 43, 94, -1,
   110, 91, 104, -1,
   93, 90, 98, -1,
   93, 98, 121, -1,
   103, 93, 121, -1,
   110, 123, 112, -1,
   104, 123, 110, -1,
   103, 123, 104, -1,
   121, 123, 103, -1,
   124, 119, 114, -1,
   123, 121, 124, -1,
   124, 122, 119, -1,
   124, 121, 122, -1,
   113, 124, 114, -1,
   125, 126, 127, -1,
   126, 125, 128, -1,
   129, 130, 131, -1,
   132, 130, 129, -1,
   133, 134, 135, -1,
   79, 134, 133, -1,
   134, 79, 80, -1,
   129, 78, 132, -1,
   78, 129, 77, -1,
   136, 137, 138, -1,
   132, 79, 133, -1,
   79, 132, 78, -1,
   134, 139, 135, -1,
   131, 77, 129, -1,
   77, 131, 81, -1,
   132, 136, 130, -1,
   136, 138, 130, -1,
   140, 141, 142, -1,
   141, 140, 143, -1,
   144, 145, 146, -1,
   145, 144, 128, -1,
   141, 143, 147, -1,
   125, 81, 131, -1,
   81, 125, 82, -1,
   148, 125, 127, -1,
   82, 148, 83, -1,
   148, 82, 125, -1,
   140, 149, 143, -1,
   141, 137, 136, -1,
   137, 141, 147, -1,
   135, 139, 150, -1,
   133, 142, 141, -1,
   133, 150, 142, -1,
   150, 133, 135, -1,
   145, 128, 125, -1,
   145, 131, 151, -1,
   131, 145, 125, -1,
   127, 152, 148, -1,
   126, 152, 127, -1,
   141, 132, 133, -1,
   132, 141, 136, -1,
   146, 153, 144, -1,
   154, 145, 151, -1,
   145, 154, 155, -1,
   155, 146, 145, -1,
   130, 151, 131, -1,
   130, 138, 151, -1,
   138, 154, 151, -1,
   143, 149, 156, -1,
   156, 138, 137, -1,
   156, 137, 147, -1,
   157, 138, 156, -1,
   156, 147, 143, -1,
   138, 157, 154, -1,
   154, 157, 155, -1,
   157, 146, 155, -1,
   146, 157, 153, -1,
   99, 158, 159, -1,
   158, 99, 118, -1,
   160, 99, 159, -1,
   161, 99, 160, -1,
   99, 161, 100, -1,
   12, 162, 163, -1,
   162, 12, 11, -1,
   11, 164, 162, -1,
   9, 164, 11, -1,
   164, 9, 8, -1,
   16, 165, 166, -1,
   165, 16, 17, -1,
   22, 167, 20, -1,
   167, 22, 168, -1,
   108, 169, 109, -1,
   169, 108, 170, -1,
   118, 171, 158, -1,
   171, 118, 109, -1,
   120, 172, 173, -1,
   172, 120, 102, -1,
   105, 174, 102, -1,
   174, 105, 175, -1,
   37, 161, 18, -1,
   161, 37, 100, -1,
   123, 176, 177, -1,
   124, 176, 123, -1,
   176, 124, 178, -1,
   41, 179, 117, -1,
   179, 41, 21, -1,
   180, 13, 181, -1,
   13, 180, 26, -1,
   13, 163, 181, -1,
   163, 13, 12, -1,
   8, 182, 164, -1,
   182, 8, 7, -1,
   20, 183, 21, -1,
   183, 20, 167, -1,
   109, 184, 185, -1,
   184, 109, 169, -1,
   186, 161, 160, -1,
   161, 186, 18, -1,
   34, 187, 35, -1,
   187, 34, 188, -1,
   189, 27, 190, -1,
   189, 28, 27, -1,
   28, 189, 33, -1,
   17, 186, 165, -1,
   186, 17, 18, -1,
   190, 26, 180, -1,
   26, 190, 27, -1,
   191, 109, 185, -1,
   109, 191, 171, -1,
   160, 165, 186, -1,
   159, 165, 160, -1,
   159, 166, 165, -1,
   191, 166, 159, -1,
   191, 192, 166, -1,
   185, 192, 191, -1,
   185, 182, 192, -1,
   184, 182, 185, -1,
   184, 164, 182, -1,
   193, 164, 184, -1,
   193, 162, 164, -1,
   194, 162, 193, -1,
   194, 163, 162, -1,
   195, 163, 194, -1,
   195, 181, 163, -1,
   196, 181, 195, -1,
   196, 180, 181, -1,
   197, 180, 196, -1,
   197, 190, 180, -1,
   198, 190, 197, -1,
   198, 189, 190, -1,
   199, 189, 198, -1,
   199, 188, 189, -1,
   200, 188, 199, -1,
   200, 187, 188, -1,
   201, 187, 200, -1,
   201, 168, 187, -1,
   202, 168, 201, -1,
   202, 167, 168, -1,
   167, 202, 183, -1,
   176, 196, 195, -1,
   196, 176, 178, -1,
   177, 195, 194, -1,
   195, 177, 176, -1,
   159, 171, 191, -1,
   171, 159, 158, -1,
   188, 33, 189, -1,
   33, 188, 34, -1,
   172, 199, 198, -1,
   199, 172, 102, -1,
   23, 168, 22, -1,
   35, 168, 23, -1,
   168, 35, 187, -1,
   169, 193, 184, -1,
   193, 169, 170, -1,
   196, 113, 197, -1,
   178, 113, 196, -1,
   113, 178, 124, -1,
   173, 113, 115, -1,
   173, 115, 120, -1,
   113, 173, 197, -1,
   21, 202, 179, -1,
   202, 21, 183, -1,
   193, 112, 194, -1,
   170, 112, 193, -1,
   112, 170, 111, -1,
   111, 170, 108, -1,
   177, 112, 123, -1,
   112, 177, 194, -1,
   7, 192, 182, -1,
   192, 7, 4, -1,
   166, 6, 16, -1,
   4, 166, 192, -1,
   166, 4, 6, -1,
   173, 198, 197, -1,
   198, 173, 172, -1,
   107, 175, 105, -1,
   175, 107, 201, -1,
   179, 107, 117, -1,
   107, 179, 202, -1,
   107, 202, 201, -1,
   175, 200, 174, -1,
   200, 175, 201, -1,
   174, 199, 102, -1,
   199, 174, 200, -1,
   139, 203, 150, -1,
   203, 139, 204, -1,
   205, 139, 134, -1,
   139, 205, 206, -1,
   139, 206, 204, -1,
   207, 76, 208, -1,
   76, 207, 74, -1,
   209, 74, 207, -1,
   74, 209, 75, -1,
   75, 209, 89, -1,
   66, 210, 65, -1,
   210, 66, 211, -1,
   212, 128, 213, -1,
   128, 212, 214, -1,
   71, 215, 216, -1,
   215, 71, 72, -1,
   210, 206, 217, -1,
   211, 206, 210, -1,
   211, 204, 206, -1,
   218, 204, 211, -1,
   218, 219, 204, -1,
   220, 219, 218, -1,
   220, 221, 219, -1,
   209, 221, 220, -1,
   209, 222, 221, -1,
   207, 222, 209, -1,
   207, 223, 222, -1,
   208, 223, 207, -1,
   208, 224, 223, -1,
   225, 224, 208, -1,
   225, 226, 224, -1,
   227, 226, 225, -1,
   227, 228, 226, -1,
   229, 228, 227, -1,
   229, 230, 228, -1,
   231, 230, 229, -1,
   231, 232, 230, -1,
   233, 232, 231, -1,
   233, 213, 232, -1,
   234, 213, 233, -1,
   234, 212, 213, -1,
   216, 212, 234, -1,
   216, 235, 212, -1,
   215, 235, 216, -1,
   215, 236, 235, -1,
   236, 215, 237, -1,
   227, 46, 48, -1,
   46, 227, 225, -1,
   208, 46, 225, -1,
   46, 208, 76, -1,
   220, 89, 209, -1,
   89, 220, 88, -1,
   72, 237, 215, -1,
   237, 72, 63, -1,
   221, 238, 142, -1,
   238, 221, 222, -1,
   57, 206, 205, -1,
   206, 57, 217, -1,
   85, 234, 233, -1,
   234, 85, 86, -1,
   231, 50, 84, -1,
   231, 49, 50, -1,
   49, 231, 229, -1,
   65, 217, 57, -1,
   217, 65, 210, -1,
   229, 48, 49, -1,
   48, 229, 227, -1,
   239, 221, 142, -1,
   221, 239, 219, -1,
   240, 144, 241, -1,
   144, 240, 128, -1,
   126, 214, 242, -1,
   214, 126, 128, -1,
   140, 238, 243, -1,
   238, 140, 142, -1,
   239, 150, 203, -1,
   150, 239, 142, -1,
   244, 83, 148, -1,
   83, 244, 63, -1,
   80, 205, 134, -1,
   205, 80, 57, -1,
   245, 156, 246, -1,
   157, 245, 247, -1,
   245, 157, 156, -1,
   226, 247, 245, -1,
   247, 226, 228, -1,
   224, 245, 246, -1,
   245, 224, 226, -1,
   203, 219, 239, -1,
   219, 203, 204, -1,
   233, 84, 85, -1,
   84, 233, 231, -1,
   232, 128, 240, -1,
   128, 232, 213, -1,
   216, 69, 71, -1,
   86, 216, 234, -1,
   216, 86, 69, -1,
   222, 243, 238, -1,
   243, 222, 223, -1,
   247, 153, 157, -1,
   153, 247, 228, -1,
   153, 241, 144, -1,
   230, 153, 228, -1,
   153, 230, 241, -1,
   237, 244, 236, -1,
   244, 237, 63, -1,
   243, 149, 140, -1,
   149, 243, 223, -1,
   149, 246, 156, -1,
   224, 149, 223, -1,
   149, 224, 246, -1,
   88, 218, 87, -1,
   218, 88, 220, -1,
   67, 211, 66, -1,
   87, 211, 67, -1,
   211, 87, 218, -1,
   230, 240, 241, -1,
   240, 230, 232, -1,
   152, 242, 235, -1,
   242, 152, 126, -1,
   236, 152, 235, -1,
   244, 152, 236, -1,
   152, 244, 148, -1,
   235, 214, 212, -1,
   214, 235, 242, -1
  ]
 }
}
