#VRML V2.0 utf8
# nano_on_pbs: written by tools/build_models3d.py from 3d/populated/models/nano_on_pbs.scad; layers strip #1b1b1d, pcb #12508a, chip #1e1e20, steel #c4c8cc, gold #d1ad45, tact #2c2c2e, pins #c9c9c9
Shape {
 appearance Appearance { material Material {
  diffuseColor 0.1059 0.1059 0.1137
  specularColor 0.250 0.250 0.250
  ambientIntensity 0.4
  shininess 0.30
 } }
 geometry IndexedFaceSet {
  creaseAngle 0.5
  coord Coordinate { point [
   0.50000 -14.50000 4.33071,
   0.50000 0.50000 0.00000,
   0.50000 0.50000 4.33071,
   0.50000 -14.50000 0.00000,
   -0.50000 -14.50000 0.00000,
   -0.50000 0.50000 0.00000,
   -0.50000 0.50000 4.33071,
   -0.50000 -14.50000 4.33071,
   6.50000 -14.50000 4.33071,
   6.50000 0.50000 0.00000,
   6.50000 0.50000 4.33071,
   6.50000 -14.50000 0.00000,
   5.50000 -14.50000 0.00000,
   5.50000 0.50000 0.00000,
   5.50000 0.50000 4.33071,
   5.50000 -14.50000 4.33071
  ] }
  coordIndex [
   0, 1, 2, -1,
   1, 0, 3, -1,
   4, 1, 3, -1,
   1, 4, 5, -1,
   4, 6, 5, -1,
   6, 4, 7, -1,
   1, 6, 2, -1,
   6, 1, 5, -1,
   4, 0, 7, -1,
   0, 4, 3, -1,
   8, 9, 10, -1,
   9, 8, 11, -1,
   12, 9, 11, -1,
   9, 12, 13, -1,
   12, 14, 13, -1,
   14, 12, 15, -1,
   9, 14, 10, -1,
   14, 9, 13, -1,
   12, 8, 15, -1,
   8, 12, 11, -1,
   6, 0, 2, -1,
   0, 6, 7, -1,
   14, 8, 10, -1,
   8, 14, 15, -1
  ]
 }
}
Shape {
 appearance Appearance { material Material {
  diffuseColor 0.0706 0.3137 0.5412
  specularColor 0.250 0.250 0.250
  ambientIntensity 0.4
  shininess 0.30
 } }
 geometry IndexedFaceSet {
  creaseAngle 0.5
  coord Coordinate { point [
   -0.50000 0.50000 4.96063,
   6.50000 -16.50000 4.96063,
   6.50000 0.50000 4.96063,
   -0.50000 -16.50000 4.96063,
   -0.50000 -16.50000 4.33071,
   6.50000 0.50000 4.33071,
   6.50000 -16.50000 4.33071,
   -0.50000 0.50000 4.33071
  ] }
  coordIndex [
   0, 1, 2, -1,
   1, 0, 3, -1,
   4, 5, 6, -1,
   5, 4, 7, -1,
   4, 1, 3, -1,
   1, 4, 6, -1,
   1, 5, 2, -1,
   5, 1, 6, -1,
   5, 0, 2, -1,
   0, 5, 7, -1,
   4, 0, 7, -1,
   0, 4, 3, -1
  ]
 }
}
Shape {
 appearance Appearance { material Material {
  diffuseColor 0.1176 0.1176 0.1255
  specularColor 0.250 0.250 0.250
  ambientIntensity 0.4
  shininess 0.30
 } }
 geometry IndexedFaceSet {
  creaseAngle 0.5
  coord Coordinate { point [
   4.37795 -12.00787 5.35433,
   4.37795 -9.25197 4.96063,
   4.37795 -9.25197 5.35433,
   4.37795 -12.00787 4.96063,
   1.62205 -9.25197 5.35433,
   1.62205 -12.00787 5.35433,
   1.62205 -12.00787 4.96063,
   1.62205 -9.25197 4.96063,
   3.78740 -5.51181 5.59055,
   3.78740 -1.57480 4.96063,
   3.78740 -1.57480 5.59055,
   3.78740 -5.51181 4.96063,
   2.21260 -1.57480 5.59055,
   2.21260 -5.51181 5.59055,
   2.21260 -5.51181 4.96063,
   2.21260 -1.57480 4.96063
  ] }
  coordIndex [
   0, 1, 2, -1,
   1, 0, 3, -1,
   4, 0, 2, -1,
   0, 4, 5, -1,
   6, 1, 3, -1,
   1, 6, 7, -1,
   6, 4, 7, -1,
   4, 6, 5, -1,
   1, 4, 2, -1,
   4, 1, 7, -1,
   6, 0, 5, -1,
   0, 6, 3, -1,
   8, 9, 10, -1,
   9, 8, 11, -1,
   12, 8, 10, -1,
   8, 12, 13, -1,
   14, 9, 11, -1,
   9, 14, 15, -1,
   14, 12, 15, -1,
   12, 14, 13, -1,
   9, 12, 10, -1,
   12, 9, 15, -1,
   14, 8, 13, -1,
   8, 14, 11, -1
  ]
 }
}
Shape {
 appearance Appearance { material Material {
  diffuseColor 0.7686 0.7843 0.8000
  specularColor 0.250 0.250 0.250
  ambientIntensity 0.4
  shininess 0.30
 } }
 geometry IndexedFaceSet {
  creaseAngle 0.5
  coord Coordinate { point [
   1.48425 1.50000 6.53543,
   4.51575 -2.12205 6.53543,
   4.51575 1.50000 6.53543,
   1.48425 -2.12205 6.53543,
   1.48425 -2.12205 4.96063,
   4.51575 1.50000 4.96063,
   4.51575 -2.12205 4.96063,
   1.48425 1.50000 4.96063
  ] }
  coordIndex [
   0, 1, 2, -1,
   1, 0, 3, -1,
   4, 5, 6, -1,
   5, 4, 7, -1,
   4, 1, 3, -1,
   1, 4, 6, -1,
   1, 5, 2, -1,
   5, 1, 6, -1,
   5, 0, 2, -1,
   0, 5, 7, -1,
   4, 0, 7, -1,
   0, 4, 3, -1
  ]
 }
}
Shape {
 appearance Appearance { material Material {
  diffuseColor 0.8196 0.6784 0.2706
  specularColor 0.250 0.250 0.250
  ambientIntensity 0.4
  shininess 0.30
 } }
 geometry IndexedFaceSet {
  creaseAngle 0.5
  coord Coordinate { point [
   2.80917 -14.04516 4.98031,
   2.73661 -13.93661 4.96457,
   2.73661 -13.93661 4.98031,
   2.80917 -14.04516 4.96457,
   2.83465 -14.17323 4.98031,
   2.83465 -14.17323 4.96457,
   2.62807 -13.86406 4.98031,
   2.62807 -13.86406 4.96457,
   2.19083 -14.30130 4.96457,
   2.16535 -14.17323 4.98031,
   2.16535 -14.17323 4.96457,
   2.19083 -14.30130 4.98031,
   2.62807 -14.48240 4.96457,
   2.73661 -14.40984 4.98031,
   2.62807 -14.48240 4.98031,
   2.73661 -14.40984 4.96457,
   2.19083 -14.04516 4.96457,
   2.26339 -13.93661 4.98031,
   2.26339 -13.93661 4.96457,
   2.19083 -14.04516 4.98031,
   2.37193 -14.48240 4.96457,
   2.50000 -14.50787 4.98031,
   2.37193 -14.48240 4.98031,
   2.50000 -14.50787 4.96457,
   2.50000 -13.83858 4.98031,
   2.50000 -13.83858 4.96457,
   2.37193 -13.86406 4.98031,
   2.37193 -13.86406 4.96457,
   2.80917 -14.30130 4.96457,
   2.80917 -14.30130 4.98031,
   2.26339 -14.40984 4.96457,
   2.26339 -14.40984 4.98031,
   3.80917 -14.04516 4.98031,
   3.73661 -13.93661 4.96457,
   3.73661 -13.93661 4.98031,
   3.80917 -14.04516 4.96457,
   3.83465 -14.17323 4.98031,
   3.83465 -14.17323 4.96457,
   3.62807 -13.86406 4.98031,
   3.62807 -13.86406 4.96457,
   3.19083 -14.30130 4.96457,
   3.16535 -14.17323 4.98031,
   3.16535 -14.17323 4.96457,
   3.19083 -14.30130 4.98031,
   3.62807 -14.48240 4.96457,
   3.73661 -14.40984 4.98031,
   3.62807 -14.48240 4.98031,
   3.73661 -14.40984 4.96457,
   3.19083 -14.04516 4.96457,
   3.26339 -13.93661 4.98031,
   3.26339 -13.93661 4.96457,
   3.19083 -14.04516 4.98031,
   3.37193 -14.48240 4.96457,
   3.50000 -14.50787 4.98031,
   3.37193 -14.48240 4.98031,
   3.50000 -14.50787 4.96457,
   3.50000 -13.83858 4.98031,
   3.50000 -13.83858 4.96457,
   3.37193 -13.86406 4.98031,
   3.37193 -13.86406 4.96457,
   3.80917 -14.30130 4.96457,
   3.80917 -14.30130 4.98031,
   3.26339 -14.40984 4.96457,
   3.26339 -14.40984 4.98031,
   2.80917 -15.04516 4.98031,
   2.73661 -14.93661 4.96457,
   2.73661 -14.93661 4.98031,
   2.80917 -15.04516 4.96457,
   2.83465 -15.17323 4.98031,
   2.83465 -15.17323 4.96457,
   2.62807 -14.86406 4.98031,
   2.62807 -14.86406 4.96457,
   2.19083 -15.30130 4.96457,
   2.16535 -15.17323 4.98031,
   2.16535 -15.17323 4.96457,
   2.19083 -15.30130 4.98031,
   2.62807 -15.48240 4.96457,
   2.73661 -15.40984 4.98031,
   2.62807 -15.48240 4.98031,
   2.73661 -15.40984 4.96457,
   2.19083 -15.04516 4.96457,
   2.26339 -14.93661 4.98031,
   2.26339 -14.93661 4.96457,
   2.19083 -15.04516 4.98031,
   2.37193 -15.48240 4.96457,
   2.50000 -15.50787 4.98031,
   2.37193 -15.48240 4.98031,
   2.50000 -15.50787 4.96457,
   2.50000 -14.83858 4.98031,
   2.50000 -14.83858 4.96457,
   2.37193 -14.86406 4.98031,
   2.37193 -14.86406 4.96457,
   2.80917 -15.30130 4.96457,
   2.80917 -15.30130 4.98031,
   2.26339 -15.40984 4.96457,
   2.26339 -15.40984 4.98031,
   3.80917 -15.04516 4.98031,
   3.73661 -14.93661 4.96457,
   3.73661 -14.93661 4.98031,
   3.80917 -15.04516 4.96457,
   3.83465 -15.17323 4.98031,
   3.83465 -15.17323 4.96457,
   3.62807 -14.86406 4.98031,
   3.62807 -14.86406 4.96457,
   3.19083 -15.30130 4.96457,
   3.16535 -15.17323 4.98031,
   3.16535 -15.17323 4.96457,
   3.19083 -15.30130 4.98031,
   3.62807 -15.48240 4.96457,
   3.73661 -15.40984 4.98031,
   3.62807 -15.48240 4.98031,
   3.73661 -15.40984 4.96457,
   3.19083 -15.04516 4.96457,
   3.26339 -14.93661 4.98031,
   3.26339 -14.93661 4.96457,
   3.19083 -15.04516 4.98031,
   3.37193 -15.48240 4.96457,
   3.50000 -15.50787 4.98031,
   3.37193 -15.48240 4.98031,
   3.50000 -15.50787 4.96457,
   3.50000 -14.83858 4.98031,
   3.50000 -14.83858 4.96457,
   3.37193 -14.86406 4.98031,
   3.37193 -14.86406 4.96457,
   3.80917 -15.30130 4.96457,
   3.80917 -15.30130 4.98031,
   3.26339 -15.40984 4.96457,
   3.26339 -15.40984 4.98031,
   2.80917 -16.04516 4.98031,
   2.73661 -15.93661 4.96457,
   2.73661 -15.93661 4.98031,
   2.80917 -16.04516 4.96457,
   2.83465 -16.17323 4.98031,
   2.83465 -16.17323 4.96457,
   2.62807 -15.86406 4.98031,
   2.62807 -15.86406 4.96457,
   2.19083 -16.30130 4.96457,
   2.16535 -16.17323 4.98031,
   2.16535 -16.17323 4.96457,
   2.19083 -16.30130 4.98031,
   2.62807 -16.48240 4.96457,
   2.73661 -16.40984 4.98031,
   2.62807 -16.48240 4.98031,
   2.73661 -16.40984 4.96457,
   2.19083 -16.04516 4.96457,
   2.26339 -15.93661 4.98031,
   2.26339 -15.93661 4.96457,
   2.19083 -16.04516 4.98031,
   2.37193 -16.48240 4.96457,
   2.50000 -16.50787 4.98031,
   2.37193 -16.48240 4.98031,
   2.50000 -16.50787 4.96457,
   2.50000 -15.83858 4.98031,
   2.50000 -15.83858 4.96457,
   2.37193 -15.86406 4.98031,
   2.37193 -15.86406 4.96457,
   2.80917 -16.30130 4.96457,
   2.80917 -16.30130 4.98031,
   2.26339 -16.40984 4.96457,
   2.26339 -16.40984 4.98031,
   3.80917 -16.04516 4.98031,
   3.73661 -15.93661 4.96457,
   3.73661 -15.93661 4.98031,
   3.80917 -16.04516 4.96457,
   3.83465 -16.17323 4.98031,
   3.83465 -16.17323 4.96457,
   3.62807 -15.86406 4.98031,
   3.62807 -15.86406 4.96457,
   3.19083 -16.30130 4.96457,
   3.16535 -16.17323 4.98031,
   3.16535 -16.17323 4.96457,
   3.19083 -16.30130 4.98031,
   3.62807 -16.48240 4.96457,
   3.73661 -16.40984 4.98031,
   3.62807 -16.48240 4.98031,
   3.73661 -16.40984 4.96457,
   3.19083 -16.04516 4.96457,
   3.26339 -15.93661 4.98031,
   3.26339 -15.93661 4.96457,
   3.19083 -16.04516 4.98031,
   3.37193 -16.48240 4.96457,
   3.50000 -16.50787 4.98031,
   3.37193 -16.48240 4.98031,
   3.50000 -16.50787 4.96457,
   3.50000 -15.83858 4.98031,
   3.50000 -15.83858 4.96457,
   3.37193 -15.86406 4.98031,
   3.37193 -15.86406 4.96457,
   3.80917 -16.30130 4.96457,
   3.80917 -16.30130 4.98031,
   3.26339 -16.40984 4.96457,
   3.26339 -16.40984 4.98031
  ] }
  coordIndex [
   0, 1, 2, -1,
   1, 0, 3, -1,
   4, 3, 0, -1,
   3, 4, 5, -1,
   1, 6, 2, -1,
   6, 1, 7, -1,
   8, 9, 10, -1,
   9, 8, 11, -1,
   12, 13, 14, -1,
   13, 12, 15, -1,
   16, 17, 18, -1,
   17, 16, 19, -1,
   20, 21, 22, -1,
   21, 20, 23, -1,
   7, 24, 6, -1,
   24, 7, 25, -1,
   25, 26, 24, -1,
   26, 25, 27, -1,
   13, 28, 29, -1,
   28, 13, 15, -1,
   29, 5, 4, -1,
   5, 29, 28, -1,
   30, 11, 8, -1,
   11, 30, 31, -1,
   23, 14, 21, -1,
   14, 23, 12, -1,
   10, 19, 16, -1,
   19, 10, 9, -1,
   27, 17, 26, -1,
   17, 27, 18, -1,
   0, 29, 4, -1,
   2, 29, 0, -1,
   2, 13, 29, -1,
   6, 13, 2, -1,
   6, 14, 13, -1,
   24, 14, 6, -1,
   24, 21, 14, -1,
   26, 21, 24, -1,
   26, 22, 21, -1,
   17, 22, 26, -1,
   17, 31, 22, -1,
   19, 31, 17, -1,
   19, 11, 31, -1,
   11, 19, 9, -1,
   30, 22, 31, -1,
   22, 30, 20, -1,
   28, 3, 5, -1,
   15, 3, 28, -1,
   15, 1, 3, -1,
   12, 1, 15, -1,
   12, 7, 1, -1,
   23, 7, 12, -1,
   23, 25, 7, -1,
   20, 25, 23, -1,
   20, 27, 25, -1,
   30, 27, 20, -1,
   30, 18, 27, -1,
   8, 18, 30, -1,
   8, 16, 18, -1,
   16, 8, 10, -1,
   32, 33, 34, -1,
   33, 32, 35, -1,
   36, 35, 32, -1,
   35, 36, 37, -1,
   33, 38, 34, -1,
   38, 33, 39, -1,
   40, 41, 42, -1,
   41, 40, 43, -1,
   44, 45, 46, -1,
   45, 44, 47, -1,
   48, 49, 50, -1,
   49, 48, 51, -1,
   52, 53, 54, -1,
   53, 52, 55, -1,
   39, 56, 38, -1,
   56, 39, 57, -1,
   57, 58, 56, -1,
   58, 57, 59, -1,
   45, 60, 61, -1,
   60, 45, 47, -1,
   61, 37, 36, -1,
   37, 61, 60, -1,
   62, 43, 40, -1,
   43, 62, 63, -1,
   55, 46, 53, -1,
   46, 55, 44, -1,
   42, 51, 48, -1,
   51, 42, 41, -1,
   59, 49, 58, -1,
   49, 59, 50, -1,
   32, 61, 36, -1,
   34, 61, 32, -1,
   34, 45, 61, -1,
   38, 45, 34, -1,
   38, 46, 45, -1,
   56, 46, 38, -1,
   56, 53, 46, -1,
   58, 53, 56, -1,
   58, 54, 53, -1,
   49, 54, 58, -1,
   49, 63, 54, -1,
   51, 63, 49, -1,
   51, 43, 63, -1,
   43, 51, 41, -1,
   62, 54, 63, -1,
   54, 62, 52, -1,
   60, 35, 37, -1,
   47, 35, 60, -1,
   47, 33, 35, -1,
   44, 33, 47, -1,
   44, 39, 33, -1,
   55, 39, 44, -1,
   55, 57, 39, -1,
   52, 57, 55, -1,
   52, 59, 57, -1,
   62, 59, 52, -1,
   62, 50, 59, -1,
   40, 50, 62, -1,
   40, 48, 50, -1,
   48, 40, 42, -1,
   64, 65, 66, -1,
   65, 64, 67, -1,
   68, 67, 64, -1,
   67, 68, 69, -1,
   65, 70, 66, -1,
   70, 65, 71, -1,
   72, 73, 74, -1,
   73, 72, 75, -1,
   76, 77, 78, -1,
   77, 76, 79, -1,
   80, 81, 82, -1,
   81, 80, 83, -1,
   84, 85, 86, -1,
   85, 84, 87, -1,
   71, 88, 70, -1,
   88, 71, 89, -1,
   89, 90, 88, -1,
   90, 89, 91, -1,
   77, 92, 93, -1,
   92, 77, 79, -1,
   93, 69, 68, -1,
   69, 93, 92, -1,
   94, 75, 72, -1,
   75, 94, 95, -1,
   87, 78, 85, -1,
   78, 87, 76, -1,
   74, 83, 80, -1,
   83, 74, 73, -1,
   91, 81, 90, -1,
   81, 91, 82, -1,
   64, 93, 68, -1,
   66, 93, 64, -1,
   66, 77, 93, -1,
   70, 77, 66, -1,
   70, 78, 77, -1,
   88, 78, 70, -1,
   88, 85, 78, -1,
   90, 85, 88, -1,
   90, 86, 85, -1,
   81, 86, 90, -1,
   81, 95, 86, -1,
   83, 95, 81, -1,
   83, 75, 95, -1,
   75, 83, 73, -1,
   94, 86, 95, -1,
   86, 94, 84, -1,
   92, 67, 69, -1,
   79, 67, 92, -1,
   79, 65, 67, -1,
   76, 65, 79, -1,
   76, 71, 65, -1,
   87, 71, 76, -1,
   87, 89, 71, -1,
   84, 89, 87, -1,
   84, 91, 89, -1,
   94, 91, 84, -1,
   94, 82, 91, -1,
   72, 82, 94, -1,
   72, 80, 82, -1,
   80, 72, 74, -1,
   96, 97, 98, -1,
   97, 96, 99, -1,
   100, 99, 96, -1,
   99, 100, 101, -1,
   97, 102, 98, -1,
   102, 97, 103, -1,
   104, 105, 106, -1,
   105, 104, 107, -1,
   108, 109, 110, -1,
   109, 108, 111, -1,
   112, 113, 114, -1,
   113, 112, 115, -1,
   116, 117, 118, -1,
   117, 116, 119, -1,
   103, 120, 102, -1,
   120, 103, 121, -1,
   121, 122, 120, -1,
   122, 121, 123, -1,
   109, 124, 125, -1,
   124, 109, 111, -1,
   125, 101, 100, -1,
   101, 125, 124, -1,
   126, 107, 104, -1,
   107, 126, 127, -1,
   119, 110, 117, -1,
   110, 119, 108, -1,
   106, 115, 112, -1,
   115, 106, 105, -1,
   123, 113, 122, -1,
   113, 123, 114, -1,
   96, 125, 100, -1,
   98, 125, 96, -1,
   98, 109, 125, -1,
   102, 109, 98, -1,
   102, 110, 109, -1,
   120, 110, 102, -1,
   120, 117, 110, -1,
   122, 117, 120, -1,
   122, 118, 117, -1,
   113, 118, 122, -1,
   113, 127, 118, -1,
   115, 127, 113, -1,
   115, 107, 127, -1,
   107, 115, 105, -1,
   126, 118, 127, -1,
   118, 126, 116, -1,
   124, 99, 101, -1,
   111, 99, 124, -1,
   111, 97, 99, -1,
   108, 97, 111, -1,
   108, 103, 97, -1,
   119, 103, 108, -1,
   119, 121, 103, -1,
   116, 121, 119, -1,
   116, 123, 121, -1,
   126, 123, 116, -1,
   126, 114, 123, -1,
   104, 114, 126, -1,
   104, 112, 114, -1,
   112, 104, 106, -1,
   128, 129, 130, -1,
   129, 128, 131, -1,
   132, 131, 128, -1,
   131, 132, 133, -1,
   129, 134, 130, -1,
   134, 129, 135, -1,
   136, 137, 138, -1,
   137, 136, 139, -1,
   140, 141, 142, -1,
   141, 140, 143, -1,
   144, 145, 146, -1,
   145, 144, 147, -1,
   148, 149, 150, -1,
   149, 148, 151, -1,
   135, 152, 134, -1,
   152, 135, 153, -1,
   153, 154, 152, -1,
   154, 153, 155, -1,
   141, 156, 157, -1,
   156, 141, 143, -1,
   157, 133, 132, -1,
   133, 157, 156, -1,
   158, 139, 136, -1,
   139, 158, 159, -1,
   151, 142, 149, -1,
   142, 151, 140, -1,
   138, 147, 144, -1,
   147, 138, 137, -1,
   155, 145, 154, -1,
   145, 155, 146, -1,
   128, 157, 132, -1,
   130, 157, 128, -1,
   130, 141, 157, -1,
   134, 141, 130, -1,
   134, 142, 141, -1,
   152, 142, 134, -1,
   152, 149, 142, -1,
   154, 149, 152, -1,
   154, 150, 149, -1,
   145, 150, 154, -1,
   145, 159, 150, -1,
   147, 159, 145, -1,
   147, 139, 159, -1,
   139, 147, 137, -1,
   158, 150, 159, -1,
   150, 158, 148, -1,
   156, 131, 133, -1,
   143, 131, 156, -1,
   143, 129, 131, -1,
   140, 129, 143, -1,
   140, 135, 129, -1,
   151, 135, 140, -1,
   151, 153, 135, -1,
   148, 153, 151, -1,
   148, 155, 153, -1,
   158, 155, 148, -1,
   158, 146, 155, -1,
   136, 146, 158, -1,
   136, 144, 146, -1,
   144, 136, 138, -1,
   160, 161, 162, -1,
   161, 160, 163, -1,
   164, 163, 160, -1,
   163, 164, 165, -1,
   161, 166, 162, -1,
   166, 161, 167, -1,
   168, 169, 170, -1,
   169, 168, 171, -1,
   172, 173, 174, -1,
   173, 172, 175, -1,
   176, 177, 178, -1,
   177, 176, 179, -1,
   180, 181, 182, -1,
   181, 180, 183, -1,
   167, 184, 166, -1,
   184, 167, 185, -1,
   185, 186, 184, -1,
   186, 185, 187, -1,
   173, 188, 189, -1,
   188, 173, 175, -1,
   189, 165, 164, -1,
   165, 189, 188, -1,
   190, 171, 168, -1,
   171, 190, 191, -1,
   183, 174, 181, -1,
   174, 183, 172, -1,
   170, 179, 176, -1,
   179, 170, 169, -1,
   187, 177, 186, -1,
   177, 187, 178, -1,
   160, 189, 164, -1,
   162, 189, 160, -1,
   162, 173, 189, -1,
   166, 173, 162, -1,
   166, 174, 173, -1,
   184, 174, 166, -1,
   184, 181, 174, -1,
   186, 181, 184, -1,
   186, 182, 181, -1,
   177, 182, 186, -1,
   177, 191, 182, -1,
   179, 191, 177, -1,
   179, 171, 191, -1,
   171, 179, 169, -1,
   190, 182, 191, -1,
   182, 190, 180, -1,
   188, 163, 165, -1,
   175, 163, 188, -1,
   175, 161, 163, -1,
   172, 161, 175, -1,
   172, 167, 161, -1,
   183, 167, 172, -1,
   183, 185, 167, -1,
   180, 185, 183, -1,
   180, 187, 185, -1,
   190, 187, 180, -1,
   190, 178, 187, -1,
   168, 178, 190, -1,
   168, 176, 178, -1,
   176, 168, 170, -1
  ]
 }
}
Shape {
 appearance Appearance { material Material {
  diffuseColor 0.1725 0.1725 0.1804
  specularColor 0.250 0.250 0.250
  ambientIntensity 0.4
  shininess 0.30
 } }
 geometry IndexedFaceSet {
  creaseAngle 0.5
  coord Coordinate { point [
   2.31102 -5.70866 5.94488,
   3.68898 -8.07087 5.94488,
   3.68898 -5.70866 5.94488,
   2.31102 -8.07087 5.94488,
   2.31102 -8.07087 4.96063,
   3.68898 -5.70866 4.96063,
   3.68898 -8.07087 4.96063,
   2.31102 -5.70866 4.96063
  ] }
  coordIndex [
   0, 1, 2, -1,
   1, 0, 3, -1,
   4, 5, 6, -1,
   5, 4, 7, -1,
   4, 1, 3, -1,
   1, 4, 6, -1,
   1, 5, 2, -1,
   5, 1, 6, -1,
   5, 0, 2, -1,
   0, 5, 7, -1,
   4, 0, 7, -1,
   0, 4, 3, -1
  ]
 }
}
Shape {
 appearance Appearance { material Material {
  diffuseColor 0.7882 0.7882 0.7882
  specularColor 0.250 0.250 0.250
  ambientIntensity 0.4
  shininess 0.30
 } }
 geometry IndexedFaceSet {
  creaseAngle 0.5
  coord Coordinate { point [
   -0.10350 -0.07520 -1.14173,
   -0.12795 0.00000 0.39370,
   -0.12795 0.00000 -1.14173,
   -0.10350 -0.07520 0.39370,
   0.10350 0.07520 -1.14173,
   0.03953 0.12169 0.39370,
   0.10350 0.07520 0.39370,
   0.03953 0.12169 -1.14173,
   0.12795 0.00000 0.39370,
   0.12795 0.00000 -1.14173,
   -0.03953 0.12169 0.39370,
   -0.03953 0.12169 -1.14173,
   0.10350 -0.07520 0.39370,
   0.03953 -0.12169 0.39370,
   -0.03953 -0.12169 0.39370,
   -0.10350 0.07520 0.39370,
   -0.03953 -0.12169 -1.14173,
   0.10350 -0.07520 -1.14173,
   -0.10350 0.07520 -1.14173,
   0.03953 -0.12169 -1.14173,
   -0.10350 -1.07520 -1.14173,
   -0.12795 -1.00000 0.39370,
   -0.12795 -1.00000 -1.14173,
   -0.10350 -1.07520 0.39370,
   0.10350 -0.92480 -1.14173,
   0.03953 -0.87831 0.39370,
   0.10350 -0.92480 0.39370,
   0.03953 -0.87831 -1.14173,
   0.12795 -1.00000 0.39370,
   0.12795 -1.00000 -1.14173,
   -0.03953 -0.87831 0.39370,
   -0.03953 -0.87831 -1.14173,
   0.10350 -1.07520 0.39370,
   0.03953 -1.12169 0.39370,
   -0.03953 -1.12169 0.39370,
   -0.10350 -0.92480 0.39370,
   -0.03953 -1.12169 -1.14173,
   0.10350 -1.07520 -1.14173,
   -0.10350 -0.92480 -1.14173,
   0.03953 -1.12169 -1.14173,
   -0.10350 -2.07520 -1.14173,
   -0.12795 -2.00000 0.39370,
   -0.12795 -2.00000 -1.14173,
   -0.10350 -2.07520 0.39370,
   0.10350 -1.92480 -1.14173,
   0.03953 -1.87831 0.39370,
   0.10350 -1.92480 0.39370,
   0.03953 -1.87831 -1.14173,
   0.12795 -2.00000 0.39370,
   0.12795 -2.00000 -1.14173,
   -0.03953 -1.87831 0.39370,
   -0.03953 -1.87831 -1.14173,
   0.10350 -2.07520 0.39370,
   0.03953 -2.12169 0.39370,
   -0.03953 -2.12169 0.39370,
   -0.10350 -1.92480 0.39370,
   -0.03953 -2.12169 -1.14173,
   0.10350 -2.07520 -1.14173,
   -0.10350 -1.92480 -1.14173,
   0.03953 -2.12169 -1.14173,
   -0.10350 -3.07520 -1.14173,
   -0.12795 -3.00000 0.39370,
   -0.12795 -3.00000 -1.14173,
   -0.10350 -3.07520 0.39370,
   0.10350 -2.92480 -1.14173,
   0.03953 -2.87831 0.39370,
   0.10350 -2.92480 0.39370,
   0.03953 -2.87831 -1.14173,
   0.12795 -3.00000 0.39370,
   0.12795 -3.00000 -1.14173,
   -0.03953 -2.87831 0.39370,
   -0.03953 -2.87831 -1.14173,
   0.10350 -3.07520 0.39370,
   0.03953 -3.12169 0.39370,
   -0.03953 -3.12169 0.39370,
   -0.10350 -2.92480 0.39370,
   -0.03953 -3.12169 -1.14173,
   0.10350 -3.07520 -1.14173,
   -0.10350 -2.92480 -1.14173,
   0.03953 -3.12169 -1.14173,
   -0.10350 -4.07520 -1.14173,
   -0.12795 -4.00000 0.39370,
   -0.12795 -4.00000 -1.14173,
   -0.10350 -4.07520 0.39370,
   0.10350 -3.92480 -1.14173,
   0.03953 -3.87831 0.39370,
   0.10350 -3.92480 0.39370,
   0.03953 -3.87831 -1.14173,
   0.12795 -4.00000 0.39370,
   0.12795 -4.00000 -1.14173,
   -0.03953 -3.87831 0.39370,
   -0.03953 -3.87831 -1.14173,
   0.10350 -4.07520 0.39370,
   0.03953 -4.12169 0.39370,
   -0.03953 -4.12169 0.39370,
   -0.10350 -3.92480 0.39370,
   -0.03953 -4.12169 -1.14173,
   0.10350 -4.07520 -1.14173,
   -0.10350 -3.92480 -1.14173,
   0.03953 -4.12169 -1.14173,
   -0.10350 -5.07520 -1.14173,
   -0.12795 -5.00000 0.39370,
   -0.12795 -5.00000 -1.14173,
   -0.10350 -5.07520 0.39370,
   0.10350 -4.92480 -1.14173,
   0.03953 -4.87831 0.39370,
   0.10350 -4.92480 0.39370,
   0.03953 -4.87831 -1.14173,
   0.12795 -5.00000 0.39370,
   0.12795 -5.00000 -1.14173,
   -0.03953 -4.87831 0.39370,
   -0.03953 -4.87831 -1.14173,
   0.10350 -5.07520 0.39370,
   0.03953 -5.12169 0.39370,
   -0.03953 -5.12169 0.39370,
   -0.10350 -4.92480 0.39370,
   -0.03953 -5.12169 -1.14173,
   0.10350 -5.07520 -1.14173,
   -0.10350 -4.92480 -1.14173,
   0.03953 -5.12169 -1.14173,
   -0.10350 -6.07520 -1.14173,
   -0.12795 -6.00000 0.39370,
   -0.12795 -6.00000 -1.14173,
   -0.10350 -6.07520 0.39370,
   0.10350 -5.92480 -1.14173,
   0.03953 -5.87831 0.39370,
   0.10350 -5.92480 0.39370,
   0.03953 -5.87831 -1.14173,
   0.12795 -6.00000 0.39370,
   0.12795 -6.00000 -1.14173,
   -0.03953 -5.87831 0.39370,
   -0.03953 -5.87831 -1.14173,
   0.10350 -6.07520 0.39370,
   0.03953 -6.12169 0.39370,
   -0.03953 -6.12169 0.39370,
   -0.10350 -5.92480 0.39370,
   -0.03953 -6.12169 -1.14173,
   0.10350 -6.07520 -1.14173,
   -0.10350 -5.92480 -1.14173,
   0.03953 -6.12169 -1.14173,
   -0.10350 -7.07520 -1.14173,
   -0.12795 -7.00000 0.39370,
   -0.12795 -7.00000 -1.14173,
   -0.10350 -7.07520 0.39370,
   0.10350 -6.92480 -1.14173,
   0.03953 -6.87831 0.39370,
   0.10350 -6.92480 0.39370,
   0.03953 -6.87831 -1.14173,
   0.12795 -7.00000 0.39370,
   0.12795 -7.00000 -1.14173,
   -0.03953 -6.87831 0.39370,
   -0.03953 -6.87831 -1.14173,
   0.10350 -7.07520 0.39370,
   0.03953 -7.12169 0.39370,
   -0.03953 -7.12169 0.39370,
   -0.10350 -6.92480 0.39370,
   -0.03953 -7.12169 -1.14173,
   0.10350 -7.07520 -1.14173,
   -0.10350 -6.92480 -1.14173,
   0.03953 -7.12169 -1.14173,
   -0.10350 -8.07520 -1.14173,
   -0.12795 -8.00000 0.39370,
   -0.12795 -8.00000 -1.14173,
   -0.10350 -8.07520 0.39370,
   0.10350 -7.92480 -1.14173,
   0.03953 -7.87831 0.39370,
   0.10350 -7.92480 0.39370,
   0.03953 -7.87831 -1.14173,
   0.12795 -8.00000 0.39370,
   0.12795 -8.00000 -1.14173,
   -0.03953 -7.87831 0.39370,
   -0.03953 -7.87831 -1.14173,
   0.10350 -8.07520 0.39370,
   0.03953 -8.12169 0.39370,
   -0.03953 -8.12169 0.39370,
   -0.10350 -7.92480 0.39370,
   -0.03953 -8.12169 -1.14173,
   0.10350 -8.07520 -1.14173,
   -0.10350 -7.92480 -1.14173,
   0.03953 -8.12169 -1.14173,
   -0.10350 -9.07520 -1.14173,
   -0.12795 -9.00000 0.39370,
   -0.12795 -9.00000 -1.14173,
   -0.10350 -9.07520 0.39370,
   0.10350 -8.92480 -1.14173,
   0.03953 -8.87831 0.39370,
   0.10350 -8.92480 0.39370,
   0.03953 -8.87831 -1.14173,
   0.12795 -9.00000 0.39370,
   0.12795 -9.00000 -1.14173,
   -0.03953 -8.87831 0.39370,
   -0.03953 -8.87831 -1.14173,
   0.10350 -9.07520 0.39370,
   0.03953 -9.12169 0.39370,
   -0.03953 -9.12169 0.39370,
   -0.10350 -8.92480 0.39370,
   -0.03953 -9.12169 -1.14173,
   0.10350 -9.07520 -1.14173,
   -0.10350 -8.92480 -1.14173,
   0.03953 -9.12169 -1.14173,
   -0.10350 -10.07520 -1.14173,
   -0.12795 -10.00000 0.39370,
   -0.12795 -10.00000 -1.14173,
   -0.10350 -10.07520 0.39370,
   0.10350 -9.92480 -1.14173,
   0.03953 -9.87831 0.39370,
   0.10350 -9.92480 0.39370,
   0.03953 -9.87831 -1.14173,
   0.12795 -10.00000 0.39370,
   0.12795 -10.00000 -1.14173,
   -0.03953 -9.87831 0.39370,
   -0.03953 -9.87831 -1.14173,
   0.10350 -10.07520 0.39370,
   0.03953 -10.12169 0.39370,
   -0.03953 -10.12169 0.39370,
   -0.10350 -9.92480 0.39370,
   -0.03953 -10.12169 -1.14173,
   0.10350 -10.07520 -1.14173,
   -0.10350 -9.92480 -1.14173,
   0.03953 -10.12169 -1.14173,
   -0.10350 -11.07520 -1.14173,
   -0.12795 -11.00000 0.39370,
   -0.12795 -11.00000 -1.14173,
   -0.10350 -11.07520 0.39370,
   0.10350 -10.92480 -1.14173,
   0.03953 -10.87831 0.39370,
   0.10350 -10.92480 0.39370,
   0.03953 -10.87831 -1.14173,
   0.12795 -11.00000 0.39370,
   0.12795 -11.00000 -1.14173,
   -0.03953 -10.87831 0.39370,
   -0.03953 -10.87831 -1.14173,
   0.10350 -11.07520 0.39370,
   0.03953 -11.12169 0.39370,
   -0.03953 -11.12169 0.39370,
   -0.10350 -10.92480 0.39370,
   -0.03953 -11.12169 -1.14173,
   0.10350 -11.07520 -1.14173,
   -0.10350 -10.92480 -1.14173,
   0.03953 -11.12169 -1.14173,
   -0.10350 -12.07520 -1.14173,
   -0.12795 -12.00000 0.39370,
   -0.12795 -12.00000 -1.14173,
   -0.10350 -12.07520 0.39370,
   0.10350 -11.92480 -1.14173,
   0.03953 -11.87831 0.39370,
   0.10350 -11.92480 0.39370,
   0.03953 -11.87831 -1.14173,
   0.12795 -12.00000 0.39370,
   0.12795 -12.00000 -1.14173,
   -0.03953 -11.87831 0.39370,
   -0.03953 -11.87831 -1.14173,
   0.10350 -12.07520 0.39370,
   0.03953 -12.12169 0.39370,
   -0.03953 -12.12169 0.39370,
   -0.10350 -11.92480 0.39370,
   -0.03953 -12.12169 -1.14173,
   0.10350 -12.07520 -1.14173,
   -0.10350 -11.92480 -1.14173,
   0.03953 -12.12169 -1.14173,
   -0.10350 -13.07520 -1.14173,
   -0.12795 -13.00000 0.39370,
   -0.12795 -13.00000 -1.14173,
   -0.10350 -13.07520 0.39370,
   0.10350 -12.92480 -1.14173,
   0.03953 -12.87831 0.39370,
   0.10350 -12.92480 0.39370,
   0.03953 -12.87831 -1.14173,
   0.12795 -13.00000 0.39370,
   0.12795 -13.00000 -1.14173,
   -0.03953 -12.87831 0.39370,
   -0.03953 -12.87831 -1.14173,
   0.10350 -13.07520 0.39370,
   0.03953 -13.12169 0.39370,
   -0.03953 -13.12169 0.39370,
   -0.10350 -12.92480 0.39370,
   -0.03953 -13.12169 -1.14173,
   0.10350 -13.07520 -1.14173,
   -0.10350 -12.92480 -1.14173,
   0.03953 -13.12169 -1.14173,
   -0.10350 -14.07520 -1.14173,
   -0.12795 -14.00000 0.39370,
   -0.12795 -14.00000 -1.14173,
   -0.10350 -14.07520 0.39370,
   0.10350 -13.92480 -1.14173,
   0.03953 -13.87831 0.39370,
   0.10350 -13.92480 0.39370,
   0.03953 -13.87831 -1.14173,
   0.12795 -14.00000 0.39370,
   0.12795 -14.00000 -1.14173,
   -0.03953 -13.87831 0.39370,
   -0.03953 -13.87831 -1.14173,
   0.10350 -14.07520 0.39370,
   0.03953 -14.12169 0.39370,
   -0.03953 -14.12169 0.39370,
   -0.10350 -13.92480 0.39370,
   -0.03953 -14.12169 -1.14173,
   0.10350 -14.07520 -1.14173,
   -0.10350 -13.92480 -1.14173,
   0.03953 -14.12169 -1.14173,
   5.89650 -0.07520 -1.14173,
   5.96047 -0.12169 0.39370,
   5.89650 -0.07520 0.39370,
   5.96047 -0.12169 -1.14173,
   6.10350 0.07520 -1.14173,
   6.03953 0.12169 0.39370,
   6.10350 0.07520 0.39370,
   6.03953 0.12169 -1.14173,
   6.12795 0.00000 0.39370,
   6.12795 0.00000 -1.14173,
   6.03953 -0.12169 -1.14173,
   6.10350 -0.07520 0.39370,
   6.03953 -0.12169 0.39370,
   6.10350 -0.07520 -1.14173,
   5.87205 0.00000 0.39370,
   5.87205 0.00000 -1.14173,
   5.89650 0.07520 0.39370,
   5.89650 0.07520 -1.14173,
   5.96047 0.12169 0.39370,
   5.96047 0.12169 -1.14173,
   5.89650 -1.07520 -1.14173,
   5.96047 -1.12169 0.39370,
   5.89650 -1.07520 0.39370,
   5.96047 -1.12169 -1.14173,
   6.10350 -0.92480 -1.14173,
   6.03953 -0.87831 0.39370,
   6.10350 -0.92480 0.39370,
   6.03953 -0.87831 -1.14173,
   6.12795 -1.00000 0.39370,
   6.12795 -1.00000 -1.14173,
   6.03953 -1.12169 -1.14173,
   6.10350 -1.07520 0.39370,
   6.03953 -1.12169 0.39370,
   6.10350 -1.07520 -1.14173,
   5.96047 -0.87831 0.39370,
   5.89650 -0.92480 0.39370,
   5.87205 -1.00000 0.39370,
   5.87205 -1.00000 -1.14173,
   5.89650 -0.92480 -1.14173,
   5.96047 -0.87831 -1.14173,
   5.89650 -2.07520 -1.14173,
   5.96047 -2.12169 0.39370,
   5.89650 -2.07520 0.39370,
   5.96047 -2.12169 -1.14173,
   6.10350 -1.92480 -1.14173,
   6.03953 -1.87831 0.39370,
   6.10350 -1.92480 0.39370,
   6.03953 -1.87831 -1.14173,
   6.12795 -2.00000 0.39370,
   6.12795 -2.00000 -1.14173,
   6.03953 -2.12169 -1.14173,
   6.10350 -2.07520 0.39370,
   6.03953 -2.12169 0.39370,
   6.10350 -2.07520 -1.14173,
   5.87205 -2.00000 0.39370,
   5.87205 -2.00000 -1.14173,
   5.89650 -1.92480 0.39370,
   5.89650 -1.92480 -1.14173,
   5.96047 -1.87831 0.39370,
   5.96047 -1.87831 -1.14173,
   5.89650 -3.07520 -1.14173,
   5.96047 -3.12169 0.39370,
   5.89650 -3.07520 0.39370,
   5.96047 -3.12169 -1.14173,
   6.10350 -2.92480 -1.14173,
   6.03953 -2.87831 0.39370,
   6.10350 -2.92480 0.39370,
   6.03953 -2.87831 -1.14173,
   6.12795 -3.00000 0.39370,
   6.12795 -3.00000 -1.14173,
   6.03953 -3.12169 -1.14173,
   6.10350 -3.07520 0.39370,
   6.03953 -3.12169 0.39370,
   6.10350 -3.07520 -1.14173,
   5.96047 -2.87831 0.39370,
   5.89650 -2.92480 0.39370,
   5.87205 -3.00000 0.39370,
   5.87205 -3.00000 -1.14173,
   5.89650 -2.92480 -1.14173,
   5.96047 -2.87831 -1.14173,
   5.89650 -4.07520 -1.14173,
   5.96047 -4.12169 0.39370,
   5.89650 -4.07520 0.39370,
   5.96047 -4.12169 -1.14173,
   6.10350 -3.92480 -1.14173,
   6.03953 -3.87831 0.39370,
   6.10350 -3.92480 0.39370,
   6.03953 -3.87831 -1.14173,
   6.12795 -4.00000 0.39370,
   6.12795 -4.00000 -1.14173,
   6.03953 -4.12169 -1.14173,
   6.10350 -4.07520 0.39370,
   6.03953 -4.12169 0.39370,
   6.10350 -4.07520 -1.14173,
   5.87205 -4.00000 0.39370,
   5.87205 -4.00000 -1.14173,
   5.89650 -3.92480 0.39370,
   5.89650 -3.92480 -1.14173,
   5.96047 -3.87831 0.39370,
   5.96047 -3.87831 -1.14173,
   5.89650 -5.07520 -1.14173,
   5.96047 -5.12169 0.39370,
   5.89650 -5.07520 0.39370,
   5.96047 -5.12169 -1.14173,
   6.10350 -4.92480 -1.14173,
   6.03953 -4.87831 0.39370,
   6.10350 -4.92480 0.39370,
   6.03953 -4.87831 -1.14173,
   6.12795 -5.00000 0.39370,
   6.12795 -5.00000 -1.14173,
   6.03953 -5.12169 -1.14173,
   6.10350 -5.07520 0.39370,
   6.03953 -5.12169 0.39370,
   6.10350 -5.07520 -1.14173,
   5.87205 -5.00000 0.39370,
   5.87205 -5.00000 -1.14173,
   5.89650 -4.92480 0.39370,
   5.89650 -4.92480 -1.14173,
   5.96047 -4.87831 0.39370,
   5.96047 -4.87831 -1.14173,
   5.89650 -6.07520 -1.14173,
   5.96047 -6.12169 0.39370,
   5.89650 -6.07520 0.39370,
   5.96047 -6.12169 -1.14173,
   6.10350 -5.92480 -1.14173,
   6.03953 -5.87831 0.39370,
   6.10350 -5.92480 0.39370,
   6.03953 -5.87831 -1.14173,
   6.12795 -6.00000 0.39370,
   6.12795 -6.00000 -1.14173,
   6.03953 -6.12169 -1.14173,
   6.10350 -6.07520 0.39370,
   6.03953 -6.12169 0.39370,
   6.10350 -6.07520 -1.14173,
   5.87205 -6.00000 0.39370,
   5.87205 -6.00000 -1.14173,
   5.89650 -5.92480 0.39370,
   5.89650 -5.92480 -1.14173,
   5.96047 -5.87831 0.39370,
   5.96047 -5.87831 -1.14173,
   5.89650 -7.07520 -1.14173,
   5.96047 -7.12169 0.39370,
   5.89650 -7.07520 0.39370,
   5.96047 -7.12169 -1.14173,
   6.10350 -6.92480 -1.14173,
   6.03953 -6.87831 0.39370,
   6.10350 -6.92480 0.39370,
   6.03953 -6.87831 -1.14173,
   6.12795 -7.00000 0.39370,
   6.12795 -7.00000 -1.14173,
   6.03953 -7.12169 -1.14173,
   6.10350 -7.07520 0.39370,
   6.03953 -7.12169 0.39370,
   6.10350 -7.07520 -1.14173,
   5.87205 -7.00000 0.39370,
   5.87205 -7.00000 -1.14173,
   5.89650 -6.92480 0.39370,
   5.89650 -6.92480 -1.14173,
   5.96047 -6.87831 0.39370,
   5.96047 -6.87831 -1.14173,
   5.96047 -8.12169 -1.14173,
   6.03953 -8.12169 0.39370,
   5.96047 -8.12169 0.39370,
   6.03953 -8.12169 -1.14173,
   5.89650 -8.07520 -1.14173,
   5.89650 -8.07520 0.39370,
   6.10350 -7.92480 -1.14173,
   6.03953 -7.87831 0.39370,
   6.10350 -7.92480 0.39370,
   6.03953 -7.87831 -1.14173,
   6.12795 -8.00000 0.39370,
   6.12795 -8.00000 -1.14173,
   5.96047 -7.87831 -1.14173,
   5.89650 -7.92480 0.39370,
   5.96047 -7.87831 0.39370,
   5.89650 -7.92480 -1.14173,
   5.87205 -8.00000 0.39370,
   5.87205 -8.00000 -1.14173,
   6.10350 -8.07520 0.39370,
   6.10350 -8.07520 -1.14173,
   5.96047 -9.12169 -1.14173,
   6.03953 -9.12169 0.39370,
   5.96047 -9.12169 0.39370,
   6.03953 -9.12169 -1.14173,
   5.89650 -9.07520 -1.14173,
   5.89650 -9.07520 0.39370,
   6.10350 -8.92480 -1.14173,
   6.03953 -8.87831 0.39370,
   6.10350 -8.92480 0.39370,
   6.03953 -8.87831 -1.14173,
   6.12795 -9.00000 0.39370,
   6.12795 -9.00000 -1.14173,
   5.96047 -8.87831 -1.14173,
   5.89650 -8.92480 0.39370,
   5.96047 -8.87831 0.39370,
   5.89650 -8.92480 -1.14173,
   5.87205 -9.00000 0.39370,
   5.87205 -9.00000 -1.14173,
   6.10350 -9.07520 0.39370,
   6.10350 -9.07520 -1.14173,
   5.96047 -10.12169 -1.14173,
   6.03953 -10.12169 0.39370,
   5.96047 -10.12169 0.39370,
   6.03953 -10.12169 -1.14173,
   5.89650 -10.07520 -1.14173,
   5.89650 -10.07520 0.39370,
   6.10350 -9.92480 -1.14173,
   6.03953 -9.87831 0.39370,
   6.10350 -9.92480 0.39370,
   6.03953 -9.87831 -1.14173,
   6.12795 -10.00000 0.39370,
   6.12795 -10.00000 -1.14173,
   5.96047 -9.87831 -1.14173,
   5.89650 -9.92480 0.39370,
   5.96047 -9.87831 0.39370,
   5.89650 -9.92480 -1.14173,
   5.87205 -10.00000 0.39370,
   5.87205 -10.00000 -1.14173,
   6.10350 -10.07520 0.39370,
   6.10350 -10.07520 -1.14173,
   5.96047 -11.12169 -1.14173,
   6.03953 -11.12169 0.39370,
   5.96047 -11.12169 0.39370,
   6.03953 -11.12169 -1.14173,
   5.89650 -11.07520 -1.14173,
   5.89650 -11.07520 0.39370,
   6.10350 -10.92480 -1.14173,
   6.03953 -10.87831 0.39370,
   6.10350 -10.92480 0.39370,
   6.03953 -10.87831 -1.14173,
   6.12795 -11.00000 0.39370,
   6.12795 -11.00000 -1.14173,
   5.96047 -10.87831 -1.14173,
   5.89650 -10.92480 0.39370,
   5.96047 -10.87831 0.39370,
   5.89650 -10.92480 -1.14173,
   5.87205 -11.00000 0.39370,
   5.87205 -11.00000 -1.14173,
   6.10350 -11.07520 0.39370,
   6.10350 -11.07520 -1.14173,
   5.96047 -12.12169 -1.14173,
   6.03953 -12.12169 0.39370,
   5.96047 -12.12169 0.39370,
   6.03953 -12.12169 -1.14173,
   5.89650 -12.07520 -1.14173,
   5.89650 -12.07520 0.39370,
   6.10350 -11.92480 -1.14173,
   6.03953 -11.87831 0.39370,
   6.10350 -11.92480 0.39370,
   6.03953 -11.87831 -1.14173,
   6.12795 -12.00000 0.39370,
   6.12795 -12.00000 -1.14173,
   5.96047 -11.87831 -1.14173,
   5.89650 -11.92480 0.39370,
   5.96047 -11.87831 0.39370,
   5.89650 -11.92480 -1.14173,
   5.87205 -12.00000 0.39370,
   5.87205 -12.00000 -1.14173,
   6.10350 -12.07520 0.39370,
   6.10350 -12.07520 -1.14173,
   5.96047 -13.12169 -1.14173,
   6.03953 -13.12169 0.39370,
   5.96047 -13.12169 0.39370,
   6.03953 -13.12169 -1.14173,
   5.89650 -13.07520 -1.14173,
   5.89650 -13.07520 0.39370,
   6.10350 -12.92480 -1.14173,
   6.03953 -12.87831 0.39370,
   6.10350 -12.92480 0.39370,
   6.03953 -12.87831 -1.14173,
   6.12795 -13.00000 0.39370,
   6.12795 -13.00000 -1.14173,
   5.96047 -12.87831 -1.14173,
   5.89650 -12.92480 0.39370,
   5.96047 -12.87831 0.39370,
   5.89650 -12.92480 -1.14173,
   5.87205 -13.00000 0.39370,
   5.87205 -13.00000 -1.14173,
   6.10350 -13.07520 0.39370,
   6.10350 -13.07520 -1.14173,
   5.96047 -14.12169 -1.14173,
   6.03953 -14.12169 0.39370,
   5.96047 -14.12169 0.39370,
   6.03953 -14.12169 -1.14173,
   5.89650 -14.07520 -1.14173,
   5.89650 -14.07520 0.39370,
   6.10350 -13.92480 -1.14173,
   6.03953 -13.87831 0.39370,
   6.10350 -13.92480 0.39370,
   6.03953 -13.87831 -1.14173,
   6.12795 -14.00000 0.39370,
   6.12795 -14.00000 -1.14173,
   5.96047 -13.87831 -1.14173,
   5.89650 -13.92480 0.39370,
   5.96047 -13.87831 0.39370,
   5.89650 -13.92480 -1.14173,
   5.87205 -14.00000 0.39370,
   5.87205 -14.00000 -1.14173,
   6.10350 -14.07520 0.39370,
   6.10350 -14.07520 -1.14173
  ] }
  coordIndex [
   0, 1, 2, -1,
   1, 0, 3, -1,
   4, 5, 6, -1,
   5, 4, 7, -1,
   8, 4, 6, -1,
   4, 8, 9, -1,
   7, 10, 5, -1,
   10, 7, 11, -1,
   6, 12, 8, -1,
   5, 12, 6, -1,
   5, 13, 12, -1,
   10, 13, 5, -1,
   10, 14, 13, -1,
   15, 14, 10, -1,
   15, 3, 14, -1,
   3, 15, 1, -1,
   0, 14, 3, -1,
   14, 0, 16, -1,
   12, 9, 8, -1,
   9, 12, 17, -1,
   11, 15, 10, -1,
   15, 11, 18, -1,
   16, 13, 14, -1,
   13, 16, 19, -1,
   19, 12, 13, -1,
   12, 19, 17, -1,
   2, 15, 18, -1,
   15, 2, 1, -1,
   17, 4, 9, -1,
   19, 4, 17, -1,
   19, 7, 4, -1,
   16, 7, 19, -1,
   16, 11, 7, -1,
   0, 11, 16, -1,
   0, 18, 11, -1,
   18, 0, 2, -1,
   20, 21, 22, -1,
   21, 20, 23, -1,
   24, 25, 26, -1,
   25, 24, 27, -1,
   28, 24, 26, -1,
   24, 28, 29, -1,
   27, 30, 25, -1,
   30, 27, 31, -1,
   26, 32, 28, -1,
   25, 32, 26, -1,
   25, 33, 32, -1,
   30, 33, 25, -1,
   30, 34, 33, -1,
   35, 34, 30, -1,
   35, 23, 34, -1,
   23, 35, 21, -1,
   20, 34, 23, -1,
   34, 20, 36, -1,
   32, 29, 28, -1,
   29, 32, 37, -1,
   31, 35, 30, -1,
   35, 31, 38, -1,
   36, 33, 34, -1,
   33, 36, 39, -1,
   39, 32, 33, -1,
   32, 39, 37, -1,
   22, 35, 38, -1,
   35, 22, 21, -1,
   37, 24, 29, -1,
   39, 24, 37, -1,
   39, 27, 24, -1,
   36, 27, 39, -1,
   36, 31, 27, -1,
   20, 31, 36, -1,
   20, 38, 31, -1,
   38, 20, 22, -1,
   40, 41, 42, -1,
   41, 40, 43, -1,
   44, 45, 46, -1,
   45, 44, 47, -1,
   48, 44, 46, -1,
   44, 48, 49, -1,
   47, 50, 45, -1,
   50, 47, 51, -1,
   46, 52, 48, -1,
   45, 52, 46, -1,
   45, 53, 52, -1,
   50, 53, 45, -1,
   50, 54, 53, -1,
   55, 54, 50, -1,
   55, 43, 54, -1,
   43, 55, 41, -1,
   40, 54, 43, -1,
   54, 40, 56, -1,
   52, 49, 48, -1,
   49, 52, 57, -1,
   51, 55, 50, -1,
   55, 51, 58, -1,
   56, 53, 54, -1,
   53, 56, 59, -1,
   59, 52, 53, -1,
   52, 59, 57, -1,
   42, 55, 58, -1,
   55, 42, 41, -1,
   57, 44, 49, -1,
   59, 44, 57, -1,
   59, 47, 44, -1,
   56, 47, 59, -1,
   56, 51, 47, -1,
   40, 51, 56, -1,
   40, 58, 51, -1,
   58, 40, 42, -1,
   60, 61, 62, -1,
   61, 60, 63, -1,
   64, 65, 66, -1,
   65, 64, 67, -1,
   68, 64, 66, -1,
   64, 68, 69, -1,
   67, 70, 65, -1,
   70, 67, 71, -1,
   66, 72, 68, -1,
   65, 72, 66, -1,
   65, 73, 72, -1,
   70, 73, 65, -1,
   70, 74, 73, -1,
   75, 74, 70, -1,
   75, 63, 74, -1,
   63, 75, 61, -1,
   60, 74, 63, -1,
   74, 60, 76, -1,
   72, 69, 68, -1,
   69, 72, 77, -1,
   71, 75, 70, -1,
   75, 71, 78, -1,
   76, 73, 74, -1,
   73, 76, 79, -1,
   79, 72, 73, -1,
   72, 79, 77, -1,
   62, 75, 78, -1,
   75, 62, 61, -1,
   77, 64, 69, -1,
   79, 64, 77, -1,
   79, 67, 64, -1,
   76, 67, 79, -1,
   76, 71, 67, -1,
   60, 71, 76, -1,
   60, 78, 71, -1,
   78, 60, 62, -1,
   80, 81, 82, -1,
   81, 80, 83, -1,
   84, 85, 86, -1,
   85, 84, 87, -1,
   88, 84, 86, -1,
   84, 88, 89, -1,
   87, 90, 85, -1,
   90, 87, 91, -1,
   86, 92, 88, -1,
   85, 92, 86, -1,
   85, 93, 92, -1,
   90, 93, 85, -1,
   90, 94, 93, -1,
   95, 94, 90, -1,
   95, 83, 94, -1,
   83, 95, 81, -1,
   80, 94, 83, -1,
   94, 80, 96, -1,
   92, 89, 88, -1,
   89, 92, 97, -1,
   91, 95, 90, -1,
   95, 91, 98, -1,
   96, 93, 94, -1,
   93, 96, 99, -1,
   99, 92, 93, -1,
   92, 99, 97, -1,
   82, 95, 98, -1,
   95, 82, 81, -1,
   97, 84, 89, -1,
   99, 84, 97, -1,
   99, 87, 84, -1,
   96, 87, 99, -1,
   96, 91, 87, -1,
   80, 91, 96, -1,
   80, 98, 91, -1,
   98, 80, 82, -1,
   100, 101, 102, -1,
   101, 100, 103, -1,
   104, 105, 106, -1,
   105, 104, 107, -1,
   108, 104, 106, -1,
   104, 108, 109, -1,
   107, 110, 105, -1,
   110, 107, 111, -1,
   106, 112, 108, -1,
   105, 112, 106, -1,
   105, 113, 112, -1,
   110, 113, 105, -1,
   110, 114, 113, -1,
   115, 114, 110, -1,
   115, 103, 114, -1,
   103, 115, 101, -1,
   100, 114, 103, -1,
   114, 100, 116, -1,
   112, 109, 108, -1,
   109, 112, 117, -1,
   111, 115, 110, -1,
   115, 111, 118, -1,
   116, 113, 114, -1,
   113, 116, 119, -1,
   119, 112, 113, -1,
   112, 119, 117, -1,
   102, 115, 118, -1,
   115, 102, 101, -1,
   117, 104, 109, -1,
   119, 104, 117, -1,
   119, 107, 104, -1,
   116, 107, 119, -1,
   116, 111, 107, -1,
   100, 111, 116, -1,
   100, 118, 111, -1,
   118, 100, 102, -1,
   120, 121, 122, -1,
   121, 120, 123, -1,
   124, 125, 126, -1,
   125, 124, 127, -1,
   128, 124, 126, -1,
   124, 128, 129, -1,
   127, 130, 125, -1,
   130, 127, 131, -1,
   126, 132, 128, -1,
   125, 132, 126, -1,
   125, 133, 132, -1,
   130, 133, 125, -1,
   130, 134, 133, -1,
   135, 134, 130, -1,
   135, 123, 134, -1,
   123, 135, 121, -1,
   120, 134, 123, -1,
   134, 120, 136, -1,
   132, 129, 128, -1,
   129, 132, 137, -1,
   131, 135, 130, -1,
   135, 131, 138, -1,
   136, 133, 134, -1,
   133, 136, 139, -1,
   139, 132, 133, -1,
   132, 139, 137, -1,
   122, 135, 138, -1,
   135, 122, 121, -1,
   137, 124, 129, -1,
   139, 124, 137, -1,
   139, 127, 124, -1,
   136, 127, 139, -1,
   136, 131, 127, -1,
   120, 131, 136, -1,
   120, 138, 131, -1,
   138, 120, 122, -1,
   140, 141, 142, -1,
   141, 140, 143, -1,
   144, 145, 146, -1,
   145, 144, 147, -1,
   148, 144, 146, -1,
   144, 148, 149, -1,
   147, 150, 145, -1,
   150, 147, 151, -1,
   146, 152, 148, -1,
   145, 152, 146, -1,
   145, 153, 152, -1,
   150, 153, 145, -1,
   150, 154, 153, -1,
   155, 154, 150, -1,
   155, 143, 154, -1,
   143, 155, 141, -1,
   140, 154, 143, -1,
   154, 140, 156, -1,
   152, 149, 148, -1,
   149, 152, 157, -1,
   151, 155, 150, -1,
   155, 151, 158, -1,
   156, 153, 154, -1,
   153, 156, 159, -1,
   159, 152, 153, -1,
   152, 159, 157, -1,
   142, 155, 158, -1,
   155, 142, 141, -1,
   157, 144, 149, -1,
   159, 144, 157, -1,
   159, 147, 144, -1,
   156, 147, 159, -1,
   156, 151, 147, -1,
   140, 151, 156, -1,
   140, 158, 151, -1,
   158, 140, 142, -1,
   160, 161, 162, -1,
   161, 160, 163, -1,
   164, 165, 166, -1,
   165, 164, 167, -1,
   168, 164, 166, -1,
   164, 168, 169, -1,
   167, 170, 165, -1,
   170, 167, 171, -1,
   166, 172, 168, -1,
   165, 172, 166, -1,
   165, 173, 172, -1,
   170, 173, 165, -1,
   170, 174, 173, -1,
   175, 174, 170, -1,
   175, 163, 174, -1,
   163, 175, 161, -1,
   160, 174, 163, -1,
   174, 160, 176, -1,
   172, 169, 168, -1,
   169, 172, 177, -1,
   171, 175, 170, -1,
   175, 171, 178, -1,
   176, 173, 174, -1,
   173, 176, 179, -1,
   179, 172, 173, -1,
   172, 179, 177, -1,
   162, 175, 178, -1,
   175, 162, 161, -1,
   177, 164, 169, -1,
   179, 164, 177, -1,
   179, 167, 164, -1,
   176, 167, 179, -1,
   176, 171, 167, -1,
   160, 171, 176, -1,
   160, 178, 171, -1,
   178, 160, 162, -1,
   180, 181, 182, -1,
   181, 180, 183, -1,
   184, 185, 186, -1,
   185, 184, 187, -1,
   188, 184, 186, -1,
   184, 188, 189, -1,
   187, 190, 185, -1,
   190, 187, 191, -1,
   186, 192, 188, -1,
   185, 192, 186, -1,
   185, 193, 192, -1,
   190, 193, 185, -1,
   190, 194, 193, -1,
   195, 194, 190, -1,
   195, 183, 194, -1,
   183, 195, 181, -1,
   180, 194, 183, -1,
   194, 180, 196, -1,
   192, 189, 188, -1,
   189, 192, 197, -1,
   191, 195, 190, -1,
   195, 191, 198, -1,
   196, 193, 194, -1,
   193, 196, 199, -1,
   199, 192, 193, -1,
   192, 199, 197, -1,
   182, 195, 198, -1,
   195, 182, 181, -1,
   197, 184, 189, -1,
   199, 184, 197, -1,
   199, 187, 184, -1,
   196, 187, 199, -1,
   196, 191, 187, -1,
   180, 191, 196, -1,
   180, 198, 191, -1,
   198, 180, 182, -1,
   200, 201, 202, -1,
   201, 200, 203, -1,
   204, 205, 206, -1,
   205, 204, 207, -1,
   208, 204, 206, -1,
   204, 208, 209, -1,
   207, 210, 205, -1,
   210, 207, 211, -1,
   206, 212, 208, -1,
   205, 212, 206, -1,
   205, 213, 212, -1,
   210, 213, 205, -1,
   210, 214, 213, -1,
   215, 214, 210, -1,
   215, 203, 214, -1,
   203, 215, 201, -1,
   200, 214, 203, -1,
   214, 200, 216, -1,
   212, 209, 208, -1,
   209, 212, 217, -1,
   211, 215, 210, -1,
   215, 211, 218, -1,
   216, 213, 214, -1,
   213, 216, 219, -1,
   219, 212, 213, -1,
   212, 219, 217, -1,
   202, 215, 218, -1,
   215, 202, 201, -1,
   217, 204, 209, -1,
   219, 204, 217, -1,
   219, 207, 204, -1,
   216, 207, 219, -1,
   216, 211, 207, -1,
   200, 211, 216, -1,
   200, 218, 211, -1,
   218, 200, 202, -1,
   220, 221, 222, -1,
   221, 220, 223, -1,
   224, 225, 226, -1,
   225, 224, 227, -1,
   228, 224, 226, -1,
   224, 228, 229, -1,
   227, 230, 225, -1,
   230, 227, 231, -1,
   226, 232, 228, -1,
   225, 232, 226, -1,
   225, 233, 232, -1,
   230, 233, 225, -1,
   230, 234, 233, -1,
   235, 234, 230, -1,
   235, 223, 234, -1,
   223, 235, 221, -1,
   220, 234, 223, -1,
   234, 220, 236, -1,
   232, 229, 228, -1,
   229, 232, 237, -1,
   231, 235, 230, -1,
   235, 231, 238, -1,
   236, 233, 234, -1,
   233, 236, 239, -1,
   239, 232, 233, -1,
   232, 239, 237, -1,
   222, 235, 238, -1,
   235, 222, 221, -1,
   237, 224, 229, -1,
   239, 224, 237, -1,
   239, 227, 224, -1,
   236, 227, 239, -1,
   236, 231, 227, -1,
   220, 231, 236, -1,
   220, 238, 231, -1,
   238, 220, 222, -1,
   240, 241, 242, -1,
   241, 240, 243, -1,
   244, 245, 246, -1,
   245, 244, 247, -1,
   248, 244, 246, -1,
   244, 248, 249, -1,
   247, 250, 245, -1,
   250, 247, 251, -1,
   246, 252, 248, -1,
   245, 252, 246, -1,
   245, 253, 252, -1,
   250, 253, 245, -1,
   250, 254, 253, -1,
   255, 254, 250, -1,
   255, 243, 254, -1,
   243, 255, 241, -1,
   240, 254, 243, -1,
   254, 240, 256, -1,
   252, 249, 248, -1,
   249, 252, 257, -1,
   251, 255, 250, -1,
   255, 251, 258, -1,
   256, 253, 254, -1,
   253, 256, 259, -1,
   259, 252, 253, -1,
   252, 259, 257, -1,
   242, 255, 258, -1,
   255, 242, 241, -1,
   257, 244, 249, -1,
   259, 244, 257, -1,
   259, 247, 244, -1,
   256, 247, 259, -1,
   256, 251, 247, -1,
   240, 251, 256, -1,
   240, 258, 251, -1,
   258, 240, 242, -1,
   260, 261, 262, -1,
   261, 260, 263, -1,
   264, 265, 266, -1,
   265, 264, 267, -1,
   268, 264, 266, -1,
   264, 268, 269, -1,
   267, 270, 265, -1,
   270, 267, 271, -1,
   266, 272, 268, -1,
   265, 272, 266, -1,
   265, 273, 272, -1,
   270, 273, 265, -1,
   270, 274, 273, -1,
   275, 274, 270, -1,
   275, 263, 274, -1,
   263, 275, 261, -1,
   260, 274, 263, -1,
   274, 260, 276, -1,
   272, 269, 268, -1,
   269, 272, 277, -1,
   271, 275, 270, -1,
   275, 271, 278, -1,
   276, 273, 274, -1,
   273, 276, 279, -1,
   279, 272, 273, -1,
   272, 279, 277, -1,
   262, 275, 278, -1,
   275, 262, 261, -1,
   277, 264, 269, -1,
   279, 264, 277, -1,
   279, 267, 264, -1,
   276, 267, 279, -1,
   276, 271, 267, -1,
   260, 271, 276, -1,
   260, 278, 271, -1,
   278, 260, 262, -1,
   280, 281, 282, -1,
   281, 280, 283, -1,
   284, 285, 286, -1,
   285, 284, 287, -1,
   288, 284, 286, -1,
   284, 288, 289, -1,
   287, 290, 285, -1,
   290, 287, 291, -1,
   286, 292, 288, -1,
   285, 292, 286, -1,
   285, 293, 292, -1,
   290, 293, 285, -1,
   290, 294, 293, -1,
   295, 294, 290, -1,
   295, 283, 294, -1,
   283, 295, 281, -1,
   280, 294, 283, -1,
   294, 280, 296, -1,
   292, 289, 288, -1,
   289, 292, 297, -1,
   291, 295, 290, -1,
   295, 291, 298, -1,
   296, 293, 294, -1,
   293, 296, 299, -1,
   299, 292, 293, -1,
   292, 299, 297, -1,
   282, 295, 298, -1,
   295, 282, 281, -1,
   297, 284, 289, -1,
   299, 284, 297, -1,
   299, 287, 284, -1,
   296, 287, 299, -1,
   296, 291, 287, -1,
   280, 291, 296, -1,
   280, 298, 291, -1,
   298, 280, 282, -1,
   300, 301, 302, -1,
   301, 300, 303, -1,
   304, 305, 306, -1,
   305, 304, 307, -1,
   308, 304, 306, -1,
   304, 308, 309, -1,
   310, 311, 312, -1,
   311, 310, 313, -1,
   303, 312, 301, -1,
   312, 303, 310, -1,
   300, 314, 315, -1,
   314, 300, 302, -1,
   315, 316, 317, -1,
   316, 315, 314, -1,
   306, 311, 308, -1,
   305, 311, 306, -1,
   305, 312, 311, -1,
   318, 312, 305, -1,
   318, 301, 312, -1,
   316, 301, 318, -1,
   316, 302, 301, -1,
   302, 316, 314, -1,
   311, 309, 308, -1,
   309, 311, 313, -1,
   319, 316, 318, -1,
   316, 319, 317, -1,
   313, 304, 309, -1,
   310, 304, 313, -1,
   310, 307, 304, -1,
   303, 307, 310, -1,
   303, 319, 307, -1,
   300, 319, 303, -1,
   300, 317, 319, -1,
   317, 300, 315, -1,
   307, 318, 305, -1,
   318, 307, 319, -1,
   320, 321, 322, -1,
   321, 320, 323, -1,
   324, 325, 326, -1,
   325, 324, 327, -1,
   328, 324, 326, -1,
   324, 328, 329, -1,
   330, 331, 332, -1,
   331, 330, 333, -1,
   323, 332, 321, -1,
   332, 323, 330, -1,
   326, 331, 328, -1,
   325, 331, 326, -1,
   325, 332, 331, -1,
   334, 332, 325, -1,
   334, 321, 332, -1,
   335, 321, 334, -1,
   335, 322, 321, -1,
   322, 335, 336, -1,
   320, 336, 337, -1,
   336, 320, 322, -1,
   337, 335, 338, -1,
   335, 337, 336, -1,
   331, 329, 328, -1,
   329, 331, 333, -1,
   339, 335, 334, -1,
   335, 339, 338, -1,
   333, 324, 329, -1,
   330, 324, 333, -1,
   330, 327, 324, -1,
   323, 327, 330, -1,
   323, 339, 327, -1,
   320, 339, 323, -1,
   320, 338, 339, -1,
   338, 320, 337, -1,
   327, 334, 325, -1,
   334, 327, 339, -1,
   340, 341, 342, -1,
   341, 340, 343, -1,
   344, 345, 346, -1,
   345, 344, 347, -1,
   348, 344, 346, -1,
   344, 348, 349, -1,
   350, 351, 352, -1,
   351, 350, 353, -1,
   343, 352, 341, -1,
   352, 343, 350, -1,
   340, 354, 355, -1,
   354, 340, 342, -1,
   355, 356, 357, -1,
   356, 355, 354, -1,
   346, 351, 348, -1,
   345, 351, 346, -1,
   345, 352, 351, -1,
   358, 352, 345, -1,
   358, 341, 352, -1,
   356, 341, 358, -1,
   356, 342, 341, -1,
   342, 356, 354, -1,
   351, 349, 348, -1,
   349, 351, 353, -1,
   359, 356, 358, -1,
   356, 359, 357, -1,
   353, 344, 349, -1,
   350, 344, 353, -1,
   350, 347, 344, -1,
   343, 347, 350, -1,
   343, 359, 347, -1,
   340, 359, 343, -1,
   340, 357, 359, -1,
   357, 340, 355, -1,
   347, 358, 345, -1,
   358, 347, 359, -1,
   360, 361, 362, -1,
   361, 360, 363, -1,
   364, 365, 366, -1,
   365, 364, 367, -1,
   368, 364, 366, -1,
   364, 368, 369, -1,
   370, 371, 372, -1,
   371, 370, 373, -1,
   363, 372, 361, -1,
   372, 363, 370, -1,
   366, 371, 368, -1,
   365, 371, 366, -1,
   365, 372, 371, -1,
   374, 372, 365, -1,
   374, 361, 372, -1,
   375, 361, 374, -1,
   375, 362, 361, -1,
   362, 375, 376, -1,
   360, 376, 377, -1,
   376, 360, 362, -1,
   377, 375, 378, -1,
   375, 377, 376, -1,
   371, 369, 368, -1,
   369, 371, 373, -1,
   379, 375, 374, -1,
   375, 379, 378, -1,
   373, 364, 369, -1,
   370, 364, 373, -1,
   370, 367, 364, -1,
   363, 367, 370, -1,
   363, 379, 367, -1,
   360, 379, 363, -1,
   360, 378, 379, -1,
   378, 360, 377, -1,
   367, 374, 365, -1,
   374, 367, 379, -1,
   380, 381, 382, -1,
   381, 380, 383, -1,
   384, 385, 386, -1,
   385, 384, 387, -1,
   388, 384, 386, -1,
   384, 388, 389, -1,
   390, 391, 392, -1,
   391, 390, 393, -1,
   383, 392, 381, -1,
   392, 383, 390, -1,
   380, 394, 395, -1,
   394, 380, 382, -1,
   395, 396, 397, -1,
   396, 395, 394, -1,
   391, 389, 388, -1,
   389, 391, 393, -1,
   386, 391, 388, -1,
   385, 391, 386, -1,
   385, 392, 391, -1,
   398, 392, 385, -1,
   398, 381, 392, -1,
   396, 381, 398, -1,
   396, 382, 381, -1,
   382, 396, 394, -1,
   399, 396, 398, -1,
   396, 399, 397, -1,
   393, 384, 389, -1,
   390, 384, 393, -1,
   390, 387, 384, -1,
   383, 387, 390, -1,
   383, 399, 387, -1,
   380, 399, 383, -1,
   380, 397, 399, -1,
   397, 380, 395, -1,
   387, 398, 385, -1,
   398, 387, 399, -1,
   400, 401, 402, -1,
   401, 400, 403, -1,
   404, 405, 406, -1,
   405, 404, 407, -1,
   408, 404, 406, -1,
   404, 408, 409, -1,
   410, 411, 412, -1,
   411, 410, 413, -1,
   403, 412, 401, -1,
   412, 403, 410, -1,
   400, 414, 415, -1,
   414, 400, 402, -1,
   415, 416, 417, -1,
   416, 415, 414, -1,
   406, 411, 408, -1,
   405, 411, 406, -1,
   405, 412, 411, -1,
   418, 412, 405, -1,
   418, 401, 412, -1,
   416, 401, 418, -1,
   416, 402, 401, -1,
   402, 416, 414, -1,
   411, 409, 408, -1,
   409, 411, 413, -1,
   419, 416, 418, -1,
   416, 419, 417, -1,
   413, 404, 409, -1,
   410, 404, 413, -1,
   410, 407, 404, -1,
   403, 407, 410, -1,
   403, 419, 407, -1,
   400, 419, 403, -1,
   400, 417, 419, -1,
   417, 400, 415, -1,
   407, 418, 405, -1,
   418, 407, 419, -1,
   420, 421, 422, -1,
   421, 420, 423, -1,
   424, 425, 426, -1,
   425, 424, 427, -1,
   428, 424, 426, -1,
   424, 428, 429, -1,
   430, 431, 432, -1,
   431, 430, 433, -1,
   423, 432, 421, -1,
   432, 423, 430, -1,
   420, 434, 435, -1,
   434, 420, 422, -1,
   435, 436, 437, -1,
   436, 435, 434, -1,
   431, 429, 428, -1,
   429, 431, 433, -1,
   426, 431, 428, -1,
   425, 431, 426, -1,
   425, 432, 431, -1,
   438, 432, 425, -1,
   438, 421, 432, -1,
   436, 421, 438, -1,
   436, 422, 421, -1,
   422, 436, 434, -1,
   439, 436, 438, -1,
   436, 439, 437, -1,
   433, 424, 429, -1,
   430, 424, 433, -1,
   430, 427, 424, -1,
   423, 427, 430, -1,
   423, 439, 427, -1,
   420, 439, 423, -1,
   420, 437, 439, -1,
   437, 420, 435, -1,
   427, 438, 425, -1,
   438, 427, 439, -1,
   440, 441, 442, -1,
   441, 440, 443, -1,
   444, 445, 446, -1,
   445, 444, 447, -1,
   448, 444, 446, -1,
   444, 448, 449, -1,
   450, 451, 452, -1,
   451, 450, 453, -1,
   443, 452, 441, -1,
   452, 443, 450, -1,
   440, 454, 455, -1,
   454, 440, 442, -1,
   455, 456, 457, -1,
   456, 455, 454, -1,
   446, 451, 448, -1,
   445, 451, 446, -1,
   445, 452, 451, -1,
   458, 452, 445, -1,
   458, 441, 452, -1,
   456, 441, 458, -1,
   456, 442, 441, -1,
   442, 456, 454, -1,
   451, 449, 448, -1,
   449, 451, 453, -1,
   459, 456, 458, -1,
   456, 459, 457, -1,
   453, 444, 449, -1,
   450, 444, 453, -1,
   450, 447, 444, -1,
   443, 447, 450, -1,
   443, 459, 447, -1,
   440, 459, 443, -1,
   440, 457, 459, -1,
   457, 440, 455, -1,
   447, 458, 445, -1,
   458, 447, 459, -1,
   460, 461, 462, -1,
   461, 460, 463, -1,
   464, 462, 465, -1,
   462, 464, 460, -1,
   466, 467, 468, -1,
   467, 466, 469, -1,
   470, 466, 468, -1,
   466, 470, 471, -1,
   472, 473, 474, -1,
   473, 472, 475, -1,
   464, 476, 477, -1,
   476, 464, 465, -1,
   477, 473, 475, -1,
   473, 477, 476, -1,
   463, 478, 461, -1,
   478, 463, 479, -1,
   478, 471, 470, -1,
   471, 478, 479, -1,
   468, 478, 470, -1,
   467, 478, 468, -1,
   467, 461, 478, -1,
   474, 461, 467, -1,
   474, 462, 461, -1,
   473, 462, 474, -1,
   473, 465, 462, -1,
   465, 473, 476, -1,
   479, 466, 471, -1,
   463, 466, 479, -1,
   463, 469, 466, -1,
   460, 469, 463, -1,
   460, 472, 469, -1,
   464, 472, 460, -1,
   464, 475, 472, -1,
   475, 464, 477, -1,
   469, 474, 467, -1,
   474, 469, 472, -1,
   480, 481, 482, -1,
   481, 480, 483, -1,
   484, 482, 485, -1,
   482, 484, 480, -1,
   486, 487, 488, -1,
   487, 486, 489, -1,
   490, 486, 488, -1,
   486, 490, 491, -1,
   492, 493, 494, -1,
   493, 492, 495, -1,
   484, 496, 497, -1,
   496, 484, 485, -1,
   497, 493, 495, -1,
   493, 497, 496, -1,
   488, 498, 490, -1,
   487, 498, 488, -1,
   487, 481, 498, -1,
   494, 481, 487, -1,
   494, 482, 481, -1,
   493, 482, 494, -1,
   493, 485, 482, -1,
   485, 493, 496, -1,
   483, 498, 481, -1,
   498, 483, 499, -1,
   498, 491, 490, -1,
   491, 498, 499, -1,
   499, 486, 491, -1,
   483, 486, 499, -1,
   483, 489, 486, -1,
   480, 489, 483, -1,
   480, 492, 489, -1,
   484, 492, 480, -1,
   484, 495, 492, -1,
   495, 484, 497, -1,
   489, 494, 487, -1,
   494, 489, 492, -1,
   500, 501, 502, -1,
   501, 500, 503, -1,
   504, 502, 505, -1,
   502, 504, 500, -1,
   506, 507, 508, -1,
   507, 506, 509, -1,
   510, 506, 508, -1,
   506, 510, 511, -1,
   512, 513, 514, -1,
   513, 512, 515, -1,
   504, 516, 517, -1,
   516, 504, 505, -1,
   517, 513, 515, -1,
   513, 517, 516, -1,
   508, 518, 510, -1,
   507, 518, 508, -1,
   507, 501, 518, -1,
   514, 501, 507, -1,
   514, 502, 501, -1,
   513, 502, 514, -1,
   513, 505, 502, -1,
   505, 513, 516, -1,
   503, 518, 501, -1,
   518, 503, 519, -1,
   518, 511, 510, -1,
   511, 518, 519, -1,
   519, 506, 511, -1,
   503, 506, 519, -1,
   503, 509, 506, -1,
   500, 509, 503, -1,
   500, 512, 509, -1,
   504, 512, 500, -1,
   504, 515, 512, -1,
   515, 504, 517, -1,
   509, 514, 507, -1,
   514, 509, 512, -1,
   520, 521, 522, -1,
   521, 520, 523, -1,
   524, 522, 525, -1,
   522, 524, 520, -1,
   526, 527, 528, -1,
   527, 526, 529, -1,
   530, 526, 528, -1,
   526, 530, 531, -1,
   532, 533, 534, -1,
   533, 532, 535, -1,
   524, 536, 537, -1,
   536, 524, 525, -1,
   537, 533, 535, -1,
   533, 537, 536, -1,
   528, 538, 530, -1,
   527, 538, 528, -1,
   527, 521, 538, -1,
   534, 521, 527, -1,
   534, 522, 521, -1,
   533, 522, 534, -1,
   533, 525, 522, -1,
   525, 533, 536, -1,
   523, 538, 521, -1,
   538, 523, 539, -1,
   538, 531, 530, -1,
   531, 538, 539, -1,
   539, 526, 531, -1,
   523, 526, 539, -1,
   523, 529, 526, -1,
   520, 529, 523, -1,
   520, 532, 529, -1,
   524, 532, 520, -1,
   524, 535, 532, -1,
   535, 524, 537, -1,
   529, 534, 527, -1,
   534, 529, 532, -1,
   540, 541, 542, -1,
   541, 540, 543, -1,
   544, 542, 545, -1,
   542, 544, 540, -1,
   546, 547, 548, -1,
   547, 546, 549, -1,
   550, 546, 548, -1,
   546, 550, 551, -1,
   552, 553, 554, -1,
   553, 552, 555, -1,
   544, 556, 557, -1,
   556, 544, 545, -1,
   557, 553, 555, -1,
   553, 557, 556, -1,
   548, 558, 550, -1,
   547, 558, 548, -1,
   547, 541, 558, -1,
   554, 541, 547, -1,
   554, 542, 541, -1,
   553, 542, 554, -1,
   553, 545, 542, -1,
   545, 553, 556, -1,
   543, 558, 541, -1,
   558, 543, 559, -1,
   558, 551, 550, -1,
   551, 558, 559, -1,
   559, 546, 551, -1,
   543, 546, 559, -1,
   543, 549, 546, -1,
   540, 549, 543, -1,
   540, 552, 549, -1,
   544, 552, 540, -1,
   544, 555, 552, -1,
   555, 544, 557, -1,
   549, 554, 547, -1,
   554, 549, 552, -1,
   560, 561, 562, -1,
   561, 560, 563, -1,
   564, 562, 565, -1,
   562, 564, 560, -1,
   566, 567, 568, -1,
   567, 566, 569, -1,
   570, 566, 568, -1,
   566, 570, 571, -1,
   572, 573, 574, -1,
   573, 572, 575, -1,
   564, 576, 577, -1,
   576, 564, 565, -1,
   577, 573, 575, -1,
   573, 577, 576, -1,
   568, 578, 570, -1,
   567, 578, 568, -1,
   567, 561, 578, -1,
   574, 561, 567, -1,
   574, 562, 561, -1,
   573, 562, 574, -1,
   573, 565, 562, -1,
   565, 573, 576, -1,
   563, 578, 561, -1,
   578, 563, 579, -1,
   578, 571, 570, -1,
   571, 578, 579, -1,
   579, 566, 571, -1,
   563, 566, 579, -1,
   563, 569, 566, -1,
   560, 569, 563, -1,
   560, 572, 569, -1,
   564, 572, 560, -1,
   564, 575, 572, -1,
   575, 564, 577, -1,
   569, 574, 567, -1,
   574, 569, 572, -1,
   580, 581, 582, -1,
   581, 580, 583, -1,
   584, 582, 585, -1,
   582, 584, 580, -1,
   586, 587, 588, -1,
   587, 586, 589, -1,
   590, 586, 588, -1,
   586, 590, 591, -1,
   592, 593, 594, -1,
   593, 592, 595, -1,
   584, 596, 597, -1,
   596, 584, 585, -1,
   597, 593, 595, -1,
   593, 597, 596, -1,
   583, 598, 581, -1,
   598, 583, 599, -1,
   598, 591, 590, -1,
   591, 598, 599, -1,
   588, 598, 590, -1,
   587, 598, 588, -1,
   587, 581, 598, -1,
   594, 581, 587, -1,
   594, 582, 581, -1,
   593, 582, 594, -1,
   593, 585, 582, -1,
   585, 593, 596, -1,
   599, 586, 591, -1,
   583, 586, 599, -1,
   583, 589, 586, -1,
   580, 589, 583, -1,
   580, 592, 589, -1,
   584, 592, 580, -1,
   584, 595, 592, -1,
   595, 584, 597, -1,
   589, 594, 587, -1,
   594, 589, 592, -1
  ]
 }
}
