#VRML V2.0 utf8
# r1206_back: written by tools/build_models3d.py from 3d/populated/models/smd_fascia.scad; layers body #1b1b1d, term #c9c9c9, housing #e6e1d3, tab #b8bcc0
Shape {
 appearance Appearance { material Material {
  diffuseColor 0.1059 0.1059 0.1137
  specularColor 0.250 0.250 0.250
  ambientIntensity 0.4
  shininess 0.30
 } }
 geometry IndexedFaceSet {
  creaseAngle 0.5
  coord Coordinate { point [
   -0.43307 0.31496 0.21654,
   0.43307 -0.31496 0.21654,
   0.43307 0.31496 0.21654,
   -0.43307 -0.31496 0.21654,
   -0.43307 -0.31496 0.00000,
   0.43307 0.31496 0.00000,
   0.43307 -0.31496 0.00000,
   -0.43307 0.31496 0.00000
  ] }
  coordIndex [
   0, 1, 2, -1,
   1, 0, 3, -1,
   4, 5, 6, -1,
   5, 4, 7, -1,
   4, 1, 3, -1,
   1, 4, 6, -1,
   1, 5, 2, -1,
   5, 1, 6, -1,
   5, 0, 2, -1,
   0, 5, 7, -1,
   4, 0, 7, -1,
   0, 4, 3, -1
  ]
 }
}
Shape {
 appearance Appearance { material Material {
  diffuseColor 0.7882 0.7882 0.7882
  specularColor 0.250 0.250 0.250
  ambientIntensity 0.4
  shininess 0.30
 } }
 geometry IndexedFaceSet {
  creaseAngle 0.5
  coord Coordinate { point [
   -0.43307 -0.31496 0.23622,
   -0.43307 0.31496 0.00000,
   -0.43307 0.31496 0.23622,
   -0.43307 -0.31496 0.00000,
   -0.62992 0.31496 0.23622,
   -0.62992 -0.31496 0.23622,
   -0.62992 -0.31496 0.00000,
   -0.62992 0.31496 0.00000,
   0.62992 -0.31496 0.23622,
   0.62992 0.31496 0.00000,
   0.62992 0.31496 0.23622,
   0.62992 -0.31496 0.00000,
   0.43307 0.31496 0.23622,
   0.43307 -0.31496 0.23622,
   0.43307 -0.31496 0.00000,
   0.43307 0.31496 0.00000
  ] }
  coordIndex [
   0, 1, 2, -1,
   1, 0, 3, -1,
   4, 0, 2, -1,
   0, 4, 5, -1,
   6, 1, 3, -1,
   1, 6, 7, -1,
   6, 4, 7, -1,
   4, 6, 5, -1,
   1, 4, 2, -1,
   4, 1, 7, -1,
   6, 0, 5, -1,
   0, 6, 3, -1,
   8, 9, 10, -1,
   9, 8, 11, -1,
   12, 8, 10, -1,
   8, 12, 13, -1,
   14, 9, 11, -1,
   9, 14, 15, -1,
   14, 12, 15, -1,
   12, 14, 13, -1,
   9, 12, 10, -1,
   12, 9, 15, -1,
   14, 8, 13, -1,
   8, 14, 11, -1
  ]
 }
}
