G04 Layer: BottomSilkLayer*
G04 EasyEDA v6.3.53, 2020-06-13T07:22:25+03:00*
G04 f51c9f6fd95d48469e0b4201acb47e0f,1102b9164c3b4fd2a1726ad73ad25fb7,10*
G04 Gerber Generator version 0.2*
G04 Scale: 100 percent, Rotated: No, Reflected: No *
G04 Dimensions in inches *
G04 leading zeros omitted , absolute positions ,2 integer and 4 decimal *
%FSLAX24Y24*%
%MOIN*%
G90*
G70D02*

%ADD10C,0.010000*%
%ADD36C,0.019685*%
%ADD38C,0.008000*%
%ADD40C,0.007000*%

%LPD*%

%LPD*%
G36*
G01X19165Y26711D02*
G01X19141Y26715D01*
G01X19117Y26711D01*
G01X19098Y26698D01*
G01X19085Y26678D01*
G01X19080Y26654D01*
G01X19085Y26630D01*
G01X19098Y26611D01*
G01X19117Y26598D01*
G01X19141Y26593D01*
G01X19165Y26598D01*
G01X19185Y26611D01*
G01X19198Y26630D01*
G01X19203Y26654D01*
G01X19198Y26678D01*
G01X19185Y26698D01*
G01X19165Y26711D01*
G37*

%LPD*%
G36*
G01X21988Y26711D02*
G01X21965Y26715D01*
G01X21941Y26711D01*
G01X21921Y26698D01*
G01X21908Y26678D01*
G01X21903Y26654D01*
G01X21908Y26630D01*
G01X21921Y26611D01*
G01X21941Y26598D01*
G01X21965Y26593D01*
G01X21988Y26598D01*
G01X22008Y26611D01*
G01X22021Y26630D01*
G01X22026Y26654D01*
G01X22021Y26678D01*
G01X22008Y26698D01*
G01X21988Y26711D01*
G37*

%LPD*%
G36*
G01X18989Y26581D02*
G01X18977Y26586D01*
G01X18974Y26583D01*
G01X18973Y26574D01*
G01X18971Y26558D01*
G01X18970Y26537D01*
G01X18970Y26510D01*
G01X18969Y26480D01*
G01X18970Y26446D01*
G01X18971Y26409D01*
G01X18972Y26382D01*
G01X18975Y26357D01*
G01X18979Y26334D01*
G01X18984Y26313D01*
G01X18990Y26293D01*
G01X18996Y26275D01*
G01X19004Y26260D01*
G01X19011Y26247D01*
G01X19019Y26236D01*
G01X19027Y26228D01*
G01X19035Y26222D01*
G01X19043Y26219D01*
G01X19050Y26220D01*
G01X19057Y26223D01*
G01X19063Y26230D01*
G01X19069Y26239D01*
G01X19074Y26252D01*
G01X19077Y26270D01*
G01X19079Y26290D01*
G01X19080Y26314D01*
G01X19082Y26334D01*
G01X19086Y26350D01*
G01X19094Y26362D01*
G01X19105Y26371D01*
G01X19118Y26376D01*
G01X19134Y26377D01*
G01X19152Y26375D01*
G01X19173Y26369D01*
G01X19195Y26362D01*
G01X19213Y26359D01*
G01X19226Y26359D01*
G01X19235Y26364D01*
G01X19240Y26374D01*
G01X19240Y26388D01*
G01X19236Y26406D01*
G01X19229Y26429D01*
G01X19219Y26449D01*
G01X19206Y26468D01*
G01X19191Y26487D01*
G01X19173Y26504D01*
G01X19153Y26520D01*
G01X19133Y26533D01*
G01X19111Y26544D01*
G01X19090Y26551D01*
G01X19049Y26563D01*
G01X19015Y26573D01*
G01X18989Y26581D01*
G37*

%LPD*%
G36*
G01X24812Y26346D02*
G01X24788Y26347D01*
G01X24763Y26346D01*
G01X24741Y26343D01*
G01X24721Y26338D01*
G01X24705Y26332D01*
G01X24691Y26324D01*
G01X24681Y26315D01*
G01X24673Y26305D01*
G01X24669Y26294D01*
G01X24667Y26283D01*
G01X24669Y26271D01*
G01X24674Y26260D01*
G01X24683Y26248D01*
G01X24695Y26236D01*
G01X24710Y26225D01*
G01X24729Y26214D01*
G01X24751Y26205D01*
G01X24773Y26198D01*
G01X24794Y26193D01*
G01X24814Y26192D01*
G01X24833Y26194D01*
G01X24849Y26198D01*
G01X24865Y26205D01*
G01X24878Y26214D01*
G01X24889Y26226D01*
G01X24898Y26240D01*
G01X24905Y26257D01*
G01X24909Y26276D01*
G01X24911Y26296D01*
G01X24908Y26306D01*
G01X24901Y26316D01*
G01X24889Y26325D01*
G01X24874Y26332D01*
G01X24856Y26339D01*
G01X24835Y26343D01*
G01X24812Y26346D01*
G37*

%LPD*%
G36*
G01X17925Y30816D02*
G01X17825Y30816D01*
G01X17750Y30813D01*
G01X17725Y30811D01*
G01X17701Y30809D01*
G01X17676Y30807D01*
G01X17652Y30804D01*
G01X17627Y30801D01*
G01X17603Y30798D01*
G01X17579Y30794D01*
G01X17554Y30790D01*
G01X17530Y30786D01*
G01X17507Y30781D01*
G01X17459Y30771D01*
G01X17436Y30766D01*
G01X17413Y30760D01*
G01X17389Y30754D01*
G01X17366Y30748D01*
G01X17344Y30741D01*
G01X17321Y30734D01*
G01X17277Y30720D01*
G01X17233Y30704D01*
G01X17211Y30695D01*
G01X17190Y30687D01*
G01X17127Y30660D01*
G01X17067Y30630D01*
G01X17048Y30619D01*
G01X17029Y30609D01*
G01X16991Y30587D01*
G01X16973Y30575D01*
G01X16955Y30564D01*
G01X16937Y30552D01*
G01X16920Y30539D01*
G01X16903Y30527D01*
G01X16886Y30514D01*
G01X16870Y30502D01*
G01X16854Y30489D01*
G01X16838Y30475D01*
G01X16823Y30462D01*
G01X16808Y30448D01*
G01X16780Y30420D01*
G01X16766Y30405D01*
G01X16753Y30391D01*
G01X16740Y30376D01*
G01X16716Y30346D01*
G01X16704Y30330D01*
G01X16693Y30314D01*
G01X16663Y30266D01*
G01X16654Y30250D01*
G01X16638Y30220D01*
G01X16631Y30206D01*
G01X16617Y30179D01*
G01X16611Y30166D01*
G01X16606Y30153D01*
G01X16601Y30141D01*
G01X16596Y30130D01*
G01X16592Y30118D01*
G01X16586Y30096D01*
G01X16584Y30085D01*
G01X16583Y30075D01*
G01X16582Y30064D01*
G01X16582Y30054D01*
G01X16584Y30034D01*
G01X16586Y30024D01*
G01X16590Y30014D01*
G01X16593Y30005D01*
G01X16598Y29995D01*
G01X16604Y29985D01*
G01X16610Y29976D01*
G01X16626Y29956D01*
G01X16635Y29947D01*
G01X16646Y29937D01*
G01X16657Y29926D01*
G01X16683Y29906D01*
G01X16713Y29884D01*
G01X16730Y29873D01*
G01X16748Y29862D01*
G01X16768Y29850D01*
G01X16788Y29839D01*
G01X16810Y29826D01*
G01X16833Y29814D01*
G01X16857Y29801D01*
G01X16883Y29787D01*
G01X16910Y29773D01*
G01X16968Y29744D01*
G01X16999Y29729D01*
G01X17032Y29714D01*
G01X17066Y29697D01*
G01X17102Y29680D01*
G01X17139Y29663D01*
G01X17177Y29645D01*
G01X17217Y29626D01*
G01X17259Y29607D01*
G01X17303Y29587D01*
G01X17348Y29566D01*
G01X17395Y29545D01*
G01X17443Y29523D01*
G01X17517Y29489D01*
G01X17589Y29455D01*
G01X17624Y29439D01*
G01X17658Y29422D01*
G01X17692Y29406D01*
G01X17725Y29390D01*
G01X17757Y29374D01*
G01X17819Y29344D01*
G01X17848Y29328D01*
G01X17904Y29300D01*
G01X17930Y29286D01*
G01X17955Y29273D01*
G01X17979Y29260D01*
G01X18002Y29247D01*
G01X18024Y29235D01*
G01X18044Y29224D01*
G01X18063Y29213D01*
G01X18080Y29202D01*
G01X18096Y29193D01*
G01X18111Y29183D01*
G01X18124Y29175D01*
G01X18135Y29167D01*
G01X18145Y29160D01*
G01X18153Y29153D01*
G01X18159Y29148D01*
G01X18164Y29143D01*
G01X18167Y29139D01*
G01X18168Y29135D01*
G01X18167Y29129D01*
G01X18166Y29122D01*
G01X18164Y29112D01*
G01X18161Y29102D01*
G01X18153Y29076D01*
G01X18147Y29061D01*
G01X18142Y29045D01*
G01X18135Y29028D01*
G01X18128Y29009D01*
G01X18112Y28969D01*
G01X18103Y28947D01*
G01X18094Y28924D01*
G01X18084Y28901D01*
G01X18074Y28876D01*
G01X18063Y28851D01*
G01X18052Y28824D01*
G01X18040Y28798D01*
G01X18016Y28742D01*
G01X17990Y28684D01*
G01X17977Y28654D01*
G01X17963Y28624D01*
G01X17921Y28531D01*
G01X17906Y28500D01*
G01X17892Y28468D01*
G01X17877Y28436D01*
G01X17862Y28405D01*
G01X17802Y28277D01*
G01X17742Y28153D01*
G01X17727Y28124D01*
G01X17713Y28094D01*
G01X17656Y27980D01*
G01X17643Y27953D01*
G01X17629Y27927D01*
G01X17616Y27902D01*
G01X17604Y27877D01*
G01X17591Y27853D01*
G01X17579Y27831D01*
G01X17568Y27809D01*
G01X17546Y27769D01*
G01X17526Y27733D01*
G01X17517Y27717D01*
G01X17508Y27702D01*
G01X17500Y27689D01*
G01X17493Y27677D01*
G01X17486Y27666D01*
G01X17479Y27658D01*
G01X17474Y27650D01*
G01X17469Y27644D01*
G01X17465Y27640D01*
G01X17461Y27637D01*
G01X17458Y27636D01*
G01X17455Y27637D01*
G01X17450Y27638D01*
G01X17444Y27639D01*
G01X17436Y27642D01*
G01X17427Y27645D01*
G01X17405Y27653D01*
G01X17377Y27663D01*
G01X17361Y27670D01*
G01X17345Y27676D01*
G01X17327Y27683D01*
G01X17308Y27691D01*
G01X17287Y27700D01*
G01X17266Y27708D01*
G01X17244Y27718D01*
G01X17221Y27727D01*
G01X17197Y27738D01*
G01X17172Y27748D01*
G01X17146Y27759D01*
G01X17120Y27771D01*
G01X17064Y27795D01*
G01X17035Y27807D01*
G01X17006Y27820D01*
G01X16976Y27834D01*
G01X16945Y27847D01*
G01X16914Y27861D01*
G01X16882Y27875D01*
G01X16849Y27889D01*
G01X16817Y27904D01*
G01X16783Y27919D01*
G01X16750Y27934D01*
G01X16716Y27950D01*
G01X16682Y27965D01*
G01X16647Y27981D01*
G01X16613Y27997D01*
G01X16578Y28012D01*
G01X16544Y28027D01*
G01X16511Y28042D01*
G01X16477Y28057D01*
G01X16411Y28085D01*
G01X16379Y28099D01*
G01X16347Y28112D01*
G01X16285Y28138D01*
G01X16225Y28162D01*
G01X16196Y28173D01*
G01X16140Y28195D01*
G01X16114Y28205D01*
G01X16088Y28214D01*
G01X16063Y28224D01*
G01X16038Y28232D01*
G01X16015Y28240D01*
G01X15993Y28248D01*
G01X15971Y28255D01*
G01X15951Y28262D01*
G01X15932Y28268D01*
G01X15914Y28273D01*
G01X15897Y28277D01*
G01X15881Y28282D01*
G01X15853Y28288D01*
G01X15841Y28290D01*
G01X15831Y28292D01*
G01X15821Y28293D01*
G01X15807Y28293D01*
G01X15802Y28291D01*
G01X15793Y28287D01*
G01X15783Y28280D01*
G01X15773Y28272D01*
G01X15763Y28262D01*
G01X15754Y28250D01*
G01X15744Y28237D01*
G01X15734Y28223D01*
G01X15725Y28207D01*
G01X15715Y28189D01*
G01X15706Y28171D01*
G01X15697Y28151D01*
G01X15688Y28130D01*
G01X15679Y28108D01*
G01X15670Y28085D01*
G01X15662Y28062D01*
G01X15646Y28012D01*
G01X15639Y27987D01*
G01X15632Y27960D01*
G01X15625Y27934D01*
G01X15619Y27906D01*
G01X15613Y27879D01*
G01X15607Y27851D01*
G01X15602Y27824D01*
G01X15594Y27768D01*
G01X15591Y27740D01*
G01X15588Y27713D01*
G01X15586Y27685D01*
G01X15584Y27658D01*
G01X15583Y27632D01*
G01X15583Y27589D01*
G01X15584Y27571D01*
G01X15585Y27554D01*
G01X15589Y27520D01*
G01X15591Y27502D01*
G01X15597Y27468D01*
G01X15600Y27450D01*
G01X15604Y27433D01*
G01X15609Y27415D01*
G01X15613Y27397D01*
G01X15618Y27380D01*
G01X15642Y27308D01*
G01X15649Y27290D01*
G01X15657Y27273D01*
G01X15664Y27255D01*
G01X15672Y27237D01*
G01X15681Y27219D01*
G01X15689Y27201D01*
G01X15698Y27183D01*
G01X15708Y27164D01*
G01X15738Y27110D01*
G01X15760Y27074D01*
G01X15772Y27056D01*
G01X15783Y27038D01*
G01X15795Y27020D01*
G01X15847Y26948D01*
G01X15861Y26930D01*
G01X15875Y26913D01*
G01X15889Y26895D01*
G01X15934Y26841D01*
G01X15950Y26824D01*
G01X15966Y26806D01*
G01X15982Y26789D01*
G01X15998Y26771D01*
G01X16015Y26753D01*
G01X16032Y26736D01*
G01X16050Y26719D01*
G01X16085Y26684D01*
G01X16103Y26667D01*
G01X16122Y26650D01*
G01X16140Y26633D01*
G01X16159Y26616D01*
G01X16198Y26583D01*
G01X16218Y26566D01*
G01X16238Y26550D01*
G01X16258Y26533D01*
G01X16279Y26517D01*
G01X16299Y26501D01*
G01X16320Y26485D01*
G01X16342Y26469D01*
G01X16363Y26452D01*
G01X16385Y26437D01*
G01X16407Y26421D01*
G01X16429Y26406D01*
G01X16452Y26390D01*
G01X16474Y26375D01*
G01X16520Y26345D01*
G01X16544Y26330D01*
G01X16567Y26315D01*
G01X16591Y26300D01*
G01X16615Y26286D01*
G01X16639Y26271D01*
G01X16664Y26257D01*
G01X16688Y26243D01*
G01X16738Y26215D01*
G01X16763Y26202D01*
G01X16789Y26189D01*
G01X16814Y26175D01*
G01X16866Y26149D01*
G01X16892Y26137D01*
G01X16936Y26115D01*
G01X16978Y26096D01*
G01X17018Y26076D01*
G01X17056Y26058D01*
G01X17093Y26040D01*
G01X17128Y26024D01*
G01X17161Y26008D01*
G01X17193Y25994D01*
G01X17223Y25980D01*
G01X17252Y25967D01*
G01X17279Y25955D01*
G01X17305Y25944D01*
G01X17329Y25934D01*
G01X17352Y25924D01*
G01X17374Y25916D01*
G01X17414Y25902D01*
G01X17432Y25896D01*
G01X17448Y25891D01*
G01X17464Y25888D01*
G01X17479Y25885D01*
G01X17493Y25883D01*
G01X17505Y25882D01*
G01X17528Y25882D01*
G01X17537Y25884D01*
G01X17555Y25890D01*
G01X17569Y25900D01*
G01X17575Y25906D01*
G01X17580Y25913D01*
G01X17585Y25922D01*
G01X17589Y25931D01*
G01X17592Y25940D01*
G01X17595Y25952D01*
G01X17598Y25963D01*
G01X17600Y25976D01*
G01X17602Y25990D01*
G01X17603Y26005D01*
G01X17605Y26020D01*
G01X17605Y26037D01*
G01X17606Y26054D01*
G01X17606Y26072D01*
G01X17607Y26092D01*
G01X17607Y26187D01*
G01X17608Y26218D01*
G01X17612Y26278D01*
G01X17614Y26306D01*
G01X17617Y26333D01*
G01X17621Y26359D01*
G01X17625Y26384D01*
G01X17629Y26406D01*
G01X17634Y26427D01*
G01X17639Y26445D01*
G01X17644Y26462D01*
G01X17650Y26476D01*
G01X17656Y26487D01*
G01X17662Y26495D01*
G01X17668Y26501D01*
G01X17681Y26512D01*
G01X17692Y26528D01*
G01X17702Y26549D01*
G01X17712Y26575D01*
G01X17719Y26603D01*
G01X17725Y26634D01*
G01X17728Y26666D01*
G01X17730Y26699D01*
G01X17730Y26722D01*
G01X17733Y26746D01*
G01X17737Y26769D01*
G01X17742Y26792D01*
G01X17749Y26815D01*
G01X17757Y26838D01*
G01X17766Y26860D01*
G01X17776Y26881D01*
G01X17787Y26902D01*
G01X17800Y26923D01*
G01X17813Y26942D01*
G01X17827Y26961D01*
G01X17842Y26979D01*
G01X17857Y26996D01*
G01X17873Y27011D01*
G01X17890Y27025D01*
G01X17907Y27038D01*
G01X17925Y27050D01*
G01X17943Y27060D01*
G01X17961Y27068D01*
G01X17979Y27075D01*
G01X17998Y27080D01*
G01X18016Y27083D01*
G01X18035Y27084D01*
G01X18045Y27085D01*
G01X18055Y27088D01*
G01X18066Y27093D01*
G01X18078Y27100D01*
G01X18090Y27109D01*
G01X18102Y27120D01*
G01X18129Y27147D01*
G01X18142Y27164D01*
G01X18157Y27182D01*
G01X18171Y27202D01*
G01X18186Y27223D01*
G01X18201Y27247D01*
G01X18217Y27272D01*
G01X18232Y27298D01*
G01X18248Y27327D01*
G01X18264Y27357D01*
G01X18281Y27388D01*
G01X18297Y27421D01*
G01X18314Y27455D01*
G01X18329Y27486D01*
G01X18359Y27546D01*
G01X18373Y27575D01*
G01X18403Y27631D01*
G01X18417Y27658D01*
G01X18431Y27684D01*
G01X18445Y27709D01*
G01X18458Y27732D01*
G01X18471Y27754D01*
G01X18483Y27775D01*
G01X18495Y27794D01*
G01X18506Y27812D01*
G01X18517Y27828D01*
G01X18526Y27842D01*
G01X18535Y27854D01*
G01X18543Y27864D01*
G01X18556Y27877D01*
G01X18560Y27879D01*
G01X18567Y27881D01*
G01X18576Y27882D01*
G01X18586Y27881D01*
G01X18598Y27880D01*
G01X18611Y27878D01*
G01X18626Y27876D01*
G01X18643Y27872D01*
G01X18661Y27868D01*
G01X18681Y27862D01*
G01X18702Y27856D01*
G01X18724Y27849D01*
G01X18747Y27842D01*
G01X18772Y27833D01*
G01X18798Y27824D01*
G01X18825Y27814D01*
G01X18853Y27804D01*
G01X18882Y27793D01*
G01X18912Y27781D01*
G01X18943Y27769D01*
G01X18975Y27756D01*
G01X19008Y27743D01*
G01X19041Y27728D01*
G01X19075Y27714D01*
G01X19110Y27698D01*
G01X19146Y27683D01*
G01X19182Y27666D01*
G01X19218Y27650D01*
G01X19259Y27631D01*
G01X19298Y27613D01*
G01X19335Y27595D01*
G01X19371Y27578D01*
G01X19405Y27562D01*
G01X19437Y27546D01*
G01X19468Y27531D01*
G01X19498Y27516D01*
G01X19526Y27501D01*
G01X19553Y27487D01*
G01X19578Y27474D01*
G01X19601Y27460D01*
G01X19624Y27447D01*
G01X19645Y27435D01*
G01X19664Y27422D01*
G01X19682Y27410D01*
G01X19699Y27397D01*
G01X19715Y27385D01*
G01X19729Y27373D01*
G01X19742Y27361D01*
G01X19754Y27349D01*
G01X19765Y27337D01*
G01X19783Y27313D01*
G01X19790Y27300D01*
G01X19796Y27288D01*
G01X19801Y27275D01*
G01X19805Y27262D01*
G01X19808Y27249D01*
G01X19810Y27221D01*
G01X19810Y27207D01*
G01X19809Y27192D01*
G01X19807Y27177D01*
G01X19804Y27161D01*
G01X19800Y27145D01*
G01X19790Y27111D01*
G01X19776Y27075D01*
G01X19768Y27055D01*
G01X19759Y27035D01*
G01X19750Y27014D01*
G01X19740Y26993D01*
G01X19729Y26970D01*
G01X19717Y26947D01*
G01X19705Y26922D01*
G01X19692Y26897D01*
G01X19654Y26821D01*
G01X19639Y26790D01*
G01X19627Y26763D01*
G01X19617Y26740D01*
G01X19610Y26720D01*
G01X19605Y26704D01*
G01X19603Y26690D01*
G01X19604Y26680D01*
G01X19607Y26671D01*
G01X19612Y26665D01*
G01X19620Y26660D01*
G01X19631Y26657D01*
G01X19644Y26655D01*
G01X19660Y26654D01*
G01X19678Y26654D01*
G01X19701Y26657D01*
G01X19726Y26664D01*
G01X19752Y26675D01*
G01X19777Y26690D01*
G01X19802Y26708D01*
G01X19825Y26729D01*
G01X19846Y26752D01*
G01X19863Y26777D01*
G01X19877Y26797D01*
G01X19893Y26815D01*
G01X19910Y26831D01*
G01X19929Y26846D01*
G01X19950Y26859D01*
G01X19973Y26870D01*
G01X19997Y26879D01*
G01X20024Y26886D01*
G01X20052Y26892D01*
G01X20083Y26896D01*
G01X20115Y26899D01*
G01X20150Y26900D01*
G01X20179Y26901D01*
G01X20209Y26903D01*
G01X20239Y26907D01*
G01X20268Y26912D01*
G01X20297Y26919D01*
G01X20325Y26927D01*
G01X20352Y26936D01*
G01X20377Y26945D01*
G01X20400Y26956D01*
G01X20420Y26967D01*
G01X20438Y26979D01*
G01X20452Y26992D01*
G01X20463Y27001D01*
G01X20476Y27011D01*
G01X20491Y27019D01*
G01X20508Y27028D01*
G01X20526Y27036D01*
G01X20546Y27044D01*
G01X20567Y27051D01*
G01X20613Y27063D01*
G01X20663Y27073D01*
G01X20689Y27077D01*
G01X20715Y27080D01*
G01X20741Y27082D01*
G01X20768Y27083D01*
G01X20794Y27084D01*
G01X20828Y27084D01*
G01X20860Y27085D01*
G01X20891Y27086D01*
G01X20920Y27088D01*
G01X20946Y27090D01*
G01X20970Y27093D01*
G01X20992Y27096D01*
G01X21010Y27100D01*
G01X21024Y27103D01*
G01X21035Y27107D01*
G01X21042Y27111D01*
G01X21044Y27116D01*
G01X21042Y27122D01*
G01X21038Y27133D01*
G01X21032Y27146D01*
G01X21023Y27163D01*
G01X21012Y27183D01*
G01X20999Y27206D01*
G01X20984Y27231D01*
G01X20968Y27258D01*
G01X20951Y27286D01*
G01X20932Y27316D01*
G01X20912Y27347D01*
G01X20891Y27378D01*
G01X20885Y27388D01*
G01X20878Y27399D01*
G01X20871Y27411D01*
G01X20864Y27425D01*
G01X20856Y27439D01*
G01X20848Y27454D01*
G01X20839Y27470D01*
G01X20831Y27487D01*
G01X20803Y27543D01*
G01X20794Y27563D01*
G01X20774Y27605D01*
G01X20764Y27627D01*
G01X20754Y27650D01*
G01X20743Y27674D01*
G01X20733Y27698D01*
G01X20700Y27773D01*
G01X20690Y27799D01*
G01X20678Y27826D01*
G01X20656Y27880D01*
G01X20623Y27964D01*
G01X20611Y27992D01*
G01X20545Y28166D01*
G01X20534Y28196D01*
G01X20524Y28225D01*
G01X20513Y28254D01*
G01X20503Y28284D01*
G01X20493Y28313D01*
G01X20479Y28352D01*
G01X20465Y28392D01*
G01X20437Y28468D01*
G01X20424Y28506D01*
G01X20411Y28543D01*
G01X20397Y28579D01*
G01X20384Y28615D01*
G01X20358Y28685D01*
G01X20346Y28719D01*
G01X20333Y28753D01*
G01X20320Y28786D01*
G01X20308Y28819D01*
G01X20295Y28851D01*
G01X20283Y28883D01*
G01X20271Y28914D01*
G01X20235Y29004D01*
G01X20211Y29062D01*
G01X20187Y29118D01*
G01X20176Y29146D01*
G01X20164Y29172D01*
G01X20153Y29199D01*
G01X20141Y29225D01*
G01X20130Y29250D01*
G01X20118Y29276D01*
G01X20107Y29300D01*
G01X20095Y29325D01*
G01X20084Y29349D01*
G01X20051Y29418D01*
G01X20039Y29440D01*
G01X20017Y29484D01*
G01X19995Y29526D01*
G01X19962Y29586D01*
G01X19929Y29643D01*
G01X19918Y29661D01*
G01X19906Y29679D01*
G01X19895Y29697D01*
G01X19851Y29765D01*
G01X19840Y29781D01*
G01X19828Y29797D01*
G01X19817Y29812D01*
G01X19806Y29828D01*
G01X19795Y29843D01*
G01X19783Y29858D01*
G01X19772Y29872D01*
G01X19760Y29886D01*
G01X19749Y29900D01*
G01X19737Y29914D01*
G01X19726Y29928D01*
G01X19690Y29967D01*
G01X19679Y29980D01*
G01X19643Y30016D01*
G01X19630Y30028D01*
G01X19618Y30040D01*
G01X19606Y30051D01*
G01X19593Y30062D01*
G01X19581Y30074D01*
G01X19568Y30084D01*
G01X19555Y30095D01*
G01X19543Y30106D01*
G01X19530Y30116D01*
G01X19517Y30127D01*
G01X19490Y30147D01*
G01X19470Y30162D01*
G01X19429Y30191D01*
G01X19366Y30236D01*
G01X19345Y30250D01*
G01X19323Y30265D01*
G01X19279Y30294D01*
G01X19191Y30350D01*
G01X19168Y30364D01*
G01X19124Y30391D01*
G01X19101Y30405D01*
G01X19078Y30418D01*
G01X19056Y30431D01*
G01X18987Y30470D01*
G01X18965Y30482D01*
G01X18942Y30495D01*
G01X18919Y30507D01*
G01X18897Y30519D01*
G01X18829Y30553D01*
G01X18806Y30565D01*
G01X18762Y30587D01*
G01X18740Y30597D01*
G01X18718Y30608D01*
G01X18696Y30618D01*
G01X18674Y30627D01*
G01X18652Y30637D01*
G01X18631Y30647D01*
G01X18609Y30656D01*
G01X18588Y30665D01*
G01X18567Y30673D01*
G01X18546Y30682D01*
G01X18526Y30690D01*
G01X18505Y30698D01*
G01X18485Y30705D01*
G01X18465Y30713D01*
G01X18445Y30720D01*
G01X18426Y30726D01*
G01X18407Y30733D01*
G01X18369Y30745D01*
G01X18315Y30760D01*
G01X18298Y30764D01*
G01X18273Y30771D01*
G01X18249Y30776D01*
G01X18199Y30786D01*
G01X18175Y30791D01*
G01X18125Y30799D01*
G01X18050Y30808D01*
G01X17975Y30814D01*
G01X17925Y30816D01*
G37*

%LPD*%
G36*
G01X24002Y25671D02*
G01X23972Y25671D01*
G01X23951Y25669D01*
G01X23938Y25665D01*
G01X23932Y25660D01*
G01X23935Y25652D01*
G01X23946Y25642D01*
G01X23964Y25628D01*
G01X23990Y25611D01*
G01X24019Y25593D01*
G01X24046Y25578D01*
G01X24071Y25567D01*
G01X24094Y25559D01*
G01X24113Y25554D01*
G01X24130Y25553D01*
G01X24143Y25554D01*
G01X24152Y25559D01*
G01X24157Y25567D01*
G01X24157Y25578D01*
G01X24153Y25593D01*
G01X24143Y25611D01*
G01X24134Y25623D01*
G01X24120Y25635D01*
G01X24104Y25645D01*
G01X24086Y25654D01*
G01X24066Y25661D01*
G01X24045Y25667D01*
G01X24023Y25670D01*
G01X24002Y25671D01*
G37*

%LPD*%
G36*
G01X24583Y25422D02*
G01X24569Y25427D01*
G01X24559Y25422D01*
G01X24550Y25409D01*
G01X24544Y25389D01*
G01X24542Y25365D01*
G01X24547Y25341D01*
G01X24561Y25322D01*
G01X24582Y25309D01*
G01X24607Y25304D01*
G01X24630Y25309D01*
G01X24642Y25322D01*
G01X24644Y25341D01*
G01X24634Y25365D01*
G01X24617Y25389D01*
G01X24600Y25409D01*
G01X24583Y25422D01*
G37*

%LPD*%
G36*
G01X26040Y30808D02*
G01X25968Y30808D01*
G01X25942Y30807D01*
G01X25887Y30807D01*
G01X25858Y30806D01*
G01X25829Y30806D01*
G01X25798Y30805D01*
G01X25768Y30804D01*
G01X25640Y30800D01*
G01X25607Y30799D01*
G01X25573Y30797D01*
G01X25540Y30796D01*
G01X25512Y30794D01*
G01X25483Y30793D01*
G01X25454Y30790D01*
G01X25396Y30786D01*
G01X25367Y30783D01*
G01X25337Y30780D01*
G01X25308Y30777D01*
G01X25278Y30774D01*
G01X25188Y30762D01*
G01X25128Y30753D01*
G01X25098Y30749D01*
G01X25008Y30734D01*
G01X24978Y30728D01*
G01X24948Y30723D01*
G01X24828Y30699D01*
G01X24798Y30692D01*
G01X24769Y30686D01*
G01X24710Y30672D01*
G01X24652Y30658D01*
G01X24624Y30650D01*
G01X24595Y30643D01*
G01X24567Y30636D01*
G01X24511Y30620D01*
G01X24484Y30612D01*
G01X24456Y30604D01*
G01X24430Y30596D01*
G01X24403Y30588D01*
G01X24351Y30572D01*
G01X24325Y30563D01*
G01X24300Y30555D01*
G01X24275Y30546D01*
G01X24251Y30537D01*
G01X24227Y30529D01*
G01X24203Y30520D01*
G01X24157Y30502D01*
G01X24135Y30494D01*
G01X24113Y30485D01*
G01X24092Y30476D01*
G01X24071Y30466D01*
G01X24051Y30458D01*
G01X24031Y30449D01*
G01X24012Y30439D01*
G01X23993Y30430D01*
G01X23975Y30421D01*
G01X23941Y30403D01*
G01X23909Y30385D01*
G01X23895Y30376D01*
G01X23880Y30367D01*
G01X23854Y30349D01*
G01X23842Y30340D01*
G01X23831Y30331D01*
G01X23820Y30323D01*
G01X23810Y30314D01*
G01X23792Y30296D01*
G01X23785Y30288D01*
G01X23778Y30279D01*
G01X23772Y30271D01*
G01X23767Y30262D01*
G01X23763Y30254D01*
G01X23760Y30246D01*
G01X23757Y30237D01*
G01X23755Y30229D01*
G01X23753Y30213D01*
G01X23751Y30185D01*
G01X23751Y30173D01*
G01X23752Y30162D01*
G01X23754Y30152D01*
G01X23757Y30143D01*
G01X23762Y30135D01*
G01X23769Y30127D01*
G01X23777Y30121D01*
G01X23788Y30115D01*
G01X23800Y30111D01*
G01X23815Y30107D01*
G01X23832Y30103D01*
G01X23852Y30100D01*
G01X23875Y30098D01*
G01X23900Y30096D01*
G01X23929Y30094D01*
G01X23960Y30093D01*
G01X23996Y30092D01*
G01X24034Y30092D01*
G01X24077Y30091D01*
G01X24222Y30091D01*
G01X24272Y30090D01*
G01X24321Y30088D01*
G01X24345Y30087D01*
G01X24370Y30086D01*
G01X24419Y30083D01*
G01X24492Y30078D01*
G01X24541Y30074D01*
G01X24565Y30071D01*
G01X24590Y30069D01*
G01X24662Y30060D01*
G01X24711Y30053D01*
G01X24759Y30046D01*
G01X24879Y30026D01*
G01X24903Y30021D01*
G01X24950Y30012D01*
G01X24974Y30007D01*
G01X24998Y30001D01*
G01X25021Y29996D01*
G01X25068Y29985D01*
G01X25092Y29979D01*
G01X25115Y29973D01*
G01X25139Y29967D01*
G01X25185Y29955D01*
G01X25209Y29948D01*
G01X25232Y29942D01*
G01X25324Y29914D01*
G01X25347Y29906D01*
G01X25370Y29899D01*
G01X25393Y29891D01*
G01X25416Y29884D01*
G01X25438Y29876D01*
G01X25461Y29868D01*
G01X25484Y29859D01*
G01X25506Y29851D01*
G01X25529Y29843D01*
G01X25596Y29816D01*
G01X25662Y29789D01*
G01X25706Y29769D01*
G01X25728Y29760D01*
G01X25772Y29740D01*
G01X25793Y29730D01*
G01X25837Y29709D01*
G01X25858Y29698D01*
G01X25901Y29677D01*
G01X25922Y29665D01*
G01X25985Y29632D01*
G01X26006Y29620D01*
G01X26027Y29609D01*
G01X26069Y29585D01*
G01X26110Y29560D01*
G01X26151Y29536D01*
G01X26251Y29471D01*
G01X26291Y29444D01*
G01X26311Y29431D01*
G01X26330Y29417D01*
G01X26350Y29403D01*
G01X26388Y29375D01*
G01X26408Y29361D01*
G01X26446Y29332D01*
G01X26465Y29318D01*
G01X26539Y29258D01*
G01X26558Y29243D01*
G01X26576Y29227D01*
G01X26594Y29212D01*
G01X26612Y29196D01*
G01X26648Y29165D01*
G01X26684Y29133D01*
G01X26718Y29101D01*
G01X26734Y29085D01*
G01X26750Y29070D01*
G01X26781Y29039D01*
G01X26795Y29023D01*
G01X26810Y29008D01*
G01X26824Y28993D01*
G01X26863Y28948D01*
G01X26887Y28918D01*
G01X26909Y28888D01*
G01X26919Y28874D01*
G01X26939Y28844D01*
G01X26957Y28814D01*
G01X26965Y28800D01*
G01X26973Y28785D01*
G01X26981Y28771D01*
G01X26995Y28741D01*
G01X27001Y28726D01*
G01X27007Y28712D01*
G01X27017Y28682D01*
G01X27029Y28637D01*
G01X27035Y28607D01*
G01X27039Y28577D01*
G01X27040Y28561D01*
G01X27042Y28531D01*
G01X27042Y28515D01*
G01X27041Y28500D01*
G01X27039Y28468D01*
G01X27035Y28436D01*
G01X27032Y28420D01*
G01X27029Y28403D01*
G01X27026Y28387D01*
G01X27022Y28371D01*
G01X27007Y28320D01*
G01X26995Y28286D01*
G01X26988Y28268D01*
G01X26980Y28251D01*
G01X26973Y28233D01*
G01X26965Y28215D01*
G01X26956Y28197D01*
G01X26947Y28178D01*
G01X26937Y28160D01*
G01X26927Y28141D01*
G01X26894Y28084D01*
G01X26870Y28044D01*
G01X26857Y28024D01*
G01X26843Y28004D01*
G01X26829Y27983D01*
G01X26815Y27963D01*
G01X26800Y27941D01*
G01X26785Y27920D01*
G01X26769Y27899D01*
G01X26753Y27877D01*
G01X26719Y27833D01*
G01X26683Y27787D01*
G01X26664Y27764D01*
G01X26645Y27740D01*
G01X26625Y27717D01*
G01X26605Y27693D01*
G01X26584Y27668D01*
G01X26563Y27644D01*
G01X26541Y27619D01*
G01X26519Y27593D01*
G01X26496Y27568D01*
G01X26473Y27541D01*
G01X26450Y27515D01*
G01X26425Y27488D01*
G01X26401Y27461D01*
G01X26376Y27434D01*
G01X26324Y27378D01*
G01X26297Y27350D01*
G01X26270Y27321D01*
G01X26245Y27294D01*
G01X26220Y27268D01*
G01X26196Y27243D01*
G01X26173Y27219D01*
G01X26151Y27195D01*
G01X26129Y27172D01*
G01X26087Y27128D01*
G01X26068Y27107D01*
G01X26030Y27067D01*
G01X26013Y27048D01*
G01X25996Y27030D01*
G01X25980Y27012D01*
G01X25964Y26995D01*
G01X25949Y26978D01*
G01X25935Y26962D01*
G01X25922Y26946D01*
G01X25909Y26931D01*
G01X25898Y26917D01*
G01X25886Y26903D01*
G01X25876Y26889D01*
G01X25867Y26877D01*
G01X25858Y26864D01*
G01X25850Y26852D01*
G01X25842Y26841D01*
G01X25830Y26819D01*
G01X25825Y26809D01*
G01X25821Y26799D01*
G01X25815Y26781D01*
G01X25814Y26773D01*
G01X25813Y26764D01*
G01X25813Y26749D01*
G01X25815Y26742D01*
G01X25817Y26736D01*
G01X25820Y26729D01*
G01X25824Y26723D01*
G01X25829Y26717D01*
G01X25835Y26712D01*
G01X25842Y26706D01*
G01X25849Y26701D01*
G01X25857Y26697D01*
G01X25866Y26692D01*
G01X25876Y26688D01*
G01X25887Y26684D01*
G01X25899Y26680D01*
G01X25912Y26677D01*
G01X25925Y26673D01*
G01X25955Y26667D01*
G01X25971Y26664D01*
G01X26007Y26658D01*
G01X26026Y26656D01*
G01X26046Y26653D01*
G01X26066Y26651D01*
G01X26088Y26649D01*
G01X26111Y26646D01*
G01X26159Y26642D01*
G01X26211Y26638D01*
G01X26267Y26634D01*
G01X26327Y26630D01*
G01X26391Y26626D01*
G01X26424Y26624D01*
G01X26494Y26620D01*
G01X26530Y26617D01*
G01X26568Y26615D01*
G01X26612Y26612D01*
G01X26655Y26609D01*
G01X26696Y26605D01*
G01X26736Y26602D01*
G01X26774Y26598D01*
G01X26811Y26594D01*
G01X26847Y26590D01*
G01X26881Y26585D01*
G01X26914Y26581D01*
G01X26946Y26576D01*
G01X26976Y26571D01*
G01X27005Y26566D01*
G01X27059Y26554D01*
G01X27084Y26548D01*
G01X27108Y26542D01*
G01X27131Y26535D01*
G01X27173Y26521D01*
G01X27192Y26514D01*
G01X27210Y26506D01*
G01X27227Y26498D01*
G01X27243Y26489D01*
G01X27258Y26480D01*
G01X27284Y26462D01*
G01X27296Y26452D01*
G01X27307Y26441D01*
G01X27316Y26431D01*
G01X27325Y26420D01*
G01X27333Y26408D01*
G01X27340Y26397D01*
G01X27346Y26384D01*
G01X27352Y26372D01*
G01X27356Y26359D01*
G01X27362Y26331D01*
G01X27364Y26317D01*
G01X27366Y26287D01*
G01X27366Y26264D01*
G01X27367Y26243D01*
G01X27369Y26224D01*
G01X27372Y26208D01*
G01X27377Y26193D01*
G01X27382Y26181D01*
G01X27388Y26170D01*
G01X27395Y26162D01*
G01X27403Y26156D01*
G01X27413Y26152D01*
G01X27423Y26150D01*
G01X27435Y26150D01*
G01X27448Y26152D01*
G01X27462Y26157D01*
G01X27478Y26164D01*
G01X27495Y26173D01*
G01X27514Y26184D01*
G01X27533Y26197D01*
G01X27555Y26212D01*
G01X27578Y26229D01*
G01X27602Y26249D01*
G01X27628Y26271D01*
G01X27656Y26294D01*
G01X27685Y26320D01*
G01X27707Y26341D01*
G01X27730Y26360D01*
G01X27751Y26379D01*
G01X27773Y26397D01*
G01X27794Y26414D01*
G01X27814Y26431D01*
G01X27874Y26476D01*
G01X27893Y26489D01*
G01X27913Y26502D01*
G01X27951Y26526D01*
G01X27971Y26537D01*
G01X27990Y26548D01*
G01X28009Y26558D01*
G01X28029Y26567D01*
G01X28048Y26575D01*
G01X28068Y26584D01*
G01X28108Y26598D01*
G01X28129Y26605D01*
G01X28150Y26611D01*
G01X28171Y26616D01*
G01X28193Y26622D01*
G01X28216Y26626D01*
G01X28238Y26631D01*
G01X28262Y26634D01*
G01X28286Y26638D01*
G01X28336Y26644D01*
G01X28362Y26646D01*
G01X28389Y26648D01*
G01X28417Y26650D01*
G01X28445Y26651D01*
G01X28475Y26652D01*
G01X28537Y26654D01*
G01X28672Y26654D01*
G01X28703Y26653D01*
G01X28733Y26652D01*
G01X28760Y26652D01*
G01X28786Y26650D01*
G01X28811Y26648D01*
G01X28834Y26646D01*
G01X28856Y26644D01*
G01X28896Y26636D01*
G01X28915Y26632D01*
G01X28932Y26627D01*
G01X28950Y26621D01*
G01X28966Y26614D01*
G01X28983Y26607D01*
G01X28998Y26599D01*
G01X29030Y26579D01*
G01X29046Y26568D01*
G01X29062Y26556D01*
G01X29078Y26543D01*
G01X29095Y26529D01*
G01X29112Y26513D01*
G01X29130Y26497D01*
G01X29148Y26479D01*
G01X29168Y26460D01*
G01X29189Y26439D01*
G01X29213Y26414D01*
G01X29236Y26390D01*
G01X29257Y26368D01*
G01X29276Y26347D01*
G01X29293Y26326D01*
G01X29308Y26307D01*
G01X29322Y26288D01*
G01X29334Y26270D01*
G01X29344Y26253D01*
G01X29353Y26236D01*
G01X29360Y26219D01*
G01X29366Y26203D01*
G01X29370Y26187D01*
G01X29373Y26171D01*
G01X29375Y26155D01*
G01X29375Y26139D01*
G01X29374Y26122D01*
G01X29372Y26105D01*
G01X29369Y26088D01*
G01X29365Y26069D01*
G01X29361Y26047D01*
G01X29358Y26024D01*
G01X29356Y25999D01*
G01X29356Y25973D01*
G01X29357Y25947D01*
G01X29359Y25921D01*
G01X29363Y25895D01*
G01X29368Y25869D01*
G01X29374Y25845D01*
G01X29381Y25821D01*
G01X29390Y25800D01*
G01X29399Y25780D01*
G01X29406Y25768D01*
G01X29413Y25755D01*
G01X29422Y25741D01*
G01X29432Y25727D01*
G01X29442Y25712D01*
G01X29453Y25696D01*
G01X29465Y25680D01*
G01X29491Y25646D01*
G01X29505Y25628D01*
G01X29520Y25610D01*
G01X29552Y25572D01*
G01X29568Y25552D01*
G01X29585Y25533D01*
G01X29603Y25512D01*
G01X29621Y25492D01*
G01X29639Y25471D01*
G01X29658Y25451D01*
G01X29677Y25430D01*
G01X29697Y25408D01*
G01X29716Y25387D01*
G01X29737Y25366D01*
G01X29757Y25345D01*
G01X29777Y25323D01*
G01X29923Y25177D01*
G01X29965Y25137D01*
G01X29986Y25118D01*
G01X30026Y25080D01*
G01X30047Y25062D01*
G01X30066Y25044D01*
G01X30086Y25027D01*
G01X30105Y25010D01*
G01X30124Y24994D01*
G01X30160Y24964D01*
G01X30178Y24950D01*
G01X30195Y24936D01*
G01X30211Y24923D01*
G01X30227Y24911D01*
G01X30242Y24900D01*
G01X30257Y24890D01*
G01X30271Y24881D01*
G01X30284Y24872D01*
G01X30301Y24862D01*
G01X30317Y24853D01*
G01X30332Y24844D01*
G01X30348Y24836D01*
G01X30363Y24828D01*
G01X30378Y24821D01*
G01X30392Y24815D01*
G01X30407Y24809D01*
G01X30421Y24805D01*
G01X30435Y24800D01*
G01X30449Y24797D01*
G01X30464Y24794D01*
G01X30478Y24792D01*
G01X30506Y24790D01*
G01X30521Y24791D01*
G01X30535Y24792D01*
G01X30550Y24794D01*
G01X30580Y24800D01*
G01X30596Y24805D01*
G01X30611Y24810D01*
G01X30628Y24817D01*
G01X30644Y24824D01*
G01X30661Y24832D01*
G01X30679Y24841D01*
G01X30696Y24851D01*
G01X30715Y24862D01*
G01X30734Y24874D01*
G01X30753Y24888D01*
G01X30774Y24902D01*
G01X30795Y24917D01*
G01X30816Y24933D01*
G01X30862Y24969D01*
G01X30910Y25009D01*
G01X30936Y25031D01*
G01X30962Y25054D01*
G01X31018Y25104D01*
G01X31078Y25158D01*
G01X31110Y25187D01*
G01X31142Y25218D01*
G01X31176Y25249D01*
G01X31211Y25282D01*
G01X31248Y25317D01*
G01X31281Y25348D01*
G01X31312Y25378D01*
G01X31342Y25407D01*
G01X31371Y25436D01*
G01X31399Y25463D01*
G01X31450Y25514D01*
G01X31474Y25539D01*
G01X31496Y25562D01*
G01X31517Y25585D01*
G01X31537Y25606D01*
G01X31556Y25627D01*
G01X31574Y25648D01*
G01X31606Y25686D01*
G01X31634Y25722D01*
G01X31646Y25739D01*
G01X31668Y25771D01*
G01X31677Y25786D01*
G01X31685Y25801D01*
G01X31693Y25815D01*
G01X31705Y25843D01*
G01X31710Y25856D01*
G01X31714Y25869D01*
G01X31718Y25881D01*
G01X31722Y25905D01*
G01X31723Y25917D01*
G01X31723Y25939D01*
G01X31722Y25950D01*
G01X31720Y25962D01*
G01X31717Y25975D01*
G01X31713Y25988D01*
G01X31709Y26002D01*
G01X31704Y26016D01*
G01X31698Y26032D01*
G01X31691Y26048D01*
G01X31683Y26064D01*
G01X31675Y26082D01*
G01X31666Y26100D01*
G01X31656Y26119D01*
G01X31645Y26138D01*
G01X31634Y26159D01*
G01X31621Y26179D01*
G01X31608Y26201D01*
G01X31594Y26223D01*
G01X31580Y26246D01*
G01X31564Y26269D01*
G01X31548Y26294D01*
G01X31531Y26318D01*
G01X31514Y26344D01*
G01X31495Y26370D01*
G01X31476Y26397D01*
G01X31456Y26424D01*
G01X31435Y26452D01*
G01X31414Y26481D01*
G01X31345Y26571D01*
G01X31320Y26603D01*
G01X31291Y26639D01*
G01X31263Y26674D01*
G01X31236Y26708D01*
G01X31209Y26741D01*
G01X31183Y26772D01*
G01X31158Y26802D01*
G01X31133Y26831D01*
G01X31109Y26859D01*
G01X31086Y26885D01*
G01X31063Y26910D01*
G01X31041Y26934D01*
G01X31019Y26957D01*
G01X30998Y26979D01*
G01X30978Y27000D01*
G01X30938Y27038D01*
G01X30919Y27055D01*
G01X30883Y27087D01*
G01X30865Y27101D01*
G01X30848Y27114D01*
G01X30831Y27126D01*
G01X30815Y27137D01*
G01X30799Y27147D01*
G01X30783Y27156D01*
G01X30768Y27164D01*
G01X30753Y27171D01*
G01X30738Y27177D01*
G01X30724Y27183D01*
G01X30710Y27187D01*
G01X30682Y27193D01*
G01X30656Y27195D01*
G01X30643Y27195D01*
G01X30630Y27194D01*
G01X30617Y27192D01*
G01X30605Y27189D01*
G01X30592Y27186D01*
G01X30580Y27181D01*
G01X30568Y27179D01*
G01X30553Y27181D01*
G01X30535Y27187D01*
G01X30515Y27196D01*
G01X30494Y27208D01*
G01X30470Y27223D01*
G01X30446Y27241D01*
G01X30420Y27262D01*
G01X30394Y27285D01*
G01X30368Y27310D01*
G01X30341Y27337D01*
G01X30315Y27365D01*
G01X30298Y27386D01*
G01X30281Y27405D01*
G01X30251Y27441D01*
G01X30238Y27458D01*
G01X30214Y27492D01*
G01X30204Y27509D01*
G01X30194Y27525D01*
G01X30186Y27541D01*
G01X30170Y27575D01*
G01X30158Y27611D01*
G01X30153Y27629D01*
G01X30148Y27649D01*
G01X30144Y27669D01*
G01X30141Y27690D01*
G01X30138Y27713D01*
G01X30135Y27737D01*
G01X30133Y27762D01*
G01X30131Y27789D01*
G01X30130Y27817D01*
G01X30129Y27847D01*
G01X30128Y27879D01*
G01X30128Y27949D01*
G01X30127Y27987D01*
G01X30127Y28059D01*
G01X30125Y28105D01*
G01X30124Y28127D01*
G01X30123Y28150D01*
G01X30121Y28172D01*
G01X30117Y28214D01*
G01X30115Y28236D01*
G01X30110Y28277D01*
G01X30107Y28298D01*
G01X30103Y28318D01*
G01X30100Y28338D01*
G01X30096Y28358D01*
G01X30092Y28377D01*
G01X30087Y28397D01*
G01X30083Y28416D01*
G01X30078Y28436D01*
G01X30072Y28455D01*
G01X30067Y28473D01*
G01X30055Y28511D01*
G01X30048Y28530D01*
G01X30034Y28566D01*
G01X30026Y28585D01*
G01X30018Y28603D01*
G01X30010Y28622D01*
G01X29983Y28676D01*
G01X29973Y28695D01*
G01X29963Y28713D01*
G01X29941Y28749D01*
G01X29930Y28768D01*
G01X29918Y28786D01*
G01X29906Y28805D01*
G01X29893Y28823D01*
G01X29867Y28861D01*
G01X29853Y28880D01*
G01X29808Y28937D01*
G01X29792Y28957D01*
G01X29776Y28976D01*
G01X29725Y29036D01*
G01X29706Y29057D01*
G01X29688Y29077D01*
G01X29669Y29098D01*
G01X29649Y29120D01*
G01X29629Y29141D01*
G01X29587Y29185D01*
G01X29473Y29299D01*
G01X29423Y29347D01*
G01X29397Y29372D01*
G01X29379Y29389D01*
G01X29360Y29408D01*
G01X29303Y29460D01*
G01X29284Y29477D01*
G01X29265Y29495D01*
G01X29227Y29529D01*
G01X29207Y29546D01*
G01X29188Y29563D01*
G01X29169Y29579D01*
G01X29131Y29612D01*
G01X29112Y29628D01*
G01X29073Y29660D01*
G01X29035Y29692D01*
G01X29015Y29707D01*
G01X28976Y29738D01*
G01X28957Y29753D01*
G01X28879Y29813D01*
G01X28860Y29827D01*
G01X28840Y29842D01*
G01X28820Y29856D01*
G01X28801Y29871D01*
G01X28761Y29899D01*
G01X28722Y29926D01*
G01X28702Y29940D01*
G01X28682Y29953D01*
G01X28662Y29967D01*
G01X28542Y30045D01*
G01X28521Y30057D01*
G01X28501Y30070D01*
G01X28481Y30082D01*
G01X28460Y30094D01*
G01X28420Y30118D01*
G01X28399Y30130D01*
G01X28379Y30142D01*
G01X28338Y30165D01*
G01X28317Y30177D01*
G01X28296Y30188D01*
G01X28276Y30199D01*
G01X28192Y30243D01*
G01X28171Y30253D01*
G01X28150Y30264D01*
G01X28129Y30274D01*
G01X28087Y30295D01*
G01X28044Y30314D01*
G01X28001Y30334D01*
G01X27980Y30344D01*
G01X27915Y30372D01*
G01X27893Y30381D01*
G01X27872Y30390D01*
G01X27806Y30417D01*
G01X27784Y30425D01*
G01X27762Y30434D01*
G01X27718Y30451D01*
G01X27696Y30459D01*
G01X27673Y30467D01*
G01X27651Y30475D01*
G01X27628Y30483D01*
G01X27606Y30490D01*
G01X27561Y30506D01*
G01X27538Y30513D01*
G01X27515Y30521D01*
G01X27493Y30528D01*
G01X27401Y30556D01*
G01X27377Y30563D01*
G01X27354Y30569D01*
G01X27331Y30576D01*
G01X27284Y30589D01*
G01X27237Y30601D01*
G01X27189Y30613D01*
G01X27166Y30619D01*
G01X27094Y30636D01*
G01X27045Y30646D01*
G01X27021Y30652D01*
G01X26997Y30657D01*
G01X26972Y30662D01*
G01X26948Y30667D01*
G01X26923Y30672D01*
G01X26898Y30676D01*
G01X26849Y30686D01*
G01X26799Y30694D01*
G01X26774Y30699D01*
G01X26748Y30703D01*
G01X26624Y30723D01*
G01X26534Y30738D01*
G01X26450Y30753D01*
G01X26424Y30758D01*
G01X26374Y30766D01*
G01X26351Y30770D01*
G01X26329Y30774D01*
G01X26308Y30778D01*
G01X26289Y30782D01*
G01X26271Y30785D01*
G01X26255Y30788D01*
G01X26240Y30791D01*
G01X26227Y30794D01*
G01X26216Y30796D01*
G01X26207Y30798D01*
G01X26199Y30800D01*
G01X26193Y30801D01*
G01X26185Y30802D01*
G01X26175Y30803D01*
G01X26163Y30804D01*
G01X26150Y30805D01*
G01X26135Y30806D01*
G01X26119Y30806D01*
G01X26101Y30807D01*
G01X26062Y30807D01*
G01X26040Y30808D01*
G37*

%LPD*%
G36*
G01X23652Y25304D02*
G01X23634Y25304D01*
G01X23618Y25303D01*
G01X23602Y25303D01*
G01X23576Y25299D01*
G01X23565Y25295D01*
G01X23555Y25290D01*
G01X23545Y25284D01*
G01X23537Y25276D01*
G01X23530Y25266D01*
G01X23524Y25254D01*
G01X23519Y25239D01*
G01X23515Y25223D01*
G01X23511Y25203D01*
G01X23508Y25180D01*
G01X23505Y25155D01*
G01X23503Y25126D01*
G01X23502Y25093D01*
G01X23501Y25057D01*
G01X23500Y25017D01*
G01X23499Y24973D01*
G01X23499Y24771D01*
G01X23500Y24730D01*
G01X23501Y24690D01*
G01X23502Y24652D01*
G01X23503Y24615D01*
G01X23505Y24581D01*
G01X23508Y24548D01*
G01X23510Y24516D01*
G01X23513Y24487D01*
G01X23516Y24460D01*
G01X23520Y24435D01*
G01X23523Y24412D01*
G01X23527Y24392D01*
G01X23531Y24374D01*
G01X23536Y24358D01*
G01X23540Y24345D01*
G01X23545Y24335D01*
G01X23550Y24328D01*
G01X23555Y24323D01*
G01X23560Y24322D01*
G01X23573Y24324D01*
G01X23584Y24332D01*
G01X23595Y24343D01*
G01X23604Y24358D01*
G01X23611Y24376D01*
G01X23617Y24397D01*
G01X23620Y24420D01*
G01X23622Y24445D01*
G01X23622Y24457D01*
G01X23624Y24470D01*
G01X23627Y24481D01*
G01X23631Y24492D01*
G01X23637Y24502D01*
G01X23644Y24512D01*
G01X23652Y24521D01*
G01X23662Y24530D01*
G01X23672Y24537D01*
G01X23685Y24545D01*
G01X23698Y24551D01*
G01X23713Y24557D01*
G01X23729Y24563D01*
G01X23747Y24568D01*
G01X23766Y24572D01*
G01X23787Y24576D01*
G01X23809Y24579D01*
G01X23832Y24581D01*
G01X23857Y24583D01*
G01X23884Y24585D01*
G01X23912Y24585D01*
G01X23941Y24586D01*
G01X23972Y24585D01*
G01X24005Y24585D01*
G01X24039Y24583D01*
G01X24075Y24581D01*
G01X24112Y24579D01*
G01X24152Y24576D01*
G01X24176Y24575D01*
G01X24197Y24576D01*
G01X24216Y24579D01*
G01X24233Y24585D01*
G01X24248Y24594D01*
G01X24261Y24606D01*
G01X24272Y24621D01*
G01X24282Y24640D01*
G01X24291Y24662D01*
G01X24298Y24688D01*
G01X24304Y24718D01*
G01X24310Y24753D01*
G01X24316Y24801D01*
G01X24319Y24839D01*
G01X24318Y24870D01*
G01X24313Y24892D01*
G01X24305Y24907D01*
G01X24293Y24914D01*
G01X24276Y24915D01*
G01X24256Y24910D01*
G01X24234Y24903D01*
G01X24215Y24902D01*
G01X24200Y24905D01*
G01X24188Y24912D01*
G01X24180Y24921D01*
G01X24176Y24934D01*
G01X24175Y24948D01*
G01X24179Y24964D01*
G01X24186Y24980D01*
G01X24198Y24996D01*
G01X24214Y25012D01*
G01X24234Y25027D01*
G01X24246Y25037D01*
G01X24254Y25051D01*
G01X24259Y25067D01*
G01X24259Y25086D01*
G01X24255Y25107D01*
G01X24247Y25131D01*
G01X24235Y25157D01*
G01X24219Y25184D01*
G01X24205Y25205D01*
G01X24190Y25225D01*
G01X24175Y25242D01*
G01X24160Y25257D01*
G01X24145Y25270D01*
G01X24130Y25280D01*
G01X24115Y25289D01*
G01X24101Y25295D01*
G01X24088Y25299D01*
G01X24075Y25301D01*
G01X24064Y25300D01*
G01X24053Y25298D01*
G01X24044Y25293D01*
G01X24036Y25286D01*
G01X24030Y25276D01*
G01X24026Y25265D01*
G01X24024Y25251D01*
G01X24023Y25234D01*
G01X24025Y25216D01*
G01X24030Y25195D01*
G01X24033Y25179D01*
G01X24034Y25160D01*
G01X24034Y25139D01*
G01X24032Y25116D01*
G01X24028Y25092D01*
G01X24024Y25067D01*
G01X24010Y25015D01*
G01X24001Y24989D01*
G01X23991Y24963D01*
G01X23981Y24938D01*
G01X23969Y24913D01*
G01X23950Y24877D01*
G01X23933Y24847D01*
G01X23919Y24823D01*
G01X23907Y24805D01*
G01X23896Y24793D01*
G01X23887Y24786D01*
G01X23879Y24786D01*
G01X23871Y24791D01*
G01X23864Y24801D01*
G01X23856Y24816D01*
G01X23849Y24837D01*
G01X23840Y24862D01*
G01X23826Y24914D01*
G01X23820Y24939D01*
G01X23816Y24964D01*
G01X23812Y24987D01*
G01X23810Y25007D01*
G01X23810Y25024D01*
G01X23811Y25037D01*
G01X23816Y25070D01*
G01X23819Y25101D01*
G01X23821Y25130D01*
G01X23820Y25156D01*
G01X23817Y25180D01*
G01X23813Y25202D01*
G01X23806Y25222D01*
G01X23797Y25239D01*
G01X23786Y25255D01*
G01X23774Y25268D01*
G01X23759Y25279D01*
G01X23742Y25288D01*
G01X23722Y25295D01*
G01X23701Y25300D01*
G01X23678Y25303D01*
G01X23652Y25304D01*
G37*

%LPD*%
G36*
G01X20214Y24411D02*
G01X20205Y24412D01*
G01X20194Y24410D01*
G01X20182Y24404D01*
G01X20167Y24393D01*
G01X20150Y24380D01*
G01X20132Y24362D01*
G01X20116Y24340D01*
G01X20101Y24314D01*
G01X20088Y24286D01*
G01X20077Y24256D01*
G01X20069Y24225D01*
G01X20064Y24193D01*
G01X20062Y24163D01*
G01X20063Y24137D01*
G01X20065Y24115D01*
G01X20069Y24095D01*
G01X20074Y24079D01*
G01X20080Y24066D01*
G01X20088Y24056D01*
G01X20096Y24048D01*
G01X20105Y24043D01*
G01X20114Y24041D01*
G01X20124Y24042D01*
G01X20134Y24045D01*
G01X20145Y24050D01*
G01X20155Y24057D01*
G01X20166Y24067D01*
G01X20176Y24079D01*
G01X20186Y24093D01*
G01X20195Y24109D01*
G01X20203Y24127D01*
G01X20211Y24146D01*
G01X20218Y24168D01*
G01X20224Y24190D01*
G01X20228Y24215D01*
G01X20231Y24241D01*
G01X20233Y24268D01*
G01X20233Y24334D01*
G01X20232Y24359D01*
G01X20230Y24379D01*
G01X20226Y24394D01*
G01X20220Y24405D01*
G01X20214Y24411D01*
G37*

%LPD*%
G36*
G01X23032Y24010D02*
G01X23008Y24015D01*
G01X22984Y24013D01*
G01X22965Y24007D01*
G01X22951Y23998D01*
G01X22947Y23988D01*
G01X22951Y23974D01*
G01X22965Y23958D01*
G01X22984Y23940D01*
G01X23008Y23923D01*
G01X23032Y23913D01*
G01X23051Y23915D01*
G01X23064Y23928D01*
G01X23069Y23950D01*
G01X23064Y23975D01*
G01X23051Y23996D01*
G01X23032Y24010D01*
G37*

%LPD*%
G36*
G01X20933Y24073D02*
G01X20921Y24076D01*
G01X20898Y24073D01*
G01X20882Y24063D01*
G01X20874Y24048D01*
G01X20875Y24030D01*
G01X20877Y24012D01*
G01X20870Y23995D01*
G01X20856Y23982D01*
G01X20836Y23974D01*
G01X20816Y23968D01*
G01X20796Y23957D01*
G01X20778Y23942D01*
G01X20761Y23924D01*
G01X20745Y23903D01*
G01X20732Y23881D01*
G01X20721Y23857D01*
G01X20713Y23834D01*
G01X20708Y23810D01*
G01X20707Y23788D01*
G01X20711Y23768D01*
G01X20718Y23751D01*
G01X20736Y23736D01*
G01X20758Y23736D01*
G01X20782Y23750D01*
G01X20805Y23778D01*
G01X20830Y23813D01*
G01X20846Y23826D01*
G01X20856Y23816D01*
G01X20859Y23785D01*
G01X20864Y23755D01*
G01X20877Y23731D01*
G01X20897Y23714D01*
G01X20921Y23708D01*
G01X20933Y23712D01*
G01X20945Y23723D01*
G01X20955Y23740D01*
G01X20964Y23762D01*
G01X20972Y23790D01*
G01X20978Y23821D01*
G01X20981Y23855D01*
G01X20982Y23892D01*
G01X20981Y23929D01*
G01X20978Y23964D01*
G01X20972Y23995D01*
G01X20964Y24022D01*
G01X20955Y24045D01*
G01X20945Y24062D01*
G01X20933Y24073D01*
G37*

%LPD*%
G36*
G01X20605Y23484D02*
G01X20587Y23484D01*
G01X20570Y23480D01*
G01X20551Y23471D01*
G01X20538Y23462D01*
G01X20531Y23451D01*
G01X20529Y23438D01*
G01X20533Y23424D01*
G01X20543Y23407D01*
G01X20559Y23387D01*
G01X20600Y23346D01*
G01X20619Y23330D01*
G01X20638Y23316D01*
G01X20656Y23304D01*
G01X20673Y23294D01*
G01X20690Y23286D01*
G01X20705Y23280D01*
G01X20720Y23276D01*
G01X20733Y23274D01*
G01X20746Y23273D01*
G01X20756Y23274D01*
G01X20766Y23277D01*
G01X20774Y23282D01*
G01X20780Y23288D01*
G01X20784Y23296D01*
G01X20786Y23305D01*
G01X20787Y23316D01*
G01X20785Y23328D01*
G01X20781Y23341D01*
G01X20774Y23356D01*
G01X20765Y23372D01*
G01X20753Y23389D01*
G01X20739Y23407D01*
G01X20722Y23427D01*
G01X20705Y23443D01*
G01X20686Y23456D01*
G01X20666Y23468D01*
G01X20646Y23476D01*
G01X20625Y23482D01*
G01X20605Y23484D01*
G37*

%LPD*%
G36*
G01X21228Y26715D02*
G01X20895Y26715D01*
G01X20852Y26714D01*
G01X20814Y26711D01*
G01X20781Y26708D01*
G01X20754Y26703D01*
G01X20732Y26697D01*
G01X20714Y26690D01*
G01X20702Y26682D01*
G01X20694Y26672D01*
G01X20690Y26661D01*
G01X20690Y26648D01*
G01X20694Y26633D01*
G01X20699Y26615D01*
G01X20702Y26595D01*
G01X20703Y26573D01*
G01X20702Y26551D01*
G01X20698Y26529D01*
G01X20693Y26508D01*
G01X20685Y26488D01*
G01X20669Y26456D01*
G01X20664Y26439D01*
G01X20662Y26420D01*
G01X20661Y26399D01*
G01X20662Y26376D01*
G01X20665Y26352D01*
G01X20670Y26326D01*
G01X20676Y26300D01*
G01X20683Y26273D01*
G01X20692Y26245D01*
G01X20702Y26218D01*
G01X20713Y26191D01*
G01X20725Y26165D01*
G01X20737Y26140D01*
G01X20751Y26116D01*
G01X20766Y26094D01*
G01X20780Y26073D01*
G01X20796Y26055D01*
G01X20812Y26039D01*
G01X20828Y26026D01*
G01X20851Y26006D01*
G01X20857Y25992D01*
G01X20848Y25983D01*
G01X20822Y25980D01*
G01X20812Y25978D01*
G01X20802Y25974D01*
G01X20793Y25966D01*
G01X20784Y25957D01*
G01X20775Y25944D01*
G01X20767Y25930D01*
G01X20759Y25913D01*
G01X20752Y25895D01*
G01X20745Y25875D01*
G01X20739Y25853D01*
G01X20733Y25830D01*
G01X20728Y25806D01*
G01X20723Y25781D01*
G01X20719Y25755D01*
G01X20715Y25728D01*
G01X20712Y25701D01*
G01X20710Y25673D01*
G01X20708Y25617D01*
G01X20708Y25563D01*
G01X20710Y25536D01*
G01X20712Y25510D01*
G01X20715Y25485D01*
G01X20719Y25461D01*
G01X20724Y25438D01*
G01X20730Y25417D01*
G01X20737Y25397D01*
G01X20749Y25360D01*
G01X20758Y25328D01*
G01X20761Y25300D01*
G01X20759Y25277D01*
G01X20753Y25258D01*
G01X20741Y25242D01*
G01X20725Y25229D01*
G01X20703Y25219D01*
G01X20681Y25213D01*
G01X20662Y25213D01*
G01X20647Y25219D01*
G01X20634Y25231D01*
G01X20625Y25251D01*
G01X20619Y25277D01*
G01X20615Y25311D01*
G01X20613Y25352D01*
G01X20613Y25387D01*
G01X20612Y25421D01*
G01X20610Y25454D01*
G01X20607Y25485D01*
G01X20604Y25514D01*
G01X20600Y25542D01*
G01X20595Y25569D01*
G01X20590Y25594D01*
G01X20583Y25618D01*
G01X20576Y25640D01*
G01X20569Y25661D01*
G01X20560Y25681D01*
G01X20551Y25700D01*
G01X20541Y25717D01*
G01X20530Y25733D01*
G01X20518Y25747D01*
G01X20505Y25761D01*
G01X20492Y25773D01*
G01X20478Y25784D01*
G01X20463Y25794D01*
G01X20447Y25802D01*
G01X20430Y25810D01*
G01X20394Y25822D01*
G01X20372Y25828D01*
G01X20353Y25836D01*
G01X20335Y25845D01*
G01X20319Y25856D01*
G01X20304Y25868D01*
G01X20291Y25881D01*
G01X20279Y25895D01*
G01X20270Y25909D01*
G01X20261Y25924D01*
G01X20255Y25940D01*
G01X20250Y25956D01*
G01X20246Y25988D01*
G01X20247Y26004D01*
G01X20250Y26020D01*
G01X20254Y26036D01*
G01X20260Y26050D01*
G01X20268Y26065D01*
G01X20278Y26078D01*
G01X20290Y26090D01*
G01X20303Y26102D01*
G01X20319Y26112D01*
G01X20336Y26121D01*
G01X20356Y26128D01*
G01X20378Y26138D01*
G01X20399Y26152D01*
G01X20419Y26170D01*
G01X20436Y26191D01*
G01X20451Y26214D01*
G01X20463Y26239D01*
G01X20471Y26265D01*
G01X20475Y26292D01*
G01X20476Y26326D01*
G01X20474Y26353D01*
G01X20468Y26373D01*
G01X20458Y26387D01*
G01X20443Y26396D01*
G01X20422Y26399D01*
G01X20397Y26397D01*
G01X20365Y26390D01*
G01X20337Y26384D01*
G01X20312Y26382D01*
G01X20291Y26384D01*
G01X20274Y26391D01*
G01X20261Y26402D01*
G01X20251Y26417D01*
G01X20245Y26436D01*
G01X20242Y26460D01*
G01X20240Y26481D01*
G01X20236Y26494D01*
G01X20231Y26499D01*
G01X20223Y26496D01*
G01X20214Y26486D01*
G01X20204Y26468D01*
G01X20191Y26443D01*
G01X20178Y26410D01*
G01X20164Y26379D01*
G01X20149Y26348D01*
G01X20132Y26319D01*
G01X20115Y26291D01*
G01X20097Y26266D01*
G01X20080Y26245D01*
G01X20064Y26228D01*
G01X20049Y26216D01*
G01X20034Y26205D01*
G01X20025Y26191D01*
G01X20021Y26176D01*
G01X20023Y26159D01*
G01X20030Y26140D01*
G01X20043Y26119D01*
G01X20061Y26095D01*
G01X20086Y26069D01*
G01X20106Y26047D01*
G01X20123Y26026D01*
G01X20137Y26004D01*
G01X20148Y25984D01*
G01X20154Y25965D01*
G01X20157Y25949D01*
G01X20156Y25936D01*
G01X20150Y25926D01*
G01X20140Y25920D01*
G01X20128Y25920D01*
G01X20115Y25923D01*
G01X20100Y25931D01*
G01X20085Y25943D01*
G01X20070Y25959D01*
G01X20054Y25978D01*
G01X20039Y26000D01*
G01X20016Y26037D01*
G01X19995Y26071D01*
G01X19976Y26102D01*
G01X19958Y26131D01*
G01X19941Y26156D01*
G01X19926Y26178D01*
G01X19911Y26198D01*
G01X19897Y26214D01*
G01X19884Y26228D01*
G01X19871Y26240D01*
G01X19859Y26250D01*
G01X19846Y26257D01*
G01X19834Y26262D01*
G01X19821Y26264D01*
G01X19807Y26265D01*
G01X19793Y26263D01*
G01X19777Y26260D01*
G01X19761Y26255D01*
G01X19743Y26248D01*
G01X19724Y26240D01*
G01X19703Y26230D01*
G01X19680Y26219D01*
G01X19656Y26206D01*
G01X19629Y26192D01*
G01X19607Y26181D01*
G01X19561Y26159D01*
G01X19538Y26149D01*
G01X19514Y26139D01*
G01X19491Y26129D01*
G01X19467Y26120D01*
G01X19444Y26111D01*
G01X19422Y26103D01*
G01X19400Y26096D01*
G01X19380Y26089D01*
G01X19360Y26084D01*
G01X19342Y26079D01*
G01X19325Y26075D01*
G01X19309Y26072D01*
G01X19296Y26070D01*
G01X19269Y26067D01*
G01X19243Y26064D01*
G01X19216Y26061D01*
G01X19190Y26058D01*
G01X19166Y26055D01*
G01X19144Y26052D01*
G01X19125Y26049D01*
G01X19111Y26047D01*
G01X19094Y26039D01*
G01X19094Y26024D01*
G01X19110Y26003D01*
G01X19141Y25979D01*
G01X19167Y25962D01*
G01X19186Y25948D01*
G01X19197Y25937D01*
G01X19200Y25930D01*
G01X19195Y25924D01*
G01X19182Y25921D01*
G01X19162Y25919D01*
G01X19133Y25919D01*
G01X19118Y25920D01*
G01X19103Y25924D01*
G01X19086Y25930D01*
G01X19069Y25939D01*
G01X19051Y25950D01*
G01X19033Y25963D01*
G01X19014Y25977D01*
G01X18996Y25994D01*
G01X18962Y26030D01*
G01X18947Y26050D01*
G01X18932Y26071D01*
G01X18918Y26092D01*
G01X18902Y26112D01*
G01X18886Y26131D01*
G01X18852Y26165D01*
G01X18834Y26179D01*
G01X18817Y26192D01*
G01X18800Y26203D01*
G01X18784Y26212D01*
G01X18769Y26219D01*
G01X18754Y26223D01*
G01X18741Y26225D01*
G01X18723Y26227D01*
G01X18705Y26233D01*
G01X18689Y26243D01*
G01X18675Y26256D01*
G01X18664Y26272D01*
G01X18654Y26290D01*
G01X18648Y26310D01*
G01X18645Y26332D01*
G01X18641Y26370D01*
G01X18633Y26389D01*
G01X18623Y26386D01*
G01X18610Y26363D01*
G01X18602Y26348D01*
G01X18590Y26334D01*
G01X18577Y26323D01*
G01X18561Y26313D01*
G01X18543Y26304D01*
G01X18523Y26298D01*
G01X18502Y26293D01*
G01X18480Y26290D01*
G01X18458Y26288D01*
G01X18435Y26288D01*
G01X18412Y26290D01*
G01X18389Y26293D01*
G01X18367Y26298D01*
G01X18346Y26305D01*
G01X18327Y26313D01*
G01X18309Y26322D01*
G01X18293Y26333D01*
G01X18279Y26346D01*
G01X18268Y26360D01*
G01X18261Y26376D01*
G01X18255Y26395D01*
G01X18252Y26414D01*
G01X18252Y26433D01*
G01X18254Y26451D01*
G01X18259Y26468D01*
G01X18267Y26482D01*
G01X18276Y26495D01*
G01X18288Y26504D01*
G01X18303Y26515D01*
G01X18315Y26527D01*
G01X18324Y26540D01*
G01X18330Y26554D01*
G01X18332Y26568D01*
G01X18332Y26583D01*
G01X18329Y26597D01*
G01X18324Y26611D01*
G01X18316Y26625D01*
G01X18305Y26638D01*
G01X18292Y26650D01*
G01X18277Y26661D01*
G01X18260Y26671D01*
G01X18241Y26679D01*
G01X18219Y26686D01*
G01X18196Y26690D01*
G01X18167Y26693D01*
G01X18144Y26691D01*
G01X18128Y26685D01*
G01X18116Y26674D01*
G01X18111Y26656D01*
G01X18110Y26632D01*
G01X18114Y26601D01*
G01X18123Y26562D01*
G01X18129Y26531D01*
G01X18131Y26499D01*
G01X18130Y26467D01*
G01X18126Y26436D01*
G01X18120Y26406D01*
G01X18110Y26379D01*
G01X18097Y26356D01*
G01X18083Y26336D01*
G01X18080Y26333D01*
G01X18077Y26329D01*
G01X18071Y26319D01*
G01X18068Y26313D01*
G01X18066Y26307D01*
G01X18063Y26300D01*
G01X18061Y26292D01*
G01X18058Y26284D01*
G01X18056Y26275D01*
G01X18053Y26265D01*
G01X18051Y26255D01*
G01X18049Y26244D01*
G01X18045Y26220D01*
G01X18043Y26207D01*
G01X18041Y26193D01*
G01X18037Y26163D01*
G01X18035Y26147D01*
G01X18034Y26131D01*
G01X18030Y26095D01*
G01X18029Y26076D01*
G01X18027Y26056D01*
G01X18026Y26036D01*
G01X18025Y26014D01*
G01X18023Y25992D01*
G01X18022Y25969D01*
G01X18020Y25921D01*
G01X18018Y25895D01*
G01X18017Y25869D01*
G01X18016Y25841D01*
G01X18015Y25814D01*
G01X18015Y25785D01*
G01X18014Y25755D01*
G01X18013Y25724D01*
G01X18011Y25660D01*
G01X18011Y25626D01*
G01X18010Y25592D01*
G01X18010Y25556D01*
G01X18009Y25520D01*
G01X18009Y25482D01*
G01X18008Y25444D01*
G01X18008Y25405D01*
G01X18007Y25364D01*
G01X18007Y25193D01*
G01X18006Y25148D01*
G01X18006Y25005D01*
G01X18007Y23755D01*
G01X18293Y23730D01*
G01X18332Y23727D01*
G01X18371Y23726D01*
G01X18408Y23725D01*
G01X18443Y23726D01*
G01X18476Y23728D01*
G01X18507Y23731D01*
G01X18535Y23735D01*
G01X18560Y23740D01*
G01X18581Y23746D01*
G01X18598Y23752D01*
G01X18611Y23760D01*
G01X18619Y23768D01*
G01X18630Y23781D01*
G01X18648Y23792D01*
G01X18672Y23803D01*
G01X18700Y23812D01*
G01X18732Y23820D01*
G01X18767Y23826D01*
G01X18804Y23830D01*
G01X18842Y23831D01*
G01X18878Y23830D01*
G01X18911Y23827D01*
G01X18939Y23822D01*
G01X18963Y23816D01*
G01X18980Y23809D01*
G01X18992Y23800D01*
G01X18997Y23791D01*
G01X18995Y23781D01*
G01X18993Y23774D01*
G01X18996Y23767D01*
G01X19003Y23760D01*
G01X19015Y23754D01*
G01X19030Y23747D01*
G01X19049Y23742D01*
G01X19072Y23736D01*
G01X19097Y23731D01*
G01X19125Y23726D01*
G01X19156Y23723D01*
G01X19189Y23720D01*
G01X19223Y23717D01*
G01X19260Y23715D01*
G01X19292Y23714D01*
G01X19321Y23713D01*
G01X19348Y23713D01*
G01X19371Y23714D01*
G01X19391Y23715D01*
G01X19409Y23718D01*
G01X19425Y23721D01*
G01X19438Y23726D01*
G01X19450Y23733D01*
G01X19460Y23741D01*
G01X19468Y23751D01*
G01X19474Y23762D01*
G01X19480Y23776D01*
G01X19484Y23791D01*
G01X19487Y23809D01*
G01X19490Y23829D01*
G01X19493Y23852D01*
G01X19495Y23877D01*
G01X19497Y23905D01*
G01X19499Y23938D01*
G01X19501Y23969D01*
G01X19504Y23999D01*
G01X19506Y24028D01*
G01X19509Y24056D01*
G01X19511Y24083D01*
G01X19514Y24110D01*
G01X19517Y24135D01*
G01X19521Y24159D01*
G01X19524Y24183D01*
G01X19528Y24206D01*
G01X19536Y24250D01*
G01X19540Y24271D01*
G01X19550Y24311D01*
G01X19556Y24331D01*
G01X19562Y24349D01*
G01X19568Y24368D01*
G01X19574Y24386D01*
G01X19581Y24404D01*
G01X19589Y24421D01*
G01X19597Y24439D01*
G01X19605Y24456D01*
G01X19623Y24490D01*
G01X19633Y24506D01*
G01X19666Y24557D01*
G01X19678Y24573D01*
G01X19691Y24590D01*
G01X19705Y24608D01*
G01X19719Y24625D01*
G01X19733Y24643D01*
G01X19765Y24679D01*
G01X19782Y24698D01*
G01X19818Y24736D01*
G01X19837Y24757D01*
G01X19950Y24870D01*
G01X19974Y24892D01*
G01X19996Y24911D01*
G01X20017Y24928D01*
G01X20036Y24944D01*
G01X20054Y24957D01*
G01X20071Y24967D01*
G01X20086Y24976D01*
G01X20100Y24983D01*
G01X20112Y24987D01*
G01X20123Y24989D01*
G01X20133Y24989D01*
G01X20142Y24987D01*
G01X20149Y24983D01*
G01X20154Y24977D01*
G01X20159Y24968D01*
G01X20162Y24957D01*
G01X20163Y24945D01*
G01X20163Y24930D01*
G01X20162Y24912D01*
G01X20159Y24893D01*
G01X20155Y24872D01*
G01X20150Y24848D01*
G01X20145Y24827D01*
G01X20142Y24805D01*
G01X20140Y24781D01*
G01X20140Y24734D01*
G01X20142Y24710D01*
G01X20145Y24687D01*
G01X20150Y24664D01*
G01X20155Y24642D01*
G01X20161Y24622D01*
G01X20169Y24604D01*
G01X20177Y24587D01*
G01X20187Y24572D01*
G01X20195Y24559D01*
G01X20203Y24550D01*
G01X20210Y24544D01*
G01X20216Y24541D01*
G01X20221Y24542D01*
G01X20226Y24547D01*
G01X20230Y24555D01*
G01X20233Y24567D01*
G01X20236Y24583D01*
G01X20239Y24603D01*
G01X20240Y24627D01*
G01X20242Y24655D01*
G01X20243Y24688D01*
G01X20244Y24725D01*
G01X20244Y24767D01*
G01X20245Y24805D01*
G01X20246Y24840D01*
G01X20247Y24872D01*
G01X20250Y24901D01*
G01X20253Y24927D01*
G01X20256Y24951D01*
G01X20261Y24973D01*
G01X20266Y24991D01*
G01X20271Y25008D01*
G01X20278Y25021D01*
G01X20285Y25033D01*
G01X20293Y25042D01*
G01X20302Y25049D01*
G01X20311Y25054D01*
G01X20322Y25057D01*
G01X20333Y25058D01*
G01X20351Y25057D01*
G01X20369Y25052D01*
G01X20387Y25045D01*
G01X20404Y25036D01*
G01X20419Y25025D01*
G01X20433Y25011D01*
G01X20444Y24997D01*
G01X20452Y24982D01*
G01X20461Y24964D01*
G01X20471Y24952D01*
G01X20483Y24947D01*
G01X20497Y24948D01*
G01X20513Y24955D01*
G01X20531Y24969D01*
G01X20551Y24989D01*
G01X20574Y25016D01*
G01X20590Y25034D01*
G01X20605Y25050D01*
G01X20619Y25062D01*
G01X20633Y25071D01*
G01X20646Y25077D01*
G01X20658Y25080D01*
G01X20669Y25081D01*
G01X20680Y25078D01*
G01X20690Y25072D01*
G01X20700Y25063D01*
G01X20708Y25051D01*
G01X20716Y25036D01*
G01X20723Y25018D01*
G01X20729Y24997D01*
G01X20735Y24973D01*
G01X20740Y24947D01*
G01X20743Y24917D01*
G01X20747Y24884D01*
G01X20749Y24848D01*
G01X20753Y24772D01*
G01X20757Y24735D01*
G01X20762Y24701D01*
G01X20770Y24669D01*
G01X20778Y24642D01*
G01X20787Y24619D01*
G01X20797Y24603D01*
G01X20818Y24582D01*
G01X20828Y24564D01*
G01X20837Y24541D01*
G01X20845Y24512D01*
G01X20852Y24479D01*
G01X20857Y24443D01*
G01X20860Y24404D01*
G01X20862Y24364D01*
G01X20862Y24327D01*
G01X20863Y24295D01*
G01X20865Y24269D01*
G01X20867Y24249D01*
G01X20871Y24234D01*
G01X20875Y24225D01*
G01X20880Y24222D01*
G01X20887Y24223D01*
G01X20894Y24229D01*
G01X20903Y24240D01*
G01X20914Y24256D01*
G01X20926Y24276D01*
G01X20938Y24299D01*
G01X20948Y24323D01*
G01X20955Y24347D01*
G01X20960Y24370D01*
G01X20962Y24393D01*
G01X20961Y24413D01*
G01X20958Y24431D01*
G01X20952Y24445D01*
G01X20942Y24469D01*
G01X20942Y24488D01*
G01X20953Y24501D01*
G01X20973Y24506D01*
G01X20978Y24506D01*
G01X20983Y24505D01*
G01X20987Y24503D01*
G01X20992Y24501D01*
G01X20996Y24498D01*
G01X21004Y24490D01*
G01X21008Y24485D01*
G01X21016Y24473D01*
G01X21020Y24466D01*
G01X21024Y24458D01*
G01X21027Y24449D01*
G01X21031Y24440D01*
G01X21034Y24430D01*
G01X21038Y24419D01*
G01X21041Y24408D01*
G01X21050Y24369D01*
G01X21056Y24339D01*
G01X21059Y24323D01*
G01X21062Y24306D01*
G01X21065Y24288D01*
G01X21067Y24270D01*
G01X21070Y24251D01*
G01X21072Y24230D01*
G01X21075Y24210D01*
G01X21077Y24188D01*
G01X21081Y24142D01*
G01X21083Y24118D01*
G01X21085Y24093D01*
G01X21087Y24067D01*
G01X21089Y24040D01*
G01X21093Y23984D01*
G01X21095Y23955D01*
G01X21096Y23924D01*
G01X21098Y23893D01*
G01X21099Y23861D01*
G01X21101Y23828D01*
G01X21103Y23760D01*
G01X21105Y23724D01*
G01X21107Y23650D01*
G01X21108Y23612D01*
G01X21110Y23532D01*
G01X21112Y23448D01*
G01X21113Y23405D01*
G01X21113Y23361D01*
G01X21114Y23316D01*
G01X21115Y23270D01*
G01X21115Y23222D01*
G01X21116Y23174D01*
G01X21116Y23081D01*
G01X21117Y23038D01*
G01X21117Y22835D01*
G01X21116Y22796D01*
G01X21116Y22759D01*
G01X21115Y22722D01*
G01X21115Y22686D01*
G01X21114Y22651D01*
G01X21112Y22583D01*
G01X21111Y22550D01*
G01X21110Y22518D01*
G01X21108Y22486D01*
G01X21107Y22455D01*
G01X21103Y22395D01*
G01X21102Y22366D01*
G01X21100Y22338D01*
G01X21097Y22310D01*
G01X21095Y22283D01*
G01X21093Y22257D01*
G01X21087Y22205D01*
G01X21084Y22180D01*
G01X21078Y22132D01*
G01X21075Y22109D01*
G01X21071Y22086D01*
G01X21068Y22064D01*
G01X21064Y22042D01*
G01X21060Y22021D01*
G01X21055Y22000D01*
G01X21047Y21960D01*
G01X21042Y21940D01*
G01X21037Y21921D01*
G01X21032Y21903D01*
G01X21026Y21884D01*
G01X21021Y21866D01*
G01X21015Y21849D01*
G01X21009Y21831D01*
G01X21003Y21814D01*
G01X20991Y21782D01*
G01X20977Y21750D01*
G01X20963Y21720D01*
G01X20947Y21690D01*
G01X20923Y21648D01*
G01X20905Y21621D01*
G01X20896Y21607D01*
G01X20887Y21594D01*
G01X20877Y21581D01*
G01X20868Y21568D01*
G01X20858Y21555D01*
G01X20847Y21543D01*
G01X20837Y21530D01*
G01X20826Y21518D01*
G01X20815Y21505D01*
G01X20804Y21493D01*
G01X20780Y21469D01*
G01X20768Y21456D01*
G01X20751Y21439D01*
G01X20715Y21407D01*
G01X20679Y21379D01*
G01X20660Y21365D01*
G01X20642Y21353D01*
G01X20623Y21341D01*
G01X20605Y21330D01*
G01X20567Y21310D01*
G01X20548Y21301D01*
G01X20529Y21293D01*
G01X20491Y21279D01*
G01X20472Y21273D01*
G01X20434Y21263D01*
G01X20415Y21260D01*
G01X20397Y21256D01*
G01X20359Y21252D01*
G01X20340Y21251D01*
G01X20303Y21251D01*
G01X20285Y21252D01*
G01X20266Y21254D01*
G01X20248Y21256D01*
G01X20230Y21259D01*
G01X20212Y21263D01*
G01X20195Y21267D01*
G01X20177Y21272D01*
G01X20143Y21284D01*
G01X20126Y21291D01*
G01X20110Y21299D01*
G01X20093Y21307D01*
G01X20077Y21316D01*
G01X20062Y21325D01*
G01X20046Y21335D01*
G01X20016Y21357D01*
G01X20002Y21369D01*
G01X19987Y21382D01*
G01X19960Y21409D01*
G01X19947Y21423D01*
G01X19934Y21438D01*
G01X19910Y21470D01*
G01X19898Y21487D01*
G01X19887Y21504D01*
G01X19867Y21540D01*
G01X19857Y21559D01*
G01X19839Y21599D01*
G01X19823Y21641D01*
G01X19816Y21663D01*
G01X19810Y21685D01*
G01X19798Y21731D01*
G01X19793Y21755D01*
G01X19789Y21783D01*
G01X19785Y21809D01*
G01X19782Y21836D01*
G01X19780Y21862D01*
G01X19779Y21887D01*
G01X19778Y21913D01*
G01X19779Y21937D01*
G01X19780Y21962D01*
G01X19782Y21985D01*
G01X19788Y22031D01*
G01X19798Y22075D01*
G01X19804Y22095D01*
G01X19818Y22135D01*
G01X19826Y22154D01*
G01X19835Y22172D01*
G01X19845Y22189D01*
G01X19855Y22205D01*
G01X19866Y22221D01*
G01X19878Y22236D01*
G01X19890Y22249D01*
G01X19903Y22263D01*
G01X19916Y22275D01*
G01X19931Y22286D01*
G01X19946Y22296D01*
G01X19961Y22305D01*
G01X19977Y22314D01*
G01X19994Y22321D01*
G01X20011Y22327D01*
G01X20029Y22332D01*
G01X20045Y22336D01*
G01X20073Y22344D01*
G01X20085Y22349D01*
G01X20097Y22353D01*
G01X20107Y22358D01*
G01X20117Y22364D01*
G01X20126Y22371D01*
G01X20134Y22379D01*
G01X20141Y22387D01*
G01X20148Y22397D01*
G01X20154Y22409D01*
G01X20159Y22421D01*
G01X20163Y22436D01*
G01X20167Y22452D01*
G01X20171Y22470D01*
G01X20174Y22490D01*
G01X20176Y22513D01*
G01X20178Y22537D01*
G01X20180Y22564D01*
G01X20182Y22594D01*
G01X20183Y22626D01*
G01X20183Y22662D01*
G01X20184Y22700D01*
G01X20184Y22786D01*
G01X20185Y22834D01*
G01X20185Y23401D01*
G01X19583Y23401D01*
G01X19537Y23402D01*
G01X19494Y23402D01*
G01X19452Y23403D01*
G01X19413Y23404D01*
G01X19377Y23405D01*
G01X19343Y23407D01*
G01X19311Y23409D01*
G01X19281Y23411D01*
G01X19254Y23413D01*
G01X19229Y23416D01*
G01X19206Y23419D01*
G01X19185Y23422D01*
G01X19166Y23425D01*
G01X19149Y23429D01*
G01X19134Y23433D01*
G01X19121Y23438D01*
G01X19109Y23443D01*
G01X19100Y23448D01*
G01X19092Y23453D01*
G01X19086Y23459D01*
G01X19082Y23465D01*
G01X19080Y23471D01*
G01X19079Y23478D01*
G01X19076Y23509D01*
G01X19068Y23521D01*
G01X19054Y23513D01*
G01X19033Y23485D01*
G01X19029Y23480D01*
G01X19023Y23476D01*
G01X19016Y23471D01*
G01X19007Y23467D01*
G01X18997Y23463D01*
G01X18971Y23455D01*
G01X18955Y23451D01*
G01X18938Y23448D01*
G01X18920Y23444D01*
G01X18900Y23441D01*
G01X18879Y23438D01*
G01X18856Y23435D01*
G01X18806Y23429D01*
G01X18778Y23427D01*
G01X18750Y23424D01*
G01X18720Y23422D01*
G01X18689Y23420D01*
G01X18656Y23418D01*
G01X18622Y23416D01*
G01X18587Y23415D01*
G01X18550Y23413D01*
G01X18512Y23412D01*
G01X18473Y23411D01*
G01X18433Y23410D01*
G01X18392Y23409D01*
G01X18349Y23409D01*
G01X18312Y23408D01*
G01X18275Y23408D01*
G01X18238Y23407D01*
G01X18202Y23407D01*
G01X18167Y23406D01*
G01X18099Y23404D01*
G01X18066Y23404D01*
G01X18034Y23403D01*
G01X17974Y23401D01*
G01X17945Y23400D01*
G01X17917Y23398D01*
G01X17891Y23397D01*
G01X17866Y23396D01*
G01X17842Y23395D01*
G01X17820Y23394D01*
G01X17799Y23392D01*
G01X17780Y23391D01*
G01X17762Y23390D01*
G01X17746Y23388D01*
G01X17732Y23387D01*
G01X17719Y23386D01*
G01X17709Y23384D01*
G01X17700Y23383D01*
G01X17693Y23381D01*
G01X17689Y23380D01*
G01X17686Y23378D01*
G01X17684Y23375D01*
G01X17682Y23369D01*
G01X17680Y23360D01*
G01X17677Y23349D01*
G01X17674Y23335D01*
G01X17671Y23319D01*
G01X17668Y23301D01*
G01X17665Y23280D01*
G01X17662Y23258D01*
G01X17659Y23234D01*
G01X17655Y23208D01*
G01X17652Y23181D01*
G01X17649Y23152D01*
G01X17645Y23122D01*
G01X17642Y23091D01*
G01X17639Y23058D01*
G01X17635Y23025D01*
G01X17632Y22991D01*
G01X17629Y22956D01*
G01X17626Y22920D01*
G01X17622Y22870D01*
G01X17618Y22823D01*
G01X17615Y22780D01*
G01X17612Y22741D01*
G01X17610Y22706D01*
G01X17608Y22673D01*
G01X17608Y22594D01*
G01X17610Y22572D01*
G01X17612Y22553D01*
G01X17616Y22536D01*
G01X17620Y22520D01*
G01X17625Y22506D01*
G01X17632Y22494D01*
G01X17639Y22483D01*
G01X17648Y22473D01*
G01X17658Y22464D01*
G01X17669Y22455D01*
G01X17681Y22447D01*
G01X17695Y22439D01*
G01X17710Y22431D01*
G01X17727Y22423D01*
G01X17745Y22415D01*
G01X17758Y22409D01*
G01X17782Y22397D01*
G01X17804Y22385D01*
G01X17826Y22371D01*
G01X17846Y22357D01*
G01X17856Y22349D01*
G01X17874Y22333D01*
G01X17891Y22316D01*
G01X17907Y22296D01*
G01X17914Y22286D01*
G01X17928Y22264D01*
G01X17935Y22252D01*
G01X17941Y22240D01*
G01X17948Y22227D01*
G01X17953Y22213D01*
G01X17959Y22199D01*
G01X17965Y22184D01*
G01X17975Y22152D01*
G01X17980Y22134D01*
G01X17984Y22117D01*
G01X17989Y22098D01*
G01X17997Y22058D01*
G01X18000Y22037D01*
G01X18004Y22014D01*
G01X18007Y21991D01*
G01X18011Y21967D01*
G01X18014Y21942D01*
G01X18017Y21916D01*
G01X18019Y21889D01*
G01X18022Y21861D01*
G01X18025Y21832D01*
G01X18027Y21802D01*
G01X18031Y21738D01*
G01X18033Y21704D01*
G01X18035Y21669D01*
G01X18037Y21633D01*
G01X18038Y21595D01*
G01X18040Y21556D01*
G01X18041Y21516D01*
G01X18043Y21475D01*
G01X18044Y21432D01*
G01X18045Y21388D01*
G01X18046Y21343D01*
G01X18048Y21247D01*
G01X18049Y21197D01*
G01X18050Y21146D01*
G01X18051Y21093D01*
G01X18052Y21038D01*
G01X18067Y19995D01*
G01X18420Y19977D01*
G01X18468Y19974D01*
G01X18511Y19972D01*
G01X18550Y19971D01*
G01X18585Y19970D01*
G01X18616Y19970D01*
G01X18645Y19971D01*
G01X18670Y19973D01*
G01X18692Y19976D01*
G01X18712Y19979D01*
G01X18730Y19984D01*
G01X18745Y19990D01*
G01X18759Y19998D01*
G01X18771Y20007D01*
G01X18782Y20017D01*
G01X18792Y20029D01*
G01X18801Y20042D01*
G01X18809Y20058D01*
G01X18817Y20075D01*
G01X18825Y20094D01*
G01X18833Y20114D01*
G01X18846Y20146D01*
G01X18862Y20175D01*
G01X18878Y20202D01*
G01X18895Y20225D01*
G01X18912Y20244D01*
G01X18929Y20259D01*
G01X18945Y20268D01*
G01X18959Y20271D01*
G01X18965Y20271D01*
G01X18973Y20269D01*
G01X18983Y20267D01*
G01X18996Y20264D01*
G01X19011Y20261D01*
G01X19027Y20257D01*
G01X19046Y20252D01*
G01X19066Y20246D01*
G01X19088Y20240D01*
G01X19111Y20233D01*
G01X19136Y20226D01*
G01X19163Y20218D01*
G01X19191Y20210D01*
G01X19220Y20201D01*
G01X19250Y20192D01*
G01X19281Y20182D01*
G01X19314Y20172D01*
G01X19347Y20161D01*
G01X19415Y20139D01*
G01X19451Y20127D01*
G01X19486Y20116D01*
G01X19523Y20103D01*
G01X19592Y20080D01*
G01X19624Y20070D01*
G01X19656Y20059D01*
G01X19688Y20049D01*
G01X19781Y20019D01*
G01X19871Y19992D01*
G01X19900Y19983D01*
G01X19930Y19974D01*
G01X19958Y19966D01*
G01X19987Y19958D01*
G01X20043Y19942D01*
G01X20071Y19935D01*
G01X20098Y19927D01*
G01X20125Y19920D01*
G01X20152Y19914D01*
G01X20178Y19907D01*
G01X20205Y19901D01*
G01X20231Y19895D01*
G01X20282Y19883D01*
G01X20307Y19877D01*
G01X20357Y19867D01*
G01X20405Y19857D01*
G01X20477Y19845D01*
G01X20546Y19833D01*
G01X20569Y19830D01*
G01X20591Y19827D01*
G01X20613Y19825D01*
G01X20657Y19819D01*
G01X20701Y19815D01*
G01X20722Y19813D01*
G01X20743Y19812D01*
G01X20764Y19810D01*
G01X20785Y19809D01*
G01X20805Y19808D01*
G01X20826Y19807D01*
G01X20846Y19807D01*
G01X20866Y19806D01*
G01X20945Y19806D01*
G01X20965Y19807D01*
G01X20984Y19808D01*
G01X21003Y19808D01*
G01X21022Y19810D01*
G01X21041Y19811D01*
G01X21060Y19813D01*
G01X21078Y19814D01*
G01X21097Y19816D01*
G01X21133Y19820D01*
G01X21170Y19826D01*
G01X21188Y19828D01*
G01X21206Y19831D01*
G01X21224Y19835D01*
G01X21241Y19838D01*
G01X21259Y19842D01*
G01X21288Y19848D01*
G01X21346Y19862D01*
G01X21375Y19870D01*
G01X21404Y19879D01*
G01X21460Y19897D01*
G01X21514Y19917D01*
G01X21564Y19937D01*
G01X21588Y19948D01*
G01X21610Y19958D01*
G01X21632Y19969D01*
G01X21651Y19980D01*
G01X21670Y19990D01*
G01X21686Y20001D01*
G01X21701Y20011D01*
G01X21714Y20021D01*
G01X21724Y20031D01*
G01X21750Y20055D01*
G01X21776Y20077D01*
G01X21803Y20097D01*
G01X21830Y20114D01*
G01X21856Y20128D01*
G01X21880Y20139D01*
G01X21902Y20146D01*
G01X21920Y20148D01*
G01X21939Y20150D01*
G01X21962Y20156D01*
G01X21988Y20165D01*
G01X22016Y20177D01*
G01X22047Y20192D01*
G01X22078Y20208D01*
G01X22108Y20226D01*
G01X22138Y20246D01*
G01X22153Y20257D01*
G01X22169Y20270D01*
G01X22186Y20284D01*
G01X22222Y20316D01*
G01X22241Y20334D01*
G01X22280Y20373D01*
G01X22320Y20415D01*
G01X22340Y20438D01*
G01X22382Y20484D01*
G01X22402Y20508D01*
G01X22423Y20533D01*
G01X22444Y20557D01*
G01X22504Y20632D01*
G01X22542Y20682D01*
G01X22560Y20707D01*
G01X22578Y20731D01*
G01X22595Y20755D01*
G01X22612Y20778D01*
G01X22628Y20801D01*
G01X22656Y20845D01*
G01X22669Y20865D01*
G01X22681Y20885D01*
G01X22692Y20904D01*
G01X22702Y20921D01*
G01X22710Y20938D01*
G01X22717Y20953D01*
G01X22723Y20967D01*
G01X22727Y20979D01*
G01X22730Y20990D01*
G01X22731Y21000D01*
G01X22730Y21007D01*
G01X22728Y21013D01*
G01X22720Y21035D01*
G01X22724Y21052D01*
G01X22738Y21064D01*
G01X22786Y21074D01*
G01X22800Y21087D01*
G01X22802Y21107D01*
G01X22793Y21130D01*
G01X22784Y21154D01*
G01X22786Y21174D01*
G01X22800Y21187D01*
G01X22823Y21192D01*
G01X22833Y21194D01*
G01X22845Y21200D01*
G01X22857Y21209D01*
G01X22870Y21222D01*
G01X22884Y21239D01*
G01X22899Y21257D01*
G01X22914Y21279D01*
G01X22928Y21303D01*
G01X22943Y21329D01*
G01X22958Y21356D01*
G01X22972Y21385D01*
G01X22985Y21415D01*
G01X23003Y21459D01*
G01X23017Y21497D01*
G01X23029Y21530D01*
G01X23037Y21559D01*
G01X23042Y21584D01*
G01X23045Y21606D01*
G01X23044Y21625D01*
G01X23041Y21641D01*
G01X23034Y21656D01*
G01X23025Y21668D01*
G01X23012Y21680D01*
G01X22997Y21691D01*
G01X22971Y21706D01*
G01X22948Y21719D01*
G01X22926Y21729D01*
G01X22907Y21735D01*
G01X22889Y21739D01*
G01X22872Y21740D01*
G01X22857Y21738D01*
G01X22842Y21733D01*
G01X22829Y21725D01*
G01X22817Y21714D01*
G01X22805Y21700D01*
G01X22793Y21683D01*
G01X22778Y21662D01*
G01X22762Y21645D01*
G01X22745Y21634D01*
G01X22728Y21626D01*
G01X22711Y21623D01*
G01X22695Y21624D01*
G01X22680Y21629D01*
G01X22667Y21639D01*
G01X22656Y21652D01*
G01X22647Y21669D01*
G01X22642Y21689D01*
G01X22640Y21713D01*
G01X22642Y21734D01*
G01X22650Y21752D01*
G01X22663Y21768D01*
G01X22681Y21781D01*
G01X22703Y21792D01*
G01X22730Y21799D01*
G01X22760Y21804D01*
G01X22795Y21806D01*
G01X22827Y21807D01*
G01X22858Y21813D01*
G01X22888Y21821D01*
G01X22915Y21832D01*
G01X22939Y21846D01*
G01X22960Y21862D01*
G01X22975Y21879D01*
G01X22986Y21897D01*
G01X23004Y21930D01*
G01X23028Y21951D01*
G01X23055Y21959D01*
G01X23082Y21951D01*
G01X23094Y21945D01*
G01X23102Y21943D01*
G01X23108Y21945D01*
G01X23111Y21950D01*
G01X23111Y21958D01*
G01X23108Y21969D01*
G01X23103Y21983D01*
G01X23097Y21999D01*
G01X23088Y22016D01*
G01X23077Y22035D01*
G01X23065Y22055D01*
G01X23052Y22076D01*
G01X23038Y22097D01*
G01X23022Y22119D01*
G01X23006Y22140D01*
G01X22989Y22161D01*
G01X22972Y22181D01*
G01X22955Y22199D01*
G01X22938Y22216D01*
G01X22921Y22231D01*
G01X22894Y22252D01*
G01X22870Y22266D01*
G01X22848Y22274D01*
G01X22826Y22275D01*
G01X22805Y22269D01*
G01X22782Y22257D01*
G01X22757Y22237D01*
G01X22729Y22211D01*
G01X22709Y22191D01*
G01X22691Y22174D01*
G01X22675Y22159D01*
G01X22660Y22146D01*
G01X22647Y22137D01*
G01X22636Y22129D01*
G01X22625Y22124D01*
G01X22616Y22122D01*
G01X22609Y22123D01*
G01X22602Y22127D01*
G01X22596Y22133D01*
G01X22592Y22143D01*
G01X22588Y22155D01*
G01X22585Y22171D01*
G01X22582Y22190D01*
G01X22581Y22212D01*
G01X22580Y22238D01*
G01X22579Y22267D01*
G01X22578Y22299D01*
G01X22578Y22335D01*
G01X22579Y22376D01*
G01X22580Y22412D01*
G01X22582Y22442D01*
G01X22585Y22466D01*
G01X22589Y22485D01*
G01X22595Y22499D01*
G01X22601Y22508D01*
G01X22610Y22513D01*
G01X22620Y22513D01*
G01X22631Y22509D01*
G01X22645Y22501D01*
G01X22660Y22489D01*
G01X22676Y22478D01*
G01X22692Y22469D01*
G01X22708Y22462D01*
G01X22725Y22458D01*
G01X22742Y22457D01*
G01X22759Y22457D01*
G01X22776Y22460D01*
G01X22793Y22464D01*
G01X22809Y22471D01*
G01X22825Y22479D01*
G01X22840Y22489D01*
G01X22855Y22501D01*
G01X22869Y22514D01*
G01X22882Y22528D01*
G01X22893Y22544D01*
G01X22904Y22561D01*
G01X22914Y22579D01*
G01X22922Y22598D01*
G01X22929Y22619D01*
G01X22934Y22639D01*
G01X22938Y22661D01*
G01X22939Y22683D01*
G01X22939Y22706D01*
G01X22937Y22729D01*
G01X22932Y22753D01*
G01X22925Y22776D01*
G01X22916Y22797D01*
G01X22904Y22817D01*
G01X22891Y22835D01*
G01X22876Y22851D01*
G01X22860Y22865D01*
G01X22843Y22878D01*
G01X22825Y22888D01*
G01X22807Y22896D01*
G01X22788Y22902D01*
G01X22769Y22905D01*
G01X22750Y22906D01*
G01X22731Y22905D01*
G01X22712Y22901D01*
G01X22695Y22895D01*
G01X22678Y22886D01*
G01X22662Y22874D01*
G01X22648Y22859D01*
G01X22635Y22841D01*
G01X22612Y22813D01*
G01X22587Y22797D01*
G01X22562Y22794D01*
G01X22541Y22804D01*
G01X22535Y22814D01*
G01X22532Y22826D01*
G01X22533Y22840D01*
G01X22537Y22855D01*
G01X22543Y22873D01*
G01X22552Y22891D01*
G01X22564Y22910D01*
G01X22577Y22930D01*
G01X22609Y22970D01*
G01X22627Y22989D01*
G01X22646Y23008D01*
G01X22665Y23026D01*
G01X22685Y23042D01*
G01X22705Y23057D01*
G01X22725Y23069D01*
G01X22744Y23080D01*
G01X22762Y23088D01*
G01X22780Y23093D01*
G01X22796Y23094D01*
G01X22809Y23096D01*
G01X22821Y23102D01*
G01X22834Y23112D01*
G01X22846Y23124D01*
G01X22858Y23140D01*
G01X22869Y23157D01*
G01X22880Y23177D01*
G01X22890Y23199D01*
G01X22908Y23245D01*
G01X22915Y23270D01*
G01X22921Y23295D01*
G01X22926Y23320D01*
G01X22930Y23344D01*
G01X22932Y23368D01*
G01X22932Y23391D01*
G01X22931Y23412D01*
G01X22928Y23431D01*
G01X22923Y23449D01*
G01X22915Y23463D01*
G01X22905Y23474D01*
G01X22888Y23483D01*
G01X22867Y23489D01*
G01X22841Y23493D01*
G01X22812Y23495D01*
G01X22780Y23495D01*
G01X22746Y23492D01*
G01X22712Y23486D01*
G01X22679Y23480D01*
G01X22651Y23476D01*
G01X22627Y23474D01*
G01X22606Y23475D01*
G01X22589Y23477D01*
G01X22575Y23482D01*
G01X22564Y23490D01*
G01X22556Y23501D01*
G01X22550Y23515D01*
G01X22546Y23532D01*
G01X22544Y23552D01*
G01X22543Y23576D01*
G01X22544Y23598D01*
G01X22548Y23618D01*
G01X22554Y23636D01*
G01X22563Y23652D01*
G01X22574Y23667D01*
G01X22589Y23681D01*
G01X22606Y23693D01*
G01X22628Y23704D01*
G01X22652Y23713D01*
G01X22680Y23722D01*
G01X22712Y23730D01*
G01X22748Y23738D01*
G01X22789Y23746D01*
G01X22824Y23754D01*
G01X22853Y23763D01*
G01X22876Y23772D01*
G01X22895Y23782D01*
G01X22909Y23793D01*
G01X22919Y23807D01*
G01X22924Y23822D01*
G01X22926Y23840D01*
G01X22924Y23860D01*
G01X22919Y23884D01*
G01X22912Y23911D01*
G01X22902Y23944D01*
G01X22891Y23973D01*
G01X22881Y24000D01*
G01X22858Y24046D01*
G01X22845Y24065D01*
G01X22832Y24082D01*
G01X22818Y24097D01*
G01X22803Y24109D01*
G01X22786Y24120D01*
G01X22768Y24129D01*
G01X22748Y24137D01*
G01X22726Y24143D01*
G01X22702Y24148D01*
G01X22677Y24151D01*
G01X22649Y24154D01*
G01X22629Y24157D01*
G01X22610Y24161D01*
G01X22593Y24167D01*
G01X22578Y24175D01*
G01X22564Y24185D01*
G01X22552Y24195D01*
G01X22542Y24207D01*
G01X22533Y24219D01*
G01X22526Y24232D01*
G01X22521Y24246D01*
G01X22517Y24259D01*
G01X22515Y24273D01*
G01X22515Y24287D01*
G01X22517Y24301D01*
G01X22520Y24314D01*
G01X22525Y24327D01*
G01X22541Y24349D01*
G01X22552Y24359D01*
G01X22565Y24367D01*
G01X22579Y24374D01*
G01X22595Y24379D01*
G01X22613Y24382D01*
G01X22633Y24383D01*
G01X22654Y24385D01*
G01X22674Y24388D01*
G01X22693Y24395D01*
G01X22711Y24403D01*
G01X22728Y24414D01*
G01X22743Y24427D01*
G01X22758Y24443D01*
G01X22771Y24460D01*
G01X22783Y24479D01*
G01X22793Y24500D01*
G01X22802Y24523D01*
G01X22810Y24547D01*
G01X22816Y24573D01*
G01X22820Y24600D01*
G01X22823Y24629D01*
G01X22824Y24660D01*
G01X22820Y24677D01*
G01X22809Y24695D01*
G01X22792Y24712D01*
G01X22770Y24730D01*
G01X22742Y24746D01*
G01X22711Y24760D01*
G01X22677Y24772D01*
G01X22640Y24782D01*
G01X22613Y24789D01*
G01X22588Y24798D01*
G01X22565Y24807D01*
G01X22544Y24818D01*
G01X22525Y24830D01*
G01X22509Y24843D01*
G01X22494Y24857D01*
G01X22481Y24872D01*
G01X22471Y24886D01*
G01X22463Y24902D01*
G01X22457Y24917D01*
G01X22453Y24933D01*
G01X22451Y24948D01*
G01X22452Y24963D01*
G01X22455Y24978D01*
G01X22460Y24992D01*
G01X22468Y25006D01*
G01X22478Y25019D01*
G01X22490Y25030D01*
G01X22505Y25041D01*
G01X22522Y25050D01*
G01X22542Y25058D01*
G01X22564Y25065D01*
G01X22589Y25069D01*
G01X22613Y25074D01*
G01X22636Y25079D01*
G01X22656Y25085D01*
G01X22674Y25093D01*
G01X22690Y25101D01*
G01X22704Y25109D01*
G01X22716Y25119D01*
G01X22725Y25129D01*
G01X22733Y25140D01*
G01X22738Y25152D01*
G01X22741Y25164D01*
G01X22742Y25177D01*
G01X22740Y25190D01*
G01X22737Y25203D01*
G01X22731Y25217D01*
G01X22724Y25231D01*
G01X22714Y25246D01*
G01X22702Y25260D01*
G01X22687Y25275D01*
G01X22671Y25290D01*
G01X22652Y25305D01*
G01X22632Y25320D01*
G01X22609Y25335D01*
G01X22584Y25350D01*
G01X22558Y25365D01*
G01X22510Y25399D01*
G01X22468Y25435D01*
G01X22450Y25454D01*
G01X22434Y25472D01*
G01X22421Y25490D01*
G01X22410Y25507D01*
G01X22401Y25524D01*
G01X22396Y25539D01*
G01X22395Y25553D01*
G01X22394Y25564D01*
G01X22391Y25577D01*
G01X22387Y25590D01*
G01X22382Y25604D01*
G01X22375Y25619D01*
G01X22367Y25635D01*
G01X22357Y25651D01*
G01X22346Y25667D01*
G01X22334Y25684D01*
G01X22321Y25702D01*
G01X22307Y25719D01*
G01X22291Y25737D01*
G01X22275Y25756D01*
G01X22258Y25774D01*
G01X22240Y25793D01*
G01X22202Y25831D01*
G01X22182Y25850D01*
G01X22161Y25868D01*
G01X22139Y25887D01*
G01X22118Y25906D01*
G01X22095Y25924D01*
G01X22073Y25942D01*
G01X22050Y25960D01*
G01X22026Y25977D01*
G01X22003Y25994D01*
G01X21979Y26011D01*
G01X21955Y26027D01*
G01X21907Y26057D01*
G01X21884Y26071D01*
G01X21860Y26084D01*
G01X21837Y26097D01*
G01X21813Y26108D01*
G01X21790Y26119D01*
G01X21768Y26129D01*
G01X21731Y26144D01*
G01X21698Y26157D01*
G01X21669Y26168D01*
G01X21643Y26177D01*
G01X21621Y26184D01*
G01X21601Y26189D01*
G01X21583Y26192D01*
G01X21568Y26193D01*
G01X21554Y26192D01*
G01X21542Y26188D01*
G01X21531Y26183D01*
G01X21521Y26175D01*
G01X21512Y26165D01*
G01X21503Y26154D01*
G01X21494Y26140D01*
G01X21485Y26124D01*
G01X21479Y26112D01*
G01X21474Y26098D01*
G01X21469Y26083D01*
G01X21463Y26047D01*
G01X21461Y26027D01*
G01X21460Y26006D01*
G01X21459Y25984D01*
G01X21460Y25961D01*
G01X21461Y25937D01*
G01X21463Y25912D01*
G01X21469Y25860D01*
G01X21473Y25833D01*
G01X21478Y25806D01*
G01X21484Y25778D01*
G01X21491Y25745D01*
G01X21497Y25712D01*
G01X21503Y25681D01*
G01X21507Y25651D01*
G01X21511Y25622D01*
G01X21513Y25596D01*
G01X21515Y25572D01*
G01X21516Y25551D01*
G01X21515Y25533D01*
G01X21513Y25518D01*
G01X21511Y25508D01*
G01X21507Y25501D01*
G01X21499Y25483D01*
G01X21500Y25458D01*
G01X21511Y25430D01*
G01X21530Y25402D01*
G01X21533Y25397D01*
G01X21537Y25391D01*
G01X21541Y25384D01*
G01X21544Y25376D01*
G01X21548Y25368D01*
G01X21552Y25358D01*
G01X21555Y25348D01*
G01X21559Y25337D01*
G01X21563Y25325D01*
G01X21566Y25312D01*
G01X21570Y25298D01*
G01X21574Y25283D01*
G01X21577Y25267D01*
G01X21581Y25251D01*
G01X21585Y25233D01*
G01X21588Y25214D01*
G01X21592Y25195D01*
G01X21595Y25174D01*
G01X21599Y25153D01*
G01X21603Y25130D01*
G01X21606Y25107D01*
G01X21610Y25083D01*
G01X21614Y25057D01*
G01X21617Y25031D01*
G01X21621Y25004D01*
G01X21624Y24975D01*
G01X21628Y24946D01*
G01X21632Y24916D01*
G01X21635Y24885D01*
G01X21643Y24819D01*
G01X21646Y24785D01*
G01X21654Y24713D01*
G01X21658Y24676D01*
G01X21661Y24637D01*
G01X21665Y24598D01*
G01X21669Y24557D01*
G01X21673Y24515D01*
G01X21676Y24473D01*
G01X21680Y24429D01*
G01X21684Y24384D01*
G01X21688Y24338D01*
G01X21692Y24291D01*
G01X21694Y24261D01*
G01X21697Y24230D01*
G01X21709Y24110D01*
G01X21712Y24081D01*
G01X21716Y24053D01*
G01X21719Y24026D01*
G01X21723Y24000D01*
G01X21726Y23974D01*
G01X21730Y23950D01*
G01X21733Y23927D01*
G01X21736Y23906D01*
G01X21740Y23886D01*
G01X21743Y23868D01*
G01X21746Y23852D01*
G01X21749Y23838D01*
G01X21752Y23826D01*
G01X21755Y23816D01*
G01X21761Y23793D01*
G01X21763Y23773D01*
G01X21762Y23755D01*
G01X21758Y23739D01*
G01X21751Y23726D01*
G01X21742Y23716D01*
G01X21730Y23710D01*
G01X21716Y23708D01*
G01X21697Y23707D01*
G01X21684Y23704D01*
G01X21676Y23698D01*
G01X21673Y23690D01*
G01X21676Y23678D01*
G01X21684Y23663D01*
G01X21696Y23644D01*
G01X21715Y23621D01*
G01X21722Y23611D01*
G01X21729Y23599D01*
G01X21736Y23584D01*
G01X21743Y23567D01*
G01X21749Y23548D01*
G01X21755Y23527D01*
G01X21760Y23505D01*
G01X21765Y23482D01*
G01X21770Y23457D01*
G01X21774Y23432D01*
G01X21778Y23406D01*
G01X21781Y23379D01*
G01X21783Y23351D01*
G01X21785Y23324D01*
G01X21787Y23268D01*
G01X21787Y22746D01*
G01X21786Y22718D01*
G01X21784Y22660D01*
G01X21782Y22606D01*
G01X21780Y22581D01*
G01X21779Y22558D01*
G01X21777Y22537D01*
G01X21775Y22519D01*
G01X21774Y22503D01*
G01X21769Y22473D01*
G01X21764Y22451D01*
G01X21758Y22438D01*
G01X21751Y22434D01*
G01X21741Y22438D01*
G01X21727Y22451D01*
G01X21710Y22472D01*
G01X21687Y22502D01*
G01X21672Y22521D01*
G01X21656Y22538D01*
G01X21640Y22551D01*
G01X21624Y22561D01*
G01X21610Y22567D01*
G01X21596Y22569D01*
G01X21584Y22568D01*
G01X21575Y22562D01*
G01X21559Y22556D01*
G01X21547Y22570D01*
G01X21538Y22602D01*
G01X21535Y22648D01*
G01X21537Y22676D01*
G01X21542Y22700D01*
G01X21550Y22721D01*
G01X21561Y22738D01*
G01X21576Y22751D01*
G01X21593Y22760D01*
G01X21613Y22765D01*
G01X21656Y22765D01*
G01X21677Y22768D01*
G01X21697Y22774D01*
G01X21715Y22782D01*
G01X21731Y22792D01*
G01X21745Y22804D01*
G01X21756Y22818D01*
G01X21764Y22834D01*
G01X21767Y22851D01*
G01X21764Y22866D01*
G01X21756Y22879D01*
G01X21742Y22890D01*
G01X21722Y22899D01*
G01X21697Y22905D01*
G01X21667Y22909D01*
G01X21632Y22910D01*
G01X21602Y22910D01*
G01X21576Y22908D01*
G01X21554Y22904D01*
G01X21534Y22898D01*
G01X21518Y22890D01*
G01X21505Y22880D01*
G01X21494Y22868D01*
G01X21486Y22853D01*
G01X21480Y22835D01*
G01X21476Y22813D01*
G01X21474Y22789D01*
G01X21473Y22760D01*
G01X21472Y22730D01*
G01X21469Y22699D01*
G01X21463Y22670D01*
G01X21455Y22644D01*
G01X21446Y22620D01*
G01X21436Y22599D01*
G01X21424Y22583D01*
G01X21412Y22573D01*
G01X21403Y22569D01*
G01X21395Y22570D01*
G01X21387Y22575D01*
G01X21380Y22583D01*
G01X21373Y22596D01*
G01X21368Y22612D01*
G01X21363Y22632D01*
G01X21358Y22655D01*
G01X21355Y22681D01*
G01X21353Y22711D01*
G01X21351Y22743D01*
G01X21351Y22813D01*
G01X21353Y22846D01*
G01X21357Y22877D01*
G01X21361Y22907D01*
G01X21366Y22936D01*
G01X21373Y22961D01*
G01X21380Y22985D01*
G01X21388Y23005D01*
G01X21397Y23023D01*
G01X21407Y23037D01*
G01X21417Y23047D01*
G01X21427Y23054D01*
G01X21459Y23071D01*
G01X21471Y23090D01*
G01X21463Y23111D01*
G01X21437Y23136D01*
G01X21433Y23140D01*
G01X21428Y23146D01*
G01X21424Y23155D01*
G01X21420Y23165D01*
G01X21411Y23192D01*
G01X21407Y23208D01*
G01X21403Y23226D01*
G01X21398Y23246D01*
G01X21394Y23267D01*
G01X21389Y23290D01*
G01X21385Y23314D01*
G01X21381Y23340D01*
G01X21376Y23367D01*
G01X21368Y23425D01*
G01X21364Y23456D01*
G01X21360Y23488D01*
G01X21356Y23521D01*
G01X21352Y23555D01*
G01X21349Y23590D01*
G01X21345Y23625D01*
G01X21342Y23662D01*
G01X21338Y23699D01*
G01X21335Y23736D01*
G01X21332Y23774D01*
G01X21329Y23813D01*
G01X21327Y23852D01*
G01X21326Y23872D01*
G01X21324Y23892D01*
G01X21323Y23913D01*
G01X21321Y23934D01*
G01X21315Y24000D01*
G01X21309Y24069D01*
G01X21306Y24093D01*
G01X21304Y24117D01*
G01X21301Y24141D01*
G01X21299Y24166D01*
G01X21296Y24190D01*
G01X21293Y24215D01*
G01X21290Y24241D01*
G01X21287Y24266D01*
G01X21284Y24292D01*
G01X21281Y24317D01*
G01X21277Y24343D01*
G01X21271Y24395D01*
G01X21267Y24422D01*
G01X21264Y24448D01*
G01X21260Y24474D01*
G01X21256Y24501D01*
G01X21253Y24527D01*
G01X21249Y24554D01*
G01X21245Y24580D01*
G01X21241Y24607D01*
G01X21229Y24686D01*
G01X21225Y24712D01*
G01X21221Y24739D01*
G01X21213Y24791D01*
G01X21208Y24816D01*
G01X21204Y24842D01*
G01X21200Y24867D01*
G01X21196Y24893D01*
G01X21191Y24918D01*
G01X21187Y24943D01*
G01X21178Y24991D01*
G01X21174Y25015D01*
G01X21169Y25039D01*
G01X21165Y25063D01*
G01X21160Y25086D01*
G01X21156Y25108D01*
G01X21151Y25131D01*
G01X21143Y25175D01*
G01X21138Y25196D01*
G01X21134Y25217D01*
G01X21125Y25258D01*
G01X21107Y25338D01*
G01X21091Y25416D01*
G01X21075Y25490D01*
G01X21067Y25526D01*
G01X21060Y25561D01*
G01X21053Y25595D01*
G01X21039Y25659D01*
G01X21033Y25689D01*
G01X21027Y25718D01*
G01X21021Y25746D01*
G01X21016Y25772D01*
G01X21011Y25796D01*
G01X21006Y25819D01*
G01X21002Y25840D01*
G01X20998Y25860D01*
G01X20994Y25877D01*
G01X20991Y25893D01*
G01X20989Y25907D01*
G01X20986Y25918D01*
G01X20985Y25928D01*
G01X20984Y25935D01*
G01X20983Y25940D01*
G01X20982Y25943D01*
G01X20985Y25949D01*
G01X20993Y25955D01*
G01X21006Y25962D01*
G01X21023Y25968D01*
G01X21044Y25974D01*
G01X21067Y25980D01*
G01X21093Y25986D01*
G01X21121Y25990D01*
G01X21148Y25996D01*
G01X21174Y26004D01*
G01X21197Y26014D01*
G01X21216Y26027D01*
G01X21232Y26040D01*
G01X21244Y26055D01*
G01X21251Y26071D01*
G01X21253Y26086D01*
G01X21252Y26096D01*
G01X21251Y26107D01*
G01X21250Y26122D01*
G01X21249Y26138D01*
G01X21249Y26156D01*
G01X21247Y26198D01*
G01X21246Y26222D01*
G01X21244Y26246D01*
G01X21243Y26272D01*
G01X21241Y26326D01*
G01X21240Y26354D01*
G01X21238Y26411D01*
G01X21237Y26439D01*
G01X21228Y26715D01*
G37*

%LPC*%
G36*
G01X21634Y21899D02*
G01X21629Y21900D01*
G01X21623Y21895D01*
G01X21617Y21882D01*
G01X21611Y21865D01*
G01X21607Y21846D01*
G01X21605Y21826D01*
G01X21604Y21806D01*
G01X21605Y21785D01*
G01X21607Y21764D01*
G01X21611Y21746D01*
G01X21617Y21729D01*
G01X21623Y21717D01*
G01X21629Y21711D01*
G01X21634Y21712D01*
G01X21639Y21720D01*
G01X21643Y21733D01*
G01X21645Y21752D01*
G01X21647Y21776D01*
G01X21648Y21806D01*
G01X21647Y21835D01*
G01X21645Y21859D01*
G01X21643Y21878D01*
G01X21639Y21891D01*
G01X21634Y21899D01*
G37*
G36*
G01X21633Y22228D02*
G01X21620Y22235D01*
G01X21611Y22228D01*
G01X21603Y22208D01*
G01X21598Y22179D01*
G01X21596Y22143D01*
G01X21601Y22107D01*
G01X21614Y22078D01*
G01X21633Y22058D01*
G01X21656Y22051D01*
G01X21676Y22058D01*
G01X21687Y22078D01*
G01X21689Y22107D01*
G01X21680Y22143D01*
G01X21664Y22179D01*
G01X21648Y22208D01*
G01X21633Y22228D01*
G37*
G36*
G01X21034Y26327D02*
G01X21025Y26329D01*
G01X21017Y26326D01*
G01X21011Y26317D01*
G01X21006Y26302D01*
G01X21002Y26283D01*
G01X20998Y26257D01*
G01X20993Y26226D01*
G01X20989Y26199D01*
G01X20987Y26172D01*
G01X20986Y26146D01*
G01X20986Y26123D01*
G01X20988Y26102D01*
G01X20991Y26085D01*
G01X20994Y26073D01*
G01X20999Y26064D01*
G01X21018Y26057D01*
G01X21049Y26057D01*
G01X21087Y26064D01*
G01X21130Y26077D01*
G01X21152Y26086D01*
G01X21170Y26094D01*
G01X21184Y26102D01*
G01X21193Y26110D01*
G01X21199Y26119D01*
G01X21201Y26130D01*
G01X21198Y26141D01*
G01X21192Y26155D01*
G01X21181Y26171D01*
G01X21166Y26190D01*
G01X21147Y26213D01*
G01X21123Y26239D01*
G01X21098Y26267D01*
G01X21077Y26290D01*
G01X21059Y26308D01*
G01X21045Y26320D01*
G01X21034Y26327D01*
G37*

%LPD*%
G36*
G01X25238Y26346D02*
G01X25214Y26347D01*
G01X25193Y26346D01*
G01X25174Y26344D01*
G01X25158Y26339D01*
G01X25144Y26332D01*
G01X25131Y26322D01*
G01X25121Y26311D01*
G01X25113Y26296D01*
G01X25106Y26279D01*
G01X25101Y26260D01*
G01X25097Y26237D01*
G01X25095Y26211D01*
G01X25095Y26116D01*
G01X25097Y26092D01*
G01X25099Y26074D01*
G01X25102Y26063D01*
G01X25107Y26057D01*
G01X25114Y26057D01*
G01X25123Y26062D01*
G01X25134Y26073D01*
G01X25148Y26089D01*
G01X25165Y26110D01*
G01X25185Y26136D01*
G01X25193Y26147D01*
G01X25201Y26157D01*
G01X25222Y26184D01*
G01X25228Y26191D01*
G01X25234Y26197D01*
G01X25239Y26203D01*
G01X25244Y26208D01*
G01X25252Y26214D01*
G01X25256Y26216D01*
G01X25261Y26216D01*
G01X25265Y26212D01*
G01X25266Y26208D01*
G01X25267Y26202D01*
G01X25267Y26196D01*
G01X25266Y26188D01*
G01X25266Y26178D01*
G01X25264Y26168D01*
G01X25262Y26155D01*
G01X25260Y26141D01*
G01X25257Y26126D01*
G01X25253Y26109D01*
G01X25249Y26090D01*
G01X25244Y26070D01*
G01X25239Y26048D01*
G01X25234Y26024D01*
G01X25227Y25998D01*
G01X25220Y25971D01*
G01X25213Y25941D01*
G01X25205Y25910D01*
G01X25196Y25877D01*
G01X25187Y25841D01*
G01X25177Y25804D01*
G01X25166Y25764D01*
G01X25155Y25723D01*
G01X25144Y25679D01*
G01X25131Y25633D01*
G01X25118Y25585D01*
G01X25105Y25534D01*
G01X25090Y25481D01*
G01X25084Y25457D01*
G01X25070Y25407D01*
G01X25064Y25382D01*
G01X25057Y25356D01*
G01X25050Y25331D01*
G01X25043Y25304D01*
G01X25029Y25252D01*
G01X25001Y25144D01*
G01X24994Y25116D01*
G01X24987Y25089D01*
G01X24979Y25062D01*
G01X24972Y25034D01*
G01X24965Y25007D01*
G01X24958Y24979D01*
G01X24944Y24925D01*
G01X24930Y24870D01*
G01X24923Y24843D01*
G01X24909Y24790D01*
G01X24896Y24737D01*
G01X24889Y24711D01*
G01X24883Y24685D01*
G01X24876Y24659D01*
G01X24864Y24609D01*
G01X24846Y24537D01*
G01X24834Y24491D01*
G01X24829Y24468D01*
G01X24823Y24446D01*
G01X24813Y24404D01*
G01X24803Y24364D01*
G01X24798Y24345D01*
G01X24794Y24326D01*
G01X24790Y24308D01*
G01X24786Y24291D01*
G01X24770Y24224D01*
G01X24761Y24190D01*
G01X24753Y24156D01*
G01X24737Y24090D01*
G01X24730Y24058D01*
G01X24714Y23994D01*
G01X24707Y23964D01*
G01X24692Y23905D01*
G01X24685Y23877D01*
G01X24679Y23851D01*
G01X24672Y23825D01*
G01X24666Y23801D01*
G01X24660Y23778D01*
G01X24655Y23757D01*
G01X24650Y23737D01*
G01X24645Y23719D01*
G01X24641Y23703D01*
G01X24637Y23689D01*
G01X24633Y23677D01*
G01X24630Y23666D01*
G01X24623Y23644D01*
G01X24614Y23624D01*
G01X24604Y23608D01*
G01X24593Y23593D01*
G01X24581Y23582D01*
G01X24569Y23574D01*
G01X24556Y23568D01*
G01X24542Y23565D01*
G01X24529Y23564D01*
G01X24515Y23566D01*
G01X24501Y23570D01*
G01X24487Y23577D01*
G01X24474Y23587D01*
G01X24461Y23599D01*
G01X24448Y23613D01*
G01X24436Y23630D01*
G01X24425Y23649D01*
G01X24415Y23671D01*
G01X24406Y23695D01*
G01X24398Y23721D01*
G01X24391Y23746D01*
G01X24383Y23767D01*
G01X24374Y23784D01*
G01X24363Y23798D01*
G01X24350Y23809D01*
G01X24335Y23817D01*
G01X24317Y23822D01*
G01X24295Y23824D01*
G01X24270Y23823D01*
G01X24240Y23821D01*
G01X24206Y23815D01*
G01X24167Y23808D01*
G01X24146Y23804D01*
G01X24123Y23802D01*
G01X24099Y23800D01*
G01X24050Y23800D01*
G01X24025Y23801D01*
G01X23999Y23803D01*
G01X23973Y23806D01*
G01X23921Y23814D01*
G01X23895Y23819D01*
G01X23845Y23831D01*
G01X23821Y23838D01*
G01X23797Y23846D01*
G01X23774Y23854D01*
G01X23753Y23862D01*
G01X23732Y23871D01*
G01X23713Y23880D01*
G01X23695Y23890D01*
G01X23679Y23899D01*
G01X23665Y23909D01*
G01X23652Y23920D01*
G01X23642Y23930D01*
G01X23633Y23941D01*
G01X23627Y23951D01*
G01X23623Y23962D01*
G01X23622Y23972D01*
G01X23617Y23989D01*
G01X23604Y23996D01*
G01X23584Y23995D01*
G01X23560Y23984D01*
G01X23554Y23978D01*
G01X23548Y23969D01*
G01X23542Y23955D01*
G01X23536Y23939D01*
G01X23531Y23919D01*
G01X23526Y23896D01*
G01X23521Y23871D01*
G01X23517Y23843D01*
G01X23513Y23812D01*
G01X23509Y23780D01*
G01X23506Y23746D01*
G01X23504Y23710D01*
G01X23502Y23673D01*
G01X23500Y23635D01*
G01X23499Y23595D01*
G01X23499Y23491D01*
G01X23500Y23461D01*
G01X23502Y23405D01*
G01X23506Y23355D01*
G01X23509Y23332D01*
G01X23512Y23310D01*
G01X23515Y23289D01*
G01X23519Y23270D01*
G01X23524Y23251D01*
G01X23529Y23234D01*
G01X23535Y23218D01*
G01X23541Y23204D01*
G01X23548Y23190D01*
G01X23556Y23177D01*
G01X23574Y23155D01*
G01X23584Y23145D01*
G01X23606Y23129D01*
G01X23619Y23122D01*
G01X23632Y23116D01*
G01X23646Y23112D01*
G01X23662Y23107D01*
G01X23678Y23104D01*
G01X23695Y23102D01*
G01X23713Y23100D01*
G01X23733Y23099D01*
G01X23775Y23099D01*
G01X23797Y23100D01*
G01X23821Y23102D01*
G01X23846Y23104D01*
G01X23872Y23107D01*
G01X23928Y23115D01*
G01X23958Y23120D01*
G01X23990Y23125D01*
G01X24015Y23129D01*
G01X24093Y23138D01*
G01X24119Y23140D01*
G01X24145Y23141D01*
G01X24195Y23143D01*
G01X24219Y23143D01*
G01X24242Y23142D01*
G01X24264Y23141D01*
G01X24304Y23137D01*
G01X24321Y23134D01*
G01X24337Y23131D01*
G01X24350Y23128D01*
G01X24374Y23119D01*
G01X24395Y23110D01*
G01X24411Y23100D01*
G01X24424Y23089D01*
G01X24433Y23075D01*
G01X24439Y23058D01*
G01X24442Y23038D01*
G01X24441Y23014D01*
G01X24437Y22985D01*
G01X24430Y22951D01*
G01X24420Y22910D01*
G01X24407Y22864D01*
G01X24399Y22836D01*
G01X24390Y22808D01*
G01X24370Y22756D01*
G01X24348Y22708D01*
G01X24335Y22686D01*
G01X24323Y22664D01*
G01X24295Y22624D01*
G01X24281Y22606D01*
G01X24266Y22589D01*
G01X24251Y22573D01*
G01X24236Y22558D01*
G01X24220Y22544D01*
G01X24203Y22532D01*
G01X24187Y22521D01*
G01X24153Y22503D01*
G01X24135Y22496D01*
G01X24099Y22486D01*
G01X24081Y22484D01*
G01X24063Y22483D01*
G01X24035Y22487D01*
G01X24017Y22499D01*
G01X24012Y22518D01*
G01X24021Y22542D01*
G01X24030Y22559D01*
G01X24034Y22574D01*
G01X24033Y22585D01*
G01X24029Y22593D01*
G01X24020Y22598D01*
G01X24008Y22600D01*
G01X23992Y22599D01*
G01X23974Y22595D01*
G01X23952Y22588D01*
G01X23928Y22578D01*
G01X23902Y22564D01*
G01X23875Y22548D01*
G01X23859Y22536D01*
G01X23845Y22521D01*
G01X23835Y22505D01*
G01X23828Y22489D01*
G01X23825Y22471D01*
G01X23825Y22454D01*
G01X23828Y22437D01*
G01X23835Y22421D01*
G01X23844Y22403D01*
G01X23847Y22389D01*
G01X23844Y22377D01*
G01X23834Y22368D01*
G01X23819Y22362D01*
G01X23798Y22358D01*
G01X23770Y22358D01*
G01X23736Y22359D01*
G01X23720Y22361D01*
G01X23705Y22362D01*
G01X23690Y22364D01*
G01X23662Y22366D01*
G01X23648Y22368D01*
G01X23622Y22370D01*
G01X23598Y22372D01*
G01X23587Y22372D01*
G01X23576Y22373D01*
G01X23545Y22373D01*
G01X23536Y22372D01*
G01X23526Y22371D01*
G01X23518Y22370D01*
G01X23509Y22368D01*
G01X23501Y22366D01*
G01X23493Y22363D01*
G01X23479Y22357D01*
G01X23465Y22349D01*
G01X23459Y22344D01*
G01X23453Y22338D01*
G01X23448Y22332D01*
G01X23442Y22325D01*
G01X23437Y22318D01*
G01X23432Y22310D01*
G01X23428Y22301D01*
G01X23424Y22291D01*
G01X23419Y22281D01*
G01X23416Y22270D01*
G01X23412Y22258D01*
G01X23409Y22246D01*
G01X23405Y22232D01*
G01X23402Y22218D01*
G01X23400Y22203D01*
G01X23397Y22187D01*
G01X23395Y22170D01*
G01X23393Y22152D01*
G01X23391Y22133D01*
G01X23389Y22113D01*
G01X23387Y22092D01*
G01X23385Y22070D01*
G01X23384Y22047D01*
G01X23383Y22023D01*
G01X23381Y21971D01*
G01X23380Y21943D01*
G01X23379Y21914D01*
G01X23378Y21884D01*
G01X23378Y21853D01*
G01X23377Y21820D01*
G01X23377Y21751D01*
G01X23376Y21715D01*
G01X23376Y20872D01*
G01X23377Y20818D01*
G01X23377Y20668D01*
G01X23378Y20621D01*
G01X23378Y20533D01*
G01X23379Y20492D01*
G01X23379Y20452D01*
G01X23380Y20414D01*
G01X23381Y20377D01*
G01X23382Y20342D01*
G01X23382Y20308D01*
G01X23383Y20276D01*
G01X23384Y20245D01*
G01X23385Y20216D01*
G01X23386Y20188D01*
G01X23387Y20161D01*
G01X23389Y20136D01*
G01X23390Y20112D01*
G01X23392Y20089D01*
G01X23393Y20067D01*
G01X23395Y20047D01*
G01X23396Y20027D01*
G01X23398Y20009D01*
G01X23400Y19992D01*
G01X23402Y19976D01*
G01X23404Y19961D01*
G01X23407Y19946D01*
G01X23409Y19933D01*
G01X23411Y19921D01*
G01X23414Y19909D01*
G01X23420Y19889D01*
G01X23423Y19880D01*
G01X23429Y19864D01*
G01X23432Y19857D01*
G01X23436Y19851D01*
G01X23439Y19845D01*
G01X23447Y19835D01*
G01X23455Y19827D01*
G01X23459Y19825D01*
G01X23464Y19822D01*
G01X23468Y19819D01*
G01X23473Y19817D01*
G01X23481Y19815D01*
G01X23493Y19813D01*
G01X23509Y19811D01*
G01X23529Y19809D01*
G01X23553Y19807D01*
G01X23581Y19805D01*
G01X23596Y19804D01*
G01X23612Y19803D01*
G01X23629Y19802D01*
G01X23665Y19800D01*
G01X23705Y19798D01*
G01X23726Y19797D01*
G01X23747Y19797D01*
G01X23793Y19795D01*
G01X23841Y19793D01*
G01X23867Y19793D01*
G01X23892Y19792D01*
G01X23946Y19790D01*
G01X23974Y19789D01*
G01X24002Y19789D01*
G01X24031Y19788D01*
G01X24060Y19788D01*
G01X24090Y19787D01*
G01X24121Y19787D01*
G01X24152Y19786D01*
G01X24184Y19785D01*
G01X24216Y19785D01*
G01X24248Y19784D01*
G01X24281Y19784D01*
G01X24314Y19783D01*
G01X24382Y19783D01*
G01X24417Y19782D01*
G01X24487Y19782D01*
G01X24522Y19781D01*
G01X24667Y19781D01*
G01X24741Y19780D01*
G01X26138Y19780D01*
G01X26138Y20952D01*
G01X25960Y21014D01*
G01X25936Y21024D01*
G01X25914Y21033D01*
G01X25893Y21043D01*
G01X25874Y21053D01*
G01X25856Y21064D01*
G01X25840Y21076D01*
G01X25825Y21088D01*
G01X25811Y21102D01*
G01X25799Y21116D01*
G01X25788Y21131D01*
G01X25779Y21147D01*
G01X25770Y21164D01*
G01X25764Y21182D01*
G01X25758Y21201D01*
G01X25754Y21222D01*
G01X25751Y21244D01*
G01X25749Y21267D01*
G01X25748Y21291D01*
G01X25748Y21317D01*
G01X25750Y21344D01*
G01X25753Y21372D01*
G01X25756Y21402D01*
G01X25761Y21434D01*
G01X25767Y21468D01*
G01X25801Y21652D01*
G01X26304Y21670D01*
G01X26359Y21672D01*
G01X26410Y21673D01*
G01X26457Y21675D01*
G01X26500Y21675D01*
G01X26540Y21676D01*
G01X26577Y21676D01*
G01X26610Y21675D01*
G01X26641Y21674D01*
G01X26669Y21673D01*
G01X26694Y21670D01*
G01X26716Y21668D01*
G01X26737Y21664D01*
G01X26756Y21660D01*
G01X26772Y21655D01*
G01X26787Y21650D01*
G01X26813Y21636D01*
G01X26823Y21628D01*
G01X26833Y21619D01*
G01X26843Y21609D01*
G01X26851Y21598D01*
G01X26867Y21574D01*
G01X26875Y21560D01*
G01X26884Y21540D01*
G01X26892Y21519D01*
G01X26900Y21494D01*
G01X26907Y21468D01*
G01X26913Y21440D01*
G01X26918Y21412D01*
G01X26922Y21382D01*
G01X26926Y21322D01*
G01X26927Y21292D01*
G01X26926Y21263D01*
G01X26924Y21235D01*
G01X26921Y21206D01*
G01X26917Y21179D01*
G01X26913Y21155D01*
G01X26907Y21134D01*
G01X26901Y21115D01*
G01X26894Y21098D01*
G01X26885Y21083D01*
G01X26875Y21070D01*
G01X26863Y21058D01*
G01X26849Y21048D01*
G01X26833Y21039D01*
G01X26816Y21031D01*
G01X26796Y21024D01*
G01X26773Y21018D01*
G01X26749Y21013D01*
G01X26721Y21007D01*
G01X26537Y20976D01*
G01X26519Y20377D01*
G01X26502Y19777D01*
G01X28746Y19811D01*
G01X28764Y20409D01*
G01X28766Y20468D01*
G01X28767Y20522D01*
G01X28768Y20573D01*
G01X28769Y20620D01*
G01X28770Y20663D01*
G01X28771Y20703D01*
G01X28771Y20774D01*
G01X28770Y20805D01*
G01X28769Y20833D01*
G01X28768Y20858D01*
G01X28766Y20881D01*
G01X28764Y20902D01*
G01X28761Y20920D01*
G01X28758Y20936D01*
G01X28754Y20949D01*
G01X28750Y20961D01*
G01X28745Y20972D01*
G01X28739Y20980D01*
G01X28733Y20987D01*
G01X28726Y20993D01*
G01X28719Y20998D01*
G01X28711Y21001D01*
G01X28702Y21004D01*
G01X28692Y21006D01*
G01X28682Y21007D01*
G01X28671Y21007D01*
G01X28659Y21008D01*
G01X28642Y21008D01*
G01X28625Y21010D01*
G01X28609Y21014D01*
G01X28592Y21018D01*
G01X28575Y21024D01*
G01X28558Y21031D01*
G01X28542Y21039D01*
G01X28525Y21049D01*
G01X28509Y21059D01*
G01X28492Y21071D01*
G01X28476Y21084D01*
G01X28460Y21098D01*
G01X28444Y21113D01*
G01X28429Y21130D01*
G01X28413Y21147D01*
G01X28398Y21165D01*
G01X28368Y21205D01*
G01X28353Y21227D01*
G01X28339Y21249D01*
G01X28311Y21297D01*
G01X28298Y21322D01*
G01X28285Y21348D01*
G01X28272Y21375D01*
G01X28260Y21403D01*
G01X28248Y21432D01*
G01X28236Y21462D01*
G01X28225Y21492D01*
G01X28214Y21523D01*
G01X28204Y21555D01*
G01X28194Y21588D01*
G01X28193Y21593D01*
G01X28189Y21605D01*
G01X28183Y21626D01*
G01X28181Y21635D01*
G01X28178Y21643D01*
G01X28176Y21652D01*
G01X28170Y21672D01*
G01X28168Y21683D01*
G01X28165Y21694D01*
G01X28161Y21706D01*
G01X28155Y21730D01*
G01X28151Y21743D01*
G01X28148Y21756D01*
G01X28140Y21784D01*
G01X28128Y21829D01*
G01X28124Y21845D01*
G01X28119Y21862D01*
G01X28115Y21878D01*
G01X28110Y21895D01*
G01X28105Y21913D01*
G01X28101Y21931D01*
G01X28096Y21949D01*
G01X28086Y21987D01*
G01X28080Y22006D01*
G01X28070Y22046D01*
G01X28064Y22067D01*
G01X28059Y22088D01*
G01X28053Y22109D01*
G01X28047Y22131D01*
G01X28042Y22153D01*
G01X28030Y22197D01*
G01X28024Y22220D01*
G01X28017Y22244D01*
G01X28011Y22267D01*
G01X28005Y22291D01*
G01X27998Y22315D01*
G01X27992Y22340D01*
G01X27985Y22364D01*
G01X27979Y22390D01*
G01X27972Y22415D01*
G01X27951Y22493D01*
G01X27937Y22546D01*
G01X27923Y22600D01*
G01X27916Y22628D01*
G01X27908Y22656D01*
G01X27894Y22712D01*
G01X27886Y22741D01*
G01X27871Y22798D01*
G01X27863Y22827D01*
G01X27856Y22857D01*
G01X27848Y22887D01*
G01X27840Y22916D01*
G01X27832Y22946D01*
G01X27824Y22977D01*
G01X27816Y23007D01*
G01X27784Y23131D01*
G01X27775Y23162D01*
G01X27767Y23194D01*
G01X27759Y23225D01*
G01X27751Y23257D01*
G01X27742Y23289D01*
G01X27725Y23353D01*
G01X27717Y23386D01*
G01X27708Y23418D01*
G01X27700Y23451D01*
G01X27691Y23484D01*
G01X27665Y23583D01*
G01X27657Y23616D01*
G01X27648Y23649D01*
G01X27639Y23683D01*
G01X27630Y23716D01*
G01X27622Y23750D01*
G01X27595Y23852D01*
G01X27586Y23885D01*
G01X27577Y23919D01*
G01X27569Y23954D01*
G01X27542Y24056D01*
G01X26980Y26214D01*
G01X26360Y26220D01*
G01X26322Y26220D01*
G01X26285Y26221D01*
G01X26249Y26221D01*
G01X26213Y26222D01*
G01X26178Y26223D01*
G01X26145Y26225D01*
G01X26112Y26226D01*
G01X26080Y26228D01*
G01X26049Y26230D01*
G01X26019Y26232D01*
G01X25990Y26234D01*
G01X25962Y26236D01*
G01X25936Y26238D01*
G01X25911Y26240D01*
G01X25887Y26243D01*
G01X25864Y26246D01*
G01X25843Y26249D01*
G01X25823Y26252D01*
G01X25805Y26255D01*
G01X25789Y26258D01*
G01X25774Y26261D01*
G01X25761Y26264D01*
G01X25749Y26268D01*
G01X25739Y26271D01*
G01X25725Y26278D01*
G01X25721Y26282D01*
G01X25719Y26286D01*
G01X25706Y26310D01*
G01X25687Y26329D01*
G01X25663Y26342D01*
G01X25638Y26347D01*
G01X25618Y26342D01*
G01X25607Y26329D01*
G01X25606Y26310D01*
G01X25621Y26274D01*
G01X25621Y26262D01*
G01X25616Y26252D01*
G01X25607Y26243D01*
G01X25594Y26235D01*
G01X25576Y26229D01*
G01X25555Y26226D01*
G01X25532Y26225D01*
G01X25506Y26226D01*
G01X25481Y26229D01*
G01X25457Y26235D01*
G01X25434Y26243D01*
G01X25413Y26252D01*
G01X25395Y26262D01*
G01X25381Y26274D01*
G01X25361Y26298D01*
G01X25347Y26310D01*
G01X25329Y26320D01*
G01X25309Y26329D01*
G01X25287Y26337D01*
G01X25263Y26342D01*
G01X25238Y26346D01*
G37*

%LPC*%
G36*
G01X26792Y20880D02*
G01X26779Y20885D01*
G01X26768Y20880D01*
G01X26760Y20867D01*
G01X26754Y20847D01*
G01X26752Y20824D01*
G01X26757Y20800D01*
G01X26771Y20780D01*
G01X26792Y20767D01*
G01X26817Y20762D01*
G01X26839Y20767D01*
G01X26852Y20780D01*
G01X26853Y20800D01*
G01X26844Y20824D01*
G01X26827Y20847D01*
G01X26809Y20867D01*
G01X26792Y20880D01*
G37*
G36*
G01X26385Y23645D02*
G01X26381Y23647D01*
G01X26378Y23645D01*
G01X26373Y23641D01*
G01X26363Y23626D01*
G01X26358Y23614D01*
G01X26352Y23600D01*
G01X26346Y23584D01*
G01X26339Y23567D01*
G01X26332Y23547D01*
G01X26325Y23525D01*
G01X26318Y23502D01*
G01X26310Y23477D01*
G01X26302Y23450D01*
G01X26295Y23422D01*
G01X26287Y23393D01*
G01X26279Y23363D01*
G01X26271Y23332D01*
G01X26263Y23299D01*
G01X26256Y23266D01*
G01X26248Y23232D01*
G01X26241Y23198D01*
G01X26227Y23132D01*
G01X26215Y23068D01*
G01X26209Y23037D01*
G01X26199Y22979D01*
G01X26195Y22952D01*
G01X26191Y22926D01*
G01X26188Y22902D01*
G01X26185Y22880D01*
G01X26183Y22859D01*
G01X26181Y22840D01*
G01X26179Y22823D01*
G01X26179Y22785D01*
G01X26180Y22777D01*
G01X26182Y22772D01*
G01X26190Y22762D01*
G01X26202Y22753D01*
G01X26218Y22745D01*
G01X26237Y22739D01*
G01X26259Y22734D01*
G01X26283Y22730D01*
G01X26308Y22728D01*
G01X26335Y22726D01*
G01X26362Y22726D01*
G01X26390Y22728D01*
G01X26417Y22730D01*
G01X26443Y22733D01*
G01X26468Y22738D01*
G01X26492Y22743D01*
G01X26513Y22749D01*
G01X26531Y22757D01*
G01X26547Y22765D01*
G01X26558Y22775D01*
G01X26565Y22785D01*
G01X26568Y22796D01*
G01X26567Y22811D01*
G01X26566Y22829D01*
G01X26565Y22849D01*
G01X26563Y22871D01*
G01X26560Y22894D01*
G01X26556Y22919D01*
G01X26553Y22945D01*
G01X26549Y22973D01*
G01X26544Y23002D01*
G01X26539Y23032D01*
G01X26533Y23062D01*
G01X26528Y23093D01*
G01X26516Y23157D01*
G01X26509Y23189D01*
G01X26496Y23254D01*
G01X26482Y23318D01*
G01X26475Y23349D01*
G01X26461Y23409D01*
G01X26447Y23465D01*
G01X26440Y23491D01*
G01X26433Y23515D01*
G01X26427Y23538D01*
G01X26420Y23559D01*
G01X26414Y23579D01*
G01X26408Y23596D01*
G01X26403Y23611D01*
G01X26398Y23623D01*
G01X26389Y23641D01*
G01X26385Y23645D01*
G37*
G36*
G01X24015Y23701D02*
G01X23992Y23708D01*
G01X23972Y23701D01*
G01X23960Y23681D01*
G01X23959Y23652D01*
G01X23968Y23616D01*
G01X23983Y23580D01*
G01X24000Y23551D01*
G01X24015Y23531D01*
G01X24027Y23524D01*
G01X24037Y23531D01*
G01X24044Y23551D01*
G01X24049Y23580D01*
G01X24051Y23616D01*
G01X24047Y23652D01*
G01X24034Y23681D01*
G01X24015Y23701D01*
G37*
G36*
G01X25608Y24810D02*
G01X25596Y24810D01*
G01X25582Y24807D01*
G01X25565Y24802D01*
G01X25546Y24795D01*
G01X25526Y24785D01*
G01X25504Y24773D01*
G01X25480Y24759D01*
G01X25455Y24742D01*
G01X25429Y24723D01*
G01X25413Y24711D01*
G01X25400Y24700D01*
G01X25389Y24690D01*
G01X25380Y24682D01*
G01X25373Y24674D01*
G01X25369Y24667D01*
G01X25368Y24661D01*
G01X25369Y24656D01*
G01X25373Y24651D01*
G01X25381Y24647D01*
G01X25391Y24644D01*
G01X25405Y24641D01*
G01X25422Y24639D01*
G01X25443Y24637D01*
G01X25467Y24636D01*
G01X25495Y24635D01*
G01X25647Y24635D01*
G01X25688Y24636D01*
G01X25726Y24636D01*
G01X25759Y24638D01*
G01X25789Y24639D01*
G01X25816Y24641D01*
G01X25838Y24643D01*
G01X25857Y24646D01*
G01X25872Y24649D01*
G01X25884Y24652D01*
G01X25891Y24656D01*
G01X25895Y24660D01*
G01X25896Y24664D01*
G01X25893Y24669D01*
G01X25886Y24674D01*
G01X25876Y24680D01*
G01X25862Y24686D01*
G01X25835Y24695D01*
G01X25807Y24702D01*
G01X25778Y24707D01*
G01X25750Y24711D01*
G01X25722Y24712D01*
G01X25696Y24711D01*
G01X25672Y24707D01*
G01X25652Y24702D01*
G01X25618Y24693D01*
G01X25600Y24697D01*
G01X25597Y24713D01*
G01X25610Y24741D01*
G01X25620Y24759D01*
G01X25626Y24773D01*
G01X25628Y24786D01*
G01X25628Y24796D01*
G01X25624Y24803D01*
G01X25617Y24808D01*
G01X25608Y24810D01*
G37*
G36*
G01X26409Y24931D02*
G01X26387Y24936D01*
G01X26362Y24931D01*
G01X26341Y24918D01*
G01X26327Y24898D01*
G01X26322Y24874D01*
G01X26324Y24850D01*
G01X26330Y24831D01*
G01X26339Y24818D01*
G01X26349Y24813D01*
G01X26363Y24818D01*
G01X26379Y24831D01*
G01X26397Y24850D01*
G01X26414Y24874D01*
G01X26424Y24898D01*
G01X26422Y24918D01*
G01X26409Y24931D01*
G37*
G36*
G01X26085Y25121D02*
G01X26063Y25121D01*
G01X26044Y25119D01*
G01X26029Y25114D01*
G01X26019Y25107D01*
G01X26015Y25096D01*
G01X26025Y25085D01*
G01X26051Y25070D01*
G01X26090Y25055D01*
G01X26138Y25041D01*
G01X26183Y25033D01*
G01X26215Y25034D01*
G01X26230Y25045D01*
G01X26227Y25064D01*
G01X26215Y25077D01*
G01X26199Y25088D01*
G01X26180Y25099D01*
G01X26157Y25107D01*
G01X26133Y25114D01*
G01X26109Y25118D01*
G01X26085Y25121D01*
G37*
G36*
G01X26884Y25137D02*
G01X26826Y25137D01*
G01X26794Y25136D01*
G01X26761Y25134D01*
G01X26727Y25131D01*
G01X26694Y25128D01*
G01X26661Y25124D01*
G01X26630Y25120D01*
G01X26601Y25115D01*
G01X26575Y25110D01*
G01X26552Y25105D01*
G01X26533Y25099D01*
G01X26518Y25093D01*
G01X26509Y25086D01*
G01X26506Y25080D01*
G01X26508Y25076D01*
G01X26515Y25073D01*
G01X26525Y25071D01*
G01X26539Y25069D01*
G01X26557Y25067D01*
G01X26577Y25065D01*
G01X26601Y25065D01*
G01X26626Y25064D01*
G01X26654Y25064D01*
G01X26684Y25065D01*
G01X26715Y25066D01*
G01X26781Y25070D01*
G01X26811Y25073D01*
G01X26840Y25076D01*
G01X26867Y25080D01*
G01X26891Y25084D01*
G01X26912Y25089D01*
G01X26930Y25094D01*
G01X26945Y25099D01*
G01X26957Y25104D01*
G01X26964Y25109D01*
G01X26968Y25114D01*
G01X26967Y25120D01*
G01X26960Y25125D01*
G01X26948Y25130D01*
G01X26930Y25133D01*
G01X26909Y25135D01*
G01X26884Y25137D01*
G37*
G36*
G01X25916Y25790D02*
G01X25893Y25795D01*
G01X25869Y25790D01*
G01X25849Y25777D01*
G01X25836Y25757D01*
G01X25831Y25734D01*
G01X25836Y25710D01*
G01X25849Y25690D01*
G01X25869Y25677D01*
G01X25893Y25672D01*
G01X25916Y25677D01*
G01X25936Y25690D01*
G01X25949Y25710D01*
G01X25954Y25734D01*
G01X25949Y25757D01*
G01X25936Y25777D01*
G01X25916Y25790D01*
G37*

%LPD*%
G36*
G01X19239Y19769D02*
G01X19220Y19770D01*
G01X19184Y19768D01*
G01X19166Y19765D01*
G01X19148Y19761D01*
G01X19130Y19756D01*
G01X19111Y19750D01*
G01X19092Y19743D01*
G01X19072Y19734D01*
G01X19051Y19724D01*
G01X19029Y19714D01*
G01X19005Y19702D01*
G01X18979Y19688D01*
G01X18963Y19680D01*
G01X18946Y19673D01*
G01X18927Y19666D01*
G01X18907Y19658D01*
G01X18887Y19652D01*
G01X18865Y19646D01*
G01X18842Y19640D01*
G01X18818Y19634D01*
G01X18794Y19629D01*
G01X18769Y19625D01*
G01X18743Y19620D01*
G01X18717Y19616D01*
G01X18690Y19612D01*
G01X18606Y19603D01*
G01X18519Y19597D01*
G01X18490Y19596D01*
G01X18460Y19595D01*
G01X18431Y19594D01*
G01X18343Y19594D01*
G01X18285Y19596D01*
G01X18256Y19598D01*
G01X18228Y19599D01*
G01X18201Y19602D01*
G01X18173Y19604D01*
G01X18095Y19613D01*
G01X18070Y19617D01*
G01X18047Y19621D01*
G01X18023Y19626D01*
G01X18001Y19631D01*
G01X17980Y19636D01*
G01X17960Y19642D01*
G01X17941Y19647D01*
G01X17923Y19654D01*
G01X17906Y19660D01*
G01X17890Y19667D01*
G01X17876Y19674D01*
G01X17863Y19682D01*
G01X17852Y19689D01*
G01X17842Y19698D01*
G01X17826Y19711D01*
G01X17812Y19723D01*
G01X17799Y19733D01*
G01X17786Y19742D01*
G01X17774Y19748D01*
G01X17761Y19752D01*
G01X17749Y19755D01*
G01X17737Y19755D01*
G01X17724Y19752D01*
G01X17711Y19748D01*
G01X17696Y19741D01*
G01X17681Y19731D01*
G01X17664Y19718D01*
G01X17645Y19703D01*
G01X17625Y19685D01*
G01X17603Y19664D01*
G01X17552Y19613D01*
G01X17522Y19582D01*
G01X17490Y19548D01*
G01X17473Y19530D01*
G01X17457Y19512D01*
G01X17440Y19493D01*
G01X17424Y19474D01*
G01X17408Y19454D01*
G01X17391Y19433D01*
G01X17375Y19413D01*
G01X17360Y19392D01*
G01X17344Y19371D01*
G01X17314Y19329D01*
G01X17300Y19307D01*
G01X17286Y19286D01*
G01X17273Y19266D01*
G01X17260Y19245D01*
G01X17248Y19225D01*
G01X17226Y19185D01*
G01X17216Y19166D01*
G01X17207Y19148D01*
G01X17199Y19130D01*
G01X17192Y19113D01*
G01X17185Y19097D01*
G01X17180Y19082D01*
G01X17176Y19069D01*
G01X17172Y19055D01*
G01X17168Y19042D01*
G01X17165Y19029D01*
G01X17162Y19015D01*
G01X17160Y19002D01*
G01X17157Y18988D01*
G01X17156Y18975D01*
G01X17154Y18961D01*
G01X17153Y18948D01*
G01X17153Y18892D01*
G01X17155Y18878D01*
G01X17156Y18864D01*
G01X17160Y18836D01*
G01X17163Y18822D01*
G01X17166Y18807D01*
G01X17174Y18777D01*
G01X17178Y18763D01*
G01X17183Y18747D01*
G01X17188Y18732D01*
G01X17194Y18717D01*
G01X17201Y18701D01*
G01X17207Y18685D01*
G01X17215Y18669D01*
G01X17222Y18653D01*
G01X17231Y18637D01*
G01X17239Y18620D01*
G01X17248Y18603D01*
G01X17268Y18569D01*
G01X17290Y18533D01*
G01X17314Y18497D01*
G01X17340Y18459D01*
G01X17354Y18440D01*
G01X17399Y18380D01*
G01X17415Y18360D01*
G01X17449Y18318D01*
G01X17485Y18274D01*
G01X17504Y18252D01*
G01X17564Y18183D01*
G01X17586Y18159D01*
G01X17607Y18135D01*
G01X17653Y18085D01*
G01X17677Y18060D01*
G01X17701Y18034D01*
G01X17726Y18007D01*
G01X17752Y17981D01*
G01X17778Y17953D01*
G01X17805Y17926D01*
G01X17832Y17897D01*
G01X17861Y17869D01*
G01X17889Y17839D01*
G01X17919Y17810D01*
G01X18011Y17718D01*
G01X18044Y17686D01*
G01X18078Y17653D01*
G01X18111Y17620D01*
G01X18175Y17558D01*
G01X18206Y17528D01*
G01X18236Y17500D01*
G01X18265Y17472D01*
G01X18293Y17445D01*
G01X18320Y17419D01*
G01X18347Y17394D01*
G01X18373Y17370D01*
G01X18399Y17347D01*
G01X18447Y17303D01*
G01X18471Y17283D01*
G01X18494Y17263D01*
G01X18516Y17244D01*
G01X18538Y17226D01*
G01X18559Y17208D01*
G01X18579Y17192D01*
G01X18600Y17176D01*
G01X18619Y17161D01*
G01X18639Y17147D01*
G01X18657Y17133D01*
G01X18676Y17120D01*
G01X18694Y17108D01*
G01X18712Y17097D01*
G01X18729Y17086D01*
G01X18763Y17066D01*
G01X18779Y17058D01*
G01X18796Y17049D01*
G01X18828Y17035D01*
G01X18843Y17029D01*
G01X18859Y17023D01*
G01X18889Y17013D01*
G01X18905Y17009D01*
G01X18950Y17000D01*
G01X18965Y16998D01*
G01X19010Y16995D01*
G01X19041Y16995D01*
G01X19057Y16996D01*
G01X19072Y16998D01*
G01X19088Y16999D01*
G01X19104Y17001D01*
G01X19121Y17004D01*
G01X19137Y17006D01*
G01X19154Y17010D01*
G01X19171Y17013D01*
G01X19225Y17025D01*
G01X19243Y17030D01*
G01X19254Y17033D01*
G01X19275Y17039D01*
G01X19286Y17042D01*
G01X19296Y17046D01*
G01X19307Y17050D01*
G01X19327Y17058D01*
G01X19338Y17062D01*
G01X19358Y17072D01*
G01X19369Y17077D01*
G01X19379Y17082D01*
G01X19390Y17088D01*
G01X19400Y17094D01*
G01X19433Y17115D01*
G01X19455Y17131D01*
G01X19467Y17139D01*
G01X19491Y17157D01*
G01X19515Y17177D01*
G01X19528Y17188D01*
G01X19554Y17212D01*
G01X19568Y17224D01*
G01X19582Y17237D01*
G01X19610Y17265D01*
G01X19641Y17295D01*
G01X19656Y17311D01*
G01X19672Y17328D01*
G01X19689Y17345D01*
G01X19706Y17363D01*
G01X19742Y17401D01*
G01X19760Y17422D01*
G01X19779Y17443D01*
G01X19799Y17464D01*
G01X19839Y17510D01*
G01X19861Y17534D01*
G01X19882Y17559D01*
G01X19928Y17611D01*
G01X19951Y17639D01*
G01X19976Y17667D01*
G01X20001Y17696D01*
G01X20026Y17727D01*
G01X20053Y17758D01*
G01X20080Y17790D01*
G01X20108Y17823D01*
G01X20136Y17857D01*
G01X20165Y17892D01*
G01X20195Y17927D01*
G01X20226Y17964D01*
G01X20258Y18002D01*
G01X20324Y18082D01*
G01X20358Y18123D01*
G01X20375Y18144D01*
G01X20393Y18165D01*
G01X20410Y18186D01*
G01X20428Y18207D01*
G01X20464Y18250D01*
G01X20501Y18293D01*
G01X20537Y18337D01*
G01X20556Y18358D01*
G01X20574Y18381D01*
G01X20649Y18468D01*
G01X20667Y18489D01*
G01X20686Y18511D01*
G01X20704Y18533D01*
G01X20723Y18554D01*
G01X20741Y18576D01*
G01X20760Y18597D01*
G01X20796Y18639D01*
G01X20815Y18660D01*
G01X20851Y18702D01*
G01X20869Y18722D01*
G01X20886Y18743D01*
G01X20904Y18763D01*
G01X20921Y18783D01*
G01X20938Y18802D01*
G01X20956Y18822D01*
G01X20972Y18841D01*
G01X20989Y18860D01*
G01X21006Y18878D01*
G01X21022Y18897D01*
G01X21038Y18914D01*
G01X21054Y18932D01*
G01X21069Y18950D01*
G01X21084Y18967D01*
G01X21099Y18983D01*
G01X21114Y19000D01*
G01X21129Y19016D01*
G01X21143Y19031D01*
G01X21156Y19046D01*
G01X21170Y19061D01*
G01X21196Y19089D01*
G01X21232Y19128D01*
G01X21243Y19140D01*
G01X21254Y19151D01*
G01X21264Y19162D01*
G01X21274Y19172D01*
G01X21605Y19516D01*
G01X21235Y19460D01*
G01X21217Y19458D01*
G01X21199Y19455D01*
G01X21161Y19451D01*
G01X21141Y19450D01*
G01X21121Y19448D01*
G01X21100Y19447D01*
G01X21078Y19446D01*
G01X21057Y19445D01*
G01X21035Y19444D01*
G01X21012Y19444D01*
G01X20989Y19443D01*
G01X20942Y19443D01*
G01X20918Y19444D01*
G01X20894Y19444D01*
G01X20794Y19448D01*
G01X20768Y19449D01*
G01X20716Y19453D01*
G01X20662Y19457D01*
G01X20636Y19459D01*
G01X20609Y19461D01*
G01X20581Y19464D01*
G01X20527Y19470D01*
G01X20499Y19473D01*
G01X20472Y19476D01*
G01X20444Y19479D01*
G01X20388Y19487D01*
G01X20361Y19491D01*
G01X20249Y19507D01*
G01X20194Y19517D01*
G01X20138Y19527D01*
G01X20084Y19537D01*
G01X20056Y19542D01*
G01X20029Y19548D01*
G01X20002Y19553D01*
G01X19976Y19559D01*
G01X19949Y19565D01*
G01X19923Y19571D01*
G01X19896Y19577D01*
G01X19870Y19583D01*
G01X19845Y19589D01*
G01X19819Y19596D01*
G01X19794Y19602D01*
G01X19769Y19609D01*
G01X19673Y19637D01*
G01X19627Y19651D01*
G01X19605Y19659D01*
G01X19583Y19666D01*
G01X19561Y19674D01*
G01X19540Y19681D01*
G01X19502Y19695D01*
G01X19467Y19708D01*
G01X19434Y19720D01*
G01X19403Y19730D01*
G01X19375Y19739D01*
G01X19349Y19747D01*
G01X19324Y19754D01*
G01X19301Y19759D01*
G01X19279Y19764D01*
G01X19258Y19767D01*
G01X19239Y19769D01*
G37*

%LPD*%
G36*
G01X29014Y19530D02*
G01X29000Y19530D01*
G01X28987Y19527D01*
G01X28975Y19521D01*
G01X28963Y19512D01*
G01X28951Y19501D01*
G01X28940Y19487D01*
G01X28929Y19470D01*
G01X28927Y19468D01*
G01X28921Y19464D01*
G01X28916Y19461D01*
G01X28911Y19459D01*
G01X28905Y19457D01*
G01X28891Y19453D01*
G01X28882Y19452D01*
G01X28873Y19450D01*
G01X28863Y19448D01*
G01X28852Y19446D01*
G01X28840Y19444D01*
G01X28828Y19443D01*
G01X28800Y19439D01*
G01X28785Y19438D01*
G01X28769Y19436D01*
G01X28753Y19435D01*
G01X28735Y19433D01*
G01X28717Y19432D01*
G01X28698Y19431D01*
G01X28678Y19430D01*
G01X28658Y19428D01*
G01X28614Y19426D01*
G01X28568Y19424D01*
G01X28518Y19422D01*
G01X28492Y19421D01*
G01X28465Y19420D01*
G01X28409Y19418D01*
G01X28379Y19418D01*
G01X28319Y19416D01*
G01X28287Y19416D01*
G01X28255Y19415D01*
G01X28222Y19414D01*
G01X28153Y19414D01*
G01X28118Y19413D01*
G01X28082Y19413D01*
G01X28045Y19412D01*
G01X27533Y19412D01*
G01X27505Y19413D01*
G01X27272Y19413D01*
G01X27213Y19414D01*
G01X26918Y19414D01*
G01X26888Y19415D01*
G01X26570Y19415D01*
G01X26542Y19416D01*
G01X25749Y19416D01*
G01X25732Y19415D01*
G01X25657Y19415D01*
G01X25022Y19412D01*
G01X25271Y19120D01*
G01X25282Y19107D01*
G01X25306Y19079D01*
G01X25319Y19065D01*
G01X25345Y19035D01*
G01X25359Y19020D01*
G01X25387Y18988D01*
G01X25402Y18972D01*
G01X25432Y18938D01*
G01X25464Y18904D01*
G01X25480Y18886D01*
G01X25497Y18868D01*
G01X25513Y18850D01*
G01X25530Y18831D01*
G01X25548Y18813D01*
G01X25565Y18794D01*
G01X25583Y18775D01*
G01X25601Y18755D01*
G01X25619Y18736D01*
G01X25695Y18656D01*
G01X25714Y18635D01*
G01X25734Y18614D01*
G01X25753Y18594D01*
G01X25813Y18531D01*
G01X25854Y18489D01*
G01X25875Y18467D01*
G01X25895Y18445D01*
G01X25916Y18424D01*
G01X25958Y18381D01*
G01X26021Y18315D01*
G01X26043Y18293D01*
G01X26064Y18271D01*
G01X26085Y18250D01*
G01X26107Y18227D01*
G01X26150Y18184D01*
G01X26171Y18162D01*
G01X26193Y18140D01*
G01X26214Y18118D01*
G01X26322Y18010D01*
G01X26364Y17967D01*
G01X26470Y17861D01*
G01X26491Y17841D01*
G01X26511Y17820D01*
G01X26532Y17800D01*
G01X26593Y17739D01*
G01X26613Y17720D01*
G01X26652Y17681D01*
G01X26691Y17643D01*
G01X26729Y17605D01*
G01X26767Y17569D01*
G01X26785Y17552D01*
G01X26803Y17534D01*
G01X26839Y17500D01*
G01X26856Y17483D01*
G01X26890Y17451D01*
G01X26906Y17435D01*
G01X26923Y17420D01*
G01X26939Y17405D01*
G01X26954Y17390D01*
G01X26970Y17376D01*
G01X26985Y17362D01*
G01X26999Y17348D01*
G01X27014Y17335D01*
G01X27042Y17309D01*
G01X27068Y17285D01*
G01X27081Y17274D01*
G01X27105Y17252D01*
G01X27116Y17242D01*
G01X27127Y17233D01*
G01X27138Y17223D01*
G01X27148Y17214D01*
G01X27158Y17206D01*
G01X27167Y17199D01*
G01X27176Y17191D01*
G01X27185Y17184D01*
G01X27193Y17178D01*
G01X27200Y17172D01*
G01X27207Y17167D01*
G01X27227Y17152D01*
G01X27247Y17138D01*
G01X27283Y17112D01*
G01X27301Y17100D01*
G01X27318Y17089D01*
G01X27335Y17079D01*
G01X27351Y17070D01*
G01X27368Y17061D01*
G01X27384Y17053D01*
G01X27401Y17045D01*
G01X27418Y17038D01*
G01X27452Y17026D01*
G01X27488Y17016D01*
G01X27507Y17012D01*
G01X27527Y17008D01*
G01X27548Y17004D01*
G01X27570Y17001D01*
G01X27593Y16999D01*
G01X27617Y16996D01*
G01X27642Y16995D01*
G01X27669Y16993D01*
G01X27697Y16992D01*
G01X27727Y16991D01*
G01X27758Y16990D01*
G01X27791Y16989D01*
G01X27826Y16989D01*
G01X27863Y16988D01*
G01X27944Y16988D01*
G01X27982Y16989D01*
G01X28055Y16989D01*
G01X28089Y16991D01*
G01X28155Y16993D01*
G01X28186Y16995D01*
G01X28216Y16997D01*
G01X28245Y16999D01*
G01X28273Y17002D01*
G01X28300Y17004D01*
G01X28326Y17008D01*
G01X28352Y17011D01*
G01X28376Y17014D01*
G01X28400Y17019D01*
G01X28423Y17023D01*
G01X28467Y17033D01*
G01X28488Y17038D01*
G01X28528Y17050D01*
G01X28547Y17056D01*
G01X28585Y17070D01*
G01X28603Y17078D01*
G01X28654Y17102D01*
G01X28698Y17126D01*
G01X28719Y17138D01*
G01X28740Y17151D01*
G01X28760Y17163D01*
G01X28781Y17176D01*
G01X28801Y17189D01*
G01X28821Y17203D01*
G01X28860Y17231D01*
G01X28879Y17245D01*
G01X28917Y17274D01*
G01X28971Y17319D01*
G01X28989Y17335D01*
G01X29040Y17383D01*
G01X29073Y17416D01*
G01X29089Y17433D01*
G01X29104Y17451D01*
G01X29120Y17468D01*
G01X29135Y17486D01*
G01X29150Y17503D01*
G01X29164Y17521D01*
G01X29179Y17539D01*
G01X29192Y17558D01*
G01X29206Y17577D01*
G01X29219Y17595D01*
G01X29232Y17614D01*
G01X29245Y17634D01*
G01X29258Y17653D01*
G01X29282Y17693D01*
G01X29315Y17753D01*
G01X29326Y17774D01*
G01X29336Y17795D01*
G01X29346Y17815D01*
G01X29356Y17837D01*
G01X29374Y17879D01*
G01X29383Y17901D01*
G01X29391Y17923D01*
G01X29418Y17998D01*
G01X29434Y18048D01*
G01X29455Y18123D01*
G01X29461Y18147D01*
G01X29473Y18197D01*
G01X29483Y18245D01*
G01X29487Y18270D01*
G01X29495Y18318D01*
G01X29501Y18366D01*
G01X29504Y18389D01*
G01X29508Y18437D01*
G01X29510Y18460D01*
G01X29511Y18483D01*
G01X29512Y18507D01*
G01X29512Y18576D01*
G01X29511Y18599D01*
G01X29510Y18621D01*
G01X29509Y18644D01*
G01X29507Y18666D01*
G01X29505Y18689D01*
G01X29503Y18711D01*
G01X29500Y18733D01*
G01X29496Y18755D01*
G01X29493Y18777D01*
G01X29489Y18799D01*
G01X29485Y18820D01*
G01X29480Y18842D01*
G01X29470Y18884D01*
G01X29458Y18926D01*
G01X29451Y18947D01*
G01X29445Y18967D01*
G01X29437Y18988D01*
G01X29430Y19008D01*
G01X29414Y19048D01*
G01X29396Y19088D01*
G01X29387Y19107D01*
G01X29377Y19127D01*
G01X29357Y19165D01*
G01X29346Y19184D01*
G01X29335Y19202D01*
G01X29323Y19221D01*
G01X29311Y19239D01*
G01X29299Y19258D01*
G01X29287Y19276D01*
G01X29274Y19293D01*
G01X29261Y19311D01*
G01X29247Y19328D01*
G01X29233Y19346D01*
G01X29219Y19363D01*
G01X29189Y19397D01*
G01X29164Y19424D01*
G01X29140Y19448D01*
G01X29118Y19468D01*
G01X29098Y19486D01*
G01X29079Y19501D01*
G01X29061Y19512D01*
G01X29044Y19521D01*
G01X29029Y19527D01*
G01X29014Y19530D01*
G37*

%LPC*%
G36*
G01X27994Y19041D02*
G01X27974Y19041D01*
G01X27953Y19040D01*
G01X27932Y19038D01*
G01X27911Y19035D01*
G01X27890Y19031D01*
G01X27870Y19026D01*
G01X27849Y19020D01*
G01X27828Y19013D01*
G01X27807Y19004D01*
G01X27785Y18995D01*
G01X27764Y18985D01*
G01X27743Y18974D01*
G01X27722Y18962D01*
G01X27680Y18934D01*
G01X27658Y18919D01*
G01X27616Y18885D01*
G01X27599Y18870D01*
G01X27584Y18856D01*
G01X27569Y18841D01*
G01X27541Y18809D01*
G01X27517Y18777D01*
G01X27506Y18760D01*
G01X27496Y18744D01*
G01X27486Y18726D01*
G01X27477Y18709D01*
G01X27469Y18692D01*
G01X27455Y18656D01*
G01X27449Y18638D01*
G01X27439Y18602D01*
G01X27435Y18583D01*
G01X27432Y18565D01*
G01X27429Y18546D01*
G01X27427Y18528D01*
G01X27426Y18509D01*
G01X27425Y18491D01*
G01X27425Y18472D01*
G01X27426Y18454D01*
G01X27427Y18435D01*
G01X27431Y18399D01*
G01X27434Y18380D01*
G01X27442Y18344D01*
G01X27447Y18327D01*
G01X27453Y18309D01*
G01X27459Y18292D01*
G01X27465Y18274D01*
G01X27473Y18257D01*
G01X27480Y18241D01*
G01X27489Y18224D01*
G01X27497Y18208D01*
G01X27517Y18176D01*
G01X27527Y18161D01*
G01X27538Y18146D01*
G01X27550Y18132D01*
G01X27562Y18117D01*
G01X27574Y18104D01*
G01X27587Y18090D01*
G01X27600Y18077D01*
G01X27614Y18065D01*
G01X27629Y18053D01*
G01X27659Y18031D01*
G01X27675Y18020D01*
G01X27691Y18010D01*
G01X27725Y17992D01*
G01X27742Y17984D01*
G01X27760Y17976D01*
G01X27779Y17970D01*
G01X27797Y17963D01*
G01X27817Y17958D01*
G01X27836Y17953D01*
G01X27856Y17949D01*
G01X27877Y17945D01*
G01X27897Y17942D01*
G01X27918Y17940D01*
G01X27940Y17939D01*
G01X27983Y17939D01*
G01X28025Y17943D01*
G01X28067Y17951D01*
G01X28109Y17963D01*
G01X28129Y17970D01*
G01X28150Y17978D01*
G01X28190Y17996D01*
G01X28209Y18007D01*
G01X28228Y18017D01*
G01X28247Y18029D01*
G01X28266Y18042D01*
G01X28302Y18068D01*
G01X28319Y18082D01*
G01X28336Y18097D01*
G01X28352Y18113D01*
G01X28368Y18128D01*
G01X28384Y18145D01*
G01X28398Y18161D01*
G01X28412Y18179D01*
G01X28426Y18196D01*
G01X28438Y18214D01*
G01X28451Y18233D01*
G01X28462Y18251D01*
G01X28482Y18289D01*
G01X28491Y18309D01*
G01X28507Y18349D01*
G01X28519Y18389D01*
G01X28523Y18409D01*
G01X28527Y18430D01*
G01X28530Y18450D01*
G01X28531Y18471D01*
G01X28532Y18491D01*
G01X28531Y18516D01*
G01X28529Y18540D01*
G01X28526Y18564D01*
G01X28521Y18588D01*
G01X28515Y18612D01*
G01X28507Y18635D01*
G01X28498Y18658D01*
G01X28488Y18681D01*
G01X28476Y18704D01*
G01X28463Y18727D01*
G01X28448Y18750D01*
G01X28432Y18773D01*
G01X28414Y18795D01*
G01X28395Y18818D01*
G01X28374Y18841D01*
G01X28352Y18864D01*
G01X28333Y18883D01*
G01X28295Y18917D01*
G01X28275Y18932D01*
G01X28256Y18947D01*
G01X28236Y18960D01*
G01X28216Y18972D01*
G01X28197Y18984D01*
G01X28177Y18994D01*
G01X28137Y19012D01*
G01X28117Y19019D01*
G01X28096Y19025D01*
G01X28056Y19035D01*
G01X28035Y19038D01*
G01X28015Y19040D01*
G01X27994Y19041D01*
G37*

%LPD*%
G54D36*
G01X38899Y13300D02*
G01X99Y13300D01*
G54D10*
G01X28899Y17400D02*
G01X35899Y17400D01*
G01X35899Y15400D01*
G01X34899Y15400D01*
G01X34899Y14400D01*
G01X33899Y13400D01*
G01X30899Y13400D01*
G01X29899Y14400D01*
G01X29899Y15400D01*
G01X28899Y15400D01*
G01X28899Y17400D01*
G01X13462Y16267D02*
G01X13462Y13945D01*
G01X11179Y13945D01*
G01X11179Y16267D01*
G01X13462Y16267D01*
G01X8462Y16267D02*
G01X8462Y13945D01*
G01X6179Y13945D01*
G01X6179Y16267D01*
G01X8462Y16267D01*
G01X18462Y16267D02*
G01X18462Y13945D01*
G01X16179Y13945D01*
G01X16179Y16267D01*
G01X18462Y16267D01*
G54D40*
G01X17099Y18205D02*
G01X17099Y17727D01*
G01X17099Y17955D02*
G01X17031Y18023D01*
G01X16985Y18045D01*
G01X16917Y18045D01*
G01X16872Y18023D01*
G01X16849Y17955D01*
G01X16849Y17727D01*
G01X16631Y18205D02*
G01X16631Y17818D01*
G01X16608Y17750D01*
G01X16563Y17727D01*
G01X16517Y17727D01*
G01X16699Y18045D02*
G01X16540Y18045D01*
G01X16299Y18205D02*
G01X16299Y17818D01*
G01X16276Y17750D01*
G01X16231Y17727D01*
G01X16185Y17727D01*
G01X16367Y18045D02*
G01X16208Y18045D01*
G01X16035Y18045D02*
G01X16035Y17568D01*
G01X16035Y17977D02*
G01X15990Y18023D01*
G01X15944Y18045D01*
G01X15876Y18045D01*
G01X15831Y18023D01*
G01X15785Y17977D01*
G01X15763Y17908D01*
G01X15763Y17864D01*
G01X15785Y17795D01*
G01X15831Y17750D01*
G01X15876Y17727D01*
G01X15944Y17727D01*
G01X15990Y17750D01*
G01X16035Y17795D01*
G01X15363Y17977D02*
G01X15385Y18023D01*
G01X15454Y18045D01*
G01X15522Y18045D01*
G01X15590Y18023D01*
G01X15613Y17977D01*
G01X15590Y17932D01*
G01X15544Y17908D01*
G01X15431Y17886D01*
G01X15385Y17864D01*
G01X15363Y17818D01*
G01X15363Y17795D01*
G01X15385Y17750D01*
G01X15454Y17727D01*
G01X15522Y17727D01*
G01X15590Y17750D01*
G01X15613Y17795D01*
G01X15190Y18000D02*
G01X15213Y17977D01*
G01X15190Y17955D01*
G01X15167Y17977D01*
G01X15190Y18000D01*
G01X15190Y17841D02*
G01X15213Y17818D01*
G01X15190Y17795D01*
G01X15167Y17818D01*
G01X15190Y17841D01*
G01X14608Y18295D02*
G01X15017Y17568D01*
G01X14049Y18295D02*
G01X14458Y17568D01*
G01X13626Y18045D02*
G01X13626Y17682D01*
G01X13649Y17614D01*
G01X13672Y17591D01*
G01X13717Y17568D01*
G01X13785Y17568D01*
G01X13831Y17591D01*
G01X13626Y17977D02*
G01X13672Y18023D01*
G01X13717Y18045D01*
G01X13785Y18045D01*
G01X13831Y18023D01*
G01X13876Y17977D01*
G01X13899Y17908D01*
G01X13899Y17864D01*
G01X13876Y17795D01*
G01X13831Y17750D01*
G01X13785Y17727D01*
G01X13717Y17727D01*
G01X13672Y17750D01*
G01X13626Y17795D01*
G01X13476Y18205D02*
G01X13454Y18182D01*
G01X13431Y18205D01*
G01X13454Y18227D01*
G01X13476Y18205D01*
G01X13454Y18045D02*
G01X13454Y17727D01*
G01X13213Y18205D02*
G01X13213Y17818D01*
G01X13190Y17750D01*
G01X13144Y17727D01*
G01X13099Y17727D01*
G01X13281Y18045D02*
G01X13122Y18045D01*
G01X12949Y18205D02*
G01X12949Y17727D01*
G01X12949Y17955D02*
G01X12881Y18023D01*
G01X12835Y18045D01*
G01X12767Y18045D01*
G01X12722Y18023D01*
G01X12699Y17955D01*
G01X12699Y17727D01*
G01X12549Y18045D02*
G01X12549Y17818D01*
G01X12526Y17750D01*
G01X12481Y17727D01*
G01X12413Y17727D01*
G01X12367Y17750D01*
G01X12299Y17818D01*
G01X12299Y18045D02*
G01X12299Y17727D01*
G01X12149Y18205D02*
G01X12149Y17727D01*
G01X12149Y17977D02*
G01X12104Y18023D01*
G01X12058Y18045D01*
G01X11990Y18045D01*
G01X11944Y18023D01*
G01X11899Y17977D01*
G01X11876Y17908D01*
G01X11876Y17864D01*
G01X11899Y17795D01*
G01X11944Y17750D01*
G01X11990Y17727D01*
G01X12058Y17727D01*
G01X12104Y17750D01*
G01X12149Y17795D01*
G01X11704Y17841D02*
G01X11726Y17818D01*
G01X11704Y17795D01*
G01X11681Y17818D01*
G01X11704Y17841D01*
G01X11258Y17977D02*
G01X11304Y18023D01*
G01X11349Y18045D01*
G01X11417Y18045D01*
G01X11463Y18023D01*
G01X11508Y17977D01*
G01X11531Y17908D01*
G01X11531Y17864D01*
G01X11508Y17795D01*
G01X11463Y17750D01*
G01X11417Y17727D01*
G01X11349Y17727D01*
G01X11304Y17750D01*
G01X11258Y17795D01*
G01X10994Y18045D02*
G01X11040Y18023D01*
G01X11085Y17977D01*
G01X11108Y17908D01*
G01X11108Y17864D01*
G01X11085Y17795D01*
G01X11040Y17750D01*
G01X10994Y17727D01*
G01X10926Y17727D01*
G01X10881Y17750D01*
G01X10835Y17795D01*
G01X10813Y17864D01*
G01X10813Y17908D01*
G01X10835Y17977D01*
G01X10881Y18023D01*
G01X10926Y18045D01*
G01X10994Y18045D01*
G01X10663Y18045D02*
G01X10663Y17727D01*
G01X10663Y17955D02*
G01X10594Y18023D01*
G01X10549Y18045D01*
G01X10481Y18045D01*
G01X10435Y18023D01*
G01X10413Y17955D01*
G01X10413Y17727D01*
G01X10413Y17955D02*
G01X10344Y18023D01*
G01X10299Y18045D01*
G01X10231Y18045D01*
G01X10185Y18023D01*
G01X10163Y17955D01*
G01X10163Y17727D01*
G01X9604Y18295D02*
G01X10013Y17568D01*
G01X9272Y18205D02*
G01X9454Y17727D01*
G01X9272Y18205D02*
G01X9090Y17727D01*
G01X9385Y17886D02*
G01X9158Y17886D01*
G01X8940Y18205D02*
G01X8940Y17727D01*
G01X8790Y17908D02*
G01X8517Y17908D01*
G01X8517Y17955D01*
G01X8540Y18000D01*
G01X8563Y18023D01*
G01X8608Y18045D01*
G01X8676Y18045D01*
G01X8722Y18023D01*
G01X8767Y17977D01*
G01X8790Y17908D01*
G01X8790Y17864D01*
G01X8767Y17795D01*
G01X8722Y17750D01*
G01X8676Y17727D01*
G01X8608Y17727D01*
G01X8563Y17750D01*
G01X8517Y17795D01*
G01X8367Y18045D02*
G01X8117Y17727D01*
G01X8117Y18045D02*
G01X8367Y17727D01*
G01X7626Y18091D02*
G01X7649Y18136D01*
G01X7694Y18182D01*
G01X7740Y18205D01*
G01X7831Y18205D01*
G01X7876Y18182D01*
G01X7922Y18136D01*
G01X7944Y18091D01*
G01X7967Y18023D01*
G01X7967Y17908D01*
G01X7944Y17841D01*
G01X7922Y17795D01*
G01X7876Y17750D01*
G01X7831Y17727D01*
G01X7740Y17727D01*
G01X7694Y17750D01*
G01X7649Y17795D01*
G01X7626Y17841D01*
G01X7626Y17908D01*
G01X7740Y17908D02*
G01X7626Y17908D01*
G01X7454Y18045D02*
G01X7317Y17727D01*
G01X7181Y18045D02*
G01X7317Y17727D01*
G01X7363Y17636D01*
G01X7408Y17591D01*
G01X7454Y17568D01*
G01X7476Y17568D01*
G01X7031Y18045D02*
G01X6894Y17727D01*
G01X6758Y18045D02*
G01X6894Y17727D01*
G01X6608Y17908D02*
G01X6335Y17908D01*
G01X6335Y17955D01*
G01X6358Y18000D01*
G01X6381Y18023D01*
G01X6426Y18045D01*
G01X6494Y18045D01*
G01X6540Y18023D01*
G01X6585Y17977D01*
G01X6608Y17908D01*
G01X6608Y17864D01*
G01X6585Y17795D01*
G01X6540Y17750D01*
G01X6494Y17727D01*
G01X6426Y17727D01*
G01X6381Y17750D01*
G01X6335Y17795D01*
G01X6185Y18045D02*
G01X6185Y17727D01*
G01X6185Y17908D02*
G01X6163Y17977D01*
G01X6117Y18023D01*
G01X6072Y18045D01*
G01X6004Y18045D01*
G01X5444Y18295D02*
G01X5854Y17568D01*
G01X5294Y18205D02*
G01X5294Y17727D01*
G01X5294Y18205D02*
G01X4976Y17727D01*
G01X4976Y18205D02*
G01X4976Y17727D01*
G01X4826Y18205D02*
G01X4804Y18182D01*
G01X4781Y18205D01*
G01X4804Y18227D01*
G01X4826Y18205D01*
G01X4804Y18045D02*
G01X4804Y17727D01*
G01X4631Y18045D02*
G01X4381Y17727D01*
G01X4381Y18045D02*
G01X4631Y17727D01*
G01X4231Y18205D02*
G01X4208Y18182D01*
G01X4185Y18205D01*
G01X4208Y18227D01*
G01X4231Y18205D01*
G01X4208Y18045D02*
G01X4208Y17727D01*
G01X4035Y17908D02*
G01X3763Y17908D01*
G01X3763Y17955D01*
G01X3785Y18000D01*
G01X3808Y18023D01*
G01X3854Y18045D01*
G01X3922Y18045D01*
G01X3967Y18023D01*
G01X4013Y17977D01*
G01X4035Y17908D01*
G01X4035Y17864D01*
G01X4013Y17795D01*
G01X3967Y17750D01*
G01X3922Y17727D01*
G01X3854Y17727D01*
G01X3808Y17750D01*
G01X3763Y17795D01*
G01X3272Y18091D02*
G01X3294Y18136D01*
G01X3340Y18182D01*
G01X3385Y18205D01*
G01X3476Y18205D01*
G01X3522Y18182D01*
G01X3567Y18136D01*
G01X3590Y18091D01*
G01X3613Y18023D01*
G01X3613Y17908D01*
G01X3590Y17841D01*
G01X3567Y17795D01*
G01X3522Y17750D01*
G01X3476Y17727D01*
G01X3385Y17727D01*
G01X3340Y17750D01*
G01X3294Y17795D01*
G01X3272Y17841D01*
G01X3122Y18205D02*
G01X3122Y17727D01*
G01X2858Y18045D02*
G01X2904Y18023D01*
G01X2949Y17977D01*
G01X2972Y17908D01*
G01X2972Y17864D01*
G01X2949Y17795D01*
G01X2904Y17750D01*
G01X2858Y17727D01*
G01X2790Y17727D01*
G01X2744Y17750D01*
G01X2699Y17795D01*
G01X2676Y17864D01*
G01X2676Y17908D01*
G01X2699Y17977D01*
G01X2744Y18023D01*
G01X2790Y18045D01*
G01X2858Y18045D01*
G01X2254Y17977D02*
G01X2299Y18023D01*
G01X2344Y18045D01*
G01X2413Y18045D01*
G01X2458Y18023D01*
G01X2504Y17977D01*
G01X2526Y17908D01*
G01X2526Y17864D01*
G01X2504Y17795D01*
G01X2458Y17750D01*
G01X2413Y17727D01*
G01X2344Y17727D01*
G01X2299Y17750D01*
G01X2254Y17795D01*
G01X2104Y18205D02*
G01X2104Y17727D01*
G01X1876Y18045D02*
G01X2104Y17818D01*
G01X2013Y17908D02*
G01X1854Y17727D01*
G01X1704Y17568D02*
G01X1294Y17568D01*
G01X1144Y18045D02*
G01X1008Y17727D01*
G01X872Y18045D02*
G01X1008Y17727D01*
G01X699Y18091D02*
G01X699Y18114D01*
G01X676Y18158D01*
G01X654Y18182D01*
G01X608Y18205D01*
G01X517Y18205D01*
G01X472Y18182D01*
G01X449Y18158D01*
G01X426Y18114D01*
G01X426Y18068D01*
G01X449Y18023D01*
G01X494Y17955D01*
G01X722Y17727D01*
G01X404Y17727D01*
G01X13299Y17304D02*
G01X13299Y16827D01*
G01X13299Y17054D02*
G01X13231Y17122D01*
G01X13186Y17145D01*
G01X13118Y17145D01*
G01X13072Y17122D01*
G01X13049Y17054D01*
G01X13049Y16827D01*
G01X12831Y17304D02*
G01X12831Y16918D01*
G01X12808Y16850D01*
G01X12763Y16827D01*
G01X12718Y16827D01*
G01X12899Y17145D02*
G01X12740Y17145D01*
G01X12499Y17304D02*
G01X12499Y16918D01*
G01X12477Y16850D01*
G01X12431Y16827D01*
G01X12386Y16827D01*
G01X12568Y17145D02*
G01X12408Y17145D01*
G01X12236Y17145D02*
G01X12236Y16668D01*
G01X12236Y17077D02*
G01X12190Y17122D01*
G01X12145Y17145D01*
G01X12077Y17145D01*
G01X12031Y17122D01*
G01X11986Y17077D01*
G01X11963Y17009D01*
G01X11963Y16963D01*
G01X11986Y16895D01*
G01X12031Y16850D01*
G01X12077Y16827D01*
G01X12145Y16827D01*
G01X12190Y16850D01*
G01X12236Y16895D01*
G01X11563Y17077D02*
G01X11586Y17122D01*
G01X11654Y17145D01*
G01X11722Y17145D01*
G01X11790Y17122D01*
G01X11813Y17077D01*
G01X11790Y17031D01*
G01X11745Y17009D01*
G01X11631Y16986D01*
G01X11586Y16963D01*
G01X11563Y16918D01*
G01X11563Y16895D01*
G01X11586Y16850D01*
G01X11654Y16827D01*
G01X11722Y16827D01*
G01X11790Y16850D01*
G01X11813Y16895D01*
G01X11390Y17100D02*
G01X11413Y17077D01*
G01X11390Y17054D01*
G01X11368Y17077D01*
G01X11390Y17100D01*
G01X11390Y16940D02*
G01X11413Y16918D01*
G01X11390Y16895D01*
G01X11368Y16918D01*
G01X11390Y16940D01*
G01X10808Y17395D02*
G01X11218Y16668D01*
G01X10249Y17395D02*
G01X10658Y16668D01*
G01X9827Y17145D02*
G01X9827Y16827D01*
G01X9827Y17077D02*
G01X9872Y17122D01*
G01X9918Y17145D01*
G01X9986Y17145D01*
G01X10031Y17122D01*
G01X10077Y17077D01*
G01X10099Y17009D01*
G01X10099Y16963D01*
G01X10077Y16895D01*
G01X10031Y16850D01*
G01X9986Y16827D01*
G01X9918Y16827D01*
G01X9872Y16850D01*
G01X9827Y16895D01*
G01X9677Y17304D02*
G01X9677Y16827D01*
G01X9527Y17009D02*
G01X9254Y17009D01*
G01X9254Y17054D01*
G01X9277Y17100D01*
G01X9299Y17122D01*
G01X9345Y17145D01*
G01X9413Y17145D01*
G01X9458Y17122D01*
G01X9504Y17077D01*
G01X9527Y17009D01*
G01X9527Y16963D01*
G01X9504Y16895D01*
G01X9458Y16850D01*
G01X9413Y16827D01*
G01X9345Y16827D01*
G01X9299Y16850D01*
G01X9254Y16895D01*
G01X9104Y17145D02*
G01X8854Y16827D01*
G01X8854Y17145D02*
G01X9104Y16827D01*
G01X8431Y17145D02*
G01X8431Y16781D01*
G01X8454Y16713D01*
G01X8477Y16690D01*
G01X8522Y16668D01*
G01X8590Y16668D01*
G01X8636Y16690D01*
G01X8431Y17077D02*
G01X8477Y17122D01*
G01X8522Y17145D01*
G01X8590Y17145D01*
G01X8636Y17122D01*
G01X8681Y17077D01*
G01X8704Y17009D01*
G01X8704Y16963D01*
G01X8681Y16895D01*
G01X8636Y16850D01*
G01X8590Y16827D01*
G01X8522Y16827D01*
G01X8477Y16850D01*
G01X8431Y16895D01*
G01X8258Y17145D02*
G01X8122Y16827D01*
G01X7986Y17145D02*
G01X8122Y16827D01*
G01X8168Y16736D01*
G01X8213Y16690D01*
G01X8258Y16668D01*
G01X8281Y16668D01*
G01X7836Y17145D02*
G01X7699Y16827D01*
G01X7563Y17145D02*
G01X7699Y16827D01*
G01X7413Y17009D02*
G01X7140Y17009D01*
G01X7140Y17054D01*
G01X7163Y17100D01*
G01X7186Y17122D01*
G01X7231Y17145D01*
G01X7299Y17145D01*
G01X7345Y17122D01*
G01X7390Y17077D01*
G01X7413Y17009D01*
G01X7413Y16963D01*
G01X7390Y16895D01*
G01X7345Y16850D01*
G01X7299Y16827D01*
G01X7231Y16827D01*
G01X7186Y16850D01*
G01X7140Y16895D01*
G01X6990Y17145D02*
G01X6990Y16827D01*
G01X6990Y17009D02*
G01X6968Y17077D01*
G01X6922Y17122D01*
G01X6877Y17145D01*
G01X6808Y17145D01*
G01X6636Y16940D02*
G01X6658Y16918D01*
G01X6636Y16895D01*
G01X6613Y16918D01*
G01X6636Y16940D01*
G01X6463Y17145D02*
G01X6463Y16827D01*
G01X6463Y17009D02*
G01X6440Y17077D01*
G01X6395Y17122D01*
G01X6349Y17145D01*
G01X6281Y17145D01*
G01X6131Y17145D02*
G01X6131Y16918D01*
G01X6108Y16850D01*
G01X6063Y16827D01*
G01X5995Y16827D01*
G01X5949Y16850D01*
G01X5881Y16918D01*
G01X5881Y17145D02*
G01X5881Y16827D01*
G01X5322Y17395D02*
G01X5731Y16668D01*
G01X5172Y17145D02*
G01X5172Y16827D01*
G01X5172Y17054D02*
G01X5104Y17122D01*
G01X5058Y17145D01*
G01X4990Y17145D01*
G01X4945Y17122D01*
G01X4922Y17054D01*
G01X4922Y16827D01*
G01X4772Y17304D02*
G01X4749Y17281D01*
G01X4727Y17304D01*
G01X4749Y17327D01*
G01X4772Y17304D01*
G01X4749Y17145D02*
G01X4749Y16827D01*
G01X4577Y17145D02*
G01X4327Y16827D01*
G01X4327Y17145D02*
G01X4577Y16827D01*
G01X4177Y17304D02*
G01X4154Y17281D01*
G01X4131Y17304D01*
G01X4154Y17327D01*
G01X4177Y17304D01*
G01X4154Y17145D02*
G01X4154Y16827D01*
G01X3981Y17009D02*
G01X3708Y17009D01*
G01X3708Y17054D01*
G01X3731Y17100D01*
G01X3754Y17122D01*
G01X3799Y17145D01*
G01X3868Y17145D01*
G01X3913Y17122D01*
G01X3958Y17077D01*
G01X3981Y17009D01*
G01X3981Y16963D01*
G01X3958Y16895D01*
G01X3913Y16850D01*
G01X3868Y16827D01*
G01X3799Y16827D01*
G01X3754Y16850D01*
G01X3708Y16895D01*
G01X3286Y17077D02*
G01X3331Y17122D01*
G01X3377Y17145D01*
G01X3445Y17145D01*
G01X3490Y17122D01*
G01X3536Y17077D01*
G01X3558Y17009D01*
G01X3558Y16963D01*
G01X3536Y16895D01*
G01X3490Y16850D01*
G01X3445Y16827D01*
G01X3377Y16827D01*
G01X3331Y16850D01*
G01X3286Y16895D01*
G01X3136Y17304D02*
G01X3136Y16827D01*
G01X2872Y17145D02*
G01X2918Y17122D01*
G01X2963Y17077D01*
G01X2986Y17009D01*
G01X2986Y16963D01*
G01X2963Y16895D01*
G01X2918Y16850D01*
G01X2872Y16827D01*
G01X2804Y16827D01*
G01X2758Y16850D01*
G01X2713Y16895D01*
G01X2690Y16963D01*
G01X2690Y17009D01*
G01X2713Y17077D01*
G01X2758Y17122D01*
G01X2804Y17145D01*
G01X2872Y17145D01*
G01X2268Y17077D02*
G01X2313Y17122D01*
G01X2358Y17145D01*
G01X2427Y17145D01*
G01X2472Y17122D01*
G01X2518Y17077D01*
G01X2540Y17009D01*
G01X2540Y16963D01*
G01X2518Y16895D01*
G01X2472Y16850D01*
G01X2427Y16827D01*
G01X2358Y16827D01*
G01X2313Y16850D01*
G01X2268Y16895D01*
G01X2118Y17304D02*
G01X2118Y16827D01*
G01X1890Y17145D02*
G01X2118Y16918D01*
G01X2027Y17009D02*
G01X1868Y16827D01*
G01X1718Y16668D02*
G01X1308Y16668D01*
G01X1158Y17145D02*
G01X1022Y16827D01*
G01X886Y17145D02*
G01X1022Y16827D01*
G01X713Y17190D02*
G01X713Y17213D01*
G01X690Y17259D01*
G01X668Y17281D01*
G01X622Y17304D01*
G01X531Y17304D01*
G01X486Y17281D01*
G01X463Y17259D01*
G01X440Y17213D01*
G01X440Y17168D01*
G01X463Y17122D01*
G01X508Y17054D01*
G01X736Y16827D01*
G01X418Y16827D01*
G01X33292Y15642D02*
G01X33313Y15683D01*
G01X33354Y15724D01*
G01X33394Y15744D01*
G01X33476Y15744D01*
G01X33517Y15724D01*
G01X33558Y15683D01*
G01X33579Y15642D01*
G01X33599Y15581D01*
G01X33599Y15479D01*
G01X33579Y15417D01*
G01X33558Y15376D01*
G01X33517Y15335D01*
G01X33476Y15315D01*
G01X33394Y15315D01*
G01X33354Y15335D01*
G01X33313Y15376D01*
G01X33292Y15417D01*
G01X33157Y15744D02*
G01X33157Y15315D01*
G01X33157Y15315D02*
G01X32912Y15315D01*
G01X32654Y15744D02*
G01X32695Y15724D01*
G01X32736Y15683D01*
G01X32756Y15642D01*
G01X32777Y15581D01*
G01X32777Y15479D01*
G01X32756Y15417D01*
G01X32736Y15376D01*
G01X32695Y15335D01*
G01X32654Y15315D01*
G01X32572Y15315D01*
G01X32531Y15335D01*
G01X32490Y15376D01*
G01X32470Y15417D01*
G01X32449Y15479D01*
G01X32449Y15581D01*
G01X32470Y15642D01*
G01X32490Y15683D01*
G01X32531Y15724D01*
G01X32572Y15744D01*
G01X32654Y15744D01*
G01X32008Y15642D02*
G01X32028Y15683D01*
G01X32069Y15724D01*
G01X32110Y15744D01*
G01X32192Y15744D01*
G01X32233Y15724D01*
G01X32274Y15683D01*
G01X32294Y15642D01*
G01X32314Y15581D01*
G01X32314Y15479D01*
G01X32294Y15417D01*
G01X32274Y15376D01*
G01X32233Y15335D01*
G01X32192Y15315D01*
G01X32110Y15315D01*
G01X32069Y15335D01*
G01X32028Y15376D01*
G01X32008Y15417D01*
G01X31873Y15744D02*
G01X31873Y15315D01*
G01X31586Y15744D02*
G01X31873Y15458D01*
G01X31770Y15560D02*
G01X31586Y15315D01*
G01X31451Y15663D02*
G01X31410Y15683D01*
G01X31349Y15744D01*
G01X31349Y15315D01*
G54D38*
G01X30299Y14337D02*
G01X30299Y15100D01*
G01X30299Y14337D02*
G01X30554Y14337D01*
G01X30663Y14373D01*
G01X30735Y14446D01*
G01X30772Y14518D01*
G01X30808Y14628D01*
G01X30808Y14809D01*
G01X30772Y14918D01*
G01X30735Y14991D01*
G01X30663Y15064D01*
G01X30554Y15100D01*
G01X30299Y15100D01*
G01X31557Y14446D02*
G01X31484Y14373D01*
G01X31375Y14337D01*
G01X31230Y14337D01*
G01X31121Y14373D01*
G01X31048Y14446D01*
G01X31048Y14518D01*
G01X31084Y14591D01*
G01X31121Y14628D01*
G01X31194Y14664D01*
G01X31412Y14737D01*
G01X31484Y14773D01*
G01X31521Y14809D01*
G01X31557Y14882D01*
G01X31557Y14991D01*
G01X31484Y15064D01*
G01X31375Y15100D01*
G01X31230Y15100D01*
G01X31121Y15064D01*
G01X31048Y14991D01*
G01X31870Y14337D02*
G01X32270Y14337D01*
G01X32052Y14628D01*
G01X32161Y14628D01*
G01X32234Y14664D01*
G01X32270Y14700D01*
G01X32306Y14809D01*
G01X32306Y14882D01*
G01X32270Y14991D01*
G01X32197Y15064D01*
G01X32088Y15100D01*
G01X31979Y15100D01*
G01X31870Y15064D01*
G01X31834Y15028D01*
G01X31797Y14955D01*
G01X32583Y14518D02*
G01X32583Y14482D01*
G01X32619Y14409D01*
G01X32655Y14373D01*
G01X32728Y14337D01*
G01X32874Y14337D01*
G01X32946Y14373D01*
G01X32983Y14409D01*
G01X33019Y14482D01*
G01X33019Y14555D01*
G01X32983Y14628D01*
G01X32910Y14737D01*
G01X32546Y15100D01*
G01X33055Y15100D01*
G01X33368Y14337D02*
G01X33768Y14337D01*
G01X33550Y14628D01*
G01X33659Y14628D01*
G01X33732Y14664D01*
G01X33768Y14700D01*
G01X33804Y14809D01*
G01X33804Y14882D01*
G01X33768Y14991D01*
G01X33695Y15064D01*
G01X33586Y15100D01*
G01X33477Y15100D01*
G01X33368Y15064D01*
G01X33332Y15028D01*
G01X33295Y14955D01*
G01X34044Y14482D02*
G01X34117Y14446D01*
G01X34226Y14337D01*
G01X34226Y15100D01*
G54D40*
G01X10420Y15539D02*
G01X10461Y15580D01*
G01X10522Y15600D01*
G01X10604Y15600D01*
G01X10665Y15580D01*
G01X10706Y15539D01*
G01X10706Y15498D01*
G01X10686Y15457D01*
G01X10665Y15437D01*
G01X10625Y15416D01*
G01X10502Y15375D01*
G01X10461Y15355D01*
G01X10440Y15334D01*
G01X10420Y15293D01*
G01X10420Y15232D01*
G01X10461Y15191D01*
G01X10522Y15171D01*
G01X10604Y15171D01*
G01X10665Y15191D01*
G01X10706Y15232D01*
G01X10265Y15498D02*
G01X10265Y15518D01*
G01X10244Y15559D01*
G01X10224Y15580D01*
G01X10183Y15600D01*
G01X10101Y15600D01*
G01X10060Y15580D01*
G01X10040Y15559D01*
G01X10019Y15518D01*
G01X10019Y15478D01*
G01X10040Y15437D01*
G01X10080Y15375D01*
G01X10285Y15171D01*
G01X9999Y15171D01*
G01X5537Y15238D02*
G01X5578Y15279D01*
G01X5639Y15299D01*
G01X5721Y15299D01*
G01X5783Y15279D01*
G01X5823Y15238D01*
G01X5823Y15197D01*
G01X5803Y15156D01*
G01X5783Y15136D01*
G01X5742Y15115D01*
G01X5619Y15074D01*
G01X5578Y15054D01*
G01X5558Y15033D01*
G01X5537Y14992D01*
G01X5537Y14931D01*
G01X5578Y14890D01*
G01X5639Y14870D01*
G01X5721Y14870D01*
G01X5783Y14890D01*
G01X5823Y14931D01*
G01X5402Y15217D02*
G01X5361Y15238D01*
G01X5300Y15299D01*
G01X5300Y14870D01*
G01X15320Y16039D02*
G01X15361Y16080D01*
G01X15422Y16100D01*
G01X15504Y16100D01*
G01X15566Y16080D01*
G01X15606Y16039D01*
G01X15606Y15998D01*
G01X15586Y15957D01*
G01X15566Y15937D01*
G01X15525Y15916D01*
G01X15402Y15875D01*
G01X15361Y15855D01*
G01X15341Y15834D01*
G01X15320Y15793D01*
G01X15320Y15732D01*
G01X15361Y15691D01*
G01X15422Y15671D01*
G01X15504Y15671D01*
G01X15566Y15691D01*
G01X15606Y15732D01*
G01X15144Y16100D02*
G01X14919Y16100D01*
G01X15042Y15937D01*
G01X14981Y15937D01*
G01X14940Y15916D01*
G01X14919Y15896D01*
G01X14899Y15834D01*
G01X14899Y15793D01*
G01X14919Y15732D01*
G01X14960Y15691D01*
G01X15021Y15671D01*
G01X15083Y15671D01*
G01X15144Y15691D01*
G01X15165Y15712D01*
G01X15185Y15753D01*
G54D10*
G75*
G01X12633Y15105D02*
G03X12633Y15105I-295J0D01*
G01*
G75*
G01X13027Y15105D02*
G03X13027Y15105I-689J0D01*
G01*
G75*
G01X7633Y15105D02*
G03X7633Y15105I-295J0D01*
G01*
G75*
G01X8027Y15105D02*
G03X8027Y15105I-689J0D01*
G01*
G75*
G01X17633Y15105D02*
G03X17633Y15105I-295J0D01*
G01*
G75*
G01X18027Y15105D02*
G03X18027Y15105I-689J0D01*
G01*
G75*
G01X36550Y4750D02*
G03X36550Y4750I-600J0D01*
G01*
G75*
G01X27350Y4750D02*
G03X27350Y4750I-600J0D01*
G01*
G75*
G01X16550Y4750D02*
G03X16550Y4750I-600J0D01*
G01*
G75*
G01X7350Y4750D02*
G03X7350Y4750I-600J0D01*
G01*
M00*
M02*
