G04 Layer: TopSilkLayer*
G04 EasyEDA v6.3.53, 2020-06-13T07:22:25+03:00*
G04 f51c9f6fd95d48469e0b4201acb47e0f,1102b9164c3b4fd2a1726ad73ad25fb7,10*
G04 Gerber Generator version 0.2*
G04 Scale: 100 percent, Rotated: No, Reflected: No *
G04 Dimensions in inches *
G04 leading zeros omitted , absolute positions ,2 integer and 4 decimal *
%FSLAX24Y24*%
%MOIN*%
G90*
G70D02*

%ADD10C,0.010000*%
%ADD36C,0.019685*%
%ADD38C,0.008000*%
%ADD40C,0.007000*%
%ADD41C,0.024000*%
%ADD42C,0.009000*%
%ADD43C,0.007992*%
%ADD44C,0.024000*%
%ADD45C,0.039370*%
%ADD46C,0.007992*%
%ADD47C,0.018000*%
%ADD48C,0.006000*%

%LPD*%
G54D36*
G01X30399Y14400D02*
G01X30399Y19200D01*
G01X35399Y19200D01*
G01X35399Y14400D01*
G01X30399Y14400D01*
G01X38899Y13300D02*
G01X99Y13300D01*
G54D10*
G01X20219Y1610D02*
G01X20219Y1410D01*
G01X20219Y589D02*
G01X20219Y769D01*
G54D41*
G01X30069Y11310D02*
G01X30069Y4489D01*
G01X38729Y4489D02*
G01X38729Y11310D01*
G01X38729Y11310D02*
G01X38729Y14339D01*
G01X34399Y15289D02*
G01X34399Y14030D01*
G01X30069Y4489D02*
G01X30069Y1460D01*
G01X34399Y510D02*
G01X34399Y1769D01*
G01X20869Y11311D02*
G01X20869Y4491D01*
G01X29529Y4491D02*
G01X29529Y11311D01*
G01X29529Y11311D02*
G01X29529Y14341D01*
G01X25199Y15291D02*
G01X25199Y14031D01*
G01X20869Y4491D02*
G01X20869Y1461D01*
G01X25199Y511D02*
G01X25199Y1770D01*
G01X10069Y11312D02*
G01X10069Y4492D01*
G01X18729Y4492D02*
G01X18729Y11312D01*
G01X18729Y11312D02*
G01X18729Y14342D01*
G01X14399Y15292D02*
G01X14399Y14032D01*
G01X10069Y4492D02*
G01X10069Y1462D01*
G01X14399Y512D02*
G01X14399Y1772D01*
G01X869Y11311D02*
G01X869Y4491D01*
G01X9529Y4491D02*
G01X9529Y11311D01*
G01X9529Y11311D02*
G01X9529Y14341D01*
G01X5199Y15291D02*
G01X5199Y14031D01*
G01X869Y4491D02*
G01X869Y1461D01*
G01X5199Y511D02*
G01X5199Y1770D01*
G54D10*
G01X38999Y1900D02*
G01X36999Y1900D01*
G01X36999Y12900D01*
G01X38999Y12900D01*
G01X38999Y1900D01*
G01X5919Y2110D02*
G01X5919Y1910D01*
G01X5919Y1089D02*
G01X5919Y1269D01*
G01X15119Y2110D02*
G01X15119Y1910D01*
G01X15119Y1089D02*
G01X15119Y1269D01*
G01X25919Y2110D02*
G01X25919Y1910D01*
G01X25919Y1089D02*
G01X25919Y1269D01*
G01X35019Y2110D02*
G01X35019Y1910D01*
G01X35019Y1089D02*
G01X35019Y1269D01*
G54D38*
G01X899Y10400D02*
G01X1899Y10400D01*
G01X1899Y3400D01*
G01X899Y3400D01*
G01X899Y10400D01*
G54D10*
G01X19499Y30499D02*
G01X19499Y29199D01*
G01X17499Y29199D01*
G01X17499Y30399D01*
G01X17499Y30499D01*
G01X19499Y30499D01*
G01X20099Y29499D02*
G01X20099Y30199D01*
G01X20499Y29899D02*
G01X19799Y29899D01*
G54D42*
G01X5299Y25160D02*
G01X3249Y25160D01*
G01X3249Y26239D01*
G01X5299Y26239D01*
G01X5299Y25160D01*
G01X3499Y25160D02*
G01X3499Y26239D01*
G54D10*
G01X1349Y30150D02*
G01X3249Y30150D01*
G01X2749Y30300D02*
G01X1849Y30300D01*
G01X3099Y30150D02*
G01X1499Y30150D01*
G01X1499Y30150D02*
G01X1649Y30200D01*
G01X1649Y30200D02*
G01X2949Y30200D01*
G01X2949Y30200D02*
G01X3099Y30150D01*
G01X2649Y29950D02*
G01X2999Y29950D01*
G01X2699Y30350D02*
G01X1899Y30350D01*
G01X1899Y30300D02*
G01X2699Y30300D01*
G01X1699Y30250D02*
G01X2899Y30250D01*
G54D42*
G01X18399Y18720D02*
G01X16799Y18720D01*
G01X16799Y19480D01*
G01X18399Y19480D01*
G01X18399Y18720D01*
G01X16699Y22299D02*
G01X16699Y24299D01*
G01X14699Y24299D01*
G01X14699Y22299D01*
G01X16699Y22299D01*
G01X16699Y24699D02*
G01X16699Y26699D01*
G01X14699Y26699D01*
G01X14699Y24699D01*
G01X16699Y24699D01*
G01X16699Y27099D02*
G01X16699Y29099D01*
G01X14699Y29099D01*
G01X14699Y27099D01*
G01X16699Y27099D01*
G01X5119Y21599D02*
G01X5119Y23199D01*
G01X5879Y23199D01*
G01X5879Y21599D01*
G01X5119Y21599D01*
G54D10*
G01X38999Y17700D02*
G01X36999Y17700D01*
G01X36999Y28700D01*
G01X38999Y28700D01*
G01X38999Y17700D01*
G54D42*
G01X31299Y28200D02*
G01X31299Y20200D01*
G01X33299Y20200D01*
G01X33299Y28200D01*
G01X31299Y28200D01*
G01X2419Y21400D02*
G01X2419Y23000D01*
G01X3179Y23000D01*
G01X3179Y21400D01*
G01X2419Y21400D01*
G54D10*
G01X20899Y14599D02*
G01X27899Y14599D01*
G01X27899Y14599D02*
G01X27899Y31599D01*
G01X27899Y31599D02*
G01X20899Y31599D01*
G01X20899Y31599D02*
G01X20899Y14599D01*
G01X22899Y16099D02*
G01X22899Y13099D01*
G01X25899Y13099D01*
G01X25899Y16099D01*
G01X22899Y16099D01*
G54D42*
G01X16699Y19899D02*
G01X16699Y21899D01*
G01X14699Y21899D01*
G01X14699Y19899D01*
G01X16699Y19899D01*
G54D10*
G01X10579Y22637D02*
G01X6642Y22637D01*
G01X6642Y24409D02*
G01X6642Y22637D01*
G01X10579Y24409D02*
G01X6642Y24409D01*
G01X10579Y24409D02*
G01X10579Y22637D01*
G01X10579Y22991D02*
G01X6642Y22991D01*
G54D42*
G01X20479Y28799D02*
G01X20479Y27199D01*
G01X19719Y27199D01*
G01X19719Y28799D01*
G01X20479Y28799D01*
G54D10*
G01X16199Y17399D02*
G01X18199Y17399D01*
G01X18199Y17399D02*
G01X18199Y17099D01*
G01X18199Y17099D02*
G01X18199Y16799D01*
G01X18199Y16799D02*
G01X16199Y16799D01*
G01X16199Y16799D02*
G01X16199Y17099D01*
G01X16199Y17099D02*
G01X16199Y17399D01*
G01X18199Y17099D02*
G01X18299Y17099D01*
G01X16199Y17099D02*
G01X16099Y17099D01*
G54D38*
G01X899Y26199D02*
G01X1899Y26199D01*
G01X1899Y19199D01*
G01X899Y19199D01*
G01X899Y26199D01*
G01X29899Y28999D02*
G01X28899Y28999D01*
G01X28899Y30999D01*
G01X29899Y30999D01*
G01X29899Y30249D01*
G54D43*
G01X29899Y28999D02*
G01X29899Y30249D01*
G54D10*
G01X13249Y27869D02*
G01X13249Y31569D01*
G01X13249Y31569D02*
G01X9549Y31569D01*
G01X9549Y31569D02*
G01X9549Y27869D01*
G01X9549Y27869D02*
G01X9899Y27869D01*
G01X9899Y27869D02*
G01X9899Y28079D01*
G01X9899Y28079D02*
G01X12899Y28079D01*
G01X12899Y28079D02*
G01X12899Y27869D01*
G01X13249Y27869D02*
G01X12899Y27869D01*
G01X7199Y26000D02*
G01X9199Y26000D01*
G01X9199Y26000D02*
G01X9199Y25700D01*
G01X9199Y25700D02*
G01X9199Y25400D01*
G01X9199Y25400D02*
G01X7199Y25400D01*
G01X7199Y25400D02*
G01X7199Y25700D01*
G01X7199Y25700D02*
G01X7199Y26000D01*
G01X9199Y25700D02*
G01X9299Y25700D01*
G01X7199Y25700D02*
G01X7099Y25700D01*
G01X13999Y30600D02*
G01X15999Y30600D01*
G01X15999Y30600D02*
G01X15999Y30300D01*
G01X15999Y30300D02*
G01X15999Y30000D01*
G01X15999Y30000D02*
G01X13999Y30000D01*
G01X13999Y30000D02*
G01X13999Y30300D01*
G01X13999Y30300D02*
G01X13999Y30600D01*
G01X15999Y30300D02*
G01X16099Y30300D01*
G01X13999Y30300D02*
G01X13899Y30300D01*
G01X30399Y14400D02*
G01X30399Y15400D01*
G01X30399Y15400D02*
G01X31399Y15400D01*
G01X31399Y15400D02*
G01X35399Y15400D01*
G01X35399Y15400D02*
G01X35399Y14400D01*
G01X35399Y14400D02*
G01X31399Y14400D01*
G01X31399Y14400D02*
G01X30399Y14400D01*
G01X31399Y14400D02*
G01X31399Y15400D01*
G01X32099Y28800D02*
G01X32099Y29200D01*
G01X31899Y29000D02*
G01X32299Y29000D01*
G01X32998Y18709D02*
G01X30833Y18709D01*
G01X30829Y18709D02*
G01X30829Y19890D01*
G01X30833Y19890D02*
G01X32998Y19890D01*
G01X32998Y19890D02*
G01X32998Y18709D01*
G54D38*
G01X31963Y21700D02*
G01X32726Y21700D01*
G01X31963Y22209D02*
G01X32472Y21700D01*
G01X32290Y21882D02*
G01X32726Y22209D01*
G01X32108Y22449D02*
G01X32072Y22522D01*
G01X31963Y22631D01*
G01X32726Y22631D01*
G01X31963Y23307D02*
G01X31963Y22944D01*
G01X32290Y22907D01*
G01X32254Y22944D01*
G01X32217Y23053D01*
G01X32217Y23162D01*
G01X32254Y23271D01*
G01X32326Y23344D01*
G01X32435Y23380D01*
G01X32508Y23380D01*
G01X32617Y23344D01*
G01X32690Y23271D01*
G01X32726Y23162D01*
G01X32726Y23053D01*
G01X32690Y22944D01*
G01X32654Y22907D01*
G01X32581Y22871D01*
G01X31963Y24056D02*
G01X31963Y23693D01*
G01X32290Y23656D01*
G01X32254Y23693D01*
G01X32217Y23802D01*
G01X32217Y23911D01*
G01X32254Y24020D01*
G01X32326Y24093D01*
G01X32435Y24129D01*
G01X32508Y24129D01*
G01X32617Y24093D01*
G01X32690Y24020D01*
G01X32726Y23911D01*
G01X32726Y23802D01*
G01X32690Y23693D01*
G01X32654Y23656D01*
G01X32581Y23620D01*
G01X31963Y24369D02*
G01X32726Y24369D01*
G01X31963Y24609D02*
G01X32726Y24609D01*
G01X31963Y24609D02*
G01X31963Y24864D01*
G01X31999Y24973D01*
G01X32072Y25045D01*
G01X32144Y25082D01*
G01X32254Y25118D01*
G01X32435Y25118D01*
G01X32544Y25082D01*
G01X32617Y25045D01*
G01X32690Y24973D01*
G01X32726Y24864D01*
G01X32726Y24609D01*
G01X32108Y25358D02*
G01X32072Y25431D01*
G01X31963Y25540D01*
G01X32726Y25540D01*
G54D45*
G01X5299Y9269D02*
G01X5764Y9502D01*
G01X6462Y10200D01*
G01X6462Y5314D01*
G01X13132Y9337D02*
G01X13132Y9569D01*
G01X13364Y10034D01*
G01X13597Y10267D01*
G01X14062Y10500D01*
G01X14993Y10500D01*
G01X15458Y10267D01*
G01X15691Y10034D01*
G01X15923Y9569D01*
G01X15923Y9104D01*
G01X15691Y8639D01*
G01X15225Y7941D01*
G01X12899Y5614D01*
G01X16156Y5614D01*
G01X24064Y10200D02*
G01X26623Y10200D01*
G01X25228Y8339D01*
G01X25925Y8339D01*
G01X26391Y8106D01*
G01X26623Y7873D01*
G01X26856Y7175D01*
G01X26856Y6710D01*
G01X26623Y6012D01*
G01X26158Y5547D01*
G01X25460Y5314D01*
G01X24762Y5314D01*
G01X24064Y5547D01*
G01X23832Y5780D01*
G01X23599Y6245D01*
G01X35125Y10200D02*
G01X32799Y6943D01*
G01X36289Y6943D01*
G01X35125Y10200D02*
G01X35125Y5314D01*
G54D38*
G01X30699Y13970D02*
G01X31044Y13970D01*
G01X31170Y13664D02*
G01X31515Y13664D01*
G01X31641Y14200D02*
G01X31641Y13798D01*
G01X31641Y14200D02*
G01X31909Y13798D01*
G01X31909Y14200D02*
G01X31909Y13798D01*
G01X32323Y14104D02*
G01X32304Y14142D01*
G01X32265Y14181D01*
G01X32227Y14200D01*
G01X32150Y14200D01*
G01X32112Y14181D01*
G01X32074Y14142D01*
G01X32055Y14104D01*
G01X32036Y14047D01*
G01X32036Y13951D01*
G01X32055Y13893D01*
G01X32074Y13855D01*
G01X32112Y13817D01*
G01X32150Y13798D01*
G01X32227Y13798D01*
G01X32265Y13817D01*
G01X32304Y13855D01*
G01X32323Y13893D01*
G01X32449Y13664D02*
G01X32794Y13664D01*
G01X33207Y14104D02*
G01X33188Y14142D01*
G01X33150Y14181D01*
G01X33112Y14200D01*
G01X33035Y14200D01*
G01X32997Y14181D01*
G01X32958Y14142D01*
G01X32939Y14104D01*
G01X32920Y14047D01*
G01X32920Y13951D01*
G01X32939Y13893D01*
G01X32958Y13855D01*
G01X32997Y13817D01*
G01X33035Y13798D01*
G01X33112Y13798D01*
G01X33150Y13817D01*
G01X33188Y13855D01*
G01X33207Y13893D01*
G01X33334Y13664D02*
G01X33678Y13664D01*
G01X33805Y14200D02*
G01X33805Y13798D01*
G01X33805Y14200D02*
G01X33939Y14200D01*
G01X33996Y14181D01*
G01X34035Y14142D01*
G01X34054Y14104D01*
G01X34073Y14047D01*
G01X34073Y13951D01*
G01X34054Y13893D01*
G01X34035Y13855D01*
G01X33996Y13817D01*
G01X33939Y13798D01*
G01X33805Y13798D01*
G01X34199Y13664D02*
G01X34544Y13664D01*
G01X34843Y14142D02*
G01X34843Y13798D01*
G01X34670Y13970D02*
G01X35015Y13970D01*
G54D46*
G01X30321Y30593D02*
G01X30300Y30636D01*
G01X30257Y30679D01*
G01X30214Y30700D01*
G01X30128Y30700D01*
G01X30085Y30679D01*
G01X30042Y30636D01*
G01X30020Y30593D01*
G01X29999Y30528D01*
G01X29999Y30421D01*
G01X30020Y30357D01*
G01X30042Y30314D01*
G01X30085Y30271D01*
G01X30128Y30249D01*
G01X30214Y30249D01*
G01X30257Y30271D01*
G01X30300Y30314D01*
G01X30321Y30357D01*
G01X30321Y30421D01*
G01X30214Y30421D02*
G01X30321Y30421D01*
G01X30463Y30700D02*
G01X30463Y30249D01*
G01X30463Y30700D02*
G01X30763Y30249D01*
G01X30763Y30700D02*
G01X30763Y30249D01*
G01X30905Y30700D02*
G01X30905Y30249D01*
G01X30905Y30700D02*
G01X31056Y30700D01*
G01X31120Y30679D01*
G01X31163Y30636D01*
G01X31184Y30593D01*
G01X31206Y30528D01*
G01X31206Y30421D01*
G01X31184Y30357D01*
G01X31163Y30314D01*
G01X31120Y30271D01*
G01X31056Y30249D01*
G01X30905Y30249D01*
G01X30257Y29828D02*
G01X30042Y29828D01*
G01X30020Y29635D01*
G01X30042Y29656D01*
G01X30106Y29678D01*
G01X30171Y29678D01*
G01X30235Y29656D01*
G01X30278Y29613D01*
G01X30300Y29549D01*
G01X30300Y29506D01*
G01X30278Y29441D01*
G01X30235Y29398D01*
G01X30171Y29377D01*
G01X30106Y29377D01*
G01X30042Y29398D01*
G01X30020Y29420D01*
G01X29999Y29463D01*
G01X30441Y29828D02*
G01X30613Y29377D01*
G01X30785Y29828D02*
G01X30613Y29377D01*
G54D47*
G01X2799Y19608D02*
G01X2799Y18655D01*
G01X2799Y19608D02*
G01X3435Y18655D01*
G01X3435Y19608D02*
G01X3435Y18655D01*
G01X3735Y19608D02*
G01X3781Y19564D01*
G01X3826Y19608D01*
G01X3781Y19655D01*
G01X3735Y19608D01*
G01X3781Y19291D02*
G01X3781Y18655D01*
G01X4126Y19291D02*
G01X4626Y18655D01*
G01X4626Y19291D02*
G01X4126Y18655D01*
G01X4926Y19608D02*
G01X4972Y19564D01*
G01X5017Y19608D01*
G01X4972Y19655D01*
G01X4926Y19608D01*
G01X4972Y19291D02*
G01X4972Y18655D01*
G01X5317Y19018D02*
G01X5863Y19018D01*
G01X5863Y19108D01*
G01X5817Y19200D01*
G01X5772Y19245D01*
G01X5681Y19291D01*
G01X5544Y19291D01*
G01X5454Y19245D01*
G01X5363Y19155D01*
G01X5317Y19018D01*
G01X5317Y18927D01*
G01X5363Y18791D01*
G01X5454Y18700D01*
G01X5544Y18655D01*
G01X5681Y18655D01*
G01X5772Y18700D01*
G01X5863Y18791D01*
G01X6844Y19382D02*
G01X6799Y19473D01*
G01X6708Y19564D01*
G01X6617Y19608D01*
G01X6435Y19608D01*
G01X6344Y19564D01*
G01X6254Y19473D01*
G01X6208Y19382D01*
G01X6163Y19245D01*
G01X6163Y19018D01*
G01X6208Y18882D01*
G01X6254Y18791D01*
G01X6344Y18700D01*
G01X6435Y18655D01*
G01X6617Y18655D01*
G01X6708Y18700D01*
G01X6799Y18791D01*
G01X6844Y18882D01*
G01X7144Y19608D02*
G01X7144Y18655D01*
G01X7672Y19291D02*
G01X7581Y19245D01*
G01X7490Y19155D01*
G01X7444Y19018D01*
G01X7444Y18927D01*
G01X7490Y18791D01*
G01X7581Y18700D01*
G01X7672Y18655D01*
G01X7808Y18655D01*
G01X7899Y18700D01*
G01X7990Y18791D01*
G01X8035Y18927D01*
G01X8035Y19018D01*
G01X7990Y19155D01*
G01X7899Y19245D01*
G01X7808Y19291D01*
G01X7672Y19291D01*
G01X8881Y19155D02*
G01X8790Y19245D01*
G01X8699Y19291D01*
G01X8563Y19291D01*
G01X8472Y19245D01*
G01X8381Y19155D01*
G01X8335Y19018D01*
G01X8335Y18927D01*
G01X8381Y18791D01*
G01X8472Y18700D01*
G01X8563Y18655D01*
G01X8699Y18655D01*
G01X8790Y18700D01*
G01X8881Y18791D01*
G01X9181Y19608D02*
G01X9181Y18655D01*
G01X9635Y19291D02*
G01X9181Y18836D01*
G01X9363Y19018D02*
G01X9681Y18655D01*
G01X10681Y19291D02*
G01X10954Y18655D01*
G01X11226Y19291D02*
G01X10954Y18655D01*
G01X11572Y19382D02*
G01X11572Y19427D01*
G01X11617Y19518D01*
G01X11663Y19564D01*
G01X11754Y19608D01*
G01X11935Y19608D01*
G01X12026Y19564D01*
G01X12072Y19518D01*
G01X12117Y19427D01*
G01X12117Y19336D01*
G01X12072Y19245D01*
G01X11981Y19108D01*
G01X11526Y18655D01*
G01X12163Y18655D01*
G01X2799Y18208D02*
G01X2799Y17255D01*
G01X2799Y17755D02*
G01X2890Y17845D01*
G01X2981Y17891D01*
G01X3117Y17891D01*
G01X3208Y17845D01*
G01X3299Y17755D01*
G01X3344Y17618D01*
G01X3344Y17527D01*
G01X3299Y17391D01*
G01X3208Y17300D01*
G01X3117Y17255D01*
G01X2981Y17255D01*
G01X2890Y17300D01*
G01X2799Y17391D01*
G01X3690Y17891D02*
G01X3963Y17255D01*
G01X4235Y17891D02*
G01X3963Y17255D01*
G01X3872Y17073D01*
G01X3781Y16982D01*
G01X3690Y16936D01*
G01X3644Y16936D01*
G01X5599Y18208D02*
G01X5235Y17255D01*
G01X5599Y18208D02*
G01X5963Y17255D01*
G01X5372Y17573D02*
G01X5826Y17573D01*
G01X6263Y18208D02*
G01X6263Y17255D01*
G01X6563Y17618D02*
G01X7108Y17618D01*
G01X7108Y17708D01*
G01X7063Y17800D01*
G01X7017Y17845D01*
G01X6926Y17891D01*
G01X6790Y17891D01*
G01X6699Y17845D01*
G01X6608Y17755D01*
G01X6563Y17618D01*
G01X6563Y17527D01*
G01X6608Y17391D01*
G01X6699Y17300D01*
G01X6790Y17255D01*
G01X6926Y17255D01*
G01X7017Y17300D01*
G01X7108Y17391D01*
G01X7408Y17891D02*
G01X7908Y17255D01*
G01X7908Y17891D02*
G01X7408Y17255D01*
G01X8890Y17982D02*
G01X8844Y18073D01*
G01X8754Y18164D01*
G01X8663Y18208D01*
G01X8481Y18208D01*
G01X8390Y18164D01*
G01X8299Y18073D01*
G01X8254Y17982D01*
G01X8208Y17845D01*
G01X8208Y17618D01*
G01X8254Y17482D01*
G01X8299Y17391D01*
G01X8390Y17300D01*
G01X8481Y17255D01*
G01X8663Y17255D01*
G01X8754Y17300D01*
G01X8844Y17391D01*
G01X8890Y17482D01*
G01X8890Y17618D01*
G01X8663Y17618D02*
G01X8890Y17618D01*
G01X9235Y17891D02*
G01X9508Y17255D01*
G01X9781Y17891D02*
G01X9508Y17255D01*
G01X9417Y17073D01*
G01X9326Y16982D01*
G01X9235Y16936D01*
G01X9190Y16936D01*
G01X10081Y17891D02*
G01X10354Y17255D01*
G01X10626Y17891D02*
G01X10354Y17255D01*
G01X10926Y17618D02*
G01X11472Y17618D01*
G01X11472Y17708D01*
G01X11426Y17800D01*
G01X11381Y17845D01*
G01X11290Y17891D01*
G01X11154Y17891D01*
G01X11063Y17845D01*
G01X10972Y17755D01*
G01X10926Y17618D01*
G01X10926Y17527D01*
G01X10972Y17391D01*
G01X11063Y17300D01*
G01X11154Y17255D01*
G01X11290Y17255D01*
G01X11381Y17300D01*
G01X11472Y17391D01*
G01X11772Y17891D02*
G01X11772Y17255D01*
G01X11772Y17618D02*
G01X11817Y17755D01*
G01X11908Y17845D01*
G01X11999Y17891D01*
G01X12135Y17891D01*
G54D38*
G01X4104Y1836D02*
G01X4104Y1426D01*
G01X3899Y1631D02*
G01X4308Y1631D01*
G01X13304Y1736D02*
G01X13304Y1326D01*
G01X13099Y1531D02*
G01X13508Y1531D01*
G01X18404Y1336D02*
G01X18404Y926D01*
G01X18199Y1131D02*
G01X18608Y1131D01*
G01X24004Y1836D02*
G01X24004Y1426D01*
G01X23799Y1631D02*
G01X24208Y1631D01*
G01X33104Y1836D02*
G01X33104Y1426D01*
G01X32899Y1631D02*
G01X33308Y1631D01*
G54D40*
G01X18999Y2600D02*
G01X18999Y2171D01*
G01X18999Y2171D02*
G01X19245Y2171D01*
G01X19380Y2600D02*
G01X19380Y2171D01*
G01X19380Y2600D02*
G01X19645Y2600D01*
G01X19380Y2396D02*
G01X19543Y2396D01*
G01X19380Y2171D02*
G01X19645Y2171D01*
G01X19780Y2600D02*
G01X19780Y2171D01*
G01X19780Y2600D02*
G01X19924Y2600D01*
G01X19985Y2580D01*
G01X20026Y2539D01*
G01X20046Y2498D01*
G01X20067Y2437D01*
G01X20067Y2335D01*
G01X20046Y2273D01*
G01X20026Y2232D01*
G01X19985Y2191D01*
G01X19924Y2171D01*
G01X19780Y2171D01*
G01X31899Y15200D02*
G01X31899Y14771D01*
G01X32034Y15200D02*
G01X32034Y14771D01*
G01X32034Y15200D02*
G01X32320Y14771D01*
G01X32320Y15200D02*
G01X32320Y14771D01*
G01X32455Y14955D02*
G01X32824Y14955D01*
G01X32959Y15119D02*
G01X32999Y15139D01*
G01X33061Y15200D01*
G01X33061Y14771D01*
G01X33216Y15098D02*
G01X33216Y15119D01*
G01X33237Y15160D01*
G01X33257Y15180D01*
G01X33298Y15200D01*
G01X33380Y15200D01*
G01X33421Y15180D01*
G01X33441Y15160D01*
G01X33462Y15119D01*
G01X33462Y15078D01*
G01X33441Y15037D01*
G01X33400Y14975D01*
G01X33196Y14771D01*
G01X33482Y14771D01*
G54D48*
G01X31449Y11232D02*
G01X31494Y11255D01*
G01X31563Y11323D01*
G01X31563Y10845D01*
G01X30882Y9629D02*
G01X30882Y9652D01*
G01X30904Y9697D01*
G01X30927Y9720D01*
G01X30973Y9743D01*
G01X31064Y9743D01*
G01X31109Y9720D01*
G01X31132Y9697D01*
G01X31154Y9652D01*
G01X31154Y9606D01*
G01X31132Y9561D01*
G01X31086Y9493D01*
G01X30859Y9265D01*
G01X31177Y9265D01*
G01X30904Y7783D02*
G01X31154Y7783D01*
G01X31018Y7601D01*
G01X31086Y7601D01*
G01X31132Y7578D01*
G01X31154Y7555D01*
G01X31177Y7487D01*
G01X31177Y7442D01*
G01X31154Y7374D01*
G01X31109Y7328D01*
G01X31041Y7305D01*
G01X30973Y7305D01*
G01X30904Y7328D01*
G01X30882Y7351D01*
G01X30859Y7396D01*
G01X31086Y5813D02*
G01X30859Y5495D01*
G01X31200Y5495D01*
G01X31086Y5813D02*
G01X31086Y5335D01*
G01X31912Y3843D02*
G01X31684Y3843D01*
G01X31662Y3638D01*
G01X31684Y3661D01*
G01X31753Y3684D01*
G01X31821Y3684D01*
G01X31889Y3661D01*
G01X31934Y3615D01*
G01X31957Y3547D01*
G01X31957Y3502D01*
G01X31934Y3434D01*
G01X31889Y3388D01*
G01X31821Y3365D01*
G01X31753Y3365D01*
G01X31684Y3388D01*
G01X31662Y3411D01*
G01X31639Y3456D01*
G01X33492Y3385D02*
G01X33469Y3430D01*
G01X33401Y3453D01*
G01X33355Y3453D01*
G01X33287Y3430D01*
G01X33242Y3362D01*
G01X33219Y3248D01*
G01X33219Y3135D01*
G01X33242Y3044D01*
G01X33287Y2998D01*
G01X33355Y2975D01*
G01X33378Y2975D01*
G01X33446Y2998D01*
G01X33492Y3044D01*
G01X33514Y3112D01*
G01X33514Y3135D01*
G01X33492Y3203D01*
G01X33446Y3248D01*
G01X33378Y3271D01*
G01X33355Y3271D01*
G01X33287Y3248D01*
G01X33242Y3203D01*
G01X33219Y3135D01*
G01X36687Y3453D02*
G01X36460Y2975D01*
G01X36369Y3453D02*
G01X36687Y3453D01*
G01X37663Y5813D02*
G01X37594Y5790D01*
G01X37572Y5745D01*
G01X37572Y5699D01*
G01X37594Y5654D01*
G01X37640Y5631D01*
G01X37731Y5608D01*
G01X37799Y5585D01*
G01X37844Y5540D01*
G01X37867Y5495D01*
G01X37867Y5426D01*
G01X37844Y5381D01*
G01X37822Y5358D01*
G01X37754Y5335D01*
G01X37663Y5335D01*
G01X37594Y5358D01*
G01X37572Y5381D01*
G01X37549Y5426D01*
G01X37549Y5495D01*
G01X37572Y5540D01*
G01X37617Y5585D01*
G01X37685Y5608D01*
G01X37776Y5631D01*
G01X37822Y5654D01*
G01X37844Y5699D01*
G01X37844Y5745D01*
G01X37822Y5790D01*
G01X37754Y5813D01*
G01X37663Y5813D01*
G01X37844Y7624D02*
G01X37822Y7555D01*
G01X37776Y7510D01*
G01X37708Y7487D01*
G01X37685Y7487D01*
G01X37617Y7510D01*
G01X37572Y7555D01*
G01X37549Y7624D01*
G01X37549Y7646D01*
G01X37572Y7715D01*
G01X37617Y7760D01*
G01X37685Y7783D01*
G01X37708Y7783D01*
G01X37776Y7760D01*
G01X37822Y7715D01*
G01X37844Y7624D01*
G01X37844Y7510D01*
G01X37822Y7396D01*
G01X37776Y7328D01*
G01X37708Y7305D01*
G01X37663Y7305D01*
G01X37594Y7328D01*
G01X37572Y7374D01*
G01X37449Y9462D02*
G01X37494Y9485D01*
G01X37563Y9553D01*
G01X37563Y9075D01*
G01X37849Y9553D02*
G01X37781Y9530D01*
G01X37735Y9462D01*
G01X37713Y9348D01*
G01X37713Y9280D01*
G01X37735Y9166D01*
G01X37781Y9098D01*
G01X37849Y9075D01*
G01X37894Y9075D01*
G01X37963Y9098D01*
G01X38008Y9166D01*
G01X38031Y9280D01*
G01X38031Y9348D01*
G01X38008Y9462D01*
G01X37963Y9530D01*
G01X37894Y9553D01*
G01X37849Y9553D01*
G01X36759Y10842D02*
G01X36804Y10865D01*
G01X36873Y10933D01*
G01X36873Y10455D01*
G01X37023Y10842D02*
G01X37068Y10865D01*
G01X37136Y10933D01*
G01X37136Y10455D01*
G01X35089Y12122D02*
G01X35134Y12145D01*
G01X35203Y12213D01*
G01X35203Y11735D01*
G01X35375Y12099D02*
G01X35375Y12122D01*
G01X35398Y12167D01*
G01X35421Y12190D01*
G01X35466Y12213D01*
G01X35557Y12213D01*
G01X35603Y12190D01*
G01X35625Y12167D01*
G01X35648Y12122D01*
G01X35648Y12076D01*
G01X35625Y12031D01*
G01X35580Y11963D01*
G01X35353Y11735D01*
G01X35671Y11735D01*
G54D40*
G01X22799Y15200D02*
G01X22799Y14770D01*
G01X22934Y15200D02*
G01X22934Y14770D01*
G01X22934Y15200D02*
G01X23220Y14770D01*
G01X23220Y15200D02*
G01X23220Y14770D01*
G01X23355Y14954D02*
G01X23723Y14954D01*
G01X23858Y15118D02*
G01X23899Y15138D01*
G01X23961Y15200D01*
G01X23961Y14770D01*
G01X24116Y15097D02*
G01X24116Y15118D01*
G01X24137Y15159D01*
G01X24157Y15179D01*
G01X24198Y15200D01*
G01X24280Y15200D01*
G01X24321Y15179D01*
G01X24341Y15159D01*
G01X24362Y15118D01*
G01X24362Y15077D01*
G01X24341Y15036D01*
G01X24300Y14975D01*
G01X24096Y14770D01*
G01X24382Y14770D01*
G54D48*
G01X22249Y11233D02*
G01X22294Y11256D01*
G01X22363Y11324D01*
G01X22363Y10846D01*
G01X21682Y9630D02*
G01X21682Y9653D01*
G01X21704Y9698D01*
G01X21727Y9721D01*
G01X21773Y9744D01*
G01X21864Y9744D01*
G01X21909Y9721D01*
G01X21932Y9698D01*
G01X21954Y9653D01*
G01X21954Y9607D01*
G01X21932Y9562D01*
G01X21886Y9494D01*
G01X21659Y9266D01*
G01X21977Y9266D01*
G01X21704Y7784D02*
G01X21954Y7784D01*
G01X21818Y7602D01*
G01X21886Y7602D01*
G01X21932Y7579D01*
G01X21954Y7556D01*
G01X21977Y7488D01*
G01X21977Y7443D01*
G01X21954Y7375D01*
G01X21909Y7329D01*
G01X21841Y7306D01*
G01X21773Y7306D01*
G01X21704Y7329D01*
G01X21682Y7352D01*
G01X21659Y7397D01*
G01X21886Y5814D02*
G01X21659Y5496D01*
G01X22000Y5496D01*
G01X21886Y5814D02*
G01X21886Y5336D01*
G01X22712Y3844D02*
G01X22484Y3844D01*
G01X22462Y3639D01*
G01X22484Y3662D01*
G01X22553Y3685D01*
G01X22621Y3685D01*
G01X22689Y3662D01*
G01X22734Y3616D01*
G01X22757Y3548D01*
G01X22757Y3503D01*
G01X22734Y3435D01*
G01X22689Y3389D01*
G01X22621Y3366D01*
G01X22553Y3366D01*
G01X22484Y3389D01*
G01X22462Y3412D01*
G01X22439Y3457D01*
G01X24292Y3386D02*
G01X24269Y3431D01*
G01X24201Y3454D01*
G01X24155Y3454D01*
G01X24087Y3431D01*
G01X24042Y3363D01*
G01X24019Y3249D01*
G01X24019Y3136D01*
G01X24042Y3045D01*
G01X24087Y2999D01*
G01X24155Y2976D01*
G01X24178Y2976D01*
G01X24246Y2999D01*
G01X24292Y3045D01*
G01X24314Y3113D01*
G01X24314Y3136D01*
G01X24292Y3204D01*
G01X24246Y3249D01*
G01X24178Y3272D01*
G01X24155Y3272D01*
G01X24087Y3249D01*
G01X24042Y3204D01*
G01X24019Y3136D01*
G01X27487Y3454D02*
G01X27260Y2976D01*
G01X27169Y3454D02*
G01X27487Y3454D01*
G01X28463Y5814D02*
G01X28394Y5791D01*
G01X28372Y5746D01*
G01X28372Y5700D01*
G01X28394Y5655D01*
G01X28440Y5632D01*
G01X28531Y5609D01*
G01X28599Y5586D01*
G01X28644Y5541D01*
G01X28667Y5496D01*
G01X28667Y5427D01*
G01X28644Y5382D01*
G01X28622Y5359D01*
G01X28554Y5336D01*
G01X28463Y5336D01*
G01X28394Y5359D01*
G01X28372Y5382D01*
G01X28349Y5427D01*
G01X28349Y5496D01*
G01X28372Y5541D01*
G01X28417Y5586D01*
G01X28485Y5609D01*
G01X28576Y5632D01*
G01X28622Y5655D01*
G01X28644Y5700D01*
G01X28644Y5746D01*
G01X28622Y5791D01*
G01X28554Y5814D01*
G01X28463Y5814D01*
G01X28644Y7625D02*
G01X28622Y7556D01*
G01X28576Y7511D01*
G01X28508Y7488D01*
G01X28485Y7488D01*
G01X28417Y7511D01*
G01X28372Y7556D01*
G01X28349Y7625D01*
G01X28349Y7647D01*
G01X28372Y7716D01*
G01X28417Y7761D01*
G01X28485Y7784D01*
G01X28508Y7784D01*
G01X28576Y7761D01*
G01X28622Y7716D01*
G01X28644Y7625D01*
G01X28644Y7511D01*
G01X28622Y7397D01*
G01X28576Y7329D01*
G01X28508Y7306D01*
G01X28463Y7306D01*
G01X28394Y7329D01*
G01X28372Y7375D01*
G01X28249Y9463D02*
G01X28294Y9486D01*
G01X28363Y9554D01*
G01X28363Y9076D01*
G01X28649Y9554D02*
G01X28581Y9531D01*
G01X28535Y9463D01*
G01X28513Y9349D01*
G01X28513Y9281D01*
G01X28535Y9167D01*
G01X28581Y9099D01*
G01X28649Y9076D01*
G01X28694Y9076D01*
G01X28763Y9099D01*
G01X28808Y9167D01*
G01X28831Y9281D01*
G01X28831Y9349D01*
G01X28808Y9463D01*
G01X28763Y9531D01*
G01X28694Y9554D01*
G01X28649Y9554D01*
G01X27559Y10843D02*
G01X27604Y10866D01*
G01X27673Y10934D01*
G01X27673Y10456D01*
G01X27823Y10843D02*
G01X27868Y10866D01*
G01X27936Y10934D01*
G01X27936Y10456D01*
G01X25889Y12123D02*
G01X25934Y12146D01*
G01X26003Y12214D01*
G01X26003Y11736D01*
G01X26175Y12100D02*
G01X26175Y12123D01*
G01X26198Y12168D01*
G01X26221Y12191D01*
G01X26266Y12214D01*
G01X26357Y12214D01*
G01X26403Y12191D01*
G01X26425Y12168D01*
G01X26448Y12123D01*
G01X26448Y12077D01*
G01X26425Y12032D01*
G01X26380Y11964D01*
G01X26153Y11736D01*
G01X26471Y11736D01*
G54D40*
G01X12199Y14700D02*
G01X12199Y14270D01*
G01X12334Y14700D02*
G01X12334Y14270D01*
G01X12334Y14700D02*
G01X12620Y14270D01*
G01X12620Y14700D02*
G01X12620Y14270D01*
G01X12755Y14454D02*
G01X13124Y14454D01*
G01X13259Y14618D02*
G01X13299Y14638D01*
G01X13361Y14700D01*
G01X13361Y14270D01*
G01X13516Y14597D02*
G01X13516Y14618D01*
G01X13537Y14659D01*
G01X13557Y14679D01*
G01X13598Y14700D01*
G01X13680Y14700D01*
G01X13721Y14679D01*
G01X13741Y14659D01*
G01X13762Y14618D01*
G01X13762Y14577D01*
G01X13741Y14536D01*
G01X13700Y14475D01*
G01X13496Y14270D01*
G01X13782Y14270D01*
G54D48*
G01X11449Y11234D02*
G01X11494Y11257D01*
G01X11563Y11325D01*
G01X11563Y10847D01*
G01X10882Y9631D02*
G01X10882Y9654D01*
G01X10904Y9699D01*
G01X10927Y9722D01*
G01X10973Y9745D01*
G01X11064Y9745D01*
G01X11109Y9722D01*
G01X11132Y9699D01*
G01X11154Y9654D01*
G01X11154Y9608D01*
G01X11132Y9563D01*
G01X11086Y9495D01*
G01X10859Y9267D01*
G01X11177Y9267D01*
G01X10904Y7785D02*
G01X11154Y7785D01*
G01X11018Y7603D01*
G01X11086Y7603D01*
G01X11132Y7580D01*
G01X11154Y7557D01*
G01X11177Y7489D01*
G01X11177Y7444D01*
G01X11154Y7376D01*
G01X11109Y7330D01*
G01X11041Y7307D01*
G01X10973Y7307D01*
G01X10904Y7330D01*
G01X10882Y7353D01*
G01X10859Y7398D01*
G01X11086Y5815D02*
G01X10859Y5497D01*
G01X11200Y5497D01*
G01X11086Y5815D02*
G01X11086Y5337D01*
G01X11912Y3845D02*
G01X11684Y3845D01*
G01X11662Y3640D01*
G01X11684Y3663D01*
G01X11753Y3686D01*
G01X11821Y3686D01*
G01X11889Y3663D01*
G01X11934Y3617D01*
G01X11957Y3549D01*
G01X11957Y3504D01*
G01X11934Y3436D01*
G01X11889Y3390D01*
G01X11821Y3367D01*
G01X11753Y3367D01*
G01X11684Y3390D01*
G01X11662Y3413D01*
G01X11639Y3458D01*
G01X13492Y3387D02*
G01X13469Y3432D01*
G01X13401Y3455D01*
G01X13355Y3455D01*
G01X13287Y3432D01*
G01X13242Y3364D01*
G01X13219Y3250D01*
G01X13219Y3137D01*
G01X13242Y3046D01*
G01X13287Y3000D01*
G01X13355Y2977D01*
G01X13378Y2977D01*
G01X13446Y3000D01*
G01X13492Y3046D01*
G01X13514Y3114D01*
G01X13514Y3137D01*
G01X13492Y3205D01*
G01X13446Y3250D01*
G01X13378Y3273D01*
G01X13355Y3273D01*
G01X13287Y3250D01*
G01X13242Y3205D01*
G01X13219Y3137D01*
G01X16687Y3455D02*
G01X16460Y2977D01*
G01X16369Y3455D02*
G01X16687Y3455D01*
G01X17663Y5815D02*
G01X17594Y5792D01*
G01X17572Y5747D01*
G01X17572Y5701D01*
G01X17594Y5656D01*
G01X17640Y5633D01*
G01X17731Y5610D01*
G01X17799Y5587D01*
G01X17844Y5542D01*
G01X17867Y5497D01*
G01X17867Y5428D01*
G01X17844Y5383D01*
G01X17822Y5360D01*
G01X17754Y5337D01*
G01X17663Y5337D01*
G01X17594Y5360D01*
G01X17572Y5383D01*
G01X17549Y5428D01*
G01X17549Y5497D01*
G01X17572Y5542D01*
G01X17617Y5587D01*
G01X17685Y5610D01*
G01X17776Y5633D01*
G01X17822Y5656D01*
G01X17844Y5701D01*
G01X17844Y5747D01*
G01X17822Y5792D01*
G01X17754Y5815D01*
G01X17663Y5815D01*
G01X17844Y7626D02*
G01X17822Y7557D01*
G01X17776Y7512D01*
G01X17708Y7489D01*
G01X17685Y7489D01*
G01X17617Y7512D01*
G01X17572Y7557D01*
G01X17549Y7626D01*
G01X17549Y7648D01*
G01X17572Y7717D01*
G01X17617Y7762D01*
G01X17685Y7785D01*
G01X17708Y7785D01*
G01X17776Y7762D01*
G01X17822Y7717D01*
G01X17844Y7626D01*
G01X17844Y7512D01*
G01X17822Y7398D01*
G01X17776Y7330D01*
G01X17708Y7307D01*
G01X17663Y7307D01*
G01X17594Y7330D01*
G01X17572Y7376D01*
G01X17449Y9464D02*
G01X17494Y9487D01*
G01X17563Y9555D01*
G01X17563Y9077D01*
G01X17849Y9555D02*
G01X17781Y9532D01*
G01X17735Y9464D01*
G01X17713Y9350D01*
G01X17713Y9282D01*
G01X17735Y9168D01*
G01X17781Y9100D01*
G01X17849Y9077D01*
G01X17894Y9077D01*
G01X17963Y9100D01*
G01X18008Y9168D01*
G01X18031Y9282D01*
G01X18031Y9350D01*
G01X18008Y9464D01*
G01X17963Y9532D01*
G01X17894Y9555D01*
G01X17849Y9555D01*
G01X16759Y10844D02*
G01X16804Y10867D01*
G01X16873Y10935D01*
G01X16873Y10457D01*
G01X17023Y10844D02*
G01X17068Y10867D01*
G01X17136Y10935D01*
G01X17136Y10457D01*
G01X15089Y12124D02*
G01X15134Y12147D01*
G01X15203Y12215D01*
G01X15203Y11737D01*
G01X15375Y12101D02*
G01X15375Y12124D01*
G01X15398Y12169D01*
G01X15421Y12192D01*
G01X15466Y12215D01*
G01X15557Y12215D01*
G01X15603Y12192D01*
G01X15625Y12169D01*
G01X15648Y12124D01*
G01X15648Y12078D01*
G01X15625Y12033D01*
G01X15580Y11965D01*
G01X15353Y11737D01*
G01X15671Y11737D01*
G54D40*
G01X3099Y14900D02*
G01X3099Y14470D01*
G01X3234Y14900D02*
G01X3234Y14470D01*
G01X3234Y14900D02*
G01X3520Y14470D01*
G01X3520Y14900D02*
G01X3520Y14470D01*
G01X3655Y14655D02*
G01X4024Y14655D01*
G01X4159Y14819D02*
G01X4199Y14838D01*
G01X4261Y14900D01*
G01X4261Y14470D01*
G01X4416Y14798D02*
G01X4416Y14819D01*
G01X4437Y14860D01*
G01X4457Y14880D01*
G01X4498Y14900D01*
G01X4580Y14900D01*
G01X4621Y14880D01*
G01X4641Y14860D01*
G01X4662Y14819D01*
G01X4662Y14777D01*
G01X4641Y14737D01*
G01X4600Y14675D01*
G01X4396Y14470D01*
G01X4682Y14470D01*
G54D48*
G01X2299Y11009D02*
G01X2344Y11032D01*
G01X2413Y11100D01*
G01X2413Y10622D01*
G01X1682Y9630D02*
G01X1682Y9653D01*
G01X1704Y9698D01*
G01X1727Y9721D01*
G01X1773Y9744D01*
G01X1864Y9744D01*
G01X1909Y9721D01*
G01X1932Y9698D01*
G01X1954Y9653D01*
G01X1954Y9607D01*
G01X1932Y9562D01*
G01X1886Y9494D01*
G01X1659Y9266D01*
G01X1977Y9266D01*
G01X1704Y7784D02*
G01X1954Y7784D01*
G01X1818Y7602D01*
G01X1886Y7602D01*
G01X1932Y7579D01*
G01X1954Y7556D01*
G01X1977Y7488D01*
G01X1977Y7443D01*
G01X1954Y7375D01*
G01X1909Y7329D01*
G01X1841Y7306D01*
G01X1773Y7306D01*
G01X1704Y7329D01*
G01X1682Y7352D01*
G01X1659Y7397D01*
G01X1886Y5814D02*
G01X1659Y5496D01*
G01X2000Y5496D01*
G01X1886Y5814D02*
G01X1886Y5336D01*
G01X2712Y3844D02*
G01X2484Y3844D01*
G01X2462Y3639D01*
G01X2484Y3662D01*
G01X2553Y3685D01*
G01X2621Y3685D01*
G01X2689Y3662D01*
G01X2734Y3616D01*
G01X2757Y3548D01*
G01X2757Y3503D01*
G01X2734Y3435D01*
G01X2689Y3389D01*
G01X2621Y3366D01*
G01X2553Y3366D01*
G01X2484Y3389D01*
G01X2462Y3412D01*
G01X2439Y3457D01*
G01X4292Y3386D02*
G01X4269Y3431D01*
G01X4201Y3454D01*
G01X4155Y3454D01*
G01X4087Y3431D01*
G01X4042Y3363D01*
G01X4019Y3249D01*
G01X4019Y3136D01*
G01X4042Y3045D01*
G01X4087Y2999D01*
G01X4155Y2976D01*
G01X4178Y2976D01*
G01X4246Y2999D01*
G01X4292Y3045D01*
G01X4314Y3113D01*
G01X4314Y3136D01*
G01X4292Y3204D01*
G01X4246Y3249D01*
G01X4178Y3272D01*
G01X4155Y3272D01*
G01X4087Y3249D01*
G01X4042Y3204D01*
G01X4019Y3136D01*
G01X7487Y3454D02*
G01X7260Y2976D01*
G01X7169Y3454D02*
G01X7487Y3454D01*
G01X8463Y5814D02*
G01X8394Y5791D01*
G01X8372Y5746D01*
G01X8372Y5700D01*
G01X8394Y5655D01*
G01X8440Y5632D01*
G01X8531Y5609D01*
G01X8599Y5586D01*
G01X8644Y5541D01*
G01X8667Y5496D01*
G01X8667Y5427D01*
G01X8644Y5382D01*
G01X8622Y5359D01*
G01X8554Y5336D01*
G01X8463Y5336D01*
G01X8394Y5359D01*
G01X8372Y5382D01*
G01X8349Y5427D01*
G01X8349Y5496D01*
G01X8372Y5541D01*
G01X8417Y5586D01*
G01X8485Y5609D01*
G01X8576Y5632D01*
G01X8622Y5655D01*
G01X8644Y5700D01*
G01X8644Y5746D01*
G01X8622Y5791D01*
G01X8554Y5814D01*
G01X8463Y5814D01*
G01X8644Y7625D02*
G01X8622Y7556D01*
G01X8576Y7511D01*
G01X8508Y7488D01*
G01X8485Y7488D01*
G01X8417Y7511D01*
G01X8372Y7556D01*
G01X8349Y7625D01*
G01X8349Y7647D01*
G01X8372Y7716D01*
G01X8417Y7761D01*
G01X8485Y7784D01*
G01X8508Y7784D01*
G01X8576Y7761D01*
G01X8622Y7716D01*
G01X8644Y7625D01*
G01X8644Y7511D01*
G01X8622Y7397D01*
G01X8576Y7329D01*
G01X8508Y7306D01*
G01X8463Y7306D01*
G01X8394Y7329D01*
G01X8372Y7375D01*
G01X8249Y9463D02*
G01X8294Y9486D01*
G01X8363Y9554D01*
G01X8363Y9076D01*
G01X8649Y9554D02*
G01X8581Y9531D01*
G01X8535Y9463D01*
G01X8513Y9349D01*
G01X8513Y9281D01*
G01X8535Y9167D01*
G01X8581Y9099D01*
G01X8649Y9076D01*
G01X8694Y9076D01*
G01X8763Y9099D01*
G01X8808Y9167D01*
G01X8831Y9281D01*
G01X8831Y9349D01*
G01X8808Y9463D01*
G01X8763Y9531D01*
G01X8694Y9554D01*
G01X8649Y9554D01*
G01X7559Y10843D02*
G01X7604Y10866D01*
G01X7673Y10934D01*
G01X7673Y10456D01*
G01X7823Y10843D02*
G01X7868Y10866D01*
G01X7936Y10934D01*
G01X7936Y10456D01*
G01X5889Y12123D02*
G01X5934Y12146D01*
G01X6003Y12214D01*
G01X6003Y11736D01*
G01X6175Y12100D02*
G01X6175Y12123D01*
G01X6198Y12168D01*
G01X6221Y12191D01*
G01X6266Y12214D01*
G01X6357Y12214D01*
G01X6403Y12191D01*
G01X6425Y12168D01*
G01X6448Y12123D01*
G01X6448Y12077D01*
G01X6425Y12032D01*
G01X6380Y11964D01*
G01X6153Y11736D01*
G01X6471Y11736D01*
G54D40*
G01X37399Y13700D02*
G01X37399Y13270D01*
G01X37399Y13700D02*
G01X37583Y13700D01*
G01X37644Y13679D01*
G01X37665Y13659D01*
G01X37685Y13618D01*
G01X37685Y13556D01*
G01X37665Y13515D01*
G01X37644Y13495D01*
G01X37583Y13475D01*
G01X37399Y13475D01*
G01X37861Y13700D02*
G01X38086Y13700D01*
G01X37964Y13536D01*
G01X38025Y13536D01*
G01X38066Y13515D01*
G01X38086Y13495D01*
G01X38107Y13434D01*
G01X38107Y13393D01*
G01X38086Y13331D01*
G01X38045Y13290D01*
G01X37984Y13270D01*
G01X37923Y13270D01*
G01X37861Y13290D01*
G01X37841Y13311D01*
G01X37820Y13352D01*
G01X6399Y1900D02*
G01X6399Y1470D01*
G01X6399Y1470D02*
G01X6645Y1470D01*
G01X6780Y1900D02*
G01X6780Y1470D01*
G01X6780Y1900D02*
G01X7045Y1900D01*
G01X6780Y1695D02*
G01X6943Y1695D01*
G01X6780Y1470D02*
G01X7045Y1470D01*
G01X7180Y1900D02*
G01X7180Y1470D01*
G01X7180Y1900D02*
G01X7324Y1900D01*
G01X7385Y1879D01*
G01X7426Y1838D01*
G01X7446Y1797D01*
G01X7467Y1736D01*
G01X7467Y1634D01*
G01X7446Y1572D01*
G01X7426Y1531D01*
G01X7385Y1490D01*
G01X7324Y1470D01*
G01X7180Y1470D01*
G01X15599Y1800D02*
G01X15599Y1371D01*
G01X15599Y1371D02*
G01X15844Y1371D01*
G01X15979Y1800D02*
G01X15979Y1371D01*
G01X15979Y1800D02*
G01X16245Y1800D01*
G01X15979Y1596D02*
G01X16143Y1596D01*
G01X15979Y1371D02*
G01X16245Y1371D01*
G01X16380Y1800D02*
G01X16380Y1371D01*
G01X16380Y1800D02*
G01X16524Y1800D01*
G01X16585Y1780D01*
G01X16626Y1739D01*
G01X16646Y1698D01*
G01X16667Y1637D01*
G01X16667Y1535D01*
G01X16646Y1473D01*
G01X16626Y1432D01*
G01X16585Y1391D01*
G01X16524Y1371D01*
G01X16380Y1371D01*
G01X26399Y1800D02*
G01X26399Y1371D01*
G01X26399Y1371D02*
G01X26645Y1371D01*
G01X26780Y1800D02*
G01X26780Y1371D01*
G01X26780Y1800D02*
G01X27045Y1800D01*
G01X26780Y1596D02*
G01X26943Y1596D01*
G01X26780Y1371D02*
G01X27045Y1371D01*
G01X27180Y1800D02*
G01X27180Y1371D01*
G01X27180Y1800D02*
G01X27324Y1800D01*
G01X27385Y1780D01*
G01X27426Y1739D01*
G01X27446Y1698D01*
G01X27467Y1637D01*
G01X27467Y1535D01*
G01X27446Y1473D01*
G01X27426Y1432D01*
G01X27385Y1391D01*
G01X27324Y1371D01*
G01X27180Y1371D01*
G01X35499Y1800D02*
G01X35499Y1371D01*
G01X35499Y1371D02*
G01X35744Y1371D01*
G01X35879Y1800D02*
G01X35879Y1371D01*
G01X35879Y1800D02*
G01X36145Y1800D01*
G01X35879Y1596D02*
G01X36043Y1596D01*
G01X35879Y1371D02*
G01X36145Y1371D01*
G01X36280Y1800D02*
G01X36280Y1371D01*
G01X36280Y1800D02*
G01X36424Y1800D01*
G01X36485Y1780D01*
G01X36526Y1739D01*
G01X36546Y1698D01*
G01X36567Y1637D01*
G01X36567Y1535D01*
G01X36546Y1473D01*
G01X36526Y1432D01*
G01X36485Y1391D01*
G01X36424Y1371D01*
G01X36280Y1371D01*
G01X875Y11144D02*
G01X875Y10716D01*
G01X875Y11144D02*
G01X1059Y11144D01*
G01X1121Y11125D01*
G01X1141Y11105D01*
G01X1161Y11063D01*
G01X1161Y11001D01*
G01X1141Y10961D01*
G01X1121Y10941D01*
G01X1059Y10919D01*
G01X875Y10919D01*
G01X1296Y11063D02*
G01X1337Y11083D01*
G01X1399Y11144D01*
G01X1399Y10716D01*
G01X18299Y29099D02*
G01X18299Y28670D01*
G01X18299Y29099D02*
G01X18483Y29099D01*
G01X18544Y29079D01*
G01X18565Y29059D01*
G01X18585Y29018D01*
G01X18585Y28977D01*
G01X18565Y28936D01*
G01X18544Y28915D01*
G01X18483Y28895D01*
G01X18299Y28895D02*
G01X18483Y28895D01*
G01X18544Y28874D01*
G01X18565Y28854D01*
G01X18585Y28813D01*
G01X18585Y28752D01*
G01X18565Y28711D01*
G01X18544Y28690D01*
G01X18483Y28670D01*
G01X18299Y28670D01*
G01X18720Y29099D02*
G01X18720Y28793D01*
G01X18741Y28731D01*
G01X18782Y28690D01*
G01X18843Y28670D01*
G01X18884Y28670D01*
G01X18945Y28690D01*
G01X18986Y28731D01*
G01X19007Y28793D01*
G01X19007Y29099D01*
G01X19428Y29099D02*
G01X19142Y28670D01*
G01X19142Y29099D02*
G01X19428Y29099D01*
G01X19142Y28670D02*
G01X19428Y28670D01*
G01X3299Y25900D02*
G01X3299Y25524D01*
G01X3550Y25900D02*
G01X3550Y25524D01*
G01X3299Y25721D02*
G01X3550Y25721D01*
G01X3668Y25900D02*
G01X3668Y25524D01*
G01X3668Y25900D02*
G01X3900Y25900D01*
G01X3668Y25721D02*
G01X3811Y25721D01*
G01X3668Y25524D02*
G01X3900Y25524D01*
G01X4018Y25900D02*
G01X4018Y25524D01*
G01X4018Y25900D02*
G01X4179Y25900D01*
G01X4233Y25882D01*
G01X4251Y25864D01*
G01X4269Y25828D01*
G01X4269Y25792D01*
G01X4251Y25756D01*
G01X4233Y25738D01*
G01X4179Y25721D01*
G01X4018Y25721D01*
G01X4144Y25721D02*
G01X4269Y25524D01*
G01X4387Y25828D02*
G01X4423Y25846D01*
G01X4477Y25900D01*
G01X4477Y25524D01*
G01X4702Y25900D02*
G01X4648Y25882D01*
G01X4613Y25828D01*
G01X4595Y25738D01*
G01X4595Y25685D01*
G01X4613Y25595D01*
G01X4648Y25542D01*
G01X4702Y25524D01*
G01X4738Y25524D01*
G01X4791Y25542D01*
G01X4827Y25595D01*
G01X4845Y25685D01*
G01X4845Y25738D01*
G01X4827Y25828D01*
G01X4791Y25882D01*
G01X4738Y25900D01*
G01X4702Y25900D01*
G01X5178Y25846D02*
G01X5160Y25882D01*
G01X5106Y25900D01*
G01X5071Y25900D01*
G01X5017Y25882D01*
G01X4981Y25828D01*
G01X4963Y25738D01*
G01X4963Y25649D01*
G01X4981Y25577D01*
G01X5017Y25542D01*
G01X5071Y25524D01*
G01X5089Y25524D01*
G01X5142Y25542D01*
G01X5178Y25577D01*
G01X5196Y25631D01*
G01X5196Y25649D01*
G01X5178Y25703D01*
G01X5142Y25738D01*
G01X5089Y25756D01*
G01X5071Y25756D01*
G01X5017Y25738D01*
G01X4981Y25703D01*
G01X4963Y25649D01*
G01X505Y28600D02*
G01X300Y28314D01*
G01X607Y28314D01*
G01X505Y28600D02*
G01X505Y28171D01*
G01X762Y28273D02*
G01X742Y28253D01*
G01X762Y28232D01*
G01X783Y28253D01*
G01X762Y28273D01*
G01X1204Y28600D02*
G01X1000Y28171D01*
G01X918Y28600D02*
G01X1204Y28600D01*
G01X1339Y28600D02*
G01X1339Y28294D01*
G01X1360Y28232D01*
G01X1401Y28191D01*
G01X1462Y28171D01*
G01X1503Y28171D01*
G01X1564Y28191D01*
G01X1605Y28232D01*
G01X1626Y28294D01*
G01X1626Y28600D01*
G01X1761Y28600D02*
G01X1761Y28171D01*
G01X1761Y28600D02*
G01X2026Y28600D01*
G01X1761Y28396D02*
G01X1924Y28396D01*
G01X2161Y28028D02*
G01X2530Y28028D01*
G01X2706Y28600D02*
G01X2931Y28600D01*
G01X2808Y28437D01*
G01X2869Y28437D01*
G01X2910Y28416D01*
G01X2931Y28396D01*
G01X2951Y28335D01*
G01X2951Y28294D01*
G01X2931Y28232D01*
G01X2890Y28191D01*
G01X2828Y28171D01*
G01X2767Y28171D01*
G01X2706Y28191D01*
G01X2685Y28212D01*
G01X2665Y28253D01*
G01X3331Y28600D02*
G01X3127Y28600D01*
G01X3106Y28416D01*
G01X3127Y28437D01*
G01X3188Y28457D01*
G01X3250Y28457D01*
G01X3311Y28437D01*
G01X3352Y28396D01*
G01X3372Y28335D01*
G01X3372Y28294D01*
G01X3352Y28232D01*
G01X3311Y28191D01*
G01X3250Y28171D01*
G01X3188Y28171D01*
G01X3127Y28191D01*
G01X3106Y28212D01*
G01X3086Y28253D01*
G01X3630Y28600D02*
G01X3569Y28580D01*
G01X3528Y28519D01*
G01X3507Y28416D01*
G01X3507Y28355D01*
G01X3528Y28253D01*
G01X3569Y28191D01*
G01X3630Y28171D01*
G01X3671Y28171D01*
G01X3732Y28191D01*
G01X3773Y28253D01*
G01X3794Y28355D01*
G01X3794Y28416D01*
G01X3773Y28519D01*
G01X3732Y28580D01*
G01X3671Y28600D01*
G01X3630Y28600D01*
G01X3929Y28600D02*
G01X4092Y28171D01*
G01X4256Y28600D02*
G01X4092Y28171D01*
G01X17199Y19219D02*
G01X17240Y19239D01*
G01X17301Y19300D01*
G01X17301Y18870D01*
G01X17559Y19300D02*
G01X17498Y19280D01*
G01X17457Y19219D01*
G01X17436Y19116D01*
G01X17436Y19055D01*
G01X17457Y18952D01*
G01X17498Y18891D01*
G01X17559Y18870D01*
G01X17600Y18870D01*
G01X17661Y18891D01*
G01X17702Y18952D01*
G01X17723Y19055D01*
G01X17723Y19116D01*
G01X17702Y19219D01*
G01X17661Y19280D01*
G01X17600Y19300D01*
G01X17559Y19300D01*
G01X17980Y19300D02*
G01X17919Y19280D01*
G01X17878Y19219D01*
G01X17858Y19116D01*
G01X17858Y19055D01*
G01X17878Y18952D01*
G01X17919Y18891D01*
G01X17980Y18870D01*
G01X18021Y18870D01*
G01X18083Y18891D01*
G01X18124Y18952D01*
G01X18144Y19055D01*
G01X18144Y19116D01*
G01X18124Y19219D01*
G01X18083Y19280D01*
G01X18021Y19300D01*
G01X17980Y19300D01*
G01X13179Y23299D02*
G01X13485Y23299D01*
G01X13547Y23319D01*
G01X13588Y23360D01*
G01X13608Y23422D01*
G01X13608Y23463D01*
G01X13588Y23524D01*
G01X13547Y23565D01*
G01X13485Y23585D01*
G01X13179Y23585D01*
G01X13179Y23761D02*
G01X13179Y23986D01*
G01X13342Y23864D01*
G01X13342Y23925D01*
G01X13363Y23966D01*
G01X13383Y23986D01*
G01X13444Y24007D01*
G01X13485Y24007D01*
G01X13547Y23986D01*
G01X13588Y23945D01*
G01X13608Y23884D01*
G01X13608Y23823D01*
G01X13588Y23761D01*
G01X13567Y23741D01*
G01X13526Y23720D01*
G01X13179Y25699D02*
G01X13485Y25699D01*
G01X13547Y25719D01*
G01X13588Y25760D01*
G01X13608Y25822D01*
G01X13608Y25863D01*
G01X13588Y25924D01*
G01X13547Y25965D01*
G01X13485Y25985D01*
G01X13179Y25985D01*
G01X13179Y26325D02*
G01X13465Y26120D01*
G01X13465Y26427D01*
G01X13179Y26325D02*
G01X13608Y26325D01*
G01X13179Y28099D02*
G01X13485Y28099D01*
G01X13547Y28119D01*
G01X13588Y28160D01*
G01X13608Y28222D01*
G01X13608Y28263D01*
G01X13588Y28324D01*
G01X13547Y28365D01*
G01X13485Y28385D01*
G01X13179Y28385D01*
G01X13179Y28766D02*
G01X13179Y28561D01*
G01X13363Y28541D01*
G01X13342Y28561D01*
G01X13322Y28623D01*
G01X13322Y28684D01*
G01X13342Y28745D01*
G01X13383Y28786D01*
G01X13444Y28807D01*
G01X13485Y28807D01*
G01X13547Y28786D01*
G01X13588Y28745D01*
G01X13608Y28684D01*
G01X13608Y28623D01*
G01X13588Y28561D01*
G01X13567Y28541D01*
G01X13526Y28520D01*
G01X5379Y22192D02*
G01X5359Y22233D01*
G01X5298Y22294D01*
G01X5727Y22294D01*
G01X5298Y22552D02*
G01X5318Y22491D01*
G01X5379Y22450D01*
G01X5482Y22429D01*
G01X5543Y22429D01*
G01X5645Y22450D01*
G01X5707Y22491D01*
G01X5727Y22552D01*
G01X5727Y22593D01*
G01X5707Y22654D01*
G01X5645Y22695D01*
G01X5543Y22716D01*
G01X5482Y22716D01*
G01X5379Y22695D01*
G01X5318Y22654D01*
G01X5298Y22593D01*
G01X5298Y22552D01*
G01X5298Y22851D02*
G01X5727Y22851D01*
G01X5298Y23137D02*
G01X5584Y22851D01*
G01X5482Y22953D02*
G01X5727Y23137D01*
G01X37499Y17300D02*
G01X37499Y16871D01*
G01X37499Y17300D02*
G01X37683Y17300D01*
G01X37744Y17280D01*
G01X37765Y17259D01*
G01X37785Y17219D01*
G01X37785Y17157D01*
G01X37765Y17116D01*
G01X37744Y17096D01*
G01X37683Y17075D01*
G01X37499Y17075D01*
G01X38125Y17300D02*
G01X37920Y17014D01*
G01X38227Y17014D01*
G01X38125Y17300D02*
G01X38125Y16871D01*
G01X32828Y21099D02*
G01X32399Y21099D01*
G01X32828Y21099D02*
G01X32828Y20956D01*
G01X32808Y20894D01*
G01X32767Y20854D01*
G01X32726Y20833D01*
G01X32665Y20813D01*
G01X32563Y20813D01*
G01X32501Y20833D01*
G01X32460Y20854D01*
G01X32419Y20894D01*
G01X32399Y20956D01*
G01X32399Y21099D01*
G01X32747Y20543D02*
G01X32767Y20502D01*
G01X32828Y20440D01*
G01X32399Y20440D01*
G01X2655Y21799D02*
G01X2635Y21840D01*
G01X2574Y21901D01*
G01X3003Y21901D01*
G01X2574Y22282D02*
G01X2574Y22077D01*
G01X2758Y22057D01*
G01X2737Y22077D01*
G01X2717Y22139D01*
G01X2717Y22200D01*
G01X2737Y22261D01*
G01X2778Y22302D01*
G01X2840Y22323D01*
G01X2880Y22323D01*
G01X2942Y22302D01*
G01X2983Y22261D01*
G01X3003Y22200D01*
G01X3003Y22139D01*
G01X2983Y22077D01*
G01X2962Y22057D01*
G01X2921Y22036D01*
G01X2574Y22580D02*
G01X2594Y22519D01*
G01X2655Y22478D01*
G01X2758Y22458D01*
G01X2819Y22458D01*
G01X2921Y22478D01*
G01X2983Y22519D01*
G01X3003Y22580D01*
G01X3003Y22621D01*
G01X2983Y22683D01*
G01X2921Y22724D01*
G01X2819Y22744D01*
G01X2758Y22744D01*
G01X2655Y22724D01*
G01X2594Y22683D01*
G01X2574Y22621D01*
G01X2574Y22580D01*
G01X24399Y30999D02*
G01X24399Y30693D01*
G01X24420Y30631D01*
G01X24461Y30590D01*
G01X24522Y30570D01*
G01X24563Y30570D01*
G01X24624Y30590D01*
G01X24665Y30631D01*
G01X24686Y30693D01*
G01X24686Y30999D01*
G01X24821Y30918D02*
G01X24862Y30938D01*
G01X24923Y30999D01*
G01X24923Y30570D01*
G54D38*
G01X22226Y30299D02*
G01X22226Y29917D01*
G01X22099Y30299D02*
G01X22354Y30299D01*
G01X22474Y30299D02*
G01X22728Y29917D01*
G01X22728Y30299D02*
G01X22474Y29917D01*
G01X22848Y30226D02*
G01X22884Y30245D01*
G01X22939Y30299D01*
G01X22939Y29917D01*
G01X26072Y29208D02*
G01X26054Y29245D01*
G01X26017Y29281D01*
G01X25981Y29299D01*
G01X25908Y29299D01*
G01X25872Y29281D01*
G01X25835Y29245D01*
G01X25817Y29208D01*
G01X25799Y29154D01*
G01X25799Y29063D01*
G01X25817Y29008D01*
G01X25835Y28972D01*
G01X25872Y28936D01*
G01X25908Y28917D01*
G01X25981Y28917D01*
G01X26017Y28936D01*
G01X26054Y28972D01*
G01X26072Y29008D01*
G01X26072Y29063D01*
G01X25981Y29063D02*
G01X26072Y29063D01*
G01X26192Y29299D02*
G01X26192Y28917D01*
G01X26192Y29299D02*
G01X26446Y28917D01*
G01X26446Y29299D02*
G01X26446Y28917D01*
G01X26566Y29299D02*
G01X26566Y28917D01*
G01X26566Y29299D02*
G01X26694Y29299D01*
G01X26748Y29281D01*
G01X26784Y29245D01*
G01X26803Y29208D01*
G01X26821Y29154D01*
G01X26821Y29063D01*
G01X26803Y29008D01*
G01X26784Y28972D01*
G01X26748Y28936D01*
G01X26694Y28917D01*
G01X26566Y28917D01*
G01X28717Y27217D02*
G01X28535Y27217D01*
G01X28517Y27054D01*
G01X28535Y27072D01*
G01X28590Y27090D01*
G01X28644Y27090D01*
G01X28699Y27072D01*
G01X28735Y27035D01*
G01X28754Y26981D01*
G01X28754Y26944D01*
G01X28735Y26890D01*
G01X28699Y26854D01*
G01X28644Y26835D01*
G01X28590Y26835D01*
G01X28535Y26854D01*
G01X28517Y26872D01*
G01X28499Y26908D01*
G01X28874Y27217D02*
G01X29019Y26835D01*
G01X29164Y27217D02*
G01X29019Y26835D01*
G01X21999Y16226D02*
G01X21999Y15844D01*
G01X21999Y16226D02*
G01X22144Y15844D01*
G01X22290Y16226D02*
G01X22144Y15844D01*
G01X22290Y16226D02*
G01X22290Y15844D01*
G01X22410Y16226D02*
G01X22410Y15844D01*
G01X22784Y16172D02*
G01X22748Y16208D01*
G01X22694Y16226D01*
G01X22621Y16226D01*
G01X22566Y16208D01*
G01X22530Y16172D01*
G01X22530Y16135D01*
G01X22548Y16099D01*
G01X22566Y16081D01*
G01X22603Y16063D01*
G01X22712Y16026D01*
G01X22748Y16008D01*
G01X22766Y15990D01*
G01X22784Y15953D01*
G01X22784Y15899D01*
G01X22748Y15863D01*
G01X22694Y15844D01*
G01X22621Y15844D01*
G01X22566Y15863D01*
G01X22530Y15899D01*
G01X23014Y16226D02*
G01X22977Y16208D01*
G01X22941Y16172D01*
G01X22923Y16135D01*
G01X22904Y16081D01*
G01X22904Y15990D01*
G01X22923Y15935D01*
G01X22941Y15899D01*
G01X22977Y15863D01*
G01X23014Y15844D01*
G01X23086Y15844D01*
G01X23123Y15863D01*
G01X23159Y15899D01*
G01X23177Y15935D01*
G01X23195Y15990D01*
G01X23195Y16081D01*
G01X23177Y16135D01*
G01X23159Y16172D01*
G01X23123Y16208D01*
G01X23086Y16226D01*
G01X23014Y16226D01*
G01X23643Y16299D02*
G01X23315Y15717D01*
G01X23763Y16226D02*
G01X23763Y15844D01*
G01X23763Y16226D02*
G01X23890Y16226D01*
G01X23944Y16208D01*
G01X23981Y16172D01*
G01X23999Y16135D01*
G01X24017Y16081D01*
G01X24017Y15990D01*
G01X23999Y15935D01*
G01X23981Y15899D01*
G01X23944Y15863D01*
G01X23890Y15844D01*
G01X23763Y15844D01*
G01X24137Y16153D02*
G01X24174Y16172D01*
G01X24228Y16226D01*
G01X24228Y15844D01*
G01X24366Y16135D02*
G01X24366Y16153D01*
G01X24384Y16190D01*
G01X24403Y16208D01*
G01X24439Y16226D01*
G01X24512Y16226D01*
G01X24548Y16208D01*
G01X24566Y16190D01*
G01X24584Y16153D01*
G01X24584Y16117D01*
G01X24566Y16081D01*
G01X24530Y16026D01*
G01X24348Y15844D01*
G01X24603Y15844D01*
G01X25899Y30381D02*
G01X26044Y29999D01*
G01X26190Y30381D02*
G01X26044Y29999D01*
G01X26310Y30381D02*
G01X26328Y30363D01*
G01X26346Y30381D01*
G01X26328Y30399D01*
G01X26310Y30381D01*
G01X26328Y30254D02*
G01X26328Y29999D01*
G01X26466Y30254D02*
G01X26466Y29999D01*
G01X26466Y30181D02*
G01X26521Y30236D01*
G01X26557Y30254D01*
G01X26612Y30254D01*
G01X26648Y30236D01*
G01X26666Y30181D01*
G01X26666Y29999D01*
G01X28499Y16217D02*
G01X28499Y15835D01*
G01X28499Y16217D02*
G01X28626Y16217D01*
G01X28681Y16199D01*
G01X28717Y16163D01*
G01X28735Y16126D01*
G01X28754Y16072D01*
G01X28754Y15981D01*
G01X28735Y15926D01*
G01X28717Y15890D01*
G01X28681Y15854D01*
G01X28626Y15835D01*
G01X28499Y15835D01*
G01X28874Y16144D02*
G01X28910Y16163D01*
G01X28964Y16217D01*
G01X28964Y15835D01*
G01X29121Y16217D02*
G01X29321Y16217D01*
G01X29212Y16072D01*
G01X29266Y16072D01*
G01X29303Y16054D01*
G01X29321Y16035D01*
G01X29339Y15981D01*
G01X29339Y15944D01*
G01X29321Y15890D01*
G01X29284Y15854D01*
G01X29230Y15835D01*
G01X29175Y15835D01*
G01X29121Y15854D01*
G01X29103Y15872D01*
G01X29084Y15908D01*
G01X29786Y16290D02*
G01X29459Y15708D01*
G01X30179Y16126D02*
G01X30161Y16163D01*
G01X30124Y16199D01*
G01X30088Y16217D01*
G01X30015Y16217D01*
G01X29979Y16199D01*
G01X29943Y16163D01*
G01X29924Y16126D01*
G01X29906Y16072D01*
G01X29906Y15981D01*
G01X29924Y15926D01*
G01X29943Y15890D01*
G01X29979Y15854D01*
G01X30015Y15835D01*
G01X30088Y15835D01*
G01X30124Y15854D01*
G01X30161Y15890D01*
G01X30179Y15926D01*
G01X30299Y16217D02*
G01X30299Y15835D01*
G01X30299Y15835D02*
G01X30517Y15835D01*
G01X30637Y16217D02*
G01X30637Y15835D01*
G01X30892Y16217D02*
G01X30637Y15963D01*
G01X30728Y16054D02*
G01X30892Y15835D01*
G01X22272Y27208D02*
G01X22254Y27245D01*
G01X22217Y27281D01*
G01X22181Y27299D01*
G01X22108Y27299D01*
G01X22072Y27281D01*
G01X22035Y27245D01*
G01X22017Y27208D01*
G01X21999Y27154D01*
G01X21999Y27063D01*
G01X22017Y27008D01*
G01X22035Y26972D01*
G01X22072Y26936D01*
G01X22108Y26917D01*
G01X22181Y26917D01*
G01X22217Y26936D01*
G01X22254Y26972D01*
G01X22272Y27008D01*
G01X22272Y27063D01*
G01X22181Y27063D02*
G01X22272Y27063D01*
G01X22392Y27299D02*
G01X22392Y26917D01*
G01X22392Y27299D02*
G01X22646Y26917D01*
G01X22646Y27299D02*
G01X22646Y26917D01*
G01X22766Y27299D02*
G01X22766Y26917D01*
G01X22766Y27299D02*
G01X22894Y27299D01*
G01X22948Y27281D01*
G01X22984Y27245D01*
G01X23003Y27208D01*
G01X23021Y27154D01*
G01X23021Y27063D01*
G01X23003Y27008D01*
G01X22984Y26972D01*
G01X22948Y26936D01*
G01X22894Y26917D01*
G01X22766Y26917D01*
G01X22099Y29299D02*
G01X22099Y28917D01*
G01X22099Y29299D02*
G01X22263Y29299D01*
G01X22317Y29281D01*
G01X22335Y29263D01*
G01X22354Y29226D01*
G01X22354Y29190D01*
G01X22335Y29154D01*
G01X22317Y29136D01*
G01X22263Y29117D01*
G01X22099Y29117D01*
G01X22226Y29117D02*
G01X22354Y28917D01*
G01X22474Y29299D02*
G01X22728Y28917D01*
G01X22728Y29299D02*
G01X22474Y28917D01*
G01X22848Y29226D02*
G01X22884Y29245D01*
G01X22939Y29299D01*
G01X22939Y28917D01*
G01X21999Y28299D02*
G01X21999Y27917D01*
G01X21999Y28299D02*
G01X22163Y28299D01*
G01X22217Y28281D01*
G01X22235Y28263D01*
G01X22254Y28226D01*
G01X22254Y28190D01*
G01X22235Y28154D01*
G01X22217Y28136D01*
G01X22163Y28117D01*
G01X21999Y28117D01*
G01X22126Y28117D02*
G01X22254Y27917D01*
G01X22628Y28245D02*
G01X22592Y28281D01*
G01X22537Y28299D01*
G01X22464Y28299D01*
G01X22410Y28281D01*
G01X22374Y28245D01*
G01X22374Y28208D01*
G01X22392Y28172D01*
G01X22410Y28154D01*
G01X22446Y28136D01*
G01X22555Y28099D01*
G01X22592Y28081D01*
G01X22610Y28063D01*
G01X22628Y28026D01*
G01X22628Y27972D01*
G01X22592Y27936D01*
G01X22537Y27917D01*
G01X22464Y27917D01*
G01X22410Y27936D01*
G01X22374Y27972D01*
G01X22875Y28299D02*
G01X22875Y27917D01*
G01X22748Y28299D02*
G01X23003Y28299D01*
G01X22099Y26299D02*
G01X22099Y25917D01*
G01X22099Y26299D02*
G01X22226Y26299D01*
G01X22281Y26281D01*
G01X22317Y26245D01*
G01X22335Y26208D01*
G01X22354Y26154D01*
G01X22354Y26063D01*
G01X22335Y26008D01*
G01X22317Y25972D01*
G01X22281Y25936D01*
G01X22226Y25917D01*
G01X22099Y25917D01*
G01X22492Y26208D02*
G01X22492Y26226D01*
G01X22510Y26263D01*
G01X22528Y26281D01*
G01X22564Y26299D01*
G01X22637Y26299D01*
G01X22674Y26281D01*
G01X22692Y26263D01*
G01X22710Y26226D01*
G01X22710Y26190D01*
G01X22692Y26154D01*
G01X22655Y26099D01*
G01X22474Y25917D01*
G01X22728Y25917D01*
G01X19399Y25217D02*
G01X19399Y24835D01*
G01X19399Y25217D02*
G01X19526Y25217D01*
G01X19581Y25199D01*
G01X19617Y25163D01*
G01X19635Y25126D01*
G01X19654Y25072D01*
G01X19654Y24981D01*
G01X19635Y24926D01*
G01X19617Y24890D01*
G01X19581Y24854D01*
G01X19526Y24835D01*
G01X19399Y24835D01*
G01X19810Y25217D02*
G01X20010Y25217D01*
G01X19901Y25072D01*
G01X19955Y25072D01*
G01X19992Y25054D01*
G01X20010Y25035D01*
G01X20028Y24981D01*
G01X20028Y24944D01*
G01X20010Y24890D01*
G01X19974Y24854D01*
G01X19919Y24835D01*
G01X19864Y24835D01*
G01X19810Y24854D01*
G01X19792Y24872D01*
G01X19774Y24908D01*
G01X19399Y24217D02*
G01X19399Y23835D01*
G01X19399Y24217D02*
G01X19526Y24217D01*
G01X19581Y24199D01*
G01X19617Y24163D01*
G01X19635Y24126D01*
G01X19654Y24072D01*
G01X19654Y23981D01*
G01X19635Y23926D01*
G01X19617Y23890D01*
G01X19581Y23854D01*
G01X19526Y23835D01*
G01X19399Y23835D01*
G01X19955Y24217D02*
G01X19774Y23963D01*
G01X20046Y23963D01*
G01X19955Y24217D02*
G01X19955Y23835D01*
G01X19399Y23317D02*
G01X19399Y22935D01*
G01X19399Y23317D02*
G01X19526Y23317D01*
G01X19581Y23299D01*
G01X19617Y23263D01*
G01X19635Y23226D01*
G01X19654Y23172D01*
G01X19654Y23081D01*
G01X19635Y23026D01*
G01X19617Y22990D01*
G01X19581Y22954D01*
G01X19526Y22935D01*
G01X19399Y22935D01*
G01X19992Y23317D02*
G01X19810Y23317D01*
G01X19792Y23154D01*
G01X19810Y23172D01*
G01X19864Y23190D01*
G01X19919Y23190D01*
G01X19974Y23172D01*
G01X20010Y23135D01*
G01X20028Y23081D01*
G01X20028Y23044D01*
G01X20010Y22990D01*
G01X19974Y22954D01*
G01X19919Y22935D01*
G01X19864Y22935D01*
G01X19810Y22954D01*
G01X19792Y22972D01*
G01X19774Y23008D01*
G01X19399Y22317D02*
G01X19399Y21935D01*
G01X19399Y22317D02*
G01X19526Y22317D01*
G01X19581Y22299D01*
G01X19617Y22263D01*
G01X19635Y22226D01*
G01X19654Y22172D01*
G01X19654Y22081D01*
G01X19635Y22026D01*
G01X19617Y21990D01*
G01X19581Y21954D01*
G01X19526Y21935D01*
G01X19399Y21935D01*
G01X19992Y22263D02*
G01X19974Y22299D01*
G01X19919Y22317D01*
G01X19883Y22317D01*
G01X19828Y22299D01*
G01X19792Y22244D01*
G01X19774Y22154D01*
G01X19774Y22063D01*
G01X19792Y21990D01*
G01X19828Y21954D01*
G01X19883Y21935D01*
G01X19901Y21935D01*
G01X19955Y21954D01*
G01X19992Y21990D01*
G01X20010Y22044D01*
G01X20010Y22063D01*
G01X19992Y22117D01*
G01X19955Y22154D01*
G01X19901Y22172D01*
G01X19883Y22172D01*
G01X19828Y22154D01*
G01X19792Y22117D01*
G01X19774Y22063D01*
G01X19399Y21217D02*
G01X19399Y20835D01*
G01X19399Y21217D02*
G01X19526Y21217D01*
G01X19581Y21199D01*
G01X19617Y21163D01*
G01X19635Y21126D01*
G01X19654Y21072D01*
G01X19654Y20981D01*
G01X19635Y20926D01*
G01X19617Y20890D01*
G01X19581Y20854D01*
G01X19526Y20835D01*
G01X19399Y20835D01*
G01X20028Y21217D02*
G01X19846Y20835D01*
G01X19774Y21217D02*
G01X20028Y21217D01*
G01X19399Y20317D02*
G01X19399Y19935D01*
G01X19399Y20317D02*
G01X19526Y20317D01*
G01X19581Y20299D01*
G01X19617Y20263D01*
G01X19635Y20226D01*
G01X19654Y20172D01*
G01X19654Y20081D01*
G01X19635Y20026D01*
G01X19617Y19990D01*
G01X19581Y19954D01*
G01X19526Y19935D01*
G01X19399Y19935D01*
G01X19864Y20317D02*
G01X19810Y20299D01*
G01X19792Y20263D01*
G01X19792Y20226D01*
G01X19810Y20190D01*
G01X19846Y20172D01*
G01X19919Y20154D01*
G01X19974Y20135D01*
G01X20010Y20099D01*
G01X20028Y20063D01*
G01X20028Y20008D01*
G01X20010Y19972D01*
G01X19992Y19954D01*
G01X19937Y19935D01*
G01X19864Y19935D01*
G01X19810Y19954D01*
G01X19792Y19972D01*
G01X19774Y20008D01*
G01X19774Y20063D01*
G01X19792Y20099D01*
G01X19828Y20135D01*
G01X19883Y20154D01*
G01X19955Y20172D01*
G01X19992Y20190D01*
G01X20010Y20226D01*
G01X20010Y20263D01*
G01X19992Y20299D01*
G01X19937Y20317D01*
G01X19864Y20317D01*
G01X19399Y19317D02*
G01X19399Y18935D01*
G01X19399Y19317D02*
G01X19526Y19317D01*
G01X19581Y19299D01*
G01X19617Y19263D01*
G01X19635Y19226D01*
G01X19654Y19172D01*
G01X19654Y19081D01*
G01X19635Y19026D01*
G01X19617Y18990D01*
G01X19581Y18954D01*
G01X19526Y18935D01*
G01X19399Y18935D01*
G01X20010Y19190D02*
G01X19992Y19135D01*
G01X19955Y19099D01*
G01X19901Y19081D01*
G01X19883Y19081D01*
G01X19828Y19099D01*
G01X19792Y19135D01*
G01X19774Y19190D01*
G01X19774Y19208D01*
G01X19792Y19263D01*
G01X19828Y19299D01*
G01X19883Y19317D01*
G01X19901Y19317D01*
G01X19955Y19299D01*
G01X19992Y19263D01*
G01X20010Y19190D01*
G01X20010Y19099D01*
G01X19992Y19008D01*
G01X19955Y18954D01*
G01X19901Y18935D01*
G01X19864Y18935D01*
G01X19810Y18954D01*
G01X19792Y18990D01*
G01X22272Y18235D02*
G01X22254Y18272D01*
G01X22217Y18308D01*
G01X22181Y18326D01*
G01X22108Y18326D01*
G01X22072Y18308D01*
G01X22035Y18272D01*
G01X22017Y18235D01*
G01X21999Y18181D01*
G01X21999Y18090D01*
G01X22017Y18035D01*
G01X22035Y17999D01*
G01X22072Y17963D01*
G01X22108Y17944D01*
G01X22181Y17944D01*
G01X22217Y17963D01*
G01X22254Y17999D01*
G01X22272Y18035D01*
G01X22646Y18272D02*
G01X22610Y18308D01*
G01X22555Y18326D01*
G01X22483Y18326D01*
G01X22428Y18308D01*
G01X22392Y18272D01*
G01X22392Y18235D01*
G01X22410Y18199D01*
G01X22428Y18181D01*
G01X22464Y18163D01*
G01X22574Y18126D01*
G01X22610Y18108D01*
G01X22628Y18090D01*
G01X22646Y18053D01*
G01X22646Y17999D01*
G01X22610Y17963D01*
G01X22555Y17944D01*
G01X22483Y17944D01*
G01X22428Y17963D01*
G01X22392Y17999D01*
G01X23094Y18399D02*
G01X22766Y17817D01*
G01X23214Y18326D02*
G01X23214Y17944D01*
G01X23214Y18326D02*
G01X23341Y18326D01*
G01X23395Y18308D01*
G01X23432Y18272D01*
G01X23450Y18235D01*
G01X23468Y18181D01*
G01X23468Y18090D01*
G01X23450Y18035D01*
G01X23432Y17999D01*
G01X23395Y17963D01*
G01X23341Y17944D01*
G01X23214Y17944D01*
G01X23588Y18253D02*
G01X23624Y18272D01*
G01X23679Y18326D01*
G01X23679Y17944D01*
G01X23908Y18326D02*
G01X23854Y18308D01*
G01X23817Y18253D01*
G01X23799Y18163D01*
G01X23799Y18108D01*
G01X23817Y18017D01*
G01X23854Y17963D01*
G01X23908Y17944D01*
G01X23944Y17944D01*
G01X23999Y17963D01*
G01X24035Y18017D01*
G01X24054Y18108D01*
G01X24054Y18163D01*
G01X24035Y18253D01*
G01X23999Y18308D01*
G01X23944Y18326D01*
G01X23908Y18326D01*
G01X21999Y17326D02*
G01X21999Y16944D01*
G01X21999Y17326D02*
G01X22144Y16944D01*
G01X22290Y17326D02*
G01X22144Y16944D01*
G01X22290Y17326D02*
G01X22290Y16944D01*
G01X22519Y17326D02*
G01X22483Y17308D01*
G01X22446Y17272D01*
G01X22428Y17235D01*
G01X22410Y17181D01*
G01X22410Y17090D01*
G01X22428Y17035D01*
G01X22446Y16999D01*
G01X22483Y16963D01*
G01X22519Y16944D01*
G01X22592Y16944D01*
G01X22628Y16963D01*
G01X22664Y16999D01*
G01X22683Y17035D01*
G01X22701Y17090D01*
G01X22701Y17181D01*
G01X22683Y17235D01*
G01X22664Y17272D01*
G01X22628Y17308D01*
G01X22592Y17326D01*
G01X22519Y17326D01*
G01X23075Y17272D02*
G01X23039Y17308D01*
G01X22984Y17326D01*
G01X22912Y17326D01*
G01X22857Y17308D01*
G01X22821Y17272D01*
G01X22821Y17235D01*
G01X22839Y17199D01*
G01X22857Y17181D01*
G01X22894Y17163D01*
G01X23003Y17126D01*
G01X23039Y17108D01*
G01X23057Y17090D01*
G01X23075Y17053D01*
G01X23075Y16999D01*
G01X23039Y16963D01*
G01X22984Y16944D01*
G01X22912Y16944D01*
G01X22857Y16963D01*
G01X22821Y16999D01*
G01X23195Y17326D02*
G01X23195Y16944D01*
G01X23643Y17399D02*
G01X23315Y16817D01*
G01X23763Y17326D02*
G01X23763Y16944D01*
G01X23763Y17326D02*
G01X23890Y17326D01*
G01X23944Y17308D01*
G01X23981Y17272D01*
G01X23999Y17235D01*
G01X24017Y17181D01*
G01X24017Y17090D01*
G01X23999Y17035D01*
G01X23981Y16999D01*
G01X23944Y16963D01*
G01X23890Y16944D01*
G01X23763Y16944D01*
G01X24137Y17253D02*
G01X24174Y17272D01*
G01X24228Y17326D01*
G01X24228Y16944D01*
G01X24348Y17253D02*
G01X24384Y17272D01*
G01X24439Y17326D01*
G01X24439Y16944D01*
G01X28435Y17199D02*
G01X28635Y17199D01*
G01X28526Y17054D01*
G01X28581Y17054D01*
G01X28617Y17036D01*
G01X28635Y17017D01*
G01X28654Y16963D01*
G01X28654Y16926D01*
G01X28635Y16872D01*
G01X28599Y16836D01*
G01X28544Y16817D01*
G01X28490Y16817D01*
G01X28435Y16836D01*
G01X28417Y16854D01*
G01X28399Y16890D01*
G01X28774Y17199D02*
G01X28919Y16817D01*
G01X29064Y17199D02*
G01X28919Y16817D01*
G01X29221Y17199D02*
G01X29421Y17199D01*
G01X29312Y17054D01*
G01X29366Y17054D01*
G01X29403Y17036D01*
G01X29421Y17017D01*
G01X29439Y16963D01*
G01X29439Y16926D01*
G01X29421Y16872D01*
G01X29384Y16836D01*
G01X29330Y16817D01*
G01X29275Y16817D01*
G01X29221Y16836D01*
G01X29203Y16854D01*
G01X29184Y16890D01*
G01X28499Y18317D02*
G01X28499Y17935D01*
G01X28499Y18317D02*
G01X28663Y18317D01*
G01X28717Y18299D01*
G01X28735Y18281D01*
G01X28754Y18244D01*
G01X28754Y18208D01*
G01X28735Y18172D01*
G01X28717Y18154D01*
G01X28663Y18135D01*
G01X28499Y18135D01*
G01X28626Y18135D02*
G01X28754Y17935D01*
G01X28874Y18317D02*
G01X28874Y17935D01*
G01X28874Y18317D02*
G01X29110Y18317D01*
G01X28874Y18135D02*
G01X29019Y18135D01*
G01X28874Y17935D02*
G01X29110Y17935D01*
G01X29230Y18317D02*
G01X29230Y17935D01*
G01X29230Y18317D02*
G01X29466Y18317D01*
G01X29230Y18135D02*
G01X29375Y18135D01*
G01X28644Y19217D02*
G01X28499Y18835D01*
G01X28644Y19217D02*
G01X28790Y18835D01*
G01X28554Y18963D02*
G01X28735Y18963D01*
G01X29019Y19217D02*
G01X28964Y19199D01*
G01X28928Y19144D01*
G01X28910Y19054D01*
G01X28910Y18999D01*
G01X28928Y18908D01*
G01X28964Y18854D01*
G01X29019Y18835D01*
G01X29055Y18835D01*
G01X29110Y18854D01*
G01X29146Y18908D01*
G01X29164Y18999D01*
G01X29164Y19054D01*
G01X29146Y19144D01*
G01X29110Y19199D01*
G01X29055Y19217D01*
G01X29019Y19217D01*
G01X28644Y20317D02*
G01X28499Y19935D01*
G01X28644Y20317D02*
G01X28790Y19935D01*
G01X28554Y20063D02*
G01X28735Y20063D01*
G01X28910Y20244D02*
G01X28946Y20263D01*
G01X29001Y20317D01*
G01X29001Y19935D01*
G01X28644Y21217D02*
G01X28499Y20835D01*
G01X28644Y21217D02*
G01X28790Y20835D01*
G01X28554Y20963D02*
G01X28735Y20963D01*
G01X28928Y21126D02*
G01X28928Y21144D01*
G01X28946Y21181D01*
G01X28964Y21199D01*
G01X29001Y21217D01*
G01X29074Y21217D01*
G01X29110Y21199D01*
G01X29128Y21181D01*
G01X29146Y21144D01*
G01X29146Y21108D01*
G01X29128Y21072D01*
G01X29092Y21017D01*
G01X28910Y20835D01*
G01X29164Y20835D01*
G01X28644Y22317D02*
G01X28499Y21935D01*
G01X28644Y22317D02*
G01X28790Y21935D01*
G01X28554Y22063D02*
G01X28735Y22063D01*
G01X28946Y22317D02*
G01X29146Y22317D01*
G01X29037Y22172D01*
G01X29092Y22172D01*
G01X29128Y22154D01*
G01X29146Y22135D01*
G01X29164Y22081D01*
G01X29164Y22044D01*
G01X29146Y21990D01*
G01X29110Y21954D01*
G01X29055Y21935D01*
G01X29001Y21935D01*
G01X28946Y21954D01*
G01X28928Y21972D01*
G01X28910Y22008D01*
G01X28644Y23317D02*
G01X28499Y22935D01*
G01X28644Y23317D02*
G01X28790Y22935D01*
G01X28554Y23063D02*
G01X28735Y23063D01*
G01X29092Y23317D02*
G01X28910Y23063D01*
G01X29183Y23063D01*
G01X29092Y23317D02*
G01X29092Y22935D01*
G01X29630Y23390D02*
G01X29303Y22808D01*
G01X30004Y23263D02*
G01X29968Y23299D01*
G01X29914Y23317D01*
G01X29841Y23317D01*
G01X29786Y23299D01*
G01X29750Y23263D01*
G01X29750Y23226D01*
G01X29768Y23190D01*
G01X29786Y23172D01*
G01X29823Y23154D01*
G01X29932Y23117D01*
G01X29968Y23099D01*
G01X29986Y23081D01*
G01X30004Y23044D01*
G01X30004Y22990D01*
G01X29968Y22954D01*
G01X29914Y22935D01*
G01X29841Y22935D01*
G01X29786Y22954D01*
G01X29750Y22990D01*
G01X30124Y23317D02*
G01X30124Y22935D01*
G01X30124Y23317D02*
G01X30252Y23317D01*
G01X30306Y23299D01*
G01X30343Y23263D01*
G01X30361Y23226D01*
G01X30379Y23172D01*
G01X30379Y23081D01*
G01X30361Y23026D01*
G01X30343Y22990D01*
G01X30306Y22954D01*
G01X30252Y22935D01*
G01X30124Y22935D01*
G01X30644Y23317D02*
G01X30499Y22935D01*
G01X30644Y23317D02*
G01X30790Y22935D01*
G01X30554Y23063D02*
G01X30735Y23063D01*
G01X28644Y24317D02*
G01X28499Y23935D01*
G01X28644Y24317D02*
G01X28790Y23935D01*
G01X28554Y24063D02*
G01X28735Y24063D01*
G01X29128Y24317D02*
G01X28946Y24317D01*
G01X28928Y24154D01*
G01X28946Y24172D01*
G01X29001Y24190D01*
G01X29055Y24190D01*
G01X29110Y24172D01*
G01X29146Y24135D01*
G01X29164Y24081D01*
G01X29164Y24044D01*
G01X29146Y23990D01*
G01X29110Y23954D01*
G01X29055Y23935D01*
G01X29001Y23935D01*
G01X28946Y23954D01*
G01X28928Y23972D01*
G01X28910Y24008D01*
G01X29612Y24390D02*
G01X29284Y23808D01*
G01X29986Y24263D02*
G01X29950Y24299D01*
G01X29895Y24317D01*
G01X29823Y24317D01*
G01X29768Y24299D01*
G01X29732Y24263D01*
G01X29732Y24226D01*
G01X29750Y24190D01*
G01X29768Y24172D01*
G01X29804Y24154D01*
G01X29914Y24117D01*
G01X29950Y24099D01*
G01X29968Y24081D01*
G01X29986Y24044D01*
G01X29986Y23990D01*
G01X29950Y23954D01*
G01X29895Y23935D01*
G01X29823Y23935D01*
G01X29768Y23954D01*
G01X29732Y23990D01*
G01X30379Y24226D02*
G01X30361Y24263D01*
G01X30324Y24299D01*
G01X30288Y24317D01*
G01X30215Y24317D01*
G01X30179Y24299D01*
G01X30143Y24263D01*
G01X30124Y24226D01*
G01X30106Y24172D01*
G01X30106Y24081D01*
G01X30124Y24026D01*
G01X30143Y23990D01*
G01X30179Y23954D01*
G01X30215Y23935D01*
G01X30288Y23935D01*
G01X30324Y23954D01*
G01X30361Y23990D01*
G01X30379Y24026D01*
G01X30499Y24317D02*
G01X30499Y23935D01*
G01X30499Y23935D02*
G01X30717Y23935D01*
G01X28644Y25217D02*
G01X28499Y24835D01*
G01X28644Y25217D02*
G01X28790Y24835D01*
G01X28554Y24963D02*
G01X28735Y24963D01*
G01X29128Y25163D02*
G01X29110Y25199D01*
G01X29055Y25217D01*
G01X29019Y25217D01*
G01X28964Y25199D01*
G01X28928Y25144D01*
G01X28910Y25054D01*
G01X28910Y24963D01*
G01X28928Y24890D01*
G01X28964Y24854D01*
G01X29019Y24835D01*
G01X29037Y24835D01*
G01X29092Y24854D01*
G01X29128Y24890D01*
G01X29146Y24944D01*
G01X29146Y24963D01*
G01X29128Y25017D01*
G01X29092Y25054D01*
G01X29037Y25072D01*
G01X29019Y25072D01*
G01X28964Y25054D01*
G01X28928Y25017D01*
G01X28910Y24963D01*
G01X28644Y26317D02*
G01X28499Y25935D01*
G01X28644Y26317D02*
G01X28790Y25935D01*
G01X28554Y26063D02*
G01X28735Y26063D01*
G01X29164Y26317D02*
G01X28983Y25935D01*
G01X28910Y26317D02*
G01X29164Y26317D01*
G01X28499Y28317D02*
G01X28499Y27935D01*
G01X28499Y28317D02*
G01X28663Y28317D01*
G01X28717Y28299D01*
G01X28735Y28281D01*
G01X28754Y28244D01*
G01X28754Y28208D01*
G01X28735Y28172D01*
G01X28717Y28154D01*
G01X28663Y28135D01*
G01X28499Y28135D01*
G01X28626Y28135D02*
G01X28754Y27935D01*
G01X29128Y28263D02*
G01X29092Y28299D01*
G01X29037Y28317D01*
G01X28964Y28317D01*
G01X28910Y28299D01*
G01X28874Y28263D01*
G01X28874Y28226D01*
G01X28892Y28190D01*
G01X28910Y28172D01*
G01X28946Y28154D01*
G01X29055Y28117D01*
G01X29092Y28099D01*
G01X29110Y28081D01*
G01X29128Y28044D01*
G01X29128Y27990D01*
G01X29092Y27954D01*
G01X29037Y27935D01*
G01X28964Y27935D01*
G01X28910Y27954D01*
G01X28874Y27990D01*
G01X29375Y28317D02*
G01X29375Y27935D01*
G01X29248Y28317D02*
G01X29503Y28317D01*
G54D40*
G01X13179Y20899D02*
G01X13485Y20899D01*
G01X13547Y20919D01*
G01X13588Y20960D01*
G01X13608Y21022D01*
G01X13608Y21063D01*
G01X13588Y21124D01*
G01X13547Y21165D01*
G01X13485Y21185D01*
G01X13179Y21185D01*
G01X13281Y21341D02*
G01X13260Y21341D01*
G01X13219Y21361D01*
G01X13199Y21382D01*
G01X13179Y21423D01*
G01X13179Y21505D01*
G01X13199Y21545D01*
G01X13219Y21566D01*
G01X13260Y21586D01*
G01X13301Y21586D01*
G01X13342Y21566D01*
G01X13404Y21525D01*
G01X13608Y21320D01*
G01X13608Y21607D01*
G01X7500Y22244D02*
G01X7500Y21815D01*
G01X7635Y22244D02*
G01X7635Y21815D01*
G01X7635Y22244D02*
G01X7819Y22244D01*
G01X7880Y22224D01*
G01X7901Y22204D01*
G01X7921Y22163D01*
G01X7921Y22122D01*
G01X7901Y22081D01*
G01X7880Y22060D01*
G01X7819Y22040D01*
G01X7635Y22040D01*
G01X7778Y22040D02*
G01X7921Y21815D01*
G01X8056Y22244D02*
G01X8056Y21815D01*
G01X8056Y22244D02*
G01X8322Y22244D01*
G01X8056Y22040D02*
G01X8220Y22040D01*
G01X8560Y22244D02*
G01X8498Y22224D01*
G01X8478Y22183D01*
G01X8478Y22142D01*
G01X8498Y22101D01*
G01X8539Y22081D01*
G01X8621Y22060D01*
G01X8682Y22040D01*
G01X8723Y21999D01*
G01X8744Y21958D01*
G01X8744Y21897D01*
G01X8723Y21856D01*
G01X8703Y21835D01*
G01X8641Y21815D01*
G01X8560Y21815D01*
G01X8498Y21835D01*
G01X8478Y21856D01*
G01X8457Y21897D01*
G01X8457Y21958D01*
G01X8478Y21999D01*
G01X8519Y22040D01*
G01X8580Y22060D01*
G01X8662Y22081D01*
G01X8703Y22101D01*
G01X8723Y22142D01*
G01X8723Y22183D01*
G01X8703Y22224D01*
G01X8641Y22244D01*
G01X8560Y22244D01*
G01X9083Y22244D02*
G01X8879Y21958D01*
G01X9185Y21958D01*
G01X9083Y22244D02*
G01X9083Y21815D01*
G01X9443Y22244D02*
G01X9382Y22224D01*
G01X9341Y22163D01*
G01X9320Y22060D01*
G01X9320Y21999D01*
G01X9341Y21897D01*
G01X9382Y21835D01*
G01X9443Y21815D01*
G01X9484Y21815D01*
G01X9545Y21835D01*
G01X9586Y21897D01*
G01X9607Y21999D01*
G01X9607Y22060D01*
G01X9586Y22163D01*
G01X9545Y22224D01*
G01X9484Y22244D01*
G01X9443Y22244D01*
G01X19981Y27455D02*
G01X19961Y27496D01*
G01X19899Y27557D01*
G01X20329Y27557D01*
G01X19899Y27815D02*
G01X19920Y27753D01*
G01X19981Y27712D01*
G01X20083Y27692D01*
G01X20145Y27692D01*
G01X20247Y27712D01*
G01X20308Y27753D01*
G01X20329Y27815D01*
G01X20329Y27856D01*
G01X20308Y27917D01*
G01X20247Y27958D01*
G01X20145Y27978D01*
G01X20083Y27978D01*
G01X19981Y27958D01*
G01X19920Y27917D01*
G01X19899Y27856D01*
G01X19899Y27815D01*
G01X19899Y28236D02*
G01X19920Y28175D01*
G01X19981Y28134D01*
G01X20083Y28113D01*
G01X20145Y28113D01*
G01X20247Y28134D01*
G01X20308Y28175D01*
G01X20329Y28236D01*
G01X20329Y28277D01*
G01X20308Y28338D01*
G01X20247Y28379D01*
G01X20145Y28400D01*
G01X20083Y28400D01*
G01X19981Y28379D01*
G01X19920Y28338D01*
G01X19899Y28277D01*
G01X19899Y28236D01*
G01X16699Y17219D02*
G01X16740Y17239D01*
G01X16801Y17300D01*
G01X16801Y16871D01*
G01X17059Y17300D02*
G01X16998Y17280D01*
G01X16957Y17219D01*
G01X16936Y17116D01*
G01X16936Y17055D01*
G01X16957Y16953D01*
G01X16998Y16891D01*
G01X17059Y16871D01*
G01X17100Y16871D01*
G01X17161Y16891D01*
G01X17202Y16953D01*
G01X17223Y17055D01*
G01X17223Y17116D01*
G01X17202Y17219D01*
G01X17161Y17280D01*
G01X17100Y17300D01*
G01X17059Y17300D01*
G01X17480Y17300D02*
G01X17419Y17280D01*
G01X17378Y17219D01*
G01X17358Y17116D01*
G01X17358Y17055D01*
G01X17378Y16953D01*
G01X17419Y16891D01*
G01X17480Y16871D01*
G01X17521Y16871D01*
G01X17583Y16891D01*
G01X17624Y16953D01*
G01X17644Y17055D01*
G01X17644Y17116D01*
G01X17624Y17219D01*
G01X17583Y17280D01*
G01X17521Y17300D01*
G01X17480Y17300D01*
G01X899Y18899D02*
G01X899Y18470D01*
G01X899Y18899D02*
G01X1083Y18899D01*
G01X1144Y18879D01*
G01X1165Y18859D01*
G01X1185Y18818D01*
G01X1185Y18756D01*
G01X1165Y18715D01*
G01X1144Y18695D01*
G01X1083Y18674D01*
G01X899Y18674D01*
G01X1341Y18797D02*
G01X1341Y18818D01*
G01X1361Y18859D01*
G01X1382Y18879D01*
G01X1423Y18899D01*
G01X1504Y18899D01*
G01X1545Y18879D01*
G01X1566Y18859D01*
G01X1586Y18818D01*
G01X1586Y18777D01*
G01X1566Y18736D01*
G01X1525Y18674D01*
G01X1320Y18470D01*
G01X1607Y18470D01*
G01X10903Y29100D02*
G01X10699Y28814D01*
G01X11006Y28814D01*
G01X10903Y29100D02*
G01X10903Y28671D01*
G01X11427Y29100D02*
G01X11223Y28671D01*
G01X11141Y29100D02*
G01X11427Y29100D01*
G01X11685Y29100D02*
G01X11623Y29080D01*
G01X11583Y29019D01*
G01X11562Y28915D01*
G01X11562Y28855D01*
G01X11583Y28752D01*
G01X11623Y28690D01*
G01X11685Y28671D01*
G01X11726Y28671D01*
G01X11787Y28690D01*
G01X11828Y28752D01*
G01X11848Y28855D01*
G01X11848Y28915D01*
G01X11828Y29019D01*
G01X11787Y29080D01*
G01X11726Y29100D01*
G01X11685Y29100D01*
G01X11983Y29100D02*
G01X11983Y28671D01*
G01X12270Y29100D02*
G01X11983Y28814D01*
G01X12086Y28915D02*
G01X12270Y28671D01*
G01X7320Y26498D02*
G01X7320Y26519D01*
G01X7340Y26559D01*
G01X7361Y26580D01*
G01X7401Y26600D01*
G01X7483Y26600D01*
G01X7524Y26580D01*
G01X7545Y26559D01*
G01X7565Y26519D01*
G01X7565Y26478D01*
G01X7545Y26437D01*
G01X7504Y26375D01*
G01X7299Y26171D01*
G01X7586Y26171D01*
G01X7741Y26498D02*
G01X7741Y26519D01*
G01X7761Y26559D01*
G01X7782Y26580D01*
G01X7823Y26600D01*
G01X7905Y26600D01*
G01X7946Y26580D01*
G01X7966Y26559D01*
G01X7986Y26519D01*
G01X7986Y26478D01*
G01X7966Y26437D01*
G01X7925Y26375D01*
G01X7721Y26171D01*
G01X8007Y26171D01*
G01X8265Y26600D02*
G01X8203Y26580D01*
G01X8162Y26519D01*
G01X8142Y26416D01*
G01X8142Y26355D01*
G01X8162Y26253D01*
G01X8203Y26191D01*
G01X8265Y26171D01*
G01X8306Y26171D01*
G01X8367Y26191D01*
G01X8408Y26253D01*
G01X8428Y26355D01*
G01X8428Y26416D01*
G01X8408Y26519D01*
G01X8367Y26580D01*
G01X8306Y26600D01*
G01X8265Y26600D01*
G01X8563Y26600D02*
G01X8563Y26294D01*
G01X8584Y26232D01*
G01X8625Y26191D01*
G01X8686Y26171D01*
G01X8727Y26171D01*
G01X8788Y26191D01*
G01X8829Y26232D01*
G01X8850Y26294D01*
G01X8850Y26600D01*
G01X8985Y26600D02*
G01X8985Y26171D01*
G01X9271Y26600D02*
G01X9271Y26171D01*
G01X8985Y26396D02*
G01X9271Y26396D01*
G01X14604Y30500D02*
G01X14399Y30214D01*
G01X14706Y30214D01*
G01X14604Y30500D02*
G01X14604Y30071D01*
G01X15127Y30500D02*
G01X14923Y30071D01*
G01X14841Y30500D02*
G01X15127Y30500D01*
G01X15385Y30500D02*
G01X15324Y30480D01*
G01X15283Y30419D01*
G01X15262Y30316D01*
G01X15262Y30255D01*
G01X15283Y30153D01*
G01X15324Y30091D01*
G01X15385Y30071D01*
G01X15426Y30071D01*
G01X15487Y30091D01*
G01X15528Y30153D01*
G01X15549Y30255D01*
G01X15549Y30316D01*
G01X15528Y30419D01*
G01X15487Y30480D01*
G01X15426Y30500D01*
G01X15385Y30500D01*
G54D48*
G01X31399Y15930D02*
G01X31399Y15500D01*
G01X31399Y15930D02*
G01X31583Y15930D01*
G01X31644Y15908D01*
G01X31665Y15888D01*
G01X31685Y15848D01*
G01X31685Y15807D01*
G01X31665Y15766D01*
G01X31644Y15744D01*
G01X31583Y15725D01*
G01X31399Y15725D01*
G01X31542Y15725D02*
G01X31685Y15500D01*
G01X31963Y15930D02*
G01X31963Y15500D01*
G01X31820Y15930D02*
G01X32107Y15930D01*
G01X32548Y15826D02*
G01X32528Y15868D01*
G01X32487Y15908D01*
G01X32446Y15930D01*
G01X32364Y15930D01*
G01X32323Y15908D01*
G01X32282Y15868D01*
G01X32262Y15826D01*
G01X32242Y15766D01*
G01X32242Y15663D01*
G01X32262Y15601D01*
G01X32282Y15561D01*
G01X32323Y15519D01*
G01X32364Y15500D01*
G01X32446Y15500D01*
G01X32487Y15519D01*
G01X32528Y15561D01*
G01X32548Y15601D01*
G01X32683Y15357D02*
G01X33052Y15357D01*
G01X33187Y15930D02*
G01X33187Y15500D01*
G01X33187Y15930D02*
G01X33350Y15500D01*
G01X33514Y15930D02*
G01X33350Y15500D01*
G01X33514Y15930D02*
G01X33514Y15500D01*
G01X33649Y15930D02*
G01X33649Y15500D01*
G01X33784Y15930D02*
G01X33784Y15500D01*
G01X33784Y15930D02*
G01X34070Y15500D01*
G01X34070Y15930D02*
G01X34070Y15500D01*
G01X34205Y15930D02*
G01X34205Y15500D01*
G01X33744Y29639D02*
G01X33724Y29680D01*
G01X33662Y29700D01*
G01X33622Y29700D01*
G01X33560Y29680D01*
G01X33519Y29619D01*
G01X33499Y29515D01*
G01X33499Y29414D01*
G01X33519Y29332D01*
G01X33560Y29290D01*
G01X33622Y29271D01*
G01X33642Y29271D01*
G01X33703Y29290D01*
G01X33744Y29332D01*
G01X33765Y29394D01*
G01X33765Y29414D01*
G01X33744Y29475D01*
G01X33703Y29515D01*
G01X33642Y29537D01*
G01X33622Y29537D01*
G01X33560Y29515D01*
G01X33519Y29475D01*
G01X33499Y29414D01*
G01X33920Y29373D02*
G01X33900Y29352D01*
G01X33920Y29332D01*
G01X33941Y29352D01*
G01X33920Y29373D01*
G01X34117Y29700D02*
G01X34342Y29700D01*
G01X34219Y29537D01*
G01X34280Y29537D01*
G01X34321Y29515D01*
G01X34342Y29496D01*
G01X34362Y29435D01*
G01X34362Y29394D01*
G01X34342Y29332D01*
G01X34301Y29290D01*
G01X34239Y29271D01*
G01X34178Y29271D01*
G01X34117Y29290D01*
G01X34096Y29312D01*
G01X34076Y29352D01*
G01X34497Y29700D02*
G01X34661Y29271D01*
G01X34824Y29700D02*
G01X34661Y29271D01*
G01X34959Y29127D02*
G01X35327Y29127D01*
G01X35667Y29700D02*
G01X35462Y29414D01*
G01X35769Y29414D01*
G01X35667Y29700D02*
G01X35667Y29271D01*
G01X36191Y29700D02*
G01X35986Y29271D01*
G01X35904Y29700D02*
G01X36191Y29700D01*
G01X36448Y29700D02*
G01X36387Y29680D01*
G01X36346Y29619D01*
G01X36326Y29515D01*
G01X36326Y29455D01*
G01X36346Y29352D01*
G01X36387Y29290D01*
G01X36448Y29271D01*
G01X36489Y29271D01*
G01X36551Y29290D01*
G01X36592Y29352D01*
G01X36612Y29455D01*
G01X36612Y29515D01*
G01X36592Y29619D01*
G01X36551Y29680D01*
G01X36489Y29700D01*
G01X36448Y29700D01*
G01X36747Y29700D02*
G01X36747Y29394D01*
G01X36767Y29332D01*
G01X36808Y29290D01*
G01X36870Y29271D01*
G01X36911Y29271D01*
G01X36972Y29290D01*
G01X37013Y29332D01*
G01X37033Y29394D01*
G01X37033Y29700D01*
G01X37168Y29700D02*
G01X37168Y29271D01*
G01X37168Y29700D02*
G01X37434Y29700D01*
G01X37168Y29496D02*
G01X37332Y29496D01*
G01X33328Y19813D02*
G01X33199Y19475D01*
G01X33328Y19813D02*
G01X33457Y19475D01*
G01X33247Y19587D02*
G01X33408Y19587D01*
G01X33563Y19813D02*
G01X33563Y19475D01*
G01X33563Y19813D02*
G01X33788Y19475D01*
G01X33788Y19813D02*
G01X33788Y19475D01*
G01X33895Y19813D02*
G01X34023Y19652D01*
G01X34023Y19475D01*
G01X34152Y19813D02*
G01X34023Y19652D01*
G01X34259Y19813D02*
G01X34484Y19426D01*
G01X34590Y19813D02*
G01X34590Y19475D01*
G01X34590Y19813D02*
G01X34816Y19475D01*
G01X34816Y19813D02*
G01X34816Y19475D01*
G01X35164Y19732D02*
G01X35148Y19764D01*
G01X35115Y19797D01*
G01X35083Y19813D01*
G01X35019Y19813D01*
G01X34987Y19797D01*
G01X34954Y19764D01*
G01X34938Y19732D01*
G01X34922Y19683D01*
G01X34922Y19602D01*
G01X34938Y19555D01*
G01X34954Y19523D01*
G01X34987Y19491D01*
G01X35019Y19475D01*
G01X35083Y19475D01*
G01X35115Y19491D01*
G01X35148Y19523D01*
G01X35164Y19555D01*
G01X35270Y19813D02*
G01X35270Y19475D01*
G01X35270Y19813D02*
G01X35479Y19813D01*
G01X35270Y19652D02*
G01X35399Y19652D01*
G01X35270Y19475D02*
G01X35479Y19475D01*
G01X35586Y19813D02*
G01X35586Y19475D01*
G01X35586Y19813D02*
G01X35731Y19813D01*
G01X35779Y19797D01*
G01X35795Y19781D01*
G01X35811Y19748D01*
G01X35811Y19716D01*
G01X35795Y19683D01*
G01X35779Y19668D01*
G01X35731Y19652D01*
G01X35586Y19652D01*
G01X35698Y19652D02*
G01X35811Y19475D01*
G01X36046Y19813D02*
G01X35918Y19475D01*
G01X36046Y19813D02*
G01X36175Y19475D01*
G01X35966Y19587D02*
G01X36127Y19587D01*
G01X36282Y19813D02*
G01X36282Y19475D01*
G01X36282Y19813D02*
G01X36410Y19475D01*
G01X36539Y19813D02*
G01X36410Y19475D01*
G01X36539Y19813D02*
G01X36539Y19475D01*
G01X36646Y19813D02*
G01X36646Y19475D01*
G01X36993Y19732D02*
G01X36977Y19764D01*
G01X36945Y19797D01*
G01X36913Y19813D01*
G01X36848Y19813D01*
G01X36816Y19797D01*
G01X36784Y19764D01*
G01X36768Y19732D01*
G01X36752Y19683D01*
G01X36752Y19602D01*
G01X36768Y19555D01*
G01X36784Y19523D01*
G01X36816Y19491D01*
G01X36848Y19475D01*
G01X36913Y19475D01*
G01X36945Y19491D01*
G01X36977Y19523D01*
G01X36993Y19555D01*
G54D10*
G75*
G01X19600Y1900D02*
G02X20215Y1612I0J-800D01*
G01*
G75*
G01X18894Y1476D02*
G02X19600Y1900I706J-376D01*
G01*
G75*
G01X19600Y300D02*
G03X20211Y583I0J800D01*
G01*
G75*
G01X18905Y703D02*
G03X19600Y300I694J397D01*
G01*
G54D41*
G75*
G01X30069Y11309D02*
G02X38731Y11309I4331J-3383D01*
G01*
G75*
G01X30069Y4491D02*
G03X38731Y4491I4331J3383D01*
G01*
G75*
G01X38731Y14344D02*
G03X38403Y14908I-652J-2D01*
G01*
G75*
G01X38403Y14908D02*
G03X35106Y15940I-3976J-6919D01*
G01*
G75*
G01X35106Y15940D02*
G03X34400Y15293I-57J-647D01*
G01*
G75*
G01X34400Y14027D02*
G02X33819Y13381I-649J0D01*
G01*
G75*
G01X30069Y1456D02*
G03X30397Y892I652J2D01*
G01*
G75*
G01X30397Y892D02*
G03X33694Y-140I3976J6920D01*
G01*
G75*
G01X33694Y-140D02*
G03X34400Y507I56J647D01*
G01*
G75*
G01X34400Y1773D02*
G02X34981Y2419I649J0D01*
G01*
G75*
G01X20869Y11310D02*
G02X29531Y11310I4331J-3383D01*
G01*
G75*
G01X20869Y4492D02*
G03X29531Y4492I4331J3383D01*
G01*
G75*
G01X29531Y14345D02*
G03X29203Y14909I-652J-2D01*
G01*
G75*
G01X29203Y14909D02*
G03X25906Y15941I-3976J-6919D01*
G01*
G75*
G01X25906Y15941D02*
G03X25200Y15294I-57J-647D01*
G01*
G75*
G01X25200Y14028D02*
G02X24619Y13382I-649J0D01*
G01*
G75*
G01X20869Y1457D02*
G03X21197Y893I652J2D01*
G01*
G75*
G01X21197Y893D02*
G03X24494Y-139I3976J6920D01*
G01*
G75*
G01X24494Y-139D02*
G03X25200Y508I56J647D01*
G01*
G75*
G01X25200Y1774D02*
G02X25781Y2420I649J0D01*
G01*
G75*
G01X10069Y11311D02*
G02X18731Y11311I4331J-3383D01*
G01*
G75*
G01X10069Y4493D02*
G03X18731Y4493I4331J3383D01*
G01*
G75*
G01X18731Y14346D02*
G03X18403Y14910I-652J-2D01*
G01*
G75*
G01X18403Y14910D02*
G03X15106Y15942I-3976J-6919D01*
G01*
G75*
G01X15106Y15942D02*
G03X14400Y15295I-57J-647D01*
G01*
G75*
G01X14400Y14029D02*
G02X13819Y13383I-649J0D01*
G01*
G75*
G01X10069Y1458D02*
G03X10397Y894I652J2D01*
G01*
G75*
G01X10397Y894D02*
G03X13694Y-138I3976J6920D01*
G01*
G75*
G01X13694Y-138D02*
G03X14400Y509I56J647D01*
G01*
G75*
G01X14400Y1775D02*
G02X14981Y2421I649J0D01*
G01*
G75*
G01X869Y11310D02*
G02X9531Y11310I4331J-3383D01*
G01*
G75*
G01X869Y4492D02*
G03X9531Y4492I4331J3383D01*
G01*
G75*
G01X9531Y14345D02*
G03X9203Y14909I-652J-2D01*
G01*
G75*
G01X9203Y14909D02*
G03X5906Y15941I-3976J-6919D01*
G01*
G75*
G01X5906Y15941D02*
G03X5200Y15294I-57J-647D01*
G01*
G75*
G01X5200Y14028D02*
G02X4619Y13382I-649J0D01*
G01*
G75*
G01X869Y1457D02*
G03X1197Y893I652J2D01*
G01*
G75*
G01X1197Y893D02*
G03X4494Y-139I3976J6920D01*
G01*
G75*
G01X4494Y-139D02*
G03X5200Y508I56J647D01*
G01*
G75*
G01X5200Y1774D02*
G02X5781Y2420I649J0D01*
G01*
G54D10*
G75*
G01X5300Y2400D02*
G02X5915Y2112I0J-800D01*
G01*
G75*
G01X4594Y1976D02*
G02X5300Y2400I706J-376D01*
G01*
G75*
G01X5300Y800D02*
G03X5911Y1083I0J800D01*
G01*
G75*
G01X4605Y1203D02*
G03X5300Y800I694J397D01*
G01*
G75*
G01X14500Y2400D02*
G02X15115Y2112I0J-800D01*
G01*
G75*
G01X13794Y1976D02*
G02X14500Y2400I706J-376D01*
G01*
G75*
G01X14500Y800D02*
G03X15111Y1083I0J800D01*
G01*
G75*
G01X13805Y1203D02*
G03X14500Y800I694J397D01*
G01*
G75*
G01X25300Y2400D02*
G02X25915Y2112I0J-800D01*
G01*
G75*
G01X24594Y1976D02*
G02X25300Y2400I706J-376D01*
G01*
G75*
G01X25300Y800D02*
G03X25911Y1083I0J800D01*
G01*
G75*
G01X24605Y1203D02*
G03X25300Y800I694J397D01*
G01*
G75*
G01X34400Y2400D02*
G02X35015Y2112I0J-800D01*
G01*
G75*
G01X33694Y1976D02*
G02X34400Y2400I706J-376D01*
G01*
G75*
G01X34400Y800D02*
G03X35011Y1083I0J800D01*
G01*
G75*
G01X33705Y1203D02*
G03X34400Y800I694J397D01*
G01*
G54D44*
G75*
G01X37550Y14400D02*
G03X37550Y14400I-650J0D01*
G01*
G75*
G01X35290Y7900D02*
G03X35290Y7900I-890J0D01*
G01*
G75*
G01X32550Y1400D02*
G03X32550Y1400I-650J0D01*
G01*
G75*
G01X28350Y14401D02*
G03X28350Y14401I-650J0D01*
G01*
G75*
G01X26090Y7901D02*
G03X26090Y7901I-890J0D01*
G01*
G75*
G01X23350Y1401D02*
G03X23350Y1401I-650J0D01*
G01*
G75*
G01X17550Y14402D02*
G03X17550Y14402I-650J0D01*
G01*
G75*
G01X15290Y7902D02*
G03X15290Y7902I-890J0D01*
G01*
G75*
G01X12550Y1402D02*
G03X12550Y1402I-650J0D01*
G01*
G75*
G01X8350Y14401D02*
G03X8350Y14401I-650J0D01*
G01*
G75*
G01X6090Y7901D02*
G03X6090Y7901I-890J0D01*
G01*
G75*
G01X3350Y1401D02*
G03X3350Y1401I-650J0D01*
G01*
G54D10*
G75*
G01X4306Y28400D02*
G03X4306Y28400I-2006J0D01*
G01*
G75*
G01X16500Y22750D02*
G03X16500Y22750I-100J0D01*
G01*
G75*
G01X16500Y25150D02*
G03X16500Y25150I-100J0D01*
G01*
G75*
G01X16500Y27550D02*
G03X16500Y27550I-100J0D01*
G01*
G75*
G01X31700Y27700D02*
G03X31700Y27700I-100J0D01*
G01*
G75*
G01X16500Y20350D02*
G03X16500Y20350I-100J0D01*
G01*
G75*
G01X33340Y30000D02*
G03X33340Y30000I-1240J0D01*
G01*
G75*
G01X36550Y4750D02*
G03X36550Y4750I-600J0D01*
G01*
G75*
G01X27350Y4750D02*
G03X27350Y4750I-600J0D01*
G01*
G75*
G01X7350Y4750D02*
G03X7350Y4750I-600J0D01*
G01*

%LPD*%
G36*
G01X32146Y31249D02*
G01X32053Y31249D01*
G01X32021Y31247D01*
G01X31990Y31245D01*
G01X31897Y31233D01*
G01X31867Y31227D01*
G01X31836Y31221D01*
G01X31806Y31213D01*
G01X31776Y31206D01*
G01X31746Y31197D01*
G01X31686Y31177D01*
G01X31657Y31166D01*
G01X31628Y31154D01*
G01X31600Y31142D01*
G01X31571Y31129D01*
G01X31544Y31115D01*
G01X31516Y31100D01*
G01X31489Y31085D01*
G01X31462Y31069D01*
G01X31436Y31052D01*
G01X31384Y31016D01*
G01X31359Y30998D01*
G01X31311Y30958D01*
G01X31288Y30938D01*
G01X31265Y30917D01*
G01X31242Y30895D01*
G01X31221Y30872D01*
G01X31199Y30850D01*
G01X32999Y30850D01*
G01X32978Y30872D01*
G01X32956Y30895D01*
G01X32934Y30917D01*
G01X32911Y30938D01*
G01X32888Y30958D01*
G01X32864Y30978D01*
G01X32839Y30998D01*
G01X32789Y31034D01*
G01X32763Y31052D01*
G01X32737Y31069D01*
G01X32710Y31085D01*
G01X32683Y31100D01*
G01X32655Y31115D01*
G01X32627Y31129D01*
G01X32599Y31142D01*
G01X32541Y31166D01*
G01X32512Y31177D01*
G01X32483Y31187D01*
G01X32453Y31197D01*
G01X32423Y31206D01*
G01X32393Y31213D01*
G01X32362Y31221D01*
G01X32332Y31227D01*
G01X32301Y31233D01*
G01X32208Y31245D01*
G01X32146Y31249D01*
G37*
M00*
M02*
