G04 Layer: BottomSolderMaskLayer*
G04 EasyEDA v6.3.53, 2020-06-13T07:22:25+03:00*
G04 f51c9f6fd95d48469e0b4201acb47e0f,1102b9164c3b4fd2a1726ad73ad25fb7,10*
G04 Gerber Generator version 0.2*
G04 Scale: 100 percent, Rotated: No, Reflected: No *
G04 Dimensions in inches *
G04 leading zeros omitted , absolute positions ,2 integer and 4 decimal *
%FSLAX24Y24*%
%MOIN*%
G90*
G70D02*

%ADD28C,0.070000*%
%ADD49C,0.068000*%
%ADD50C,0.068630*%
%ADD51C,0.059181*%
%ADD52C,0.055244*%
%ADD53C,0.078000*%
%ADD54C,0.074929*%
%ADD55C,0.078866*%
%ADD58C,0.090677*%
%ADD60C,0.070992*%
%ADD62C,0.067055*%
%ADD63C,0.086740*%
%ADD65R,0.063000X0.067055*%

%LPD*%
G54D49*
G01X33899Y16306D02*
G01X33899Y16493D01*
G01X32899Y16306D02*
G01X32899Y16493D01*
G54D50*
G01X31899Y16309D02*
G01X31899Y16490D01*
G01X30899Y16309D02*
G01X30899Y16490D01*
G01X29899Y16309D02*
G01X29899Y16490D01*
G54D51*
G01X37901Y11899D02*
G01X38098Y11899D01*
G54D52*
G01X37881Y10900D02*
G01X38118Y10900D01*
G01X37881Y9900D02*
G01X38118Y9900D01*
G01X37881Y8900D02*
G01X38118Y8900D01*
G01X37881Y7900D02*
G01X38118Y7900D01*
G01X37881Y6900D02*
G01X38118Y6900D01*
G01X37881Y5900D02*
G01X38118Y5900D01*
G01X37881Y4900D02*
G01X38118Y4900D01*
G01X37881Y3900D02*
G01X38118Y3900D01*
G01X37881Y2900D02*
G01X38118Y2900D01*
G54D51*
G01X37842Y26700D02*
G01X38157Y26700D01*
G01X37842Y25700D02*
G01X38157Y25700D01*
G01X37842Y24700D02*
G01X38157Y24700D01*
G01X37842Y23700D02*
G01X38157Y23700D01*
G01X37842Y22700D02*
G01X38157Y22700D01*
G01X37842Y21700D02*
G01X38157Y21700D01*
G01X37842Y20700D02*
G01X38157Y20700D01*
G01X37842Y19700D02*
G01X38157Y19700D01*
G01X37842Y18700D02*
G01X38157Y18700D01*
G54D53*
G01X21463Y29099D02*
G01X21336Y29099D01*
G01X21463Y28099D02*
G01X21336Y28099D01*
G01X21463Y27099D02*
G01X21336Y27099D01*
G01X21463Y26099D02*
G01X21336Y26099D01*
G01X21463Y25099D02*
G01X21336Y25099D01*
G01X21463Y24099D02*
G01X21336Y24099D01*
G01X21463Y23099D02*
G01X21336Y23099D01*
G01X21463Y22099D02*
G01X21336Y22099D01*
G01X21463Y21099D02*
G01X21336Y21099D01*
G01X21463Y20099D02*
G01X21336Y20099D01*
G01X21463Y19099D02*
G01X21336Y19099D01*
G01X21463Y18099D02*
G01X21336Y18099D01*
G01X21463Y17099D02*
G01X21336Y17099D01*
G54D54*
G01X27478Y30099D02*
G01X27321Y30099D01*
G01X27478Y29099D02*
G01X27321Y29099D01*
G01X27478Y28099D02*
G01X27321Y28099D01*
G01X27478Y27099D02*
G01X27321Y27099D01*
G01X27478Y26099D02*
G01X27321Y26099D01*
G01X27478Y25099D02*
G01X27321Y25099D01*
G01X27478Y24099D02*
G01X27321Y24099D01*
G01X27478Y23099D02*
G01X27321Y23099D01*
G01X27478Y22099D02*
G01X27321Y22099D01*
G01X27478Y21099D02*
G01X27321Y21099D01*
G01X27478Y20099D02*
G01X27321Y20099D01*
G01X27478Y19099D02*
G01X27321Y19099D01*
G01X27478Y18099D02*
G01X27321Y18099D01*
G01X27478Y17099D02*
G01X27321Y17099D01*
G01X27478Y16099D02*
G01X27321Y16099D01*
G54D55*
G01X8609Y23700D02*
G01X8609Y23700D01*
G36*
G01X34560Y16061D02*
G01X34560Y16739D01*
G01X35238Y16739D01*
G01X35238Y16061D01*
G01X34560Y16061D01*
G37*
G01X13599Y14200D03*
G01X11040Y14200D03*
G01X11040Y15971D03*
G01X13599Y15971D03*
G01X8600Y14199D03*
G01X6041Y14199D03*
G01X6041Y15971D03*
G01X8600Y15971D03*
G01X18599Y14200D03*
G01X16040Y14200D03*
G01X16040Y15971D03*
G01X18599Y15971D03*
G54D54*
G01X19099Y1100D03*
G36*
G01X19724Y725D02*
G01X19724Y1475D01*
G01X20474Y1475D01*
G01X20474Y725D01*
G01X19724Y725D01*
G37*
G54D58*
G01X32829Y11050D03*
G01X34400Y11439D03*
G01X35970Y11050D03*
G01X36660Y9669D03*
G01X36660Y7900D03*
G01X36660Y6130D03*
G01X35970Y4750D03*
G01X34400Y4360D03*
G01X32829Y4750D03*
G01X32139Y6130D03*
G01X32139Y7900D03*
G01X32139Y9669D03*
G01X23630Y11051D03*
G01X25199Y11441D03*
G01X26770Y11051D03*
G01X27460Y9670D03*
G01X27460Y7900D03*
G01X27460Y6131D03*
G01X26770Y4750D03*
G01X25199Y4361D03*
G01X23630Y4750D03*
G01X22940Y6131D03*
G01X22940Y7900D03*
G01X22940Y9670D03*
G01X12829Y11051D03*
G01X14399Y11442D03*
G01X15970Y11051D03*
G01X16660Y9672D03*
G01X16660Y7901D03*
G01X16660Y6131D03*
G01X15970Y4751D03*
G01X14399Y4362D03*
G01X12829Y4751D03*
G01X12140Y6131D03*
G01X12140Y7901D03*
G01X12140Y9672D03*
G01X3629Y11051D03*
G01X5200Y11441D03*
G01X6769Y11051D03*
G01X7459Y9670D03*
G01X7459Y7900D03*
G01X7459Y6131D03*
G01X6769Y4750D03*
G01X5200Y4361D03*
G01X3629Y4750D03*
G01X2940Y6131D03*
G01X2940Y7900D03*
G01X2940Y9670D03*
G54D54*
G01X4799Y1600D03*
G36*
G01X5424Y1225D02*
G01X5424Y1975D01*
G01X6174Y1975D01*
G01X6174Y1225D01*
G01X5424Y1225D01*
G37*
G01X13999Y1600D03*
G36*
G01X14624Y1225D02*
G01X14624Y1975D01*
G01X15374Y1975D01*
G01X15374Y1225D01*
G01X14624Y1225D01*
G37*
G01X24799Y1600D03*
G36*
G01X25424Y1225D02*
G01X25424Y1975D01*
G01X26174Y1975D01*
G01X26174Y1225D01*
G01X25424Y1225D01*
G37*
G01X33899Y1600D03*
G36*
G01X34524Y1225D02*
G01X34524Y1975D01*
G01X35274Y1975D01*
G01X35274Y1225D01*
G01X34524Y1225D01*
G37*
G36*
G01X1049Y9550D02*
G01X1049Y10250D01*
G01X1749Y10250D01*
G01X1749Y9550D01*
G01X1049Y9550D01*
G37*
G54D28*
G01X1399Y8900D03*
G01X1399Y7900D03*
G01X1399Y6900D03*
G01X1399Y5900D03*
G01X1399Y4900D03*
G01X1399Y3900D03*
G54D60*
G01X18999Y29900D03*
G36*
G01X17644Y29545D02*
G01X17644Y30255D01*
G01X18354Y30255D01*
G01X18354Y29545D01*
G01X17644Y29545D01*
G37*
G54D62*
G01X5799Y25699D03*
G01X2749Y25699D03*
G54D63*
G01X2299Y27400D03*
G36*
G01X1865Y28965D02*
G01X1865Y29834D01*
G01X2733Y29834D01*
G01X2733Y28965D01*
G01X1865Y28965D01*
G37*
G54D62*
G01X19599Y19100D03*
G01X15599Y19100D03*
G54D65*
G01X17199Y22799D03*
G54D62*
G01X17199Y23800D03*
G01X14199Y23800D03*
G01X14199Y22800D03*
G36*
G01X16884Y24865D02*
G01X16884Y25535D01*
G01X17514Y25535D01*
G01X17514Y24865D01*
G01X16884Y24865D01*
G37*
G01X17199Y26200D03*
G01X14199Y26200D03*
G01X14199Y25200D03*
G36*
G01X16884Y27264D02*
G01X16884Y27935D01*
G01X17514Y27935D01*
G01X17514Y27264D01*
G01X16884Y27264D01*
G37*
G01X17199Y28600D03*
G01X14199Y28600D03*
G01X14199Y27600D03*
G01X5499Y20399D03*
G01X5499Y24399D03*
G36*
G01X37546Y27403D02*
G01X37546Y27996D01*
G01X38452Y27996D01*
G01X38452Y27403D01*
G01X37546Y27403D01*
G37*
G36*
G01X30503Y27403D02*
G01X30503Y27996D01*
G01X31095Y27996D01*
G01X31095Y27403D01*
G01X30503Y27403D01*
G37*
G54D51*
G01X30799Y26699D03*
G01X30799Y25699D03*
G01X30799Y24699D03*
G01X30799Y23699D03*
G01X30799Y22699D03*
G01X30799Y21699D03*
G01X30799Y20699D03*
G01X33799Y20699D03*
G01X33799Y21699D03*
G01X33799Y22699D03*
G36*
G01X33503Y23404D02*
G01X33503Y23996D01*
G01X34095Y23996D01*
G01X34095Y23404D01*
G01X33503Y23404D01*
G37*
G01X33799Y24699D03*
G01X33799Y25699D03*
G01X33799Y26699D03*
G01X33799Y27699D03*
G54D62*
G01X2799Y20200D03*
G01X2799Y24200D03*
G36*
G01X20946Y29647D02*
G01X20946Y30552D01*
G01X21852Y30552D01*
G01X21852Y29647D01*
G01X20946Y29647D01*
G37*
G54D53*
G01X21399Y15999D03*
G54D65*
G01X17199Y20399D03*
G54D62*
G01X17199Y21399D03*
G01X14199Y21399D03*
G01X14199Y20399D03*
G54D55*
G01X9609Y23700D03*
G36*
G01X7215Y23306D02*
G01X7215Y24094D01*
G01X8003Y24094D01*
G01X8003Y23306D01*
G01X7215Y23306D01*
G37*
G54D62*
G01X20099Y29999D03*
G01X20099Y25999D03*
G01X15699Y17100D03*
G01X18699Y17100D03*
G36*
G01X1049Y25350D02*
G01X1049Y26050D01*
G01X1749Y26050D01*
G01X1749Y25350D01*
G01X1049Y25350D01*
G37*
G54D28*
G01X1399Y24700D03*
G01X1399Y23700D03*
G01X1399Y22700D03*
G01X1399Y21700D03*
G01X1399Y20700D03*
G01X1399Y19700D03*
G36*
G01X29049Y30125D02*
G01X29049Y30875D01*
G01X29749Y30875D01*
G01X29749Y30125D01*
G01X29049Y30125D01*
G37*
G54D54*
G01X29399Y29500D03*
G36*
G01X10029Y29330D02*
G01X10029Y30070D01*
G01X10769Y30070D01*
G01X10769Y29330D01*
G01X10029Y29330D01*
G37*
G36*
G01X12029Y29330D02*
G01X12029Y30070D01*
G01X12769Y30070D01*
G01X12769Y29330D01*
G01X12029Y29330D01*
G37*
G36*
G01X11029Y30330D02*
G01X11029Y31070D01*
G01X11769Y31070D01*
G01X11769Y30330D01*
G01X11029Y30330D01*
G37*
G54D62*
G01X6699Y25699D03*
G01X9699Y25699D03*
G01X13499Y30300D03*
G01X16499Y30300D03*
G36*
G01X30580Y14581D02*
G01X30580Y15219D01*
G01X31217Y15219D01*
G01X31217Y14581D01*
G01X30580Y14581D01*
G37*
G01X31899Y14900D03*
G01X32899Y14900D03*
G01X33899Y14900D03*
G01X34899Y14900D03*
G54D49*
G01X32099Y29500D03*
G01X32099Y30500D03*
G01X32899Y19300D03*
G01X30931Y19300D03*
M00*
M02*
