G04 Layer: TopLayer*
G04 EasyEDA v6.3.53, 2020-06-13T07:22:25+03:00*
G04 f51c9f6fd95d48469e0b4201acb47e0f,1102b9164c3b4fd2a1726ad73ad25fb7,10*
G04 Gerber Generator version 0.2*
G04 Scale: 100 percent, Rotated: No, Reflected: No *
G04 Dimensions in inches *
G04 leading zeros omitted , absolute positions ,2 integer and 4 decimal *
%FSLAX24Y24*%
%MOIN*%
G90*
G70D02*

%ADD12C,0.070866*%
%ADD13C,0.066929*%
%ADD15C,0.082677*%
%ADD16R,0.062000X0.062000*%
%ADD17C,0.062000*%
%ADD18C,0.062992*%
%ADD19R,0.062992X0.062992*%
%ADD20C,0.059055*%
%ADD21C,0.078740*%
%ADD25R,0.051181X0.051181*%
%ADD26C,0.051181*%
%ADD28C,0.070000*%
%ADD30R,0.062000X0.066929*%
%ADD31R,0.066000X0.066000*%
%ADD32R,0.055700X0.055700*%
%ADD33C,0.060000*%
%ADD34C,0.060630*%
%ADD35C,0.047244*%

%LPD*%
G36*
G01X34600Y16101D02*
G01X35198Y16101D01*
G01X35198Y16699D01*
G01X34600Y16699D01*
G01X34600Y16101D01*
G37*
G54D12*
G01X13599Y14200D03*
G01X11040Y14200D03*
G01X11040Y15971D03*
G01X13599Y15971D03*
G01X8600Y14199D03*
G01X6041Y14199D03*
G01X6041Y15971D03*
G01X8600Y15971D03*
G01X18599Y14200D03*
G01X16040Y14200D03*
G01X16040Y15971D03*
G01X18599Y15971D03*
G54D13*
G01X19099Y1100D03*
G36*
G01X19764Y1435D02*
G01X20434Y1435D01*
G01X20434Y764D01*
G01X19764Y764D01*
G01X19764Y1435D01*
G37*
G54D15*
G01X32829Y11050D03*
G01X34400Y11439D03*
G01X35970Y11050D03*
G01X36660Y9669D03*
G01X36660Y7900D03*
G01X36660Y6130D03*
G01X35970Y4750D03*
G01X34400Y4360D03*
G01X32829Y4750D03*
G01X32139Y6130D03*
G01X32139Y7900D03*
G01X32139Y9669D03*
G01X23630Y11051D03*
G01X25199Y11441D03*
G01X26770Y11051D03*
G01X27460Y9670D03*
G01X27460Y7900D03*
G01X27460Y6131D03*
G01X26770Y4750D03*
G01X25199Y4361D03*
G01X23630Y4750D03*
G01X22940Y6131D03*
G01X22940Y7900D03*
G01X22940Y9670D03*
G01X12829Y11051D03*
G01X14399Y11442D03*
G01X15970Y11051D03*
G01X16660Y9672D03*
G01X16660Y7901D03*
G01X16660Y6131D03*
G01X15970Y4751D03*
G01X14399Y4362D03*
G01X12829Y4751D03*
G01X12140Y6131D03*
G01X12140Y7901D03*
G01X12140Y9672D03*
G01X3629Y11051D03*
G01X5200Y11441D03*
G01X6769Y11051D03*
G01X7459Y9670D03*
G01X7459Y7900D03*
G01X7459Y6131D03*
G01X6769Y4750D03*
G01X5200Y4361D03*
G01X3629Y4750D03*
G01X2940Y6131D03*
G01X2940Y7900D03*
G01X2940Y9670D03*
G54D13*
G01X4799Y1600D03*
G36*
G01X5464Y1935D02*
G01X6134Y1935D01*
G01X6134Y1264D01*
G01X5464Y1264D01*
G01X5464Y1935D01*
G37*
G01X13999Y1600D03*
G36*
G01X14664Y1935D02*
G01X15334Y1935D01*
G01X15334Y1264D01*
G01X14664Y1264D01*
G01X14664Y1935D01*
G37*
G01X24799Y1600D03*
G36*
G01X25464Y1935D02*
G01X26134Y1935D01*
G01X26134Y1264D01*
G01X25464Y1264D01*
G01X25464Y1935D01*
G37*
G01X33899Y1600D03*
G36*
G01X34564Y1935D02*
G01X35234Y1935D01*
G01X35234Y1264D01*
G01X34564Y1264D01*
G01X34564Y1935D01*
G37*
G54D16*
G01X1399Y9900D03*
G54D17*
G01X1399Y8900D03*
G01X1399Y7900D03*
G01X1399Y6900D03*
G01X1399Y5900D03*
G01X1399Y4900D03*
G01X1399Y3900D03*
G54D18*
G01X18999Y29900D03*
G54D19*
G01X17999Y29900D03*
G54D20*
G01X5799Y25699D03*
G01X2749Y25699D03*
G54D21*
G01X2299Y27400D03*
G36*
G01X1905Y29794D02*
G01X2693Y29794D01*
G01X2693Y29006D01*
G01X1905Y29006D01*
G01X1905Y29794D01*
G37*
G54D20*
G01X19599Y19100D03*
G01X15599Y19100D03*
G36*
G01X16924Y22504D02*
G01X16924Y23094D01*
G01X17474Y23094D01*
G01X17474Y22504D01*
G01X16924Y22504D01*
G37*
G01X17199Y23800D03*
G01X14199Y23800D03*
G01X14199Y22800D03*
G36*
G01X16924Y24904D02*
G01X16924Y25494D01*
G01X17474Y25494D01*
G01X17474Y24904D01*
G01X16924Y24904D01*
G37*
G01X17199Y26200D03*
G01X14199Y26200D03*
G01X14199Y25200D03*
G36*
G01X16924Y27304D02*
G01X16924Y27894D01*
G01X17474Y27894D01*
G01X17474Y27304D01*
G01X16924Y27304D01*
G37*
G01X17199Y28600D03*
G01X14199Y28600D03*
G01X14199Y27600D03*
G01X5499Y20399D03*
G01X5499Y24399D03*
G36*
G01X37586Y27444D02*
G01X37586Y27956D01*
G01X38412Y27956D01*
G01X38412Y27444D01*
G01X37586Y27444D01*
G37*
G54D25*
G01X30799Y27700D03*
G54D26*
G01X30799Y26699D03*
G01X30799Y25699D03*
G01X30799Y24699D03*
G01X30799Y23699D03*
G01X30799Y22699D03*
G01X30799Y21699D03*
G01X30799Y20699D03*
G01X33799Y20699D03*
G01X33799Y21699D03*
G01X33799Y22699D03*
G54D25*
G01X33799Y23700D03*
G54D26*
G01X33799Y24699D03*
G01X33799Y25699D03*
G01X33799Y26699D03*
G01X33799Y27699D03*
G54D20*
G01X2799Y20200D03*
G01X2799Y24200D03*
G36*
G01X21812Y30512D02*
G01X21812Y29686D01*
G01X20986Y29686D01*
G01X20986Y30512D01*
G01X21812Y30512D01*
G37*
G54D28*
G01X21399Y15999D03*
G36*
G01X16924Y20104D02*
G01X16924Y20694D01*
G01X17474Y20694D01*
G01X17474Y20104D01*
G01X16924Y20104D01*
G37*
G54D20*
G01X17199Y21399D03*
G01X14199Y21399D03*
G01X14199Y20399D03*
G54D12*
G01X9609Y23700D03*
G36*
G01X7963Y23346D02*
G01X7255Y23346D01*
G01X7255Y24054D01*
G01X7963Y24054D01*
G01X7963Y23346D01*
G37*
G54D20*
G01X20099Y29999D03*
G01X20099Y25999D03*
G01X15699Y17100D03*
G01X18699Y17100D03*
G54D16*
G01X1399Y25700D03*
G54D17*
G01X1399Y24700D03*
G01X1399Y23700D03*
G01X1399Y22700D03*
G01X1399Y21700D03*
G01X1399Y20700D03*
G01X1399Y19700D03*
G54D30*
G01X29399Y30499D03*
G54D13*
G01X29399Y29500D03*
G54D31*
G01X10399Y29700D03*
G01X12399Y29700D03*
G01X11399Y30700D03*
G54D20*
G01X6699Y25699D03*
G01X9699Y25699D03*
G01X13499Y30300D03*
G01X16499Y30300D03*
G54D32*
G01X30899Y14900D03*
G54D20*
G01X31899Y14900D03*
G01X32899Y14900D03*
G01X33899Y14900D03*
G01X34899Y14900D03*
G54D33*
G01X32099Y29500D03*
G01X32099Y30500D03*
G01X32899Y19300D03*
G01X30931Y19300D03*
G01X33899Y16306D02*
G01X33899Y16493D01*
G01X32899Y16306D02*
G01X32899Y16493D01*
G54D34*
G01X31899Y16309D02*
G01X31899Y16490D01*
G01X30899Y16309D02*
G01X30899Y16490D01*
G01X29899Y16309D02*
G01X29899Y16490D01*
G54D26*
G01X37901Y11899D02*
G01X38098Y11899D01*
G54D35*
G01X37881Y10900D02*
G01X38118Y10900D01*
G01X37881Y9900D02*
G01X38118Y9900D01*
G01X37881Y8900D02*
G01X38118Y8900D01*
G01X37881Y7900D02*
G01X38118Y7900D01*
G01X37881Y6900D02*
G01X38118Y6900D01*
G01X37881Y5900D02*
G01X38118Y5900D01*
G01X37881Y4900D02*
G01X38118Y4900D01*
G01X37881Y3900D02*
G01X38118Y3900D01*
G01X37881Y2900D02*
G01X38118Y2900D01*
G54D26*
G01X37842Y26700D02*
G01X38157Y26700D01*
G01X37842Y25700D02*
G01X38157Y25700D01*
G01X37842Y24700D02*
G01X38157Y24700D01*
G01X37842Y23700D02*
G01X38157Y23700D01*
G01X37842Y22700D02*
G01X38157Y22700D01*
G01X37842Y21700D02*
G01X38157Y21700D01*
G01X37842Y20700D02*
G01X38157Y20700D01*
G01X37842Y19700D02*
G01X38157Y19700D01*
G01X37842Y18700D02*
G01X38157Y18700D01*
G54D28*
G01X21463Y29099D02*
G01X21336Y29099D01*
G01X21463Y28099D02*
G01X21336Y28099D01*
G01X21463Y27099D02*
G01X21336Y27099D01*
G01X21463Y26099D02*
G01X21336Y26099D01*
G01X21463Y25099D02*
G01X21336Y25099D01*
G01X21463Y24099D02*
G01X21336Y24099D01*
G01X21463Y23099D02*
G01X21336Y23099D01*
G01X21463Y22099D02*
G01X21336Y22099D01*
G01X21463Y21099D02*
G01X21336Y21099D01*
G01X21463Y20099D02*
G01X21336Y20099D01*
G01X21463Y19099D02*
G01X21336Y19099D01*
G01X21463Y18099D02*
G01X21336Y18099D01*
G01X21463Y17099D02*
G01X21336Y17099D01*
G54D13*
G01X27478Y30099D02*
G01X27321Y30099D01*
G01X27478Y29099D02*
G01X27321Y29099D01*
G01X27478Y28099D02*
G01X27321Y28099D01*
G01X27478Y27099D02*
G01X27321Y27099D01*
G01X27478Y26099D02*
G01X27321Y26099D01*
G01X27478Y25099D02*
G01X27321Y25099D01*
G01X27478Y24099D02*
G01X27321Y24099D01*
G01X27478Y23099D02*
G01X27321Y23099D01*
G01X27478Y22099D02*
G01X27321Y22099D01*
G01X27478Y21099D02*
G01X27321Y21099D01*
G01X27478Y20099D02*
G01X27321Y20099D01*
G01X27478Y19099D02*
G01X27321Y19099D01*
G01X27478Y18099D02*
G01X27321Y18099D01*
G01X27478Y17099D02*
G01X27321Y17099D01*
G01X27478Y16099D02*
G01X27321Y16099D01*
G54D12*
G01X8609Y23700D02*
G01X8609Y23700D01*
M00*
M02*
