;Layer: Drill PTH
;EasyEDA v6.3.53, 2020-06-13T07:22:25+03:00
;f51c9f6fd95d48469e0b4201acb47e0f,1102b9164c3b4fd2a1726ad73ad25fb7,10
;Gerber Generator version 0.2
M48
INCH,LZ,00.0000
;Holesize 1 = 0.028 INCH
T01C0.028
;Holesize 2 = 0.028 INCH
T02C0.028
;Holesize 3 = 0.032 INCH
T03C0.032
;Holesize 4 = 0.035 INCH
T04C0.035
;Holesize 5 = 0.035 INCH
T05C0.035
;Holesize 6 = 0.036 INCH
T06C0.036
;Holesize 7 = 0.037 INCH
T07C0.037
;Holesize 8 = 0.040 INCH
T08C0.040
;Holesize 9 = 0.043 INCH
T09C0.043
;Holesize 10 = 0.044 INCH
T10C0.044
;Holesize 11 = 0.047 INCH
T11C0.047
%
G05
G90
T01
X+030799Y+027700
X+030799Y+026699
X+030799Y+025699
X+030799Y+024699
X+030799Y+023699
X+030799Y+022699
X+030799Y+021699
X+030799Y+020699
X+033799Y+020699
X+033799Y+021699
X+033799Y+022699
X+033799Y+023700
X+033799Y+024699
X+033799Y+025699
X+033799Y+026699
X+033799Y+027699
X+015699Y+017100
X+018699Y+017100
X+006699Y+025699
X+009699Y+025699
X+013499Y+030300
X+016499Y+030300
T02
X+019599Y+019100
X+015599Y+019100
X+017199Y+022799
X+017199Y+023800
X+014199Y+023800
X+014199Y+022800
X+017199Y+025199
X+017199Y+026200
X+014199Y+026200
X+014199Y+025200
X+017199Y+027599
X+017199Y+028600
X+014199Y+028600
X+014199Y+027600
X+005499Y+020399
X+005499Y+024399
X+002799Y+020200
X+002799Y+024200
X+017199Y+020399
X+017199Y+021399
X+014199Y+021399
X+014199Y+020399
X+020099Y+029999
X+020099Y+025999
T03
X+019099Y+001100
X+020099Y+001100
X+004799Y+001600
X+005799Y+001600
X+013999Y+001600
X+014999Y+001600
X+024799Y+001600
X+025799Y+001600
X+033899Y+001600
X+034899Y+001600
X+010399Y+029700
X+012399Y+029700
X+011399Y+030700
T04
X+001399Y+009900
X+001399Y+008900
X+001399Y+007900
X+001399Y+006900
X+001399Y+005900
X+001399Y+004900
X+001399Y+003900
X+005799Y+025699
X+002749Y+025699
X+001399Y+025700
X+001399Y+024700
X+001399Y+023700
X+001399Y+022700
X+001399Y+021700
X+001399Y+020700
X+001399Y+019700
T05
X+002299Y+027400
X+002299Y+029400
X+031899Y+014900
X+032899Y+014900
X+033899Y+014900
X+034899Y+014900
T06
X+034899Y+016400
X+033899Y+016400
X+032899Y+016400
X+031899Y+016400
X+030899Y+016400
X+029899Y+016400
X+021399Y+030100
X+021399Y+029099
X+021399Y+028099
X+021399Y+027099
X+021399Y+026099
X+021399Y+025099
X+021399Y+024099
X+021399Y+023099
X+021399Y+022099
X+021399Y+021099
X+021399Y+020099
X+021399Y+019099
X+021399Y+018099
X+021399Y+017099
X+021399Y+015999
X+027399Y+030099
X+027399Y+029099
X+027399Y+028099
X+027399Y+027099
X+027399Y+026099
X+027399Y+025099
X+027399Y+024099
X+027399Y+023099
X+027399Y+022099
X+027399Y+021099
X+027399Y+020099
X+027399Y+019099
X+027399Y+018099
X+027399Y+017099
X+027399Y+016099
X+032099Y+029500
X+032099Y+030500
X+032899Y+019300
X+030931Y+019300
T07
X+037999Y+011899
X+037999Y+010900
X+037999Y+009900
X+037999Y+008900
X+037999Y+007900
X+037999Y+006900
X+037999Y+005900
X+037999Y+004900
X+037999Y+003900
X+037999Y+002900
X+018999Y+029900
X+017999Y+029900
X+037999Y+027700
X+037999Y+026700
X+037999Y+025700
X+037999Y+024700
X+037999Y+023700
X+037999Y+022700
X+037999Y+021700
X+037999Y+020700
X+037999Y+019700
X+037999Y+018700
T08
X+030899Y+014900
T09
X+029399Y+030499
X+029399Y+029500
T10
X+009609Y+023700
X+008609Y+023700
X+007609Y+023700
T11
X+013599Y+014200
X+011040Y+014200
X+011040Y+015971
X+013599Y+015971
X+008600Y+014199
X+006041Y+014199
X+006041Y+015971
X+008600Y+015971
X+018599Y+014200
X+016040Y+014200
X+016040Y+015971
X+018599Y+015971
X+032829Y+011050
X+034400Y+011439
X+035970Y+011050
X+036660Y+009669
X+036660Y+007900
X+036660Y+006130
X+035970Y+004750
X+034400Y+004360
X+032829Y+004750
X+032139Y+006130
X+032139Y+007900
X+032139Y+009669
X+023630Y+011051
X+025199Y+011441
X+026770Y+011051
X+027460Y+009670
X+027460Y+007900
X+027460Y+006131
X+026770Y+004750
X+025199Y+004361
X+023630Y+004750
X+022940Y+006131
X+022940Y+007900
X+022940Y+009670
X+012829Y+011051
X+014399Y+011442
X+015970Y+011051
X+016660Y+009672
X+016660Y+007901
X+016660Y+006131
X+015970Y+004751
X+014399Y+004362
X+012829Y+004751
X+012140Y+006131
X+012140Y+007901
X+012140Y+009672
X+003629Y+011051
X+005200Y+011441
X+006769Y+011051
X+007459Y+009670
X+007459Y+007900
X+007459Y+006131
X+006769Y+004750
X+005200Y+004361
X+003629Y+004750
X+002940Y+006131
X+002940Y+007900
X+002940Y+009670
M30
